<?xml version="1.0" encoding="UTF-8"?><svg xmlns="http://www.w3.org/2000/svg" xmlns:xlink="http://www.w3.org/1999/xlink" clip-rule="evenodd" stroke-miterlimit="4.00" viewBox="0 0 193 23"><desc>SVG generated by Keynote</desc><defs></defs><g transform="matrix(1.00, 0.00, -0.00, -1.00, 0.0, 23.0)"><text xml:space="preserve" font-family="Avenir-Heavy" font-weight="bold" font-size="25.0" fill="#000000" transform="matrix(1.00, 0.00, -0.00, -1.00, 1.0, 2.0)">O</text><text xml:space="preserve" font-family="Avenir-Heavy" font-weight="bold" font-size="25.0" fill="#000000" transform="matrix(1.00, 0.00, -0.00, -1.00, 21.8, 2.0)">N</text><text xml:space="preserve" font-family="Avenir-Heavy" font-weight="bold" font-size="25.0" fill="#000000" transform="matrix(1.00, 0.00, -0.00, -1.00, 41.7, 2.0)"> </text><text xml:space="preserve" font-family="Avenir-Heavy" font-weight="bold" font-size="25.0" fill="#000000" transform="matrix(1.00, 0.00, -0.00, -1.00, 49.1, 2.0)">T</text><text xml:space="preserve" font-family="Avenir-Heavy" font-weight="bold" font-size="25.0" fill="#000000" transform="matrix(1.00, 0.00, -0.00, -1.00, 63.5, 2.0)">H</text><text xml:space="preserve" font-family="Avenir-Heavy" font-weight="bold" font-size="25.0" fill="#000000" transform="matrix(1.00, 0.00, -0.00, -1.00, 82.0, 2.0)">E</text><text xml:space="preserve" font-family="Avenir-Heavy" font-weight="bold" font-size="25.0" fill="#000000" transform="matrix(1.00, 0.00, -0.00, -1.00, 97.3, 2.0)">I</text><text xml:space="preserve" font-family="Avenir-Heavy" font-weight="bold" font-size="25.0" fill="#000000" transform="matrix(1.00, 0.00, -0.00, -1.00, 104.2, 2.0)">R</text><text xml:space="preserve" font-family="Avenir-Heavy" font-weight="bold" font-size="25.0" fill="#000000" transform="matrix(1.00, 0.00, -0.00, -1.00, 120.0, 2.0)"> </text><text xml:space="preserve" font-family="Avenir-Heavy" font-weight="bold" font-size="25.0" fill="#000000" transform="matrix(1.00, 0.00, -0.00, -1.00, 127.4, 2.0)">O</text><text xml:space="preserve" font-family="Avenir-Heavy" font-weight="bold" font-size="25.0" fill="#000000" transform="matrix(1.00, 0.00, -0.00, -1.00, 148.2, 2.0)">W</text><text xml:space="preserve" font-family="Avenir-Heavy" font-weight="bold" font-size="25.0" fill="#000000" transform="matrix(1.00, 0.00, -0.00, -1.00, 172.7, 2.0)">N</text></g></svg>