<?xml version="1.0" encoding="UTF-8"?><svg xmlns="http://www.w3.org/2000/svg" xmlns:xlink="http://www.w3.org/1999/xlink" clip-rule="evenodd" stroke-miterlimit="4.00" viewBox="0 0 248 29"><desc>SVG generated by Keynote</desc><defs></defs><g transform="matrix(1.00, 0.00, -0.00, -1.00, 0.0, 29.0)"><text xml:space="preserve" font-family="Avenir-Medium" font-size="25.0" fill="#000000" transform="matrix(1.00, 0.00, -0.00, -1.00, -1.0, 8.0)">N</text><text xml:space="preserve" font-family="Avenir-Medium" font-size="25.0" fill="#000000" transform="matrix(1.00, 0.00, -0.00, -1.00, 18.9, 8.0)">o</text><text xml:space="preserve" font-family="Avenir-Medium" font-size="25.0" fill="#000000" transform="matrix(1.00, 0.00, -0.00, -1.00, 33.8, 8.0)">t</text><text xml:space="preserve" font-family="Avenir-Medium" font-size="25.0" fill="#000000" transform="matrix(1.00, 0.00, -0.00, -1.00, 43.0, 8.0)"> </text><text xml:space="preserve" font-family="Avenir-Medium" font-size="25.0" fill="#000000" transform="matrix(1.00, 0.00, -0.00, -1.00, 50.0, 8.0)">r</text><text xml:space="preserve" font-family="Avenir-Medium" font-size="25.0" fill="#000000" transform="matrix(1.00, 0.00, -0.00, -1.00, 58.8, 8.0)">e</text><text xml:space="preserve" font-family="Avenir-Medium" font-size="25.0" fill="#000000" transform="matrix(1.00, 0.00, -0.00, -1.00, 72.7, 8.0)">a</text><text xml:space="preserve" font-family="Avenir-Medium" font-size="25.0" fill="#000000" transform="matrix(1.00, 0.00, -0.00, -1.00, 85.6, 8.0)">l</text><text xml:space="preserve" font-family="Avenir-Medium" font-size="25.0" fill="#000000" transform="matrix(1.00, 0.00, -0.00, -1.00, 91.6, 8.0)">l</text><text xml:space="preserve" font-family="Avenir-Medium" font-size="25.0" fill="#000000" transform="matrix(1.00, 0.00, -0.00, -1.00, 97.6, 8.0)">y</text><text xml:space="preserve" font-family="Avenir-Medium" font-size="25.0" fill="#000000" transform="matrix(1.00, 0.00, -0.00, -1.00, 110.1, 8.0)"> </text><text xml:space="preserve" font-family="Avenir-Medium" font-size="25.0" fill="#000000" transform="matrix(1.00, 0.00, -0.00, -1.00, 117.1, 8.0)">a</text><text xml:space="preserve" font-family="Avenir-Medium" font-size="25.0" fill="#000000" transform="matrix(1.00, 0.00, -0.00, -1.00, 130.1, 8.0)">f</text><text xml:space="preserve" font-family="Avenir-Medium" font-size="25.0" fill="#000000" transform="matrix(1.00, 0.00, -0.00, -1.00, 137.9, 8.0)">f</text><text xml:space="preserve" font-family="Avenir-Medium" font-size="25.0" fill="#000000" transform="matrix(1.00, 0.00, -0.00, -1.00, 146.2, 8.0)">e</text><text xml:space="preserve" font-family="Avenir-Medium" font-size="25.0" fill="#000000" transform="matrix(1.00, 0.00, -0.00, -1.00, 160.2, 8.0)">c</text><text xml:space="preserve" font-family="Avenir-Medium" font-size="25.0" fill="#000000" transform="matrix(1.00, 0.00, -0.00, -1.00, 172.2, 8.0)">t</text><text xml:space="preserve" font-family="Avenir-Medium" font-size="25.0" fill="#000000" transform="matrix(1.00, 0.00, -0.00, -1.00, 181.5, 8.0)">e</text><text xml:space="preserve" font-family="Avenir-Medium" font-size="25.0" fill="#000000" transform="matrix(1.00, 0.00, -0.00, -1.00, 195.4, 8.0)">d</text><text xml:space="preserve" font-family="Avenir-Medium" font-size="25.0" fill="#000000" transform="matrix(1.00, 0.00, -0.00, -1.00, 210.6, 8.0)"> </text><text xml:space="preserve" font-family="Avenir-Medium" font-size="25.0" fill="#000000" transform="matrix(1.00, 0.00, -0.00, -1.00, 217.6, 8.0)">b</text><text xml:space="preserve" font-family="Avenir-Medium" font-size="25.0" fill="#000000" transform="matrix(1.00, 0.00, -0.00, -1.00, 232.9, 8.0)">y</text></g></svg>