<?xml version="1.0" encoding="UTF-8"?><svg xmlns="http://www.w3.org/2000/svg" xmlns:xlink="http://www.w3.org/1999/xlink" clip-rule="evenodd" stroke-miterlimit="4.00" viewBox="0 0 151 23"><desc>SVG generated by Keynote</desc><defs></defs><g transform="matrix(1.00, 0.00, -0.00, -1.00, 0.0, 23.0)"><text xml:space="preserve" font-family="Avenir-Heavy" font-weight="bold" font-size="25.0" fill="#000000" transform="matrix(1.00, 0.00, -0.00, -1.00, 1.0, 2.0)">G</text><text xml:space="preserve" font-family="Avenir-Heavy" font-weight="bold" font-size="25.0" fill="#000000" transform="matrix(1.00, 0.00, -0.00, -1.00, 20.5, 2.0)">U</text><text xml:space="preserve" font-family="Avenir-Heavy" font-weight="bold" font-size="25.0" fill="#000000" transform="matrix(1.00, 0.00, -0.00, -1.00, 38.5, 2.0)">A</text><text xml:space="preserve" font-family="Avenir-Heavy" font-weight="bold" font-size="25.0" fill="#000000" transform="matrix(1.00, 0.00, -0.00, -1.00, 56.5, 2.0)">R</text><text xml:space="preserve" font-family="Avenir-Heavy" font-weight="bold" font-size="25.0" fill="#000000" transform="matrix(1.00, 0.00, -0.00, -1.00, 72.3, 2.0)">D</text><text xml:space="preserve" font-family="Avenir-Heavy" font-weight="bold" font-size="25.0" fill="#000000" transform="matrix(1.00, 0.00, -0.00, -1.00, 91.3, 2.0)">I</text><text xml:space="preserve" font-family="Avenir-Heavy" font-weight="bold" font-size="25.0" fill="#000000" transform="matrix(1.00, 0.00, -0.00, -1.00, 98.2, 2.0)">A</text><text xml:space="preserve" font-family="Avenir-Heavy" font-weight="bold" font-size="25.0" fill="#000000" transform="matrix(1.00, 0.00, -0.00, -1.00, 116.3, 2.0)">N</text><text xml:space="preserve" font-family="Avenir-Heavy" font-weight="bold" font-size="25.0" fill="#000000" transform="matrix(1.00, 0.00, -0.00, -1.00, 136.2, 2.0)">S</text></g></svg>