<?xml version="1.0" encoding="UTF-8"?><svg xmlns="http://www.w3.org/2000/svg" xmlns:xlink="http://www.w3.org/1999/xlink" clip-rule="evenodd" stroke-miterlimit="4.00" viewBox="0 0 218 211"><desc>SVG generated by Keynote</desc><defs></defs><g transform="matrix(1.00, 0.00, -0.00, -1.00, 0.0, 211.0)"><image xlink:href="../../E46AC35E-2AD8-4524-B559-D978B1404079/assets/6E4B5981DDFEEE462DB8F96BA2488AA8.png" width="208.00" height="200.00" transform="matrix(1.00, 0.00, -0.00, -1.00, 8.6, 201.8)" opacity="0.50"></image><g><clipPath id="clip-519"><path d="M 9.0 9.0 L 209.0 9.0 L 209.0 201.0 L 9.0 201.0 Z M 9.0 9.0 "></path></clipPath><g clip-path="url(#clip-519)"><g><g><clipPath id="clip-520"><path d="M 9.0 9.0 L 209.0 9.0 L 209.0 201.0 L 9.0 201.0 Z M 9.0 9.0 "></path></clipPath><g clip-path="url(#clip-520)"><g><g><clipPath id="clip-521"><path d="M 16.4 10.4 L 201.7 10.4 L 201.7 195.1 L 16.4 195.1 Z M 16.4 10.4 "></path></clipPath><g clip-path="url(#clip-521)"><path d="M 16.4 10.4 L 201.7 10.4 L 201.7 195.1 L 16.4 195.1 Z M 16.4 10.4 " fill="#221F1F" fill-opacity="0.75"></path></g></g></g></g></g><g><clipPath id="clip-522"><path d="M 17.8 103.8 C 17.8 54.1 58.1 13.8 107.9 13.8 L 107.9 13.8 C 157.7 13.8 198.1 54.1 198.1 103.8 L 198.1 103.8 C 198.1 153.5 157.7 193.8 107.9 193.8 L 107.9 193.8 C 58.1 193.8 17.8 153.5 17.8 103.8 "></path></clipPath><g clip-path="url(#clip-522)"><g><clipPath id="clip-523"><path d="M 9.0 9.0 L 209.0 9.0 L 209.0 201.0 L 9.0 201.0 Z M 9.0 9.0 "></path></clipPath><g clip-path="url(#clip-523)"><image xlink:href="../../A8940BEC-4C2A-471D-AD27-5A033DABFED8/assets/3C45B0709203D76CF8229C4278234364.jpeg" width="494.00" height="494.00" transform="matrix(0.00, -0.37, -0.37, 0.00, 199.0, 194.8)"></image></g></g></g></g></g></g></g></g></svg>