<?xml version="1.0" encoding="UTF-8"?><svg xmlns="http://www.w3.org/2000/svg" xmlns:xlink="http://www.w3.org/1999/xlink" clip-rule="evenodd" stroke-miterlimit="4.00" viewBox="0 0 462 77"><desc>SVG generated by Keynote</desc><defs></defs><g transform="matrix(1.00, 0.00, -0.00, -1.00, 0.0, 77.0)"><text xml:space="preserve" font-family="AvenirNextCondensed-Bold" font-weight="bold" font-size="98.0" fill="#0F355F" transform="matrix(1.00, 0.00, -0.00, -1.00, 2.0, 4.0)">T</text><text xml:space="preserve" font-family="AvenirNextCondensed-Bold" font-weight="bold" font-size="98.0" fill="#0F355F" transform="matrix(1.00, 0.00, -0.00, -1.00, 42.7, 4.0)">R</text><text xml:space="preserve" font-family="AvenirNextCondensed-Bold" font-weight="bold" font-size="98.0" fill="#0F355F" transform="matrix(1.00, 0.00, -0.00, -1.00, 95.7, 4.0)">A</text><text xml:space="preserve" font-family="AvenirNextCondensed-Bold" font-weight="bold" font-size="98.0" fill="#0F355F" transform="matrix(1.00, 0.00, -0.00, -1.00, 148.9, 4.0)">N</text><text xml:space="preserve" font-family="AvenirNextCondensed-Bold" font-weight="bold" font-size="98.0" fill="#0F355F" transform="matrix(1.00, 0.00, -0.00, -1.00, 208.0, 4.0)">S</text><text xml:space="preserve" font-family="AvenirNextCondensed-Bold" font-weight="bold" font-size="98.0" fill="#0F355F" transform="matrix(1.00, 0.00, -0.00, -1.00, 253.2, 4.0)">C</text><text xml:space="preserve" font-family="AvenirNextCondensed-Bold" font-weight="bold" font-size="98.0" fill="#0F355F" transform="matrix(1.00, 0.00, -0.00, -1.00, 303.3, 4.0)">E</text><text xml:space="preserve" font-family="AvenirNextCondensed-Bold" font-weight="bold" font-size="98.0" fill="#0F355F" transform="matrix(1.00, 0.00, -0.00, -1.00, 347.3, 4.0)">N</text><text xml:space="preserve" font-family="AvenirNextCondensed-Bold" font-weight="bold" font-size="98.0" fill="#0F355F" transform="matrix(1.00, 0.00, -0.00, -1.00, 406.3, 4.0)">D</text></g></svg>