<?xml version="1.0" encoding="UTF-8"?><svg xmlns="http://www.w3.org/2000/svg" xmlns:xlink="http://www.w3.org/1999/xlink" clip-rule="evenodd" stroke-miterlimit="4.00" viewBox="0 0 910 45"><desc>SVG generated by Keynote</desc><defs></defs><g transform="matrix(1.00, 0.00, -0.00, -1.00, 0.0, 45.0)"><text xml:space="preserve" font-family="Avenir-Light" font-size="30.0" fill="#000000" transform="matrix(1.00, 0.00, -0.00, -1.00, 0.7, 14.9)">•</text><text xml:space="preserve" font-family="Avenir-Light" font-size="40.0" fill="#000000" transform="matrix(1.00, 0.00, -0.00, -1.00, 40.0, 12.0)">T</text><text xml:space="preserve" font-family="Avenir-Light" font-size="40.0" fill="#000000" transform="matrix(1.00, 0.00, -0.00, -1.00, 63.0, 12.0)">h</text><text xml:space="preserve" font-family="Avenir-Light" font-size="40.0" fill="#000000" transform="matrix(1.00, 0.00, -0.00, -1.00, 85.2, 12.0)">e</text><text xml:space="preserve" font-family="Avenir-Light" font-size="40.0" fill="#000000" transform="matrix(1.00, 0.00, -0.00, -1.00, 107.4, 12.0)"> </text><text xml:space="preserve" font-family="Avenir-Light" font-size="40.0" fill="#000000" transform="matrix(1.00, 0.00, -0.00, -1.00, 117.8, 12.0)">g</text><text xml:space="preserve" font-family="Avenir-Light" font-size="40.0" fill="#000000" transform="matrix(1.00, 0.00, -0.00, -1.00, 142.3, 12.0)">o</text><text xml:space="preserve" font-family="Avenir-Light" font-size="40.0" fill="#000000" transform="matrix(1.00, 0.00, -0.00, -1.00, 166.0, 12.0)">a</text><text xml:space="preserve" font-family="Avenir-Light" font-size="40.0" fill="#000000" transform="matrix(1.00, 0.00, -0.00, -1.00, 186.8, 12.0)">l</text><text xml:space="preserve" font-family="Avenir-Light" font-size="40.0" fill="#000000" transform="matrix(1.00, 0.00, -0.00, -1.00, 196.4, 12.0)"> </text><text xml:space="preserve" font-family="Avenir-Light" font-size="40.0" fill="#000000" transform="matrix(1.00, 0.00, -0.00, -1.00, 206.8, 12.0)">h</text><text xml:space="preserve" font-family="Avenir-Light" font-size="40.0" fill="#000000" transform="matrix(1.00, 0.00, -0.00, -1.00, 229.0, 12.0)">e</text><text xml:space="preserve" font-family="Avenir-Light" font-size="40.0" fill="#000000" transform="matrix(1.00, 0.00, -0.00, -1.00, 251.3, 12.0)">r</text><text xml:space="preserve" font-family="Avenir-Light" font-size="40.0" fill="#000000" transform="matrix(1.00, 0.00, -0.00, -1.00, 263.9, 12.0)">e</text><text xml:space="preserve" font-family="Avenir-Light" font-size="40.0" fill="#000000" transform="matrix(1.00, 0.00, -0.00, -1.00, 286.1, 12.0)"> </text><text xml:space="preserve" font-family="Avenir-Light" font-size="40.0" fill="#000000" transform="matrix(1.00, 0.00, -0.00, -1.00, 296.5, 12.0)">w</text><text xml:space="preserve" font-family="Avenir-Light" font-size="40.0" fill="#000000" transform="matrix(1.00, 0.00, -0.00, -1.00, 324.7, 12.0)">a</text><text xml:space="preserve" font-family="Avenir-Light" font-size="40.0" fill="#000000" transform="matrix(1.00, 0.00, -0.00, -1.00, 345.4, 12.0)">s</text><text xml:space="preserve" font-family="Avenir-Light" font-size="40.0" fill="#000000" transform="matrix(1.00, 0.00, -0.00, -1.00, 362.5, 12.0)"> </text><text xml:space="preserve" font-family="Avenir-Light" font-size="40.0" fill="#000000" transform="matrix(1.00, 0.00, -0.00, -1.00, 372.9, 12.0)">t</text><text xml:space="preserve" font-family="Avenir-Light" font-size="40.0" fill="#000000" transform="matrix(1.00, 0.00, -0.00, -1.00, 386.2, 12.0)">o</text><text xml:space="preserve" font-family="Avenir-Light" font-size="40.0" fill="#000000" transform="matrix(1.00, 0.00, -0.00, -1.00, 410.0, 12.0)"> </text><text xml:space="preserve" font-family="Avenir-Light" font-size="40.0" fill="#000000" transform="matrix(1.00, 0.00, -0.00, -1.00, 420.4, 12.0)">i</text><text xml:space="preserve" font-family="Avenir-Light" font-size="40.0" fill="#000000" transform="matrix(1.00, 0.00, -0.00, -1.00, 430.0, 12.0)">d</text><text xml:space="preserve" font-family="Avenir-Light" font-size="40.0" fill="#000000" transform="matrix(1.00, 0.00, -0.00, -1.00, 454.4, 12.0)">e</text><text xml:space="preserve" font-family="Avenir-Light" font-size="40.0" fill="#000000" transform="matrix(1.00, 0.00, -0.00, -1.00, 476.6, 12.0)">n</text><text xml:space="preserve" font-family="Avenir-Light" font-size="40.0" fill="#000000" transform="matrix(1.00, 0.00, -0.00, -1.00, 498.9, 12.0)">t</text><text xml:space="preserve" font-family="Avenir-Light" font-size="40.0" fill="#000000" transform="matrix(1.00, 0.00, -0.00, -1.00, 512.2, 12.0)">i</text><text xml:space="preserve" font-family="Avenir-Light" font-size="40.0" fill="#000000" transform="matrix(1.00, 0.00, -0.00, -1.00, 521.8, 12.0)">t</text><text xml:space="preserve" font-family="Avenir-Light" font-size="40.0" fill="#000000" transform="matrix(1.00, 0.00, -0.00, -1.00, 535.2, 12.0)">y</text><text xml:space="preserve" font-family="Avenir-Light" font-size="40.0" fill="#000000" transform="matrix(1.00, 0.00, -0.00, -1.00, 553.7, 12.0)"> </text><text xml:space="preserve" font-family="Avenir-Light" font-size="40.0" fill="#000000" transform="matrix(1.00, 0.00, -0.00, -1.00, 564.1, 12.0)">a</text><text xml:space="preserve" font-family="Avenir-Light" font-size="40.0" fill="#000000" transform="matrix(1.00, 0.00, -0.00, -1.00, 584.8, 12.0)">n</text><text xml:space="preserve" font-family="Avenir-Light" font-size="40.0" fill="#000000" transform="matrix(1.00, 0.00, -0.00, -1.00, 607.1, 12.0)"> </text><text xml:space="preserve" font-family="Avenir-Light" font-size="40.0" fill="#000000" transform="matrix(1.00, 0.00, -0.00, -1.00, 617.5, 12.0)">i</text><text xml:space="preserve" font-family="Avenir-Light" font-size="40.0" fill="#000000" transform="matrix(1.00, 0.00, -0.00, -1.00, 627.1, 12.0)">s</text><text xml:space="preserve" font-family="Avenir-Light" font-size="40.0" fill="#000000" transform="matrix(1.00, 0.00, -0.00, -1.00, 644.1, 12.0)">s</text><text xml:space="preserve" font-family="Avenir-Light" font-size="40.0" fill="#000000" transform="matrix(1.00, 0.00, -0.00, -1.00, 661.2, 12.0)">u</text><text xml:space="preserve" font-family="Avenir-Light" font-size="40.0" fill="#000000" transform="matrix(1.00, 0.00, -0.00, -1.00, 683.4, 12.0)">e</text><text xml:space="preserve" font-family="Avenir-Light" font-size="40.0" fill="#000000" transform="matrix(1.00, 0.00, -0.00, -1.00, 705.6, 12.0)"> </text><text xml:space="preserve" font-family="Avenir-Light" font-size="40.0" fill="#000000" transform="matrix(1.00, 0.00, -0.00, -1.00, 716.0, 12.0)">a</text><text xml:space="preserve" font-family="Avenir-Light" font-size="40.0" fill="#000000" transform="matrix(1.00, 0.00, -0.00, -1.00, 736.8, 12.0)">r</text><text xml:space="preserve" font-family="Avenir-Light" font-size="40.0" fill="#000000" transform="matrix(1.00, 0.00, -0.00, -1.00, 749.4, 12.0)">o</text><text xml:space="preserve" font-family="Avenir-Light" font-size="40.0" fill="#000000" transform="matrix(1.00, 0.00, -0.00, -1.00, 773.2, 12.0)">u</text><text xml:space="preserve" font-family="Avenir-Light" font-size="40.0" fill="#000000" transform="matrix(1.00, 0.00, -0.00, -1.00, 795.4, 12.0)">n</text><text xml:space="preserve" font-family="Avenir-Light" font-size="40.0" fill="#000000" transform="matrix(1.00, 0.00, -0.00, -1.00, 817.6, 12.0)">d</text><text xml:space="preserve" font-family="Avenir-Light" font-size="40.0" fill="#000000" transform="matrix(1.00, 0.00, -0.00, -1.00, 842.1, 12.0)"> </text><text xml:space="preserve" font-family="Avenir-Light" font-size="40.0" fill="#000000" transform="matrix(1.00, 0.00, -0.00, -1.00, 852.5, 12.0)">t</text><text xml:space="preserve" font-family="Avenir-Light" font-size="40.0" fill="#000000" transform="matrix(1.00, 0.00, -0.00, -1.00, 865.8, 12.0)">h</text><text xml:space="preserve" font-family="Avenir-Light" font-size="40.0" fill="#000000" transform="matrix(1.00, 0.00, -0.00, -1.00, 888.1, 12.0)">e</text></g></svg>