<?xml version="1.0" encoding="UTF-8"?><svg xmlns="http://www.w3.org/2000/svg" xmlns:xlink="http://www.w3.org/1999/xlink" clip-rule="evenodd" stroke-miterlimit="4.00" viewBox="0 0 1920 1080"><desc>SVG generated by Keynote</desc><defs></defs><g transform="matrix(1.00, 0.00, -0.00, -1.00, 0.0, 1080.0)"><path d="M 0.0 0.0 L 1920.0 0.0 L 1920.0 1080.0 L 0.0 1080.0 Z M 0.0 0.0 " fill="#FEFFFF"></path><path d="M 0.0 0.0 L 1233.4 0.0 " fill="none" stroke="#000000" stroke-width="2.00" transform="matrix(1.00, 0.00, 0.00, -1.00, 100.7, 894.5)"></path><text xml:space="preserve" font-family="AvenirNextCondensed-Bold" font-weight="bold" font-size="156.0" fill="#40925B" transform="matrix(1.00, 0.00, -0.00, -1.00, 156.0, 862.0)">P</text><text xml:space="preserve" font-family="AvenirNextCondensed-Bold" font-weight="bold" font-size="156.0" fill="#40925B" transform="matrix(1.00, 0.00, -0.00, -1.00, 237.4, 862.0)">R</text><text xml:space="preserve" font-family="AvenirNextCondensed-Bold" font-weight="bold" font-size="156.0" fill="#40925B" transform="matrix(1.00, 0.00, -0.00, -1.00, 321.8, 862.0)">O</text><text xml:space="preserve" font-family="AvenirNextCondensed-Bold" font-weight="bold" font-size="156.0" fill="#40925B" transform="matrix(1.00, 0.00, -0.00, -1.00, 417.3, 862.0)">C</text><text xml:space="preserve" font-family="AvenirNextCondensed-Bold" font-weight="bold" font-size="156.0" fill="#40925B" transform="matrix(1.00, 0.00, -0.00, -1.00, 497.2, 862.0)">E</text><text xml:space="preserve" font-family="AvenirNextCondensed-Bold" font-weight="bold" font-size="156.0" fill="#40925B" transform="matrix(1.00, 0.00, -0.00, -1.00, 567.1, 862.0)">S</text><text xml:space="preserve" font-family="AvenirNextCondensed-Bold" font-weight="bold" font-size="156.0" fill="#40925B" transform="matrix(1.00, 0.00, -0.00, -1.00, 639.0, 862.0)">S</text><g><clipPath id="clip-10"><path d="M -60.0 775.0 L 916.0 775.0 L 916.0 -52.0 L -60.0 -52.0 Z M -60.1 775.2 "></path></clipPath><g clip-path="url(#clip-10)"><image xlink:href="4D498B98FC6125A4A699D92F31ABAE97.jpeg" width="1011.00" height="767.00" transform="matrix(1.18, 0.00, -0.00, -1.18, -60.0, 851.0)"></image></g></g><g><clipPath id="clip-11"><path d="M 918.0 856.0 L 1980.0 856.0 L 1980.0 -57.0 L 918.0 -57.0 Z M 918.0 856.2 "></path></clipPath><g clip-path="url(#clip-11)"><image xlink:href="9A071D1B1B363B4CC7190BB4CAFE9FF6.jpeg" width="1001.00" height="768.00" transform="matrix(1.19, 0.00, -0.00, -1.19, 790.0, 856.0)"></image></g></g><g opacity="0.75"><g><clipPath id="clip-12"><path d="M 87.0 17.0 L 916.0 17.0 L 916.0 761.0 L 87.0 761.0 Z M 87.0 17.0 "></path></clipPath><g clip-path="url(#clip-12)"><path d="M 88.9 759.3 L 914.4 759.3 L 914.4 18.3 L 88.9 18.3 Z M 88.9 759.3 " fill="#40925B"></path></g></g></g><g opacity="0.75"><g><clipPath id="clip-13"><path d="M 937.0 17.0 L 1827.0 17.0 L 1827.0 761.0 L 937.0 761.0 Z M 937.0 17.0 "></path></clipPath><g clip-path="url(#clip-13)"><path d="M 938.7 759.3 L 1825.1 759.3 L 1825.1 18.3 L 938.7 18.3 Z M 938.7 759.3 " fill="#40925B"></path></g></g></g><text xml:space="preserve" font-family="Avenir-Heavy" font-weight="bold" font-size="50.0" fill="#FEFFFF" transform="matrix(1.00, 0.00, -0.00, -1.00, 404.0, 384.0)">R</text><text xml:space="preserve" font-family="Avenir-Heavy" font-weight="bold" font-size="50.0" fill="#FEFFFF" transform="matrix(1.00, 0.00, -0.00, -1.00, 435.5, 384.0)">o</text><text xml:space="preserve" font-family="Avenir-Heavy" font-weight="bold" font-size="50.0" fill="#FEFFFF" transform="matrix(1.00, 0.00, -0.00, -1.00, 466.0, 384.0)">u</text><text xml:space="preserve" font-family="Avenir-Heavy" font-weight="bold" font-size="50.0" fill="#FEFFFF" transform="matrix(1.00, 0.00, -0.00, -1.00, 494.7, 384.0)">n</text><text xml:space="preserve" font-family="Avenir-Heavy" font-weight="bold" font-size="50.0" fill="#FEFFFF" transform="matrix(1.00, 0.00, -0.00, -1.00, 523.4, 384.0)">d</text><text xml:space="preserve" font-family="Avenir-Heavy" font-weight="bold" font-size="50.0" fill="#FEFFFF" transform="matrix(1.00, 0.00, -0.00, -1.00, 554.9, 384.0)"> </text><text xml:space="preserve" font-family="Avenir-Heavy" font-weight="bold" font-size="50.0" fill="#FEFFFF" transform="matrix(1.00, 0.00, -0.00, -1.00, 569.7, 384.0)">1</text><text xml:space="preserve" font-family="Avenir-Heavy" font-weight="bold" font-size="50.0" fill="#FEFFFF" transform="matrix(1.00, 0.00, -0.00, -1.00, 1284.0, 384.0)">R</text><text xml:space="preserve" font-family="Avenir-Heavy" font-weight="bold" font-size="50.0" fill="#FEFFFF" transform="matrix(1.00, 0.00, -0.00, -1.00, 1315.5, 384.0)">o</text><text xml:space="preserve" font-family="Avenir-Heavy" font-weight="bold" font-size="50.0" fill="#FEFFFF" transform="matrix(1.00, 0.00, -0.00, -1.00, 1346.0, 384.0)">u</text><text xml:space="preserve" font-family="Avenir-Heavy" font-weight="bold" font-size="50.0" fill="#FEFFFF" transform="matrix(1.00, 0.00, -0.00, -1.00, 1374.7, 384.0)">n</text><text xml:space="preserve" font-family="Avenir-Heavy" font-weight="bold" font-size="50.0" fill="#FEFFFF" transform="matrix(1.00, 0.00, -0.00, -1.00, 1403.4, 384.0)">d</text><text xml:space="preserve" font-family="Avenir-Heavy" font-weight="bold" font-size="50.0" fill="#FEFFFF" transform="matrix(1.00, 0.00, -0.00, -1.00, 1434.9, 384.0)"> </text><text xml:space="preserve" font-family="Avenir-Heavy" font-weight="bold" font-size="50.0" fill="#FEFFFF" transform="matrix(1.00, 0.00, -0.00, -1.00, 1449.7, 384.0)">2</text></g></svg>