<?xml version="1.0" encoding="UTF-8"?><svg xmlns="http://www.w3.org/2000/svg" xmlns:xlink="http://www.w3.org/1999/xlink" clip-rule="evenodd" stroke-miterlimit="4.00" viewBox="0 0 582 42"><desc>SVG generated by Keynote</desc><defs></defs><g transform="matrix(1.00, 0.00, -0.00, -1.00, 0.0, 42.0)"><text xml:space="preserve" font-family="Avenir-Book" font-size="30.0" fill="#000000" transform="matrix(1.00, 0.00, -0.00, -1.00, 0.7, 11.9)">•</text><text xml:space="preserve" font-family="Avenir-Book" font-size="40.0" fill="#000000" transform="matrix(1.00, 0.00, -0.00, -1.00, 40.0, 9.0)">2</text><text xml:space="preserve" font-family="Avenir-Book" font-size="40.0" fill="#000000" transform="matrix(1.00, 0.00, -0.00, -1.00, 62.2, 9.0)"> </text><text xml:space="preserve" font-family="Avenir-Book" font-size="40.0" fill="#000000" transform="matrix(1.00, 0.00, -0.00, -1.00, 73.4, 9.0)">d</text><text xml:space="preserve" font-family="Avenir-Book" font-size="40.0" fill="#000000" transform="matrix(1.00, 0.00, -0.00, -1.00, 97.8, 9.0)">o</text><text xml:space="preserve" font-family="Avenir-Book" font-size="40.0" fill="#000000" transform="matrix(1.00, 0.00, -0.00, -1.00, 121.5, 9.0)">m</text><text xml:space="preserve" font-family="Avenir-Book" font-size="40.0" fill="#000000" transform="matrix(1.00, 0.00, -0.00, -1.00, 155.6, 9.0)">e</text><text xml:space="preserve" font-family="Avenir-Book" font-size="40.0" fill="#000000" transform="matrix(1.00, 0.00, -0.00, -1.00, 177.8, 9.0)">s</text><text xml:space="preserve" font-family="Avenir-Book" font-size="40.0" fill="#000000" transform="matrix(1.00, 0.00, -0.00, -1.00, 194.9, 9.0)">t</text><text xml:space="preserve" font-family="Avenir-Book" font-size="40.0" fill="#000000" transform="matrix(1.00, 0.00, -0.00, -1.00, 208.2, 9.0)">i</text><text xml:space="preserve" font-family="Avenir-Book" font-size="40.0" fill="#000000" transform="matrix(1.00, 0.00, -0.00, -1.00, 217.8, 9.0)">c</text><text xml:space="preserve" font-family="Avenir-Book" font-size="40.0" fill="#000000" transform="matrix(1.00, 0.00, -0.00, -1.00, 237.0, 9.0)"> </text><text xml:space="preserve" font-family="Avenir-Book" font-size="40.0" fill="#000000" transform="matrix(1.00, 0.00, -0.00, -1.00, 248.2, 9.0)">a</text><text xml:space="preserve" font-family="Avenir-Book" font-size="40.0" fill="#000000" transform="matrix(1.00, 0.00, -0.00, -1.00, 268.9, 9.0)">n</text><text xml:space="preserve" font-family="Avenir-Book" font-size="40.0" fill="#000000" transform="matrix(1.00, 0.00, -0.00, -1.00, 291.2, 9.0)">d</text><text xml:space="preserve" font-family="Avenir-Book" font-size="40.0" fill="#000000" transform="matrix(1.00, 0.00, -0.00, -1.00, 315.6, 9.0)"> </text><text xml:space="preserve" font-family="Avenir-Book" font-size="40.0" fill="#000000" transform="matrix(1.00, 0.00, -0.00, -1.00, 326.7, 9.0)">2</text><text xml:space="preserve" font-family="Avenir-Book" font-size="40.0" fill="#000000" transform="matrix(1.00, 0.00, -0.00, -1.00, 349.0, 9.0)"> </text><text xml:space="preserve" font-family="Avenir-Book" font-size="40.0" fill="#000000" transform="matrix(1.00, 0.00, -0.00, -1.00, 360.1, 9.0)">i</text><text xml:space="preserve" font-family="Avenir-Book" font-size="40.0" fill="#000000" transform="matrix(1.00, 0.00, -0.00, -1.00, 369.7, 9.0)">n</text><text xml:space="preserve" font-family="Avenir-Book" font-size="40.0" fill="#000000" transform="matrix(1.00, 0.00, -0.00, -1.00, 391.9, 9.0)">t</text><text xml:space="preserve" font-family="Avenir-Book" font-size="40.0" fill="#000000" transform="matrix(1.00, 0.00, -0.00, -1.00, 405.2, 9.0)">e</text><text xml:space="preserve" font-family="Avenir-Book" font-size="40.0" fill="#000000" transform="matrix(1.00, 0.00, -0.00, -1.00, 427.4, 9.0)">r</text><text xml:space="preserve" font-family="Avenir-Book" font-size="40.0" fill="#000000" transform="matrix(1.00, 0.00, -0.00, -1.00, 441.4, 9.0)">n</text><text xml:space="preserve" font-family="Avenir-Book" font-size="40.0" fill="#000000" transform="matrix(1.00, 0.00, -0.00, -1.00, 463.7, 9.0)">a</text><text xml:space="preserve" font-family="Avenir-Book" font-size="40.0" fill="#000000" transform="matrix(1.00, 0.00, -0.00, -1.00, 484.4, 9.0)">t</text><text xml:space="preserve" font-family="Avenir-Book" font-size="40.0" fill="#000000" transform="matrix(1.00, 0.00, -0.00, -1.00, 497.7, 9.0)">i</text><text xml:space="preserve" font-family="Avenir-Book" font-size="40.0" fill="#000000" transform="matrix(1.00, 0.00, -0.00, -1.00, 507.3, 9.0)">o</text><text xml:space="preserve" font-family="Avenir-Book" font-size="40.0" fill="#000000" transform="matrix(1.00, 0.00, -0.00, -1.00, 531.0, 9.0)">n</text><text xml:space="preserve" font-family="Avenir-Book" font-size="40.0" fill="#000000" transform="matrix(1.00, 0.00, -0.00, -1.00, 553.3, 9.0)">a</text><text xml:space="preserve" font-family="Avenir-Book" font-size="40.0" fill="#000000" transform="matrix(1.00, 0.00, -0.00, -1.00, 574.0, 9.0)">l</text></g></svg>