<?xml version="1.0" encoding="UTF-8"?><svg xmlns="http://www.w3.org/2000/svg" xmlns:xlink="http://www.w3.org/1999/xlink" clip-rule="evenodd" stroke-miterlimit="4.00" viewBox="0 0 446 42"><desc>SVG generated by Keynote</desc><defs></defs><g transform="matrix(1.00, 0.00, -0.00, -1.00, 0.0, 42.0)"><text xml:space="preserve" font-family="Avenir-Book" font-size="30.0" fill="#000000" transform="matrix(1.00, 0.00, -0.00, -1.00, 0.7, 11.9)">•</text><text xml:space="preserve" font-family="Avenir-Book" font-size="40.0" fill="#000000" transform="matrix(1.00, 0.00, -0.00, -1.00, 40.0, 9.0)">H</text><text xml:space="preserve" font-family="Avenir-Book" font-size="40.0" fill="#000000" transform="matrix(1.00, 0.00, -0.00, -1.00, 68.9, 9.0)">o</text><text xml:space="preserve" font-family="Avenir-Book" font-size="40.0" fill="#000000" transform="matrix(1.00, 0.00, -0.00, -1.00, 92.6, 9.0)">w</text><text xml:space="preserve" font-family="Avenir-Book" font-size="40.0" fill="#000000" transform="matrix(1.00, 0.00, -0.00, -1.00, 121.5, 9.0)"> </text><text xml:space="preserve" font-family="Avenir-Book" font-size="40.0" fill="#000000" transform="matrix(1.00, 0.00, -0.00, -1.00, 132.6, 9.0)">o</text><text xml:space="preserve" font-family="Avenir-Book" font-size="40.0" fill="#000000" transform="matrix(1.00, 0.00, -0.00, -1.00, 156.3, 9.0)">n</text><text xml:space="preserve" font-family="Avenir-Book" font-size="40.0" fill="#000000" transform="matrix(1.00, 0.00, -0.00, -1.00, 178.6, 9.0)">e</text><text xml:space="preserve" font-family="Avenir-Book" font-size="40.0" fill="#000000" transform="matrix(1.00, 0.00, -0.00, -1.00, 200.8, 9.0)"> </text><text xml:space="preserve" font-family="Avenir-Book" font-size="40.0" fill="#000000" transform="matrix(1.00, 0.00, -0.00, -1.00, 211.9, 9.0)">f</text><text xml:space="preserve" font-family="Avenir-Book" font-size="40.0" fill="#000000" transform="matrix(1.00, 0.00, -0.00, -1.00, 223.8, 9.0)">e</text><text xml:space="preserve" font-family="Avenir-Book" font-size="40.0" fill="#000000" transform="matrix(1.00, 0.00, -0.00, -1.00, 246.0, 9.0)">e</text><text xml:space="preserve" font-family="Avenir-Book" font-size="40.0" fill="#000000" transform="matrix(1.00, 0.00, -0.00, -1.00, 268.2, 9.0)">l</text><text xml:space="preserve" font-family="Avenir-Book" font-size="40.0" fill="#000000" transform="matrix(1.00, 0.00, -0.00, -1.00, 277.8, 9.0)">s</text><text xml:space="preserve" font-family="Avenir-Book" font-size="40.0" fill="#000000" transform="matrix(1.00, 0.00, -0.00, -1.00, 294.9, 9.0)"> </text><text xml:space="preserve" font-family="Avenir-Book" font-size="40.0" fill="#000000" transform="matrix(1.00, 0.00, -0.00, -1.00, 306.0, 9.0)">a</text><text xml:space="preserve" font-family="Avenir-Book" font-size="40.0" fill="#000000" transform="matrix(1.00, 0.00, -0.00, -1.00, 326.8, 9.0)">b</text><text xml:space="preserve" font-family="Avenir-Book" font-size="40.0" fill="#000000" transform="matrix(1.00, 0.00, -0.00, -1.00, 351.2, 9.0)">o</text><text xml:space="preserve" font-family="Avenir-Book" font-size="40.0" fill="#000000" transform="matrix(1.00, 0.00, -0.00, -1.00, 374.9, 9.0)">u</text><text xml:space="preserve" font-family="Avenir-Book" font-size="40.0" fill="#000000" transform="matrix(1.00, 0.00, -0.00, -1.00, 397.2, 9.0)">t</text><text xml:space="preserve" font-family="Avenir-Book" font-size="40.0" fill="#000000" transform="matrix(1.00, 0.00, -0.00, -1.00, 410.4, 9.0)"> </text><text xml:space="preserve" font-family="Avenir-Book" font-size="40.0" fill="#000000" transform="matrix(1.00, 0.00, -0.00, -1.00, 421.6, 9.0)">i</text><text xml:space="preserve" font-family="Avenir-Book" font-size="40.0" fill="#000000" transform="matrix(1.00, 0.00, -0.00, -1.00, 431.2, 9.0)">t</text></g></svg>