<?xml version="1.0" encoding="UTF-8"?><svg xmlns="http://www.w3.org/2000/svg" xmlns:xlink="http://www.w3.org/1999/xlink" clip-rule="evenodd" stroke-miterlimit="4.00" viewBox="0 0 321 45"><desc>SVG generated by Keynote</desc><defs></defs><g transform="matrix(1.00, 0.00, -0.00, -1.00, 0.0, 45.0)"><text xml:space="preserve" font-family="Avenir-Book" font-size="30.0" fill="#000000" transform="matrix(1.00, 0.00, -0.00, -1.00, 0.7, 14.9)">•</text><text xml:space="preserve" font-family="Avenir-Book" font-size="40.0" fill="#000000" transform="matrix(1.00, 0.00, -0.00, -1.00, 40.0, 12.0)">I</text><text xml:space="preserve" font-family="Avenir-Book" font-size="40.0" fill="#000000" transform="matrix(1.00, 0.00, -0.00, -1.00, 50.6, 12.0)">n</text><text xml:space="preserve" font-family="Avenir-Book" font-size="40.0" fill="#000000" transform="matrix(1.00, 0.00, -0.00, -1.00, 72.8, 12.0)">s</text><text xml:space="preserve" font-family="Avenir-Book" font-size="40.0" fill="#000000" transform="matrix(1.00, 0.00, -0.00, -1.00, 89.8, 12.0)">i</text><text xml:space="preserve" font-family="Avenir-Book" font-size="40.0" fill="#000000" transform="matrix(1.00, 0.00, -0.00, -1.00, 99.4, 12.0)">g</text><text xml:space="preserve" font-family="Avenir-Book" font-size="40.0" fill="#000000" transform="matrix(1.00, 0.00, -0.00, -1.00, 123.9, 12.0)">h</text><text xml:space="preserve" font-family="Avenir-Book" font-size="40.0" fill="#000000" transform="matrix(1.00, 0.00, -0.00, -1.00, 146.1, 12.0)">t</text><text xml:space="preserve" font-family="Avenir-Book" font-size="40.0" fill="#000000" transform="matrix(1.00, 0.00, -0.00, -1.00, 159.4, 12.0)">s</text><text xml:space="preserve" font-family="Avenir-Book" font-size="40.0" fill="#000000" transform="matrix(1.00, 0.00, -0.00, -1.00, 176.4, 12.0)"> </text><text xml:space="preserve" font-family="Avenir-Book" font-size="40.0" fill="#000000" transform="matrix(1.00, 0.00, -0.00, -1.00, 187.6, 12.0)">F</text><text xml:space="preserve" font-family="Avenir-Book" font-size="40.0" fill="#000000" transform="matrix(1.00, 0.00, -0.00, -1.00, 209.8, 12.0)">i</text><text xml:space="preserve" font-family="Avenir-Book" font-size="40.0" fill="#000000" transform="matrix(1.00, 0.00, -0.00, -1.00, 219.4, 12.0)">n</text><text xml:space="preserve" font-family="Avenir-Book" font-size="40.0" fill="#000000" transform="matrix(1.00, 0.00, -0.00, -1.00, 241.6, 12.0)">d</text><text xml:space="preserve" font-family="Avenir-Book" font-size="40.0" fill="#000000" transform="matrix(1.00, 0.00, -0.00, -1.00, 266.1, 12.0)">i</text><text xml:space="preserve" font-family="Avenir-Book" font-size="40.0" fill="#000000" transform="matrix(1.00, 0.00, -0.00, -1.00, 275.7, 12.0)">n</text><text xml:space="preserve" font-family="Avenir-Book" font-size="40.0" fill="#000000" transform="matrix(1.00, 0.00, -0.00, -1.00, 297.9, 12.0)">g</text></g></svg>