<?xml version="1.0" encoding="UTF-8"?><svg xmlns="http://www.w3.org/2000/svg" xmlns:xlink="http://www.w3.org/1999/xlink" clip-rule="evenodd" stroke-miterlimit="4.00" viewBox="0 0 238 24"><desc>SVG generated by Keynote</desc><defs></defs><g transform="matrix(1.00, 0.00, -0.00, -1.00, 0.0, 24.0)"><text xml:space="preserve" font-family="Avenir-Medium" font-size="25.0" fill="#000000" transform="matrix(1.00, 0.00, -0.00, -1.00, 2.0, 3.0)">W</text><text xml:space="preserve" font-family="Avenir-Medium" font-size="25.0" fill="#000000" transform="matrix(1.00, 0.00, -0.00, -1.00, 24.9, 3.0)">o</text><text xml:space="preserve" font-family="Avenir-Medium" font-size="25.0" fill="#000000" transform="matrix(1.00, 0.00, -0.00, -1.00, 39.7, 3.0)">r</text><text xml:space="preserve" font-family="Avenir-Medium" font-size="25.0" fill="#000000" transform="matrix(1.00, 0.00, -0.00, -1.00, 49.0, 3.0)">r</text><text xml:space="preserve" font-family="Avenir-Medium" font-size="25.0" fill="#000000" transform="matrix(1.00, 0.00, -0.00, -1.00, 58.2, 3.0)">i</text><text xml:space="preserve" font-family="Avenir-Medium" font-size="25.0" fill="#000000" transform="matrix(1.00, 0.00, -0.00, -1.00, 64.2, 3.0)">e</text><text xml:space="preserve" font-family="Avenir-Medium" font-size="25.0" fill="#000000" transform="matrix(1.00, 0.00, -0.00, -1.00, 78.1, 3.0)">s</text><text xml:space="preserve" font-family="Avenir-Medium" font-size="25.0" fill="#000000" transform="matrix(1.00, 0.00, -0.00, -1.00, 89.2, 3.0)"> </text><text xml:space="preserve" font-family="Avenir-Medium" font-size="25.0" fill="#000000" transform="matrix(1.00, 0.00, -0.00, -1.00, 96.2, 3.0)">a</text><text xml:space="preserve" font-family="Avenir-Medium" font-size="25.0" fill="#000000" transform="matrix(1.00, 0.00, -0.00, -1.00, 109.2, 3.0)">b</text><text xml:space="preserve" font-family="Avenir-Medium" font-size="25.0" fill="#000000" transform="matrix(1.00, 0.00, -0.00, -1.00, 124.4, 3.0)">o</text><text xml:space="preserve" font-family="Avenir-Medium" font-size="25.0" fill="#000000" transform="matrix(1.00, 0.00, -0.00, -1.00, 139.3, 3.0)">u</text><text xml:space="preserve" font-family="Avenir-Medium" font-size="25.0" fill="#000000" transform="matrix(1.00, 0.00, -0.00, -1.00, 153.2, 3.0)">t</text><text xml:space="preserve" font-family="Avenir-Medium" font-size="25.0" fill="#000000" transform="matrix(1.00, 0.00, -0.00, -1.00, 162.4, 3.0)"> </text><text xml:space="preserve" font-family="Avenir-Medium" font-size="25.0" fill="#000000" transform="matrix(1.00, 0.00, -0.00, -1.00, 169.4, 3.0)">f</text><text xml:space="preserve" font-family="Avenir-Medium" font-size="25.0" fill="#000000" transform="matrix(1.00, 0.00, -0.00, -1.00, 177.7, 3.0)">u</text><text xml:space="preserve" font-family="Avenir-Medium" font-size="25.0" fill="#000000" transform="matrix(1.00, 0.00, -0.00, -1.00, 191.6, 3.0)">t</text><text xml:space="preserve" font-family="Avenir-Medium" font-size="25.0" fill="#000000" transform="matrix(1.00, 0.00, -0.00, -1.00, 200.8, 3.0)">u</text><text xml:space="preserve" font-family="Avenir-Medium" font-size="25.0" fill="#000000" transform="matrix(1.00, 0.00, -0.00, -1.00, 214.8, 3.0)">r</text><text xml:space="preserve" font-family="Avenir-Medium" font-size="25.0" fill="#000000" transform="matrix(1.00, 0.00, -0.00, -1.00, 223.6, 3.0)">e</text></g></svg>