<?xml version="1.0" encoding="UTF-8"?><svg xmlns="http://www.w3.org/2000/svg" xmlns:xlink="http://www.w3.org/1999/xlink" clip-rule="evenodd" stroke-miterlimit="4.00" viewBox="0 0 110 93"><desc>SVG generated by Keynote</desc><defs></defs><g transform="matrix(1.00, 0.00, -0.00, -1.00, 0.0, 93.0)"><g><clipPath id="clip-345"><path d="M 1.4 1.5 L 108.9 1.5 L 108.9 91.8 L 1.4 91.8 Z M 1.4 1.5 "></path></clipPath><g clip-path="url(#clip-345)"><path d="M 79.6 18.7 C 79.0 18.6 78.4 18.5 77.7 18.3 C 77.5 18.3 77.3 18.2 77.1 18.2 C 76.7 18.1 76.3 18.0 75.8 18.0 C 75.6 17.9 75.3 17.9 75.1 17.9 C 74.7 17.8 74.3 17.7 73.8 17.7 C 73.6 17.7 73.4 17.6 73.1 17.6 C 72.7 17.6 72.2 17.5 71.7 17.5 C 71.5 17.5 71.3 17.5 71.1 17.4 C 70.5 17.4 69.8 17.4 69.2 17.4 C 69.1 17.4 69.0 17.4 69.0 17.4 C 68.4 17.3 67.8 17.3 67.2 17.3 C 66.9 17.3 66.7 17.3 66.5 17.4 C 66.5 17.4 66.4 17.4 66.4 17.4 L 70.5 18.2 L 73.1 25.4 C 74.3 26.3 75.1 27.4 75.6 28.7 L 79.6 39.5 L 79.6 39.5 L 79.6 39.5 C 79.6 39.6 79.7 39.6 79.7 39.7 C 79.7 39.8 79.7 39.8 79.7 39.9 C 79.8 39.9 79.8 40.0 79.8 40.0 C 79.8 40.2 79.9 40.3 79.9 40.5 C 80.0 41.0 80.0 41.4 80.0 41.9 C 80.0 42.3 80.0 42.7 79.9 43.1 C 79.9 43.2 79.9 43.3 79.8 43.4 C 79.8 43.5 79.8 43.5 79.8 43.6 C 79.8 43.6 79.8 43.6 79.8 43.6 C 79.7 44.1 79.5 44.6 79.3 45.1 C 79.2 45.3 79.1 45.6 78.9 45.8 C 78.7 46.3 78.4 46.7 78.1 47.2 C 78.0 47.4 77.9 47.6 77.7 47.8 C 77.7 47.8 77.6 47.9 77.6 48.0 C 77.5 48.1 77.4 48.2 77.3 48.3 C 77.2 48.4 77.2 48.5 77.1 48.5 C 77.0 48.6 77.0 48.8 76.9 48.9 C 76.8 48.9 76.7 49.0 76.7 49.1 C 76.6 49.2 76.5 49.3 76.4 49.4 C 76.4 49.4 76.4 49.4 76.4 49.4 C 76.3 49.4 76.3 49.5 76.3 49.5 C 76.0 49.7 75.8 50.0 75.6 50.2 C 75.5 50.2 75.5 50.2 75.5 50.2 C 75.3 50.5 75.0 50.7 74.7 50.9 C 74.7 50.9 74.7 50.9 74.7 51.0 C 74.4 51.2 74.1 51.4 73.9 51.5 C 73.8 51.6 73.8 51.6 73.7 51.6 C 73.5 51.8 73.2 52.0 73.0 52.2 C 72.9 52.2 72.9 52.2 72.8 52.2 C 72.5 52.4 72.3 52.6 72.0 52.7 C 71.9 52.7 71.9 52.8 71.9 52.8 C 71.6 52.9 71.3 53.1 71.0 53.2 C 71.0 53.2 71.0 53.2 70.9 53.2 C 70.8 53.3 70.6 53.4 70.4 53.5 C 70.4 53.5 70.4 53.5 70.4 53.5 C 70.4 53.5 70.4 53.5 70.4 53.5 C 70.3 53.5 70.3 53.5 70.2 53.6 C 70.0 53.6 69.9 53.7 69.8 53.7 C 69.6 53.8 69.4 53.9 69.2 54.0 C 69.1 54.0 69.0 54.0 68.9 54.1 C 68.6 54.2 68.3 54.3 68.1 54.4 C 68.0 54.4 68.0 54.4 67.9 54.4 C 67.6 54.5 67.3 54.6 67.0 54.7 C 66.9 54.7 66.8 54.7 66.7 54.8 C 66.4 54.8 66.2 54.9 66.0 55.0 C 65.9 55.0 65.7 55.0 65.6 55.0 C 65.4 55.1 65.2 55.1 65.0 55.2 C 64.9 55.2 64.7 55.2 64.6 55.3 C 64.4 55.3 64.2 55.4 64.0 55.4 C 63.9 55.4 63.7 55.5 63.6 55.5 C 63.4 55.5 63.1 55.6 62.9 55.6 C 62.8 55.6 62.7 55.6 62.7 55.7 C 62.3 55.7 62.0 55.8 61.7 55.8 C 61.6 55.8 61.6 55.8 61.6 55.8 L 64.2 63.0 L 59.5 71.4 C 56.1 71.3 52.2 71.0 48.8 70.5 L 45.7 75.6 L 41.5 74.7 L 38.5 66.8 C 38.4 66.7 38.3 66.6 38.2 66.5 C 38.1 66.5 38.1 66.5 38.1 66.4 C 37.8 66.2 37.6 65.9 37.3 65.6 C 37.3 65.6 37.3 65.6 37.3 65.6 C 37.2 65.5 37.1 65.4 37.0 65.2 C 37.0 65.2 36.9 65.2 36.9 65.1 C 36.8 65.0 36.8 64.9 36.7 64.8 C 36.7 64.8 36.6 64.7 36.6 64.7 C 36.5 64.5 36.4 64.4 36.4 64.2 C 36.4 64.2 36.4 64.2 36.4 64.2 C 36.3 64.1 36.2 63.9 36.2 63.8 C 36.2 63.8 36.2 63.7 36.1 63.7 L 36.1 63.7 L 33.2 55.8 L 32.1 52.9 L 32.1 52.9 C 31.4 50.9 31.7 48.6 33.4 46.0 C 33.6 45.8 33.7 45.6 33.9 45.4 C 33.9 45.3 34.0 45.2 34.0 45.2 C 34.1 45.0 34.2 44.9 34.3 44.8 C 34.4 44.7 34.4 44.6 34.5 44.6 C 34.6 44.5 34.7 44.3 34.8 44.2 C 34.9 44.2 34.9 44.1 35.0 44.0 C 35.1 43.9 35.2 43.8 35.3 43.7 C 35.3 43.7 35.3 43.6 35.4 43.6 C 35.4 43.6 35.4 43.6 35.4 43.5 C 35.7 43.3 35.9 43.0 36.2 42.8 C 36.2 42.8 36.2 42.8 36.3 42.7 C 36.5 42.5 36.8 42.3 37.1 42.0 C 37.1 42.0 37.1 42.0 37.1 42.0 C 37.3 41.8 37.6 41.6 37.9 41.4 C 37.9 41.4 38.0 41.4 38.0 41.3 C 38.3 41.2 38.5 41.0 38.8 40.8 L 38.9 40.7 C 39.2 40.5 39.5 40.4 39.8 40.2 C 39.8 40.2 39.9 40.2 39.9 40.2 C 40.2 40.0 40.5 39.9 40.8 39.7 C 40.8 39.7 40.8 39.7 40.9 39.7 C 41.2 39.5 41.5 39.4 41.8 39.3 C 41.8 39.3 41.8 39.3 41.8 39.3 C 42.1 39.1 42.4 39.0 42.7 38.9 C 42.8 38.9 42.8 38.9 42.9 38.8 C 43.2 38.7 43.5 38.6 43.8 38.5 C 43.8 38.5 43.9 38.5 43.9 38.5 C 44.2 38.4 44.5 38.3 44.8 38.2 C 44.9 38.2 44.9 38.2 45.0 38.2 C 45.3 38.1 45.6 38.0 45.9 37.9 C 45.9 37.9 45.9 37.9 45.9 37.9 C 46.3 37.8 46.6 37.7 46.9 37.7 C 46.9 37.7 47.0 37.7 47.0 37.6 C 47.3 37.6 47.6 37.5 47.9 37.4 C 48.0 37.4 48.0 37.4 48.1 37.4 C 48.1 37.4 48.1 37.4 48.1 37.4 L 45.3 29.9 L 50.1 21.1 C 50.1 21.1 50.2 21.1 50.2 21.1 C 50.3 21.1 50.3 21.1 50.3 21.1 C 50.4 21.1 50.4 21.1 50.5 21.1 C 50.5 21.1 50.6 21.0 50.6 21.0 C 50.7 21.0 50.7 21.0 50.8 21.0 C 50.9 21.0 50.9 21.0 51.0 21.0 C 51.1 21.0 51.2 21.0 51.3 21.0 C 51.3 20.9 51.4 20.9 51.5 20.9 C 51.6 20.9 51.7 20.9 51.8 20.9 C 51.9 20.9 52.0 20.9 52.1 20.9 C 52.2 20.9 52.3 20.9 52.5 20.8 C 52.6 20.8 52.7 20.8 52.8 20.8 C 52.9 20.8 53.1 20.8 53.2 20.8 C 53.3 20.8 53.5 20.8 53.6 20.8 C 53.7 20.8 53.9 20.8 54.0 20.8 C 54.2 20.8 54.3 20.7 54.5 20.7 C 54.6 20.7 54.8 20.7 55.0 20.7 C 55.1 20.7 55.3 20.7 55.4 20.7 C 55.6 20.7 55.8 20.7 55.9 20.7 C 56.1 20.7 56.3 20.7 56.4 20.7 C 56.6 20.7 56.8 20.8 57.0 20.8 C 57.2 20.8 57.3 20.8 57.5 20.8 C 57.7 20.8 57.9 20.8 58.1 20.8 C 58.3 20.8 58.5 20.8 58.7 20.8 C 58.9 20.9 59.1 20.9 59.3 20.9 C 59.5 20.9 59.7 20.9 59.9 21.0 C 60.1 21.0 60.3 21.0 60.6 21.0 C 60.8 21.1 61.0 21.1 61.2 21.1 C 61.4 21.1 61.6 21.2 61.9 21.2 C 62.1 21.2 62.3 21.3 62.5 21.3 C 62.6 21.3 62.7 21.3 62.8 21.3 C 63.1 21.4 63.3 21.4 63.6 21.5 C 63.6 21.5 63.6 21.5 63.6 21.5 L 66.2 17.4 C 65.8 17.4 65.5 17.4 65.1 17.4 C 64.9 17.4 64.6 17.4 64.4 17.4 C 64.0 17.5 63.5 17.5 63.1 17.5 C 62.8 17.5 62.6 17.6 62.3 17.6 C 61.9 17.6 61.4 17.7 60.9 17.7 C 60.7 17.8 60.5 17.8 60.3 17.8 C 59.6 17.9 59.0 18.0 58.3 18.1 C 58.2 18.1 58.1 18.1 58.0 18.2 C 57.4 18.3 56.8 18.4 56.3 18.5 C 56.0 18.5 55.8 18.6 55.6 18.6 C 55.1 18.7 54.7 18.8 54.2 18.9 C 54.0 19.0 53.8 19.0 53.5 19.1 C 53.1 19.2 52.6 19.3 52.2 19.4 C 52.0 19.5 51.7 19.5 51.5 19.6 C 51.0 19.7 50.5 19.9 50.0 20.0 C 49.9 20.1 49.7 20.1 49.5 20.2 C 48.8 20.4 48.2 20.6 47.5 20.8 C 47.4 20.9 47.3 20.9 47.2 20.9 C 46.6 21.1 46.1 21.3 45.6 21.5 C 45.4 21.6 45.1 21.7 44.9 21.8 C 44.5 21.9 44.1 22.1 43.6 22.3 C 43.4 22.4 43.2 22.5 42.9 22.6 C 42.5 22.8 42.1 22.9 41.7 23.1 C 41.5 23.2 41.2 23.3 41.0 23.4 C 40.5 23.6 40.1 23.9 39.6 24.1 C 39.5 24.2 39.3 24.3 39.1 24.3 C 38.5 24.6 37.9 25.0 37.3 25.3 C 37.2 25.4 37.1 25.4 36.9 25.5 C 36.5 25.8 36.0 26.0 35.5 26.3 C 35.3 26.4 35.1 26.5 34.9 26.7 C 34.5 26.9 34.2 27.1 33.8 27.4 C 33.6 27.5 33.3 27.6 33.1 27.8 C 32.8 28.0 32.4 28.3 32.0 28.5 C 31.8 28.7 31.6 28.8 31.4 28.9 C 31.0 29.2 30.6 29.5 30.2 29.8 C 30.0 29.9 29.9 30.0 29.8 30.1 C 29.2 30.5 28.7 30.9 28.2 31.4 C 28.1 31.5 27.9 31.6 27.8 31.7 C 27.4 32.0 27.0 32.3 26.6 32.6 C 26.5 32.8 26.3 33.0 26.1 33.1 C 25.8 33.4 25.5 33.7 25.2 34.0 C 25.0 34.2 24.8 34.3 24.6 34.5 C 24.3 34.8 24.0 35.1 23.7 35.4 C 23.5 35.6 23.4 35.7 23.2 35.9 C 22.9 36.2 22.6 36.5 22.4 36.8 C 22.2 37.0 22.0 37.2 21.8 37.4 C 21.5 37.8 21.2 38.1 21.0 38.4 C 20.8 38.6 20.6 38.8 20.5 39.0 C 20.2 39.4 19.9 39.7 19.6 40.1 C 19.5 40.3 19.3 40.4 19.2 40.6 C 18.8 41.2 18.4 41.7 18.0 42.3 C 16.1 45.1 14.7 48.0 13.7 50.8 C 13.3 51.9 13.0 53.1 12.7 54.2 C 12.4 55.8 12.1 57.5 12.1 59.1 C 12.0 60.4 12.1 61.6 12.2 62.7 C 12.2 62.8 12.2 62.8 12.2 62.8 C 12.3 62.9 12.4 63.0 12.4 63.0 C 12.6 63.2 12.7 63.4 12.9 63.6 C 12.9 63.7 12.9 63.7 13.0 63.8 C 13.2 64.0 13.4 64.3 13.6 64.5 C 13.6 64.6 13.7 64.6 13.7 64.7 C 13.9 64.9 14.1 65.1 14.3 65.3 C 14.3 65.4 14.4 65.5 14.5 65.5 C 14.7 65.7 14.9 65.9 15.1 66.1 C 15.1 66.2 15.1 66.2 15.2 66.3 C 15.4 66.5 15.7 66.7 15.9 67.0 C 16.0 67.0 16.1 67.1 16.1 67.2 C 16.3 67.3 16.5 67.5 16.7 67.7 C 16.8 67.7 16.9 67.8 17.0 67.9 C 17.2 68.1 17.5 68.3 17.8 68.5 C 17.8 68.5 17.8 68.5 17.8 68.5 C 18.1 68.8 18.4 69.0 18.7 69.2 C 18.7 69.2 18.8 69.3 18.9 69.3 C 19.1 69.5 19.4 69.7 19.6 69.8 C 19.7 69.9 19.8 69.9 19.9 70.0 C 20.2 70.2 20.5 70.4 20.8 70.5 C 20.8 70.6 20.9 70.6 20.9 70.6 C 21.2 70.8 21.5 70.9 21.8 71.1 C 21.9 71.2 22.0 71.2 22.1 71.3 C 22.3 71.4 22.6 71.5 22.9 71.7 C 23.0 71.7 23.0 71.8 23.1 71.8 C 23.5 72.0 23.8 72.1 24.2 72.3 C 24.3 72.3 24.3 72.4 24.4 72.4 C 24.7 72.5 25.0 72.6 25.3 72.8 C 25.4 72.8 25.5 72.8 25.6 72.9 C 25.9 73.0 26.2 73.1 26.6 73.3 C 26.6 73.3 26.7 73.3 26.8 73.3 C 27.1 73.5 27.5 73.6 27.9 73.7 C 28.0 73.7 28.1 73.8 28.2 73.8 C 28.5 73.9 28.8 74.0 29.1 74.1 C 29.3 74.1 29.4 74.2 29.5 74.2 C 29.9 74.3 30.3 74.4 30.7 74.5 C 31.3 74.7 31.8 74.8 32.4 74.9 C 32.6 74.9 32.8 75.0 33.0 75.0 C 33.3 75.1 33.7 75.2 34.1 75.2 C 34.3 75.3 34.5 75.3 34.7 75.3 C 35.1 75.4 35.4 75.4 35.8 75.5 C 36.0 75.5 36.2 75.5 36.5 75.6 C 36.8 75.6 37.1 75.6 37.5 75.7 C 37.7 75.7 38.0 75.7 38.2 75.7 C 38.6 75.8 38.9 75.8 39.2 75.8 C 39.5 75.8 39.7 75.9 40.0 75.9 C 40.3 75.9 40.6 75.9 40.9 75.9 C 41.2 75.9 41.5 75.9 41.7 75.9 C 42.1 75.9 42.4 75.9 42.7 75.9 C 43.0 75.9 43.2 75.9 43.5 75.9 C 43.8 75.9 44.1 75.9 44.5 75.9 C 44.7 75.9 45.0 75.9 45.3 75.9 C 45.6 75.9 45.9 75.8 46.2 75.8 C 46.5 75.8 46.8 75.8 47.0 75.8 C 47.4 75.7 47.7 75.7 48.0 75.7 C 48.3 75.7 48.5 75.6 48.8 75.6 C 49.1 75.6 49.4 75.5 49.8 75.5 C 50.0 75.5 50.3 75.4 50.6 75.4 C 50.9 75.3 51.2 75.3 51.5 75.3 C 51.8 75.2 52.1 75.2 52.4 75.1 C 52.7 75.1 53.0 75.0 53.3 75.0 C 53.6 74.9 53.9 74.9 54.1 74.8 C 54.4 74.7 54.8 74.7 55.1 74.6 C 55.4 74.5 55.6 74.5 55.9 74.4 C 56.2 74.4 56.5 74.3 56.9 74.2 C 57.1 74.1 57.4 74.1 57.6 74.0 C 58.2 73.9 58.7 73.7 59.2 73.6 C 59.3 73.6 59.4 73.6 59.4 73.5 C 59.9 73.4 60.4 73.3 60.8 73.1 L 61.3 73.0 C 61.7 72.8 62.1 72.7 62.5 72.6 C 62.7 72.5 62.8 72.5 62.9 72.5 C 63.4 72.3 63.9 72.1 64.4 71.9 C 64.6 71.9 64.7 71.8 64.8 71.8 C 65.2 71.6 65.6 71.4 66.0 71.3 C 66.2 71.2 66.3 71.2 66.5 71.1 C 66.9 70.9 67.4 70.7 67.9 70.5 C 67.9 70.5 68.0 70.5 68.0 70.5 C 68.5 70.2 69.0 70.0 69.5 69.8 C 69.7 69.7 69.8 69.6 69.9 69.6 C 70.3 69.4 70.7 69.2 71.1 69.0 C 71.2 68.9 71.4 68.9 71.5 68.8 C 72.0 68.6 72.5 68.3 73.0 68.0 C 73.0 68.0 73.1 68.0 73.1 68.0 C 73.5 67.7 74.0 67.5 74.4 67.2 C 74.5 67.1 74.7 67.1 74.8 67.0 C 75.2 66.8 75.6 66.5 75.9 66.3 C 76.0 66.3 76.1 66.2 76.3 66.1 C 76.7 65.8 77.2 65.5 77.6 65.2 C 77.7 65.2 77.8 65.1 77.9 65.0 C 78.3 64.8 78.6 64.6 79.0 64.3 C 79.1 64.2 79.3 64.1 79.4 64.0 C 79.8 63.8 80.2 63.5 80.5 63.2 C 80.6 63.2 80.7 63.1 80.7 63.1 C 81.2 62.7 81.6 62.4 82.0 62.1 C 82.1 62.0 82.2 61.9 82.3 61.8 C 82.7 61.5 83.0 61.3 83.3 61.0 C 83.4 60.9 83.5 60.8 83.6 60.7 C 84.0 60.4 84.4 60.0 84.8 59.7 C 84.9 59.6 84.9 59.6 84.9 59.6 C 85.3 59.2 85.6 58.9 86.0 58.6 C 86.1 58.4 86.2 58.3 86.3 58.2 C 86.6 57.9 86.9 57.7 87.2 57.4 C 87.3 57.3 87.4 57.2 87.5 57.1 C 87.9 56.7 88.2 56.2 88.6 55.8 C 88.7 55.7 88.8 55.6 88.9 55.5 C 89.2 55.1 89.6 54.7 89.9 54.3 C 90.0 54.2 90.0 54.2 90.0 54.1 C 90.4 53.7 90.8 53.2 91.1 52.8 C 91.2 52.6 91.3 52.5 91.3 52.4 C 91.7 52.0 92.0 51.5 92.4 51.0 C 95.0 47.1 96.7 43.1 97.6 39.3 C 97.6 39.2 97.6 39.2 97.7 39.1 C 97.9 38.2 98.0 37.4 98.1 36.5 C 98.1 36.3 98.2 36.0 98.2 35.8 C 98.2 35.6 98.2 35.5 98.2 35.3 C 98.3 34.9 98.3 34.5 98.3 34.1 C 98.3 33.9 98.3 33.6 98.3 33.4 C 98.3 33.1 98.3 32.8 98.3 32.5 C 98.3 32.2 98.3 31.9 98.3 31.5 C 98.2 31.3 98.2 31.1 98.2 30.9 C 98.2 30.8 98.2 30.7 98.2 30.5 C 94.4 25.1 88.1 20.9 79.6 18.7 M 66.6 32.1 L 69.6 40.1 C 69.7 40.3 69.7 40.6 69.7 40.8 C 69.8 40.8 69.8 40.8 69.8 40.7 C 70.1 40.5 70.4 40.4 70.6 40.1 C 70.6 40.1 70.7 40.1 70.7 40.1 C 70.9 39.9 71.2 39.7 71.5 39.4 C 71.5 39.4 71.5 39.4 71.5 39.4 C 71.8 39.2 72.0 38.9 72.2 38.7 C 72.3 38.6 72.3 38.6 72.4 38.5 C 72.5 38.5 72.5 38.4 72.6 38.3 C 72.7 38.2 72.8 38.1 72.8 38.0 C 72.9 37.9 73.0 37.8 73.1 37.7 C 73.1 37.7 73.2 37.6 73.3 37.5 C 73.3 37.4 73.4 37.3 73.5 37.2 C 73.6 37.1 73.6 37.0 73.7 37.0 C 73.8 36.8 73.9 36.6 74.1 36.4 C 74.4 35.9 74.7 35.5 74.9 35.0 C 75.0 34.9 75.0 34.8 75.1 34.7 C 74.1 34.2 73.0 33.7 71.8 33.3 L 70.0 28.5 L 67.7 32.3 C 67.3 32.2 66.9 32.2 66.6 32.1 M 40.5 58.8 L 40.5 58.8 L 42.3 63.6 L 44.7 59.7 C 44.9 59.7 45.1 59.8 45.3 59.8 L 42.5 52.2 C 42.5 52.2 42.5 52.2 42.5 52.1 C 42.4 52.1 42.4 52.0 42.4 51.9 C 42.4 51.9 42.4 51.9 42.4 51.9 C 42.3 52.0 42.2 52.1 42.0 52.1 C 42.0 52.2 42.0 52.2 41.9 52.2 C 41.7 52.4 41.4 52.6 41.1 52.8 C 41.1 52.8 41.1 52.9 41.1 52.9 C 40.8 53.1 40.6 53.3 40.3 53.5 C 40.3 53.6 40.2 53.6 40.2 53.6 C 40.0 53.9 39.7 54.1 39.5 54.3 C 39.4 54.4 39.4 54.5 39.3 54.5 C 39.2 54.6 39.1 54.7 39.0 54.8 C 39.0 54.9 38.9 55.0 38.8 55.0 C 38.7 55.1 38.6 55.3 38.6 55.4 C 38.5 55.4 38.4 55.5 38.4 55.6 C 38.3 55.7 38.2 55.9 38.1 56.0 C 38.0 56.0 38.0 56.1 37.9 56.2 C 37.8 56.4 37.6 56.6 37.5 56.8 C 37.3 57.0 37.2 57.3 37.0 57.6 C 37.2 57.6 37.3 57.7 37.5 57.8 C 37.6 57.8 37.6 57.8 37.7 57.8 C 38.1 58.0 38.5 58.2 39.0 58.4 C 39.0 58.4 39.1 58.4 39.1 58.4 C 39.6 58.6 40.0 58.7 40.5 58.8 M 102.4 43.5 C 102.4 44.0 102.4 44.5 102.4 45.0 C 102.4 45.2 102.3 45.4 102.3 45.7 C 102.3 46.0 102.3 46.3 102.2 46.6 C 102.2 46.7 102.2 46.9 102.2 47.0 C 101.6 51.8 99.7 56.9 96.4 61.8 C 96.1 62.3 95.7 62.8 95.4 63.2 C 95.3 63.3 95.2 63.5 95.2 63.6 C 94.8 64.0 94.5 64.5 94.1 64.9 C 94.1 65.0 94.0 65.0 94.0 65.1 C 93.6 65.5 93.3 65.9 92.9 66.3 C 92.8 66.4 92.8 66.5 92.7 66.6 C 92.3 67.0 91.9 67.5 91.5 67.9 C 91.5 67.9 91.5 67.9 91.4 68.0 C 91.4 68.0 91.3 68.1 91.2 68.2 C 91.0 68.5 90.7 68.8 90.4 69.0 C 90.3 69.1 90.1 69.3 90.0 69.4 C 89.7 69.7 89.3 70.1 89.0 70.4 C 88.9 70.4 88.9 70.4 88.9 70.5 C 88.5 70.8 88.1 71.2 87.7 71.5 C 87.6 71.6 87.4 71.7 87.3 71.8 C 87.0 72.1 86.7 72.3 86.4 72.6 C 86.3 72.7 86.2 72.8 86.0 72.9 C 85.6 73.2 85.2 73.5 84.8 73.9 C 84.7 73.9 84.6 74.0 84.6 74.0 C 84.2 74.3 83.8 74.6 83.4 74.8 C 83.3 74.9 83.2 75.0 83.1 75.1 C 82.7 75.4 82.3 75.6 82.0 75.8 C 81.9 75.9 81.8 76.0 81.7 76.0 C 81.2 76.3 80.8 76.6 80.3 76.9 C 80.2 77.0 80.1 77.1 80.0 77.1 C 79.6 77.4 79.2 77.6 78.9 77.8 C 78.7 77.9 78.6 78.0 78.4 78.0 C 78.0 78.3 77.6 78.5 77.2 78.8 C 77.1 78.8 77.1 78.8 77.0 78.8 C 76.5 79.1 76.0 79.4 75.5 79.6 C 75.4 79.7 75.3 79.8 75.1 79.8 C 74.8 80.0 74.4 80.2 74.0 80.4 C 73.9 80.4 73.7 80.5 73.6 80.6 C 73.1 80.8 72.6 81.0 72.1 81.3 C 72.0 81.3 72.0 81.3 71.9 81.3 C 71.4 81.5 71.0 81.7 70.5 81.9 C 70.4 82.0 70.2 82.0 70.1 82.1 C 69.7 82.3 69.3 82.4 68.9 82.6 C 68.7 82.6 68.6 82.7 68.5 82.7 C 68.0 82.9 67.5 83.1 66.9 83.3 C 66.8 83.3 66.7 83.3 66.6 83.4 C 66.2 83.5 65.7 83.7 65.3 83.8 C 65.2 83.8 65.0 83.9 64.9 83.9 C 64.4 84.1 63.9 84.2 63.5 84.3 C 63.4 84.4 63.3 84.4 63.3 84.4 C 62.8 84.5 62.3 84.7 61.9 84.8 C 61.8 84.8 61.8 84.8 61.7 84.8 C 61.4 84.9 61.2 84.9 60.9 85.0 C 60.6 85.1 60.3 85.2 59.9 85.2 C 59.7 85.3 59.4 85.4 59.1 85.4 C 58.8 85.5 58.5 85.5 58.2 85.6 C 57.9 85.7 57.6 85.7 57.4 85.8 C 57.0 85.8 56.7 85.9 56.4 85.9 C 56.1 86.0 55.9 86.0 55.6 86.1 C 55.3 86.1 54.9 86.2 54.6 86.2 C 54.4 86.2 54.1 86.3 53.8 86.3 C 53.5 86.3 53.2 86.4 52.9 86.4 C 52.6 86.4 52.3 86.5 52.0 86.5 C 51.7 86.5 51.4 86.5 51.1 86.6 C 50.8 86.6 50.5 86.6 50.3 86.6 C 49.9 86.7 49.6 86.7 49.3 86.7 C 49.0 86.7 48.8 86.7 48.5 86.7 C 48.2 86.7 47.9 86.7 47.5 86.7 C 47.3 86.7 47.0 86.7 46.7 86.7 C 46.4 86.7 46.1 86.7 45.8 86.7 C 45.5 86.7 45.3 86.7 45.0 86.7 C 44.7 86.7 44.4 86.7 44.0 86.7 C 43.8 86.7 43.5 86.6 43.2 86.6 C 42.9 86.6 42.6 86.6 42.3 86.6 C 42.0 86.5 41.8 86.5 41.5 86.5 C 41.2 86.5 40.9 86.4 40.5 86.4 C 40.3 86.3 40.1 86.3 39.8 86.3 C 39.5 86.2 39.1 86.2 38.8 86.1 C 38.6 86.1 38.4 86.1 38.2 86.0 C 38.2 86.0 38.1 86.0 38.1 86.0 C 37.7 86.0 37.4 85.9 37.0 85.8 C 36.8 85.8 36.6 85.7 36.4 85.7 C 35.9 85.6 35.3 85.5 34.8 85.3 C 34.4 85.2 34.0 85.1 33.5 85.0 C 33.4 85.0 33.3 84.9 33.2 84.9 C 32.9 84.8 32.6 84.7 32.3 84.6 C 32.2 84.6 32.1 84.6 32.0 84.5 C 31.6 84.4 31.2 84.3 30.8 84.1 C 30.7 84.1 30.7 84.1 30.6 84.1 C 30.3 83.9 30.0 83.8 29.7 83.7 C 29.5 83.7 29.4 83.6 29.3 83.6 C 29.0 83.4 28.7 83.3 28.5 83.2 C 28.4 83.2 28.3 83.1 28.2 83.1 C 27.9 82.9 27.5 82.8 27.2 82.6 C 27.1 82.6 27.0 82.5 26.9 82.5 C 26.7 82.3 26.4 82.2 26.1 82.1 C 26.0 82.0 25.9 82.0 25.8 81.9 C 25.5 81.8 25.3 81.6 25.0 81.4 C 24.9 81.4 24.9 81.4 24.8 81.4 C 24.5 81.2 24.2 81.0 23.9 80.8 C 23.8 80.7 23.7 80.7 23.7 80.6 C 23.4 80.5 23.2 80.3 23.0 80.2 C 22.9 80.1 22.8 80.0 22.7 80.0 C 22.4 79.8 22.1 79.6 21.8 79.3 C 21.8 79.3 21.8 79.3 21.8 79.3 C 21.5 79.1 21.3 78.9 21.0 78.7 C 20.9 78.6 20.9 78.6 20.8 78.5 C 20.6 78.3 20.4 78.1 20.2 78.0 C 20.1 77.9 20.0 77.8 20.0 77.8 C 19.7 77.5 19.5 77.3 19.2 77.1 C 19.2 77.0 19.1 77.0 19.1 76.9 C 18.9 76.7 18.7 76.5 18.5 76.3 C 18.4 76.3 18.4 76.2 18.3 76.1 C 18.1 75.9 17.9 75.7 17.8 75.5 C 17.7 75.5 17.7 75.4 17.7 75.4 C 17.7 75.4 17.6 75.4 17.6 75.3 C 17.4 75.1 17.2 74.9 17.0 74.6 C 17.0 74.6 17.0 74.5 16.9 74.4 C 16.8 74.3 16.6 74.1 16.5 73.9 C 16.4 73.8 16.4 73.7 16.3 73.6 C 16.2 73.4 16.0 73.2 15.9 73.1 C 15.9 73.0 15.8 72.9 15.8 72.8 C 15.6 72.6 15.5 72.4 15.4 72.2 C 15.3 72.1 15.3 72.1 15.3 72.0 C 15.1 71.8 15.0 71.5 14.8 71.2 C 14.8 71.1 14.7 71.1 14.7 71.0 C 14.6 70.8 14.5 70.6 14.4 70.4 C 14.4 70.3 14.3 70.2 14.3 70.1 C 14.2 69.9 14.1 69.7 14.0 69.5 C 14.0 69.4 13.9 69.3 13.9 69.3 C 13.8 69.0 13.7 68.7 13.5 68.4 L 13.5 68.4 L 13.5 68.4 L 13.5 68.4 L 11.3 62.5 L 9.5 57.6 L 9.5 57.6 L 9.5 57.6 L 9.5 57.6 L 9.5 57.6 C 8.5 54.9 8.0 51.9 8.0 48.9 C 4.9 56.6 4.7 64.2 7.2 70.8 L 3.1 60.0 C -0.2 51.1 1.3 40.4 8.3 30.0 C 8.7 29.4 9.1 28.9 9.5 28.3 C 9.5 28.2 9.6 28.2 9.6 28.2 C 10.0 27.6 10.4 27.1 10.9 26.5 C 10.9 26.5 11.0 26.4 11.0 26.3 C 11.4 25.8 11.9 25.3 12.3 24.8 C 12.4 24.7 12.5 24.7 12.5 24.6 C 13.0 24.1 13.4 23.6 13.9 23.1 C 13.9 23.1 13.9 23.0 14.0 23.0 C 14.0 22.9 14.1 22.9 14.1 22.9 C 14.5 22.4 14.9 22.0 15.3 21.6 C 15.4 21.5 15.5 21.5 15.5 21.4 C 15.9 21.0 16.4 20.6 16.8 20.2 C 16.8 20.2 16.9 20.1 16.9 20.1 C 17.4 19.7 17.8 19.3 18.3 18.9 C 18.4 18.8 18.5 18.7 18.6 18.7 C 19.0 18.3 19.5 17.9 20.0 17.5 C 20.0 17.5 20.1 17.4 20.2 17.3 C 20.6 17.0 21.1 16.6 21.5 16.3 C 21.6 16.2 21.6 16.2 21.7 16.1 C 22.2 15.8 22.7 15.4 23.2 15.1 C 23.3 15.0 23.4 14.9 23.5 14.9 C 24.0 14.5 24.5 14.2 25.0 13.8 L 25.2 13.7 C 25.7 13.4 26.2 13.1 26.7 12.8 C 26.7 12.7 26.8 12.7 26.9 12.6 C 27.4 12.3 27.9 12.0 28.5 11.7 L 28.8 11.5 C 29.3 11.2 29.9 10.9 30.4 10.6 C 30.5 10.5 30.6 10.5 30.6 10.5 C 31.1 10.2 31.7 9.9 32.2 9.6 C 32.3 9.6 32.3 9.6 32.4 9.5 C 33.0 9.2 33.5 9.0 34.1 8.7 C 34.2 8.6 34.3 8.6 34.4 8.5 C 35.0 8.3 35.6 8.0 36.1 7.8 C 36.2 7.7 36.3 7.7 36.3 7.7 C 36.9 7.4 37.4 7.2 38.0 7.0 C 38.1 7.0 38.1 6.9 38.2 6.9 C 38.8 6.7 39.4 6.4 40.0 6.2 C 40.1 6.2 40.2 6.1 40.3 6.1 C 40.9 5.9 41.5 5.6 42.1 5.4 C 42.1 5.4 42.2 5.4 42.3 5.4 C 42.8 5.2 43.4 5.0 44.0 4.8 C 44.1 4.8 44.2 4.8 44.3 4.7 C 44.8 4.6 45.4 4.4 46.0 4.2 C 46.2 4.2 46.3 4.1 46.4 4.1 C 47.0 3.9 47.6 3.8 48.2 3.6 C 48.3 3.6 48.3 3.6 48.4 3.6 C 48.9 3.4 49.5 3.3 50.1 3.2 C 50.2 3.2 50.3 3.1 50.4 3.1 C 51.0 3.0 51.6 2.9 52.2 2.7 C 52.3 2.7 52.5 2.7 52.6 2.7 C 53.2 2.6 53.8 2.5 54.4 2.4 C 54.5 2.3 54.5 2.3 54.6 2.3 C 55.2 2.2 55.7 2.2 56.3 2.1 C 56.4 2.1 56.5 2.0 56.6 2.0 C 57.2 2.0 57.8 1.9 58.4 1.8 C 58.6 1.8 58.7 1.8 58.8 1.8 C 59.4 1.7 60.0 1.7 60.7 1.6 C 60.7 1.6 60.7 1.6 60.8 1.6 C 61.4 1.6 62.0 1.6 62.6 1.5 C 62.7 1.5 62.8 1.5 62.9 1.5 C 63.5 1.5 64.1 1.5 64.7 1.5 L 65.0 1.5 C 65.6 1.5 66.2 1.5 66.9 1.5 C 66.9 1.5 66.9 1.5 66.9 1.5 C 67.5 1.5 68.1 1.5 68.7 1.6 C 68.8 1.6 68.9 1.6 69.0 1.6 C 69.6 1.6 70.2 1.7 70.8 1.7 C 70.9 1.8 71.0 1.8 71.1 1.8 C 71.7 1.8 72.4 1.9 72.9 2.0 L 73.0 2.0 C 73.6 2.1 74.2 2.2 74.7 2.3 C 74.8 2.3 74.9 2.3 75.0 2.3 C 75.0 2.3 75.0 2.3 75.1 2.3 C 75.6 2.4 76.2 2.5 76.8 2.6 C 76.9 2.6 77.0 2.7 77.1 2.7 C 77.7 2.8 78.3 3.0 78.9 3.1 C 81.6 3.8 84.1 4.7 86.5 5.7 C 87.1 6.0 87.8 6.3 88.4 6.7 C 91.0 8.0 93.2 9.5 95.2 11.2 C 96.2 12.1 97.1 13.0 97.9 13.9 C 98.4 14.4 98.8 14.8 99.2 15.3 C 99.9 16.3 100.6 17.3 101.2 18.4 C 101.4 18.7 101.5 18.9 101.7 19.2 C 102.3 20.3 102.8 21.4 103.2 22.5 L 107.2 33.3 C 104.8 26.7 99.7 21.1 92.2 17.3 C 92.2 17.3 92.3 17.4 92.3 17.4 C 92.8 18.0 93.3 18.6 93.8 19.3 C 94.1 19.7 94.4 20.2 94.7 20.6 C 95.0 21.1 95.3 21.5 95.5 22.0 C 95.7 22.2 95.8 22.5 95.9 22.7 C 96.2 23.4 96.6 24.1 96.8 24.9 L 98.7 29.7 L 100.9 35.7 C 101.0 36.0 101.1 36.3 101.2 36.6 C 101.3 36.8 101.3 37.0 101.4 37.2 C 101.5 37.6 101.6 38.0 101.7 38.5 C 101.7 38.5 101.8 38.6 101.8 38.7 C 101.8 38.9 101.9 39.2 102.0 39.5 C 102.0 39.8 102.0 40.0 102.1 40.2 C 102.1 40.4 102.1 40.5 102.1 40.7 C 102.2 41.1 102.2 41.4 102.3 41.8 C 102.3 41.9 102.3 42.0 102.3 42.2 C 102.3 42.5 102.4 42.9 102.4 43.3 C 102.4 43.4 102.4 43.4 102.4 43.5 " fill="#F38907"></path><path d="M 9.5 57.6 L 9.5 57.6 L 9.5 57.6 Z M 9.5 57.6 " fill="#DC7601"></path><path d="M 38.6 55.4 C 38.5 55.4 38.4 55.5 38.4 55.6 C 38.3 55.7 38.2 55.9 38.1 56.0 C 38.0 56.0 38.0 56.1 37.9 56.2 C 37.8 56.4 37.6 56.6 37.5 56.8 C 37.3 57.0 37.2 57.3 37.0 57.6 C 37.2 57.6 37.3 57.7 37.5 57.8 C 37.6 57.8 37.6 57.8 37.7 57.9 C 38.1 58.0 38.5 58.2 39.0 58.4 C 39.0 58.4 39.1 58.4 39.1 58.4 C 39.6 58.6 40.0 58.7 40.5 58.8 L 42.3 63.6 L 44.7 59.7 C 44.9 59.7 45.1 59.8 45.3 59.8 L 42.5 52.2 C 42.5 52.2 42.5 52.2 42.5 52.1 C 42.4 52.1 42.4 52.0 42.4 51.9 C 42.4 51.9 42.4 51.9 42.4 51.9 C 42.3 52.0 42.2 52.1 42.0 52.1 C 42.0 52.2 42.0 52.2 41.9 52.2 C 41.7 52.4 41.4 52.6 41.1 52.8 C 41.1 52.8 41.1 52.8 41.1 52.9 C 40.8 53.1 40.6 53.3 40.3 53.5 C 40.3 53.6 40.2 53.6 40.2 53.6 C 40.0 53.9 39.7 54.1 39.5 54.3 C 39.4 54.4 39.4 54.5 39.3 54.5 C 39.2 54.6 39.1 54.7 39.0 54.8 C 39.0 54.9 38.9 55.0 38.8 55.0 C 38.7 55.1 38.6 55.3 38.6 55.4 M 69.7 40.8 C 69.8 40.8 69.8 40.8 69.8 40.7 C 70.1 40.5 70.4 40.4 70.6 40.1 C 70.6 40.1 70.7 40.1 70.7 40.1 C 70.9 39.9 71.2 39.7 71.5 39.4 C 71.5 39.4 71.5 39.4 71.5 39.4 C 71.8 39.2 72.0 38.9 72.2 38.7 C 72.3 38.6 72.3 38.6 72.4 38.5 C 72.5 38.5 72.5 38.4 72.6 38.3 C 72.7 38.2 72.8 38.1 72.8 38.0 C 72.9 37.9 73.0 37.8 73.1 37.7 C 73.1 37.7 73.2 37.6 73.3 37.5 C 73.3 37.4 73.4 37.3 73.5 37.2 C 73.6 37.1 73.6 37.0 73.7 37.0 C 73.8 36.8 73.9 36.6 74.1 36.4 C 74.4 35.9 74.7 35.5 74.9 35.0 C 75.0 34.9 75.0 34.8 75.1 34.7 C 74.1 34.2 73.0 33.7 71.8 33.3 L 70.0 28.5 L 67.7 32.3 C 67.3 32.2 66.9 32.2 66.6 32.1 L 69.6 40.1 C 69.7 40.3 69.7 40.6 69.7 40.8 M 92.8 17.6 C 92.6 17.5 92.4 17.4 92.2 17.3 C 92.2 17.3 92.3 17.4 92.3 17.4 C 92.8 18.0 93.3 18.6 93.8 19.3 C 94.1 19.7 94.4 20.2 94.7 20.6 C 95.0 21.1 95.3 21.5 95.5 22.0 C 95.7 22.2 95.8 22.5 95.9 22.7 C 96.2 23.4 96.6 24.1 96.8 24.9 L 98.7 29.7 L 100.9 35.7 C 101.0 36.0 101.1 36.3 101.2 36.6 C 101.3 36.8 101.3 37.0 101.4 37.2 C 101.5 37.6 101.6 38.0 101.7 38.5 C 101.7 38.5 101.8 38.6 101.8 38.7 C 101.8 38.9 101.9 39.2 102.0 39.5 C 102.0 39.8 102.0 40.0 102.1 40.2 C 102.1 40.4 102.1 40.5 102.1 40.7 C 102.2 41.1 102.2 41.4 102.3 41.8 C 102.3 41.9 102.3 42.0 102.3 42.2 C 102.3 42.5 102.4 42.9 102.4 43.3 C 102.4 43.4 102.4 43.4 102.4 43.5 C 102.4 44.0 102.4 44.5 102.4 45.0 C 102.4 45.2 102.3 45.4 102.3 45.7 C 102.3 46.0 102.3 46.3 102.2 46.6 C 102.2 46.7 102.2 46.9 102.2 47.0 C 101.6 51.8 99.7 56.9 96.4 61.8 C 96.4 61.8 96.4 61.9 96.3 61.9 L 79.7 63.8 C 80.0 63.6 80.3 63.4 80.5 63.2 C 80.6 63.2 80.7 63.1 80.7 63.1 C 81.2 62.7 81.6 62.4 82.0 62.1 C 82.1 62.0 82.2 61.9 82.3 61.8 C 82.7 61.5 83.0 61.3 83.3 61.0 C 83.4 60.9 83.5 60.8 83.6 60.7 C 84.0 60.4 84.4 60.0 84.8 59.7 C 84.9 59.6 84.9 59.6 84.9 59.6 C 85.3 59.2 85.6 58.9 86.0 58.6 C 86.1 58.4 86.2 58.3 86.3 58.2 C 86.6 57.9 86.9 57.7 87.2 57.4 C 87.3 57.3 87.4 57.2 87.5 57.1 C 87.9 56.7 88.2 56.2 88.6 55.8 C 88.7 55.7 88.8 55.6 88.9 55.5 C 89.2 55.1 89.6 54.7 89.9 54.3 C 90.0 54.2 90.0 54.2 90.0 54.1 C 90.4 53.7 90.8 53.2 91.1 52.8 C 91.2 52.6 91.3 52.5 91.3 52.4 C 91.7 52.0 92.0 51.5 92.4 51.0 C 95.0 47.1 96.7 43.1 97.6 39.2 C 97.6 39.2 97.6 39.2 97.7 39.1 C 97.9 38.2 98.0 37.4 98.1 36.5 C 98.1 36.3 98.2 36.0 98.2 35.8 C 98.2 35.6 98.2 35.5 98.2 35.3 C 98.3 34.9 98.3 34.5 98.3 34.1 C 98.3 33.9 98.3 33.6 98.3 33.4 C 98.3 33.1 98.3 32.8 98.3 32.5 C 98.3 32.2 98.3 31.9 98.3 31.5 C 98.2 31.3 98.2 31.1 98.2 30.9 C 98.2 30.8 98.2 30.7 98.2 30.5 C 94.4 25.1 88.1 20.9 79.6 18.7 C 79.0 18.6 78.4 18.5 77.7 18.3 C 77.5 18.3 77.3 18.2 77.1 18.2 C 76.7 18.1 76.3 18.0 75.8 18.0 C 75.6 17.9 75.3 17.9 75.1 17.9 C 74.7 17.8 74.3 17.7 73.8 17.7 C 73.6 17.7 73.4 17.6 73.1 17.6 C 72.7 17.6 72.2 17.5 71.7 17.5 C 71.5 17.5 71.3 17.5 71.1 17.4 C 70.5 17.4 69.8 17.4 69.2 17.4 C 69.1 17.4 69.0 17.4 69.0 17.4 C 68.4 17.3 67.8 17.3 67.2 17.3 C 66.9 17.3 66.7 17.3 66.5 17.4 C 66.5 17.4 66.4 17.4 66.4 17.4 L 70.5 18.2 L 73.1 25.4 C 74.3 26.3 75.1 27.4 75.6 28.7 L 79.6 39.5 L 79.6 39.5 L 79.6 39.5 C 79.6 39.6 79.7 39.6 79.7 39.7 C 79.7 39.8 79.7 39.8 79.7 39.9 C 79.8 39.9 79.8 40.0 79.8 40.0 C 79.8 40.2 79.9 40.3 79.9 40.5 C 80.0 41.0 80.0 41.4 80.0 41.9 C 80.0 42.3 80.0 42.7 79.9 43.1 C 79.9 43.2 79.9 43.3 79.8 43.4 C 79.8 43.5 79.8 43.5 79.8 43.6 C 79.8 43.6 79.8 43.6 79.8 43.6 C 79.7 44.1 79.5 44.6 79.3 45.1 C 79.2 45.3 79.1 45.6 78.9 45.8 C 78.7 46.3 78.4 46.7 78.1 47.2 C 78.0 47.4 77.9 47.6 77.7 47.8 C 77.7 47.8 77.6 47.9 77.6 48.0 C 77.5 48.1 77.4 48.2 77.3 48.3 C 77.2 48.4 77.2 48.5 77.1 48.5 C 77.0 48.6 77.0 48.8 76.9 48.9 C 76.8 48.9 76.7 49.0 76.7 49.1 C 76.6 49.2 76.5 49.3 76.4 49.4 C 76.4 49.4 76.4 49.4 76.4 49.4 C 76.3 49.4 76.3 49.5 76.3 49.5 C 76.0 49.7 75.8 50.0 75.6 50.2 C 75.5 50.2 75.5 50.2 75.5 50.2 C 75.3 50.5 75.0 50.7 74.7 50.9 C 74.7 50.9 74.7 50.9 74.7 51.0 C 74.4 51.2 74.1 51.4 73.9 51.5 C 73.8 51.6 73.8 51.6 73.7 51.6 C 73.5 51.8 73.2 52.0 73.0 52.2 C 72.9 52.2 72.9 52.2 72.8 52.2 C 72.5 52.4 72.3 52.6 72.0 52.7 C 71.9 52.7 71.9 52.8 71.9 52.8 C 71.6 52.9 71.3 53.1 71.0 53.2 C 71.0 53.2 71.0 53.2 70.9 53.2 C 70.8 53.3 70.6 53.4 70.4 53.5 C 70.4 53.5 70.4 53.5 70.4 53.5 C 70.4 53.5 70.4 53.5 70.4 53.5 C 70.3 53.5 70.3 53.5 70.2 53.6 C 70.0 53.6 69.9 53.7 69.8 53.7 C 69.6 53.8 69.4 53.9 69.2 54.0 C 69.1 54.0 69.0 54.0 68.9 54.1 C 68.6 54.2 68.3 54.3 68.1 54.4 C 68.0 54.4 68.0 54.4 67.9 54.4 C 67.6 54.5 67.3 54.6 67.0 54.7 C 66.9 54.7 66.8 54.7 66.7 54.8 C 66.4 54.8 66.2 54.9 66.0 55.0 C 65.9 55.0 65.7 55.0 65.6 55.0 C 65.4 55.1 65.2 55.1 65.0 55.2 C 64.9 55.2 64.7 55.2 64.6 55.3 C 64.4 55.3 64.2 55.4 64.0 55.4 C 63.9 55.4 63.7 55.5 63.6 55.5 C 63.4 55.5 63.1 55.6 62.9 55.6 C 62.8 55.6 62.7 55.6 62.7 55.7 C 62.3 55.7 62.0 55.8 61.7 55.8 C 61.6 55.8 61.6 55.8 61.6 55.8 L 64.2 63.0 L 62.7 65.8 L 39.1 68.5 L 38.5 66.8 C 38.4 66.7 38.3 66.6 38.2 66.5 C 38.1 66.5 38.1 66.5 38.1 66.4 C 37.8 66.2 37.6 65.9 37.3 65.6 C 37.3 65.6 37.3 65.6 37.3 65.6 C 37.2 65.5 37.1 65.4 37.0 65.2 C 37.0 65.2 36.9 65.2 36.9 65.1 C 36.8 65.0 36.8 64.9 36.7 64.8 C 36.7 64.8 36.6 64.7 36.6 64.7 C 36.5 64.5 36.4 64.4 36.4 64.2 C 36.4 64.2 36.4 64.2 36.4 64.2 C 36.3 64.1 36.2 63.9 36.2 63.8 C 36.2 63.8 36.2 63.7 36.1 63.7 L 36.1 63.7 L 33.2 55.8 L 32.1 52.9 L 32.1 52.9 C 31.4 50.9 31.7 48.6 33.4 46.0 C 33.6 45.8 33.7 45.6 33.9 45.4 C 33.9 45.3 34.0 45.2 34.0 45.2 C 34.1 45.0 34.2 44.9 34.3 44.8 C 34.4 44.7 34.4 44.6 34.5 44.6 C 34.6 44.5 34.7 44.3 34.8 44.2 C 34.9 44.2 34.9 44.1 35.0 44.0 C 35.1 43.9 35.2 43.8 35.3 43.7 C 35.3 43.7 35.3 43.6 35.4 43.6 C 35.4 43.6 35.4 43.6 35.4 43.5 C 35.7 43.3 35.9 43.0 36.2 42.8 C 36.2 42.8 36.2 42.8 36.3 42.7 C 36.5 42.5 36.8 42.3 37.1 42.0 C 37.1 42.0 37.1 42.0 37.1 42.0 C 37.3 41.8 37.6 41.6 37.9 41.4 C 37.9 41.4 38.0 41.4 38.0 41.3 C 38.3 41.2 38.5 41.0 38.8 40.8 L 39.0 40.7 C 39.2 40.5 39.5 40.4 39.8 40.2 C 39.8 40.2 39.9 40.2 39.9 40.2 C 40.2 40.0 40.5 39.9 40.8 39.7 C 40.8 39.7 40.8 39.7 40.9 39.7 C 41.2 39.5 41.5 39.4 41.8 39.3 C 41.8 39.3 41.8 39.3 41.8 39.2 C 42.1 39.1 42.4 39.0 42.7 38.9 C 42.8 38.9 42.8 38.9 42.9 38.8 C 43.2 38.7 43.5 38.6 43.8 38.5 C 43.8 38.5 43.9 38.5 43.9 38.5 C 44.2 38.4 44.5 38.3 44.8 38.2 C 44.9 38.2 44.9 38.2 45.0 38.2 C 45.3 38.1 45.6 38.0 45.9 37.9 C 45.9 37.9 45.9 37.9 45.9 37.9 C 46.3 37.8 46.6 37.7 46.9 37.7 C 46.9 37.7 47.0 37.7 47.0 37.6 C 47.3 37.6 47.6 37.5 47.9 37.4 C 48.0 37.4 48.0 37.4 48.1 37.4 C 48.1 37.4 48.1 37.4 48.1 37.4 L 45.3 29.9 L 50.1 21.1 C 50.1 21.1 50.2 21.1 50.2 21.1 C 50.3 21.1 50.3 21.1 50.3 21.1 C 50.4 21.1 50.4 21.1 50.5 21.1 C 50.5 21.1 50.6 21.0 50.6 21.0 C 50.7 21.0 50.7 21.0 50.8 21.0 C 50.9 21.0 50.9 21.0 51.0 21.0 C 51.1 21.0 51.2 21.0 51.3 21.0 C 51.3 20.9 51.4 20.9 51.5 20.9 C 51.6 20.9 51.7 20.9 51.8 20.9 C 51.9 20.9 52.0 20.9 52.1 20.9 C 52.2 20.9 52.3 20.9 52.5 20.8 C 52.6 20.8 52.7 20.8 52.8 20.8 C 52.9 20.8 53.1 20.8 53.2 20.8 C 53.3 20.8 53.5 20.8 53.6 20.8 C 53.7 20.8 53.9 20.8 54.0 20.8 C 54.2 20.8 54.3 20.7 54.5 20.7 C 54.6 20.7 54.8 20.7 55.0 20.7 C 55.1 20.7 55.3 20.7 55.4 20.7 C 55.6 20.7 55.8 20.7 55.9 20.7 C 56.1 20.7 56.3 20.7 56.4 20.7 C 56.6 20.7 56.8 20.8 57.0 20.8 C 57.2 20.8 57.3 20.8 57.5 20.8 C 57.7 20.8 57.9 20.8 58.1 20.8 C 58.3 20.8 58.5 20.8 58.7 20.8 C 58.9 20.9 59.1 20.9 59.3 20.9 C 59.5 20.9 59.7 20.9 59.9 21.0 C 60.1 21.0 60.3 21.0 60.6 21.0 C 60.8 21.1 61.0 21.1 61.2 21.1 C 61.4 21.1 61.6 21.2 61.9 21.2 C 62.1 21.2 62.3 21.3 62.5 21.3 C 62.6 21.3 62.7 21.3 62.8 21.3 C 63.1 21.4 63.3 21.4 63.6 21.5 C 63.6 21.5 63.6 21.5 63.6 21.5 L 66.2 17.4 C 65.8 17.4 65.5 17.4 65.1 17.4 C 64.9 17.4 64.6 17.4 64.4 17.4 C 64.0 17.5 63.5 17.5 63.1 17.5 C 62.8 17.5 62.6 17.6 62.3 17.6 C 61.9 17.6 61.4 17.7 60.9 17.7 C 60.7 17.8 60.5 17.8 60.3 17.8 C 59.6 17.9 59.0 18.0 58.3 18.1 C 58.2 18.1 58.1 18.1 58.0 18.2 C 57.4 18.2 56.8 18.4 56.3 18.5 C 56.0 18.5 55.8 18.6 55.6 18.6 C 55.1 18.7 54.7 18.8 54.2 18.9 C 54.0 19.0 53.7 19.0 53.5 19.1 C 53.1 19.2 52.6 19.3 52.2 19.4 C 52.0 19.5 51.7 19.5 51.5 19.6 C 51.0 19.7 50.5 19.9 50.0 20.0 C 49.9 20.1 49.7 20.1 49.5 20.2 C 48.8 20.4 48.2 20.6 47.5 20.8 C 47.4 20.9 47.3 20.9 47.2 20.9 C 46.6 21.1 46.1 21.3 45.6 21.5 C 45.4 21.6 45.1 21.7 44.9 21.8 C 44.5 21.9 44.1 22.1 43.6 22.3 C 43.4 22.4 43.2 22.5 42.9 22.6 C 42.5 22.8 42.1 22.9 41.7 23.1 C 41.5 23.2 41.2 23.3 41.0 23.4 C 40.5 23.6 40.1 23.9 39.6 24.1 C 39.5 24.2 39.3 24.3 39.1 24.3 C 38.5 24.6 37.9 25.0 37.3 25.3 C 37.2 25.4 37.1 25.4 36.9 25.5 C 36.5 25.8 36.0 26.0 35.5 26.3 C 35.3 26.4 35.1 26.5 34.9 26.7 C 34.5 26.9 34.2 27.1 33.8 27.4 C 33.6 27.5 33.3 27.6 33.1 27.8 C 32.8 28.0 32.4 28.3 32.0 28.5 C 31.8 28.7 31.6 28.8 31.4 28.9 C 31.0 29.2 30.6 29.5 30.2 29.8 C 30.0 29.9 29.9 30.0 29.8 30.1 C 29.2 30.5 28.7 30.9 28.2 31.4 C 28.1 31.5 27.9 31.6 27.8 31.7 C 27.4 32.0 27.0 32.3 26.6 32.6 C 26.5 32.8 26.3 33.0 26.1 33.1 C 25.8 33.4 25.5 33.7 25.2 34.0 C 25.0 34.2 24.8 34.3 24.6 34.5 C 24.3 34.8 24.0 35.1 23.7 35.4 C 23.5 35.6 23.4 35.7 23.2 35.9 C 22.9 36.2 22.6 36.5 22.4 36.8 C 22.2 37.0 22.0 37.2 21.8 37.4 C 21.5 37.8 21.2 38.1 21.0 38.4 C 20.8 38.6 20.6 38.8 20.5 39.0 C 20.2 39.4 19.9 39.7 19.6 40.1 C 19.5 40.3 19.3 40.4 19.2 40.6 C 18.8 41.2 18.4 41.7 18.0 42.3 C 16.1 45.1 14.7 48.0 13.7 50.8 C 13.3 51.9 13.0 53.1 12.7 54.2 C 12.4 55.8 12.1 57.5 12.1 59.1 C 12.0 60.4 12.1 61.6 12.2 62.7 C 12.2 62.8 12.2 62.8 12.2 62.8 C 12.3 62.9 12.4 63.0 12.4 63.0 C 12.6 63.2 12.7 63.4 12.9 63.6 C 12.9 63.7 12.9 63.7 13.0 63.8 C 13.2 64.0 13.4 64.3 13.6 64.5 C 13.6 64.6 13.7 64.6 13.7 64.7 C 13.9 64.9 14.1 65.1 14.3 65.3 C 14.3 65.4 14.4 65.5 14.5 65.5 C 14.7 65.7 14.9 65.9 15.1 66.1 C 15.1 66.2 15.1 66.2 15.2 66.3 C 15.4 66.5 15.7 66.7 15.9 67.0 C 16.0 67.0 16.1 67.1 16.1 67.2 C 16.3 67.3 16.5 67.5 16.7 67.7 C 16.8 67.7 16.9 67.8 17.0 67.9 C 17.2 68.1 17.5 68.3 17.8 68.5 C 17.8 68.5 17.8 68.5 17.8 68.5 C 18.1 68.8 18.4 69.0 18.7 69.2 C 18.7 69.2 18.8 69.3 18.9 69.3 C 19.1 69.5 19.4 69.7 19.6 69.8 C 19.7 69.9 19.8 69.9 19.9 70.0 C 20.2 70.2 20.5 70.4 20.8 70.5 C 20.8 70.6 20.8 70.6 20.8 70.6 L 14.8 71.3 C 14.8 71.2 14.8 71.2 14.8 71.2 C 14.8 71.1 14.7 71.1 14.7 71.0 C 14.6 70.8 14.5 70.6 14.4 70.4 C 14.4 70.3 14.3 70.2 14.3 70.1 C 14.2 69.9 14.1 69.7 14.0 69.5 C 14.0 69.4 13.9 69.3 13.9 69.3 C 13.8 69.0 13.7 68.7 13.5 68.4 L 13.5 68.4 L 13.5 68.4 L 13.5 68.4 L 11.3 62.5 L 9.5 57.6 L 9.5 57.6 C 9.1 56.6 8.8 55.5 8.6 54.4 C 8.5 53.9 8.4 53.4 8.3 52.9 C 8.1 51.6 8.0 50.2 8.0 48.9 C 7.9 49.1 7.8 49.3 7.8 49.6 C 7.0 44.4 6.5 39.1 6.0 33.8 C 6.7 32.5 7.4 31.3 8.3 30.0 C 8.7 29.4 9.1 28.9 9.5 28.3 C 9.5 28.2 9.6 28.2 9.6 28.2 C 10.0 27.6 10.4 27.1 10.9 26.5 C 10.9 26.5 11.0 26.4 11.0 26.3 C 11.4 25.8 11.9 25.3 12.3 24.8 C 12.4 24.7 12.5 24.7 12.5 24.6 C 13.0 24.1 13.4 23.6 13.9 23.1 C 13.9 23.1 13.9 23.0 14.0 23.0 C 14.0 22.9 14.1 22.9 14.1 22.9 C 14.5 22.4 14.9 22.0 15.3 21.6 C 15.4 21.5 15.5 21.5 15.5 21.4 C 15.9 21.0 16.4 20.6 16.8 20.2 C 16.8 20.2 16.9 20.1 16.9 20.1 C 17.4 19.7 17.8 19.3 18.3 18.9 C 18.4 18.8 18.5 18.7 18.6 18.7 C 19.0 18.3 19.5 17.9 20.0 17.5 C 20.0 17.5 20.1 17.4 20.2 17.3 C 20.6 17.0 21.1 16.6 21.5 16.3 C 21.6 16.2 21.6 16.2 21.7 16.1 C 22.2 15.8 22.7 15.4 23.2 15.1 C 23.3 15.0 23.4 14.9 23.5 14.9 C 24.0 14.5 24.5 14.2 25.0 13.8 L 25.2 13.7 C 25.7 13.4 26.2 13.1 26.7 12.8 C 26.7 12.7 26.8 12.7 26.9 12.6 C 27.4 12.3 27.9 12.0 28.5 11.7 L 28.8 11.5 C 29.3 11.2 29.9 10.9 30.4 10.6 C 30.5 10.5 30.6 10.5 30.6 10.5 C 31.1 10.2 31.7 9.9 32.2 9.6 C 32.3 9.6 32.3 9.6 32.4 9.5 C 33.0 9.2 33.5 9.0 34.1 8.7 C 34.2 8.6 34.3 8.6 34.4 8.5 C 35.0 8.3 35.6 8.0 36.1 7.8 C 36.2 7.7 36.3 7.7 36.3 7.7 C 36.9 7.4 37.4 7.2 38.0 7.0 C 38.1 7.0 38.1 6.9 38.2 6.9 C 38.8 6.7 39.4 6.4 40.0 6.2 C 40.1 6.2 40.2 6.1 40.3 6.1 C 40.9 5.9 41.5 5.7 42.1 5.4 C 42.1 5.4 42.2 5.4 42.3 5.4 C 42.8 5.2 43.4 5.0 44.0 4.8 C 44.1 4.8 44.2 4.8 44.3 4.7 C 44.8 4.6 45.4 4.4 46.0 4.2 C 46.1 4.2 46.3 4.1 46.4 4.1 C 47.0 3.9 47.6 3.8 48.2 3.6 C 48.3 3.6 48.3 3.6 48.4 3.6 C 48.9 3.4 49.5 3.3 50.1 3.2 C 50.2 3.2 50.3 3.1 50.4 3.1 C 51.0 3.0 51.6 2.9 52.2 2.7 C 52.3 2.7 52.5 2.7 52.6 2.7 C 53.2 2.6 53.8 2.5 54.4 2.4 C 54.5 2.3 54.5 2.3 54.6 2.3 C 55.1 2.2 55.7 2.2 56.3 2.1 C 56.4 2.1 56.5 2.0 56.6 2.0 C 57.2 2.0 57.8 1.9 58.4 1.8 C 58.6 1.8 58.7 1.8 58.8 1.8 C 59.4 1.7 60.0 1.7 60.7 1.6 C 60.7 1.6 60.7 1.6 60.8 1.6 C 61.4 1.6 62.0 1.6 62.6 1.5 C 62.7 1.5 62.8 1.5 62.9 1.5 C 63.5 1.5 64.1 1.5 64.7 1.5 L 65.0 1.5 C 65.6 1.5 66.2 1.5 66.9 1.5 C 66.9 1.5 66.9 1.5 66.9 1.5 C 67.5 1.5 68.1 1.5 68.7 1.6 C 68.8 1.6 68.9 1.6 69.0 1.6 C 69.6 1.6 70.2 1.7 70.8 1.7 C 70.9 1.8 71.0 1.8 71.1 1.8 C 71.8 1.8 72.4 1.9 72.9 2.0 L 73.0 2.0 C 73.6 2.1 74.2 2.2 74.7 2.2 C 74.8 2.3 74.9 2.3 75.0 2.3 C 75.0 2.3 75.0 2.3 75.1 2.3 C 75.6 2.4 76.2 2.5 76.8 2.6 C 76.9 2.6 77.0 2.7 77.1 2.7 C 77.7 2.8 78.3 3.0 78.9 3.1 C 79.3 3.2 79.8 3.4 80.3 3.5 C 84.1 7.3 87.7 11.3 91.1 15.5 C 91.6 16.2 92.2 16.9 92.8 17.6 " fill="#DC7601"></path><path d="M 38.6 55.4 C 38.5 55.4 38.4 55.5 38.4 55.6 C 38.3 55.7 38.2 55.9 38.1 56.0 C 38.0 56.0 38.0 56.1 37.9 56.2 C 37.8 56.4 37.6 56.6 37.5 56.8 C 37.3 57.0 37.2 57.3 37.0 57.6 C 37.2 57.6 37.3 57.7 37.5 57.8 C 37.6 57.8 37.6 57.8 37.7 57.9 C 38.1 58.0 38.5 58.2 39.0 58.4 C 39.0 58.4 39.1 58.4 39.1 58.4 C 39.6 58.6 40.0 58.7 40.5 58.8 L 42.3 63.6 L 44.7 59.7 C 44.9 59.7 45.1 59.8 45.3 59.8 L 42.5 52.2 C 42.5 52.2 42.5 52.2 42.5 52.1 C 42.4 52.1 42.4 52.0 42.4 51.9 C 42.4 51.9 42.4 51.9 42.4 51.9 C 42.3 52.0 42.2 52.1 42.0 52.1 C 42.0 52.2 42.0 52.2 41.9 52.2 C 41.7 52.4 41.4 52.6 41.1 52.8 C 41.1 52.8 41.1 52.8 41.1 52.9 C 40.8 53.1 40.6 53.3 40.3 53.5 C 40.3 53.6 40.2 53.6 40.2 53.6 C 40.0 53.9 39.7 54.1 39.5 54.3 C 39.4 54.4 39.4 54.5 39.3 54.5 C 39.2 54.6 39.1 54.7 39.0 54.8 C 39.0 54.9 38.9 55.0 38.8 55.0 C 38.7 55.1 38.6 55.3 38.6 55.4 M 69.7 40.8 C 69.8 40.8 69.8 40.8 69.8 40.7 C 70.1 40.5 70.4 40.4 70.6 40.1 C 70.6 40.1 70.7 40.1 70.7 40.1 C 70.9 39.9 71.2 39.7 71.5 39.4 C 71.5 39.4 71.5 39.4 71.5 39.4 C 71.8 39.2 72.0 38.9 72.2 38.7 C 72.3 38.6 72.3 38.6 72.4 38.5 C 72.5 38.5 72.5 38.4 72.6 38.3 C 72.7 38.2 72.8 38.1 72.8 38.0 C 72.9 37.9 73.0 37.8 73.1 37.7 C 73.1 37.7 73.2 37.6 73.3 37.5 C 73.3 37.4 73.4 37.3 73.5 37.2 C 73.6 37.1 73.6 37.0 73.7 37.0 C 73.8 36.8 73.9 36.6 74.1 36.4 C 74.4 35.9 74.7 35.5 74.9 35.0 C 75.0 34.9 75.0 34.8 75.1 34.7 C 74.1 34.2 73.0 33.7 71.8 33.3 L 70.0 28.5 L 67.7 32.3 C 67.3 32.2 66.9 32.2 66.6 32.1 L 69.6 40.1 C 69.7 40.3 69.7 40.6 69.7 40.8 M 95.4 63.2 C 95.3 63.3 95.2 63.5 95.2 63.6 C 94.8 64.0 94.5 64.5 94.1 64.9 C 94.1 65.0 94.0 65.0 94.0 65.1 C 93.6 65.5 93.3 65.9 92.9 66.3 C 92.8 66.4 92.8 66.5 92.7 66.6 C 92.3 67.0 91.9 67.5 91.5 67.9 C 91.5 67.9 91.5 67.9 91.4 68.0 C 91.4 68.0 91.3 68.1 91.2 68.2 C 91.0 68.5 90.7 68.8 90.4 69.0 C 90.3 69.1 90.1 69.3 90.0 69.4 C 89.7 69.7 89.3 70.1 89.0 70.4 C 88.9 70.4 88.9 70.4 88.9 70.5 C 88.5 70.8 88.1 71.2 87.7 71.5 C 87.6 71.6 87.4 71.7 87.3 71.8 C 87.0 72.1 86.7 72.3 86.4 72.6 C 86.3 72.7 86.2 72.8 86.0 72.9 C 85.6 73.2 85.2 73.5 84.8 73.9 C 84.7 73.9 84.6 74.0 84.6 74.0 C 84.2 74.3 83.8 74.6 83.4 74.8 C 83.3 74.9 83.2 75.0 83.1 75.1 C 82.7 75.4 82.3 75.6 82.0 75.8 C 81.9 75.9 81.8 76.0 81.7 76.1 C 81.2 76.3 80.8 76.6 80.3 76.9 C 80.2 77.0 80.1 77.1 80.0 77.1 C 79.6 77.4 79.2 77.6 78.9 77.8 C 78.7 77.9 78.6 78.0 78.4 78.0 C 78.0 78.3 77.6 78.5 77.2 78.8 C 77.1 78.8 77.1 78.8 77.0 78.8 C 76.5 79.1 76.0 79.4 75.5 79.6 C 75.4 79.7 75.3 79.8 75.1 79.8 C 74.8 80.0 74.4 80.2 74.0 80.4 C 73.9 80.4 73.7 80.5 73.6 80.6 C 73.1 80.8 72.6 81.0 72.1 81.3 C 72.0 81.3 72.0 81.3 71.9 81.3 C 71.4 81.5 71.0 81.7 70.5 81.9 C 70.4 82.0 70.2 82.0 70.1 82.1 C 69.7 82.3 69.3 82.4 68.9 82.6 C 68.7 82.6 68.6 82.7 68.5 82.7 C 68.0 82.9 67.5 83.1 66.9 83.3 C 66.8 83.3 66.7 83.3 66.6 83.4 C 66.2 83.5 65.7 83.7 65.3 83.8 C 65.2 83.8 65.0 83.9 64.9 83.9 C 64.4 84.1 63.9 84.2 63.5 84.3 C 63.4 84.4 63.3 84.4 63.3 84.4 C 62.8 84.5 62.3 84.7 61.9 84.8 C 61.8 84.8 61.8 84.8 61.7 84.8 C 61.4 84.9 61.2 84.9 60.9 85.0 C 60.6 85.1 60.3 85.2 59.9 85.2 C 59.7 85.3 59.4 85.4 59.1 85.4 C 58.8 85.5 58.5 85.5 58.2 85.6 C 57.9 85.7 57.6 85.7 57.4 85.8 C 57.0 85.8 56.7 85.9 56.4 85.9 C 56.1 86.0 55.9 86.0 55.6 86.1 C 55.3 86.1 54.9 86.2 54.6 86.2 C 54.4 86.2 54.1 86.3 53.8 86.3 C 53.5 86.3 53.2 86.4 52.9 86.4 C 52.6 86.4 52.3 86.5 52.0 86.5 C 51.7 86.5 51.4 86.5 51.1 86.6 C 50.8 86.6 50.5 86.6 50.3 86.6 C 49.9 86.7 49.6 86.7 49.3 86.7 C 49.1 86.7 48.9 86.7 48.7 86.7 C 47.1 83.1 45.5 79.5 43.9 75.9 C 44.1 75.9 44.3 75.9 44.5 75.9 C 44.7 75.9 45.0 75.9 45.3 75.9 C 45.6 75.9 45.9 75.8 46.2 75.8 C 46.5 75.8 46.8 75.8 47.0 75.8 C 47.4 75.7 47.7 75.7 48.0 75.7 C 48.3 75.7 48.5 75.6 48.8 75.6 C 49.1 75.6 49.4 75.5 49.8 75.5 C 50.0 75.5 50.3 75.4 50.6 75.4 C 50.9 75.3 51.2 75.3 51.5 75.3 C 51.8 75.2 52.1 75.2 52.4 75.1 C 52.7 75.1 53.0 75.0 53.3 75.0 C 53.6 74.9 53.9 74.9 54.1 74.8 C 54.4 74.7 54.8 74.7 55.1 74.6 C 55.4 74.5 55.6 74.5 55.9 74.4 C 56.2 74.4 56.5 74.3 56.9 74.2 C 57.1 74.1 57.4 74.1 57.6 74.0 C 58.2 73.9 58.7 73.7 59.2 73.6 C 59.3 73.6 59.4 73.6 59.4 73.5 C 59.9 73.4 60.4 73.3 60.8 73.1 L 61.3 73.0 C 61.7 72.8 62.1 72.7 62.5 72.6 C 62.7 72.5 62.8 72.5 62.9 72.5 C 63.4 72.3 63.9 72.1 64.4 71.9 C 64.6 71.9 64.7 71.8 64.8 71.8 C 65.2 71.6 65.6 71.4 66.0 71.3 C 66.2 71.2 66.3 71.2 66.5 71.1 C 66.9 70.9 67.4 70.7 67.9 70.5 C 67.9 70.5 68.0 70.5 68.0 70.5 C 68.5 70.2 69.0 70.0 69.5 69.8 C 69.7 69.7 69.8 69.6 69.9 69.6 C 70.3 69.4 70.7 69.2 71.1 69.0 C 71.2 68.9 71.4 68.9 71.5 68.8 C 72.0 68.6 72.5 68.3 73.0 68.0 C 73.0 68.0 73.1 68.0 73.1 68.0 C 73.5 67.7 74.0 67.5 74.4 67.2 C 74.5 67.2 74.7 67.1 74.8 67.0 C 75.2 66.8 75.6 66.5 75.9 66.3 C 76.0 66.3 76.1 66.2 76.3 66.1 C 76.7 65.8 77.2 65.5 77.6 65.2 C 77.7 65.2 77.8 65.1 77.9 65.0 C 78.3 64.8 78.6 64.6 79.0 64.3 C 79.1 64.2 79.3 64.1 79.4 64.0 C 79.8 63.8 80.2 63.5 80.5 63.2 C 80.6 63.2 80.7 63.1 80.7 63.1 C 81.2 62.7 81.6 62.4 82.0 62.1 C 82.1 62.0 82.2 61.9 82.3 61.8 C 82.7 61.5 83.0 61.3 83.3 61.0 C 83.4 60.9 83.5 60.8 83.6 60.7 C 84.0 60.4 84.4 60.0 84.8 59.7 C 84.9 59.6 84.9 59.6 84.9 59.6 C 85.3 59.2 85.6 58.9 86.0 58.6 C 86.1 58.4 86.2 58.3 86.3 58.2 C 86.6 57.9 86.9 57.7 87.2 57.4 C 87.3 57.3 87.4 57.2 87.5 57.1 C 87.9 56.7 88.2 56.2 88.6 55.8 C 88.7 55.7 88.8 55.6 88.9 55.5 C 89.2 55.1 89.6 54.7 89.9 54.3 C 90.0 54.2 90.0 54.2 90.0 54.1 C 90.4 53.7 90.8 53.2 91.1 52.8 C 91.2 52.6 91.3 52.5 91.3 52.4 C 91.7 52.0 92.0 51.5 92.4 51.0 C 95.0 47.1 96.7 43.1 97.6 39.2 C 97.6 39.2 97.6 39.2 97.7 39.1 C 97.9 38.2 98.0 37.4 98.1 36.5 C 98.1 36.3 98.2 36.0 98.2 35.8 C 98.2 35.6 98.2 35.5 98.2 35.3 C 98.3 34.9 98.3 34.5 98.3 34.1 C 98.3 33.9 98.3 33.6 98.3 33.4 C 98.3 33.1 98.3 32.8 98.3 32.5 C 98.3 32.2 98.3 31.9 98.3 31.5 C 98.2 31.3 98.2 31.1 98.2 30.9 C 98.2 30.8 98.2 30.7 98.2 30.5 C 94.4 25.1 88.1 20.9 79.6 18.7 C 79.0 18.6 78.4 18.5 77.7 18.3 C 77.5 18.3 77.3 18.2 77.1 18.2 C 76.7 18.1 76.3 18.0 75.8 18.0 C 75.6 17.9 75.3 17.9 75.1 17.9 C 74.7 17.8 74.3 17.7 73.8 17.7 C 73.6 17.7 73.4 17.6 73.1 17.6 C 72.7 17.6 72.2 17.5 71.7 17.5 C 71.5 17.5 71.3 17.5 71.1 17.4 C 70.5 17.4 69.8 17.4 69.2 17.4 C 69.1 17.4 69.0 17.4 69.0 17.4 C 68.4 17.3 67.8 17.3 67.2 17.3 C 66.9 17.3 66.7 17.3 66.5 17.4 C 66.5 17.4 66.4 17.4 66.4 17.4 L 70.5 18.2 L 73.1 25.4 C 74.3 26.3 75.1 27.4 75.6 28.7 L 79.6 39.5 L 79.6 39.5 L 79.6 39.5 C 79.6 39.6 79.7 39.6 79.7 39.7 C 79.7 39.8 79.7 39.8 79.7 39.9 C 79.8 39.9 79.8 40.0 79.8 40.0 C 79.8 40.2 79.9 40.3 79.9 40.5 C 80.0 41.0 80.0 41.4 80.0 41.9 C 80.0 42.3 80.0 42.7 79.9 43.1 C 79.9 43.2 79.9 43.3 79.8 43.4 C 79.8 43.5 79.8 43.5 79.8 43.6 C 79.8 43.6 79.8 43.6 79.8 43.6 C 79.7 44.1 79.5 44.6 79.3 45.1 C 79.2 45.3 79.1 45.6 78.9 45.8 C 78.7 46.3 78.4 46.7 78.1 47.2 C 78.0 47.4 77.9 47.6 77.7 47.8 C 77.7 47.8 77.6 47.9 77.6 48.0 C 77.5 48.1 77.4 48.2 77.3 48.3 C 77.2 48.4 77.2 48.5 77.1 48.5 C 77.0 48.6 77.0 48.8 76.9 48.9 C 76.8 48.9 76.7 49.0 76.7 49.1 C 76.6 49.2 76.5 49.3 76.4 49.4 C 76.4 49.4 76.4 49.4 76.4 49.4 C 76.3 49.4 76.3 49.5 76.3 49.5 C 76.0 49.7 75.8 50.0 75.6 50.2 C 75.5 50.2 75.5 50.2 75.5 50.2 C 75.3 50.5 75.0 50.7 74.7 50.9 C 74.7 50.9 74.7 50.9 74.7 51.0 C 74.4 51.2 74.1 51.4 73.9 51.5 C 73.8 51.6 73.8 51.6 73.7 51.6 C 73.5 51.8 73.2 52.0 73.0 52.2 C 72.9 52.2 72.9 52.2 72.8 52.2 C 72.5 52.4 72.3 52.6 72.0 52.7 C 71.9 52.7 71.9 52.8 71.9 52.8 C 71.6 52.9 71.3 53.1 71.0 53.2 C 71.0 53.2 71.0 53.2 70.9 53.2 C 70.8 53.3 70.6 53.4 70.4 53.5 C 70.4 53.5 70.4 53.5 70.4 53.5 C 70.4 53.5 70.4 53.5 70.4 53.5 C 70.3 53.5 70.3 53.5 70.2 53.6 C 70.0 53.6 69.9 53.7 69.8 53.7 C 69.6 53.8 69.4 53.9 69.2 54.0 C 69.1 54.0 69.0 54.0 68.9 54.1 C 68.6 54.2 68.3 54.3 68.1 54.4 C 68.0 54.4 68.0 54.4 67.9 54.4 C 67.6 54.5 67.3 54.6 67.0 54.7 C 66.9 54.7 66.8 54.7 66.7 54.8 C 66.4 54.8 66.2 54.9 66.0 55.0 C 65.9 55.0 65.7 55.0 65.6 55.0 C 65.4 55.1 65.2 55.1 65.0 55.2 C 64.9 55.2 64.7 55.2 64.6 55.3 C 64.4 55.3 64.2 55.4 64.0 55.4 C 63.9 55.4 63.7 55.5 63.6 55.5 C 63.4 55.5 63.1 55.6 62.9 55.6 C 62.8 55.6 62.7 55.6 62.7 55.7 C 62.3 55.7 62.0 55.8 61.7 55.8 C 61.6 55.8 61.6 55.8 61.6 55.8 L 64.2 63.0 L 59.5 71.4 C 56.1 71.3 52.2 71.0 48.8 70.5 L 45.7 75.6 L 43.6 75.1 C 39.7 66.0 36.0 56.8 32.6 47.4 C 32.8 47.0 33.1 46.5 33.4 46.0 C 33.6 45.8 33.7 45.6 33.9 45.4 C 33.9 45.3 34.0 45.2 34.0 45.2 C 34.1 45.0 34.2 44.9 34.3 44.8 C 34.4 44.7 34.4 44.6 34.5 44.6 C 34.6 44.5 34.7 44.3 34.8 44.2 C 34.9 44.2 34.9 44.1 35.0 44.0 C 35.1 43.9 35.2 43.8 35.3 43.7 C 35.3 43.7 35.3 43.6 35.4 43.6 C 35.4 43.6 35.4 43.6 35.4 43.5 C 35.7 43.3 35.9 43.0 36.2 42.8 C 36.2 42.8 36.2 42.8 36.3 42.7 C 36.5 42.5 36.8 42.3 37.1 42.0 C 37.1 42.0 37.1 42.0 37.1 42.0 C 37.3 41.8 37.6 41.6 37.9 41.4 C 37.9 41.4 38.0 41.4 38.0 41.3 C 38.3 41.2 38.5 41.0 38.8 40.8 L 39.0 40.7 C 39.2 40.5 39.5 40.4 39.8 40.2 C 39.8 40.2 39.9 40.2 39.9 40.2 C 40.2 40.0 40.5 39.9 40.8 39.7 C 40.8 39.7 40.8 39.7 40.9 39.7 C 41.2 39.5 41.5 39.4 41.8 39.3 C 41.8 39.3 41.8 39.3 41.8 39.2 C 42.1 39.1 42.4 39.0 42.7 38.9 C 42.8 38.9 42.8 38.9 42.9 38.8 C 43.2 38.7 43.5 38.6 43.8 38.5 C 43.8 38.5 43.9 38.5 43.9 38.5 C 44.2 38.4 44.5 38.3 44.8 38.2 C 44.9 38.2 44.9 38.2 45.0 38.2 C 45.3 38.1 45.6 38.0 45.9 37.9 C 45.9 37.9 45.9 37.9 45.9 37.9 C 46.3 37.8 46.6 37.7 46.9 37.7 C 46.9 37.7 47.0 37.7 47.0 37.6 C 47.3 37.6 47.6 37.5 47.9 37.4 C 48.0 37.4 48.0 37.4 48.1 37.4 C 48.1 37.4 48.1 37.4 48.1 37.4 L 45.3 29.9 L 50.1 21.1 C 50.1 21.1 50.2 21.1 50.2 21.1 C 50.3 21.1 50.3 21.1 50.3 21.1 C 50.4 21.1 50.4 21.1 50.5 21.1 C 50.5 21.1 50.6 21.0 50.6 21.0 C 50.7 21.0 50.7 21.0 50.8 21.0 C 50.9 21.0 50.9 21.0 51.0 21.0 C 51.1 21.0 51.2 21.0 51.3 21.0 C 51.3 20.9 51.4 20.9 51.5 20.9 C 51.6 20.9 51.7 20.9 51.8 20.9 C 51.9 20.9 52.0 20.9 52.1 20.9 C 52.2 20.9 52.3 20.9 52.5 20.8 C 52.6 20.8 52.7 20.8 52.8 20.8 C 52.9 20.8 53.1 20.8 53.2 20.8 C 53.3 20.8 53.5 20.8 53.6 20.8 C 53.7 20.8 53.9 20.8 54.0 20.8 C 54.2 20.8 54.3 20.7 54.5 20.7 C 54.6 20.7 54.8 20.7 55.0 20.7 C 55.1 20.7 55.3 20.7 55.4 20.7 C 55.6 20.7 55.8 20.7 55.9 20.7 C 56.1 20.7 56.3 20.7 56.4 20.7 C 56.6 20.7 56.8 20.8 57.0 20.8 C 57.2 20.8 57.3 20.8 57.5 20.8 C 57.7 20.8 57.9 20.8 58.1 20.8 C 58.3 20.8 58.5 20.8 58.7 20.8 C 58.9 20.9 59.1 20.9 59.3 20.9 C 59.5 20.9 59.7 20.9 59.9 21.0 C 60.1 21.0 60.3 21.0 60.6 21.0 C 60.8 21.1 61.0 21.1 61.2 21.1 C 61.4 21.1 61.6 21.2 61.9 21.2 C 62.1 21.2 62.3 21.3 62.5 21.3 C 62.6 21.3 62.7 21.3 62.8 21.3 C 63.1 21.4 63.3 21.4 63.6 21.5 C 63.6 21.5 63.6 21.5 63.6 21.5 L 66.2 17.4 C 65.8 17.4 65.5 17.4 65.1 17.4 C 64.9 17.4 64.6 17.4 64.4 17.4 C 64.0 17.5 63.5 17.5 63.1 17.5 C 62.8 17.5 62.6 17.6 62.3 17.6 C 61.9 17.6 61.4 17.7 60.9 17.7 C 60.7 17.8 60.5 17.8 60.3 17.8 C 59.6 17.9 59.0 18.0 58.3 18.1 C 58.2 18.1 58.1 18.1 58.0 18.2 C 57.4 18.2 56.8 18.4 56.3 18.5 C 56.0 18.5 55.8 18.6 55.6 18.6 C 55.1 18.7 54.7 18.8 54.2 18.9 C 54.0 19.0 53.7 19.0 53.5 19.1 C 53.1 19.2 52.6 19.3 52.2 19.4 C 52.0 19.5 51.7 19.5 51.5 19.6 C 51.0 19.7 50.5 19.9 50.0 20.0 C 49.9 20.1 49.7 20.1 49.5 20.2 C 48.8 20.4 48.2 20.6 47.5 20.8 C 47.4 20.9 47.3 20.9 47.2 20.9 C 46.6 21.1 46.1 21.3 45.6 21.5 C 45.4 21.6 45.1 21.7 44.9 21.8 C 44.5 21.9 44.1 22.1 43.6 22.3 C 43.4 22.4 43.2 22.5 42.9 22.6 C 42.5 22.8 42.1 22.9 41.7 23.1 C 41.5 23.2 41.2 23.3 41.0 23.4 C 40.5 23.6 40.1 23.9 39.6 24.1 C 39.5 24.2 39.3 24.3 39.1 24.3 C 38.5 24.6 37.9 25.0 37.3 25.3 C 37.2 25.4 37.1 25.4 36.9 25.5 C 36.5 25.8 36.0 26.0 35.5 26.3 C 35.3 26.4 35.1 26.5 34.9 26.7 C 34.5 26.9 34.2 27.1 33.8 27.4 C 33.6 27.5 33.3 27.6 33.1 27.8 C 32.8 28.0 32.4 28.3 32.0 28.5 C 31.8 28.7 31.6 28.8 31.4 28.9 C 31.0 29.2 30.6 29.5 30.2 29.8 C 30.0 29.9 29.9 30.0 29.8 30.1 C 29.2 30.5 28.7 30.9 28.2 31.4 C 28.1 31.5 27.9 31.6 27.8 31.7 C 27.6 31.8 27.5 32.0 27.3 32.1 C 25.5 26.7 23.8 21.3 22.2 15.8 C 22.5 15.6 22.8 15.3 23.2 15.1 C 23.3 15.0 23.4 14.9 23.5 14.9 C 24.0 14.5 24.5 14.2 25.0 13.8 L 25.2 13.7 C 25.7 13.4 26.2 13.1 26.7 12.8 C 26.7 12.7 26.8 12.7 26.9 12.6 C 27.4 12.3 27.9 12.0 28.5 11.7 L 28.8 11.5 C 29.3 11.2 29.9 10.9 30.4 10.6 C 30.5 10.5 30.6 10.5 30.6 10.5 C 31.1 10.2 31.7 9.9 32.2 9.6 C 32.3 9.6 32.3 9.6 32.4 9.5 C 33.0 9.2 33.5 9.0 34.1 8.7 C 34.2 8.6 34.3 8.6 34.4 8.5 C 35.0 8.3 35.6 8.0 36.1 7.8 C 36.2 7.7 36.3 7.7 36.3 7.7 C 36.9 7.4 37.4 7.2 38.0 7.0 C 38.1 7.0 38.1 6.9 38.2 6.9 C 38.8 6.7 39.4 6.4 40.0 6.2 C 40.1 6.2 40.2 6.1 40.3 6.1 C 40.9 5.9 41.5 5.7 42.1 5.4 C 42.1 5.4 42.2 5.4 42.3 5.4 C 42.8 5.2 43.4 5.0 44.0 4.8 C 44.1 4.8 44.2 4.8 44.3 4.7 C 44.8 4.6 45.4 4.4 46.0 4.2 C 46.1 4.2 46.3 4.1 46.4 4.1 C 47.0 3.9 47.6 3.8 48.2 3.6 C 48.3 3.6 48.3 3.6 48.4 3.6 C 48.9 3.4 49.5 3.3 50.1 3.2 C 50.2 3.2 50.3 3.1 50.4 3.1 C 51.0 3.0 51.6 2.9 52.2 2.7 C 52.3 2.7 52.5 2.7 52.6 2.7 C 53.2 2.6 53.8 2.5 54.4 2.4 C 54.5 2.3 54.5 2.3 54.6 2.3 C 55.1 2.2 55.7 2.2 56.3 2.1 C 56.4 2.1 56.5 2.0 56.6 2.0 C 57.2 2.0 57.8 1.9 58.4 1.8 C 58.6 1.8 58.7 1.8 58.8 1.8 C 59.4 1.7 60.0 1.7 60.7 1.6 C 60.7 1.6 60.7 1.6 60.8 1.6 C 61.4 1.6 62.0 1.6 62.6 1.5 C 62.7 1.5 62.8 1.5 62.9 1.5 C 63.5 1.5 64.1 1.5 64.7 1.5 L 65.0 1.5 C 65.6 1.5 66.2 1.5 66.9 1.5 C 66.9 1.5 66.9 1.5 66.9 1.5 C 67.5 1.5 68.1 1.5 68.7 1.6 C 68.8 1.6 68.9 1.6 69.0 1.6 C 69.6 1.6 70.2 1.7 70.8 1.7 C 70.9 1.8 71.0 1.8 71.1 1.8 C 71.8 1.8 72.4 1.9 72.9 2.0 L 73.0 2.0 C 73.6 2.1 74.2 2.2 74.7 2.2 C 74.8 2.3 74.9 2.3 75.0 2.3 C 75.0 2.3 75.0 2.3 75.1 2.3 C 75.6 2.4 76.2 2.5 76.8 2.6 C 76.9 2.6 77.0 2.7 77.1 2.7 C 77.7 2.8 78.3 3.0 78.9 3.1 C 81.6 3.8 84.1 4.7 86.5 5.7 C 87.1 6.0 87.8 6.3 88.4 6.7 C 91.0 8.0 93.2 9.5 95.2 11.2 C 96.2 12.1 97.1 13.0 97.9 13.9 C 98.4 14.4 98.8 14.8 99.2 15.3 C 99.9 16.3 100.6 17.3 101.2 18.4 C 101.4 18.6 101.5 18.9 101.7 19.2 C 102.3 20.3 102.8 21.4 103.2 22.5 L 107.2 33.3 C 104.8 26.7 99.7 21.1 92.2 17.3 C 92.2 17.3 92.3 17.4 92.3 17.4 C 92.8 18.0 93.3 18.6 93.8 19.3 C 94.1 19.7 94.4 20.2 94.7 20.6 C 95.0 21.1 95.3 21.5 95.5 22.0 C 95.7 22.2 95.8 22.5 95.9 22.7 C 96.2 23.4 96.6 24.1 96.8 24.9 L 98.7 29.7 L 100.9 35.7 C 101.0 36.0 101.1 36.3 101.2 36.6 C 101.3 36.8 101.3 37.0 101.4 37.2 C 101.5 37.6 101.6 38.0 101.7 38.5 C 101.7 38.5 101.8 38.6 101.8 38.7 C 101.8 38.9 101.9 39.2 102.0 39.5 C 102.0 39.8 102.0 40.0 102.1 40.2 C 102.1 40.4 102.1 40.5 102.1 40.7 C 102.2 41.1 102.2 41.4 102.3 41.8 C 102.3 41.9 102.3 42.0 102.3 42.2 C 102.3 42.5 102.4 42.9 102.4 43.3 C 102.4 43.4 102.4 43.4 102.4 43.5 C 102.4 44.0 102.4 44.5 102.4 45.0 C 102.4 45.2 102.3 45.4 102.3 45.7 C 102.3 46.0 102.3 46.3 102.2 46.6 C 102.2 46.7 102.2 46.9 102.2 47.0 C 101.6 51.8 99.7 56.9 96.4 61.8 C 96.1 62.3 95.7 62.8 95.4 63.2 " fill="#D66800"></path><path d="M 71.8 33.3 C 79.0 35.7 82.4 40.8 78.1 47.2 C 70.0 59.3 51.4 53.9 47.0 60.4 C 45.5 62.7 46.9 64.7 50.1 65.5 C 53.0 66.2 55.0 66.2 56.9 65.5 C 57.2 65.2 57.4 65.0 57.5 64.9 L 59.4 62.0 L 64.2 63.0 L 59.5 71.4 C 56.1 71.3 52.2 71.0 48.8 70.5 L 45.7 75.6 L 41.5 74.7 L 44.6 69.6 C 37.0 67.6 33.4 62.9 37.5 56.8 C 46.0 44.1 64.2 50.0 69.0 42.9 C 70.8 40.2 68.9 38.4 65.9 37.6 C 61.1 36.4 58.0 37.1 57.6 37.2 C 56.7 38.1 55.8 39.0 55.8 39.2 C 55.3 39.8 54.1 41.5 54.1 41.6 L 49.4 40.7 L 54.2 31.9 C 54.5 31.9 60.2 30.9 67.7 32.3 L 70.2 28.1 L 74.5 29.0 L 71.8 33.3 M 34.8 85.3 C 56.4 90.7 84.0 80.2 96.4 61.8 C 108.8 43.4 101.3 24.1 79.6 18.7 C 58.0 13.4 30.4 23.9 18.0 42.3 C 5.6 60.7 13.1 79.9 34.8 85.3 " fill="#FFE679"></path><path d="M 99.3 56.8 C 89.9 56.7 80.5 55.0 71.2 53.1 C 73.8 51.8 76.3 50.0 78.1 47.2 C 82.4 40.8 79.0 35.7 71.8 33.3 L 74.5 29.0 L 70.2 28.1 L 67.7 32.3 C 60.2 30.9 54.5 31.9 54.2 31.9 L 49.4 40.7 L 54.1 41.6 C 54.1 41.5 55.3 39.8 55.7 39.2 C 55.8 39.0 56.7 38.1 57.6 37.2 C 58.0 37.1 61.1 36.4 65.9 37.6 C 68.9 38.4 70.8 40.2 69.0 42.9 C 65.8 47.6 56.7 46.6 48.5 49.1 C 41.6 48.3 34.6 48.0 27.7 48.8 C 22.7 49.4 17.7 50.7 13.1 52.7 C 14.0 49.3 15.7 45.8 18.0 42.3 C 30.4 23.9 58.0 13.4 79.6 18.7 C 99.3 23.7 107.3 40.0 99.3 56.8 " fill="#FFD93A"></path><path d="M 46.7 61.1 C 46.9 62.3 48.3 63.3 50.3 63.8 C 53.2 64.5 55.2 64.5 57.1 63.8 C 57.4 63.5 57.6 63.3 57.7 63.2 L 59.6 60.3 L 64.4 61.3 L 64.2 63.0 L 59.4 62.0 L 57.5 64.9 C 57.4 65.0 57.2 65.2 56.9 65.5 C 55.0 66.2 53.0 66.2 50.1 65.5 C 47.2 64.8 45.8 63.1 46.7 61.1 " fill="#C76C10"></path><path d="M 43.9 69.4 C 44.1 69.5 44.3 69.6 44.6 69.6 L 41.5 74.7 L 41.7 73.0 Z M 43.9 69.4 " fill="#C76C10"></path><path d="M 72.7 31.8 C 78.0 33.8 81.1 37.4 80.0 41.8 C 80.0 38.0 76.8 35.0 71.8 33.3 Z M 72.7 31.8 " fill="#C76C10"></path><path d="M 34.8 85.3 C 18.6 81.3 10.3 69.5 12.4 56.1 C 11.3 68.8 19.5 79.8 35.0 83.6 C 56.6 89.0 84.2 78.5 96.6 60.1 C 99.7 55.5 101.6 50.8 102.3 46.3 C 101.8 51.3 99.9 56.6 96.4 61.8 C 84.0 80.2 56.4 90.7 34.8 85.3 " fill="#C76C10"></path><path d="M 49.6 39.0 L 54.4 30.2 C 54.7 30.2 60.4 29.2 67.9 30.6 L 70.4 26.4 L 74.7 27.3 L 73.7 28.8 L 70.2 28.1 L 67.7 32.3 C 60.2 30.9 54.5 31.9 54.2 31.9 L 50.2 39.2 Z M 49.6 39.0 " fill="#C76C10"></path><path d="M 36.0 60.0 C 36.0 58.5 36.5 56.9 37.7 55.1 C 46.2 42.4 64.4 48.3 69.2 41.2 C 69.4 40.9 69.5 40.6 69.7 40.4 C 69.8 41.1 69.7 41.9 69.0 42.9 C 64.2 50.0 46.0 44.1 37.5 56.8 C 36.7 57.9 36.2 59.0 36.0 60.0 " fill="#C76C10"></path><path d="M 41.5 74.7 L 45.7 75.6 L 48.8 70.5 C 52.2 71.0 56.1 71.3 59.5 71.4 L 64.2 63.0 L 59.4 62.0 L 57.5 64.9 C 57.4 65.0 57.2 65.2 56.9 65.5 C 55.0 66.2 53.0 66.2 50.1 65.5 C 46.9 64.7 45.5 62.7 47.0 60.4 C 51.4 53.9 70.0 59.3 78.1 47.2 C 82.4 40.8 79.0 35.7 71.8 33.3 L 74.5 29.0 L 70.2 28.1 L 67.7 32.3 C 60.2 30.9 54.5 31.9 54.2 31.9 L 49.4 40.7 L 54.1 41.6 C 54.1 41.5 55.3 39.8 55.8 39.2 C 55.8 39.0 56.7 38.1 57.6 37.2 C 58.0 37.1 61.1 36.4 65.9 37.6 C 68.9 38.4 70.8 40.2 69.0 42.9 C 64.2 50.0 46.0 44.1 37.5 56.8 C 33.4 62.9 37.0 67.6 44.6 69.6 Z M 41.5 74.7 " fill="#FFF3A9"></path><path d="M 67.3 54.1 C 60.3 52.7 53.3 51.3 46.2 50.4 C 49.7 49.0 53.7 48.4 57.3 47.8 C 62.6 47.1 67.2 46.4 69.4 43.1 C 70.6 41.4 70.4 39.8 69.0 38.6 C 68.3 38.0 67.2 37.5 66.0 37.2 C 61.5 36.1 58.3 36.5 57.4 36.7 L 57.3 36.8 L 57.2 36.9 C 56.8 37.2 55.6 38.4 55.3 39.0 C 55.0 39.4 54.3 40.5 53.9 41.1 L 50.1 40.4 L 54.5 32.4 C 55.7 32.2 60.9 31.5 67.6 32.8 L 67.9 32.8 L 70.5 28.7 L 73.7 29.3 L 71.1 33.5 L 71.7 33.7 C 73.8 34.4 75.5 35.4 76.9 36.5 C 80.1 39.3 80.4 42.9 77.7 46.9 C 75.1 50.8 71.4 52.9 67.4 54.1 C 67.4 54.1 67.4 54.1 67.3 54.1 " fill="#FFE061"></path><path d="M 79.6 18.7 C 101.3 24.1 108.8 43.4 96.4 61.8 C 84.0 80.2 56.4 90.7 34.8 85.3 C 13.1 79.9 5.6 60.7 18.0 42.3 C 30.4 23.9 58.0 13.4 79.6 18.7 M 31.5 90.2 C 56.3 96.4 87.9 84.3 102.1 63.2 C 116.3 42.2 107.7 20.1 82.9 13.9 C 58.1 7.7 26.5 19.8 12.3 40.8 C -1.9 61.9 6.7 84.0 31.5 90.2 " fill="#FFF1B4"></path><path d="M 20.3 78.7 C 9.8 69.7 8.7 55.3 17.6 42.0 C 30.1 23.5 58.0 12.9 79.8 18.3 C 85.4 19.7 90.3 22.1 94.1 25.3 C 104.7 34.4 105.7 48.8 96.8 62.1 C 84.3 80.6 56.5 91.2 34.7 85.8 C 29.0 84.4 24.2 82.0 20.3 78.7 M 98.8 22.2 C 94.5 18.6 89.2 16.0 82.8 14.4 C 58.2 8.2 26.8 20.2 12.7 41.1 C 2.8 55.9 3.9 71.8 15.6 81.8 C 19.9 85.5 25.3 88.1 31.6 89.7 C 56.2 95.8 87.6 83.8 101.7 63.0 C 111.6 48.2 110.5 32.2 98.8 22.2 " fill="#FFF1B4"></path><path d="M 102.9 61.1 C 101.0 61.2 99.2 61.3 97.4 61.2 C 105.7 48.2 104.5 34.2 94.1 25.3 C 90.3 22.1 85.4 19.7 79.8 18.3 C 58.0 12.9 30.1 23.5 17.6 42.0 C 14.2 47.0 12.3 52.2 11.8 57.2 C 9.8 58.1 7.8 59.1 6.0 60.2 C 6.2 54.0 8.5 47.4 12.7 41.1 C 26.8 20.2 58.2 8.2 82.8 14.4 C 89.2 16.0 94.5 18.6 98.8 22.2 C 110.0 31.8 111.5 46.9 102.9 61.1 " fill="#FCDE53"></path></g></g></g></svg>