<?xml version="1.0" encoding="UTF-8"?><svg xmlns="http://www.w3.org/2000/svg" xmlns:xlink="http://www.w3.org/1999/xlink" clip-rule="evenodd" stroke-miterlimit="4.00" viewBox="0 0 93 59"><desc>SVG generated by Keynote</desc><defs></defs><g transform="matrix(1.00, 0.00, -0.00, -1.00, 0.0, 59.0)"><g><clipPath id="clip-346"><path d="M 1.3 1.8 L 91.3 1.8 L 91.3 57.0 L 1.3 57.0 Z M 1.3 1.8 "></path></clipPath><g clip-path="url(#clip-346)"><path d="M 77.8 42.0 C 77.6 41.9 77.5 41.7 77.3 41.5 C 77.2 41.4 77.2 41.3 77.0 41.2 C 76.9 41.0 76.7 40.8 76.5 40.6 C 76.4 40.5 76.3 40.5 76.2 40.4 C 75.9 40.1 75.6 39.8 75.3 39.5 C 75.0 39.2 74.6 38.9 74.3 38.6 C 74.2 38.5 74.0 38.4 73.9 38.3 C 73.7 38.1 73.4 37.9 73.2 37.7 C 73.0 37.5 72.9 37.4 72.7 37.3 C 72.5 37.1 72.3 36.9 72.0 36.7 C 71.8 36.6 71.7 36.5 71.5 36.3 C 71.2 36.2 71.0 36.0 70.8 35.8 C 70.6 35.7 70.4 35.5 70.2 35.4 C 70.0 35.2 69.8 35.1 69.5 34.9 C 69.3 34.7 69.0 34.6 68.7 34.4 C 68.7 34.4 68.7 34.3 68.6 34.3 L 66.8 39.0 L 66.3 39.0 L 65.4 41.2 C 65.5 41.2 65.6 41.2 65.7 41.3 C 66.0 41.3 66.4 41.4 66.7 41.4 C 66.9 41.4 67.0 41.5 67.2 41.5 C 67.7 41.6 68.2 41.6 68.6 41.7 C 69.2 41.8 69.8 41.8 70.3 41.9 C 70.3 41.9 70.4 41.9 70.4 41.9 C 71.0 42.0 71.5 42.0 72.0 42.0 C 72.2 42.0 72.3 42.1 72.5 42.1 C 72.8 42.1 73.2 42.1 73.5 42.1 C 73.7 42.1 73.9 42.1 74.0 42.1 C 74.3 42.1 74.6 42.1 74.9 42.1 C 75.1 42.1 75.3 42.1 75.5 42.1 C 75.8 42.1 76.0 42.1 76.3 42.1 C 76.5 42.1 76.7 42.1 76.8 42.1 C 77.1 42.1 77.3 42.1 77.5 42.0 C 77.6 42.0 77.7 42.0 77.8 42.0 M 15.6 17.6 C 15.8 17.8 16.0 18.0 16.2 18.2 C 16.3 18.3 16.4 18.3 16.5 18.4 C 16.8 18.7 17.1 19.0 17.4 19.3 C 17.7 19.6 18.1 19.9 18.5 20.3 C 18.6 20.4 18.7 20.5 18.8 20.6 C 19.1 20.8 19.3 21.0 19.6 21.2 C 19.8 21.3 19.9 21.5 20.1 21.6 C 20.3 21.8 20.6 22.0 20.8 22.2 C 21.0 22.3 21.2 22.5 21.4 22.6 C 21.6 22.8 21.9 23.0 22.1 23.2 C 22.3 23.3 22.5 23.4 22.7 23.6 C 22.9 23.7 23.2 23.9 23.4 24.1 C 23.7 24.2 23.9 24.4 24.1 24.6 C 24.4 24.7 24.6 24.9 24.9 25.1 C 25.0 25.1 25.1 25.2 25.1 25.2 L 27.1 20.4 L 27.7 20.4 L 28.7 17.9 C 28.5 17.8 28.3 17.8 28.0 17.7 C 27.7 17.7 27.4 17.6 27.1 17.6 C 26.8 17.5 26.4 17.4 26.1 17.4 C 25.9 17.4 25.7 17.3 25.6 17.3 C 25.1 17.2 24.6 17.2 24.0 17.1 C 23.5 17.0 22.9 17.0 22.4 16.9 C 22.3 16.9 22.3 16.9 22.3 16.9 C 21.7 16.8 21.2 16.8 20.7 16.8 C 20.5 16.8 20.4 16.7 20.2 16.7 C 19.9 16.7 19.5 16.7 19.2 16.7 C 19.0 16.7 18.8 16.7 18.6 16.7 C 18.3 16.7 18.1 16.7 17.8 16.7 C 17.6 16.7 17.4 16.7 17.2 16.7 C 16.9 16.7 16.7 16.7 16.4 16.7 C 16.2 16.7 16.0 16.7 15.8 16.7 C 15.6 16.7 15.4 16.7 15.2 16.8 C 15.1 16.8 15.0 16.8 14.9 16.8 C 15.1 16.9 15.2 17.1 15.3 17.2 C 15.4 17.4 15.5 17.5 15.6 17.6 M 91.2 37.3 C 91.2 37.4 91.3 37.6 91.3 37.7 C 91.3 37.8 91.3 37.9 91.3 38.0 C 91.3 38.1 91.3 38.2 91.3 38.3 C 91.3 38.4 91.3 38.5 91.3 38.6 C 91.3 38.7 91.3 38.8 91.3 39.0 C 91.3 39.0 91.3 39.1 91.3 39.2 C 91.3 39.3 91.2 39.4 91.2 39.6 C 91.2 39.6 91.2 39.7 91.2 39.7 C 91.1 39.9 91.1 40.1 91.0 40.3 L 86.1 52.4 C 86.2 52.2 86.3 52.1 86.3 51.9 C 86.3 51.8 86.3 51.8 86.3 51.7 C 86.4 51.6 86.4 51.4 86.4 51.3 C 86.4 51.2 86.4 51.2 86.4 51.1 C 86.4 51.0 86.5 50.8 86.5 50.7 C 86.5 50.6 86.5 50.6 86.5 50.5 C 86.5 50.3 86.4 50.2 86.4 50.1 C 86.4 50.0 86.4 49.9 86.4 49.8 C 86.4 49.7 86.4 49.6 86.3 49.4 C 86.3 49.4 86.3 49.3 86.3 49.2 C 86.3 49.0 86.2 48.8 86.2 48.7 C 86.1 48.6 86.1 48.6 86.1 48.5 C 86.0 48.3 86.0 48.1 85.9 47.8 C 85.8 47.8 85.8 47.7 85.8 47.7 C 85.7 47.5 85.6 47.3 85.6 47.1 C 85.5 47.1 85.5 47.0 85.4 46.9 C 85.3 46.7 85.3 46.6 85.2 46.4 C 85.1 46.3 85.1 46.2 85.0 46.2 C 84.9 46.0 84.8 45.8 84.6 45.5 C 84.6 45.5 84.6 45.5 84.6 45.4 C 84.5 45.4 84.5 45.3 84.5 45.3 C 84.3 45.0 84.1 44.7 83.9 44.4 C 83.8 44.3 83.7 44.2 83.6 44.1 C 83.5 44.0 83.4 43.9 83.4 43.8 L 80.8 50.3 L 80.8 50.3 L 80.8 50.3 C 80.7 50.5 80.6 50.6 80.5 50.8 C 80.5 50.9 80.4 50.9 80.4 51.0 C 80.3 51.1 80.2 51.2 80.1 51.3 C 80.1 51.4 80.0 51.4 80.0 51.5 C 79.9 51.6 79.7 51.7 79.6 51.9 C 79.6 51.9 79.5 51.9 79.5 52.0 C 79.3 52.1 79.2 52.2 79.0 52.4 C 78.9 52.4 78.8 52.4 78.8 52.5 C 78.6 52.6 78.5 52.7 78.3 52.8 C 78.2 52.8 78.1 52.8 78.1 52.9 C 77.9 53.0 77.7 53.1 77.5 53.1 C 77.4 53.2 77.4 53.2 77.3 53.2 C 77.3 53.2 77.3 53.2 77.2 53.2 C 77.2 53.3 77.1 53.3 77.0 53.3 C 76.8 53.4 76.5 53.5 76.2 53.6 C 76.1 53.6 75.9 53.6 75.8 53.7 C 75.5 53.7 75.2 53.8 75.0 53.9 C 74.9 53.9 74.8 53.9 74.7 53.9 C 74.6 53.9 74.6 53.9 74.5 53.9 C 74.3 54.0 74.1 54.0 73.9 54.0 C 73.7 54.1 73.5 54.1 73.3 54.1 C 73.1 54.1 72.9 54.2 72.6 54.2 C 72.5 54.2 72.4 54.2 72.2 54.2 C 72.1 54.2 72.0 54.2 72.0 54.2 C 71.8 54.2 71.6 54.2 71.4 54.2 C 71.2 54.3 70.9 54.3 70.6 54.3 C 70.4 54.3 70.2 54.3 70.0 54.3 C 69.9 54.3 69.8 54.3 69.7 54.3 C 69.5 54.3 69.3 54.3 69.2 54.3 C 69.0 54.3 68.8 54.3 68.6 54.2 C 68.3 54.2 68.0 54.2 67.6 54.2 C 67.4 54.2 67.3 54.2 67.1 54.2 C 67.1 54.2 67.0 54.2 67.0 54.2 C 66.5 54.1 66.0 54.1 65.6 54.0 C 65.5 54.0 65.5 54.0 65.4 54.0 C 65.0 54.0 64.6 53.9 64.1 53.9 C 64.0 53.9 63.9 53.9 63.8 53.8 C 63.3 53.8 62.8 53.7 62.3 53.6 C 62.1 53.6 62.0 53.6 61.8 53.6 C 61.5 53.5 61.2 53.5 60.9 53.4 C 60.9 53.4 60.9 53.4 60.8 53.4 C 60.3 53.3 59.8 53.2 59.4 53.1 C 59.3 53.1 59.2 53.1 59.2 53.1 C 58.6 53.0 58.0 52.9 57.5 52.7 C 57.5 52.7 57.4 52.7 57.4 52.7 C 57.3 52.7 57.2 52.7 57.1 52.7 C 56.6 52.6 56.1 52.4 55.6 52.3 C 55.4 52.3 55.2 52.2 55.0 52.2 C 54.5 52.1 54.1 52.0 53.7 51.8 C 53.5 51.8 53.4 51.8 53.3 51.7 C 53.2 51.7 53.2 51.7 53.1 51.7 C 52.3 51.5 51.5 51.3 50.7 51.0 C 50.5 51.0 50.4 50.9 50.2 50.9 C 49.4 50.6 48.6 50.4 47.7 50.1 C 47.7 50.1 47.7 50.1 47.7 50.1 C 47.6 50.1 47.5 50.1 47.5 50.0 C 46.9 49.8 46.3 49.7 45.7 49.4 C 45.5 49.4 45.3 49.3 45.1 49.2 C 44.5 49.0 43.9 48.8 43.4 48.6 C 43.2 48.6 43.1 48.6 43.0 48.5 C 42.3 48.3 41.6 48.0 41.0 47.7 C 40.8 47.7 40.6 47.6 40.5 47.5 C 39.9 47.3 39.4 47.1 38.9 46.9 C 38.7 46.8 38.5 46.8 38.3 46.7 C 38.2 46.6 38.1 46.6 38.0 46.5 C 38.0 46.5 38.0 46.5 38.0 46.5 C 38.0 46.5 38.0 46.5 38.0 46.5 C 37.5 46.4 37.1 46.2 36.7 46.0 C 36.5 45.9 36.4 45.9 36.2 45.8 C 35.5 45.5 34.8 45.2 34.1 44.9 C 34.0 44.8 33.8 44.7 33.7 44.7 C 33.1 44.4 32.6 44.2 32.1 43.9 C 31.8 43.8 31.6 43.7 31.4 43.6 C 30.9 43.4 30.5 43.2 30.1 42.9 C 30.0 42.9 29.8 42.8 29.7 42.8 C 29.6 42.7 29.5 42.7 29.4 42.6 C 28.7 42.2 28.0 41.9 27.3 41.5 C 27.2 41.5 27.1 41.4 27.1 41.4 C 26.3 41.0 25.6 40.6 24.9 40.2 C 24.8 40.1 24.7 40.1 24.6 40.0 C 24.5 39.9 24.3 39.9 24.2 39.8 C 23.8 39.6 23.5 39.4 23.2 39.2 C 22.9 39.0 22.7 38.9 22.5 38.7 C 22.1 38.5 21.8 38.3 21.5 38.1 C 21.3 38.0 21.2 37.9 21.0 37.8 C 20.9 37.8 20.8 37.7 20.8 37.7 C 20.5 37.5 20.3 37.4 20.0 37.2 C 19.8 37.0 19.5 36.9 19.3 36.7 C 19.0 36.5 18.8 36.4 18.6 36.2 C 18.4 36.1 18.3 36.0 18.1 35.9 C 18.0 35.8 17.9 35.8 17.8 35.7 C 17.6 35.6 17.4 35.4 17.3 35.3 C 17.0 35.1 16.7 34.9 16.5 34.7 C 16.3 34.6 16.1 34.5 16.0 34.3 C 15.9 34.2 15.8 34.2 15.7 34.1 C 15.5 34.0 15.4 33.9 15.2 33.7 C 15.0 33.6 14.9 33.5 14.7 33.4 C 14.5 33.1 14.2 32.9 14.0 32.7 C 13.8 32.6 13.7 32.5 13.6 32.4 C 13.6 32.4 13.5 32.3 13.5 32.3 C 13.2 32.0 12.8 31.7 12.5 31.4 C 12.2 31.1 11.9 30.9 11.6 30.6 C 11.6 30.6 11.6 30.5 11.6 30.5 C 11.5 30.5 11.4 30.4 11.4 30.3 C 11.1 30.1 10.9 29.9 10.8 29.7 C 10.7 29.6 10.6 29.5 10.5 29.4 C 10.3 29.2 10.1 29.0 10.0 28.9 C 10.0 28.8 9.9 28.8 9.9 28.7 C 9.8 28.7 9.8 28.6 9.7 28.6 C 9.6 28.3 9.4 28.1 9.2 27.9 C 9.2 27.8 9.1 27.7 9.0 27.6 C 8.8 27.4 8.7 27.2 8.5 26.9 C 8.5 26.9 8.4 26.8 8.4 26.8 C 8.4 26.8 8.4 26.8 8.4 26.8 C 8.4 26.7 8.4 26.7 8.3 26.7 C 8.2 26.5 8.1 26.3 8.0 26.1 C 8.0 26.1 7.9 26.0 7.9 25.9 C 7.8 25.8 7.7 25.6 7.6 25.5 C 7.6 25.4 7.6 25.3 7.5 25.3 C 7.5 25.1 7.4 25.0 7.3 24.8 C 7.3 24.8 7.3 24.7 7.3 24.7 C 7.3 24.7 7.3 24.6 7.3 24.6 C 7.2 24.4 7.1 24.3 7.1 24.1 C 7.0 24.0 7.0 24.0 7.0 23.9 C 7.0 23.8 6.9 23.6 6.9 23.5 C 6.9 23.4 6.9 23.3 6.9 23.3 C 6.8 23.2 6.8 23.0 6.8 22.9 C 6.8 22.8 6.8 22.8 6.8 22.7 C 6.8 22.6 6.8 22.5 6.8 22.4 C 6.8 22.3 6.8 22.2 6.8 22.2 C 6.8 22.0 6.8 21.9 6.8 21.8 C 6.8 21.8 6.8 21.7 6.8 21.6 C 6.8 21.5 6.8 21.4 6.9 21.3 C 6.9 21.2 6.9 21.2 6.9 21.1 C 6.9 21.0 7.0 20.8 7.0 20.7 L 7.0 20.7 L 8.2 17.7 L 9.6 14.2 L 9.6 14.2 C 9.3 14.2 9.1 14.3 8.9 14.3 C 8.5 14.4 8.2 14.4 7.8 14.5 C 7.8 14.5 7.8 14.5 7.8 14.5 C 7.4 14.6 7.1 14.7 6.8 14.8 C 6.7 14.8 6.6 14.8 6.5 14.8 C 6.2 14.9 5.9 15.0 5.6 15.1 C 5.6 15.2 5.5 15.2 5.4 15.2 C 5.2 15.3 5.0 15.4 4.8 15.5 C 4.7 15.6 4.6 15.6 4.5 15.7 C 4.3 15.8 4.1 15.9 3.9 16.0 C 3.9 16.0 3.8 16.1 3.8 16.1 C 3.5 16.2 3.3 16.4 3.1 16.6 C 3.1 16.6 3.0 16.6 3.0 16.7 C 2.9 16.8 2.7 17.0 2.6 17.1 C 2.5 17.2 2.5 17.2 2.4 17.3 C 2.3 17.4 2.2 17.6 2.1 17.7 C 2.1 17.8 2.0 17.8 2.0 17.9 C 1.9 18.1 1.8 18.3 1.7 18.5 L 6.6 6.4 C 6.6 6.2 6.7 6.0 6.9 5.8 C 6.9 5.7 6.9 5.6 7.0 5.6 C 7.1 5.4 7.2 5.3 7.3 5.2 C 7.3 5.1 7.4 5.0 7.4 5.0 C 7.6 4.8 7.7 4.7 7.9 4.5 C 7.9 4.5 7.9 4.5 8.0 4.4 C 8.2 4.3 8.4 4.1 8.6 4.0 C 8.7 3.9 8.8 3.9 8.8 3.8 C 9.0 3.7 9.2 3.6 9.4 3.5 C 9.5 3.5 9.5 3.4 9.6 3.4 C 9.8 3.3 10.1 3.2 10.3 3.1 C 10.4 3.1 10.4 3.0 10.5 3.0 C 10.5 3.0 10.6 3.0 10.6 3.0 C 10.9 2.9 11.1 2.8 11.4 2.7 C 11.5 2.7 11.6 2.7 11.6 2.6 C 12.0 2.5 12.3 2.5 12.6 2.4 C 12.6 2.4 12.7 2.4 12.7 2.4 C 13.0 2.3 13.2 2.2 13.5 2.2 C 13.6 2.2 13.7 2.2 13.7 2.2 C 14.0 2.1 14.2 2.1 14.4 2.1 C 14.7 2.0 14.9 2.0 15.1 2.0 C 15.4 1.9 15.6 1.9 15.9 1.9 C 16.0 1.9 16.2 1.9 16.4 1.9 C 16.4 1.9 16.5 1.9 16.6 1.9 C 16.8 1.8 17.1 1.8 17.3 1.8 C 17.6 1.8 17.9 1.8 18.2 1.8 C 18.4 1.8 18.6 1.8 18.8 1.8 C 19.0 1.8 19.1 1.8 19.3 1.8 C 19.5 1.8 19.6 1.8 19.8 1.8 C 20.0 1.8 20.2 1.8 20.5 1.8 C 20.8 1.8 21.2 1.9 21.6 1.9 C 21.8 1.9 22.0 1.9 22.2 1.9 C 22.2 1.9 22.3 1.9 22.3 1.9 C 22.9 2.0 23.4 2.0 24.0 2.1 C 24.0 2.1 24.1 2.1 24.1 2.1 C 24.6 2.1 25.1 2.2 25.6 2.2 C 25.8 2.3 25.9 2.3 26.0 2.3 C 26.6 2.4 27.2 2.4 27.8 2.5 C 28.0 2.6 28.2 2.6 28.4 2.6 C 28.7 2.7 29.0 2.7 29.3 2.8 C 29.4 2.8 29.5 2.8 29.5 2.8 C 29.9 2.9 30.2 3.0 30.6 3.0 C 30.9 3.1 31.2 3.1 31.5 3.2 C 31.9 3.3 32.2 3.3 32.6 3.4 C 32.8 3.5 33.1 3.5 33.3 3.6 C 33.4 3.6 33.4 3.6 33.5 3.6 C 34.1 3.7 34.8 3.9 35.4 4.0 C 35.5 4.1 35.6 4.1 35.7 4.1 C 36.4 4.3 37.2 4.5 37.9 4.7 C 38.0 4.7 38.0 4.7 38.0 4.7 C 38.1 4.7 38.2 4.7 38.3 4.8 C 39.2 5.0 40.0 5.2 40.9 5.5 C 41.1 5.5 41.3 5.6 41.4 5.6 C 42.4 5.9 43.3 6.2 44.2 6.5 C 44.3 6.5 44.4 6.5 44.5 6.6 C 44.6 6.6 44.8 6.7 44.9 6.7 C 45.5 6.9 46.1 7.1 46.7 7.3 C 46.9 7.4 47.2 7.5 47.4 7.6 C 48.1 7.8 48.7 8.0 49.3 8.2 C 49.5 8.3 49.7 8.3 49.8 8.4 C 50.6 8.7 51.4 9.0 52.2 9.3 C 52.4 9.4 52.6 9.4 52.8 9.5 C 53.4 9.8 54.0 10.0 54.6 10.2 C 54.9 10.3 55.1 10.5 55.4 10.6 C 55.9 10.8 56.5 11.0 57.0 11.3 C 57.3 11.4 57.5 11.5 57.8 11.6 C 58.5 11.9 59.2 12.2 60.0 12.5 C 60.0 12.6 60.0 12.6 60.1 12.6 C 60.8 12.9 61.6 13.3 62.4 13.7 C 62.6 13.8 62.8 13.9 63.0 14.0 C 63.6 14.2 64.1 14.5 64.6 14.8 C 64.8 14.8 64.9 14.9 65.0 15.0 C 65.1 15.0 65.2 15.1 65.3 15.1 C 66.2 15.6 67.1 16.0 67.9 16.5 C 68.0 16.5 68.1 16.6 68.3 16.7 C 69.0 17.1 69.8 17.5 70.6 17.9 C 70.7 18.0 70.8 18.1 70.9 18.1 C 71.0 18.2 71.0 18.2 71.1 18.2 C 71.6 18.6 72.2 18.9 72.7 19.2 C 72.8 19.3 72.9 19.3 73.0 19.4 C 73.6 19.8 74.3 20.1 74.9 20.5 C 74.9 20.6 75.0 20.6 75.0 20.6 C 75.2 20.7 75.4 20.9 75.6 21.0 C 75.9 21.2 76.2 21.4 76.5 21.6 C 76.8 21.8 77.0 21.9 77.2 22.1 C 77.5 22.3 77.8 22.5 78.1 22.7 C 78.2 22.7 78.3 22.8 78.3 22.8 C 78.5 23.0 78.7 23.1 78.9 23.3 C 79.1 23.4 79.4 23.6 79.6 23.7 C 79.8 23.9 80.1 24.1 80.4 24.3 C 80.6 24.5 80.8 24.6 81.0 24.8 C 81.0 24.8 81.1 24.9 81.1 24.9 C 81.4 25.1 81.6 25.2 81.8 25.4 C 82.0 25.6 82.1 25.7 82.3 25.8 C 82.6 26.1 82.9 26.3 83.1 26.5 C 83.3 26.7 83.4 26.8 83.6 26.9 C 83.6 26.9 83.6 26.9 83.6 26.9 C 84.0 27.3 84.4 27.6 84.7 28.0 C 85.1 28.3 85.4 28.6 85.8 28.9 C 85.8 29.0 85.8 29.0 85.8 29.0 C 85.9 29.1 86.0 29.2 86.1 29.2 C 86.3 29.5 86.5 29.7 86.7 29.9 C 86.9 30.1 87.0 30.2 87.1 30.3 C 87.3 30.5 87.4 30.7 87.6 30.9 C 87.7 31.0 87.7 31.0 87.7 31.1 C 87.8 31.1 87.9 31.2 87.9 31.3 C 88.1 31.5 88.3 31.7 88.5 32.0 C 88.6 32.1 88.7 32.2 88.7 32.3 C 88.9 32.6 89.1 32.8 89.3 33.1 C 89.4 33.2 89.4 33.2 89.4 33.2 C 89.4 33.3 89.4 33.3 89.4 33.3 C 89.5 33.3 89.5 33.4 89.5 33.4 C 89.7 33.6 89.8 33.8 89.9 34.0 C 89.9 34.1 90.0 34.2 90.0 34.3 C 90.1 34.4 90.2 34.6 90.3 34.8 C 90.3 34.8 90.4 34.9 90.4 35.0 C 90.5 35.2 90.6 35.4 90.7 35.6 C 90.7 35.6 90.7 35.6 90.7 35.7 C 90.7 35.7 90.7 35.7 90.8 35.7 C 90.8 36.0 90.9 36.2 91.0 36.4 C 91.0 36.4 91.0 36.5 91.0 36.5 C 91.1 36.7 91.1 36.9 91.2 37.1 C 91.2 37.1 91.2 37.2 91.2 37.3 " fill="#F38907"></path><path d="M 27.5 21.0 L 28.0 21.1 L 29.5 17.4 L 28.8 17.3 L 28.1 17.1 C 27.8 17.1 27.5 17.0 27.2 17.0 C 26.9 16.9 26.5 16.8 26.2 16.8 L 25.7 16.7 C 25.2 16.6 24.6 16.6 24.1 16.5 C 23.5 16.4 23.0 16.4 22.4 16.3 L 22.3 16.3 C 21.8 16.2 21.2 16.2 20.7 16.1 L 20.2 16.1 C 19.9 16.1 19.5 16.1 19.2 16.1 C 19.1 16.1 18.7 16.1 18.7 16.1 C 18.4 16.0 18.1 16.0 17.8 16.0 C 17.6 16.0 17.4 16.0 17.2 16.0 C 16.9 16.1 16.6 16.1 16.4 16.1 C 16.4 16.1 16.0 16.1 15.8 16.1 C 15.6 16.1 15.4 16.1 15.1 16.1 L 13.7 16.3 L 14.5 17.2 C 14.6 17.3 14.7 17.5 14.9 17.7 C 14.9 17.7 15.1 17.9 15.2 18.0 C 15.4 18.2 15.6 18.4 15.8 18.6 L 16.0 18.9 C 16.3 19.2 16.6 19.5 17.0 19.7 C 17.3 20.1 17.7 20.4 18.1 20.7 L 18.4 21.0 C 18.7 21.3 19.0 21.5 19.2 21.7 L 19.7 22.1 C 19.9 22.3 20.2 22.5 20.5 22.7 C 20.6 22.8 20.8 22.9 21.0 23.1 C 21.2 23.3 21.5 23.5 21.8 23.7 C 21.9 23.8 22.1 23.9 22.3 24.1 C 22.6 24.2 22.8 24.4 23.1 24.6 C 23.3 24.8 23.6 24.9 23.8 25.1 C 24.0 25.2 24.3 25.4 24.5 25.5 L 25.4 26.2 Z M 77.8 23.2 L 78.0 23.3 C 78.1 23.4 79.0 24.1 79.2 24.2 C 79.4 24.4 79.7 24.6 79.9 24.7 L 80.1 24.9 C 80.3 25.0 80.5 25.2 80.6 25.3 L 80.8 25.4 C 80.9 25.5 81.0 25.6 81.2 25.7 L 81.9 26.3 C 82.2 26.5 82.4 26.7 82.7 27.0 L 83.2 27.4 C 83.6 27.7 84.0 28.1 84.3 28.4 C 84.5 28.6 84.7 28.7 84.9 28.9 C 82.4 32.9 80.0 36.9 77.7 41.0 L 77.5 40.8 C 77.3 40.6 77.1 40.4 76.9 40.2 L 76.6 39.9 C 76.3 39.6 76.0 39.3 75.7 39.0 C 75.4 38.7 75.0 38.4 74.7 38.1 L 74.2 37.7 C 74.0 37.5 73.8 37.4 73.6 37.2 L 73.0 36.8 C 72.8 36.6 72.6 36.4 72.4 36.3 C 72.3 36.2 71.7 35.7 71.7 35.7 C 71.5 35.6 71.3 35.5 71.2 35.3 C 71.0 35.2 70.5 34.9 70.5 34.9 C 70.3 34.7 70.1 34.6 69.9 34.4 C 69.6 34.2 69.4 34.0 69.1 33.9 L 68.4 33.4 L 66.4 38.4 L 65.9 38.3 L 64.5 41.7 L 65.6 41.9 C 65.9 41.9 66.3 42.0 66.6 42.0 L 67.1 42.1 C 67.6 42.2 68.1 42.3 68.6 42.3 C 69.1 42.4 69.7 42.5 70.3 42.5 L 70.4 42.5 C 70.9 42.6 71.4 42.6 72.0 42.7 L 72.5 42.7 C 72.8 42.7 73.1 42.7 73.5 42.7 C 73.6 42.7 74.0 42.7 74.0 42.7 C 74.3 42.8 74.6 42.8 74.9 42.8 C 75.1 42.8 75.3 42.8 75.5 42.8 C 75.8 42.7 76.0 42.7 76.3 42.7 L 76.7 42.7 C 74.6 46.3 72.6 50.0 70.7 53.7 C 70.7 53.7 70.6 53.7 70.6 53.7 C 70.4 53.7 70.2 53.7 70.0 53.7 L 69.7 53.7 L 68.6 53.6 C 68.3 53.6 68.0 53.6 67.6 53.6 L 67.0 53.5 C 66.6 53.5 66.1 53.5 65.6 53.4 L 65.5 53.4 C 65.1 53.4 64.6 53.3 64.2 53.3 L 63.8 53.2 C 63.4 53.2 62.9 53.1 62.4 53.0 L 61.7 52.9 C 61.5 52.9 61.3 52.8 61.0 52.8 L 60.9 52.8 C 60.5 52.7 60.0 52.6 59.5 52.5 L 59.3 52.5 C 58.7 52.4 58.2 52.3 57.6 52.1 L 57.2 52.1 C 56.7 52.0 56.2 51.8 55.7 51.7 L 55.1 51.6 C 54.7 51.5 54.3 51.4 53.8 51.2 L 53.4 51.1 L 53.3 51.1 C 52.5 50.9 51.7 50.7 50.9 50.4 L 50.4 50.3 C 49.6 50.1 48.7 49.8 47.9 49.5 L 47.6 49.5 C 47.1 49.3 46.5 49.1 45.9 48.9 L 45.3 48.7 C 44.7 48.5 44.1 48.3 43.6 48.1 L 43.2 47.9 C 42.5 47.7 41.9 47.4 41.2 47.2 L 40.7 47.0 C 40.1 46.8 39.6 46.6 39.1 46.3 L 38.2 46.0 C 37.9 45.9 37.6 45.7 37.3 45.6 L 36.4 45.2 C 35.7 44.9 35.1 44.6 34.4 44.3 L 33.9 44.1 C 33.4 43.9 32.9 43.6 32.3 43.4 L 31.6 43.0 C 31.2 42.8 30.8 42.6 30.3 42.4 L 30.0 42.2 L 29.7 42.1 C 29.0 41.7 28.3 41.3 27.6 41.0 L 27.4 40.9 C 26.6 40.5 25.9 40.0 25.2 39.6 L 24.9 39.5 L 24.5 39.2 C 24.2 39.0 23.8 38.8 23.5 38.6 C 23.2 38.5 23.0 38.4 22.8 38.2 C 22.4 38.0 22.1 37.8 21.8 37.6 L 21.3 37.3 L 21.1 37.2 C 20.9 37.0 20.4 36.7 20.4 36.7 C 20.1 36.5 19.9 36.4 19.6 36.2 C 19.4 36.0 18.5 35.4 18.5 35.4 C 18.5 35.4 17.8 34.9 17.6 34.8 C 17.4 34.6 17.1 34.4 16.9 34.2 C 16.7 34.1 16.0 33.6 16.0 33.6 L 15.1 32.9 C 14.9 32.7 14.6 32.5 14.4 32.2 L 13.9 31.9 C 13.6 31.6 13.2 31.3 12.9 31.0 C 12.6 30.7 12.3 30.4 12.0 30.1 L 11.8 29.9 C 11.6 29.7 11.4 29.5 11.2 29.3 L 10.9 29.0 C 10.8 28.8 10.6 28.6 10.5 28.5 L 10.3 28.3 L 10.2 28.2 C 10.0 28.0 9.9 27.8 9.7 27.6 L 9.5 27.3 C 9.3 27.0 9.2 26.8 9.0 26.6 L 8.9 26.5 L 8.8 26.3 C 8.7 26.2 8.6 26.0 8.5 25.8 L 8.5 25.8 C 12.1 17.8 15.9 9.9 20.3 2.4 C 20.3 2.4 20.4 2.4 20.4 2.4 C 20.8 2.4 21.2 2.5 21.6 2.5 L 22.3 2.5 C 22.8 2.6 23.4 2.6 24.0 2.7 L 24.1 2.7 C 24.5 2.7 25.1 2.8 25.6 2.9 L 26.0 2.9 C 26.5 3.0 27.1 3.1 27.7 3.1 C 27.7 3.1 28.9 3.3 29.2 3.4 L 29.4 3.4 C 29.8 3.5 30.1 3.6 30.4 3.6 L 30.5 3.6 C 30.5 3.6 31.1 3.7 31.4 3.8 C 31.7 3.9 32.1 3.9 32.5 4.0 L 33.2 4.2 L 33.4 4.2 C 34.0 4.3 34.6 4.5 35.3 4.6 L 35.6 4.7 C 36.3 4.9 37.0 5.1 37.8 5.2 L 38.2 5.4 C 39.0 5.6 39.9 5.8 40.7 6.1 L 41.3 6.2 C 42.2 6.5 43.1 6.8 44.1 7.1 L 44.3 7.1 L 44.8 7.3 C 45.3 7.5 45.9 7.7 46.5 7.9 L 47.2 8.1 C 47.8 8.3 48.5 8.6 49.1 8.8 L 49.6 9.0 C 50.4 9.3 51.2 9.6 52.0 9.9 L 52.5 10.1 C 53.2 10.3 53.8 10.6 54.4 10.8 L 55.1 11.1 C 55.7 11.4 56.3 11.6 56.8 11.8 L 57.5 12.1 C 58.3 12.5 59.0 12.8 59.7 13.1 L 59.8 13.2 C 60.6 13.5 61.3 13.9 62.1 14.2 L 62.8 14.5 C 63.3 14.8 63.8 15.1 64.4 15.3 L 64.8 15.5 L 65.0 15.7 C 65.9 16.1 66.8 16.6 67.6 17.0 L 68.0 17.2 C 68.7 17.6 69.5 18.0 70.3 18.5 L 70.6 18.6 L 70.8 18.8 C 71.3 19.1 71.9 19.4 72.4 19.7 L 72.7 19.9 C 73.3 20.3 73.9 20.7 74.6 21.1 L 75.4 21.6 C 75.6 21.8 75.9 21.9 76.2 22.1 C 76.4 22.2 77.0 22.7 77.0 22.7 C 77.3 22.9 77.5 23.0 77.8 23.2 " fill="#DC7601"></path><path d="M 68.0 17.2 C 68.7 17.6 69.5 18.0 70.3 18.5 L 70.6 18.6 L 70.8 18.8 C 71.3 19.1 71.9 19.4 72.4 19.7 L 72.7 19.9 C 73.3 20.3 73.9 20.7 74.6 21.0 L 75.4 21.6 C 75.7 21.8 75.9 21.9 76.2 22.1 C 76.3 22.2 76.4 22.2 76.5 22.3 C 74.2 26.3 71.8 30.2 69.4 34.1 C 69.3 34.0 69.2 33.9 69.1 33.9 L 68.4 33.4 L 66.4 38.3 L 65.9 38.3 L 64.5 41.7 L 64.8 41.7 C 62.8 45.0 60.7 48.3 58.6 51.6 C 58.5 51.8 58.3 52.0 58.2 52.3 C 58.0 52.2 57.8 52.2 57.6 52.1 L 57.2 52.1 C 56.7 52.0 56.2 51.8 55.7 51.7 L 55.1 51.6 C 54.7 51.5 54.3 51.4 53.8 51.2 L 53.4 51.1 L 53.3 51.1 C 52.5 50.9 51.7 50.7 50.9 50.4 L 50.4 50.3 C 49.6 50.1 48.7 49.8 47.9 49.5 L 47.6 49.5 C 47.1 49.3 46.5 49.1 45.9 48.9 L 45.3 48.7 C 44.7 48.5 44.1 48.3 43.6 48.1 L 43.2 47.9 C 42.5 47.7 41.9 47.4 41.2 47.2 L 40.7 47.0 C 40.1 46.8 39.6 46.6 39.1 46.3 L 38.2 46.0 C 37.9 45.9 37.6 45.7 37.3 45.6 L 36.4 45.2 C 35.7 44.9 35.1 44.6 34.4 44.3 L 33.9 44.1 C 33.4 43.9 32.9 43.6 32.3 43.4 L 31.6 43.0 C 31.2 42.8 30.8 42.6 30.3 42.4 L 30.0 42.2 L 29.7 42.1 C 29.0 41.7 28.3 41.3 27.6 41.0 L 27.4 40.9 C 26.6 40.5 25.9 40.0 25.2 39.6 L 24.9 39.5 L 24.5 39.2 C 24.2 39.0 23.8 38.8 23.5 38.6 C 23.2 38.5 23.0 38.4 22.8 38.2 C 22.4 38.0 22.1 37.8 21.8 37.6 L 21.3 37.3 L 21.1 37.2 C 20.9 37.0 20.4 36.7 20.4 36.7 C 20.1 36.5 19.9 36.4 19.6 36.2 C 19.4 36.0 18.5 35.4 18.5 35.4 C 18.5 35.4 17.8 34.9 17.6 34.8 C 17.4 34.6 17.1 34.4 16.9 34.2 C 16.7 34.1 16.0 33.6 16.0 33.6 L 15.4 33.1 C 17.0 29.6 18.8 26.2 20.7 22.9 C 20.8 22.9 20.9 23.0 21.0 23.1 C 21.2 23.3 21.5 23.5 21.8 23.7 C 21.9 23.8 22.1 23.9 22.3 24.1 C 22.6 24.2 22.8 24.4 23.1 24.6 C 23.3 24.8 23.6 24.9 23.8 25.1 C 24.0 25.2 24.3 25.4 24.5 25.5 L 25.4 26.2 L 27.5 21.0 L 28.0 21.1 L 29.5 17.4 L 28.8 17.3 L 28.1 17.1 C 27.8 17.1 27.5 17.0 27.2 17.0 C 26.9 16.9 26.5 16.8 26.2 16.8 L 25.7 16.7 C 25.3 16.6 24.9 16.6 24.6 16.5 C 27.3 12.2 30.3 8.1 33.6 4.2 C 34.1 4.4 34.7 4.5 35.3 4.6 L 35.6 4.7 C 36.3 4.9 37.0 5.1 37.8 5.3 L 38.2 5.4 C 39.0 5.6 39.9 5.8 40.7 6.1 L 41.3 6.2 C 42.2 6.5 43.1 6.8 44.1 7.1 L 44.3 7.1 L 44.8 7.3 C 45.3 7.5 45.9 7.7 46.5 7.9 L 47.2 8.1 C 47.9 8.3 48.5 8.6 49.1 8.8 L 49.6 9.0 C 50.4 9.3 51.2 9.6 52.0 9.9 L 52.5 10.1 C 53.2 10.3 53.8 10.6 54.4 10.8 L 55.1 11.1 C 55.7 11.4 56.3 11.6 56.8 11.8 L 57.5 12.1 C 58.3 12.5 59.0 12.8 59.7 13.1 L 59.8 13.2 C 60.6 13.5 61.3 13.9 62.1 14.2 L 62.8 14.5 C 63.3 14.8 63.8 15.1 64.4 15.3 L 64.8 15.5 L 65.0 15.7 C 65.9 16.1 66.8 16.6 67.6 17.0 Z M 68.0 17.2 " fill="#D66800"></path><path d="M 62.9 38.6 C 66.2 42.1 65.7 44.4 59.7 43.6 C 48.3 42.1 39.2 33.3 33.1 32.5 C 30.9 32.2 30.8 33.2 32.5 34.7 C 33.9 36.0 35.2 36.9 36.8 37.6 C 37.1 37.6 37.3 37.7 37.4 37.7 L 40.2 38.1 L 42.7 40.3 L 35.4 39.7 C 33.3 38.2 30.9 36.5 29.0 34.9 L 24.4 34.5 L 22.2 32.5 L 26.8 33.0 C 23.0 29.4 23.2 27.1 28.9 27.8 C 40.9 29.4 49.4 38.1 56.2 39.0 C 58.7 39.3 58.3 38.2 56.8 36.8 C 54.4 34.5 52.1 33.3 51.8 33.1 C 50.8 32.9 49.7 32.7 49.6 32.7 C 49.0 32.6 47.4 32.4 47.3 32.4 L 44.7 30.2 L 52.3 30.8 C 52.6 30.9 56.7 33.2 60.7 36.6 L 64.5 37.0 L 66.8 39.0 L 62.9 38.6 M 12.5 31.4 C 23.5 41.6 46.4 51.6 63.8 53.8 C 81.1 56.1 86.3 49.6 75.3 39.5 C 64.3 29.4 41.4 19.3 24.0 17.1 C 6.7 14.9 1.5 21.3 12.5 31.4 " fill="#FFE679"></path><path d="M 49.6 40.5 C 52.7 41.9 56.1 43.1 59.7 43.6 C 65.7 44.4 66.2 42.1 62.9 38.6 L 66.8 39.0 L 64.5 37.0 L 60.7 36.6 C 56.7 33.2 52.6 30.9 52.3 30.8 L 44.7 30.2 L 47.3 32.4 C 47.4 32.4 49.0 32.6 49.6 32.7 C 49.7 32.7 50.8 32.9 51.8 33.1 C 52.1 33.3 54.4 34.5 56.8 36.8 C 58.3 38.2 58.7 39.3 56.2 39.0 C 50.1 38.2 42.6 31.1 32.6 28.6 C 25.6 24.2 18.3 20.5 10.6 17.7 C 13.5 16.6 18.0 16.3 24.0 17.1 C 41.4 19.3 64.3 29.4 75.3 39.5 C 85.9 49.3 81.4 55.6 65.5 54.0 C 60.4 49.3 55.1 44.8 49.6 40.5 " fill="#FFD93A"></path><path d="M 75.3 39.5 C 86.3 49.6 81.1 56.1 63.8 53.8 C 46.4 51.6 23.5 41.6 12.5 31.4 C 1.5 21.3 6.7 14.9 24.0 17.1 C 41.4 19.3 64.3 29.4 75.3 39.5 M 7.9 30.8 C 20.5 42.5 46.8 54.0 66.6 56.5 C 86.5 59.1 92.4 51.7 79.9 40.1 C 67.3 28.5 41.0 17.0 21.2 14.4 C 1.3 11.9 -4.6 19.2 7.9 30.8 " fill="#FFF1B4"></path><path d="M 68.2 54.8 C 74.4 55.1 78.7 54.0 80.6 51.7 C 81.8 50.3 82.0 48.4 81.2 46.4 C 80.4 44.2 78.6 41.7 75.7 39.0 C 64.7 28.8 41.5 18.7 24.1 16.5 C 16.0 15.4 10.2 16.3 7.6 18.8 C 6.2 18.2 4.7 17.7 3.3 17.2 C 5.9 14.7 12.3 13.9 21.1 15.0 C 40.8 17.6 67.0 29.0 79.5 40.5 C 82.6 43.4 84.6 46.1 85.4 48.4 C 86.1 50.3 86.0 52.0 84.9 53.2 C 82.9 55.8 77.4 56.8 69.8 56.2 C 69.2 55.8 68.7 55.3 68.2 54.8 " fill="#FCDE53"></path><path d="M 22.2 32.5 L 24.4 34.5 L 29.0 34.9 C 30.9 36.5 33.3 38.2 35.4 39.7 L 42.7 40.3 L 40.2 38.1 L 37.4 37.7 C 37.3 37.7 37.1 37.6 36.8 37.6 C 35.2 36.9 33.9 36.0 32.5 34.7 C 30.8 33.2 30.9 32.2 33.1 32.5 C 39.2 33.3 48.3 42.1 59.7 43.6 C 65.7 44.4 66.2 42.1 62.9 38.6 L 66.8 39.0 L 64.5 37.0 L 60.7 36.6 C 56.7 33.2 52.6 30.9 52.3 30.8 L 44.7 30.2 L 47.3 32.4 C 47.4 32.4 49.0 32.6 49.6 32.7 C 49.7 32.7 50.8 32.9 51.8 33.1 C 52.1 33.3 54.4 34.5 56.8 36.8 C 58.3 38.2 58.7 39.3 56.2 39.0 C 49.4 38.1 40.9 29.4 28.9 27.8 C 23.2 27.1 23.0 29.4 26.8 33.0 Z M 22.2 32.5 " fill="#FFF3A9"></path><path d="M 43.0 36.3 C 41.2 34.4 39.4 32.5 37.4 30.8 C 40.5 32.1 43.4 33.7 46.0 35.2 C 49.8 37.4 53.1 39.2 56.1 39.6 C 57.3 39.8 58.0 39.6 58.4 39.1 C 58.5 39.0 58.7 38.6 58.5 38.0 C 58.4 37.5 57.9 36.9 57.2 36.3 C 54.6 33.8 52.1 32.6 52.0 32.6 L 52.0 32.6 L 51.9 32.5 C 51.1 32.3 50.0 32.1 49.7 32.1 C 49.2 32.0 48.2 31.9 47.6 31.8 L 46.6 31.0 L 52.2 31.4 C 53.0 31.9 56.7 34.0 60.3 37.1 L 60.4 37.2 L 64.2 37.6 L 64.9 38.2 L 61.3 37.8 L 62.4 39.0 C 63.3 40.0 63.9 40.8 64.2 41.5 C 64.4 42.2 64.2 42.4 64.1 42.5 C 63.9 42.8 63.0 43.4 59.8 43.0 C 53.4 42.2 47.9 39.1 43.0 36.3 " fill="#FFE061"></path><path d="M 61.3 36.4 C 57.3 33.0 53.1 30.7 52.9 30.6 L 47.7 30.2 L 46.3 29.0 L 53.9 29.6 C 54.1 29.7 58.2 32.0 62.2 35.4 L 66.0 35.8 L 68.3 37.8 L 65.9 37.5 L 65.1 36.8 Z M 61.3 36.4 " fill="#BE5D00"></path><path d="M 22.2 32.5 L 23.7 31.3 L 26.2 31.6 C 26.6 32.0 26.9 32.4 27.4 32.8 Z M 22.2 32.5 " fill="#BE5D00"></path><path d="M 14.0 30.2 C 25.0 40.4 47.9 50.4 65.3 52.6 C 73.0 53.6 78.4 52.9 80.9 50.9 C 78.9 53.6 73.3 54.8 64.3 53.6 C 47.0 51.4 24.1 41.4 13.1 31.2 C 7.0 25.6 5.9 21.1 9.0 18.6 C 7.2 21.3 8.7 25.3 14.0 30.2 " fill="#BE5D00"></path><path d="M 30.5 26.6 C 42.4 28.2 50.9 36.9 57.7 37.8 C 58.0 37.8 58.2 37.8 58.5 37.8 C 58.8 38.6 58.4 39.0 56.7 38.8 C 50.0 37.9 41.4 29.2 29.5 27.6 C 27.8 27.4 26.6 27.5 25.8 27.7 C 26.0 26.7 27.4 26.2 30.5 26.6 " fill="#BE5D00"></path><path d="M 65.4 42.2 C 65.7 41.3 64.9 40.0 63.4 38.4 L 65.4 38.6 C 66.7 40.3 66.8 41.6 65.4 42.2 " fill="#BE5D00"></path><path d="M 38.0 37.5 C 37.9 37.5 37.6 37.4 37.4 37.4 C 35.8 36.7 34.5 35.8 33.0 34.5 C 31.6 33.1 31.5 32.3 33.0 32.2 C 33.1 32.6 33.5 33.0 34.0 33.5 C 35.4 34.8 36.7 35.7 38.3 36.4 C 38.6 36.4 38.8 36.5 38.9 36.5 L 41.7 36.9 L 44.3 39.1 L 42.7 40.3 L 40.7 37.9 Z M 38.0 37.5 " fill="#BE5D00"></path></g></g></g></svg>