<?xml version="1.0" encoding="UTF-8"?><svg xmlns="http://www.w3.org/2000/svg" xmlns:xlink="http://www.w3.org/1999/xlink" clip-rule="evenodd" stroke-miterlimit="4.00" viewBox="0 0 130 138"><desc>SVG generated by Keynote</desc><defs></defs><g transform="matrix(1.00, 0.00, -0.00, -1.00, 0.0, 138.0)"><g><clipPath id="clip-343"><path d="M 1.2 1.4 L 128.3 1.4 L 128.3 136.5 L 1.2 136.5 Z M 1.2 1.4 "></path></clipPath><g clip-path="url(#clip-343)"><path d="M 66.4 56.2 C 66.4 56.3 66.4 56.3 66.4 56.3 C 66.4 56.3 66.4 56.3 66.4 56.2 C 66.1 56.7 65.7 57.1 65.3 57.5 C 64.7 58.2 64.2 58.8 63.6 59.5 C 63.6 59.5 63.5 59.6 63.5 59.7 C 63.1 60.2 62.7 60.6 62.3 61.2 C 62.3 61.3 62.2 61.3 62.2 61.4 C 62.0 61.7 61.8 62.0 61.6 62.3 C 61.5 62.4 61.5 62.5 61.4 62.6 C 61.2 62.9 61.1 63.2 60.9 63.6 C 60.9 63.6 60.9 63.6 60.9 63.7 C 60.8 63.8 60.8 64.0 60.7 64.1 C 60.6 64.3 60.5 64.5 60.4 64.7 C 60.4 64.8 60.4 64.9 60.4 64.9 C 60.3 65.2 60.2 65.5 60.1 65.7 C 60.1 65.8 60.0 66.0 60.0 66.1 C 59.9 66.3 59.9 66.6 59.8 66.8 C 59.8 67.0 59.8 67.2 59.8 67.3 C 59.7 67.6 59.7 67.8 59.7 68.0 C 59.6 68.2 59.6 68.5 59.6 68.7 C 59.6 68.9 59.6 69.1 59.6 69.3 C 59.6 69.8 59.6 70.4 59.7 70.9 C 59.7 71.3 59.7 71.6 59.8 71.9 C 59.8 72.1 59.8 72.2 59.8 72.3 C 59.8 72.4 59.9 72.4 59.9 72.5 C 59.9 72.8 60.0 73.2 60.1 73.5 C 60.1 73.7 60.2 73.9 60.2 74.1 C 60.3 74.4 60.4 74.7 60.5 74.9 C 60.5 75.1 60.6 75.4 60.7 75.6 C 60.8 75.9 60.9 76.1 61.0 76.4 C 61.0 76.6 61.1 76.8 61.2 77.0 C 61.5 77.7 61.7 78.4 62.1 79.1 C 62.3 79.6 62.6 80.1 62.8 80.6 C 62.9 80.7 63.0 80.8 63.0 80.9 C 63.0 81.0 63.1 81.0 63.1 81.0 C 63.6 80.4 64.1 79.8 64.7 79.2 C 65.4 78.5 66.1 77.7 66.7 76.9 C 66.8 76.9 66.8 76.8 66.9 76.8 C 67.2 76.3 67.6 75.8 67.9 75.4 C 68.0 75.3 68.0 75.2 68.1 75.1 C 68.3 74.8 68.6 74.4 68.8 74.0 C 68.8 74.0 68.8 74.0 68.8 74.0 C 69.0 73.6 69.2 73.3 69.3 73.0 C 69.4 72.8 69.5 72.7 69.5 72.5 C 69.6 72.3 69.7 72.1 69.8 72.0 C 69.8 71.8 69.9 71.5 70.0 71.3 C 70.0 71.2 70.1 71.1 70.1 70.9 C 70.2 70.6 70.3 70.3 70.4 70.0 C 70.4 69.9 70.4 69.9 70.4 69.9 C 70.5 69.5 70.5 69.1 70.6 68.7 C 70.6 68.3 70.6 67.9 70.6 67.4 C 70.6 67.4 70.6 67.4 70.6 67.4 C 70.7 66.8 70.6 66.3 70.6 65.8 C 70.6 65.5 70.5 65.3 70.5 65.0 C 70.5 64.8 70.4 64.7 70.4 64.5 C 70.4 64.2 70.3 63.8 70.2 63.5 C 70.2 63.3 70.2 63.2 70.1 63.1 C 70.0 62.6 69.9 62.1 69.7 61.6 C 69.7 61.5 69.6 61.4 69.6 61.2 C 69.5 60.9 69.3 60.5 69.2 60.1 C 68.9 59.4 68.6 58.8 68.3 58.1 C 68.1 57.6 67.8 57.1 67.6 56.6 C 67.5 56.5 67.4 56.3 67.3 56.1 C 67.2 55.9 67.1 55.8 67.0 55.6 C 67.0 55.6 67.0 55.6 66.9 55.6 C 66.9 55.7 66.8 55.8 66.7 55.9 C 66.6 56.0 66.5 56.1 66.4 56.2 M 78.7 92.4 C 78.8 92.5 79.0 92.5 79.1 92.5 C 79.8 92.6 80.5 92.7 81.3 92.7 C 81.5 92.7 81.6 92.7 81.8 92.7 C 81.8 92.7 81.8 92.7 81.8 92.7 L 79.8 89.1 L 76.4 91.9 C 76.5 92.0 76.6 92.0 76.7 92.0 C 77.4 92.2 78.1 92.3 78.7 92.4 M 44.5 40.7 L 44.3 40.9 L 47.9 47.5 L 52.5 43.8 C 52.4 43.7 52.4 43.7 52.4 43.7 C 51.7 43.5 51.0 43.3 50.3 43.2 C 50.2 43.2 50.0 43.2 49.9 43.1 C 49.3 43.0 48.8 43.0 48.2 42.9 C 48.0 42.9 47.8 42.9 47.6 42.8 C 47.0 42.8 46.3 42.8 45.6 42.8 Z M 30.2 49.2 C 30.3 49.1 30.3 49.1 30.3 49.1 C 30.4 49.0 30.5 48.9 30.6 48.7 C 30.6 48.7 30.6 48.7 30.6 48.7 C 30.8 48.6 31.0 48.4 31.3 48.1 C 31.3 48.1 31.3 48.0 31.4 48.0 C 31.5 47.9 31.6 47.8 31.8 47.7 L 39.9 41.1 L 37.7 36.8 L 50.7 26.3 L 55.1 25.4 L 58.5 32.3 C 59.2 32.2 59.9 32.3 60.6 32.3 C 60.8 32.3 61.0 32.4 61.2 32.4 C 61.7 32.4 62.3 32.5 62.9 32.6 C 63.0 32.6 63.1 32.7 63.3 32.7 C 64.0 32.8 64.6 33.0 65.3 33.2 C 65.5 33.2 65.6 33.3 65.8 33.4 C 66.3 33.5 66.9 33.7 67.4 33.9 C 67.5 34.0 67.6 34.0 67.7 34.1 C 67.8 34.1 67.9 34.1 68.0 34.2 C 68.3 34.3 68.6 34.5 69.0 34.6 C 69.1 34.7 69.3 34.8 69.5 34.9 C 69.5 34.9 69.6 34.9 69.7 35.0 C 69.8 35.1 70.0 35.2 70.1 35.3 C 70.3 35.4 70.5 35.5 70.7 35.6 C 70.9 35.7 71.0 35.7 71.1 35.8 C 71.2 35.9 71.4 36.0 71.5 36.1 C 71.6 36.1 71.7 36.2 71.8 36.3 C 72.1 36.5 72.4 36.7 72.7 36.9 C 72.7 36.9 72.7 36.9 72.8 36.9 C 72.8 37.0 72.8 37.0 72.9 37.0 C 73.1 37.2 73.3 37.4 73.5 37.5 C 73.7 37.7 74.0 37.9 74.2 38.1 C 74.2 38.1 74.2 38.1 74.2 38.1 C 74.2 38.1 74.3 38.1 74.3 38.1 C 74.5 38.3 74.7 38.6 75.0 38.8 C 75.2 39.0 75.4 39.1 75.6 39.3 C 75.6 39.4 75.6 39.4 75.6 39.4 C 75.6 39.4 75.6 39.4 75.6 39.4 C 75.8 39.6 76.1 39.8 76.3 40.1 C 76.5 40.3 76.7 40.5 76.9 40.8 C 76.9 40.8 76.9 40.8 76.9 40.8 C 76.9 40.8 76.9 40.8 76.9 40.8 C 77.1 41.0 77.3 41.3 77.5 41.5 C 77.7 41.7 77.9 42.0 78.1 42.2 C 78.1 42.3 78.1 42.3 78.1 42.3 C 78.1 42.3 78.1 42.3 78.1 42.3 C 78.4 42.6 78.6 42.9 78.8 43.2 C 78.9 43.4 79.0 43.6 79.1 43.7 C 79.2 43.8 79.3 43.9 79.3 44.0 C 79.4 44.1 79.4 44.2 79.5 44.2 C 79.7 44.6 80.0 45.1 80.2 45.5 C 80.2 45.5 80.2 45.6 80.3 45.6 C 80.3 45.8 80.4 45.9 80.5 46.1 C 80.7 46.4 80.9 46.8 81.0 47.1 C 81.1 47.3 81.2 47.4 81.3 47.6 C 81.6 48.3 81.9 48.9 82.1 49.6 C 82.1 49.6 82.2 49.7 82.2 49.7 C 82.3 50.1 82.4 50.4 82.5 50.7 C 82.6 50.8 82.6 51.0 82.7 51.1 C 82.8 51.6 83.0 52.1 83.1 52.6 C 83.1 52.7 83.1 52.8 83.2 52.9 C 83.2 53.3 83.3 53.7 83.4 54.0 C 83.4 54.2 83.4 54.3 83.4 54.5 C 83.5 54.7 83.5 54.9 83.5 55.1 C 83.5 55.1 83.5 55.2 83.5 55.3 C 83.6 55.8 83.6 56.3 83.6 56.8 C 83.6 56.8 83.6 56.9 83.6 56.9 C 83.6 56.9 83.6 56.9 83.6 56.9 C 83.6 57.3 83.6 57.8 83.5 58.2 C 83.5 58.2 83.5 58.2 83.5 58.2 C 83.5 58.6 83.4 59.0 83.3 59.3 C 83.3 59.3 83.3 59.3 83.3 59.3 C 83.3 59.4 83.3 59.4 83.3 59.4 C 83.2 59.8 83.2 60.1 83.1 60.4 C 83.1 60.4 83.1 60.4 83.1 60.4 C 83.0 60.6 83.0 60.7 82.9 60.8 C 82.9 61.0 82.8 61.2 82.7 61.4 C 82.7 61.4 82.7 61.4 82.7 61.4 C 82.6 61.6 82.6 61.8 82.5 62.0 C 82.4 62.1 82.4 62.3 82.3 62.4 C 82.3 62.4 82.3 62.4 82.3 62.5 C 82.1 62.8 81.9 63.1 81.8 63.4 C 81.8 63.4 81.7 63.5 81.7 63.5 C 81.7 63.5 81.7 63.5 81.7 63.5 C 81.5 63.9 81.3 64.2 81.0 64.6 C 81.0 64.6 81.0 64.7 81.0 64.7 C 80.9 64.7 80.9 64.8 80.9 64.8 C 80.5 65.3 80.2 65.8 79.8 66.2 C 79.8 66.3 79.8 66.3 79.8 66.3 C 79.7 66.3 79.7 66.3 79.7 66.4 C 79.0 67.2 78.3 67.9 77.7 68.7 C 77.0 69.4 76.4 70.1 75.8 70.8 C 75.7 70.9 75.7 71.0 75.6 71.0 C 75.3 71.4 75.1 71.7 74.8 72.0 C 74.8 72.1 74.8 72.2 74.7 72.3 C 74.6 72.4 74.5 72.6 74.4 72.8 C 74.3 73.0 74.2 73.1 74.1 73.3 C 74.1 73.3 74.0 73.4 74.0 73.5 C 73.9 73.7 73.8 73.9 73.7 74.2 C 73.7 74.2 73.7 74.2 73.7 74.3 C 73.6 74.5 73.5 74.7 73.5 74.9 C 73.5 74.9 73.5 75.0 73.4 75.0 C 73.4 75.2 73.4 75.5 73.3 75.7 C 73.3 75.8 73.3 75.8 73.3 75.9 C 73.3 76.0 73.3 76.2 73.3 76.4 C 73.3 76.5 73.3 76.7 73.4 76.9 C 73.4 77.0 73.4 77.1 73.4 77.3 C 73.5 77.6 73.5 78.0 73.7 78.4 C 73.8 78.7 73.9 79.0 74.1 79.3 C 74.3 79.8 74.5 80.2 74.8 80.6 C 74.8 80.7 74.8 80.7 74.8 80.7 C 75.1 81.1 75.4 81.5 75.7 81.8 C 75.7 81.8 75.7 81.8 75.7 81.8 C 76.0 82.2 76.4 82.5 76.7 82.8 L 76.7 82.8 C 76.8 82.8 76.8 82.9 76.9 82.9 L 85.8 75.7 L 90.7 74.7 L 97.9 88.0 L 89.8 94.5 L 92.5 99.9 L 79.5 110.4 L 75.2 111.2 L 71.1 103.2 C 70.3 103.2 69.6 103.2 68.8 103.2 C 68.7 103.2 68.5 103.2 68.3 103.2 C 67.6 103.2 66.8 103.1 66.1 103.0 C 66.0 103.0 65.9 103.0 65.8 103.0 C 65.1 102.9 64.4 102.7 63.8 102.5 C 63.6 102.5 63.5 102.5 63.4 102.4 C 62.7 102.2 62.0 102.0 61.3 101.7 C 61.2 101.7 61.1 101.7 61.1 101.6 C 60.9 101.6 60.8 101.5 60.6 101.4 C 60.3 101.3 60.1 101.2 59.8 101.0 C 59.7 101.0 59.6 101.0 59.5 100.9 C 59.3 100.8 59.1 100.7 58.9 100.5 C 58.8 100.5 58.7 100.4 58.5 100.3 C 58.5 100.3 58.5 100.3 58.4 100.3 C 58.1 100.1 57.8 99.9 57.5 99.7 C 57.4 99.6 57.4 99.6 57.3 99.6 C 57.2 99.5 57.2 99.5 57.1 99.4 C 57.0 99.3 56.9 99.2 56.7 99.1 C 56.5 99.0 56.3 98.8 56.0 98.6 C 56.0 98.6 55.9 98.5 55.9 98.5 C 55.9 98.5 55.8 98.4 55.8 98.4 C 55.6 98.3 55.5 98.2 55.4 98.1 C 55.2 97.9 55.0 97.7 54.8 97.5 C 54.7 97.5 54.7 97.4 54.6 97.4 C 54.6 97.3 54.5 97.3 54.5 97.2 C 54.4 97.1 54.3 97.0 54.2 96.9 C 54.0 96.8 53.8 96.6 53.6 96.4 C 53.5 96.3 53.5 96.2 53.4 96.1 C 53.3 96.0 53.3 96.0 53.2 96.0 C 53.2 95.9 53.1 95.8 53.1 95.8 C 52.9 95.5 52.7 95.3 52.5 95.1 C 52.4 95.0 52.3 94.8 52.2 94.7 C 52.2 94.7 52.1 94.6 52.1 94.5 C 52.0 94.5 52.0 94.4 51.9 94.4 C 51.8 94.1 51.6 93.8 51.4 93.6 C 51.3 93.5 51.2 93.3 51.1 93.2 C 51.1 93.1 51.0 93.0 51.0 93.0 C 50.9 92.9 50.8 92.8 50.8 92.7 C 50.5 92.3 50.3 91.9 50.1 91.5 C 50.1 91.5 50.1 91.5 50.1 91.5 C 50.0 91.4 50.0 91.2 49.9 91.1 C 49.7 90.8 49.5 90.4 49.3 90.1 C 49.3 89.9 49.2 89.8 49.1 89.6 C 48.8 88.9 48.5 88.2 48.2 87.6 C 48.2 87.5 48.2 87.4 48.1 87.3 C 48.1 87.2 48.1 87.1 48.0 86.9 C 47.9 86.7 47.8 86.4 47.7 86.1 C 47.6 85.9 47.6 85.7 47.5 85.4 C 47.4 85.2 47.4 84.9 47.3 84.7 C 47.2 84.4 47.2 84.2 47.1 84.0 C 47.1 83.9 47.1 83.8 47.1 83.7 C 47.0 83.5 47.0 83.2 46.9 83.0 C 46.9 82.9 46.9 82.9 46.9 82.8 C 46.9 82.8 46.9 82.8 46.9 82.8 C 46.9 82.8 46.9 82.8 46.9 82.8 C 46.9 82.8 46.9 82.8 46.9 82.8 C 46.8 82.7 46.8 82.6 46.8 82.5 C 46.8 82.2 46.7 81.8 46.7 81.6 C 46.7 81.5 46.7 81.5 46.7 81.5 C 46.6 80.9 46.6 80.3 46.6 79.8 C 46.6 79.8 46.6 79.8 46.6 79.7 C 46.6 79.6 46.7 79.4 46.7 79.2 C 46.7 79.0 46.7 78.8 46.7 78.5 C 46.7 78.5 46.7 78.4 46.7 78.4 C 46.7 78.2 46.8 78.0 46.8 77.9 C 46.8 77.7 46.8 77.5 46.9 77.3 C 46.9 77.3 46.9 77.3 46.9 77.2 C 46.9 77.0 47.0 76.8 47.1 76.6 C 47.1 76.5 47.1 76.4 47.1 76.3 C 47.1 76.2 47.1 76.2 47.2 76.2 C 47.2 75.9 47.3 75.7 47.4 75.5 C 47.4 75.4 47.5 75.3 47.5 75.2 C 47.5 75.2 47.5 75.2 47.5 75.2 C 47.6 75.0 47.7 74.8 47.7 74.6 C 47.8 74.5 47.9 74.3 47.9 74.2 C 47.9 74.2 47.9 74.2 47.9 74.2 C 47.9 74.1 48.0 74.1 48.0 74.1 C 48.1 73.8 48.3 73.4 48.5 73.1 C 48.5 73.1 48.5 73.1 48.5 73.1 C 48.5 73.0 48.6 72.9 48.6 72.9 C 48.8 72.6 49.0 72.2 49.2 72.0 C 49.2 71.9 49.3 71.8 49.3 71.8 C 49.3 71.8 49.4 71.7 49.4 71.7 C 49.7 71.2 50.1 70.7 50.5 70.2 C 50.5 70.2 50.6 70.1 50.6 70.1 C 50.6 70.1 50.6 70.0 50.7 70.0 C 51.2 69.3 51.8 68.7 52.3 68.1 C 52.8 67.5 53.3 66.9 53.8 66.4 C 53.9 66.2 54.0 66.1 54.1 66.0 C 54.3 65.7 54.5 65.5 54.7 65.2 C 54.8 65.0 54.9 64.9 55.1 64.7 C 55.1 64.6 55.2 64.5 55.3 64.4 C 55.4 64.1 55.6 63.8 55.8 63.5 C 55.8 63.5 55.8 63.4 55.8 63.4 C 56.0 63.0 56.1 62.7 56.3 62.3 C 56.3 62.3 56.3 62.2 56.3 62.2 C 56.4 61.8 56.5 61.4 56.5 61.0 L 56.5 61.0 C 56.6 60.6 56.6 60.2 56.6 59.9 C 56.5 59.7 56.5 59.6 56.5 59.5 C 56.5 59.3 56.5 59.1 56.4 58.9 C 56.4 58.6 56.3 58.2 56.2 57.9 C 56.0 57.5 55.9 57.1 55.7 56.6 C 55.4 56.1 55.2 55.6 54.9 55.2 C 54.9 55.1 54.8 55.1 54.8 55.1 C 54.5 54.7 54.2 54.3 53.9 53.9 C 53.9 53.9 53.9 53.9 53.9 53.9 C 53.6 53.7 53.4 53.5 53.2 53.3 L 42.5 62.0 L 37.7 63.0 L 30.1 49.3 C 30.2 49.2 30.2 49.2 30.2 49.2 C 30.2 49.2 30.2 49.2 30.2 49.2 " fill="#855F13"></path><path d="M 26.4 21.7 L 26.3 21.9 C 26.0 22.4 25.7 22.9 25.5 23.4 C 25.3 23.7 25.1 24.0 25.0 24.3 C 24.8 24.6 24.7 25.0 24.5 25.4 C 24.3 25.7 24.2 26.1 24.0 26.5 C 23.9 26.9 23.7 27.2 23.6 27.6 C 23.4 28.0 23.3 28.5 23.2 29.0 C 23.0 29.3 22.9 29.7 22.8 30.0 C 22.7 30.6 22.6 31.1 22.4 31.7 C 22.4 32.0 22.3 32.4 22.2 32.7 C 22.0 33.7 21.9 34.6 21.8 35.6 C 21.7 35.7 21.7 35.7 21.7 35.8 C 21.6 37.0 21.5 38.2 21.5 39.4 C 21.5 39.8 21.5 40.2 21.5 40.5 C 21.5 41.1 21.5 41.7 21.5 42.2 C 21.5 42.7 21.5 43.1 21.5 43.5 C 21.6 44.1 21.6 44.7 21.7 45.3 C 21.7 45.7 21.7 46.1 21.8 46.5 C 21.9 47.8 22.1 49.0 22.3 50.3 C 22.3 50.5 22.4 50.7 22.4 50.9 C 22.6 52.0 22.8 53.1 23.1 54.2 C 23.2 54.5 23.3 54.9 23.4 55.3 C 23.6 56.4 24.0 57.6 24.3 58.8 C 24.4 59.0 24.4 59.1 24.5 59.3 C 24.9 60.6 25.4 61.9 25.9 63.3 C 26.1 63.9 26.4 64.5 26.6 65.1 C 26.8 65.5 26.9 65.8 27.0 66.1 C 27.4 67.1 27.9 68.2 28.4 69.2 C 28.7 69.9 29.0 70.5 29.4 71.2 C 29.9 72.3 30.5 73.4 31.1 74.5 C 31.3 74.9 31.5 75.2 31.7 75.6 C 32.3 76.6 32.8 77.5 33.4 78.5 C 33.6 78.7 33.7 79.0 33.9 79.2 C 34.6 80.3 35.3 81.4 36.0 82.5 C 36.0 82.5 36.0 82.5 36.0 82.5 C 36.1 82.6 36.2 82.7 36.3 82.8 C 36.9 83.8 37.6 84.7 38.3 85.6 C 38.4 85.8 38.5 86.0 38.7 86.1 C 39.3 86.9 39.9 87.7 40.5 88.5 C 40.8 88.8 41.0 89.1 41.3 89.4 C 41.8 90.0 42.3 90.7 42.9 91.3 C 43.2 91.6 43.5 92.0 43.8 92.3 C 44.3 92.8 44.8 93.4 45.3 93.9 C 45.6 94.3 46.0 94.6 46.3 95.0 C 46.8 95.5 47.3 96.0 47.8 96.5 C 48.1 96.8 48.5 97.2 48.9 97.5 C 49.4 98.0 49.9 98.5 50.4 98.9 C 50.7 99.3 51.1 99.6 51.5 100.0 C 52.0 100.4 52.5 100.8 53.0 101.2 C 53.4 101.6 53.8 101.9 54.2 102.3 C 54.7 102.7 55.2 103.0 55.7 103.4 C 56.1 103.8 56.6 104.2 57.1 104.5 C 57.5 104.9 58.0 105.2 58.5 105.5 C 59.0 105.9 59.6 106.3 60.1 106.7 C 60.5 107.0 61.0 107.3 61.4 107.5 C 62.1 108.0 62.7 108.4 63.4 108.8 C 63.8 109.1 64.2 109.3 64.6 109.5 C 65.6 110.2 66.7 110.8 67.8 111.3 C 67.9 111.4 68.0 111.5 68.2 111.5 C 69.7 112.3 71.1 113.0 72.6 113.6 C 73.3 113.9 74.0 114.2 74.7 114.5 C 75.1 114.6 75.4 114.8 75.8 114.9 C 76.8 115.3 77.9 115.7 79.0 116.0 C 79.0 116.0 79.1 116.0 79.1 116.0 C 80.2 116.4 81.3 116.6 82.4 116.9 C 82.8 117.0 83.1 117.0 83.5 117.1 C 84.2 117.3 85.0 117.4 85.7 117.5 C 86.1 117.6 86.5 117.6 86.9 117.7 C 87.7 117.8 88.4 117.8 89.1 117.9 C 89.5 117.9 89.9 118.0 90.2 118.0 C 91.0 118.0 91.7 118.0 92.4 118.0 C 92.8 118.0 93.1 118.0 93.5 118.0 C 94.5 118.0 95.6 117.9 96.6 117.8 C 98.9 117.4 101.1 116.9 103.2 116.1 C 103.3 115.9 103.4 115.7 103.5 115.6 C 104.0 114.8 104.4 114.0 104.8 113.2 C 104.8 113.2 104.8 113.2 104.8 113.1 C 105.2 112.3 105.6 111.4 105.9 110.5 C 106.0 110.2 106.1 109.9 106.2 109.6 C 106.4 108.9 106.6 108.3 106.8 107.7 C 106.9 107.3 107.0 106.8 107.1 106.4 C 107.2 105.8 107.3 105.3 107.4 104.7 C 107.5 104.1 107.6 103.6 107.7 103.0 C 107.8 102.5 107.8 101.9 107.9 101.4 C 108.0 100.6 108.0 99.7 108.1 98.9 C 108.1 98.4 108.1 97.9 108.1 97.3 C 108.1 96.9 108.1 96.5 108.1 96.1 C 108.1 95.3 108.1 94.6 108.0 93.9 C 108.0 93.4 108.0 92.9 107.9 92.5 C 107.9 91.9 107.8 91.2 107.7 90.6 C 107.6 89.8 107.5 89.1 107.4 88.3 C 107.3 87.7 107.2 87.1 107.1 86.5 C 106.9 85.7 106.8 84.9 106.6 84.1 C 106.4 83.5 106.3 82.9 106.1 82.3 C 105.9 81.5 105.7 80.7 105.5 79.8 C 105.3 79.2 105.1 78.6 104.9 78.0 C 104.6 77.1 104.3 76.3 104.0 75.5 C 103.7 74.8 103.5 74.1 103.2 73.3 C 103.1 73.1 103.0 72.8 102.9 72.5 C 102.3 71.2 101.8 69.9 101.2 68.7 C 100.9 68.1 100.6 67.5 100.4 66.9 C 99.7 65.5 98.9 64.2 98.2 62.8 C 98.1 62.6 97.9 62.3 97.8 62.1 C 97.2 61.1 96.7 60.2 96.1 59.2 C 95.9 59.0 95.7 58.7 95.5 58.4 C 94.9 57.4 94.2 56.3 93.5 55.3 C 93.5 55.3 93.5 55.3 93.5 55.3 C 92.9 54.4 92.2 53.4 91.5 52.5 C 91.3 52.2 91.0 51.9 90.8 51.6 C 90.4 51.0 89.9 50.5 89.5 49.9 C 89.2 49.5 88.9 49.2 88.7 48.9 C 88.2 48.4 87.8 47.9 87.4 47.4 C 87.1 47.0 86.8 46.7 86.5 46.4 C 86.1 45.9 85.7 45.4 85.2 44.9 C 84.9 44.6 84.6 44.3 84.3 44.0 C 83.9 43.5 83.4 43.0 83.0 42.6 C 82.7 42.3 82.4 42.0 82.1 41.7 C 81.6 41.2 81.1 40.6 80.5 40.1 C 80.3 39.9 80.1 39.7 79.8 39.5 C 79.1 38.8 78.3 38.0 77.5 37.4 C 77.3 37.2 77.2 37.1 77.1 37.0 C 76.4 36.4 75.7 35.9 75.0 35.3 C 74.8 35.1 74.5 34.9 74.2 34.7 C 73.6 34.2 73.0 33.7 72.4 33.3 C 72.1 33.0 71.8 32.8 71.5 32.6 C 70.8 32.1 70.1 31.6 69.4 31.1 C 69.1 30.9 68.9 30.8 68.7 30.6 C 67.7 30.0 66.7 29.3 65.7 28.7 C 65.5 28.6 65.3 28.5 65.1 28.4 C 63.9 27.7 62.8 27.0 61.7 26.5 C 61.6 26.4 61.5 26.4 61.4 26.3 C 59.8 25.5 58.1 24.7 56.5 24.0 C 56.4 24.0 56.4 24.0 56.4 23.9 C 55.5 23.6 54.6 23.2 53.7 22.9 C 53.4 22.8 53.1 22.7 52.9 22.6 C 52.2 22.4 51.6 22.2 50.9 22.0 C 50.6 21.9 50.3 21.8 50.0 21.7 C 49.3 21.5 48.7 21.3 48.1 21.2 C 47.8 21.1 47.5 21.0 47.2 21.0 C 46.3 20.8 45.4 20.6 44.5 20.4 C 44.5 20.4 44.4 20.4 44.4 20.4 C 43.5 20.3 42.7 20.1 41.8 20.1 C 41.5 20.0 41.2 20.0 41.0 20.0 C 40.3 19.9 39.7 19.9 39.1 19.9 C 38.8 19.8 38.5 19.8 38.2 19.8 C 37.6 19.8 37.0 19.8 36.4 19.8 C 36.1 19.9 35.8 19.9 35.6 19.9 C 34.7 19.9 33.8 20.0 33.0 20.1 C 30.6 20.4 28.4 21.0 26.4 21.7 M 126.6 102.8 C 126.4 103.3 126.3 103.7 126.1 104.2 C 126.0 104.5 125.9 104.9 125.8 105.3 C 125.7 105.4 125.7 105.5 125.6 105.7 C 125.3 106.5 124.9 107.4 124.5 108.3 C 124.5 108.3 124.5 108.3 124.5 108.3 C 124.5 108.3 124.5 108.3 124.5 108.3 C 124.1 109.1 123.7 109.9 123.3 110.6 C 123.2 110.8 123.1 110.9 123.0 111.1 C 122.9 111.3 122.7 111.6 122.5 111.8 C 122.3 112.1 122.2 112.5 121.9 112.8 C 121.7 113.1 121.5 113.4 121.2 113.7 C 121.1 114.0 120.9 114.2 120.7 114.4 C 120.6 114.5 120.5 114.7 120.4 114.8 C 119.9 115.4 119.4 116.1 118.8 116.6 C 118.8 116.7 118.8 116.7 118.8 116.7 C 118.7 116.8 118.6 116.9 118.5 116.9 C 118.0 117.4 117.5 117.9 117.0 118.4 C 116.8 118.6 116.5 118.8 116.2 119.0 L 103.3 129.6 C 104.1 128.9 104.8 128.2 105.6 127.5 C 105.6 127.4 105.7 127.3 105.8 127.2 C 106.5 126.5 107.2 125.7 107.8 124.9 C 108.0 124.7 108.1 124.5 108.3 124.3 C 108.7 123.6 109.2 123.0 109.6 122.3 C 109.8 122.1 109.9 121.8 110.1 121.6 C 110.6 120.7 111.1 119.8 111.5 118.9 C 111.5 118.8 111.6 118.8 111.6 118.8 C 112.0 117.8 112.4 116.8 112.8 115.8 C 112.9 115.4 113.0 115.1 113.2 114.7 C 113.4 114.0 113.6 113.3 113.8 112.6 C 113.9 112.1 114.0 111.6 114.2 111.1 C 114.3 110.4 114.4 109.8 114.6 109.1 C 114.7 108.6 114.7 108.0 114.8 107.5 C 114.7 107.7 114.6 107.8 114.5 108.0 C 114.4 108.1 114.3 108.2 114.2 108.3 C 113.8 108.9 113.3 109.4 112.8 109.9 C 112.8 109.9 112.7 110.0 112.7 110.0 C 112.7 110.0 112.6 110.1 112.5 110.2 C 112.1 110.6 111.7 111.0 111.2 111.4 C 111.0 111.6 110.8 111.8 110.5 112.0 L 110.5 112.0 L 97.6 122.5 C 97.6 122.5 97.6 122.5 97.6 122.5 C 97.6 122.5 97.6 122.5 97.5 122.5 C 96.6 123.3 95.6 124.0 94.6 124.6 C 91.4 126.5 87.8 127.7 83.6 128.3 C 82.6 128.4 81.6 128.5 80.5 128.5 C 80.2 128.5 79.8 128.5 79.5 128.5 C 78.8 128.5 78.0 128.5 77.3 128.5 C 76.9 128.5 76.5 128.4 76.1 128.4 C 75.4 128.4 74.7 128.3 74.0 128.2 C 73.6 128.2 73.2 128.1 72.8 128.0 C 72.0 127.9 71.3 127.8 70.5 127.6 C 70.2 127.6 69.8 127.5 69.5 127.4 C 68.4 127.2 67.3 126.9 66.2 126.5 C 66.1 126.5 66.1 126.5 66.0 126.5 C 65.0 126.2 63.9 125.8 62.8 125.4 C 62.5 125.3 62.1 125.1 61.7 125.0 C 61.2 124.8 60.7 124.6 60.2 124.4 C 60.0 124.3 59.8 124.2 59.7 124.2 C 58.2 123.5 56.8 122.9 55.3 122.1 C 55.3 122.1 55.3 122.1 55.2 122.1 C 55.2 122.0 55.2 122.0 55.2 122.0 C 55.0 122.0 54.9 121.9 54.8 121.8 C 53.7 121.3 52.7 120.7 51.6 120.1 C 51.5 120.0 51.3 119.9 51.2 119.8 C 50.9 119.7 50.7 119.5 50.4 119.3 C 49.8 118.9 49.1 118.5 48.5 118.1 C 48.2 117.9 48.0 117.8 47.8 117.6 C 47.6 117.5 47.4 117.3 47.2 117.2 C 46.6 116.8 46.1 116.4 45.5 116.0 C 45.2 115.8 45.0 115.7 44.7 115.5 C 44.5 115.3 44.3 115.2 44.1 115.0 C 43.7 114.7 43.2 114.3 42.7 113.9 C 42.4 113.7 42.1 113.5 41.8 113.3 C 41.6 113.1 41.5 113.0 41.3 112.8 C 40.9 112.5 40.4 112.1 40.0 111.8 C 39.7 111.5 39.5 111.3 39.2 111.1 C 39.0 110.9 38.8 110.7 38.5 110.5 C 38.2 110.1 37.8 109.8 37.4 109.4 C 37.2 109.2 36.9 109.0 36.7 108.8 C 36.4 108.6 36.2 108.3 35.9 108.1 C 35.5 107.7 35.2 107.4 34.8 107.0 C 34.6 106.8 34.5 106.6 34.3 106.5 C 34.0 106.2 33.7 105.8 33.3 105.5 C 33.0 105.2 32.7 104.8 32.3 104.5 C 32.2 104.3 32.1 104.2 31.9 104.1 C 31.6 103.7 31.2 103.2 30.8 102.8 C 30.5 102.5 30.2 102.1 29.9 101.8 C 29.8 101.7 29.8 101.6 29.7 101.5 C 29.2 101.0 28.8 100.5 28.4 100.0 C 28.1 99.6 27.8 99.3 27.6 99.0 C 27.5 99.0 27.5 98.9 27.5 98.9 C 26.9 98.2 26.3 97.4 25.7 96.7 C 25.6 96.5 25.4 96.3 25.3 96.1 C 25.3 96.1 25.3 96.1 25.3 96.1 C 24.6 95.2 24.0 94.3 23.3 93.3 C 23.2 93.2 23.2 93.1 23.1 93.0 L 23.1 93.0 C 23.1 93.0 23.1 93.0 23.1 93.0 C 22.3 91.9 21.6 90.8 20.9 89.7 C 20.9 89.7 20.9 89.7 20.8 89.6 C 20.7 89.4 20.6 89.2 20.5 89.0 C 19.9 88.1 19.3 87.1 18.7 86.1 C 18.7 86.0 18.6 85.9 18.5 85.8 C 18.4 85.5 18.3 85.3 18.2 85.0 C 17.6 83.9 17.0 82.8 16.4 81.7 C 16.3 81.5 16.2 81.3 16.0 81.0 C 15.8 80.6 15.6 80.1 15.4 79.7 C 14.9 78.7 14.5 77.7 14.1 76.6 C 13.9 76.3 13.8 76.0 13.7 75.7 C 13.5 75.2 13.3 74.7 13.1 74.2 C 13.0 74.1 13.0 73.9 12.9 73.8 C 12.4 72.5 11.9 71.1 11.5 69.8 C 11.5 69.6 11.4 69.5 11.4 69.3 C 11.0 68.1 10.7 67.0 10.4 65.8 C 10.3 65.4 10.2 65.1 10.1 64.7 C 9.9 63.6 9.6 62.5 9.4 61.5 C 9.4 61.2 9.4 61.0 9.3 60.8 C 9.1 59.5 8.9 58.3 8.8 57.1 C 8.8 57.0 8.8 56.9 8.8 56.7 C 8.7 56.4 8.7 56.2 8.7 55.9 C 8.6 55.2 8.6 54.6 8.6 54.0 C 8.5 53.6 8.5 53.2 8.5 52.8 C 8.5 52.2 8.5 51.6 8.5 51.0 C 8.5 50.8 8.5 50.6 8.5 50.4 C 8.5 50.3 8.5 50.1 8.5 50.0 C 8.6 48.7 8.6 47.5 8.8 46.3 C 8.8 46.3 8.8 46.3 8.8 46.3 C 8.8 46.2 8.8 46.2 8.8 46.1 C 8.9 45.2 9.1 44.2 9.3 43.2 C 9.3 43.1 9.3 43.0 9.3 42.9 C 9.4 42.7 9.4 42.5 9.5 42.2 C 9.6 41.7 9.7 41.1 9.9 40.5 C 9.9 40.4 10.0 40.2 10.0 40.0 C 10.1 39.8 10.1 39.7 10.2 39.5 C 10.3 39.0 10.5 38.6 10.6 38.1 C 10.7 37.9 10.8 37.7 10.8 37.5 C 10.9 37.4 11.0 37.2 11.0 37.0 C 11.2 36.7 11.4 36.3 11.5 35.9 C 11.6 35.7 11.7 35.5 11.8 35.2 C 11.9 35.1 12.0 35.0 12.0 34.8 C 12.1 34.7 12.2 34.5 12.2 34.4 C 12.3 34.2 12.4 34.1 12.5 33.9 C 12.6 33.7 12.7 33.4 12.9 33.2 C 13.0 32.9 13.2 32.7 13.4 32.4 C 13.5 32.2 13.7 31.9 13.8 31.7 C 13.9 31.5 14.0 31.4 14.1 31.3 C 14.4 30.9 14.7 30.5 15.0 30.1 C 15.1 29.9 15.2 29.8 15.3 29.6 C 15.3 29.6 15.3 29.6 15.4 29.5 C 15.8 29.0 16.3 28.4 16.8 27.9 C 16.8 27.9 16.9 27.8 16.9 27.8 C 17.1 27.6 17.3 27.5 17.4 27.3 C 17.7 27.0 18.0 26.7 18.4 26.4 C 18.6 26.2 18.8 26.0 19.1 25.8 L 19.1 25.8 L 19.1 25.8 L 32.0 15.3 C 33.6 14.0 35.4 12.9 37.4 12.0 C 37.0 12.0 36.7 12.0 36.3 12.0 C 36.0 11.9 35.6 11.9 35.3 11.9 C 34.6 11.9 33.9 11.9 33.2 11.9 C 32.9 12.0 32.5 12.0 32.2 12.0 C 31.2 12.0 30.3 12.1 29.3 12.2 C 23.0 13.0 17.6 15.3 13.3 18.8 L 26.3 8.3 C 30.6 4.8 35.9 2.5 42.3 1.7 C 43.2 1.6 44.2 1.5 45.2 1.5 C 45.5 1.4 45.8 1.4 46.1 1.4 C 46.8 1.4 47.5 1.4 48.2 1.4 C 48.6 1.4 48.9 1.4 49.3 1.4 C 50.0 1.5 50.7 1.5 51.4 1.6 C 51.7 1.6 52.0 1.6 52.4 1.7 C 53.4 1.8 54.4 1.9 55.4 2.1 C 55.4 2.1 55.4 2.1 55.4 2.1 C 56.5 2.3 57.5 2.5 58.5 2.7 C 58.9 2.8 59.2 2.9 59.5 3.0 C 60.3 3.1 61.0 3.3 61.7 3.5 C 62.1 3.6 62.4 3.8 62.8 3.9 C 63.5 4.1 64.3 4.3 65.0 4.6 C 65.3 4.7 65.7 4.8 66.0 4.9 C 67.0 5.3 68.0 5.7 69.0 6.1 C 69.1 6.1 69.1 6.1 69.1 6.2 C 69.1 6.2 69.1 6.2 69.2 6.2 C 70.1 6.6 71.0 7.0 72.0 7.4 C 72.2 7.5 72.5 7.7 72.8 7.8 C 73.5 8.1 74.1 8.5 74.8 8.8 C 74.8 8.8 74.8 8.8 74.9 8.9 C 74.9 8.9 75.0 8.9 75.1 9.0 C 76.4 9.7 77.7 10.4 79.0 11.2 C 79.1 11.2 79.3 11.3 79.4 11.4 C 79.5 11.5 79.6 11.5 79.7 11.6 C 80.8 12.3 82.0 13.0 83.1 13.8 C 83.2 13.8 83.3 13.9 83.3 13.9 C 83.5 14.0 83.7 14.2 83.9 14.3 C 84.7 14.9 85.5 15.4 86.4 16.0 C 86.5 16.1 86.7 16.3 86.9 16.4 C 87.0 16.5 87.2 16.6 87.4 16.8 C 88.1 17.3 88.8 17.8 89.5 18.4 C 89.7 18.6 89.9 18.7 90.1 18.9 C 90.2 19.0 90.3 19.0 90.4 19.1 C 91.2 19.8 92.0 20.4 92.7 21.1 C 92.9 21.2 93.0 21.3 93.2 21.4 C 93.2 21.4 93.2 21.5 93.2 21.5 C 94.1 22.3 95.0 23.1 95.9 23.9 C 96.0 23.9 96.0 24.0 96.0 24.0 C 96.3 24.2 96.5 24.4 96.7 24.7 C 97.3 25.2 97.9 25.8 98.5 26.4 C 98.6 26.5 98.7 26.6 98.8 26.7 C 99.0 26.9 99.3 27.2 99.5 27.4 C 100.0 28.0 100.6 28.5 101.1 29.0 C 101.2 29.2 101.3 29.3 101.4 29.4 C 101.7 29.7 101.9 29.9 102.1 30.2 C 102.6 30.7 103.1 31.2 103.6 31.8 C 103.7 32.0 103.9 32.1 104.0 32.3 C 104.2 32.5 104.4 32.7 104.6 32.9 C 105.0 33.5 105.5 34.1 106.0 34.7 C 106.2 34.9 106.4 35.1 106.6 35.4 C 106.7 35.5 106.8 35.7 107.0 35.8 C 107.5 36.5 108.0 37.1 108.5 37.8 C 108.7 38.0 108.9 38.3 109.1 38.6 C 109.2 38.7 109.2 38.8 109.3 38.8 C 110.1 39.9 110.8 41.0 111.6 42.1 L 111.6 42.1 C 111.6 42.1 111.6 42.1 111.6 42.1 C 112.4 43.2 113.2 44.4 113.9 45.6 C 114.0 45.7 114.1 45.8 114.2 45.9 C 114.3 46.1 114.4 46.3 114.5 46.5 C 115.2 47.6 115.8 48.7 116.5 49.8 C 116.6 50.0 116.7 50.2 116.8 50.4 C 116.9 50.5 116.9 50.5 116.9 50.6 C 117.8 52.2 118.6 53.8 119.4 55.4 C 119.5 55.5 119.6 55.7 119.7 55.8 C 119.9 56.3 120.2 56.8 120.4 57.3 C 121.1 58.8 121.7 60.3 122.3 61.7 C 122.4 62.0 122.6 62.4 122.7 62.7 C 122.8 63.0 122.9 63.3 123.1 63.6 C 123.3 64.1 123.4 64.6 123.6 65.1 C 123.9 66.1 124.3 67.0 124.6 68.0 C 124.8 68.7 125.0 69.4 125.3 70.2 C 125.5 71.1 125.8 72.0 126.0 72.9 C 126.2 73.6 126.4 74.3 126.6 75.1 C 126.8 75.9 126.9 76.8 127.1 77.7 C 127.2 78.4 127.4 79.1 127.5 79.8 C 127.6 80.7 127.7 81.6 127.8 82.4 C 127.9 82.8 128.0 83.2 128.0 83.6 C 128.0 84.0 128.1 84.3 128.1 84.6 C 128.1 85.2 128.2 85.7 128.2 86.2 C 128.2 87.0 128.3 87.9 128.3 88.7 C 128.3 89.2 128.3 89.7 128.3 90.2 C 128.3 90.4 128.3 90.7 128.3 90.9 C 128.3 91.3 128.2 91.6 128.2 92.0 C 128.2 92.9 128.1 93.9 128.0 94.8 C 128.0 95.1 128.0 95.4 128.0 95.6 C 127.9 96.0 127.9 96.3 127.8 96.6 C 127.7 97.3 127.6 97.9 127.5 98.6 C 127.5 98.9 127.4 99.2 127.4 99.5 C 127.3 99.9 127.2 100.2 127.1 100.6 C 127.0 101.1 126.9 101.6 126.8 102.0 C 126.7 102.3 126.6 102.5 126.6 102.8 " fill="#F9CE1D"></path><path d="M 116.9 108.1 C 116.9 108.0 116.9 107.9 117.0 107.8 L 113.1 106.2 L 112.5 107.0 C 112.1 107.5 111.7 108.0 111.2 108.5 L 111.0 108.7 C 110.6 109.1 110.2 109.4 109.8 109.8 C 109.6 110.0 109.4 110.2 109.2 110.3 L 107.8 111.4 C 107.9 111.4 107.9 111.3 107.9 111.2 C 108.0 111.0 108.2 110.2 108.2 110.2 C 108.5 109.6 108.7 108.9 108.8 108.2 C 109.0 107.8 109.1 107.3 109.2 106.9 C 109.3 106.3 109.4 105.7 109.5 105.1 C 109.6 104.5 109.7 103.9 109.8 103.3 C 109.9 102.7 110.0 102.2 110.0 101.6 C 110.1 100.7 110.2 99.9 110.2 99.0 L 110.2 98.6 C 110.2 98.2 110.3 97.8 110.3 97.4 C 110.3 97.0 110.3 96.6 110.3 96.3 L 110.2 96.0 C 110.2 95.3 110.2 94.5 110.2 93.7 C 110.1 93.3 110.1 92.8 110.1 92.3 C 110.0 91.6 109.9 91.0 109.8 90.3 C 109.8 89.5 109.6 88.7 109.5 88.0 C 109.4 87.3 109.3 86.7 109.2 86.1 C 109.0 85.3 108.9 84.5 108.7 83.6 C 108.5 83.0 108.4 82.4 108.2 81.7 C 108.0 80.9 107.8 80.1 107.5 79.2 C 107.3 78.6 107.1 77.9 106.9 77.3 C 106.6 76.4 106.3 75.6 106.0 74.7 L 105.8 74.1 C 105.6 73.6 105.4 73.1 105.2 72.5 L 104.8 71.6 C 104.3 70.4 103.8 69.1 103.1 67.7 C 102.9 67.2 102.7 66.7 102.4 66.2 L 102.3 66.0 C 101.6 64.6 100.8 63.1 100.1 61.7 L 99.7 61.0 C 99.1 60.1 98.5 59.1 97.8 58.0 L 97.4 57.2 C 96.7 56.2 96.1 55.2 95.4 54.2 L 95.3 54.0 L 95.2 53.9 C 94.5 53.0 93.9 52.1 93.2 51.2 L 92.5 50.3 C 92.1 49.7 91.6 49.1 91.2 48.5 L 90.3 47.5 C 89.9 47.0 89.5 46.5 89.0 46.0 L 88.1 44.9 C 87.7 44.4 87.3 44.0 86.8 43.5 L 85.9 42.5 C 85.4 42.0 85.0 41.5 84.5 41.1 L 83.6 40.2 C 83.1 39.6 82.5 39.1 82.0 38.6 L 81.3 37.9 C 80.5 37.2 79.7 36.4 78.9 35.7 L 78.5 35.4 C 77.8 34.8 77.1 34.2 76.4 33.6 L 75.6 33.0 C 74.9 32.5 74.3 32.0 73.7 31.5 L 72.8 30.9 C 72.0 30.3 71.3 29.8 70.6 29.3 L 69.9 28.8 C 68.9 28.2 67.8 27.5 66.8 26.9 L 66.2 26.5 C 65.0 25.8 63.8 25.2 62.7 24.5 L 62.4 24.4 C 60.7 23.5 59.0 22.7 57.2 22.0 C 56.3 21.6 55.4 21.2 54.4 20.9 L 52.5 20.2 L 51.6 19.9 L 50.6 19.6 C 49.9 19.4 49.2 19.3 48.6 19.1 L 47.7 18.9 C 46.7 18.7 45.8 18.5 44.8 18.3 C 43.9 18.1 42.9 18.0 42.0 17.9 L 41.2 17.8 C 40.5 17.8 39.8 17.7 39.2 17.7 C 38.9 17.7 38.5 17.7 38.2 17.7 C 37.6 17.7 36.9 17.7 36.3 17.7 L 35.4 17.7 C 34.5 17.8 33.6 17.9 32.7 18.0 C 32.5 18.0 32.3 18.0 32.0 18.1 L 33.4 17.0 C 34.7 15.9 36.4 14.9 38.3 14.0 L 37.5 9.9 C 37.5 9.9 36.7 9.8 36.4 9.8 C 36.3 9.8 36.2 9.8 36.1 9.8 C 39.2 7.7 42.4 5.6 45.6 3.6 L 46.2 3.6 C 46.8 3.6 47.5 3.5 48.2 3.6 C 48.5 3.6 48.9 3.6 49.2 3.6 C 49.9 3.6 50.5 3.7 51.2 3.7 L 52.1 3.8 C 53.1 3.9 54.0 4.0 55.1 4.2 C 56.1 4.4 57.1 4.6 58.1 4.8 L 59.0 5.0 C 59.7 5.2 60.4 5.4 61.1 5.6 L 62.2 5.9 L 63.2 6.2 C 63.5 6.4 65.3 7.0 65.3 7.0 C 66.2 7.3 67.2 7.7 68.3 8.1 C 69.2 8.5 70.1 8.9 71.1 9.4 L 72.1 9.9 C 72.6 10.1 73.2 10.4 73.9 10.8 L 74.1 10.9 C 75.4 11.6 76.6 12.3 77.9 13.0 L 78.6 13.4 C 79.7 14.1 80.8 14.8 81.9 15.6 L 82.1 15.7 L 82.7 16.1 C 83.5 16.6 84.3 17.2 85.1 17.8 L 85.6 18.1 L 86.1 18.5 C 86.8 19.0 87.5 19.5 88.1 20.1 L 89.0 20.8 C 89.8 21.4 90.6 22.0 91.3 22.7 L 91.8 23.1 C 92.7 23.9 93.6 24.7 94.6 25.6 L 95.2 26.2 C 95.8 26.8 96.4 27.4 97.0 27.9 L 97.3 28.2 L 98.0 28.9 C 98.5 29.5 99.0 30.0 99.5 30.5 L 99.7 30.7 L 100.5 31.6 C 101.0 32.1 101.5 32.7 101.9 33.2 L 102.4 33.7 L 102.9 34.3 C 103.4 34.9 103.9 35.5 104.3 36.0 L 104.9 36.7 L 105.3 37.2 C 105.8 37.8 106.3 38.4 106.8 39.1 L 107.4 39.9 L 107.6 40.1 C 108.3 41.1 109.0 42.1 109.7 43.2 L 109.8 43.4 L 109.9 43.5 C 110.7 44.5 111.4 45.6 112.1 46.7 L 112.3 47.1 L 112.7 47.7 C 113.3 48.7 114.0 49.8 114.6 50.9 L 114.8 51.2 L 115.1 51.7 C 115.9 53.2 116.7 54.7 117.5 56.3 L 117.7 56.8 C 118.0 57.3 118.2 57.8 118.4 58.3 C 119.1 59.7 119.7 61.1 120.3 62.5 L 121.1 64.4 C 121.2 64.6 121.2 64.9 121.3 65.2 L 121.6 65.9 C 121.9 66.8 122.3 67.7 122.5 68.6 C 122.8 69.4 123.0 70.1 123.2 70.8 C 123.5 71.7 123.7 72.6 124.0 73.4 C 124.1 74.1 124.3 74.8 124.5 75.5 C 124.7 76.4 124.8 77.3 125.0 78.1 C 125.1 78.8 125.3 79.5 125.4 80.2 C 125.5 81.0 125.6 81.8 125.7 82.7 L 125.8 83.3 C 125.8 83.5 125.9 83.7 125.9 83.9 C 125.9 83.9 126.0 85.8 126.0 86.3 C 126.1 87.1 126.1 87.9 126.1 88.7 L 126.2 90.8 C 126.2 91.0 126.1 91.2 126.1 91.3 C 126.1 91.5 126.1 91.7 126.1 91.9 C 126.0 92.8 126.0 93.7 125.9 94.6 C 125.9 94.8 125.8 95.4 125.8 95.4 C 125.8 95.5 125.7 96.4 125.7 96.4 C 125.6 97.0 125.5 97.6 125.4 98.2 C 125.4 98.2 125.3 99.0 125.3 99.1 C 125.2 99.2 125.0 100.1 125.0 100.1 C 124.9 100.5 124.8 100.9 124.7 101.4 C 122.2 103.7 119.6 105.9 116.9 108.1 " fill="#F6DF3C"></path><path d="M 101.9 33.2 L 102.4 33.7 L 102.9 34.3 C 103.4 34.9 103.9 35.5 104.3 36.0 L 104.9 36.7 L 105.3 37.2 C 105.8 37.8 106.3 38.4 106.8 39.1 L 107.4 39.9 L 107.6 40.1 C 108.3 41.1 109.0 42.1 109.7 43.2 L 109.8 43.4 L 109.9 43.5 C 110.7 44.5 111.4 45.6 112.1 46.7 L 112.3 47.1 L 112.7 47.7 C 113.3 48.7 114.0 49.8 114.6 50.9 L 114.8 51.2 L 115.1 51.7 C 115.9 53.2 116.7 54.7 117.5 56.3 L 117.7 56.8 C 118.0 57.3 118.2 57.8 118.4 58.3 C 119.1 59.7 119.7 61.1 120.3 62.5 L 121.1 64.4 C 121.2 64.6 121.2 64.9 121.3 65.2 L 121.6 65.9 C 121.9 66.8 122.2 67.7 122.6 68.6 C 122.8 69.4 123.0 70.1 123.2 70.8 C 123.5 71.7 123.7 72.6 124.0 73.4 C 124.1 74.1 124.3 74.8 124.5 75.5 C 124.7 76.4 124.8 77.3 125.0 78.1 C 125.1 78.8 125.3 79.5 125.4 80.2 C 125.5 81.0 125.6 81.8 125.7 82.7 L 125.8 83.3 C 125.8 83.5 125.9 83.7 125.9 83.8 C 125.9 83.8 125.9 84.9 126.0 85.6 C 120.8 89.4 115.6 93.1 110.3 96.8 C 110.3 96.6 110.3 96.4 110.3 96.3 L 110.2 96.0 C 110.2 95.3 110.2 94.5 110.2 93.7 C 110.1 93.3 110.1 92.8 110.1 92.3 C 110.0 91.6 109.9 91.0 109.8 90.3 C 109.8 89.5 109.6 88.7 109.5 88.0 C 109.4 87.3 109.3 86.7 109.2 86.1 C 109.0 85.3 108.9 84.5 108.7 83.6 C 108.5 83.0 108.4 82.4 108.2 81.7 C 108.0 80.9 107.8 80.1 107.5 79.2 C 107.3 78.6 107.1 77.9 106.9 77.3 C 106.6 76.4 106.3 75.6 106.0 74.7 L 105.8 74.1 C 105.6 73.6 105.4 73.1 105.2 72.5 L 104.8 71.6 C 104.3 70.4 103.8 69.1 103.1 67.8 C 102.9 67.2 102.7 66.7 102.4 66.2 L 102.3 66.0 C 101.6 64.6 100.8 63.1 100.1 61.7 L 99.7 61.1 C 99.1 60.1 98.5 59.1 97.8 58.0 L 97.4 57.2 C 96.7 56.2 96.1 55.2 95.4 54.2 L 95.3 54.0 L 95.2 53.9 C 94.5 53.0 93.9 52.1 93.2 51.2 L 92.5 50.3 C 92.1 49.7 91.6 49.1 91.2 48.5 L 90.3 47.5 C 89.9 47.0 89.5 46.5 89.0 46.0 L 88.1 44.9 C 87.7 44.4 87.3 44.0 86.8 43.5 L 85.9 42.5 C 85.4 42.0 85.0 41.5 84.5 41.1 L 83.6 40.2 C 83.1 39.6 82.5 39.1 82.0 38.6 L 81.3 37.9 C 80.5 37.2 79.7 36.4 78.9 35.7 L 78.5 35.4 C 77.8 34.8 77.1 34.2 76.4 33.6 L 75.6 33.0 C 74.9 32.5 74.3 32.0 73.7 31.5 L 72.8 30.9 C 72.0 30.3 71.3 29.8 70.6 29.3 L 69.9 28.8 C 69.3 28.4 68.7 28.1 68.0 27.7 C 73.7 24.3 79.5 21.0 85.3 17.9 L 85.6 18.1 L 86.1 18.5 C 86.8 19.0 87.5 19.5 88.1 20.1 L 89.0 20.8 C 89.8 21.4 90.6 22.0 91.3 22.7 L 91.8 23.1 C 92.7 23.9 93.6 24.7 94.6 25.6 L 95.2 26.2 C 95.8 26.8 96.4 27.4 97.0 27.9 L 97.3 28.2 L 98.0 28.9 C 98.5 29.5 99.0 30.0 99.5 30.5 L 99.7 30.7 L 100.5 31.6 C 101.0 32.1 101.5 32.7 101.9 33.2 " fill="#F8E160"></path><path d="M 75.2 111.2 L 79.5 110.4 L 75.5 102.3 C 78.8 101.4 82.1 99.9 84.9 98.5 L 77.7 85.2 L 72.8 86.2 L 75.0 91.0 C 75.1 91.1 75.2 91.5 75.3 92.0 C 74.7 93.7 73.3 94.8 70.1 95.2 C 66.5 95.6 62.9 93.6 61.1 89.9 C 56.2 79.4 77.5 77.7 68.3 58.1 C 63.4 47.7 54.2 42.6 45.6 42.8 L 42.2 35.9 L 37.7 36.8 L 41.1 43.4 C 33.5 45.1 30.3 49.0 30.1 49.3 L 37.7 63.0 L 42.5 62.0 C 42.4 61.8 41.1 59.0 40.7 58.1 C 40.5 57.7 40.0 56.1 39.5 54.6 C 39.7 54.2 41.3 51.9 46.5 51.3 C 49.8 50.8 53.7 52.3 55.7 56.6 C 61.1 68.3 39.5 69.1 49.1 89.6 C 53.7 99.5 62.5 104.0 71.1 103.2 Z M 75.2 111.2 " fill="#E9A900"></path><path d="M 45.6 42.8 C 54.2 42.6 63.4 47.7 68.3 58.1 C 77.5 77.7 56.2 79.4 61.1 89.9 C 62.9 93.6 66.5 95.6 70.1 95.2 C 73.3 94.8 74.7 93.7 75.3 92.0 C 75.2 91.5 75.1 91.1 75.0 91.0 L 72.8 86.2 L 77.7 85.2 L 84.9 98.5 C 82.1 99.9 78.8 101.4 75.5 102.3 L 79.5 110.4 L 75.2 111.2 L 71.1 103.2 C 62.5 104.0 53.7 99.5 49.1 89.6 C 39.5 69.1 61.1 68.3 55.7 56.6 C 53.7 52.3 49.8 50.8 46.5 51.3 C 41.3 51.9 39.7 54.2 39.5 54.6 C 40.0 56.1 40.5 57.7 40.7 58.1 C 41.1 59.0 42.4 61.8 42.5 62.0 L 37.7 63.0 L 30.1 49.3 C 30.3 49.0 33.5 45.1 41.1 43.4 L 37.7 36.8 L 42.2 35.9 L 45.6 42.8 M 83.6 128.3 C 107.3 125.2 115.2 98.5 101.2 68.7 C 87.2 38.8 56.7 17.0 33.0 20.1 C 9.3 23.1 1.4 49.8 15.4 79.7 C 29.4 109.6 59.9 131.3 83.6 128.3 " fill="#D27813"></path><path d="M 33.1 54.6 L 37.7 63.0 L 42.5 62.0 C 42.4 61.8 41.1 59.0 40.7 58.1 C 40.5 57.7 40.0 56.1 39.5 54.6 C 39.7 54.2 41.3 51.9 46.5 51.3 C 49.8 50.8 53.7 52.3 55.7 56.6 C 61.1 68.3 39.5 69.1 49.1 89.6 C 53.7 99.5 62.5 104.0 71.1 103.2 L 73.1 107.2 C 69.7 113.2 66.3 119.3 63.1 125.5 C 44.4 118.8 25.6 101.4 15.4 79.7 C 15.2 79.3 15.1 78.9 14.9 78.5 C 20.9 70.5 26.9 62.5 33.1 54.6 " fill="#C46812"></path><path d="M 99.3 64.8 C 93.1 73.8 87.3 83.1 81.7 92.5 L 77.7 85.2 L 72.8 86.2 L 75.0 91.0 C 75.1 91.1 75.2 91.5 75.3 92.0 C 74.7 93.7 73.3 94.8 70.1 95.2 C 66.5 95.6 62.9 93.6 61.1 89.9 C 56.2 79.4 77.5 77.7 68.3 58.1 C 63.4 47.7 54.2 42.6 45.6 42.8 L 44.3 40.3 C 48.6 34.9 52.9 29.6 57.2 24.3 C 73.5 31.4 89.5 46.3 99.3 64.8 " fill="#C46812"></path><path d="M 75.7 102.7 L 75.5 102.3 C 75.6 102.3 75.8 102.2 76.0 102.1 C 75.9 102.3 75.8 102.5 75.7 102.7 " fill="#C46812"></path><path d="M 87.6 97.1 C 86.8 97.5 85.8 98.0 84.9 98.4 L 77.7 85.2 L 75.9 85.6 L 75.5 84.8 L 80.5 83.8 Z M 87.6 97.1 " fill="#BE5D00"></path><path d="M 72.8 93.8 C 73.4 93.7 73.9 93.6 74.4 93.5 C 73.5 94.3 72.2 94.9 70.1 95.2 C 66.5 95.6 62.9 93.6 61.1 89.9 C 56.2 79.4 77.5 77.7 68.3 58.1 C 63.4 47.7 54.2 42.6 45.6 42.8 L 42.2 35.9 L 40.8 36.2 L 40.4 35.4 L 44.9 34.6 L 48.3 41.4 C 57.0 41.2 66.2 46.3 71.0 56.7 C 80.2 76.4 58.9 78.0 63.8 88.5 C 65.6 92.3 69.2 94.2 72.8 93.8 " fill="#BE5D00"></path><path d="M 40.8 42.9 L 41.1 43.4 C 39.3 43.8 37.8 44.3 36.6 44.9 C 37.7 44.2 39.1 43.5 40.8 42.9 " fill="#BE5D00"></path><path d="M 18.1 78.3 C 32.1 108.2 62.7 129.9 86.3 126.9 C 89.2 126.5 91.9 125.8 94.3 124.8 C 91.2 126.5 87.6 127.8 83.6 128.3 C 59.9 131.3 29.4 109.6 15.4 79.7 C 3.1 53.5 7.7 29.7 25.1 22.2 C 10.0 30.9 6.5 53.5 18.1 78.3 " fill="#BE5D00"></path><path d="M 40.7 58.1 C 40.5 57.7 40.0 56.1 39.5 54.6 C 39.7 54.3 40.7 52.9 43.5 51.9 C 42.7 52.5 42.3 53.0 42.3 53.2 C 42.7 54.8 43.2 56.4 43.4 56.7 C 43.8 57.6 45.1 60.5 45.2 60.6 L 42.2 61.3 C 41.7 60.3 41.0 58.7 40.7 58.1 " fill="#BE5D00"></path><path d="M 75.5 102.3 C 76.4 102.0 77.4 101.7 78.4 101.4 L 82.2 109.0 L 79.1 109.6 Z M 75.5 102.3 " fill="#BE5D00"></path><path d="M 33.0 20.1 C 56.7 17.0 87.2 38.8 101.2 68.7 C 115.2 98.5 107.3 125.2 83.6 128.3 C 59.9 131.3 29.4 109.6 15.4 79.7 C 1.4 49.8 9.3 23.1 33.0 20.1 M 87.3 136.1 C 114.4 132.6 123.5 102.1 107.4 67.9 C 91.4 33.6 56.4 8.7 29.3 12.2 C 2.2 15.7 -6.8 46.3 9.2 80.5 C 25.2 114.7 60.2 139.6 87.3 136.1 " fill="#E8A205"></path><path d="M 70.0 95.2 C 67.9 97.6 65.8 100.1 63.8 102.5 C 57.8 100.9 52.4 96.7 49.1 89.6 C 39.8 69.7 59.8 68.3 56.1 57.7 C 58.1 54.9 60.1 52.1 62.1 49.4 C 64.5 51.7 66.7 54.6 68.3 58.1 C 77.5 77.7 56.2 79.4 61.1 89.9 C 62.9 93.6 66.5 95.6 70.0 95.2 " fill="#E29506"></path><path d="M 74.5 89.9 L 72.8 86.2 L 77.7 85.2 L 78.0 85.7 C 76.9 87.1 75.7 88.5 74.5 89.9 " fill="#E4A200"></path><path d="M 51.2 49.4 C 50.6 50.0 50.0 50.7 49.4 51.4 C 48.4 51.2 47.4 51.1 46.5 51.3 C 41.3 51.9 39.7 54.2 39.5 54.6 C 40.0 56.1 40.5 57.7 40.7 58.1 C 40.9 58.6 41.5 59.9 41.9 60.8 C 41.6 61.3 41.2 61.8 40.9 62.3 L 37.7 63.0 L 33.8 55.8 C 37.4 51.0 41.1 46.1 44.8 41.2 L 45.6 42.8 C 48.9 42.7 52.3 43.4 55.5 44.9 C 54.1 46.4 52.6 47.9 51.2 49.4 " fill="#E4A200"></path><path d="M 106.0 74.7 C 105.2 72.4 104.2 70.1 103.1 67.7 C 92.8 45.6 72.9 26.9 52.6 20.2 C 50.4 19.5 48.2 19.0 46.1 18.6 C 46.7 17.7 47.3 16.9 47.9 16.0 C 48.7 16.3 49.5 16.5 50.3 16.8 C 72.4 24.0 94.1 44.4 105.5 68.8 C 106.0 70.0 106.6 71.2 107.1 72.4 C 106.7 73.1 106.4 73.9 106.0 74.7 " fill="#D28700"></path><path d="M 13.5 80.6 C 23.9 102.8 43.7 121.5 64.1 128.1 C 70.1 130.1 75.9 130.9 81.3 130.6 C 80.8 131.8 80.2 133.0 79.7 134.2 C 75.5 134.0 71.0 133.1 66.3 131.6 C 44.2 124.3 22.5 103.9 11.1 79.6 C 10.3 77.8 9.6 76.1 8.9 74.4 C 9.3 73.7 9.7 73.0 10.1 72.4 C 11.1 75.1 12.2 77.8 13.5 80.6 " fill="#D28700"></path></g></g></g></svg>