<?xml version="1.0" encoding="UTF-8"?><svg xmlns="http://www.w3.org/2000/svg" xmlns:xlink="http://www.w3.org/1999/xlink" clip-rule="evenodd" stroke-miterlimit="4.00" viewBox="0 0 166 154"><desc>SVG generated by Keynote</desc><defs></defs><g transform="matrix(1.00, 0.00, -0.00, -1.00, 0.0, 154.0)"><g><clipPath id="clip-340"><path d="M 1.7 2.0 L 164.4 2.0 L 164.4 152.9 L 1.7 152.9 Z M 1.7 2.0 "></path></clipPath><g clip-path="url(#clip-340)"><path d="M 81.5 62.2 C 81.5 62.2 81.4 62.3 81.4 62.3 C 81.4 62.3 81.5 62.2 81.5 62.2 C 81.2 62.8 80.8 63.4 80.5 64.0 C 80.0 64.9 79.6 65.8 79.1 66.8 C 79.0 66.8 79.0 66.9 79.0 67.0 C 78.6 67.7 78.3 68.4 78.1 69.1 C 78.0 69.2 78.0 69.3 77.9 69.4 C 77.8 69.8 77.6 70.2 77.5 70.6 C 77.5 70.8 77.4 70.9 77.4 71.0 C 77.3 71.4 77.2 71.8 77.1 72.2 C 77.1 72.3 77.0 72.3 77.0 72.4 C 77.0 72.6 77.0 72.7 76.9 72.9 C 76.9 73.2 76.8 73.4 76.8 73.7 C 76.8 73.8 76.8 73.9 76.8 74.0 C 76.7 74.3 76.7 74.7 76.7 75.0 C 76.7 75.1 76.7 75.3 76.7 75.4 C 76.7 75.7 76.7 76.0 76.7 76.3 C 76.7 76.6 76.7 76.8 76.7 77.0 C 76.8 77.2 76.8 77.5 76.8 77.8 C 76.8 78.0 76.9 78.3 77.0 78.6 C 77.0 78.8 77.0 79.1 77.1 79.3 C 77.2 79.9 77.4 80.5 77.6 81.2 C 77.7 81.6 77.9 81.9 78.0 82.3 C 78.1 82.5 78.1 82.6 78.2 82.8 C 78.2 82.8 78.2 82.9 78.3 82.9 C 78.4 83.3 78.6 83.7 78.8 84.1 C 78.9 84.3 79.0 84.5 79.2 84.8 C 79.3 85.0 79.5 85.3 79.6 85.6 C 79.8 85.9 79.9 86.1 80.1 86.3 C 80.3 86.6 80.4 86.9 80.6 87.2 C 80.8 87.4 80.9 87.7 81.1 87.9 C 81.6 88.6 82.1 89.3 82.7 90.0 C 83.1 90.6 83.5 91.1 84.0 91.6 C 84.1 91.7 84.2 91.8 84.3 91.9 C 84.3 92.0 84.3 92.0 84.4 92.0 C 84.8 91.2 85.3 90.3 85.8 89.4 C 86.4 88.4 86.9 87.3 87.5 86.2 C 87.5 86.1 87.6 86.1 87.6 86.0 C 87.9 85.4 88.2 84.7 88.4 84.1 C 88.5 84.0 88.5 83.9 88.6 83.7 C 88.8 83.3 88.9 82.8 89.1 82.3 C 89.1 82.2 89.1 82.2 89.1 82.2 C 89.2 81.8 89.3 81.3 89.4 80.9 C 89.5 80.7 89.5 80.5 89.6 80.3 C 89.6 80.1 89.6 79.9 89.7 79.6 C 89.7 79.4 89.7 79.1 89.8 78.8 C 89.8 78.7 89.8 78.5 89.8 78.3 C 89.8 77.9 89.8 77.5 89.8 77.1 C 89.8 77.1 89.8 77.0 89.8 77.0 C 89.8 76.5 89.8 76.1 89.7 75.6 C 89.6 75.1 89.6 74.6 89.5 74.1 C 89.4 74.0 89.4 74.0 89.4 74.0 C 89.3 73.4 89.1 72.8 88.9 72.2 C 88.8 71.9 88.7 71.6 88.6 71.3 C 88.5 71.1 88.5 70.9 88.4 70.8 C 88.2 70.4 88.1 70.0 87.9 69.6 C 87.8 69.5 87.7 69.3 87.7 69.2 C 87.4 68.7 87.1 68.1 86.8 67.6 C 86.7 67.4 86.6 67.3 86.5 67.2 C 86.3 66.8 86.0 66.3 85.7 65.9 C 85.3 65.3 84.7 64.6 84.2 63.8 C 83.8 63.3 83.3 62.8 82.9 62.3 C 82.8 62.2 82.6 62.0 82.5 61.8 C 82.3 61.6 82.1 61.5 81.9 61.3 C 81.9 61.3 81.9 61.3 81.9 61.3 C 81.9 61.4 81.8 61.6 81.7 61.7 C 81.6 61.9 81.6 62.0 81.5 62.2 M 105.7 101.0 C 105.9 101.0 106.0 101.0 106.1 101.0 C 107.0 100.9 107.9 100.8 108.8 100.6 C 109.0 100.6 109.2 100.6 109.4 100.5 C 109.4 100.5 109.4 100.5 109.4 100.5 L 106.1 96.8 L 102.8 101.1 C 103.0 101.1 103.1 101.1 103.3 101.1 C 104.1 101.1 104.9 101.1 105.7 101.0 M 51.7 50.0 L 51.4 50.3 L 57.5 57.1 L 61.8 51.5 C 61.8 51.5 61.7 51.5 61.6 51.5 C 60.8 51.4 60.0 51.4 59.1 51.4 C 59.0 51.4 58.8 51.4 58.6 51.5 C 57.9 51.5 57.3 51.6 56.6 51.6 C 56.4 51.7 56.1 51.7 55.9 51.7 C 55.1 51.9 54.3 52.0 53.5 52.2 Z M 37.3 63.9 C 37.4 63.8 37.4 63.8 37.4 63.7 C 37.5 63.6 37.5 63.5 37.7 63.3 C 37.7 63.3 37.7 63.3 37.7 63.3 C 37.8 63.0 38.0 62.7 38.3 62.4 C 38.3 62.3 38.3 62.3 38.4 62.2 C 38.5 62.0 38.6 61.9 38.8 61.7 L 46.4 51.8 L 42.7 47.4 L 42.7 47.4 L 42.7 47.4 L 54.9 31.6 L 59.8 29.4 L 65.7 36.4 C 66.5 36.2 67.3 36.1 68.1 35.9 C 68.4 35.9 68.6 35.9 68.8 35.8 C 69.5 35.7 70.2 35.7 70.8 35.6 C 71.0 35.6 71.2 35.6 71.3 35.6 C 72.2 35.6 73.0 35.6 73.9 35.6 C 74.1 35.7 74.3 35.7 74.5 35.7 C 75.1 35.8 75.8 35.8 76.5 35.9 C 76.6 36.0 76.8 36.0 76.9 36.0 C 77.0 36.0 77.1 36.0 77.2 36.1 C 77.7 36.1 78.1 36.2 78.5 36.3 C 78.7 36.4 78.9 36.4 79.2 36.5 C 79.2 36.5 79.3 36.5 79.4 36.5 C 79.6 36.6 79.8 36.7 80.1 36.7 C 80.3 36.8 80.6 36.9 80.9 36.9 C 81.0 37.0 81.2 37.1 81.4 37.1 C 81.5 37.2 81.7 37.2 81.9 37.3 C 82.0 37.3 82.1 37.4 82.3 37.4 C 82.7 37.6 83.1 37.8 83.5 37.9 C 83.5 38.0 83.6 38.0 83.6 38.0 C 83.6 38.0 83.7 38.0 83.7 38.0 C 84.0 38.2 84.3 38.3 84.6 38.4 C 84.9 38.6 85.2 38.7 85.5 38.9 L 85.6 38.9 C 85.6 38.9 85.6 39.0 85.6 39.0 C 86.0 39.1 86.3 39.3 86.6 39.5 C 86.9 39.7 87.2 39.8 87.5 40.0 C 87.5 40.0 87.5 40.0 87.5 40.0 L 87.6 40.1 C 87.9 40.3 88.2 40.5 88.5 40.7 C 88.8 40.9 89.1 41.1 89.4 41.3 C 89.4 41.3 89.4 41.3 89.4 41.3 C 89.4 41.3 89.4 41.3 89.4 41.3 C 89.7 41.5 90.1 41.8 90.4 42.0 C 90.6 42.2 90.9 42.5 91.2 42.7 C 91.2 42.7 91.3 42.7 91.3 42.7 C 91.3 42.8 91.3 42.8 91.3 42.8 C 91.6 43.0 92.0 43.3 92.3 43.6 C 92.5 43.8 92.7 44.0 92.8 44.1 C 93.0 44.2 93.1 44.3 93.2 44.4 C 93.2 44.5 93.3 44.6 93.4 44.7 C 93.8 45.1 94.2 45.5 94.6 45.9 C 94.6 45.9 94.6 46.0 94.7 46.0 C 94.8 46.2 95.0 46.4 95.1 46.5 C 95.4 46.9 95.7 47.2 96.0 47.5 C 96.1 47.7 96.3 47.9 96.4 48.0 C 97.0 48.7 97.5 49.4 97.9 50.1 C 98.0 50.2 98.0 50.2 98.1 50.3 C 98.3 50.7 98.5 51.0 98.7 51.4 C 98.8 51.5 98.9 51.6 99.0 51.8 C 99.3 52.3 99.6 52.9 99.9 53.4 C 100.0 53.5 100.0 53.6 100.1 53.8 C 100.3 54.2 100.4 54.6 100.6 55.0 C 100.7 55.1 100.8 55.3 100.8 55.5 C 100.9 55.7 101.0 55.9 101.1 56.1 C 101.1 56.2 101.1 56.3 101.1 56.4 C 101.3 57.0 101.5 57.6 101.6 58.2 C 101.7 58.2 101.7 58.2 101.7 58.2 C 101.7 58.2 101.7 58.3 101.7 58.3 C 101.8 58.8 101.9 59.3 101.9 59.8 C 101.9 59.8 101.9 59.8 101.9 59.8 C 102.0 60.3 102.0 60.7 102.0 61.2 C 102.0 61.2 102.0 61.2 102.0 61.2 C 102.0 61.2 102.0 61.3 102.0 61.3 C 102.0 61.7 102.0 62.1 102.0 62.4 C 102.0 62.5 102.0 62.5 102.0 62.5 C 102.0 62.7 102.0 62.8 102.0 63.0 C 101.9 63.2 101.9 63.5 101.9 63.7 C 101.9 63.7 101.9 63.8 101.9 63.8 C 101.9 64.0 101.8 64.3 101.8 64.5 C 101.7 64.7 101.7 64.8 101.7 65.0 C 101.7 65.0 101.7 65.1 101.7 65.1 C 101.6 65.5 101.4 66.0 101.3 66.4 C 101.3 66.4 101.3 66.4 101.3 66.4 C 101.3 66.4 101.3 66.5 101.3 66.5 C 101.2 67.0 101.0 67.4 100.8 67.9 C 100.8 68.0 100.8 68.0 100.7 68.1 C 100.7 68.1 100.7 68.2 100.7 68.3 C 100.4 68.9 100.1 69.6 99.8 70.2 C 99.8 70.2 99.8 70.2 99.8 70.3 C 99.8 70.3 99.7 70.3 99.7 70.4 C 99.2 71.5 98.6 72.6 98.0 73.6 C 97.4 74.7 96.8 75.7 96.4 76.7 C 96.3 76.7 96.3 76.8 96.2 76.9 C 96.0 77.4 95.8 77.8 95.6 78.3 C 95.6 78.4 95.5 78.5 95.5 78.6 C 95.4 78.8 95.3 79.1 95.2 79.3 C 95.2 79.5 95.1 79.8 95.1 80.0 C 95.1 80.1 95.0 80.1 95.0 80.2 C 94.9 80.5 94.9 80.8 94.9 81.1 C 94.9 81.1 94.9 81.2 94.8 81.2 C 94.8 81.5 94.8 81.7 94.8 82.0 C 94.8 82.0 94.8 82.1 94.8 82.2 C 94.8 82.4 94.8 82.7 94.9 83.0 C 94.9 83.1 94.9 83.1 94.9 83.2 C 94.9 83.4 95.0 83.6 95.0 83.8 C 95.1 84.0 95.1 84.2 95.2 84.4 C 95.3 84.5 95.3 84.7 95.4 84.8 C 95.5 85.2 95.7 85.6 96.0 86.1 C 96.2 86.4 96.4 86.7 96.7 87.0 C 97.1 87.5 97.5 88.0 97.9 88.4 C 97.9 88.4 97.9 88.4 98.0 88.4 C 98.4 88.8 98.8 89.2 99.3 89.5 C 99.3 89.5 99.3 89.5 99.3 89.5 C 99.8 89.8 100.3 90.1 100.8 90.3 L 100.8 90.3 C 100.8 90.4 100.9 90.4 101.0 90.4 L 109.3 79.6 L 114.8 77.0 L 126.8 90.6 L 119.2 100.4 L 123.8 105.9 L 111.6 121.7 L 106.7 123.9 L 99.8 115.6 C 98.9 115.9 98.0 116.1 97.1 116.3 C 97.0 116.4 96.8 116.4 96.6 116.4 C 95.7 116.6 94.8 116.7 93.9 116.8 C 93.8 116.8 93.7 116.8 93.5 116.8 C 92.7 116.9 91.9 116.9 91.1 116.9 C 90.9 116.9 90.7 116.9 90.6 116.9 C 89.7 116.8 88.8 116.7 87.9 116.6 C 87.8 116.6 87.7 116.6 87.7 116.6 C 87.5 116.5 87.3 116.5 87.1 116.4 C 86.7 116.4 86.4 116.3 86.0 116.2 C 85.9 116.2 85.8 116.2 85.7 116.1 C 85.4 116.1 85.1 116.0 84.8 115.9 C 84.7 115.9 84.5 115.8 84.4 115.8 C 84.3 115.8 84.3 115.7 84.2 115.7 C 83.8 115.6 83.4 115.4 83.0 115.3 C 82.9 115.3 82.8 115.2 82.7 115.2 C 82.6 115.1 82.5 115.1 82.4 115.1 C 82.3 115.0 82.1 114.9 81.9 114.9 C 81.6 114.7 81.3 114.6 81.0 114.4 C 80.9 114.4 80.8 114.4 80.8 114.3 C 80.7 114.3 80.7 114.3 80.6 114.2 C 80.4 114.2 80.2 114.1 80.0 114.0 C 79.7 113.8 79.5 113.7 79.2 113.5 C 79.1 113.5 79.0 113.4 79.0 113.4 C 78.9 113.3 78.8 113.3 78.8 113.3 C 78.6 113.2 78.5 113.1 78.3 113.0 C 78.1 112.8 77.8 112.7 77.5 112.5 C 77.4 112.4 77.3 112.3 77.2 112.2 C 77.1 112.2 77.1 112.1 77.0 112.1 C 76.9 112.0 76.8 112.0 76.7 111.9 C 76.4 111.7 76.2 111.5 75.9 111.3 C 75.7 111.2 75.6 111.1 75.4 110.9 C 75.4 110.9 75.3 110.8 75.2 110.8 C 75.2 110.7 75.1 110.7 75.0 110.6 C 74.7 110.4 74.5 110.1 74.2 109.8 C 74.0 109.7 73.9 109.6 73.8 109.5 C 73.7 109.4 73.6 109.3 73.5 109.2 C 73.4 109.1 73.3 109.0 73.2 108.9 C 72.8 108.6 72.5 108.2 72.1 107.8 C 72.1 107.8 72.1 107.8 72.1 107.7 C 72.0 107.6 71.9 107.5 71.8 107.4 C 71.4 107.0 71.1 106.7 70.8 106.3 C 70.7 106.1 70.6 106.0 70.5 105.9 C 69.9 105.1 69.3 104.4 68.9 103.7 C 68.8 103.6 68.7 103.5 68.7 103.4 C 68.6 103.3 68.5 103.2 68.4 103.0 C 68.2 102.7 68.0 102.4 67.9 102.1 C 67.7 101.9 67.6 101.7 67.4 101.4 C 67.3 101.1 67.1 100.8 66.9 100.6 C 66.8 100.3 66.7 100.1 66.6 99.9 C 66.5 99.8 66.5 99.7 66.4 99.6 C 66.3 99.3 66.2 99.0 66.1 98.7 C 66.0 98.7 66.0 98.6 66.0 98.6 C 66.0 98.5 66.0 98.5 66.0 98.5 C 66.0 98.5 66.0 98.5 66.0 98.5 L 66.0 98.5 C 66.0 98.5 66.0 98.5 66.0 98.5 C 65.9 98.4 65.9 98.3 65.8 98.1 C 65.7 97.8 65.5 97.4 65.4 97.1 C 65.4 97.1 65.4 97.0 65.4 97.0 C 65.2 96.4 65.0 95.7 64.9 95.1 C 64.9 95.1 64.8 95.0 64.8 95.0 C 64.8 94.8 64.8 94.6 64.7 94.4 C 64.7 94.1 64.6 93.9 64.6 93.6 C 64.6 93.5 64.6 93.5 64.6 93.4 C 64.5 93.2 64.5 93.0 64.5 92.8 C 64.5 92.6 64.5 92.4 64.5 92.2 C 64.5 92.1 64.5 92.1 64.5 92.0 C 64.5 91.8 64.5 91.5 64.5 91.2 C 64.5 91.1 64.5 90.9 64.5 90.8 C 64.5 90.8 64.5 90.8 64.5 90.8 C 64.5 90.4 64.5 90.1 64.6 89.8 C 64.6 89.7 64.6 89.6 64.6 89.5 C 64.6 89.5 64.6 89.5 64.6 89.5 C 64.6 89.2 64.7 89.0 64.7 88.7 C 64.8 88.6 64.8 88.4 64.8 88.2 L 64.8 88.2 C 64.8 88.1 64.8 88.1 64.9 88.1 C 64.9 87.6 65.1 87.2 65.2 86.8 C 65.2 86.8 65.2 86.7 65.2 86.7 C 65.2 86.6 65.3 86.5 65.3 86.5 C 65.4 86.0 65.6 85.6 65.7 85.2 C 65.7 85.2 65.8 85.1 65.8 85.0 C 65.8 85.0 65.8 84.9 65.8 84.9 C 66.1 84.2 66.4 83.5 66.8 82.8 C 66.8 82.8 66.8 82.7 66.8 82.7 C 66.8 82.7 66.9 82.6 66.9 82.6 C 67.3 81.6 67.8 80.7 68.3 79.8 C 68.7 79.0 69.1 78.3 69.5 77.5 C 69.6 77.3 69.7 77.1 69.8 76.9 C 70.0 76.6 70.1 76.2 70.3 75.9 C 70.4 75.6 70.5 75.4 70.5 75.2 C 70.6 75.0 70.6 74.9 70.7 74.7 C 70.8 74.4 70.9 74.0 71.0 73.6 C 71.0 73.5 71.1 73.5 71.1 73.4 C 71.2 73.0 71.3 72.5 71.3 72.0 C 71.3 72.0 71.3 72.0 71.3 71.9 C 71.3 71.4 71.3 70.9 71.3 70.4 C 71.3 70.4 71.3 70.4 71.3 70.4 C 71.2 70.0 71.1 69.6 71.0 69.1 C 70.9 69.0 70.9 68.9 70.8 68.7 C 70.8 68.5 70.6 68.3 70.5 68.1 C 70.4 67.7 70.2 67.3 70.0 66.9 C 69.7 66.5 69.4 66.0 69.1 65.6 C 68.6 65.0 68.2 64.5 67.7 64.1 C 67.7 64.1 67.7 64.1 67.7 64.1 C 67.2 63.6 66.7 63.3 66.2 62.9 L 66.2 62.9 C 65.9 62.7 65.5 62.6 65.2 62.4 L 55.1 75.4 L 49.9 78.0 L 37.3 64.0 C 37.3 64.0 37.3 64.0 37.3 64.0 C 37.3 63.9 37.3 63.9 37.3 63.9 " fill="#855F13"></path><path d="M 25.4 33.0 C 25.4 33.0 25.3 33.1 25.3 33.2 C 25.1 33.8 24.9 34.5 24.7 35.1 C 24.6 35.5 24.5 35.9 24.4 36.3 C 24.3 36.8 24.2 37.2 24.1 37.7 C 24.1 38.2 24.0 38.7 23.9 39.2 C 23.8 39.6 23.8 40.1 23.7 40.6 C 23.7 41.1 23.6 41.7 23.6 42.3 C 23.5 42.7 23.5 43.1 23.5 43.6 C 23.5 44.3 23.5 45.0 23.5 45.7 C 23.5 46.1 23.5 46.5 23.5 46.9 C 23.6 48.1 23.6 49.2 23.8 50.4 C 23.8 50.5 23.8 50.5 23.8 50.6 C 23.9 52.0 24.2 53.5 24.5 54.9 C 24.6 55.4 24.7 55.8 24.8 56.2 C 24.9 56.9 25.1 57.5 25.3 58.2 C 25.4 58.7 25.5 59.2 25.7 59.7 C 25.9 60.4 26.1 61.1 26.3 61.8 C 26.5 62.2 26.6 62.7 26.8 63.1 C 27.3 64.5 27.8 65.9 28.4 67.3 C 28.5 67.6 28.6 67.8 28.7 68.1 C 29.2 69.3 29.8 70.5 30.4 71.7 C 30.6 72.1 30.8 72.5 31.0 72.9 C 31.7 74.2 32.4 75.4 33.1 76.7 C 33.2 76.9 33.3 77.1 33.4 77.2 C 34.3 78.7 35.2 80.1 36.2 81.5 C 36.6 82.2 37.1 82.8 37.5 83.5 C 37.8 83.8 38.0 84.2 38.3 84.5 C 39.0 85.6 39.8 86.6 40.7 87.7 C 41.2 88.4 41.8 89.1 42.4 89.8 C 43.3 90.9 44.3 92.1 45.3 93.2 C 45.7 93.5 46.0 93.9 46.3 94.3 C 47.2 95.3 48.2 96.2 49.1 97.2 C 49.4 97.4 49.6 97.7 49.8 97.9 C 50.9 99.0 52.1 100.1 53.2 101.1 C 53.2 101.1 53.3 101.1 53.3 101.1 C 53.4 101.2 53.5 101.3 53.6 101.4 C 54.6 102.4 55.6 103.3 56.7 104.1 C 56.9 104.3 57.1 104.5 57.3 104.6 C 58.3 105.4 59.2 106.2 60.1 106.9 C 60.5 107.2 60.9 107.5 61.3 107.8 C 62.1 108.3 62.8 108.9 63.6 109.5 C 64.1 109.8 64.5 110.1 65.0 110.4 C 65.7 110.9 66.4 111.4 67.2 111.9 C 67.7 112.2 68.1 112.6 68.6 112.9 C 69.3 113.3 70.0 113.8 70.8 114.2 C 71.3 114.5 71.8 114.8 72.3 115.1 C 73.0 115.5 73.7 116.0 74.4 116.3 C 75.0 116.6 75.5 116.9 76.1 117.2 C 76.7 117.6 77.4 118.0 78.1 118.3 C 78.7 118.6 79.3 118.9 79.9 119.2 C 80.5 119.5 81.2 119.8 81.9 120.1 C 82.5 120.4 83.2 120.7 83.8 121.0 C 84.4 121.3 85.1 121.6 85.7 121.8 C 86.4 122.1 87.2 122.4 87.9 122.7 C 88.5 122.9 89.1 123.2 89.7 123.4 C 90.6 123.7 91.5 124.0 92.3 124.3 C 92.9 124.5 93.4 124.7 93.9 124.8 C 95.3 125.3 96.7 125.7 98.1 126.0 C 98.3 126.1 98.5 126.1 98.7 126.2 C 100.6 126.7 102.5 127.1 104.4 127.4 C 105.3 127.6 106.2 127.7 107.1 127.8 C 107.5 127.9 108.0 128.0 108.4 128.0 C 109.8 128.2 111.1 128.3 112.5 128.4 C 112.5 128.4 112.6 128.4 112.6 128.4 C 114.0 128.5 115.4 128.5 116.7 128.5 C 117.2 128.5 117.6 128.5 118.0 128.5 C 118.9 128.4 119.9 128.4 120.8 128.3 C 121.3 128.3 121.7 128.2 122.2 128.2 C 123.1 128.1 123.9 128.0 124.7 127.9 C 125.2 127.8 125.7 127.7 126.1 127.6 C 127.0 127.5 127.9 127.3 128.7 127.1 C 129.1 127.0 129.5 126.9 129.9 126.8 C 131.1 126.4 132.3 126.1 133.5 125.6 C 136.1 124.6 138.5 123.4 140.7 121.9 C 140.8 121.7 140.9 121.4 140.9 121.2 C 141.3 120.2 141.5 119.1 141.8 118.1 C 141.8 118.0 141.8 118.0 141.8 118.0 C 142.0 116.9 142.2 115.8 142.3 114.6 C 142.4 114.2 142.4 113.9 142.4 113.5 C 142.5 112.7 142.5 111.9 142.6 111.1 C 142.6 110.6 142.6 110.1 142.6 109.5 C 142.6 108.8 142.6 108.1 142.5 107.4 C 142.5 106.7 142.4 106.1 142.4 105.4 C 142.3 104.7 142.2 104.1 142.2 103.5 C 142.0 102.5 141.9 101.5 141.7 100.5 C 141.6 99.9 141.4 99.3 141.3 98.7 C 141.2 98.2 141.1 97.7 140.9 97.2 C 140.7 96.3 140.5 95.5 140.2 94.7 C 140.1 94.1 139.9 93.6 139.8 93.1 C 139.5 92.4 139.3 91.6 139.0 90.9 C 138.7 90.0 138.4 89.2 138.0 88.3 C 137.7 87.7 137.4 87.0 137.1 86.3 C 136.7 85.4 136.3 84.6 135.9 83.7 C 135.6 83.0 135.2 82.3 134.9 81.6 C 134.4 80.8 133.9 79.9 133.4 79.0 C 133.0 78.3 132.6 77.7 132.2 77.0 C 131.7 76.1 131.1 75.2 130.5 74.3 C 130.0 73.6 129.6 72.8 129.0 72.1 C 128.8 71.8 128.6 71.4 128.4 71.1 C 127.4 69.8 126.4 68.5 125.4 67.2 C 124.9 66.6 124.4 66.0 124.0 65.4 C 122.8 63.9 121.5 62.5 120.3 61.1 C 120.1 60.9 119.9 60.7 119.6 60.5 C 118.7 59.5 117.8 58.5 116.8 57.6 C 116.6 57.3 116.3 57.0 116.0 56.7 C 115.0 55.7 113.9 54.7 112.8 53.7 C 112.8 53.7 112.8 53.7 112.8 53.7 C 111.8 52.8 110.7 51.9 109.7 51.0 C 109.3 50.7 109.0 50.4 108.6 50.1 C 108.0 49.6 107.3 49.0 106.6 48.5 C 106.2 48.2 105.8 47.8 105.4 47.5 C 104.7 47.1 104.1 46.6 103.5 46.1 C 103.0 45.8 102.6 45.5 102.2 45.2 C 101.5 44.7 100.9 44.3 100.3 43.9 C 99.9 43.6 99.4 43.3 99.0 43.0 C 98.3 42.6 97.7 42.1 97.0 41.7 C 96.6 41.5 96.2 41.2 95.8 40.9 C 95.0 40.5 94.3 40.0 93.5 39.6 C 93.2 39.4 92.8 39.2 92.5 39.0 C 91.4 38.4 90.3 37.8 89.2 37.2 C 89.0 37.1 88.8 37.0 88.6 36.9 C 87.7 36.4 86.7 35.9 85.7 35.4 C 85.4 35.3 85.0 35.1 84.6 34.9 C 83.8 34.5 83.0 34.2 82.1 33.8 C 81.7 33.6 81.3 33.4 80.9 33.3 C 79.9 32.9 79.0 32.5 78.0 32.1 C 77.7 32.0 77.4 31.9 77.1 31.7 C 75.7 31.2 74.4 30.8 73.1 30.3 C 72.8 30.2 72.5 30.2 72.2 30.1 C 70.7 29.6 69.3 29.2 67.8 28.8 C 67.7 28.8 67.5 28.7 67.4 28.7 C 65.3 28.2 63.1 27.7 61.0 27.3 C 61.0 27.3 60.9 27.3 60.9 27.3 C 59.8 27.1 58.7 27.0 57.5 26.8 C 57.2 26.8 56.8 26.8 56.4 26.7 C 55.6 26.6 54.8 26.6 54.0 26.5 C 53.6 26.5 53.2 26.5 52.8 26.4 C 52.0 26.4 51.3 26.4 50.5 26.4 C 50.1 26.4 49.8 26.4 49.4 26.4 C 48.3 26.4 47.2 26.4 46.1 26.5 C 46.1 26.5 46.0 26.5 46.0 26.5 C 45.0 26.5 43.9 26.6 42.9 26.8 C 42.5 26.8 42.2 26.9 41.9 26.9 C 41.1 27.0 40.4 27.1 39.7 27.3 C 39.3 27.4 39.0 27.4 38.6 27.5 C 37.9 27.7 37.2 27.8 36.5 28.0 C 36.2 28.1 35.8 28.2 35.5 28.3 C 34.5 28.6 33.6 28.9 32.6 29.2 C 29.9 30.2 27.6 31.5 25.4 33.0 M 164.3 100.0 C 164.3 100.6 164.2 101.1 164.2 101.7 C 164.1 102.2 164.1 102.6 164.0 103.1 C 164.0 103.2 164.0 103.4 164.0 103.6 C 163.8 104.7 163.7 105.8 163.4 106.9 C 163.4 106.9 163.4 106.9 163.4 106.9 C 163.4 107.0 163.4 107.0 163.4 107.0 C 163.2 108.0 162.9 109.0 162.6 110.0 C 162.6 110.2 162.5 110.4 162.5 110.6 C 162.3 110.9 162.2 111.3 162.1 111.6 C 162.0 112.0 161.8 112.5 161.7 112.9 C 161.5 113.4 161.3 113.8 161.1 114.2 C 161.0 114.5 160.8 114.8 160.7 115.1 C 160.6 115.3 160.6 115.5 160.5 115.6 C 160.0 116.5 159.6 117.4 159.1 118.3 C 159.1 118.3 159.0 118.3 159.0 118.3 C 158.9 118.5 158.9 118.6 158.8 118.7 C 158.4 119.4 157.9 120.1 157.5 120.7 C 157.2 121.1 157.0 121.4 156.7 121.7 L 144.5 137.6 C 145.2 136.6 145.9 135.5 146.6 134.5 C 146.7 134.4 146.7 134.3 146.8 134.2 C 147.4 133.1 148.0 132.0 148.5 130.9 C 148.6 130.6 148.8 130.3 148.9 130.0 C 149.3 129.2 149.6 128.3 149.9 127.4 C 150.0 127.1 150.1 126.7 150.2 126.4 C 150.6 125.2 150.9 124.1 151.2 122.8 C 151.2 122.8 151.2 122.8 151.2 122.7 C 151.5 121.5 151.7 120.2 151.8 118.9 C 151.9 118.4 151.9 118.0 151.9 117.5 C 152.0 116.7 152.1 115.8 152.1 114.9 C 152.1 114.3 152.1 113.7 152.1 113.0 C 152.1 112.2 152.1 111.4 152.1 110.6 C 152.0 110.0 152.0 109.3 151.9 108.7 C 151.8 108.9 151.7 109.1 151.6 109.3 C 151.5 109.5 151.5 109.7 151.4 109.8 C 151.0 110.6 150.6 111.3 150.2 112.1 C 150.2 112.1 150.2 112.1 150.2 112.1 C 150.1 112.3 150.0 112.3 150.0 112.5 C 149.6 113.1 149.2 113.7 148.8 114.2 C 148.6 114.5 148.4 114.8 148.1 115.1 C 148.1 115.1 148.1 115.1 148.1 115.1 L 135.9 130.9 L 135.9 130.9 C 135.9 130.9 135.9 130.9 135.9 130.9 C 135.0 132.1 134.1 133.2 133.0 134.2 C 129.9 137.2 125.9 139.7 121.3 141.4 C 120.1 141.9 118.9 142.3 117.7 142.6 C 117.3 142.7 116.9 142.8 116.5 142.9 C 115.6 143.1 114.8 143.3 113.9 143.4 C 113.5 143.5 113.0 143.6 112.5 143.7 C 111.7 143.8 110.9 143.9 110.0 144.0 C 109.5 144.1 109.0 144.1 108.6 144.1 C 107.6 144.2 106.7 144.2 105.8 144.3 C 105.4 144.3 105.0 144.3 104.5 144.3 C 103.2 144.3 101.8 144.3 100.4 144.2 C 100.4 144.2 100.3 144.2 100.3 144.2 C 98.9 144.1 97.6 144.0 96.2 143.8 C 95.8 143.8 95.3 143.7 94.8 143.6 C 94.2 143.5 93.5 143.5 92.8 143.3 C 92.6 143.3 92.4 143.2 92.2 143.2 C 90.4 142.9 88.5 142.5 86.6 142.0 C 86.5 142.0 86.5 142.0 86.4 142.0 C 86.4 142.0 86.4 142.0 86.4 142.0 C 86.2 141.9 86.0 141.9 85.9 141.8 C 84.5 141.5 83.1 141.1 81.7 140.6 C 81.5 140.6 81.3 140.5 81.1 140.5 C 80.8 140.4 80.5 140.2 80.1 140.1 C 79.2 139.8 78.4 139.5 77.5 139.2 C 77.2 139.1 76.8 139.0 76.5 138.9 C 76.3 138.8 76.0 138.6 75.7 138.5 C 75.0 138.2 74.2 137.9 73.5 137.6 C 73.1 137.5 72.7 137.3 72.4 137.2 C 72.1 137.1 71.9 136.9 71.6 136.8 C 70.9 136.5 70.3 136.2 69.6 135.9 C 69.2 135.8 68.8 135.6 68.4 135.4 C 68.2 135.3 67.9 135.1 67.7 135.0 C 67.1 134.7 66.5 134.4 65.9 134.1 C 65.5 133.9 65.1 133.8 64.7 133.5 C 64.4 133.4 64.1 133.2 63.8 133.0 C 63.3 132.8 62.8 132.5 62.2 132.2 C 61.9 132.0 61.5 131.8 61.2 131.6 C 60.8 131.4 60.5 131.2 60.1 130.9 C 59.6 130.6 59.1 130.3 58.6 130.0 C 58.3 129.9 58.0 129.7 57.8 129.5 C 57.3 129.3 56.9 129.0 56.4 128.7 C 55.9 128.4 55.4 128.1 55.0 127.7 C 54.8 127.6 54.6 127.5 54.4 127.4 C 53.8 127.0 53.3 126.6 52.7 126.2 C 52.3 125.9 51.9 125.6 51.4 125.3 C 51.3 125.2 51.2 125.1 51.1 125.1 C 50.4 124.6 49.7 124.1 49.1 123.6 C 48.7 123.3 48.3 123.0 47.9 122.7 C 47.9 122.7 47.8 122.6 47.7 122.6 C 46.9 121.9 46.0 121.2 45.1 120.5 C 44.9 120.3 44.7 120.1 44.5 119.9 C 44.5 119.9 44.4 119.9 44.4 119.9 C 43.4 119.0 42.4 118.2 41.4 117.3 C 41.3 117.2 41.2 117.1 41.0 117.0 C 41.0 117.0 41.0 116.9 41.0 116.9 C 39.9 115.9 38.7 114.8 37.6 113.7 C 37.6 113.7 37.5 113.6 37.5 113.6 C 37.3 113.4 37.1 113.2 36.9 113.0 C 35.9 112.0 35.0 111.1 34.1 110.1 C 34.0 110.0 33.9 109.8 33.7 109.7 C 33.5 109.5 33.3 109.2 33.1 109.0 C 32.1 107.9 31.1 106.7 30.2 105.6 C 30.0 105.3 29.7 105.1 29.5 104.9 C 29.2 104.4 28.8 104.0 28.4 103.5 C 27.6 102.5 26.8 101.4 26.0 100.3 C 25.8 100.0 25.5 99.6 25.3 99.3 C 24.9 98.8 24.6 98.3 24.2 97.8 C 24.1 97.6 24.0 97.5 23.9 97.3 C 23.0 95.9 22.1 94.5 21.2 93.0 C 21.1 92.9 21.0 92.7 20.9 92.5 C 20.2 91.2 19.5 90.0 18.8 88.7 C 18.6 88.3 18.4 87.9 18.2 87.5 C 17.6 86.3 17.0 85.1 16.5 83.9 C 16.4 83.6 16.3 83.4 16.2 83.2 C 15.6 81.7 15.0 80.3 14.5 79.0 C 14.5 78.8 14.4 78.7 14.4 78.6 C 14.3 78.2 14.2 77.9 14.1 77.6 C 13.9 76.9 13.6 76.2 13.4 75.5 C 13.3 75.0 13.2 74.5 13.0 74.0 C 12.9 73.3 12.7 72.7 12.5 72.0 C 12.5 71.8 12.4 71.5 12.4 71.3 C 12.3 71.1 12.3 70.9 12.3 70.7 C 12.0 69.3 11.7 67.8 11.6 66.4 C 11.6 66.4 11.6 66.4 11.6 66.4 C 11.6 66.3 11.6 66.3 11.6 66.2 C 11.4 65.0 11.3 63.9 11.3 62.7 C 11.3 62.6 11.3 62.4 11.3 62.3 C 11.3 62.0 11.3 61.8 11.3 61.5 C 11.3 60.8 11.3 60.1 11.3 59.4 C 11.3 59.2 11.3 59.0 11.3 58.8 C 11.3 58.5 11.3 58.3 11.4 58.1 C 11.4 57.5 11.4 56.9 11.5 56.4 C 11.5 56.1 11.5 55.9 11.6 55.6 C 11.6 55.4 11.6 55.2 11.7 55.0 C 11.8 54.5 11.8 54.0 11.9 53.5 C 12.0 53.2 12.0 53.0 12.1 52.7 C 12.1 52.5 12.2 52.3 12.2 52.1 C 12.3 51.9 12.3 51.8 12.3 51.6 C 12.4 51.4 12.5 51.2 12.5 50.9 C 12.6 50.6 12.7 50.3 12.8 50.0 C 12.9 49.6 13.0 49.3 13.1 49.0 C 13.2 48.6 13.3 48.3 13.4 48.0 C 13.5 47.8 13.5 47.6 13.6 47.5 C 13.8 46.9 14.1 46.3 14.3 45.8 C 14.4 45.6 14.5 45.4 14.6 45.2 C 14.6 45.2 14.6 45.1 14.7 45.1 C 15.0 44.3 15.4 43.5 15.9 42.8 C 15.9 42.7 16.0 42.7 16.0 42.6 C 16.1 42.4 16.3 42.2 16.4 41.9 C 16.7 41.5 17.0 41.0 17.3 40.6 C 17.5 40.3 17.7 40.0 17.9 39.7 L 17.9 39.7 C 17.9 39.7 17.9 39.7 17.9 39.7 L 30.2 23.9 C 31.7 22.0 33.5 20.2 35.5 18.6 C 35.1 18.7 34.7 18.8 34.3 18.8 C 33.8 18.9 33.4 19.0 33.0 19.1 C 32.2 19.3 31.4 19.5 30.6 19.7 C 30.2 19.8 29.9 19.9 29.5 20.0 C 28.4 20.3 27.2 20.7 26.1 21.1 C 19.0 23.8 13.4 27.9 9.4 33.1 L 21.6 17.3 C 25.6 12.1 31.2 8.0 38.4 5.3 C 39.5 4.9 40.6 4.5 41.7 4.2 C 42.1 4.1 42.4 4.0 42.8 3.9 C 43.6 3.7 44.4 3.5 45.2 3.3 C 45.6 3.2 46.1 3.1 46.5 3.0 C 47.3 2.9 48.1 2.7 49.0 2.6 C 49.4 2.6 49.7 2.5 50.1 2.4 C 51.3 2.3 52.5 2.2 53.8 2.1 C 53.8 2.1 53.8 2.1 53.8 2.1 C 55.1 2.0 56.3 2.0 57.6 2.0 C 58.0 2.0 58.4 2.0 58.8 2.0 C 59.7 2.0 60.6 2.0 61.5 2.1 C 62.0 2.1 62.5 2.1 62.9 2.2 C 63.8 2.2 64.8 2.3 65.7 2.4 C 66.1 2.4 66.5 2.5 66.9 2.5 C 68.2 2.7 69.5 2.9 70.8 3.1 C 70.8 3.1 70.9 3.1 70.9 3.1 C 70.9 3.1 70.9 3.1 70.9 3.1 C 72.1 3.3 73.3 3.5 74.6 3.8 C 74.9 3.9 75.3 4.0 75.6 4.0 C 76.5 4.2 77.4 4.4 78.2 4.6 C 78.3 4.6 78.3 4.7 78.3 4.7 C 78.4 4.7 78.5 4.7 78.6 4.8 C 80.3 5.2 82.1 5.7 83.8 6.2 C 84.0 6.3 84.1 6.3 84.3 6.4 C 84.5 6.4 84.6 6.5 84.7 6.5 C 86.2 7.0 87.8 7.6 89.3 8.1 C 89.4 8.2 89.5 8.2 89.6 8.2 C 89.9 8.3 90.1 8.4 90.4 8.5 C 91.5 9.0 92.6 9.4 93.7 9.9 C 93.9 10.0 94.1 10.1 94.4 10.2 C 94.6 10.3 94.8 10.4 95.1 10.5 C 96.0 10.9 97.0 11.3 98.0 11.8 C 98.3 11.9 98.6 12.0 98.9 12.2 C 99.0 12.2 99.1 12.3 99.2 12.4 C 100.3 12.9 101.4 13.4 102.5 14.0 C 102.7 14.1 102.9 14.2 103.1 14.3 C 103.1 14.3 103.1 14.3 103.2 14.4 C 104.4 15.0 105.7 15.7 107.0 16.4 C 107.0 16.5 107.1 16.5 107.1 16.5 C 107.5 16.7 107.8 16.9 108.1 17.1 C 109.0 17.6 109.9 18.1 110.7 18.7 C 110.8 18.7 111.0 18.8 111.1 18.9 C 111.5 19.1 111.8 19.4 112.2 19.6 C 112.9 20.1 113.7 20.5 114.4 21.0 C 114.6 21.1 114.8 21.3 115.0 21.4 C 115.3 21.6 115.6 21.8 115.9 22.0 C 116.6 22.5 117.3 23.0 118.0 23.5 C 118.3 23.7 118.5 23.9 118.8 24.0 C 119.0 24.2 119.3 24.4 119.5 24.6 C 120.3 25.1 121.0 25.7 121.7 26.2 C 122.0 26.4 122.3 26.6 122.6 26.9 C 122.7 27.0 122.9 27.2 123.1 27.3 C 123.9 27.9 124.7 28.5 125.4 29.2 C 125.7 29.4 126.0 29.7 126.4 29.9 C 126.5 30.0 126.6 30.1 126.7 30.2 C 127.9 31.2 129.1 32.2 130.2 33.3 C 130.2 33.3 130.2 33.3 130.2 33.3 C 130.2 33.3 130.2 33.3 130.2 33.3 C 131.5 34.4 132.7 35.6 133.9 36.7 C 134.0 36.9 134.2 37.0 134.3 37.1 C 134.5 37.3 134.7 37.5 134.9 37.7 C 135.9 38.8 137.0 39.9 138.0 41.0 C 138.2 41.2 138.4 41.4 138.6 41.6 C 138.7 41.7 138.7 41.7 138.8 41.8 C 140.2 43.4 141.6 45.0 143.0 46.7 C 143.1 46.8 143.3 47.0 143.4 47.1 C 143.8 47.7 144.3 48.2 144.7 48.7 C 145.9 50.2 147.0 51.7 148.1 53.3 C 148.3 53.6 148.6 54.0 148.8 54.3 C 149.0 54.6 149.3 55.0 149.5 55.3 C 149.9 55.8 150.2 56.4 150.5 56.9 C 151.2 57.9 151.9 58.9 152.5 60.0 C 153.0 60.7 153.4 61.5 153.9 62.3 C 154.4 63.3 155.0 64.3 155.5 65.3 C 155.9 66.1 156.3 66.9 156.7 67.7 C 157.2 68.6 157.6 69.6 158.1 70.6 C 158.4 71.4 158.8 72.2 159.1 73.0 C 159.5 73.9 159.9 74.9 160.2 75.9 C 160.4 76.4 160.6 76.8 160.8 77.3 C 160.9 77.6 161.0 78.0 161.1 78.4 C 161.3 79.0 161.5 79.6 161.7 80.2 C 162.0 81.2 162.2 82.1 162.5 83.1 C 162.6 83.7 162.8 84.2 162.9 84.8 C 162.9 85.1 163.0 85.4 163.1 85.6 C 163.2 86.1 163.2 86.5 163.3 86.9 C 163.5 88.1 163.7 89.2 163.9 90.3 C 163.9 90.6 164.0 90.9 164.0 91.3 C 164.1 91.7 164.1 92.1 164.1 92.5 C 164.2 93.3 164.2 94.0 164.3 94.8 C 164.3 95.2 164.3 95.6 164.4 95.9 C 164.4 96.4 164.3 96.8 164.3 97.2 C 164.3 97.8 164.3 98.5 164.3 99.0 C 164.3 99.4 164.3 99.7 164.3 100.0 " fill="#F9CE1D"></path><path d="M 154.5 108.8 C 154.5 108.7 154.5 108.6 154.5 108.5 L 149.6 107.7 L 149.1 108.7 C 148.8 109.4 148.4 110.1 147.9 110.9 L 147.8 111.1 C 147.4 111.7 147.1 112.2 146.7 112.7 C 146.5 113.0 146.3 113.3 146.1 113.5 L 144.9 115.2 C 144.9 115.1 144.9 115.0 144.9 114.9 C 144.9 114.7 145.0 113.7 145.0 113.7 C 145.1 112.9 145.1 112.0 145.1 111.2 C 145.2 110.6 145.2 110.1 145.2 109.5 C 145.2 108.8 145.1 108.0 145.1 107.3 C 145.1 106.6 145.0 105.9 144.9 105.1 C 144.9 104.5 144.8 103.8 144.7 103.1 C 144.6 102.1 144.4 101.1 144.2 100.0 L 144.1 99.6 C 144.0 99.1 143.9 98.6 143.8 98.1 C 143.7 97.7 143.6 97.3 143.5 96.9 L 143.4 96.6 C 143.2 95.7 143.0 94.8 142.7 93.9 C 142.5 93.4 142.4 92.8 142.2 92.3 C 142.0 91.5 141.7 90.8 141.4 90.0 C 141.1 89.1 140.7 88.3 140.4 87.4 C 140.1 86.7 139.8 85.9 139.5 85.2 C 139.1 84.4 138.7 83.5 138.2 82.6 C 137.9 81.9 137.5 81.2 137.2 80.4 C 136.7 79.6 136.2 78.6 135.7 77.7 C 135.3 77.0 134.9 76.3 134.4 75.6 C 133.9 74.7 133.3 73.8 132.7 72.9 L 132.3 72.3 C 131.9 71.7 131.5 71.1 131.1 70.6 L 130.5 69.6 C 129.5 68.3 128.5 66.9 127.4 65.6 C 127.0 65.0 126.6 64.5 126.1 64.0 L 125.9 63.7 C 124.7 62.3 123.5 60.8 122.2 59.4 L 121.5 58.7 C 120.6 57.7 119.6 56.7 118.5 55.6 L 117.8 54.9 C 116.8 53.9 115.7 52.9 114.7 51.9 L 114.5 51.7 L 114.4 51.6 C 113.4 50.8 112.4 49.9 111.4 49.0 L 110.3 48.1 C 109.6 47.6 108.9 47.0 108.2 46.5 L 106.9 45.5 C 106.3 45.0 105.6 44.5 105.0 44.0 L 103.7 43.1 C 103.0 42.6 102.4 42.2 101.7 41.7 L 100.4 40.8 C 99.7 40.4 99.1 40.0 98.4 39.5 L 97.1 38.7 C 96.4 38.3 95.6 37.8 94.8 37.3 L 93.8 36.8 C 92.7 36.1 91.5 35.5 90.4 34.9 L 89.8 34.6 C 88.8 34.1 87.9 33.6 86.9 33.1 L 85.7 32.6 C 84.9 32.2 84.0 31.8 83.2 31.4 L 81.9 30.9 C 80.9 30.5 79.9 30.1 78.9 29.7 L 78.0 29.3 C 76.6 28.8 75.2 28.3 73.8 27.9 L 73.0 27.6 C 71.5 27.1 69.9 26.7 68.4 26.3 L 68.1 26.2 C 65.8 25.6 63.6 25.2 61.3 24.8 C 60.2 24.6 59.0 24.4 57.8 24.3 L 55.3 24.0 L 54.2 23.9 L 53.0 23.9 C 52.1 23.8 51.3 23.8 50.5 23.8 L 49.4 23.8 C 48.2 23.8 47.1 23.8 45.8 23.9 C 44.7 24.0 43.6 24.1 42.5 24.2 L 41.5 24.4 C 40.7 24.5 40.0 24.6 39.2 24.8 C 38.8 24.8 38.4 24.9 38.1 25.0 C 37.3 25.2 36.5 25.3 35.8 25.5 L 34.8 25.8 C 33.8 26.1 32.7 26.4 31.7 26.8 C 31.4 26.9 31.2 27.0 30.9 27.1 L 32.2 25.5 C 33.5 23.8 35.2 22.2 37.1 20.7 L 35.1 16.1 C 35.1 16.1 34.1 16.2 33.8 16.3 C 33.7 16.3 33.5 16.4 33.4 16.4 C 36.5 13.0 39.6 9.8 42.8 6.5 L 43.5 6.4 C 44.2 6.2 45.0 6.0 45.8 5.8 C 46.2 5.7 46.6 5.6 47.0 5.6 C 47.8 5.4 48.5 5.3 49.4 5.2 L 50.4 5.0 C 51.6 4.9 52.7 4.7 54.0 4.7 C 55.2 4.6 56.4 4.6 57.6 4.5 L 58.8 4.6 C 59.7 4.6 60.5 4.6 61.4 4.6 L 62.8 4.7 L 64.0 4.8 C 64.4 4.9 66.6 5.1 66.6 5.1 C 67.9 5.2 69.1 5.4 70.5 5.6 C 71.7 5.8 72.9 6.1 74.0 6.3 L 75.3 6.6 C 76.1 6.8 76.8 6.9 77.7 7.2 L 78.0 7.2 C 79.7 7.7 81.3 8.2 83.0 8.7 L 83.9 9.0 C 85.4 9.5 86.9 10.0 88.4 10.5 L 88.7 10.6 L 89.5 10.9 C 90.5 11.4 91.6 11.8 92.7 12.2 L 93.4 12.5 L 94.0 12.8 C 95.0 13.2 95.9 13.7 96.9 14.1 L 98.1 14.7 C 99.2 15.2 100.2 15.7 101.3 16.3 L 102.0 16.6 C 103.2 17.3 104.5 18.0 105.9 18.8 L 106.8 19.3 C 107.7 19.8 108.5 20.3 109.4 20.9 L 109.7 21.1 L 110.8 21.8 C 111.5 22.2 112.2 22.7 113.0 23.2 L 113.3 23.4 L 114.4 24.2 C 115.1 24.6 115.8 25.1 116.5 25.6 L 117.3 26.1 L 118.0 26.7 C 118.7 27.2 119.4 27.7 120.1 28.3 L 121.0 28.9 L 121.5 29.3 C 122.3 29.9 123.0 30.5 123.8 31.2 L 124.7 31.9 L 125.0 32.2 C 126.1 33.1 127.3 34.1 128.4 35.1 L 128.5 35.3 L 128.7 35.4 C 129.8 36.4 131.0 37.5 132.1 38.6 L 132.5 39.0 L 133.0 39.5 C 134.1 40.6 135.1 41.7 136.2 42.8 L 136.5 43.1 L 136.9 43.6 C 138.3 45.1 139.7 46.7 141.0 48.3 L 141.4 48.8 C 141.8 49.3 142.2 49.8 142.6 50.3 C 143.8 51.8 144.9 53.3 146.0 54.8 L 147.4 56.7 C 147.6 57.0 147.7 57.3 147.9 57.6 L 148.4 58.3 C 149.0 59.3 149.7 60.3 150.3 61.3 C 150.7 62.1 151.2 62.8 151.6 63.6 C 152.2 64.6 152.7 65.5 153.2 66.5 C 153.6 67.3 154.0 68.0 154.4 68.8 C 154.9 69.8 155.3 70.7 155.7 71.7 C 156.1 72.4 156.4 73.2 156.7 73.9 C 157.1 74.9 157.5 75.8 157.8 76.8 L 158.1 77.5 C 158.2 77.7 158.2 77.9 158.3 78.1 C 158.3 78.1 159.0 80.4 159.2 80.9 C 159.5 81.9 159.7 82.8 160.0 83.7 L 160.6 86.2 C 160.6 86.4 160.6 86.5 160.7 86.7 C 160.7 87.0 160.7 87.2 160.8 87.4 C 161.0 88.5 161.2 89.6 161.3 90.6 C 161.3 90.8 161.5 91.6 161.5 91.6 C 161.5 91.7 161.5 92.7 161.5 92.7 C 161.6 93.5 161.7 94.2 161.7 95.0 C 161.7 95.0 161.8 95.9 161.8 96.0 C 161.8 96.2 161.8 97.3 161.8 97.3 C 161.8 97.8 161.8 98.3 161.8 98.9 C 159.4 102.2 157.0 105.5 154.5 108.8 " fill="#F6DF3C"></path><path d="M 116.5 25.6 L 117.3 26.1 L 118.0 26.7 C 118.7 27.2 119.4 27.7 120.1 28.3 L 121.0 28.9 L 121.5 29.3 C 122.3 29.9 123.0 30.5 123.8 31.2 L 124.7 31.9 L 125.0 32.2 C 126.1 33.1 127.3 34.1 128.4 35.1 L 128.5 35.3 L 128.7 35.4 C 129.8 36.4 131.0 37.5 132.1 38.6 L 132.5 39.0 L 133.0 39.5 C 134.1 40.6 135.1 41.7 136.2 42.8 L 136.5 43.1 L 136.9 43.6 C 138.3 45.1 139.7 46.7 141.0 48.3 L 141.4 48.8 C 141.8 49.3 142.2 49.8 142.6 50.3 C 143.8 51.8 144.9 53.3 146.0 54.8 L 147.4 56.7 C 147.6 57.0 147.7 57.3 147.9 57.6 L 148.4 58.3 C 149.0 59.3 149.7 60.3 150.3 61.3 C 150.7 62.1 151.2 62.8 151.6 63.6 C 152.2 64.6 152.7 65.5 153.2 66.5 C 153.6 67.3 154.0 68.0 154.4 68.8 C 154.9 69.8 155.3 70.7 155.7 71.7 C 156.1 72.4 156.4 73.2 156.7 73.9 C 157.1 74.9 157.5 75.8 157.8 76.8 L 158.1 77.5 C 158.2 77.7 158.2 77.9 158.3 78.1 C 158.3 78.1 158.7 79.2 158.9 80.1 C 154.0 86.0 148.9 91.8 143.7 97.4 C 143.6 97.3 143.6 97.1 143.5 96.9 L 143.4 96.6 C 143.2 95.7 143.0 94.8 142.7 93.9 C 142.5 93.4 142.4 92.8 142.2 92.3 C 142.0 91.5 141.7 90.8 141.4 90.0 C 141.1 89.1 140.7 88.3 140.4 87.4 C 140.1 86.7 139.8 85.9 139.5 85.2 C 139.1 84.4 138.7 83.5 138.2 82.6 C 137.9 81.9 137.5 81.2 137.2 80.4 C 136.7 79.6 136.2 78.6 135.7 77.7 C 135.3 77.0 134.9 76.3 134.4 75.6 C 133.9 74.7 133.3 73.8 132.7 72.9 L 132.3 72.3 C 131.9 71.7 131.5 71.1 131.1 70.6 L 130.5 69.6 C 129.5 68.3 128.5 66.9 127.4 65.6 C 127.0 65.0 126.6 64.5 126.1 64.0 L 125.9 63.7 C 124.7 62.3 123.5 60.8 122.2 59.4 L 121.5 58.7 C 120.6 57.7 119.6 56.7 118.5 55.6 L 117.8 54.9 C 116.8 53.9 115.7 52.9 114.7 51.9 L 114.5 51.7 L 114.4 51.6 C 113.4 50.8 112.4 49.9 111.4 49.0 L 110.3 48.1 C 109.6 47.6 108.9 47.0 108.2 46.5 L 106.9 45.5 C 106.3 45.0 105.6 44.5 105.0 44.0 L 103.7 43.1 C 103.0 42.6 102.4 42.2 101.7 41.7 L 100.4 40.8 C 99.7 40.4 99.1 40.0 98.4 39.5 L 97.1 38.7 C 96.4 38.3 95.6 37.8 94.8 37.3 L 93.8 36.8 C 92.7 36.1 91.5 35.5 90.4 34.9 L 89.8 34.6 C 88.8 34.1 87.9 33.6 86.9 33.1 L 85.7 32.6 C 84.9 32.2 84.0 31.8 83.2 31.4 L 81.9 30.9 C 80.9 30.5 79.9 30.1 78.9 29.7 L 78.0 29.3 C 77.2 29.0 76.4 28.7 75.5 28.5 C 81.2 22.9 87.0 17.6 93.0 12.4 L 93.4 12.5 L 94.0 12.8 C 95.0 13.2 95.9 13.7 96.9 14.1 L 98.1 14.7 C 99.2 15.2 100.2 15.7 101.3 16.3 L 102.0 16.6 C 103.2 17.3 104.5 18.0 105.9 18.8 L 106.8 19.3 C 107.7 19.8 108.5 20.3 109.4 20.9 L 109.7 21.1 L 110.8 21.8 C 111.5 22.2 112.2 22.7 113.0 23.2 L 113.3 23.4 L 114.4 24.2 C 115.1 24.6 115.8 25.1 116.5 25.6 " fill="#F8E160"></path><path d="M 106.7 123.9 L 111.6 121.7 L 104.6 113.4 C 108.3 111.5 111.7 108.8 114.6 106.4 L 102.6 92.8 L 97.1 95.4 L 101.0 100.3 C 101.2 100.5 101.4 100.9 101.7 101.4 C 101.4 103.6 100.0 105.2 96.4 106.6 C 92.4 108.1 87.6 106.8 84.5 102.8 C 75.9 92.0 100.3 84.2 84.2 63.8 C 75.7 53.0 63.5 49.6 53.5 52.2 L 47.6 45.2 L 42.7 47.4 L 48.4 54.2 C 40.0 58.2 37.4 63.7 37.3 64.0 L 49.9 78.0 L 55.1 75.4 C 55.0 75.3 52.7 72.3 52.0 71.4 C 51.7 71.0 50.6 69.3 49.7 67.6 C 49.8 67.1 51.1 64.0 56.9 61.9 C 60.6 60.5 65.5 61.1 69.1 65.6 C 78.6 77.7 53.6 84.5 70.5 105.9 C 78.5 116.1 90.0 118.9 99.8 115.6 Z M 106.7 123.9 " fill="#E9A900"></path><path d="M 53.5 52.2 C 63.5 49.6 75.7 53.0 84.2 63.8 C 100.3 84.2 75.9 92.0 84.5 102.8 C 87.6 106.8 92.4 108.1 96.4 106.6 C 100.0 105.2 101.4 103.6 101.7 101.4 C 101.4 100.9 101.2 100.5 101.0 100.3 L 97.1 95.4 L 102.6 92.8 L 114.6 106.4 C 111.7 108.8 108.3 111.5 104.6 113.4 L 111.6 121.7 L 106.7 123.9 L 99.8 115.6 C 90.0 118.9 78.5 116.1 70.5 105.9 C 53.6 84.5 78.6 77.7 69.1 65.6 C 65.5 61.1 60.6 60.5 56.9 61.9 C 51.1 64.0 49.8 67.1 49.7 67.6 C 50.6 69.3 51.7 71.0 52.0 71.4 C 52.7 72.3 55.0 75.3 55.1 75.4 L 49.9 78.0 L 37.3 64.0 C 37.4 63.7 40.0 58.2 48.4 54.2 L 42.7 47.4 L 47.6 45.2 L 53.5 52.2 M 121.3 141.4 C 148.0 131.4 149.9 98.1 125.4 67.2 C 100.9 36.2 59.4 19.2 32.6 29.2 C 5.8 39.3 4.0 72.5 28.4 103.5 C 52.9 134.5 94.5 151.5 121.3 141.4 " fill="#D27813"></path><path d="M 42.2 69.4 L 49.9 78.0 L 55.1 75.4 C 55.0 75.3 52.7 72.3 52.0 71.4 C 51.7 71.0 50.6 69.3 49.7 67.6 C 49.8 67.1 51.1 64.0 56.9 61.9 C 60.6 60.5 65.5 61.1 69.1 65.6 C 78.6 77.7 53.6 84.5 70.5 105.9 C 78.5 116.1 90.0 118.9 99.8 115.6 L 103.2 119.7 C 100.9 127.7 98.7 135.8 96.5 143.9 C 72.9 141.1 46.2 126.0 28.4 103.5 C 28.1 103.1 27.8 102.7 27.5 102.3 C 32.3 91.3 37.2 80.3 42.2 69.4 " fill="#C46812"></path><path d="M 122.1 63.2 C 117.4 75.4 113.1 87.7 109.2 100.2 L 102.6 92.8 L 97.1 95.4 L 101.0 100.3 C 101.2 100.5 101.4 100.9 101.7 101.4 C 101.4 103.6 100.0 105.2 96.4 106.6 C 92.4 108.1 87.6 106.8 84.5 102.8 C 75.9 92.0 100.3 84.2 84.2 63.8 C 75.7 53.0 63.5 49.6 53.5 52.2 L 51.3 49.7 C 54.8 42.3 58.4 34.9 61.9 27.5 C 82.9 31.3 105.6 44.3 122.1 63.2 " fill="#C46812"></path><path d="M 105.0 113.8 L 104.6 113.4 C 104.8 113.3 105.0 113.2 105.2 113.1 C 105.1 113.3 105.0 113.6 105.0 113.8 " fill="#C46812"></path><path d="M 117.4 104.0 C 116.5 104.8 115.5 105.5 114.5 106.3 L 102.6 92.8 L 100.5 93.8 L 99.9 93.0 L 105.4 90.5 Z M 117.4 104.0 " fill="#BE5D00"></path><path d="M 99.2 104.2 C 99.9 104.0 100.4 103.7 100.9 103.4 C 100.2 104.7 98.8 105.7 96.4 106.6 C 92.4 108.1 87.6 106.8 84.5 102.8 C 75.9 92.0 100.3 84.2 84.2 63.8 C 75.7 53.0 63.5 49.6 53.5 52.2 L 47.6 45.2 L 46.2 45.8 L 45.5 45.0 L 50.4 42.8 L 56.3 49.9 C 66.3 47.3 78.4 50.7 87.0 61.5 C 103.1 81.9 78.7 89.6 87.3 100.5 C 90.4 104.4 95.2 105.7 99.2 104.2 " fill="#BE5D00"></path><path d="M 48.0 53.7 L 48.4 54.2 C 46.5 55.2 44.9 56.1 43.5 57.1 C 44.7 56.0 46.1 54.9 48.0 53.7 " fill="#BE5D00"></path><path d="M 31.2 101.2 C 55.7 132.2 97.3 149.1 124.0 139.1 C 127.3 137.9 130.2 136.3 132.7 134.4 C 129.6 137.4 125.8 139.7 121.3 141.4 C 94.5 151.5 52.9 134.5 28.4 103.5 C 6.9 76.3 5.8 47.3 23.9 33.9 C 8.8 48.2 10.9 75.4 31.2 101.2 " fill="#BE5D00"></path><path d="M 52.0 71.4 C 51.7 71.0 50.6 69.3 49.7 67.6 C 49.8 67.3 50.6 65.3 53.5 63.5 C 52.8 64.4 52.5 65.1 52.5 65.3 C 53.4 67.0 54.5 68.7 54.8 69.0 C 55.5 70.0 57.8 72.9 57.9 73.1 L 54.6 74.7 C 53.8 73.8 52.5 72.1 52.0 71.4 " fill="#BE5D00"></path><path d="M 104.6 113.4 C 105.7 112.8 106.7 112.2 107.8 111.5 L 114.4 119.4 L 110.9 120.9 Z M 104.6 113.4 " fill="#BE5D00"></path><path d="M 32.6 29.2 C 59.4 19.2 100.9 36.2 125.4 67.2 C 149.9 98.1 148.0 131.4 121.3 141.4 C 94.5 151.5 52.9 134.5 28.4 103.5 C 4.0 72.5 5.8 39.3 32.6 29.2 M 127.7 149.6 C 158.4 138.1 160.5 100.0 132.5 64.5 C 104.4 29.0 56.8 9.6 26.1 21.1 C -4.5 32.6 -6.7 70.7 21.4 106.2 C 49.4 141.6 97.0 161.1 127.7 149.6 " fill="#E8A205"></path><path d="M 96.3 106.6 C 94.6 110.0 92.8 113.5 91.0 116.9 C 83.7 116.7 76.2 113.1 70.5 105.9 C 54.1 85.2 77.1 78.1 69.8 66.7 C 71.4 62.9 73.0 59.2 74.5 55.4 C 78.0 57.4 81.3 60.2 84.2 63.8 C 100.3 84.2 75.9 92.0 84.5 102.8 C 87.6 106.7 92.3 108.0 96.3 106.6 " fill="#E29506"></path><path d="M 100.1 99.2 L 97.1 95.4 L 102.6 92.8 L 103.1 93.4 C 102.1 95.3 101.1 97.2 100.1 99.2 " fill="#E4A200"></path><path d="M 61.9 58.4 C 61.3 59.3 60.8 60.3 60.3 61.2 C 59.1 61.3 58.0 61.5 56.9 61.9 C 51.1 64.0 49.8 67.1 49.7 67.6 C 50.6 69.3 51.7 71.0 52.0 71.4 C 52.4 72.0 53.4 73.2 54.2 74.2 C 53.9 74.9 53.6 75.6 53.4 76.3 L 49.9 78.0 L 43.3 70.7 C 46.2 64.0 49.2 57.3 52.1 50.6 L 53.5 52.2 C 57.4 51.2 61.5 51.1 65.7 52.0 C 64.4 54.1 63.1 56.2 61.9 58.4 " fill="#E4A200"></path><path d="M 132.7 72.8 C 131.1 70.4 129.3 68.0 127.4 65.6 C 109.2 42.5 81.0 26.2 55.5 24.0 C 52.7 23.8 50.1 23.7 47.5 23.8 C 48.0 22.7 48.4 21.6 48.9 20.4 C 49.9 20.5 50.8 20.5 51.8 20.6 C 79.6 23.0 110.5 40.9 130.4 66.1 C 131.4 67.4 132.4 68.6 133.3 69.9 C 133.1 70.9 132.9 71.9 132.7 72.8 " fill="#D28700"></path><path d="M 26.4 105.1 C 44.6 128.1 72.9 144.4 98.4 146.7 C 106.0 147.3 112.9 146.7 119.2 144.8 C 118.9 146.4 118.6 147.9 118.4 149.5 C 113.3 150.4 107.8 150.6 102.0 150.1 C 74.2 147.7 43.3 129.8 23.4 104.6 C 22.0 102.7 20.6 100.9 19.4 99.1 C 19.7 98.2 20.0 97.3 20.3 96.4 C 22.1 99.3 24.2 102.2 26.4 105.1 " fill="#D28700"></path></g></g></g></svg>