<?xml version="1.0" encoding="UTF-8"?><svg xmlns="http://www.w3.org/2000/svg" xmlns:xlink="http://www.w3.org/1999/xlink" clip-rule="evenodd" stroke-miterlimit="4.00" viewBox="0 0 97 117"><desc>SVG generated by Keynote</desc><defs></defs><g transform="matrix(1.00, 0.00, -0.00, -1.00, 0.0, 117.0)"><g><clipPath id="clip-352"><path d="M 1.5 1.1 L 96.0 1.1 L 96.0 115.6 L 1.5 115.6 Z M 1.5 1.1 "></path></clipPath><g clip-path="url(#clip-352)"><path d="M 52.5 48.7 C 52.5 48.8 52.4 48.8 52.4 48.8 C 52.4 48.8 52.5 48.8 52.5 48.7 C 52.1 49.0 51.7 49.3 51.3 49.5 C 50.8 49.9 50.2 50.3 49.7 50.7 C 49.6 50.8 49.6 50.8 49.5 50.9 C 49.1 51.2 48.7 51.5 48.3 51.8 C 48.3 51.9 48.2 51.9 48.1 52.0 C 47.9 52.2 47.7 52.4 47.5 52.6 C 47.5 52.6 47.4 52.7 47.3 52.8 C 47.1 53.0 46.9 53.2 46.8 53.4 C 46.7 53.4 46.7 53.5 46.7 53.5 C 46.6 53.6 46.5 53.7 46.5 53.8 C 46.4 53.9 46.3 54.1 46.2 54.2 C 46.1 54.3 46.1 54.3 46.0 54.4 C 45.9 54.6 45.8 54.8 45.7 55.0 C 45.6 55.0 45.6 55.1 45.6 55.2 C 45.5 55.4 45.4 55.6 45.3 55.8 C 45.2 55.9 45.2 56.0 45.1 56.2 C 45.0 56.3 45.0 56.5 44.9 56.7 C 44.8 56.8 44.8 57.0 44.7 57.2 C 44.7 57.4 44.6 57.5 44.6 57.7 C 44.5 58.1 44.4 58.5 44.3 59.0 C 44.3 59.2 44.3 59.5 44.2 59.8 C 44.2 59.9 44.2 60.0 44.2 60.1 C 44.2 60.1 44.2 60.2 44.2 60.2 C 44.2 60.5 44.2 60.8 44.2 61.0 C 44.2 61.2 44.2 61.4 44.2 61.6 C 44.2 61.8 44.2 62.0 44.2 62.2 C 44.2 62.4 44.2 62.6 44.2 62.8 C 44.3 63.0 44.3 63.3 44.3 63.5 C 44.3 63.7 44.3 63.9 44.4 64.0 C 44.4 64.6 44.5 65.2 44.7 65.8 C 44.8 66.3 44.9 66.7 45.0 67.2 C 45.0 67.2 45.0 67.3 45.0 67.4 C 45.1 67.5 45.1 67.5 45.1 67.5 C 45.6 67.2 46.1 66.8 46.7 66.4 C 47.4 66.0 48.1 65.5 48.7 65.0 C 48.8 65.0 48.8 64.9 48.9 64.9 C 49.2 64.6 49.6 64.3 50.0 64.0 C 50.0 64.0 50.1 63.9 50.1 63.9 C 50.4 63.6 50.7 63.4 50.9 63.1 C 50.9 63.1 50.9 63.1 50.9 63.1 C 51.1 62.9 51.3 62.6 51.5 62.4 C 51.6 62.3 51.7 62.2 51.8 62.1 C 51.9 62.0 52.0 61.8 52.1 61.7 C 52.2 61.6 52.3 61.4 52.4 61.3 C 52.4 61.2 52.5 61.1 52.5 61.0 C 52.7 60.7 52.8 60.5 52.9 60.3 C 52.9 60.2 52.9 60.2 53.0 60.2 C 53.1 59.9 53.2 59.6 53.3 59.3 C 53.4 59.0 53.5 58.7 53.6 58.3 C 53.6 58.3 53.6 58.3 53.6 58.3 C 53.7 57.9 53.8 57.5 53.9 57.0 C 53.9 56.8 54.0 56.6 54.0 56.4 C 54.0 56.3 54.0 56.1 54.0 56.0 C 54.0 55.7 54.0 55.4 54.1 55.1 C 54.1 55.0 54.1 54.9 54.1 54.8 C 54.1 54.4 54.0 54.0 54.0 53.6 C 54.0 53.5 54.0 53.4 54.0 53.3 C 54.0 52.9 53.9 52.6 53.9 52.3 C 53.8 51.7 53.7 51.2 53.6 50.6 C 53.5 50.1 53.4 49.7 53.3 49.3 C 53.3 49.1 53.2 49.0 53.2 48.8 C 53.1 48.6 53.1 48.5 53.0 48.3 C 53.0 48.3 53.0 48.3 53.0 48.4 C 52.9 48.4 52.9 48.5 52.8 48.5 C 52.7 48.6 52.6 48.7 52.5 48.7 M 55.1 79.5 C 55.2 79.5 55.3 79.6 55.4 79.6 C 55.9 79.8 56.5 80.0 57.1 80.2 C 57.2 80.2 57.4 80.3 57.5 80.3 C 57.5 80.3 57.5 80.3 57.5 80.3 L 56.7 77.1 L 53.4 78.6 C 53.5 78.7 53.6 78.7 53.7 78.8 C 54.1 79.0 54.6 79.3 55.1 79.5 M 38.3 32.3 L 38.1 32.4 L 39.7 38.3 L 44.0 36.3 C 43.9 36.3 43.9 36.2 43.9 36.2 C 43.4 35.9 42.9 35.7 42.4 35.4 C 42.3 35.4 42.2 35.3 42.1 35.3 C 41.6 35.1 41.2 34.9 40.8 34.8 C 40.6 34.7 40.5 34.7 40.3 34.6 C 39.8 34.4 39.3 34.3 38.7 34.2 Z M 25.5 36.2 C 25.5 36.2 25.5 36.2 25.5 36.2 C 25.6 36.1 25.7 36.0 25.8 36.0 C 25.8 36.0 25.8 36.0 25.8 36.0 C 26.0 35.8 26.2 35.7 26.5 35.6 C 26.5 35.6 26.6 35.5 26.6 35.5 C 26.7 35.5 26.9 35.4 27.0 35.3 L 34.6 31.7 L 33.7 28.0 L 33.8 28.0 L 33.7 28.0 L 45.9 22.2 L 49.6 22.4 L 50.9 28.4 C 51.5 28.5 52.0 28.7 52.5 28.9 C 52.7 28.9 52.8 29.0 53.0 29.0 C 53.4 29.2 53.8 29.3 54.2 29.5 C 54.4 29.6 54.5 29.6 54.6 29.7 C 55.1 29.9 55.6 30.2 56.1 30.5 C 56.2 30.5 56.3 30.6 56.4 30.7 C 56.8 30.9 57.2 31.2 57.6 31.4 C 57.6 31.5 57.7 31.5 57.8 31.6 C 57.8 31.6 57.9 31.7 58.0 31.7 C 58.2 31.9 58.4 32.1 58.6 32.3 C 58.8 32.4 58.9 32.5 59.0 32.6 C 59.0 32.6 59.1 32.7 59.1 32.7 C 59.2 32.8 59.3 32.9 59.4 33.0 C 59.6 33.1 59.7 33.3 59.9 33.4 C 59.9 33.5 60.0 33.6 60.1 33.6 C 60.2 33.7 60.3 33.8 60.3 33.9 C 60.4 34.0 60.5 34.0 60.6 34.1 C 60.8 34.3 61.0 34.6 61.1 34.8 C 61.2 34.8 61.2 34.8 61.2 34.8 C 61.2 34.9 61.2 34.9 61.2 34.9 C 61.4 35.1 61.5 35.3 61.7 35.4 C 61.8 35.6 61.9 35.8 62.1 36.0 C 62.1 36.0 62.1 36.0 62.1 36.0 C 62.1 36.0 62.1 36.1 62.1 36.1 C 62.3 36.3 62.4 36.5 62.5 36.7 C 62.7 36.9 62.8 37.1 62.9 37.3 C 62.9 37.3 62.9 37.3 62.9 37.3 C 62.9 37.3 62.9 37.3 62.9 37.3 C 63.1 37.5 63.2 37.7 63.3 38.0 C 63.4 38.2 63.6 38.4 63.7 38.6 C 63.7 38.6 63.7 38.6 63.7 38.6 C 63.7 38.6 63.7 38.6 63.7 38.6 C 63.8 38.9 63.9 39.1 64.0 39.3 C 64.1 39.6 64.2 39.8 64.3 40.0 C 64.3 40.0 64.3 40.0 64.3 40.1 C 64.3 40.1 64.3 40.1 64.4 40.1 C 64.5 40.4 64.6 40.6 64.7 40.9 C 64.7 41.1 64.8 41.2 64.9 41.4 C 64.9 41.5 64.9 41.6 64.9 41.7 C 65.0 41.7 65.0 41.8 65.0 41.9 C 65.1 42.2 65.3 42.6 65.4 43.0 C 65.4 43.0 65.4 43.0 65.4 43.1 C 65.4 43.2 65.5 43.4 65.5 43.5 C 65.6 43.8 65.6 44.1 65.7 44.4 C 65.7 44.5 65.8 44.7 65.8 44.8 C 65.9 45.4 66.0 46.0 66.1 46.5 C 66.1 46.6 66.1 46.6 66.1 46.7 C 66.1 47.0 66.2 47.2 66.2 47.5 C 66.2 47.6 66.2 47.7 66.2 47.8 C 66.2 48.3 66.2 48.7 66.2 49.1 C 66.2 49.2 66.2 49.3 66.2 49.4 C 66.2 49.7 66.2 50.0 66.2 50.3 C 66.2 50.4 66.2 50.5 66.2 50.7 C 66.1 50.8 66.1 51.0 66.1 51.1 C 66.1 51.2 66.1 51.2 66.1 51.3 C 66.0 51.7 65.9 52.1 65.8 52.5 C 65.8 52.5 65.8 52.5 65.8 52.6 C 65.8 52.6 65.8 52.6 65.8 52.6 C 65.7 52.9 65.6 53.2 65.5 53.6 C 65.5 53.6 65.5 53.6 65.5 53.6 C 65.4 53.9 65.3 54.2 65.1 54.4 C 65.1 54.4 65.1 54.4 65.1 54.4 C 65.1 54.5 65.1 54.5 65.1 54.5 C 65.0 54.7 64.9 55.0 64.7 55.2 C 64.7 55.2 64.7 55.2 64.7 55.2 C 64.7 55.3 64.6 55.4 64.5 55.5 C 64.5 55.6 64.4 55.8 64.3 55.9 C 64.3 55.9 64.3 55.9 64.2 56.0 C 64.2 56.1 64.1 56.2 64.0 56.3 C 63.9 56.4 63.8 56.5 63.8 56.6 C 63.7 56.6 63.7 56.7 63.7 56.7 C 63.5 56.9 63.3 57.1 63.1 57.3 C 63.1 57.3 63.1 57.4 63.1 57.4 C 63.1 57.4 63.1 57.4 63.1 57.4 C 62.8 57.6 62.6 57.9 62.3 58.1 C 62.3 58.1 62.3 58.2 62.2 58.2 C 62.2 58.2 62.2 58.2 62.1 58.3 C 61.8 58.6 61.4 58.9 61.0 59.2 C 61.0 59.2 61.0 59.2 61.0 59.2 C 61.0 59.2 61.0 59.2 60.9 59.2 C 60.3 59.8 59.6 60.2 58.9 60.7 C 58.2 61.1 57.6 61.5 57.0 62.0 C 56.9 62.0 56.9 62.1 56.8 62.1 C 56.6 62.3 56.3 62.5 56.0 62.7 C 56.0 62.8 55.9 62.8 55.9 62.9 C 55.8 63.0 55.6 63.1 55.5 63.3 C 55.4 63.4 55.3 63.5 55.2 63.6 C 55.2 63.6 55.1 63.7 55.1 63.7 C 55.0 63.9 54.8 64.0 54.7 64.2 C 54.7 64.2 54.7 64.2 54.7 64.3 C 54.6 64.4 54.5 64.6 54.4 64.7 C 54.4 64.7 54.4 64.8 54.4 64.8 C 54.3 65.0 54.2 65.2 54.1 65.3 C 54.1 65.4 54.1 65.4 54.1 65.5 C 54.1 65.6 54.0 65.7 54.0 65.8 C 54.0 66.0 53.9 66.1 53.9 66.3 C 53.9 66.4 53.9 66.5 53.9 66.6 C 53.9 66.9 53.9 67.2 53.9 67.5 C 53.9 67.8 53.9 68.0 54.0 68.3 C 54.1 68.7 54.2 69.1 54.3 69.5 C 54.3 69.5 54.3 69.5 54.3 69.5 C 54.5 69.9 54.6 70.2 54.8 70.6 C 54.8 70.6 54.8 70.6 54.8 70.6 C 55.0 70.9 55.2 71.3 55.4 71.6 L 55.4 71.6 C 55.5 71.6 55.5 71.6 55.5 71.7 L 63.9 67.7 L 68.0 67.9 L 71.0 79.7 L 63.4 83.3 L 64.5 88.0 L 52.3 93.7 L 48.7 93.5 L 47.1 86.4 C 46.5 86.3 45.9 86.2 45.3 86.0 C 45.2 86.0 45.0 86.0 44.9 85.9 C 44.3 85.8 43.8 85.6 43.2 85.4 C 43.1 85.3 43.0 85.3 43.0 85.2 C 42.5 85.0 42.0 84.8 41.5 84.5 C 41.4 84.5 41.3 84.4 41.2 84.4 C 40.7 84.1 40.2 83.7 39.7 83.4 C 39.6 83.3 39.6 83.3 39.5 83.3 C 39.4 83.2 39.3 83.1 39.2 83.0 C 39.0 82.9 38.8 82.7 38.7 82.6 C 38.6 82.5 38.5 82.5 38.5 82.4 C 38.3 82.3 38.2 82.2 38.0 82.0 C 38.0 81.9 37.9 81.9 37.8 81.8 C 37.8 81.8 37.7 81.7 37.7 81.7 C 37.5 81.5 37.3 81.3 37.1 81.1 C 37.1 81.0 37.0 81.0 37.0 80.9 C 36.9 80.9 36.9 80.8 36.8 80.8 C 36.8 80.7 36.7 80.6 36.6 80.5 C 36.4 80.3 36.3 80.1 36.2 79.9 C 36.1 79.9 36.1 79.9 36.1 79.8 C 36.0 79.8 36.0 79.8 36.0 79.7 C 35.9 79.6 35.8 79.5 35.7 79.4 C 35.6 79.2 35.5 79.0 35.4 78.8 C 35.3 78.8 35.3 78.7 35.3 78.7 C 35.3 78.6 35.2 78.6 35.2 78.6 C 35.1 78.5 35.1 78.4 35.0 78.3 C 34.9 78.1 34.8 77.9 34.7 77.7 C 34.7 77.6 34.6 77.5 34.6 77.5 C 34.5 77.4 34.5 77.4 34.5 77.3 C 34.5 77.3 34.4 77.2 34.4 77.1 C 34.3 76.9 34.2 76.7 34.1 76.5 C 34.0 76.4 34.0 76.3 33.9 76.1 C 33.9 76.1 33.9 76.0 33.8 76.0 C 33.8 75.9 33.8 75.9 33.8 75.8 C 33.7 75.6 33.6 75.4 33.5 75.1 C 33.4 75.0 33.4 74.9 33.4 74.8 C 33.3 74.7 33.3 74.6 33.3 74.5 C 33.2 74.4 33.2 74.4 33.2 74.3 C 33.1 73.9 33.0 73.6 32.9 73.2 C 32.9 73.2 32.9 73.2 32.9 73.2 C 32.8 73.1 32.8 73.0 32.8 72.9 C 32.7 72.6 32.6 72.3 32.6 71.9 C 32.5 71.8 32.5 71.7 32.5 71.6 C 32.4 70.9 32.3 70.4 32.2 69.8 C 32.2 69.7 32.2 69.6 32.2 69.6 C 32.1 69.5 32.1 69.4 32.1 69.3 C 32.1 69.0 32.1 68.8 32.1 68.5 C 32.0 68.4 32.0 68.2 32.0 68.0 C 32.0 67.8 32.0 67.5 32.0 67.3 C 32.0 67.1 32.0 67.0 32.0 66.8 C 32.0 66.7 32.0 66.6 32.0 66.6 C 32.0 66.4 32.0 66.1 32.0 65.9 C 32.0 65.9 32.0 65.9 32.0 65.8 C 32.0 65.8 32.0 65.8 32.0 65.8 C 32.0 65.8 32.0 65.8 32.0 65.8 C 32.0 65.8 32.0 65.8 32.0 65.8 C 32.0 65.7 32.1 65.6 32.1 65.5 C 32.1 65.3 32.1 65.0 32.1 64.8 C 32.1 64.8 32.1 64.7 32.2 64.7 C 32.2 64.2 32.3 63.8 32.4 63.4 C 32.4 63.4 32.4 63.4 32.4 63.3 C 32.5 63.2 32.5 63.1 32.6 63.0 C 32.6 62.8 32.7 62.6 32.7 62.4 C 32.7 62.4 32.7 62.3 32.8 62.3 C 32.8 62.2 32.9 62.0 32.9 61.9 C 33.0 61.8 33.0 61.6 33.1 61.5 C 33.1 61.5 33.1 61.5 33.1 61.4 C 33.2 61.3 33.3 61.1 33.4 61.0 C 33.4 60.9 33.5 60.8 33.5 60.7 C 33.5 60.7 33.5 60.7 33.5 60.7 C 33.6 60.5 33.7 60.3 33.9 60.1 C 33.9 60.1 33.9 60.0 34.0 59.9 C 34.0 59.9 34.0 59.9 34.0 59.9 C 34.1 59.8 34.2 59.7 34.3 59.5 C 34.4 59.4 34.4 59.3 34.5 59.2 C 34.5 59.2 34.5 59.2 34.5 59.2 C 34.5 59.2 34.6 59.2 34.6 59.2 C 34.8 58.9 35.0 58.7 35.2 58.5 C 35.2 58.5 35.2 58.5 35.2 58.5 C 35.2 58.4 35.3 58.4 35.3 58.3 C 35.5 58.1 35.7 57.9 36.0 57.7 C 36.0 57.7 36.0 57.7 36.1 57.6 C 36.1 57.6 36.1 57.6 36.1 57.6 C 36.5 57.2 36.9 56.9 37.3 56.6 C 37.3 56.6 37.4 56.6 37.4 56.5 C 37.4 56.5 37.4 56.5 37.5 56.5 C 38.0 56.1 38.6 55.7 39.2 55.3 C 39.7 54.9 40.1 54.6 40.6 54.3 C 40.7 54.2 40.9 54.1 41.0 54.0 C 41.2 53.8 41.4 53.7 41.6 53.5 C 41.7 53.4 41.8 53.3 41.9 53.2 C 42.0 53.1 42.1 53.0 42.2 53.0 C 42.4 52.8 42.5 52.6 42.7 52.4 C 42.7 52.4 42.8 52.3 42.8 52.3 C 43.0 52.1 43.2 51.8 43.4 51.5 C 43.4 51.5 43.4 51.5 43.4 51.5 C 43.6 51.2 43.7 50.9 43.8 50.6 C 43.8 50.5 43.8 50.5 43.8 50.5 C 43.9 50.3 44.0 50.0 44.0 49.7 C 44.1 49.6 44.1 49.5 44.1 49.4 C 44.1 49.2 44.1 49.1 44.1 48.9 C 44.1 48.6 44.1 48.4 44.1 48.1 C 44.1 47.7 44.1 47.4 44.0 47.0 C 43.9 46.5 43.8 46.1 43.6 45.7 C 43.6 45.7 43.6 45.6 43.6 45.6 C 43.5 45.2 43.3 44.8 43.1 44.5 C 43.1 44.5 43.1 44.5 43.1 44.5 C 43.0 44.3 42.8 44.1 42.7 43.9 L 32.6 48.6 L 28.7 48.5 L 25.4 36.3 L 25.4 36.2 C 25.4 36.2 25.5 36.2 25.5 36.2 " fill="#855F13"></path><path d="M 27.8 14.0 C 27.7 14.0 27.7 14.0 27.7 14.1 C 27.3 14.4 27.0 14.7 26.7 15.1 C 26.5 15.3 26.3 15.5 26.2 15.7 C 26.0 15.9 25.8 16.2 25.6 16.4 C 25.4 16.7 25.2 17.0 25.0 17.3 C 24.8 17.5 24.6 17.8 24.4 18.0 C 24.2 18.3 24.0 18.7 23.8 19.0 C 23.7 19.3 23.5 19.5 23.4 19.8 C 23.2 20.2 22.9 20.6 22.7 21.0 C 22.6 21.3 22.5 21.5 22.4 21.8 C 22.0 22.5 21.7 23.2 21.4 24.0 C 21.4 24.0 21.4 24.0 21.4 24.1 C 21.1 25.0 20.8 25.9 20.5 26.9 C 20.4 27.2 20.3 27.5 20.3 27.7 C 20.2 28.2 20.1 28.6 20.0 29.1 C 19.9 29.4 19.8 29.8 19.7 30.1 C 19.6 30.6 19.6 31.1 19.5 31.6 C 19.4 31.9 19.4 32.2 19.3 32.5 C 19.2 33.5 19.1 34.5 19.0 35.5 C 19.0 35.7 19.0 35.9 19.0 36.1 C 18.9 37.0 18.9 37.9 18.9 38.8 C 18.9 39.1 18.9 39.4 18.9 39.7 C 18.9 40.6 18.9 41.6 19.0 42.6 C 19.0 42.8 19.0 42.9 19.0 43.0 C 19.1 44.1 19.2 45.3 19.3 46.4 C 19.4 47.0 19.5 47.5 19.6 48.0 C 19.6 48.3 19.6 48.6 19.7 48.9 C 19.8 49.8 20.0 50.6 20.2 51.5 C 20.3 52.1 20.4 52.7 20.5 53.3 C 20.8 54.3 21.0 55.3 21.3 56.3 C 21.4 56.6 21.4 56.9 21.5 57.2 C 21.8 58.1 22.0 58.9 22.3 59.8 C 22.4 60.0 22.5 60.2 22.5 60.5 C 22.9 61.5 23.2 62.5 23.6 63.5 C 23.6 63.5 23.6 63.5 23.6 63.5 C 23.6 63.6 23.7 63.7 23.7 63.8 C 24.0 64.6 24.4 65.5 24.7 66.3 C 24.8 66.5 24.9 66.6 25.0 66.8 C 25.3 67.6 25.6 68.3 26.0 69.0 C 26.1 69.3 26.2 69.6 26.4 69.9 C 26.7 70.5 27.0 71.1 27.3 71.7 C 27.4 72.0 27.6 72.3 27.8 72.6 C 28.1 73.2 28.3 73.7 28.6 74.2 C 28.8 74.6 29.0 74.9 29.2 75.2 C 29.5 75.7 29.8 76.2 30.1 76.7 C 30.3 77.0 30.5 77.4 30.8 77.7 C 31.0 78.2 31.3 78.6 31.6 79.1 C 31.9 79.4 32.1 79.8 32.3 80.1 C 32.6 80.6 33.0 81.0 33.3 81.4 C 33.5 81.8 33.8 82.1 34.0 82.5 C 34.3 82.9 34.6 83.3 34.9 83.6 C 35.2 84.0 35.5 84.4 35.8 84.8 C 36.1 85.1 36.4 85.5 36.7 85.8 C 37.1 86.2 37.4 86.7 37.8 87.1 C 38.1 87.4 38.4 87.7 38.6 88.0 C 39.1 88.5 39.5 88.9 40.0 89.4 C 40.2 89.6 40.5 89.9 40.8 90.2 C 41.5 90.9 42.2 91.5 42.9 92.2 C 43.0 92.2 43.1 92.3 43.2 92.4 C 44.2 93.3 45.2 94.1 46.3 94.9 C 46.8 95.3 47.2 95.6 47.7 96.0 C 48.0 96.2 48.2 96.4 48.5 96.5 C 49.3 97.0 50.0 97.5 50.8 98.0 C 50.8 98.0 50.9 98.0 50.9 98.0 C 51.7 98.5 52.5 99.0 53.3 99.4 C 53.6 99.5 53.8 99.6 54.1 99.7 C 54.7 100.0 55.2 100.3 55.8 100.5 C 56.1 100.6 56.4 100.7 56.7 100.9 C 57.2 101.1 57.8 101.3 58.3 101.4 C 58.6 101.5 58.9 101.6 59.2 101.7 C 59.8 101.9 60.4 102.0 61.0 102.2 C 61.2 102.2 61.5 102.3 61.8 102.4 C 62.6 102.5 63.4 102.7 64.2 102.8 C 66.2 103.0 68.0 103.0 69.7 102.8 C 69.8 102.6 70.0 102.5 70.1 102.4 C 70.6 101.9 71.1 101.4 71.5 100.8 C 71.6 100.8 71.6 100.8 71.6 100.7 C 72.1 100.2 72.5 99.5 72.9 98.9 C 73.1 98.7 73.2 98.4 73.4 98.2 C 73.6 97.8 73.9 97.3 74.2 96.8 C 74.3 96.5 74.5 96.2 74.7 95.9 C 74.9 95.5 75.1 95.1 75.3 94.6 C 75.5 94.2 75.6 93.8 75.8 93.3 C 76.0 92.9 76.1 92.5 76.3 92.1 C 76.5 91.5 76.7 90.9 76.9 90.2 C 77.0 89.8 77.1 89.4 77.2 89.0 C 77.3 88.7 77.4 88.3 77.5 88.0 C 77.6 87.4 77.7 86.8 77.8 86.3 C 77.9 85.9 78.0 85.5 78.0 85.2 C 78.1 84.7 78.2 84.1 78.2 83.6 C 78.3 83.0 78.4 82.4 78.4 81.8 C 78.5 81.3 78.5 80.8 78.5 80.3 C 78.5 79.6 78.6 79.0 78.6 78.3 C 78.6 77.8 78.6 77.3 78.6 76.8 C 78.6 76.1 78.6 75.5 78.5 74.8 C 78.5 74.2 78.5 73.7 78.4 73.2 C 78.4 72.5 78.3 71.8 78.2 71.1 C 78.2 70.5 78.1 69.9 78.0 69.2 C 78.0 69.0 77.9 68.7 77.9 68.5 C 77.7 67.4 77.6 66.3 77.3 65.2 C 77.2 64.7 77.1 64.2 77.0 63.7 C 76.7 62.4 76.4 61.2 76.1 60.0 C 76.1 59.8 76.0 59.6 75.9 59.4 C 75.7 58.5 75.4 57.7 75.1 56.8 C 75.1 56.6 75.0 56.3 74.9 56.0 C 74.6 55.1 74.3 54.2 73.9 53.3 L 73.9 53.3 C 73.6 52.4 73.2 51.5 72.9 50.7 C 72.7 50.4 72.6 50.1 72.5 49.8 C 72.3 49.3 72.0 48.7 71.8 48.2 C 71.6 47.9 71.5 47.6 71.3 47.3 C 71.1 46.8 70.9 46.3 70.6 45.8 C 70.5 45.5 70.3 45.2 70.1 44.9 C 69.9 44.4 69.7 44.0 69.4 43.5 C 69.2 43.2 69.1 42.9 68.9 42.6 C 68.6 42.1 68.4 41.7 68.1 41.2 C 67.9 40.9 67.8 40.6 67.6 40.4 C 67.3 39.8 67.0 39.3 66.6 38.8 C 66.5 38.6 66.4 38.4 66.2 38.2 C 65.8 37.5 65.3 36.8 64.8 36.1 C 64.7 36.0 64.6 35.9 64.6 35.7 C 64.1 35.1 63.7 34.6 63.3 34.0 C 63.1 33.8 62.9 33.6 62.8 33.3 C 62.4 32.8 62.0 32.4 61.6 31.9 C 61.4 31.6 61.2 31.4 61.0 31.2 C 60.6 30.6 60.1 30.1 59.6 29.6 C 59.5 29.4 59.3 29.3 59.2 29.1 C 58.5 28.4 57.9 27.7 57.2 27.0 C 57.1 26.9 56.9 26.8 56.8 26.6 C 56.0 25.9 55.3 25.2 54.5 24.5 C 54.4 24.4 54.4 24.4 54.3 24.3 C 53.2 23.3 52.1 22.4 50.9 21.5 C 50.9 21.5 50.9 21.5 50.8 21.5 C 50.2 21.0 49.6 20.6 49.0 20.2 C 48.7 20.0 48.5 19.9 48.3 19.8 C 47.9 19.5 47.4 19.2 47.0 18.9 C 46.7 18.8 46.5 18.6 46.3 18.5 C 45.8 18.2 45.3 18.0 44.9 17.7 C 44.6 17.6 44.4 17.5 44.2 17.4 C 43.6 17.0 42.9 16.7 42.2 16.4 C 42.2 16.4 42.2 16.4 42.2 16.4 C 41.5 16.1 40.8 15.9 40.2 15.6 C 40.0 15.5 39.7 15.5 39.5 15.4 C 39.1 15.2 38.6 15.1 38.1 15.0 C 37.9 14.9 37.6 14.8 37.4 14.8 C 36.9 14.6 36.4 14.5 35.9 14.4 C 35.7 14.4 35.5 14.3 35.3 14.3 C 34.6 14.1 33.9 14.0 33.2 14.0 C 31.3 13.7 29.5 13.8 27.8 14.0 M 90.6 96.8 C 90.4 97.2 90.2 97.5 90.0 97.8 C 89.8 98.1 89.7 98.4 89.5 98.6 C 89.5 98.7 89.4 98.8 89.3 98.9 C 88.9 99.5 88.5 100.1 88.0 100.7 C 88.0 100.7 88.0 100.7 88.0 100.7 C 88.0 100.7 87.9 100.8 87.9 100.8 C 87.5 101.3 87.0 101.8 86.6 102.3 C 86.5 102.4 86.4 102.5 86.3 102.6 C 86.1 102.8 85.9 103.0 85.7 103.1 C 85.5 103.4 85.3 103.6 85.1 103.8 C 84.8 104.0 84.6 104.2 84.3 104.4 C 84.2 104.5 84.0 104.7 83.8 104.8 C 83.7 104.9 83.6 105.0 83.5 105.1 C 83.0 105.5 82.4 105.8 81.9 106.2 C 81.9 106.2 81.8 106.2 81.8 106.2 C 81.8 106.3 81.7 106.3 81.6 106.4 C 81.1 106.7 80.6 106.9 80.1 107.2 C 79.9 107.3 79.6 107.4 79.4 107.6 L 67.2 113.3 C 68.0 113.0 68.7 112.6 69.4 112.1 C 69.5 112.1 69.6 112.0 69.6 112.0 C 70.3 111.5 71.0 111.1 71.6 110.6 C 71.8 110.4 72.0 110.3 72.2 110.1 C 72.6 109.7 73.1 109.3 73.6 108.9 C 73.7 108.7 73.9 108.5 74.1 108.4 C 74.7 107.8 75.2 107.2 75.7 106.5 C 75.8 106.5 75.8 106.5 75.8 106.5 C 76.3 105.8 76.8 105.1 77.3 104.4 C 77.5 104.1 77.7 103.8 77.8 103.6 C 78.1 103.1 78.5 102.6 78.7 102.0 C 78.9 101.7 79.1 101.3 79.3 100.9 C 79.6 100.5 79.8 100.0 80.0 99.5 C 80.2 99.1 80.4 98.7 80.5 98.3 C 80.4 98.4 80.3 98.5 80.1 98.6 C 80.1 98.6 80.0 98.7 79.9 98.8 C 79.4 99.1 78.9 99.5 78.5 99.8 C 78.4 99.8 78.4 99.8 78.4 99.8 C 78.3 99.8 78.3 99.9 78.2 99.9 C 77.8 100.2 77.4 100.4 76.9 100.6 C 76.7 100.7 76.5 100.9 76.3 101.0 L 76.3 101.0 L 64.1 106.7 L 64.1 106.7 C 64.1 106.7 64.1 106.7 64.1 106.7 C 63.2 107.1 62.3 107.5 61.4 107.8 C 58.5 108.6 55.4 108.9 52.1 108.5 C 51.2 108.4 50.4 108.3 49.6 108.1 C 49.3 108.1 49.0 108.0 48.8 107.9 C 48.2 107.8 47.6 107.6 47.1 107.5 C 46.8 107.4 46.4 107.3 46.1 107.2 C 45.6 107.0 45.1 106.8 44.5 106.6 C 44.2 106.5 43.9 106.4 43.6 106.2 C 43.0 106.0 42.5 105.8 41.9 105.5 C 41.7 105.4 41.4 105.2 41.1 105.1 C 40.3 104.7 39.5 104.3 38.7 103.8 C 38.7 103.8 38.6 103.8 38.6 103.7 C 37.8 103.3 37.1 102.8 36.3 102.3 C 36.0 102.1 35.8 101.9 35.5 101.7 C 35.2 101.5 34.8 101.2 34.4 100.9 C 34.3 100.9 34.2 100.8 34.1 100.7 C 33.1 99.9 32.1 99.1 31.1 98.2 C 31.0 98.2 31.0 98.2 31.0 98.2 C 31.0 98.2 31.0 98.1 31.0 98.1 C 30.9 98.1 30.8 98.0 30.7 97.9 C 30.0 97.3 29.3 96.6 28.6 95.9 C 28.5 95.8 28.4 95.7 28.3 95.6 C 28.1 95.5 27.9 95.3 27.8 95.1 C 27.3 94.7 26.9 94.2 26.5 93.7 C 26.3 93.6 26.2 93.4 26.0 93.3 C 25.9 93.1 25.7 93.0 25.6 92.8 C 25.3 92.4 24.9 92.0 24.5 91.6 C 24.4 91.4 24.2 91.2 24.0 91.0 C 23.9 90.8 23.8 90.7 23.7 90.5 C 23.4 90.2 23.1 89.8 22.8 89.4 C 22.6 89.2 22.4 88.9 22.2 88.7 C 22.1 88.5 22.0 88.4 21.9 88.2 C 21.6 87.9 21.3 87.5 21.1 87.2 C 20.9 86.9 20.7 86.7 20.6 86.4 C 20.4 86.3 20.3 86.1 20.2 85.9 C 19.9 85.5 19.7 85.2 19.5 84.8 C 19.3 84.6 19.2 84.4 19.0 84.2 C 18.9 84.0 18.7 83.7 18.6 83.5 C 18.3 83.1 18.1 82.8 17.9 82.4 C 17.8 82.3 17.7 82.1 17.6 81.9 C 17.4 81.6 17.2 81.3 17.0 81.0 C 16.8 80.6 16.7 80.3 16.5 80.0 C 16.4 79.8 16.3 79.7 16.2 79.6 C 16.0 79.2 15.8 78.8 15.6 78.4 C 15.4 78.1 15.2 77.7 15.1 77.4 C 15.0 77.3 15.0 77.2 14.9 77.2 C 14.7 76.7 14.4 76.2 14.2 75.7 C 14.1 75.4 13.9 75.1 13.8 74.8 C 13.8 74.7 13.7 74.7 13.7 74.7 C 13.4 74.0 13.1 73.3 12.8 72.6 C 12.7 72.4 12.6 72.2 12.6 72.1 C 12.6 72.1 12.5 72.0 12.5 72.0 C 12.2 71.2 11.9 70.3 11.5 69.5 C 11.5 69.4 11.4 69.3 11.4 69.2 L 11.4 69.2 C 11.4 69.2 11.4 69.2 11.4 69.2 C 11.0 68.2 10.7 67.2 10.3 66.2 C 10.3 66.2 10.3 66.2 10.3 66.1 C 10.3 65.9 10.2 65.7 10.1 65.6 C 9.9 64.7 9.6 63.8 9.3 62.9 C 9.3 62.8 9.3 62.7 9.2 62.6 C 9.2 62.4 9.1 62.2 9.1 62.0 C 8.8 61.0 8.6 60.0 8.4 59.1 C 8.3 58.8 8.3 58.6 8.2 58.4 C 8.1 58.0 8.0 57.7 8.0 57.3 C 7.8 56.4 7.6 55.5 7.5 54.6 C 7.5 54.3 7.4 54.1 7.4 53.8 C 7.3 53.4 7.2 52.9 7.2 52.5 C 7.2 52.4 7.2 52.3 7.2 52.2 C 7.0 51.0 6.9 49.9 6.8 48.8 C 6.8 48.6 6.8 48.5 6.8 48.4 C 6.8 47.4 6.7 46.4 6.7 45.4 C 6.7 45.1 6.7 44.8 6.7 44.5 C 6.7 43.6 6.8 42.7 6.8 41.8 C 6.8 41.7 6.8 41.5 6.8 41.3 C 6.9 40.3 7.0 39.3 7.2 38.3 C 7.2 38.2 7.2 38.1 7.2 38.0 C 7.2 37.8 7.3 37.5 7.3 37.3 C 7.4 36.8 7.5 36.3 7.6 35.9 C 7.6 35.5 7.7 35.2 7.8 34.8 C 7.9 34.4 8.0 33.9 8.1 33.5 C 8.1 33.3 8.2 33.2 8.2 33.0 C 8.2 32.9 8.3 32.8 8.3 32.6 C 8.6 31.7 8.9 30.7 9.2 29.8 C 9.2 29.8 9.2 29.8 9.2 29.8 C 9.2 29.8 9.3 29.7 9.3 29.7 C 9.5 29.0 9.9 28.2 10.2 27.5 C 10.2 27.4 10.3 27.3 10.3 27.3 C 10.4 27.1 10.5 26.9 10.5 26.8 C 10.8 26.4 11.0 25.9 11.2 25.5 C 11.3 25.4 11.3 25.3 11.4 25.1 C 11.5 25.0 11.6 24.9 11.6 24.7 C 11.8 24.4 12.1 24.1 12.3 23.8 C 12.4 23.6 12.4 23.5 12.5 23.3 C 12.6 23.2 12.7 23.1 12.8 23.0 C 13.0 22.7 13.2 22.5 13.4 22.2 C 13.5 22.0 13.6 21.9 13.7 21.7 C 13.8 21.6 13.9 21.6 14.0 21.5 C 14.1 21.4 14.1 21.2 14.2 21.1 C 14.3 21.0 14.4 20.9 14.5 20.8 C 14.7 20.7 14.8 20.5 15.0 20.3 C 15.1 20.2 15.3 20.0 15.5 19.8 C 15.7 19.7 15.8 19.5 16.0 19.3 C 16.1 19.3 16.2 19.2 16.3 19.1 C 16.6 18.8 16.9 18.5 17.2 18.3 C 17.3 18.2 17.4 18.1 17.5 18.0 C 17.6 18.0 17.6 18.0 17.6 18.0 C 18.1 17.6 18.6 17.3 19.0 17.0 C 19.1 16.9 19.1 16.9 19.2 16.9 C 19.3 16.8 19.5 16.7 19.6 16.6 C 19.9 16.4 20.2 16.3 20.6 16.1 C 20.8 16.0 21.0 15.9 21.2 15.8 L 21.2 15.8 L 21.2 15.8 L 33.4 10.0 C 34.9 9.3 36.6 8.8 38.3 8.5 C 38.0 8.4 37.7 8.3 37.4 8.2 C 37.2 8.1 36.9 8.1 36.6 8.0 C 36.1 7.8 35.5 7.7 35.0 7.6 C 34.7 7.5 34.5 7.5 34.2 7.4 C 33.4 7.3 32.7 7.2 31.9 7.1 C 26.8 6.5 22.1 7.3 18.1 9.2 L 30.3 3.4 C 34.3 1.5 38.9 0.7 44.1 1.3 C 44.8 1.4 45.6 1.5 46.4 1.7 C 46.7 1.7 46.9 1.8 47.1 1.9 C 47.7 2.0 48.2 2.1 48.8 2.2 C 49.1 2.3 49.3 2.4 49.6 2.5 C 50.2 2.6 50.7 2.8 51.3 3.0 C 51.5 3.1 51.7 3.2 52.0 3.2 C 52.8 3.5 53.5 3.8 54.3 4.1 C 54.3 4.2 54.3 4.2 54.3 4.2 C 55.1 4.5 55.9 4.9 56.6 5.3 C 56.9 5.4 57.1 5.5 57.4 5.6 C 57.9 5.9 58.4 6.2 59.0 6.5 C 59.2 6.7 59.5 6.8 59.8 7.0 C 60.3 7.3 60.8 7.6 61.3 8.0 C 61.6 8.1 61.8 8.3 62.1 8.4 C 62.8 8.9 63.5 9.4 64.2 9.9 C 64.2 10.0 64.2 10.0 64.3 10.0 L 64.3 10.0 C 64.9 10.5 65.6 11.0 66.3 11.5 C 66.4 11.7 66.6 11.9 66.8 12.0 C 67.3 12.4 67.7 12.8 68.2 13.2 C 68.2 13.2 68.2 13.2 68.2 13.2 C 68.3 13.3 68.4 13.3 68.4 13.4 C 69.3 14.2 70.2 15.0 71.0 15.8 C 71.1 15.9 71.2 16.0 71.3 16.1 C 71.4 16.2 71.4 16.2 71.5 16.3 C 72.3 17.1 73.0 17.9 73.8 18.7 C 73.8 18.7 73.9 18.8 73.9 18.8 C 74.0 19.0 74.2 19.1 74.3 19.2 C 74.8 19.8 75.3 20.4 75.9 21.1 C 76.0 21.2 76.1 21.3 76.2 21.4 C 76.3 21.6 76.4 21.7 76.5 21.8 C 77.0 22.4 77.4 23.0 77.9 23.5 C 78.0 23.7 78.1 23.9 78.3 24.0 C 78.3 24.1 78.4 24.2 78.4 24.3 C 78.9 24.9 79.4 25.6 79.9 26.2 C 80.0 26.4 80.1 26.5 80.2 26.6 C 80.2 26.6 80.2 26.6 80.2 26.7 C 80.7 27.5 81.3 28.3 81.8 29.1 C 81.9 29.1 81.9 29.2 81.9 29.2 C 82.0 29.4 82.2 29.6 82.3 29.8 C 82.7 30.4 83.0 31.0 83.4 31.6 C 83.5 31.7 83.5 31.7 83.6 31.8 C 83.7 32.1 83.8 32.3 84.0 32.6 C 84.3 33.1 84.6 33.6 84.9 34.1 C 85.0 34.2 85.0 34.4 85.1 34.5 C 85.2 34.7 85.3 34.9 85.5 35.2 C 85.8 35.7 86.0 36.2 86.3 36.7 C 86.4 36.9 86.5 37.1 86.6 37.3 C 86.7 37.4 86.8 37.6 86.9 37.8 C 87.1 38.4 87.4 38.9 87.7 39.5 C 87.8 39.7 87.9 39.9 88.0 40.1 C 88.1 40.3 88.1 40.4 88.2 40.6 C 88.5 41.2 88.7 41.8 89.0 42.4 C 89.1 42.6 89.2 42.9 89.3 43.1 C 89.4 43.2 89.4 43.3 89.4 43.4 C 89.8 44.4 90.2 45.3 90.6 46.3 C 90.6 46.3 90.6 46.3 90.6 46.3 C 90.6 46.3 90.6 46.4 90.6 46.4 C 91.0 47.4 91.4 48.5 91.8 49.5 C 91.8 49.6 91.8 49.8 91.9 49.9 C 91.9 50.1 92.0 50.2 92.0 50.4 C 92.4 51.4 92.7 52.4 92.9 53.4 C 93.0 53.5 93.1 53.7 93.1 53.9 C 93.1 54.0 93.1 54.0 93.2 54.1 C 93.5 55.5 93.9 56.9 94.2 58.3 C 94.2 58.4 94.3 58.6 94.3 58.7 C 94.4 59.1 94.5 59.6 94.6 60.0 C 94.8 61.3 95.0 62.6 95.2 63.8 C 95.3 64.1 95.3 64.4 95.3 64.7 C 95.4 64.9 95.4 65.2 95.5 65.5 C 95.5 65.9 95.5 66.3 95.6 66.7 C 95.7 67.6 95.8 68.4 95.8 69.2 C 95.9 69.8 95.9 70.4 95.9 71.0 C 96.0 71.8 96.0 72.5 96.0 73.3 C 96.0 73.9 96.0 74.5 96.0 75.1 C 96.0 75.8 95.9 76.6 95.9 77.3 C 95.9 77.9 95.8 78.4 95.8 79.0 C 95.7 79.7 95.7 80.4 95.6 81.1 C 95.5 81.4 95.5 81.8 95.5 82.1 C 95.4 82.4 95.4 82.6 95.3 82.9 C 95.3 83.3 95.2 83.7 95.1 84.1 C 95.0 84.8 94.9 85.5 94.7 86.1 C 94.6 86.5 94.5 86.9 94.4 87.3 C 94.4 87.5 94.3 87.7 94.3 87.8 C 94.2 88.1 94.1 88.4 94.0 88.7 C 93.8 89.4 93.6 90.2 93.3 90.9 C 93.3 91.1 93.2 91.3 93.1 91.5 C 93.0 91.8 92.9 92.0 92.8 92.3 C 92.6 92.8 92.4 93.2 92.2 93.7 C 92.1 93.9 92.0 94.2 91.9 94.4 C 91.8 94.7 91.6 94.9 91.5 95.2 C 91.3 95.6 91.1 95.9 90.9 96.3 C 90.8 96.5 90.7 96.7 90.6 96.8 " fill="#F9CE1D"></path><path d="M 82.1 99.1 C 82.1 99.0 82.1 99.0 82.1 98.9 L 79.4 96.9 L 78.8 97.4 C 78.4 97.7 78.0 98.0 77.5 98.3 L 77.3 98.4 C 76.9 98.7 76.5 98.9 76.1 99.1 C 75.9 99.2 75.7 99.3 75.5 99.4 L 74.3 100.0 C 74.3 99.9 74.4 99.9 74.4 99.9 C 74.5 99.7 74.8 99.1 74.8 99.1 C 75.1 98.7 75.4 98.2 75.7 97.7 C 75.9 97.4 76.0 97.0 76.2 96.7 C 76.4 96.2 76.7 95.8 76.9 95.3 C 77.1 94.9 77.2 94.4 77.4 94.0 C 77.6 93.6 77.7 93.1 77.9 92.7 C 78.1 92.1 78.3 91.4 78.5 90.7 L 78.6 90.4 C 78.7 90.1 78.8 89.8 78.9 89.4 C 79.0 89.2 79.0 88.9 79.1 88.6 L 79.2 88.4 C 79.3 87.8 79.4 87.2 79.5 86.6 C 79.6 86.2 79.7 85.8 79.7 85.4 C 79.8 84.9 79.9 84.4 79.9 83.8 C 80.0 83.2 80.1 82.6 80.1 81.9 C 80.2 81.4 80.2 80.9 80.2 80.4 C 80.3 79.7 80.3 79.0 80.3 78.4 C 80.3 77.8 80.3 77.3 80.3 76.8 C 80.3 76.1 80.3 75.4 80.3 74.7 C 80.2 74.2 80.2 73.6 80.2 73.1 C 80.1 72.3 80.0 71.6 80.0 70.9 L 79.9 70.4 C 79.8 69.9 79.8 69.5 79.7 69.0 L 79.6 68.2 C 79.5 67.1 79.3 66.0 79.0 64.9 C 79.0 64.4 78.9 64.0 78.8 63.5 L 78.7 63.3 C 78.4 62.0 78.1 60.8 77.8 59.5 L 77.6 58.9 C 77.3 58.0 77.1 57.2 76.7 56.1 L 76.5 55.5 C 76.2 54.6 75.9 53.7 75.6 52.8 L 75.5 52.6 L 75.5 52.5 C 75.1 51.6 74.8 50.8 74.5 50.0 L 74.1 49.1 C 73.8 48.6 73.6 48.0 73.4 47.5 L 72.9 46.5 C 72.7 46.0 72.4 45.5 72.2 45.0 L 71.7 44.1 C 71.4 43.6 71.2 43.1 70.9 42.7 L 70.4 41.7 C 70.1 41.3 69.9 40.8 69.6 40.3 L 69.1 39.5 C 68.8 38.9 68.4 38.4 68.1 37.9 L 67.7 37.2 C 67.2 36.5 66.7 35.8 66.2 35.1 L 66.0 34.7 C 65.5 34.1 65.1 33.5 64.6 32.9 L 64.1 32.3 C 63.7 31.8 63.3 31.3 62.9 30.8 L 62.3 30.1 C 61.9 29.5 61.4 29.0 60.9 28.4 L 60.5 27.9 C 59.8 27.2 59.1 26.5 58.4 25.8 L 58.0 25.4 C 57.2 24.6 56.4 23.9 55.7 23.2 L 55.5 23.0 C 54.3 22.0 53.1 21.0 51.9 20.1 C 51.2 19.6 50.6 19.2 49.9 18.7 L 48.5 17.8 L 47.8 17.4 L 47.1 17.0 C 46.6 16.7 46.2 16.4 45.7 16.2 L 45.0 15.8 C 44.3 15.5 43.6 15.1 42.8 14.8 C 42.2 14.5 41.5 14.2 40.8 14.0 L 40.1 13.8 C 39.6 13.6 39.1 13.4 38.6 13.3 C 38.3 13.2 38.1 13.1 37.8 13.1 C 37.3 12.9 36.8 12.8 36.3 12.7 L 35.6 12.6 C 34.9 12.4 34.2 12.3 33.4 12.2 C 33.3 12.2 33.1 12.2 32.9 12.2 L 34.1 11.6 C 35.4 11.0 36.9 10.5 38.6 10.2 L 38.8 6.8 C 38.8 6.8 38.1 6.6 37.9 6.6 C 37.8 6.5 37.8 6.5 37.7 6.5 C 40.6 5.4 43.4 4.4 46.4 3.5 L 46.8 3.6 C 47.3 3.7 47.8 3.8 48.4 3.9 C 48.6 4.0 48.9 4.1 49.1 4.1 C 49.7 4.3 50.2 4.5 50.7 4.6 L 51.4 4.9 C 52.1 5.1 52.9 5.4 53.6 5.8 C 54.4 6.1 55.1 6.4 55.9 6.8 L 56.6 7.2 C 57.1 7.4 57.6 7.7 58.1 8.0 L 58.9 8.5 L 59.6 8.9 C 59.8 9.1 61.1 9.9 61.1 9.9 C 61.8 10.4 62.5 10.8 63.3 11.4 C 63.9 11.9 64.5 12.4 65.2 12.9 L 65.8 13.5 C 66.2 13.8 66.6 14.1 67.1 14.5 L 67.3 14.7 C 68.1 15.4 69.0 16.2 69.8 17.1 L 70.3 17.5 C 71.0 18.3 71.8 19.0 72.5 19.8 L 72.6 20.0 L 73.0 20.4 C 73.5 21.0 74.0 21.6 74.5 22.2 L 74.9 22.6 L 75.2 22.9 C 75.6 23.5 76.0 24.0 76.5 24.6 L 77.1 25.3 C 77.5 26.0 78.0 26.6 78.5 27.3 L 78.8 27.7 C 79.3 28.4 79.9 29.2 80.5 30.1 L 80.8 30.8 C 81.2 31.3 81.6 31.9 81.9 32.5 L 82.1 32.7 L 82.5 33.4 C 82.8 33.9 83.1 34.4 83.4 35.0 L 83.5 35.2 L 83.9 36.0 C 84.2 36.5 84.5 37.0 84.8 37.5 L 85.0 38.0 L 85.3 38.6 C 85.6 39.1 85.8 39.7 86.1 40.2 L 86.4 40.9 L 86.6 41.3 C 86.9 41.9 87.1 42.5 87.4 43.1 L 87.7 43.8 L 87.8 44.1 C 88.2 45.0 88.6 45.9 89.0 46.9 L 89.0 47.0 L 89.1 47.1 C 89.4 48.1 89.8 49.1 90.1 50.1 L 90.2 50.4 L 90.4 51.0 C 90.7 51.9 91.0 52.9 91.3 53.9 L 91.4 54.1 L 91.5 54.5 C 91.9 55.9 92.2 57.3 92.5 58.6 L 92.6 59.1 C 92.7 59.5 92.8 59.9 92.9 60.4 C 93.1 61.6 93.3 62.8 93.5 64.1 L 93.7 65.7 C 93.8 65.9 93.8 66.1 93.8 66.3 L 93.9 66.9 C 93.9 67.7 94.0 68.5 94.1 69.3 C 94.1 69.9 94.2 70.5 94.2 71.1 C 94.2 71.8 94.2 72.6 94.3 73.3 C 94.3 73.9 94.3 74.5 94.2 75.1 C 94.2 75.8 94.2 76.5 94.2 77.2 C 94.1 77.8 94.1 78.3 94.1 78.9 C 94.0 79.6 93.9 80.2 93.8 80.9 L 93.8 81.4 C 93.8 81.6 93.8 81.7 93.7 81.9 C 93.7 81.9 93.5 83.4 93.4 83.8 C 93.3 84.5 93.2 85.1 93.0 85.7 L 92.6 87.4 C 92.6 87.5 92.5 87.6 92.5 87.8 C 92.5 87.9 92.4 88.0 92.4 88.2 C 92.2 88.9 91.9 89.6 91.7 90.3 C 91.7 90.4 91.5 90.9 91.5 90.9 C 91.5 91.0 91.2 91.6 91.2 91.6 C 91.0 92.1 90.8 92.6 90.6 93.0 C 90.6 93.0 90.4 93.6 90.3 93.7 C 90.3 93.8 89.9 94.4 89.9 94.4 C 89.8 94.7 89.6 95.1 89.4 95.4 C 87.0 96.7 84.6 97.9 82.1 99.1 " fill="#F6DF3C"></path><path d="M 84.8 37.5 L 85.0 38.0 L 85.3 38.6 C 85.6 39.1 85.8 39.7 86.1 40.2 L 86.4 40.9 L 86.6 41.3 C 86.9 41.9 87.1 42.5 87.4 43.1 L 87.7 43.8 L 87.8 44.1 C 88.2 45.0 88.6 45.9 89.0 46.9 L 89.0 47.0 L 89.1 47.1 C 89.4 48.1 89.8 49.1 90.1 50.1 L 90.2 50.4 L 90.4 51.0 C 90.7 51.9 91.0 52.9 91.3 53.9 L 91.4 54.1 L 91.5 54.5 C 91.9 55.9 92.2 57.3 92.5 58.6 L 92.6 59.1 C 92.7 59.5 92.8 59.9 92.9 60.4 C 93.1 61.6 93.3 62.8 93.5 64.1 L 93.7 65.7 C 93.8 65.9 93.8 66.1 93.8 66.3 L 93.9 66.9 C 93.9 67.7 94.0 68.5 94.1 69.3 C 94.1 69.9 94.2 70.5 94.2 71.1 C 94.2 71.8 94.2 72.6 94.3 73.3 C 94.3 73.9 94.3 74.5 94.2 75.1 C 94.2 75.8 94.2 76.5 94.2 77.2 C 94.1 77.8 94.1 78.3 94.1 78.9 C 94.0 79.6 93.9 80.2 93.8 80.9 L 93.8 81.4 C 93.8 81.6 93.8 81.7 93.7 81.9 C 93.7 81.9 93.6 82.7 93.5 83.3 C 88.7 85.3 83.9 87.2 79.0 89.0 C 79.0 88.8 79.1 88.7 79.1 88.6 L 79.2 88.4 C 79.3 87.8 79.4 87.2 79.5 86.6 C 79.6 86.2 79.7 85.8 79.7 85.4 C 79.8 84.9 79.9 84.4 79.9 83.8 C 80.0 83.2 80.1 82.6 80.1 81.9 C 80.2 81.4 80.2 80.9 80.2 80.4 C 80.3 79.7 80.3 79.0 80.3 78.4 C 80.3 77.8 80.3 77.3 80.3 76.8 C 80.3 76.1 80.3 75.4 80.3 74.7 C 80.2 74.2 80.2 73.6 80.2 73.1 C 80.1 72.3 80.0 71.6 80.0 70.9 L 79.9 70.4 C 79.8 69.9 79.8 69.5 79.7 69.0 L 79.6 68.2 C 79.5 67.1 79.3 66.0 79.0 64.8 C 79.0 64.4 78.9 64.0 78.8 63.5 L 78.7 63.3 C 78.4 62.0 78.1 60.8 77.8 59.5 L 77.6 58.9 C 77.3 58.0 77.1 57.2 76.7 56.1 L 76.5 55.5 C 76.2 54.6 75.9 53.7 75.6 52.8 L 75.5 52.6 L 75.5 52.5 C 75.1 51.6 74.8 50.8 74.5 50.0 L 74.1 49.1 C 73.8 48.6 73.6 48.0 73.4 47.5 L 72.9 46.5 C 72.7 46.0 72.4 45.5 72.2 45.0 L 71.7 44.1 C 71.4 43.6 71.2 43.1 70.9 42.7 L 70.4 41.7 C 70.1 41.3 69.9 40.8 69.6 40.3 L 69.1 39.5 C 68.8 38.9 68.4 38.4 68.1 37.9 L 67.7 37.2 C 67.2 36.5 66.7 35.8 66.2 35.1 L 66.0 34.7 C 65.5 34.1 65.1 33.5 64.6 32.9 L 64.1 32.3 C 63.7 31.8 63.3 31.3 62.9 30.8 L 62.3 30.1 C 61.9 29.5 61.4 29.0 60.9 28.4 L 60.5 27.9 C 60.1 27.5 59.7 27.1 59.3 26.7 C 64.4 25.1 69.5 23.7 74.7 22.4 L 74.9 22.6 L 75.2 22.9 C 75.6 23.5 76.0 24.0 76.5 24.6 L 77.1 25.3 C 77.5 26.0 78.0 26.6 78.5 27.3 L 78.8 27.7 C 79.3 28.4 79.9 29.2 80.5 30.1 L 80.8 30.8 C 81.2 31.3 81.6 31.9 81.9 32.5 L 82.1 32.7 L 82.5 33.4 C 82.8 33.9 83.1 34.4 83.4 35.0 L 83.5 35.2 L 83.9 36.0 C 84.2 36.5 84.5 37.0 84.8 37.5 " fill="#F8E160"></path><path d="M 48.7 93.5 L 52.3 93.7 L 50.7 86.6 C 53.5 86.5 56.3 86.0 58.8 85.4 L 55.8 73.6 L 51.7 73.5 L 52.5 77.6 C 52.6 77.8 52.6 78.1 52.6 78.5 C 51.7 79.7 50.4 80.2 47.9 80.0 C 45.0 79.6 42.5 77.4 41.8 74.1 C 40.0 64.9 57.0 67.7 53.6 50.6 C 51.8 41.5 45.6 35.7 38.7 34.2 L 37.4 28.1 L 33.7 28.0 L 35.1 33.8 C 28.8 33.6 25.6 36.1 25.4 36.3 L 28.7 48.5 L 32.6 48.6 C 32.6 48.5 32.1 46.0 32.0 45.2 C 31.9 44.9 31.8 43.5 31.7 42.3 C 32.0 42.0 33.7 40.5 37.8 41.0 C 40.5 41.3 43.2 43.2 44.0 47.0 C 46.0 57.1 28.9 53.6 32.5 71.6 C 34.2 80.2 40.2 85.4 47.1 86.4 Z M 48.7 93.5 " fill="#E9A900"></path><path d="M 38.7 34.2 C 45.6 35.7 51.8 41.5 53.6 50.6 C 57.0 67.7 40.0 64.9 41.8 74.1 C 42.5 77.4 45.0 79.6 47.9 80.0 C 50.4 80.2 51.7 79.7 52.6 78.5 C 52.6 78.1 52.6 77.8 52.5 77.6 L 51.7 73.5 L 55.8 73.6 L 58.8 85.4 C 56.3 86.0 53.5 86.5 50.7 86.6 L 52.3 93.7 L 48.7 93.5 L 47.1 86.4 C 40.2 85.4 34.2 80.2 32.5 71.6 C 28.9 53.6 46.0 57.1 44.0 47.0 C 43.2 43.2 40.5 41.3 37.8 41.0 C 33.7 40.5 32.0 42.0 31.7 42.3 C 31.8 43.5 31.9 44.9 32.0 45.2 C 32.1 46.0 32.6 48.5 32.6 48.6 L 28.7 48.5 L 25.4 36.3 C 25.6 36.1 28.8 33.6 35.1 33.8 L 33.7 27.9 L 37.4 28.1 L 38.7 34.2 M 52.1 108.5 C 71.2 110.7 82.5 91.3 77.3 65.2 C 72.1 39.1 52.4 16.1 33.2 14.0 C 14.1 11.8 2.8 31.2 8.0 57.3 C 13.2 83.4 32.9 106.3 52.1 108.5 " fill="#D27813"></path><path d="M 26.7 41.0 L 28.7 48.5 L 32.6 48.6 C 32.6 48.5 32.1 46.0 32.0 45.2 C 31.9 44.9 31.8 43.5 31.7 42.3 C 32.0 42.0 33.7 40.5 37.8 41.0 C 40.5 41.3 43.2 43.2 44.0 47.0 C 46.0 57.1 28.9 53.6 32.5 71.6 C 34.2 80.2 40.2 85.4 47.1 86.4 L 47.9 89.9 C 44.0 94.0 40.2 98.2 36.5 102.4 C 23.2 93.5 11.7 76.2 8.0 57.3 C 7.9 56.9 7.8 56.6 7.8 56.2 C 14.0 51.1 20.3 46.0 26.7 41.0 " fill="#C46812"></path><path d="M 76.6 61.8 C 70.0 67.7 63.7 73.8 57.4 80.1 L 55.8 73.6 L 51.7 73.5 L 52.5 77.6 C 52.6 77.8 52.6 78.1 52.6 78.5 C 51.7 79.7 50.4 80.2 47.9 80.0 C 45.0 79.6 42.5 77.4 41.8 74.1 C 40.0 64.9 57.0 67.7 53.6 50.6 C 51.8 41.5 45.6 35.7 38.7 34.2 L 38.2 32.0 C 42.6 28.6 47.0 25.2 51.4 21.9 C 62.8 30.6 72.5 45.4 76.6 61.8 " fill="#C46812"></path><path d="M 50.8 86.9 L 50.7 86.6 C 50.8 86.6 51.0 86.6 51.1 86.6 C 51.0 86.7 50.9 86.8 50.8 86.9 " fill="#C46812"></path><path d="M 61.2 84.9 C 60.5 85.0 59.6 85.2 58.8 85.4 L 55.8 73.6 L 54.2 73.6 L 54.1 72.9 L 58.2 73.1 Z M 61.2 84.9 " fill="#BE5D00"></path><path d="M 50.2 79.4 C 50.7 79.5 51.1 79.5 51.5 79.5 C 50.7 80.0 49.5 80.1 47.9 80.0 C 45.0 79.6 42.5 77.4 41.8 74.1 C 40.0 64.9 57.0 67.7 53.6 50.6 C 51.8 41.5 45.6 35.7 38.7 34.2 L 37.4 28.1 L 36.3 28.1 L 36.1 27.4 L 39.8 27.6 L 41.1 33.6 C 48.0 35.1 54.2 40.9 56.0 50.0 C 59.4 67.2 42.4 64.3 44.2 73.5 C 44.9 76.8 47.4 79.1 50.2 79.4 " fill="#BE5D00"></path><path d="M 35.0 33.4 L 35.1 33.8 C 33.6 33.8 32.4 33.9 31.3 34.1 C 32.3 33.8 33.5 33.5 35.0 33.4 " fill="#BE5D00"></path><path d="M 10.4 56.7 C 15.6 82.8 35.3 105.8 54.5 108.0 C 56.8 108.2 59.0 108.2 61.1 107.8 C 58.3 108.6 55.3 108.9 52.1 108.5 C 32.9 106.3 13.2 83.4 8.0 57.3 C 3.4 34.4 11.6 16.6 26.6 14.1 C 13.1 18.0 6.1 35.0 10.4 56.7 " fill="#BE5D00"></path><path d="M 32.0 45.2 C 31.9 44.9 31.8 43.5 31.7 42.3 C 31.9 42.0 33.0 41.1 35.3 40.9 C 34.6 41.3 34.2 41.6 34.1 41.7 C 34.2 43.0 34.3 44.4 34.4 44.7 C 34.5 45.4 35.0 47.9 35.0 48.1 L 32.5 48.0 C 32.3 47.2 32.1 45.8 32.0 45.2 " fill="#BE5D00"></path><path d="M 50.7 86.6 C 51.5 86.6 52.3 86.5 53.1 86.4 L 54.7 93.2 L 52.1 93.0 Z M 50.7 86.6 " fill="#BE5D00"></path><path d="M 33.2 14.0 C 52.4 16.1 72.1 39.1 77.3 65.2 C 82.5 91.3 71.2 110.7 52.1 108.5 C 32.9 106.3 13.2 83.4 8.0 57.3 C 2.8 31.2 14.1 11.8 33.2 14.0 M 53.4 115.4 C 75.4 117.9 88.3 95.7 82.4 65.8 C 76.4 35.9 53.8 9.6 31.9 7.1 C 9.9 4.6 -3.0 26.8 2.9 56.7 C 8.9 86.6 31.5 112.9 53.4 115.4 " fill="#E8A205"></path><path d="M 47.8 79.9 C 45.7 81.5 43.6 83.0 41.5 84.5 C 37.1 82.1 33.7 77.7 32.5 71.6 C 29.0 54.2 45.0 56.9 44.1 47.9 C 46.2 46.1 48.3 44.3 50.4 42.5 C 51.9 44.8 53.0 47.5 53.6 50.6 C 57.0 67.7 40.0 64.9 41.8 74.1 C 42.5 77.3 44.9 79.6 47.8 79.9 " fill="#E29506"></path><path d="M 52.3 76.6 L 51.7 73.5 L 55.8 73.6 L 55.9 74.1 C 54.7 74.9 53.5 75.8 52.3 76.6 " fill="#E4A200"></path><path d="M 41.9 40.4 C 41.3 40.8 40.7 41.2 40.1 41.7 C 39.3 41.3 38.6 41.1 37.8 41.0 C 33.7 40.5 32.0 42.0 31.7 42.3 C 31.8 43.5 31.9 44.9 32.0 45.2 C 32.1 45.7 32.3 46.8 32.4 47.6 C 32.0 47.9 31.7 48.2 31.3 48.6 L 28.7 48.5 L 27.0 42.1 C 30.8 39.0 34.6 35.9 38.4 32.8 L 38.7 34.2 C 41.4 34.8 43.9 36.0 46.1 37.8 C 44.7 38.6 43.3 39.5 41.9 40.4 " fill="#E4A200"></path><path d="M 80.0 70.8 C 79.8 68.9 79.4 66.9 79.0 64.9 C 75.2 45.5 63.2 27.0 48.6 17.8 C 47.0 16.9 45.4 16.0 43.9 15.3 C 44.5 14.7 45.1 14.2 45.7 13.7 C 46.3 14.0 46.9 14.3 47.4 14.7 C 63.4 24.7 76.4 44.8 80.7 66.1 C 80.9 67.2 81.1 68.2 81.2 69.2 C 80.8 69.8 80.4 70.3 80.0 70.8 " fill="#D28700"></path><path d="M 6.3 57.6 C 10.1 77.0 22.1 95.5 36.8 104.6 C 41.1 107.3 45.5 109.1 49.8 109.9 C 49.1 110.8 48.5 111.6 47.9 112.5 C 44.6 111.4 41.2 109.9 37.9 107.8 C 21.9 97.8 8.9 77.6 4.6 56.4 C 4.3 54.8 4.1 53.3 3.9 51.8 C 4.3 51.4 4.8 50.9 5.3 50.5 C 5.5 52.8 5.8 55.2 6.3 57.6 " fill="#D28700"></path></g></g></g></svg>