<?xml version="1.0" encoding="UTF-8"?><svg xmlns="http://www.w3.org/2000/svg" xmlns:xlink="http://www.w3.org/1999/xlink" clip-rule="evenodd" stroke-miterlimit="4.00" viewBox="0 0 503 42"><desc>SVG generated by Keynote</desc><defs></defs><g transform="matrix(1.00, 0.00, -0.00, -1.00, 0.0, 42.0)"><text xml:space="preserve" font-family="Avenir-Light" font-size="30.0" fill="#000000" transform="matrix(1.00, 0.00, -0.00, -1.00, 0.7, 11.9)">•</text><text xml:space="preserve" font-family="Avenir-Light" font-size="40.0" fill="#000000" transform="matrix(1.00, 0.00, -0.00, -1.00, 40.0, 9.0)">F</text><text xml:space="preserve" font-family="Avenir-Light" font-size="40.0" fill="#000000" transform="matrix(1.00, 0.00, -0.00, -1.00, 62.2, 9.0)">o</text><text xml:space="preserve" font-family="Avenir-Light" font-size="40.0" fill="#000000" transform="matrix(1.00, 0.00, -0.00, -1.00, 86.0, 9.0)">r</text><text xml:space="preserve" font-family="Avenir-Light" font-size="40.0" fill="#000000" transform="matrix(1.00, 0.00, -0.00, -1.00, 99.3, 9.0)">m</text><text xml:space="preserve" font-family="Avenir-Light" font-size="40.0" fill="#000000" transform="matrix(1.00, 0.00, -0.00, -1.00, 133.4, 9.0)">a</text><text xml:space="preserve" font-family="Avenir-Light" font-size="40.0" fill="#000000" transform="matrix(1.00, 0.00, -0.00, -1.00, 154.2, 9.0)">l</text><text xml:space="preserve" font-family="Avenir-Light" font-size="40.0" fill="#000000" transform="matrix(1.00, 0.00, -0.00, -1.00, 163.8, 9.0)"> </text><text xml:space="preserve" font-family="Avenir-Light" font-size="40.0" fill="#000000" transform="matrix(1.00, 0.00, -0.00, -1.00, 174.2, 9.0)">E</text><text xml:space="preserve" font-family="Avenir-Light" font-size="40.0" fill="#000000" transform="matrix(1.00, 0.00, -0.00, -1.00, 197.9, 9.0)">l</text><text xml:space="preserve" font-family="Avenir-Light" font-size="40.0" fill="#000000" transform="matrix(1.00, 0.00, -0.00, -1.00, 207.5, 9.0)">e</text><text xml:space="preserve" font-family="Avenir-Light" font-size="40.0" fill="#000000" transform="matrix(1.00, 0.00, -0.00, -1.00, 229.7, 9.0)">m</text><text xml:space="preserve" font-family="Avenir-Light" font-size="40.0" fill="#000000" transform="matrix(1.00, 0.00, -0.00, -1.00, 263.8, 9.0)">e</text><text xml:space="preserve" font-family="Avenir-Light" font-size="40.0" fill="#000000" transform="matrix(1.00, 0.00, -0.00, -1.00, 286.0, 9.0)">n</text><text xml:space="preserve" font-family="Avenir-Light" font-size="40.0" fill="#000000" transform="matrix(1.00, 0.00, -0.00, -1.00, 308.3, 9.0)">t</text><text xml:space="preserve" font-family="Avenir-Light" font-size="40.0" fill="#000000" transform="matrix(1.00, 0.00, -0.00, -1.00, 321.6, 9.0)">s</text><text xml:space="preserve" font-family="Avenir-Light" font-size="40.0" fill="#000000" transform="matrix(1.00, 0.00, -0.00, -1.00, 338.6, 9.0)"> </text><text xml:space="preserve" font-family="Avenir-Light" font-size="40.0" fill="#000000" transform="matrix(1.00, 0.00, -0.00, -1.00, 349.0, 9.0)">o</text><text xml:space="preserve" font-family="Avenir-Light" font-size="40.0" fill="#000000" transform="matrix(1.00, 0.00, -0.00, -1.00, 372.8, 9.0)">f</text><text xml:space="preserve" font-family="Avenir-Light" font-size="40.0" fill="#000000" transform="matrix(1.00, 0.00, -0.00, -1.00, 384.6, 9.0)"> </text><text xml:space="preserve" font-family="Avenir-Light" font-size="40.0" fill="#000000" transform="matrix(1.00, 0.00, -0.00, -1.00, 395.0, 9.0)">G</text><text xml:space="preserve" font-family="Avenir-Light" font-size="40.0" fill="#000000" transform="matrix(1.00, 0.00, -0.00, -1.00, 426.2, 9.0)">a</text><text xml:space="preserve" font-family="Avenir-Light" font-size="40.0" fill="#000000" transform="matrix(1.00, 0.00, -0.00, -1.00, 446.9, 9.0)">m</text><text xml:space="preserve" font-family="Avenir-Light" font-size="40.0" fill="#000000" transform="matrix(1.00, 0.00, -0.00, -1.00, 481.0, 9.0)">e</text></g></svg>