<?xml version="1.0" encoding="UTF-8"?><svg xmlns="http://www.w3.org/2000/svg" xmlns:xlink="http://www.w3.org/1999/xlink" clip-rule="evenodd" stroke-miterlimit="4.00" viewBox="0 0 661 41"><desc>SVG generated by Keynote</desc><defs></defs><g transform="matrix(1.00, 0.00, -0.00, -1.00, 0.0, 41.0)"><text xml:space="preserve" font-family="Avenir-Medium" font-size="40.0" fill="#000000" transform="matrix(1.00, 0.00, -0.00, -1.00, 0.0, 8.0)">4</text><text xml:space="preserve" font-family="Avenir-Medium" font-size="40.0" fill="#000000" transform="matrix(1.00, 0.00, -0.00, -1.00, 22.2, 8.0)">0</text><text xml:space="preserve" font-family="Avenir-Medium" font-size="40.0" fill="#000000" transform="matrix(1.00, 0.00, -0.00, -1.00, 44.5, 8.0)">0</text><text xml:space="preserve" font-family="Avenir-Medium" font-size="40.0" fill="#000000" transform="matrix(1.00, 0.00, -0.00, -1.00, 66.7, 8.0)"> </text><text xml:space="preserve" font-family="Avenir-Medium" font-size="40.0" fill="#000000" transform="matrix(1.00, 0.00, -0.00, -1.00, 77.8, 8.0)"> </text><text xml:space="preserve" font-family="Avenir-Medium" font-size="40.0" fill="#000000" transform="matrix(1.00, 0.00, -0.00, -1.00, 89.0, 8.0)"> </text><text xml:space="preserve" font-family="Avenir-Medium" font-size="40.0" fill="#000000" transform="matrix(1.00, 0.00, -0.00, -1.00, 100.1, 8.0)">*</text><text xml:space="preserve" font-family="Avenir-Medium" font-size="40.0" fill="#000000" transform="matrix(1.00, 0.00, -0.00, -1.00, 118.6, 8.0)"> </text><text xml:space="preserve" font-family="Avenir-Medium" font-size="40.0" fill="#000000" transform="matrix(1.00, 0.00, -0.00, -1.00, 129.8, 8.0)"> </text><text xml:space="preserve" font-family="Avenir-Medium" font-size="40.0" fill="#000000" transform="matrix(1.00, 0.00, -0.00, -1.00, 140.9, 8.0)"> </text><text xml:space="preserve" font-family="Avenir-Medium" font-size="40.0" fill="#000000" transform="matrix(1.00, 0.00, -0.00, -1.00, 152.0, 8.0)">4</text><text xml:space="preserve" font-family="Avenir-Medium" font-size="40.0" fill="#000000" transform="matrix(1.00, 0.00, -0.00, -1.00, 174.2, 8.0)">.</text><text xml:space="preserve" font-family="Avenir-Medium" font-size="40.0" fill="#000000" transform="matrix(1.00, 0.00, -0.00, -1.00, 185.4, 8.0)">9</text><text xml:space="preserve" font-family="Avenir-Medium" font-size="40.0" fill="#000000" transform="matrix(1.00, 0.00, -0.00, -1.00, 207.6, 8.0)">9</text><text xml:space="preserve" font-family="Avenir-Medium" font-size="40.0" fill="#000000" transform="matrix(1.00, 0.00, -0.00, -1.00, 229.8, 8.0)"> </text><text xml:space="preserve" font-family="Avenir-Medium" font-size="40.0" fill="#000000" transform="matrix(1.00, 0.00, -0.00, -1.00, 241.0, 8.0)"> </text><text xml:space="preserve" font-family="Avenir-Medium" font-size="40.0" fill="#000000" transform="matrix(1.00, 0.00, -0.00, -1.00, 252.1, 8.0)"> </text><text xml:space="preserve" font-family="Avenir-Medium" font-size="40.0" fill="#000000" transform="matrix(1.00, 0.00, -0.00, -1.00, 263.2, 8.0)">*</text><text xml:space="preserve" font-family="Avenir-Medium" font-size="40.0" fill="#000000" transform="matrix(1.00, 0.00, -0.00, -1.00, 281.8, 8.0)"> </text><text xml:space="preserve" font-family="Avenir-Medium" font-size="40.0" fill="#000000" transform="matrix(1.00, 0.00, -0.00, -1.00, 292.9, 8.0)"> </text><text xml:space="preserve" font-family="Avenir-Medium" font-size="40.0" fill="#000000" transform="matrix(1.00, 0.00, -0.00, -1.00, 304.0, 8.0)"> </text><text xml:space="preserve" font-family="Avenir-Medium" font-size="40.0" fill="#000000" transform="matrix(1.00, 0.00, -0.00, -1.00, 315.1, 8.0)">2</text><text xml:space="preserve" font-family="Avenir-Medium" font-size="40.0" fill="#000000" transform="matrix(1.00, 0.00, -0.00, -1.00, 337.4, 8.0)"> </text><text xml:space="preserve" font-family="Avenir-Medium" font-size="40.0" fill="#000000" transform="matrix(1.00, 0.00, -0.00, -1.00, 348.5, 8.0)"> </text><text xml:space="preserve" font-family="Avenir-Medium" font-size="40.0" fill="#000000" transform="matrix(1.00, 0.00, -0.00, -1.00, 359.6, 8.0)"> </text><text xml:space="preserve" font-family="Avenir-Medium" font-size="40.0" fill="#000000" transform="matrix(1.00, 0.00, -0.00, -1.00, 370.7, 8.0)">*</text><text xml:space="preserve" font-family="Avenir-Medium" font-size="40.0" fill="#000000" transform="matrix(1.00, 0.00, -0.00, -1.00, 389.3, 8.0)"> </text><text xml:space="preserve" font-family="Avenir-Medium" font-size="40.0" fill="#000000" transform="matrix(1.00, 0.00, -0.00, -1.00, 400.4, 8.0)"> </text><text xml:space="preserve" font-family="Avenir-Medium" font-size="40.0" fill="#000000" transform="matrix(1.00, 0.00, -0.00, -1.00, 411.5, 8.0)"> </text><text xml:space="preserve" font-family="Avenir-Medium" font-size="40.0" fill="#000000" transform="matrix(1.00, 0.00, -0.00, -1.00, 422.6, 8.0)">6</text><text xml:space="preserve" font-family="Avenir-Medium" font-size="40.0" fill="#000000" transform="matrix(1.00, 0.00, -0.00, -1.00, 444.9, 8.0)"> </text><text xml:space="preserve" font-family="Avenir-Medium" font-size="40.0" fill="#000000" transform="matrix(1.00, 0.00, -0.00, -1.00, 456.0, 8.0)"> </text><text xml:space="preserve" font-family="Avenir-Medium" font-size="40.0" fill="#000000" transform="matrix(1.00, 0.00, -0.00, -1.00, 467.1, 8.0)">=</text><text xml:space="preserve" font-family="Avenir-Medium" font-size="40.0" fill="#000000" transform="matrix(1.00, 0.00, -0.00, -1.00, 493.8, 8.0)"> </text><text xml:space="preserve" font-family="Avenir-Medium" font-size="40.0" fill="#000000" transform="matrix(1.00, 0.00, -0.00, -1.00, 504.9, 8.0)"> </text><text xml:space="preserve" font-family="Avenir-Medium" font-size="40.0" fill="#000000" transform="matrix(1.00, 0.00, -0.00, -1.00, 516.0, 8.0)">$</text><text xml:space="preserve" font-family="Avenir-Medium" font-size="40.0" fill="#000000" transform="matrix(1.00, 0.00, -0.00, -1.00, 538.2, 8.0)">2</text><text xml:space="preserve" font-family="Avenir-Medium" font-size="40.0" fill="#000000" transform="matrix(1.00, 0.00, -0.00, -1.00, 560.5, 8.0)">3</text><text xml:space="preserve" font-family="Avenir-Medium" font-size="40.0" fill="#000000" transform="matrix(1.00, 0.00, -0.00, -1.00, 582.7, 8.0)">,</text><text xml:space="preserve" font-family="Avenir-Medium" font-size="40.0" fill="#000000" transform="matrix(1.00, 0.00, -0.00, -1.00, 593.8, 8.0)">9</text><text xml:space="preserve" font-family="Avenir-Medium" font-size="40.0" fill="#000000" transform="matrix(1.00, 0.00, -0.00, -1.00, 616.1, 8.0)">5</text><text xml:space="preserve" font-family="Avenir-Medium" font-size="40.0" fill="#000000" transform="matrix(1.00, 0.00, -0.00, -1.00, 638.3, 8.0)">2</text></g></svg>