<?xml version="1.0" encoding="UTF-8"?><svg xmlns="http://www.w3.org/2000/svg" xmlns:xlink="http://www.w3.org/1999/xlink" clip-rule="evenodd" stroke-miterlimit="4.00" viewBox="0 0 409 35"><desc>SVG generated by Keynote</desc><defs></defs><g transform="matrix(1.00, 0.00, -0.00, -1.00, 0.0, 35.0)"><text xml:space="preserve" font-family="Avenir-Heavy" font-weight="bold" font-size="40.0" fill="#00ACED" transform="matrix(1.00, 0.00, -0.00, -1.00, -1.0, 4.0)">2</text><text xml:space="preserve" font-family="Avenir-Heavy" font-weight="bold" font-size="40.0" fill="#00ACED" transform="matrix(1.00, 0.00, -0.00, -1.00, 22.7, 4.0)">0</text><text xml:space="preserve" font-family="Avenir-Heavy" font-weight="bold" font-size="40.0" fill="#00ACED" transform="matrix(1.00, 0.00, -0.00, -1.00, 46.4, 4.0)">0</text><text xml:space="preserve" font-family="Avenir-Heavy" font-weight="bold" font-size="40.0" fill="#00ACED" transform="matrix(1.00, 0.00, -0.00, -1.00, 70.0, 4.0)">0</text><text xml:space="preserve" font-family="Avenir-Heavy" font-weight="bold" font-size="40.0" fill="#00ACED" transform="matrix(1.00, 0.00, -0.00, -1.00, 93.7, 4.0)"> </text><text xml:space="preserve" font-family="Avenir-Heavy" font-weight="bold" font-size="40.0" fill="#00ACED" transform="matrix(1.00, 0.00, -0.00, -1.00, 105.6, 4.0)">s</text><text xml:space="preserve" font-family="Avenir-Heavy" font-weight="bold" font-size="40.0" fill="#00ACED" transform="matrix(1.00, 0.00, -0.00, -1.00, 123.3, 4.0)">t</text><text xml:space="preserve" font-family="Avenir-Heavy" font-weight="bold" font-size="40.0" fill="#00ACED" transform="matrix(1.00, 0.00, -0.00, -1.00, 138.9, 4.0)">u</text><text xml:space="preserve" font-family="Avenir-Heavy" font-weight="bold" font-size="40.0" fill="#00ACED" transform="matrix(1.00, 0.00, -0.00, -1.00, 161.8, 4.0)">d</text><text xml:space="preserve" font-family="Avenir-Heavy" font-weight="bold" font-size="40.0" fill="#00ACED" transform="matrix(1.00, 0.00, -0.00, -1.00, 187.0, 4.0)">e</text><text xml:space="preserve" font-family="Avenir-Heavy" font-weight="bold" font-size="40.0" fill="#00ACED" transform="matrix(1.00, 0.00, -0.00, -1.00, 210.0, 4.0)">n</text><text xml:space="preserve" font-family="Avenir-Heavy" font-weight="bold" font-size="40.0" fill="#00ACED" transform="matrix(1.00, 0.00, -0.00, -1.00, 233.0, 4.0)">t</text><text xml:space="preserve" font-family="Avenir-Heavy" font-weight="bold" font-size="40.0" fill="#00ACED" transform="matrix(1.00, 0.00, -0.00, -1.00, 248.5, 4.0)">s</text><text xml:space="preserve" font-family="Avenir-Heavy" font-weight="bold" font-size="40.0" fill="#00ACED" transform="matrix(1.00, 0.00, -0.00, -1.00, 266.3, 4.0)"> </text><text xml:space="preserve" font-family="Avenir-Heavy" font-weight="bold" font-size="40.0" fill="#00ACED" transform="matrix(1.00, 0.00, -0.00, -1.00, 278.1, 4.0)">i</text><text xml:space="preserve" font-family="Avenir-Heavy" font-weight="bold" font-size="40.0" fill="#00ACED" transform="matrix(1.00, 0.00, -0.00, -1.00, 288.5, 4.0)">n</text><text xml:space="preserve" font-family="Avenir-Heavy" font-weight="bold" font-size="40.0" fill="#00ACED" transform="matrix(1.00, 0.00, -0.00, -1.00, 311.5, 4.0)"> </text><text xml:space="preserve" font-family="Avenir-Heavy" font-weight="bold" font-size="40.0" fill="#00ACED" transform="matrix(1.00, 0.00, -0.00, -1.00, 323.3, 4.0)">C</text><text xml:space="preserve" font-family="Avenir-Heavy" font-weight="bold" font-size="40.0" fill="#00ACED" transform="matrix(1.00, 0.00, -0.00, -1.00, 350.7, 4.0)">C</text><text xml:space="preserve" font-family="Avenir-Heavy" font-weight="bold" font-size="40.0" fill="#00ACED" transform="matrix(1.00, 0.00, -0.00, -1.00, 378.1, 4.0)">A</text></g></svg>