<?xml version="1.0" encoding="UTF-8"?><svg xmlns="http://www.w3.org/2000/svg" xmlns:xlink="http://www.w3.org/1999/xlink" clip-rule="evenodd" stroke-miterlimit="4.00" viewBox="0 0 345 47"><desc>SVG generated by Keynote</desc><defs></defs><g transform="matrix(1.00, 0.00, -0.00, -1.00, 0.0, 47.0)"><text xml:space="preserve" font-family="Avenir-Medium" font-size="40.0" fill="#000000" transform="matrix(1.00, 0.00, -0.00, -1.00, 0.0, 13.0)">S</text><text xml:space="preserve" font-family="Avenir-Medium" font-size="40.0" fill="#000000" transform="matrix(1.00, 0.00, -0.00, -1.00, 22.2, 13.0)">e</text><text xml:space="preserve" font-family="Avenir-Medium" font-size="40.0" fill="#000000" transform="matrix(1.00, 0.00, -0.00, -1.00, 44.5, 13.0)">l</text><text xml:space="preserve" font-family="Avenir-Medium" font-size="40.0" fill="#000000" transform="matrix(1.00, 0.00, -0.00, -1.00, 54.1, 13.0)">l</text><text xml:space="preserve" font-family="Avenir-Medium" font-size="40.0" fill="#000000" transform="matrix(1.00, 0.00, -0.00, -1.00, 63.7, 13.0)">i</text><text xml:space="preserve" font-family="Avenir-Medium" font-size="40.0" fill="#000000" transform="matrix(1.00, 0.00, -0.00, -1.00, 73.3, 13.0)">n</text><text xml:space="preserve" font-family="Avenir-Medium" font-size="40.0" fill="#000000" transform="matrix(1.00, 0.00, -0.00, -1.00, 95.5, 13.0)">g</text><text xml:space="preserve" font-family="Avenir-Medium" font-size="40.0" fill="#000000" transform="matrix(1.00, 0.00, -0.00, -1.00, 120.0, 13.0)"> </text><text xml:space="preserve" font-family="Avenir-Medium" font-size="40.0" fill="#000000" transform="matrix(1.00, 0.00, -0.00, -1.00, 131.1, 13.0)">p</text><text xml:space="preserve" font-family="Avenir-Medium" font-size="40.0" fill="#000000" transform="matrix(1.00, 0.00, -0.00, -1.00, 155.5, 13.0)">r</text><text xml:space="preserve" font-family="Avenir-Medium" font-size="40.0" fill="#000000" transform="matrix(1.00, 0.00, -0.00, -1.00, 170.3, 13.0)">i</text><text xml:space="preserve" font-family="Avenir-Medium" font-size="40.0" fill="#000000" transform="matrix(1.00, 0.00, -0.00, -1.00, 179.9, 13.0)">c</text><text xml:space="preserve" font-family="Avenir-Medium" font-size="40.0" fill="#000000" transform="matrix(1.00, 0.00, -0.00, -1.00, 199.2, 13.0)">e</text><text xml:space="preserve" font-family="Avenir-Medium" font-size="40.0" fill="#000000" transform="matrix(1.00, 0.00, -0.00, -1.00, 221.4, 13.0)"> </text><text xml:space="preserve" font-family="Avenir-Medium" font-size="40.0" fill="#000000" transform="matrix(1.00, 0.00, -0.00, -1.00, 232.6, 13.0)">$</text><text xml:space="preserve" font-family="Avenir-Medium" font-size="40.0" fill="#000000" transform="matrix(1.00, 0.00, -0.00, -1.00, 254.8, 13.0)"> </text><text xml:space="preserve" font-family="Avenir-Medium" font-size="40.0" fill="#000000" transform="matrix(1.00, 0.00, -0.00, -1.00, 265.9, 13.0)">4</text><text xml:space="preserve" font-family="Avenir-Medium" font-size="40.0" fill="#000000" transform="matrix(1.00, 0.00, -0.00, -1.00, 288.2, 13.0)">.</text><text xml:space="preserve" font-family="Avenir-Medium" font-size="40.0" fill="#000000" transform="matrix(1.00, 0.00, -0.00, -1.00, 299.3, 13.0)">9</text><text xml:space="preserve" font-family="Avenir-Medium" font-size="40.0" fill="#000000" transform="matrix(1.00, 0.00, -0.00, -1.00, 321.5, 13.0)">9</text></g></svg>