<?xml version="1.0" encoding="UTF-8"?><svg xmlns="http://www.w3.org/2000/svg" xmlns:xlink="http://www.w3.org/1999/xlink" clip-rule="evenodd" stroke-miterlimit="4.00" viewBox="0 0 961 47"><desc>SVG generated by Keynote</desc><defs></defs><g transform="matrix(1.00, 0.00, -0.00, -1.00, 0.0, 47.0)"><text xml:space="preserve" font-family="Avenir-Book" font-size="30.0" fill="#000000" transform="matrix(1.00, 0.00, -0.00, -1.00, 0.7, 16.9)">•</text><text xml:space="preserve" font-family="Avenir-Book" font-size="40.0" fill="#000000" transform="matrix(1.00, 0.00, -0.00, -1.00, 40.0, 14.0)">W</text><text xml:space="preserve" font-family="Avenir-Book" font-size="40.0" fill="#000000" transform="matrix(1.00, 0.00, -0.00, -1.00, 76.3, 14.0)">a</text><text xml:space="preserve" font-family="Avenir-Book" font-size="40.0" fill="#000000" transform="matrix(1.00, 0.00, -0.00, -1.00, 97.0, 14.0)">n</text><text xml:space="preserve" font-family="Avenir-Book" font-size="40.0" fill="#000000" transform="matrix(1.00, 0.00, -0.00, -1.00, 119.3, 14.0)">t</text><text xml:space="preserve" font-family="Avenir-Book" font-size="40.0" fill="#000000" transform="matrix(1.00, 0.00, -0.00, -1.00, 132.6, 14.0)">e</text><text xml:space="preserve" font-family="Avenir-Book" font-size="40.0" fill="#000000" transform="matrix(1.00, 0.00, -0.00, -1.00, 154.8, 14.0)">d</text><text xml:space="preserve" font-family="Avenir-Book" font-size="40.0" fill="#000000" transform="matrix(1.00, 0.00, -0.00, -1.00, 179.2, 14.0)"> </text><text xml:space="preserve" font-family="Avenir-Book" font-size="40.0" fill="#000000" transform="matrix(1.00, 0.00, -0.00, -1.00, 190.4, 14.0)">i</text><text xml:space="preserve" font-family="Avenir-Book" font-size="40.0" fill="#000000" transform="matrix(1.00, 0.00, -0.00, -1.00, 200.0, 14.0)">t</text><text xml:space="preserve" font-family="Avenir-Book" font-size="40.0" fill="#000000" transform="matrix(1.00, 0.00, -0.00, -1.00, 213.2, 14.0)"> </text><text xml:space="preserve" font-family="Avenir-Book" font-size="40.0" fill="#000000" transform="matrix(1.00, 0.00, -0.00, -1.00, 224.4, 14.0)">t</text><text xml:space="preserve" font-family="Avenir-Book" font-size="40.0" fill="#000000" transform="matrix(1.00, 0.00, -0.00, -1.00, 237.6, 14.0)">o</text><text xml:space="preserve" font-family="Avenir-Book" font-size="40.0" fill="#000000" transform="matrix(1.00, 0.00, -0.00, -1.00, 261.4, 14.0)"> </text><text xml:space="preserve" font-family="Avenir-Book" font-size="40.0" fill="#000000" transform="matrix(1.00, 0.00, -0.00, -1.00, 272.5, 14.0)">b</text><text xml:space="preserve" font-family="Avenir-Book" font-size="40.0" fill="#000000" transform="matrix(1.00, 0.00, -0.00, -1.00, 296.9, 14.0)">e</text><text xml:space="preserve" font-family="Avenir-Book" font-size="40.0" fill="#000000" transform="matrix(1.00, 0.00, -0.00, -1.00, 319.2, 14.0)"> </text><text xml:space="preserve" font-family="Avenir-Book" font-size="40.0" fill="#000000" transform="matrix(1.00, 0.00, -0.00, -1.00, 330.3, 14.0)">m</text><text xml:space="preserve" font-family="Avenir-Book" font-size="40.0" fill="#000000" transform="matrix(1.00, 0.00, -0.00, -1.00, 364.4, 14.0)">i</text><text xml:space="preserve" font-family="Avenir-Book" font-size="40.0" fill="#000000" transform="matrix(1.00, 0.00, -0.00, -1.00, 374.0, 14.0)">n</text><text xml:space="preserve" font-family="Avenir-Book" font-size="40.0" fill="#000000" transform="matrix(1.00, 0.00, -0.00, -1.00, 396.2, 14.0)">i</text><text xml:space="preserve" font-family="Avenir-Book" font-size="40.0" fill="#000000" transform="matrix(1.00, 0.00, -0.00, -1.00, 405.8, 14.0)">m</text><text xml:space="preserve" font-family="Avenir-Book" font-size="40.0" fill="#000000" transform="matrix(1.00, 0.00, -0.00, -1.00, 439.9, 14.0)">a</text><text xml:space="preserve" font-family="Avenir-Book" font-size="40.0" fill="#000000" transform="matrix(1.00, 0.00, -0.00, -1.00, 460.6, 14.0)">l</text><text xml:space="preserve" font-family="Avenir-Book" font-size="40.0" fill="#000000" transform="matrix(1.00, 0.00, -0.00, -1.00, 470.2, 14.0)">,</text><text xml:space="preserve" font-family="Avenir-Book" font-size="40.0" fill="#000000" transform="matrix(1.00, 0.00, -0.00, -1.00, 481.4, 14.0)"> </text><text xml:space="preserve" font-family="Avenir-Book" font-size="40.0" fill="#000000" transform="matrix(1.00, 0.00, -0.00, -1.00, 492.5, 14.0)">c</text><text xml:space="preserve" font-family="Avenir-Book" font-size="40.0" fill="#000000" transform="matrix(1.00, 0.00, -0.00, -1.00, 511.8, 14.0)">l</text><text xml:space="preserve" font-family="Avenir-Book" font-size="40.0" fill="#000000" transform="matrix(1.00, 0.00, -0.00, -1.00, 521.4, 14.0)">e</text><text xml:space="preserve" font-family="Avenir-Book" font-size="40.0" fill="#000000" transform="matrix(1.00, 0.00, -0.00, -1.00, 543.6, 14.0)">a</text><text xml:space="preserve" font-family="Avenir-Book" font-size="40.0" fill="#000000" transform="matrix(1.00, 0.00, -0.00, -1.00, 564.4, 14.0)">n</text><text xml:space="preserve" font-family="Avenir-Book" font-size="40.0" fill="#000000" transform="matrix(1.00, 0.00, -0.00, -1.00, 586.6, 14.0)">,</text><text xml:space="preserve" font-family="Avenir-Book" font-size="40.0" fill="#000000" transform="matrix(1.00, 0.00, -0.00, -1.00, 597.7, 14.0)"> </text><text xml:space="preserve" font-family="Avenir-Book" font-size="40.0" fill="#000000" transform="matrix(1.00, 0.00, -0.00, -1.00, 608.8, 14.0)">s</text><text xml:space="preserve" font-family="Avenir-Book" font-size="40.0" fill="#000000" transform="matrix(1.00, 0.00, -0.00, -1.00, 625.9, 14.0)">i</text><text xml:space="preserve" font-family="Avenir-Book" font-size="40.0" fill="#000000" transform="matrix(1.00, 0.00, -0.00, -1.00, 635.5, 14.0)">m</text><text xml:space="preserve" font-family="Avenir-Book" font-size="40.0" fill="#000000" transform="matrix(1.00, 0.00, -0.00, -1.00, 669.6, 14.0)">p</text><text xml:space="preserve" font-family="Avenir-Book" font-size="40.0" fill="#000000" transform="matrix(1.00, 0.00, -0.00, -1.00, 694.0, 14.0)">l</text><text xml:space="preserve" font-family="Avenir-Book" font-size="40.0" fill="#000000" transform="matrix(1.00, 0.00, -0.00, -1.00, 703.6, 14.0)">e</text><text xml:space="preserve" font-family="Avenir-Book" font-size="40.0" fill="#000000" transform="matrix(1.00, 0.00, -0.00, -1.00, 725.8, 14.0)"> </text><text xml:space="preserve" font-family="Avenir-Book" font-size="40.0" fill="#000000" transform="matrix(1.00, 0.00, -0.00, -1.00, 737.0, 14.0)">a</text><text xml:space="preserve" font-family="Avenir-Book" font-size="40.0" fill="#000000" transform="matrix(1.00, 0.00, -0.00, -1.00, 757.7, 14.0)">n</text><text xml:space="preserve" font-family="Avenir-Book" font-size="40.0" fill="#000000" transform="matrix(1.00, 0.00, -0.00, -1.00, 780.0, 14.0)">d</text><text xml:space="preserve" font-family="Avenir-Book" font-size="40.0" fill="#000000" transform="matrix(1.00, 0.00, -0.00, -1.00, 804.4, 14.0)"> </text><text xml:space="preserve" font-family="Avenir-Book" font-size="40.0" fill="#000000" transform="matrix(1.00, 0.00, -0.00, -1.00, 815.5, 14.0)">e</text><text xml:space="preserve" font-family="Avenir-Book" font-size="40.0" fill="#000000" transform="matrix(1.00, 0.00, -0.00, -1.00, 837.8, 14.0)">l</text><text xml:space="preserve" font-family="Avenir-Book" font-size="40.0" fill="#000000" transform="matrix(1.00, 0.00, -0.00, -1.00, 847.4, 14.0)">e</text><text xml:space="preserve" font-family="Avenir-Book" font-size="40.0" fill="#000000" transform="matrix(1.00, 0.00, -0.00, -1.00, 869.6, 14.0)">g</text><text xml:space="preserve" font-family="Avenir-Book" font-size="40.0" fill="#000000" transform="matrix(1.00, 0.00, -0.00, -1.00, 894.0, 14.0)">a</text><text xml:space="preserve" font-family="Avenir-Book" font-size="40.0" fill="#000000" transform="matrix(1.00, 0.00, -0.00, -1.00, 914.8, 14.0)">n</text><text xml:space="preserve" font-family="Avenir-Book" font-size="40.0" fill="#000000" transform="matrix(1.00, 0.00, -0.00, -1.00, 937.0, 14.0)">t</text><text xml:space="preserve" font-family="Avenir-Book" font-size="40.0" fill="#000000" transform="matrix(1.00, 0.00, -0.00, -1.00, 950.3, 14.0)">.</text></g></svg>