<?xml version="1.0" encoding="UTF-8"?><svg xmlns="http://www.w3.org/2000/svg" xmlns:xlink="http://www.w3.org/1999/xlink" clip-rule="evenodd" stroke-miterlimit="4.00" viewBox="0 0 678 44"><desc>SVG generated by Keynote</desc><defs></defs><g transform="matrix(1.00, 0.00, -0.00, -1.00, 0.0, 44.0)"><text xml:space="preserve" font-family="Avenir-Medium" font-size="40.0" fill="#000000" transform="matrix(1.00, 0.00, -0.00, -1.00, -1.0, 12.0)">D</text><text xml:space="preserve" font-family="Avenir-Medium" font-size="40.0" fill="#000000" transform="matrix(1.00, 0.00, -0.00, -1.00, 28.6, 12.0)">o</text><text xml:space="preserve" font-family="Avenir-Medium" font-size="40.0" fill="#000000" transform="matrix(1.00, 0.00, -0.00, -1.00, 52.4, 12.0)">m</text><text xml:space="preserve" font-family="Avenir-Medium" font-size="40.0" fill="#000000" transform="matrix(1.00, 0.00, -0.00, -1.00, 86.5, 12.0)">e</text><text xml:space="preserve" font-family="Avenir-Medium" font-size="40.0" fill="#000000" transform="matrix(1.00, 0.00, -0.00, -1.00, 108.7, 12.0)">s</text><text xml:space="preserve" font-family="Avenir-Medium" font-size="40.0" fill="#000000" transform="matrix(1.00, 0.00, -0.00, -1.00, 126.5, 12.0)">t</text><text xml:space="preserve" font-family="Avenir-Medium" font-size="40.0" fill="#000000" transform="matrix(1.00, 0.00, -0.00, -1.00, 141.3, 12.0)">i</text><text xml:space="preserve" font-family="Avenir-Medium" font-size="40.0" fill="#000000" transform="matrix(1.00, 0.00, -0.00, -1.00, 150.9, 12.0)">c</text><text xml:space="preserve" font-family="Avenir-Medium" font-size="40.0" fill="#000000" transform="matrix(1.00, 0.00, -0.00, -1.00, 170.2, 12.0)">s</text><text xml:space="preserve" font-family="Avenir-Medium" font-size="40.0" fill="#000000" transform="matrix(1.00, 0.00, -0.00, -1.00, 187.9, 12.0)"> </text><text xml:space="preserve" font-family="Avenir-Medium" font-size="40.0" fill="#000000" transform="matrix(1.00, 0.00, -0.00, -1.00, 199.0, 12.0)">s</text><text xml:space="preserve" font-family="Avenir-Medium" font-size="40.0" fill="#000000" transform="matrix(1.00, 0.00, -0.00, -1.00, 216.8, 12.0)">t</text><text xml:space="preserve" font-family="Avenir-Medium" font-size="40.0" fill="#000000" transform="matrix(1.00, 0.00, -0.00, -1.00, 231.6, 12.0)">u</text><text xml:space="preserve" font-family="Avenir-Medium" font-size="40.0" fill="#000000" transform="matrix(1.00, 0.00, -0.00, -1.00, 253.8, 12.0)">d</text><text xml:space="preserve" font-family="Avenir-Medium" font-size="40.0" fill="#000000" transform="matrix(1.00, 0.00, -0.00, -1.00, 278.3, 12.0)">e</text><text xml:space="preserve" font-family="Avenir-Medium" font-size="40.0" fill="#000000" transform="matrix(1.00, 0.00, -0.00, -1.00, 300.5, 12.0)">n</text><text xml:space="preserve" font-family="Avenir-Medium" font-size="40.0" fill="#000000" transform="matrix(1.00, 0.00, -0.00, -1.00, 322.8, 12.0)">t</text><text xml:space="preserve" font-family="Avenir-Medium" font-size="40.0" fill="#000000" transform="matrix(1.00, 0.00, -0.00, -1.00, 337.6, 12.0)">s</text><text xml:space="preserve" font-family="Avenir-Medium" font-size="40.0" fill="#000000" transform="matrix(1.00, 0.00, -0.00, -1.00, 355.3, 12.0)"> </text><text xml:space="preserve" font-family="Avenir-Medium" font-size="40.0" fill="#000000" transform="matrix(1.00, 0.00, -0.00, -1.00, 366.4, 12.0)">a</text><text xml:space="preserve" font-family="Avenir-Medium" font-size="40.0" fill="#000000" transform="matrix(1.00, 0.00, -0.00, -1.00, 387.2, 12.0)">r</text><text xml:space="preserve" font-family="Avenir-Medium" font-size="40.0" fill="#000000" transform="matrix(1.00, 0.00, -0.00, -1.00, 401.3, 12.0)">e</text><text xml:space="preserve" font-family="Avenir-Heavy" font-weight="bold" font-size="40.0" fill="#000000" transform="matrix(1.00, 0.00, -0.00, -1.00, 423.5, 12.0)"> </text><text xml:space="preserve" font-family="Avenir-Heavy" font-weight="bold" font-size="40.0" fill="#000000" transform="matrix(1.00, 0.00, -0.00, -1.00, 435.4, 12.0)">w</text><text xml:space="preserve" font-family="Avenir-Heavy" font-weight="bold" font-size="40.0" fill="#000000" transform="matrix(1.00, 0.00, -0.00, -1.00, 467.2, 12.0)">o</text><text xml:space="preserve" font-family="Avenir-Heavy" font-weight="bold" font-size="40.0" fill="#000000" transform="matrix(1.00, 0.00, -0.00, -1.00, 491.6, 12.0)">r</text><text xml:space="preserve" font-family="Avenir-Heavy" font-weight="bold" font-size="40.0" fill="#000000" transform="matrix(1.00, 0.00, -0.00, -1.00, 507.2, 12.0)">k</text><text xml:space="preserve" font-family="Avenir-Heavy" font-weight="bold" font-size="40.0" fill="#000000" transform="matrix(1.00, 0.00, -0.00, -1.00, 528.6, 12.0)">i</text><text xml:space="preserve" font-family="Avenir-Heavy" font-weight="bold" font-size="40.0" fill="#000000" transform="matrix(1.00, 0.00, -0.00, -1.00, 539.0, 12.0)">n</text><text xml:space="preserve" font-family="Avenir-Heavy" font-weight="bold" font-size="40.0" fill="#000000" transform="matrix(1.00, 0.00, -0.00, -1.00, 562.0, 12.0)">g</text><text xml:space="preserve" font-family="Avenir-Heavy" font-weight="bold" font-size="40.0" fill="#000000" transform="matrix(1.00, 0.00, -0.00, -1.00, 587.2, 12.0)"> </text><text xml:space="preserve" font-family="Avenir-Heavy" font-weight="bold" font-size="40.0" fill="#000000" transform="matrix(1.00, 0.00, -0.00, -1.00, 599.0, 12.0)">p</text><text xml:space="preserve" font-family="Avenir-Heavy" font-weight="bold" font-size="40.0" fill="#000000" transform="matrix(1.00, 0.00, -0.00, -1.00, 624.2, 12.0)">a</text><text xml:space="preserve" font-family="Avenir-Heavy" font-weight="bold" font-size="40.0" fill="#000000" transform="matrix(1.00, 0.00, -0.00, -1.00, 645.7, 12.0)">r</text><text xml:space="preserve" font-family="Avenir-Heavy" font-weight="bold" font-size="40.0" fill="#000000" transform="matrix(1.00, 0.00, -0.00, -1.00, 661.3, 12.0)">t</text></g></svg>