<?xml version="1.0" encoding="UTF-8"?><svg xmlns="http://www.w3.org/2000/svg" xmlns:xlink="http://www.w3.org/1999/xlink" clip-rule="evenodd" stroke-miterlimit="4.00" viewBox="0 0 745 42"><desc>SVG generated by Keynote</desc><defs></defs><g transform="matrix(1.00, 0.00, -0.00, -1.00, 0.0, 42.0)"><text xml:space="preserve" font-family="Avenir-Heavy" font-weight="bold" font-size="30.0" fill="#000000" transform="matrix(1.00, 0.00, -0.00, -1.00, 0.7, 11.9)">•</text><text xml:space="preserve" font-family="Avenir-Medium" font-size="40.0" fill="#000000" transform="matrix(1.00, 0.00, -0.00, -1.00, 40.0, 9.0)">C</text><text xml:space="preserve" font-family="Avenir-Medium" font-size="40.0" fill="#000000" transform="matrix(1.00, 0.00, -0.00, -1.00, 68.2, 9.0)">a</text><text xml:space="preserve" font-family="Avenir-Medium" font-size="40.0" fill="#000000" transform="matrix(1.00, 0.00, -0.00, -1.00, 88.9, 9.0)">n</text><text xml:space="preserve" font-family="Avenir-Medium" font-size="40.0" fill="#000000" transform="matrix(1.00, 0.00, -0.00, -1.00, 111.2, 9.0)">’</text><text xml:space="preserve" font-family="Avenir-Medium" font-size="40.0" fill="#000000" transform="matrix(1.00, 0.00, -0.00, -1.00, 121.6, 9.0)">t</text><text xml:space="preserve" font-family="Avenir-Medium" font-size="40.0" fill="#000000" transform="matrix(1.00, 0.00, -0.00, -1.00, 136.4, 9.0)"> </text><text xml:space="preserve" font-family="Avenir-Medium" font-size="40.0" fill="#000000" transform="matrix(1.00, 0.00, -0.00, -1.00, 147.5, 9.0)">c</text><text xml:space="preserve" font-family="Avenir-Medium" font-size="40.0" fill="#000000" transform="matrix(1.00, 0.00, -0.00, -1.00, 166.8, 9.0)">o</text><text xml:space="preserve" font-family="Avenir-Medium" font-size="40.0" fill="#000000" transform="matrix(1.00, 0.00, -0.00, -1.00, 190.5, 9.0)">n</text><text xml:space="preserve" font-family="Avenir-Medium" font-size="40.0" fill="#000000" transform="matrix(1.00, 0.00, -0.00, -1.00, 212.8, 9.0)">t</text><text xml:space="preserve" font-family="Avenir-Medium" font-size="40.0" fill="#000000" transform="matrix(1.00, 0.00, -0.00, -1.00, 227.6, 9.0)">r</text><text xml:space="preserve" font-family="Avenir-Medium" font-size="40.0" fill="#000000" transform="matrix(1.00, 0.00, -0.00, -1.00, 241.6, 9.0)">o</text><text xml:space="preserve" font-family="Avenir-Medium" font-size="40.0" fill="#000000" transform="matrix(1.00, 0.00, -0.00, -1.00, 265.4, 9.0)">l</text><text xml:space="preserve" font-family="Avenir-Medium" font-size="40.0" fill="#000000" transform="matrix(1.00, 0.00, -0.00, -1.00, 275.0, 9.0)"> </text><text xml:space="preserve" font-family="Avenir-Medium" font-size="40.0" fill="#000000" transform="matrix(1.00, 0.00, -0.00, -1.00, 286.1, 9.0)">t</text><text xml:space="preserve" font-family="Avenir-Medium" font-size="40.0" fill="#000000" transform="matrix(1.00, 0.00, -0.00, -1.00, 300.9, 9.0)">h</text><text xml:space="preserve" font-family="Avenir-Medium" font-size="40.0" fill="#000000" transform="matrix(1.00, 0.00, -0.00, -1.00, 323.2, 9.0)">e</text><text xml:space="preserve" font-family="Avenir-Medium" font-size="40.0" fill="#000000" transform="matrix(1.00, 0.00, -0.00, -1.00, 345.4, 9.0)"> </text><text xml:space="preserve" font-family="Avenir-Heavy" font-weight="bold" font-size="40.0" fill="#000000" transform="matrix(1.00, 0.00, -0.00, -1.00, 356.5, 9.0)">i</text><text xml:space="preserve" font-family="Avenir-Heavy" font-weight="bold" font-size="40.0" fill="#000000" transform="matrix(1.00, 0.00, -0.00, -1.00, 366.9, 9.0)">n</text><text xml:space="preserve" font-family="Avenir-Heavy" font-weight="bold" font-size="40.0" fill="#000000" transform="matrix(1.00, 0.00, -0.00, -1.00, 389.9, 9.0)">s</text><text xml:space="preserve" font-family="Avenir-Heavy" font-weight="bold" font-size="40.0" fill="#000000" transform="matrix(1.00, 0.00, -0.00, -1.00, 407.6, 9.0)">t</text><text xml:space="preserve" font-family="Avenir-Heavy" font-weight="bold" font-size="40.0" fill="#000000" transform="matrix(1.00, 0.00, -0.00, -1.00, 423.2, 9.0)">i</text><text xml:space="preserve" font-family="Avenir-Heavy" font-weight="bold" font-size="40.0" fill="#000000" transform="matrix(1.00, 0.00, -0.00, -1.00, 433.6, 9.0)">n</text><text xml:space="preserve" font-family="Avenir-Heavy" font-weight="bold" font-size="40.0" fill="#000000" transform="matrix(1.00, 0.00, -0.00, -1.00, 456.6, 9.0)">c</text><text xml:space="preserve" font-family="Avenir-Heavy" font-weight="bold" font-size="40.0" fill="#000000" transform="matrix(1.00, 0.00, -0.00, -1.00, 475.9, 9.0)">t</text><text xml:space="preserve" font-family="Avenir-Heavy" font-weight="bold" font-size="40.0" fill="#000000" transform="matrix(1.00, 0.00, -0.00, -1.00, 491.4, 9.0)">s</text><text xml:space="preserve" font-family="Avenir-Heavy" font-weight="bold" font-size="40.0" fill="#000000" transform="matrix(1.00, 0.00, -0.00, -1.00, 509.2, 9.0)">/</text><text xml:space="preserve" font-family="Avenir-Heavy" font-weight="bold" font-size="40.0" fill="#000000" transform="matrix(1.00, 0.00, -0.00, -1.00, 524.8, 9.0)"> </text><text xml:space="preserve" font-family="Avenir-Heavy" font-weight="bold" font-size="40.0" fill="#000000" transform="matrix(1.00, 0.00, -0.00, -1.00, 536.6, 9.0)">u</text><text xml:space="preserve" font-family="Avenir-Heavy" font-weight="bold" font-size="40.0" fill="#000000" transform="matrix(1.00, 0.00, -0.00, -1.00, 559.6, 9.0)">n</text><text xml:space="preserve" font-family="Avenir-Heavy" font-weight="bold" font-size="40.0" fill="#000000" transform="matrix(1.00, 0.00, -0.00, -1.00, 582.5, 9.0)">f</text><text xml:space="preserve" font-family="Avenir-Heavy" font-weight="bold" font-size="40.0" fill="#000000" transform="matrix(1.00, 0.00, -0.00, -1.00, 596.6, 9.0)">o</text><text xml:space="preserve" font-family="Avenir-Heavy" font-weight="bold" font-size="40.0" fill="#000000" transform="matrix(1.00, 0.00, -0.00, -1.00, 621.0, 9.0)">r</text><text xml:space="preserve" font-family="Avenir-Heavy" font-weight="bold" font-size="40.0" fill="#000000" transform="matrix(1.00, 0.00, -0.00, -1.00, 635.8, 9.0)">e</text><text xml:space="preserve" font-family="Avenir-Heavy" font-weight="bold" font-size="40.0" fill="#000000" transform="matrix(1.00, 0.00, -0.00, -1.00, 658.8, 9.0)">s</text><text xml:space="preserve" font-family="Avenir-Heavy" font-weight="bold" font-size="40.0" fill="#000000" transform="matrix(1.00, 0.00, -0.00, -1.00, 676.6, 9.0)">e</text><text xml:space="preserve" font-family="Avenir-Heavy" font-weight="bold" font-size="40.0" fill="#000000" transform="matrix(1.00, 0.00, -0.00, -1.00, 699.5, 9.0)">e</text><text xml:space="preserve" font-family="Avenir-Heavy" font-weight="bold" font-size="40.0" fill="#000000" transform="matrix(1.00, 0.00, -0.00, -1.00, 722.5, 9.0)">n</text></g></svg>