<?xml version="1.0" encoding="UTF-8"?><svg xmlns="http://www.w3.org/2000/svg" xmlns:xlink="http://www.w3.org/1999/xlink" clip-rule="evenodd" stroke-miterlimit="4.00" viewBox="0 0 134 29"><desc>SVG generated by Keynote</desc><defs></defs><g transform="matrix(1.00, 0.00, -0.00, -1.00, 0.0, 29.0)"><text xml:space="preserve" font-family="Avenir-Heavy" font-weight="bold" font-size="25.0" fill="#000000" transform="matrix(1.00, 0.00, -0.00, -1.00, 2.0, 8.0)">A</text><text xml:space="preserve" font-family="Avenir-Heavy" font-weight="bold" font-size="25.0" fill="#000000" transform="matrix(1.00, 0.00, -0.00, -1.00, 20.1, 8.0)">m</text><text xml:space="preserve" font-family="Avenir-Heavy" font-weight="bold" font-size="25.0" fill="#000000" transform="matrix(1.00, 0.00, -0.00, -1.00, 41.8, 8.0)">a</text><text xml:space="preserve" font-family="Avenir-Heavy" font-weight="bold" font-size="25.0" fill="#000000" transform="matrix(1.00, 0.00, -0.00, -1.00, 55.2, 8.0)">l</text><text xml:space="preserve" font-family="Avenir-Heavy" font-weight="bold" font-size="25.0" fill="#000000" transform="matrix(1.00, 0.00, -0.00, -1.00, 61.7, 8.0)"> </text><text xml:space="preserve" font-family="Avenir-Heavy" font-weight="bold" font-size="25.0" fill="#000000" transform="matrix(1.00, 0.00, -0.00, -1.00, 69.1, 8.0)">S</text><text xml:space="preserve" font-family="Avenir-Heavy" font-weight="bold" font-size="25.0" fill="#000000" transform="matrix(1.00, 0.00, -0.00, -1.00, 83.5, 8.0)">h</text><text xml:space="preserve" font-family="Avenir-Heavy" font-weight="bold" font-size="25.0" fill="#000000" transform="matrix(1.00, 0.00, -0.00, -1.00, 97.8, 8.0)">a</text><text xml:space="preserve" font-family="Avenir-Heavy" font-weight="bold" font-size="25.0" fill="#000000" transform="matrix(1.00, 0.00, -0.00, -1.00, 111.2, 8.0)">i</text><text xml:space="preserve" font-family="Avenir-Heavy" font-weight="bold" font-size="25.0" fill="#000000" transform="matrix(1.00, 0.00, -0.00, -1.00, 117.7, 8.0)">q</text></g></svg>