<?xml version="1.0" encoding="UTF-8"?><svg xmlns="http://www.w3.org/2000/svg" xmlns:xlink="http://www.w3.org/1999/xlink" clip-rule="evenodd" stroke-miterlimit="4.00" viewBox="0 0 299 287"><desc>SVG generated by Keynote</desc><defs></defs><g transform="matrix(1.00, 0.00, -0.00, -1.00, 0.0, 287.0)"><image xlink:href="../../A8940BEC-4C2A-471D-AD27-5A033DABFED8/assets/515EDFC69FA4BE25C8FF5E5AD160CD01.png" width="288.00" height="278.00" transform="matrix(1.00, 0.00, -0.00, -1.00, 9.0, 278.6)" opacity="0.50"></image><g><clipPath id="clip-438"><path d="M 9.0 9.0 L 290.0 9.0 L 290.0 278.0 L 9.0 278.0 Z M 9.0 9.0 "></path></clipPath><g clip-path="url(#clip-438)"><g><g><clipPath id="clip-439"><path d="M 9.0 9.0 L 290.0 9.0 L 290.0 278.0 L 9.0 278.0 Z M 9.0 9.0 "></path></clipPath><g clip-path="url(#clip-439)"><g><g><clipPath id="clip-440"><path d="M 19.4 11.0 L 279.7 11.0 L 279.7 269.7 L 19.4 269.7 Z M 19.4 11.0 "></path></clipPath><g clip-path="url(#clip-440)"><path d="M 19.4 11.0 L 279.7 11.0 L 279.7 269.7 L 19.4 269.7 Z M 19.4 11.0 " fill="#221F1F" fill-opacity="0.75"></path></g></g></g></g></g><g><clipPath id="clip-441"><path d="M 21.3 141.8 C 21.3 72.1 78.0 15.7 148.0 15.7 L 148.0 15.7 C 217.9 15.7 274.6 72.1 274.6 141.8 L 274.6 141.8 C 274.6 211.4 217.9 267.9 148.0 267.9 L 148.0 267.9 C 78.0 267.9 21.3 211.4 21.3 141.8 "></path></clipPath><g clip-path="url(#clip-441)"><g><clipPath id="clip-442"><path d="M 9.0 9.0 L 290.0 9.0 L 290.0 278.0 L 9.0 278.0 Z M 9.0 9.0 "></path></clipPath><g clip-path="url(#clip-442)"><image xlink:href="../../A8940BEC-4C2A-471D-AD27-5A033DABFED8/assets/FEFF21DAD4BA04D36DF34C8E4A0FE9BF.jpeg" width="281.00" height="281.00" transform="matrix(0.91, 0.00, -0.00, -0.91, 19.8, 269.6)"></image></g></g></g></g></g></g></g></g></svg>