<?xml version="1.0" encoding="UTF-8"?><svg xmlns="http://www.w3.org/2000/svg" xmlns:xlink="http://www.w3.org/1999/xlink" clip-rule="evenodd" stroke-miterlimit="4.00" viewBox="0 0 319 307"><desc>SVG generated by Keynote</desc><defs></defs><g transform="matrix(1.00, 0.00, -0.00, -1.00, 0.0, 307.0)"><image xlink:href="../../A8940BEC-4C2A-471D-AD27-5A033DABFED8/assets/459CA09147395BAEE57A40BA79D66D8A.png" width="308.00" height="297.00" transform="matrix(1.00, 0.00, -0.00, -1.00, 9.1, 298.6)" opacity="0.50"></image><g><clipPath id="clip-433"><path d="M 9.0 10.0 L 310.0 10.0 L 310.0 298.0 L 9.0 298.0 Z M 9.0 10.0 "></path></clipPath><g clip-path="url(#clip-433)"><g><g><clipPath id="clip-434"><path d="M 9.0 10.0 L 310.0 10.0 L 310.0 298.0 L 9.0 298.0 Z M 9.0 10.0 "></path></clipPath><g clip-path="url(#clip-434)"><g><g><clipPath id="clip-435"><path d="M 20.1 12.2 L 299.0 12.2 L 299.0 289.1 L 20.1 289.1 Z M 20.1 12.2 "></path></clipPath><g clip-path="url(#clip-435)"><path d="M 20.1 12.2 L 299.0 12.2 L 299.0 289.1 L 20.1 289.1 Z M 20.1 12.2 " fill="#221F1F" fill-opacity="0.75"></path></g></g></g></g></g><g><clipPath id="clip-436"><path d="M 22.2 152.2 C 22.2 77.6 82.9 17.1 157.9 17.1 L 157.9 17.1 C 232.8 17.1 293.5 77.6 293.5 152.2 L 293.5 152.2 C 293.5 226.7 232.8 287.2 157.9 287.2 L 157.9 287.2 C 82.9 287.2 22.2 226.7 22.2 152.2 "></path></clipPath><g clip-path="url(#clip-436)"><g><clipPath id="clip-437"><path d="M 9.0 10.0 L 310.0 10.0 L 310.0 298.0 L 9.0 298.0 Z M 9.0 10.0 "></path></clipPath><g clip-path="url(#clip-437)"><image xlink:href="../../A8940BEC-4C2A-471D-AD27-5A033DABFED8/assets/3C45B0709203D76CF8229C4278234364.jpeg" width="494.00" height="494.00" transform="matrix(0.00, -0.55, -0.56, 0.00, 295.0, 288.8)"></image></g></g></g></g></g></g></g></g></svg>