<?xml version="1.0" encoding="UTF-8"?><svg xmlns="http://www.w3.org/2000/svg" xmlns:xlink="http://www.w3.org/1999/xlink" clip-rule="evenodd" stroke-miterlimit="4.00" viewBox="0 0 220 28"><desc>SVG generated by Keynote</desc><defs></defs><g transform="matrix(1.00, 0.00, -0.00, -1.00, 0.0, 28.0)"><text xml:space="preserve" font-family="Avenir-Heavy" font-weight="bold" font-size="25.0" fill="#000000" transform="matrix(1.00, 0.00, -0.00, -1.00, 0.0, 8.0)">G</text><text xml:space="preserve" font-family="Avenir-Heavy" font-weight="bold" font-size="25.0" fill="#000000" transform="matrix(1.00, 0.00, -0.00, -1.00, 19.5, 8.0)">e</text><text xml:space="preserve" font-family="Avenir-Heavy" font-weight="bold" font-size="25.0" fill="#000000" transform="matrix(1.00, 0.00, -0.00, -1.00, 33.8, 8.0)">o</text><text xml:space="preserve" font-family="Avenir-Heavy" font-weight="bold" font-size="25.0" fill="#000000" transform="matrix(1.00, 0.00, -0.00, -1.00, 49.1, 8.0)">r</text><text xml:space="preserve" font-family="Avenir-Heavy" font-weight="bold" font-size="25.0" fill="#000000" transform="matrix(1.00, 0.00, -0.00, -1.00, 58.3, 8.0)">g</text><text xml:space="preserve" font-family="Avenir-Heavy" font-weight="bold" font-size="25.0" fill="#000000" transform="matrix(1.00, 0.00, -0.00, -1.00, 74.1, 8.0)">i</text><text xml:space="preserve" font-family="Avenir-Heavy" font-weight="bold" font-size="25.0" fill="#000000" transform="matrix(1.00, 0.00, -0.00, -1.00, 80.6, 8.0)">n</text><text xml:space="preserve" font-family="Avenir-Heavy" font-weight="bold" font-size="25.0" fill="#000000" transform="matrix(1.00, 0.00, -0.00, -1.00, 94.9, 8.0)">a</text><text xml:space="preserve" font-family="Avenir-Heavy" font-weight="bold" font-size="25.0" fill="#000000" transform="matrix(1.00, 0.00, -0.00, -1.00, 108.4, 8.0)">G</text><text xml:space="preserve" font-family="Avenir-Heavy" font-weight="bold" font-size="25.0" fill="#000000" transform="matrix(1.00, 0.00, -0.00, -1.00, 127.8, 8.0)">u</text><text xml:space="preserve" font-family="Avenir-Heavy" font-weight="bold" font-size="25.0" fill="#000000" transform="matrix(1.00, 0.00, -0.00, -1.00, 142.2, 8.0)">t</text><text xml:space="preserve" font-family="Avenir-Heavy" font-weight="bold" font-size="25.0" fill="#000000" transform="matrix(1.00, 0.00, -0.00, -1.00, 151.9, 8.0)">i</text><text xml:space="preserve" font-family="Avenir-Heavy" font-weight="bold" font-size="25.0" fill="#000000" transform="matrix(1.00, 0.00, -0.00, -1.00, 158.4, 8.0)">e</text><text xml:space="preserve" font-family="Avenir-Heavy" font-weight="bold" font-size="25.0" fill="#000000" transform="matrix(1.00, 0.00, -0.00, -1.00, 172.8, 8.0)">r</text><text xml:space="preserve" font-family="Avenir-Heavy" font-weight="bold" font-size="25.0" fill="#000000" transform="matrix(1.00, 0.00, -0.00, -1.00, 182.5, 8.0)">r</text><text xml:space="preserve" font-family="Avenir-Heavy" font-weight="bold" font-size="25.0" fill="#000000" transform="matrix(1.00, 0.00, -0.00, -1.00, 191.8, 8.0)">e</text><text xml:space="preserve" font-family="Avenir-Heavy" font-weight="bold" font-size="25.0" fill="#000000" transform="matrix(1.00, 0.00, -0.00, -1.00, 206.1, 8.0)">z</text></g></svg>