<?xml version="1.0" encoding="UTF-8"?><svg xmlns="http://www.w3.org/2000/svg" xmlns:xlink="http://www.w3.org/1999/xlink" clip-rule="evenodd" stroke-miterlimit="4.00" viewBox="0 0 305 293"><desc>SVG generated by Keynote</desc><defs></defs><g transform="matrix(1.00, 0.00, -0.00, -1.00, 0.0, 293.0)"><image xlink:href="../../A8940BEC-4C2A-471D-AD27-5A033DABFED8/assets/CB6ABA1E6AAB7AF28357F967E57363A9.png" width="294.00" height="283.00" transform="matrix(1.00, 0.00, -0.00, -1.00, 9.1, 284.6)" opacity="0.50"></image><g><clipPath id="clip-443"><path d="M 9.0 9.0 L 296.0 9.0 L 296.0 284.0 L 9.0 284.0 Z M 9.0 9.0 "></path></clipPath><g clip-path="url(#clip-443)"><g><g><clipPath id="clip-444"><path d="M 9.0 9.0 L 296.0 9.0 L 296.0 284.0 L 9.0 284.0 Z M 9.0 9.0 "></path></clipPath><g clip-path="url(#clip-444)"><g><g><clipPath id="clip-445"><path d="M 19.6 11.1 L 285.5 11.1 L 285.5 275.5 L 19.6 275.5 Z M 19.6 11.1 "></path></clipPath><g clip-path="url(#clip-445)"><path d="M 19.6 11.1 L 285.5 11.1 L 285.5 275.5 L 19.6 275.5 Z M 19.6 11.1 " fill="#221F1F" fill-opacity="0.75"></path></g></g></g></g></g><g><clipPath id="clip-446"><path d="M 21.6 144.8 C 21.6 73.5 79.5 15.8 150.9 15.8 L 150.9 15.8 C 222.4 15.8 280.3 73.5 280.3 144.8 L 280.3 144.8 C 280.3 216.0 222.4 273.7 150.9 273.7 L 150.9 273.7 C 79.5 273.7 21.6 216.0 21.6 144.8 "></path></clipPath><g clip-path="url(#clip-446)"><g><clipPath id="clip-447"><path d="M 9.0 9.0 L 296.0 9.0 L 296.0 284.0 L 9.0 284.0 Z M 9.0 9.0 "></path></clipPath><g clip-path="url(#clip-447)"><image xlink:href="../../A8940BEC-4C2A-471D-AD27-5A033DABFED8/assets/627F67E8231E876C47383B3A5E16181C.jpeg" width="340.00" height="341.00" transform="matrix(0.00, -0.77, -0.77, 0.00, 281.9, 275.0)"></image></g></g></g></g></g></g></g></g></svg>