<?xml version="1.0" encoding="UTF-8"?><svg xmlns="http://www.w3.org/2000/svg" xmlns:xlink="http://www.w3.org/1999/xlink" clip-rule="evenodd" stroke-miterlimit="4.00" viewBox="0 0 170 24"><desc>SVG generated by Keynote</desc><defs></defs><g transform="matrix(1.00, 0.00, -0.00, -1.00, 0.0, 24.0)"><text xml:space="preserve" font-family="Avenir-Medium" font-size="25.0" fill="#000000" transform="matrix(1.00, 0.00, -0.00, -1.00, 2.0, 3.0)">S</text><text xml:space="preserve" font-family="Avenir-Medium" font-size="25.0" fill="#000000" transform="matrix(1.00, 0.00, -0.00, -1.00, 15.9, 3.0)">a</text><text xml:space="preserve" font-family="Avenir-Medium" font-size="25.0" fill="#000000" transform="matrix(1.00, 0.00, -0.00, -1.00, 28.9, 3.0)">v</text><text xml:space="preserve" font-family="Avenir-Medium" font-size="25.0" fill="#000000" transform="matrix(1.00, 0.00, -0.00, -1.00, 41.4, 3.0)">e</text><text xml:space="preserve" font-family="Avenir-Medium" font-size="25.0" fill="#000000" transform="matrix(1.00, 0.00, -0.00, -1.00, 55.3, 3.0)"> </text><text xml:space="preserve" font-family="Avenir-Medium" font-size="25.0" fill="#000000" transform="matrix(1.00, 0.00, -0.00, -1.00, 62.2, 3.0)">f</text><text xml:space="preserve" font-family="Avenir-Medium" font-size="25.0" fill="#000000" transform="matrix(1.00, 0.00, -0.00, -1.00, 70.5, 3.0)">o</text><text xml:space="preserve" font-family="Avenir-Medium" font-size="25.0" fill="#000000" transform="matrix(1.00, 0.00, -0.00, -1.00, 85.4, 3.0)">r</text><text xml:space="preserve" font-family="Avenir-Medium" font-size="25.0" fill="#000000" transform="matrix(1.00, 0.00, -0.00, -1.00, 94.7, 3.0)"> </text><text xml:space="preserve" font-family="Avenir-Medium" font-size="25.0" fill="#000000" transform="matrix(1.00, 0.00, -0.00, -1.00, 101.6, 3.0)">f</text><text xml:space="preserve" font-family="Avenir-Medium" font-size="25.0" fill="#000000" transform="matrix(1.00, 0.00, -0.00, -1.00, 109.9, 3.0)">u</text><text xml:space="preserve" font-family="Avenir-Medium" font-size="25.0" fill="#000000" transform="matrix(1.00, 0.00, -0.00, -1.00, 123.8, 3.0)">t</text><text xml:space="preserve" font-family="Avenir-Medium" font-size="25.0" fill="#000000" transform="matrix(1.00, 0.00, -0.00, -1.00, 133.1, 3.0)">u</text><text xml:space="preserve" font-family="Avenir-Medium" font-size="25.0" fill="#000000" transform="matrix(1.00, 0.00, -0.00, -1.00, 147.0, 3.0)">r</text><text xml:space="preserve" font-family="Avenir-Medium" font-size="25.0" fill="#000000" transform="matrix(1.00, 0.00, -0.00, -1.00, 155.8, 3.0)">e</text></g></svg>