<?xml version="1.0" encoding="UTF-8"?><svg xmlns="http://www.w3.org/2000/svg" xmlns:xlink="http://www.w3.org/1999/xlink" clip-rule="evenodd" stroke-miterlimit="4.00" viewBox="0 0 526 77"><desc>SVG generated by Keynote</desc><defs></defs><g transform="matrix(1.00, 0.00, -0.00, -1.00, 0.0, 77.0)"><text xml:space="preserve" font-family="AvenirNextCondensed-Bold" font-weight="bold" font-size="98.0" fill="#2B8540" transform="matrix(1.00, 0.00, -0.00, -1.00, 1.7, 3.9)">A</text><text xml:space="preserve" font-family="AvenirNextCondensed-Bold" font-weight="bold" font-size="98.0" fill="#2B8540" transform="matrix(1.00, 0.00, -0.00, -1.00, 54.9, 3.9)">N</text><text xml:space="preserve" font-family="AvenirNextCondensed-Bold" font-weight="bold" font-size="98.0" fill="#2B8540" transform="matrix(1.00, 0.00, -0.00, -1.00, 114.0, 3.9)">G</text><text xml:space="preserve" font-family="AvenirNextCondensed-Bold" font-weight="bold" font-size="98.0" fill="#2B8540" transform="matrix(1.00, 0.00, -0.00, -1.00, 168.9, 3.9)">R</text><text xml:space="preserve" font-family="AvenirNextCondensed-Bold" font-weight="bold" font-size="98.0" fill="#2B8540" transform="matrix(1.00, 0.00, -0.00, -1.00, 221.9, 3.9)">Y</text><text xml:space="preserve" font-family="AvenirNextCondensed-Bold" font-weight="bold" font-size="98.0" fill="#2B8540" transform="matrix(1.00, 0.00, -0.00, -1.00, 267.8, 3.9)"> </text><text xml:space="preserve" font-family="AvenirNextCondensed-Bold" font-weight="bold" font-size="98.0" fill="#2B8540" transform="matrix(1.00, 0.00, -0.00, -1.00, 287.4, 3.9)">B</text><text xml:space="preserve" font-family="AvenirNextCondensed-Bold" font-weight="bold" font-size="98.0" fill="#2B8540" transform="matrix(1.00, 0.00, -0.00, -1.00, 340.7, 3.9)">I</text><text xml:space="preserve" font-family="AvenirNextCondensed-Bold" font-weight="bold" font-size="98.0" fill="#2B8540" transform="matrix(1.00, 0.00, -0.00, -1.00, 368.8, 3.9)">R</text><text xml:space="preserve" font-family="AvenirNextCondensed-Bold" font-weight="bold" font-size="98.0" fill="#2B8540" transform="matrix(1.00, 0.00, -0.00, -1.00, 421.8, 3.9)">D</text><text xml:space="preserve" font-family="AvenirNextCondensed-Bold" font-weight="bold" font-size="98.0" fill="#2B8540" transform="matrix(1.00, 0.00, -0.00, -1.00, 479.7, 3.9)">S</text></g></svg>