<?xml version="1.0" encoding="UTF-8"?><svg xmlns="http://www.w3.org/2000/svg" xmlns:xlink="http://www.w3.org/1999/xlink" clip-rule="evenodd" stroke-miterlimit="4.00" viewBox="0 0 107 23"><desc>SVG generated by Keynote</desc><defs></defs><g transform="matrix(1.00, 0.00, -0.00, -1.00, 0.0, 23.0)"><text xml:space="preserve" font-family="Avenir-Heavy" font-weight="bold" font-size="25.0" fill="#000000" transform="matrix(1.00, 0.00, -0.00, -1.00, 1.0, 3.0)">S</text><text xml:space="preserve" font-family="Avenir-Heavy" font-weight="bold" font-size="25.0" fill="#000000" transform="matrix(1.00, 0.00, -0.00, -1.00, 15.4, 3.0)">r</text><text xml:space="preserve" font-family="Avenir-Heavy" font-weight="bold" font-size="25.0" fill="#000000" transform="matrix(1.00, 0.00, -0.00, -1.00, 25.1, 3.0)">i</text><text xml:space="preserve" font-family="Avenir-Heavy" font-weight="bold" font-size="25.0" fill="#000000" transform="matrix(1.00, 0.00, -0.00, -1.00, 31.6, 3.0)"> </text><text xml:space="preserve" font-family="Avenir-Heavy" font-weight="bold" font-size="25.0" fill="#000000" transform="matrix(1.00, 0.00, -0.00, -1.00, 39.0, 3.0)">L</text><text xml:space="preserve" font-family="Avenir-Heavy" font-weight="bold" font-size="25.0" fill="#000000" transform="matrix(1.00, 0.00, -0.00, -1.00, 52.0, 3.0)">a</text><text xml:space="preserve" font-family="Avenir-Heavy" font-weight="bold" font-size="25.0" fill="#000000" transform="matrix(1.00, 0.00, -0.00, -1.00, 65.4, 3.0)">n</text><text xml:space="preserve" font-family="Avenir-Heavy" font-weight="bold" font-size="25.0" fill="#000000" transform="matrix(1.00, 0.00, -0.00, -1.00, 79.7, 3.0)">k</text><text xml:space="preserve" font-family="Avenir-Heavy" font-weight="bold" font-size="25.0" fill="#000000" transform="matrix(1.00, 0.00, -0.00, -1.00, 93.1, 3.0)">a</text></g></svg>