<?xml version="1.0" encoding="UTF-8"?><svg xmlns="http://www.w3.org/2000/svg" xmlns:xlink="http://www.w3.org/1999/xlink" clip-rule="evenodd" stroke-miterlimit="4.00" viewBox="0 0 996 46"><desc>SVG generated by Keynote</desc><defs></defs><g transform="matrix(1.00, 0.00, -0.00, -1.00, 0.0, 46.0)"><text xml:space="preserve" font-family="Avenir-Heavy" font-weight="bold" font-size="40.0" fill="#52575F" transform="matrix(1.00, 0.00, -0.00, -1.00, 1.0, 14.0)">t</text><text xml:space="preserve" font-family="Avenir-Heavy" font-weight="bold" font-size="40.0" fill="#52575F" transform="matrix(1.00, 0.00, -0.00, -1.00, 16.6, 14.0)">h</text><text xml:space="preserve" font-family="Avenir-Heavy" font-weight="bold" font-size="40.0" fill="#52575F" transform="matrix(1.00, 0.00, -0.00, -1.00, 39.6, 14.0)">e</text><text xml:space="preserve" font-family="Avenir-Heavy" font-weight="bold" font-size="40.0" fill="#52575F" transform="matrix(1.00, 0.00, -0.00, -1.00, 62.5, 14.0)"> </text><text xml:space="preserve" font-family="Avenir-Heavy" font-weight="bold" font-size="40.0" fill="#52575F" transform="matrix(1.00, 0.00, -0.00, -1.00, 74.4, 14.0)">n</text><text xml:space="preserve" font-family="Avenir-Heavy" font-weight="bold" font-size="40.0" fill="#52575F" transform="matrix(1.00, 0.00, -0.00, -1.00, 97.3, 14.0)">i</text><text xml:space="preserve" font-family="Avenir-Heavy" font-weight="bold" font-size="40.0" fill="#52575F" transform="matrix(1.00, 0.00, -0.00, -1.00, 107.7, 14.0)">g</text><text xml:space="preserve" font-family="Avenir-Heavy" font-weight="bold" font-size="40.0" fill="#52575F" transform="matrix(1.00, 0.00, -0.00, -1.00, 132.9, 14.0)">h</text><text xml:space="preserve" font-family="Avenir-Heavy" font-weight="bold" font-size="40.0" fill="#52575F" transform="matrix(1.00, 0.00, -0.00, -1.00, 155.9, 14.0)">t</text><text xml:space="preserve" font-family="Avenir-Book" font-size="40.0" fill="#52575F" transform="matrix(1.00, 0.00, -0.00, -1.00, 171.4, 14.0)">.</text><text xml:space="preserve" font-family="Avenir-Book" font-size="40.0" fill="#52575F" transform="matrix(1.00, 0.00, -0.00, -1.00, 182.6, 14.0)"> </text><text xml:space="preserve" font-family="Avenir-Book" font-size="40.0" fill="#52575F" transform="matrix(1.00, 0.00, -0.00, -1.00, 193.7, 14.0)">O</text><text xml:space="preserve" font-family="Avenir-Book" font-size="40.0" fill="#52575F" transform="matrix(1.00, 0.00, -0.00, -1.00, 227.0, 14.0)">f</text><text xml:space="preserve" font-family="Avenir-Book" font-size="40.0" fill="#52575F" transform="matrix(1.00, 0.00, -0.00, -1.00, 238.9, 14.0)">t</text><text xml:space="preserve" font-family="Avenir-Book" font-size="40.0" fill="#52575F" transform="matrix(1.00, 0.00, -0.00, -1.00, 252.2, 14.0)">e</text><text xml:space="preserve" font-family="Avenir-Book" font-size="40.0" fill="#52575F" transform="matrix(1.00, 0.00, -0.00, -1.00, 274.4, 14.0)">n</text><text xml:space="preserve" font-family="Avenir-Book" font-size="40.0" fill="#52575F" transform="matrix(1.00, 0.00, -0.00, -1.00, 296.6, 14.0)"> </text><text xml:space="preserve" font-family="Avenir-Book" font-size="40.0" fill="#52575F" transform="matrix(1.00, 0.00, -0.00, -1.00, 307.8, 14.0)">t</text><text xml:space="preserve" font-family="Avenir-Book" font-size="40.0" fill="#52575F" transform="matrix(1.00, 0.00, -0.00, -1.00, 321.0, 14.0)">h</text><text xml:space="preserve" font-family="Avenir-Book" font-size="40.0" fill="#52575F" transform="matrix(1.00, 0.00, -0.00, -1.00, 343.3, 14.0)">e</text><text xml:space="preserve" font-family="Avenir-Book" font-size="40.0" fill="#52575F" transform="matrix(1.00, 0.00, -0.00, -1.00, 365.5, 14.0)">y</text><text xml:space="preserve" font-family="Avenir-Book" font-size="40.0" fill="#52575F" transform="matrix(1.00, 0.00, -0.00, -1.00, 384.8, 14.0)"> </text><text xml:space="preserve" font-family="Avenir-Book" font-size="40.0" fill="#52575F" transform="matrix(1.00, 0.00, -0.00, -1.00, 395.9, 14.0)">r</text><text xml:space="preserve" font-family="Avenir-Book" font-size="40.0" fill="#52575F" transform="matrix(1.00, 0.00, -0.00, -1.00, 408.5, 14.0)">e</text><text xml:space="preserve" font-family="Avenir-Book" font-size="40.0" fill="#52575F" transform="matrix(1.00, 0.00, -0.00, -1.00, 430.7, 14.0)">q</text><text xml:space="preserve" font-family="Avenir-Book" font-size="40.0" fill="#52575F" transform="matrix(1.00, 0.00, -0.00, -1.00, 455.2, 14.0)">u</text><text xml:space="preserve" font-family="Avenir-Book" font-size="40.0" fill="#52575F" transform="matrix(1.00, 0.00, -0.00, -1.00, 477.4, 14.0)">i</text><text xml:space="preserve" font-family="Avenir-Book" font-size="40.0" fill="#52575F" transform="matrix(1.00, 0.00, -0.00, -1.00, 487.0, 14.0)">r</text><text xml:space="preserve" font-family="Avenir-Book" font-size="40.0" fill="#52575F" transform="matrix(1.00, 0.00, -0.00, -1.00, 499.6, 14.0)">e</text><text xml:space="preserve" font-family="Avenir-Book" font-size="40.0" fill="#52575F" transform="matrix(1.00, 0.00, -0.00, -1.00, 521.8, 14.0)"> </text><text xml:space="preserve" font-family="Avenir-Book" font-size="40.0" fill="#52575F" transform="matrix(1.00, 0.00, -0.00, -1.00, 532.9, 14.0)">b</text><text xml:space="preserve" font-family="Avenir-Book" font-size="40.0" fill="#52575F" transform="matrix(1.00, 0.00, -0.00, -1.00, 557.4, 14.0)">a</text><text xml:space="preserve" font-family="Avenir-Book" font-size="40.0" fill="#52575F" transform="matrix(1.00, 0.00, -0.00, -1.00, 578.1, 14.0)">s</text><text xml:space="preserve" font-family="Avenir-Book" font-size="40.0" fill="#52575F" transform="matrix(1.00, 0.00, -0.00, -1.00, 595.2, 14.0)">i</text><text xml:space="preserve" font-family="Avenir-Book" font-size="40.0" fill="#52575F" transform="matrix(1.00, 0.00, -0.00, -1.00, 604.8, 14.0)">c</text><text xml:space="preserve" font-family="Avenir-Book" font-size="40.0" fill="#52575F" transform="matrix(1.00, 0.00, -0.00, -1.00, 624.0, 14.0)"> </text><text xml:space="preserve" font-family="Avenir-Book" font-size="40.0" fill="#52575F" transform="matrix(1.00, 0.00, -0.00, -1.00, 635.2, 14.0)">a</text><text xml:space="preserve" font-family="Avenir-Book" font-size="40.0" fill="#52575F" transform="matrix(1.00, 0.00, -0.00, -1.00, 655.9, 14.0)">r</text><text xml:space="preserve" font-family="Avenir-Book" font-size="40.0" fill="#52575F" transform="matrix(1.00, 0.00, -0.00, -1.00, 669.2, 14.0)">t</text><text xml:space="preserve" font-family="Avenir-Book" font-size="40.0" fill="#52575F" transform="matrix(1.00, 0.00, -0.00, -1.00, 682.5, 14.0)"> </text><text xml:space="preserve" font-family="Avenir-Book" font-size="40.0" fill="#52575F" transform="matrix(1.00, 0.00, -0.00, -1.00, 693.6, 14.0)">m</text><text xml:space="preserve" font-family="Avenir-Book" font-size="40.0" fill="#52575F" transform="matrix(1.00, 0.00, -0.00, -1.00, 727.7, 14.0)">a</text><text xml:space="preserve" font-family="Avenir-Book" font-size="40.0" fill="#52575F" transform="matrix(1.00, 0.00, -0.00, -1.00, 748.4, 14.0)">t</text><text xml:space="preserve" font-family="Avenir-Book" font-size="40.0" fill="#52575F" transform="matrix(1.00, 0.00, -0.00, -1.00, 761.7, 14.0)">e</text><text xml:space="preserve" font-family="Avenir-Book" font-size="40.0" fill="#52575F" transform="matrix(1.00, 0.00, -0.00, -1.00, 784.0, 14.0)">r</text><text xml:space="preserve" font-family="Avenir-Book" font-size="40.0" fill="#52575F" transform="matrix(1.00, 0.00, -0.00, -1.00, 797.2, 14.0)">i</text><text xml:space="preserve" font-family="Avenir-Book" font-size="40.0" fill="#52575F" transform="matrix(1.00, 0.00, -0.00, -1.00, 806.8, 14.0)">a</text><text xml:space="preserve" font-family="Avenir-Book" font-size="40.0" fill="#52575F" transform="matrix(1.00, 0.00, -0.00, -1.00, 827.6, 14.0)">l</text><text xml:space="preserve" font-family="Avenir-Book" font-size="40.0" fill="#52575F" transform="matrix(1.00, 0.00, -0.00, -1.00, 837.2, 14.0)">s</text><text xml:space="preserve" font-family="Avenir-Book" font-size="40.0" fill="#52575F" transform="matrix(1.00, 0.00, -0.00, -1.00, 854.2, 14.0)"> </text><text xml:space="preserve" font-family="Avenir-Book" font-size="40.0" fill="#52575F" transform="matrix(1.00, 0.00, -0.00, -1.00, 865.4, 14.0)">s</text><text xml:space="preserve" font-family="Avenir-Book" font-size="40.0" fill="#52575F" transform="matrix(1.00, 0.00, -0.00, -1.00, 882.4, 14.0)">u</text><text xml:space="preserve" font-family="Avenir-Book" font-size="40.0" fill="#52575F" transform="matrix(1.00, 0.00, -0.00, -1.00, 904.6, 14.0)">c</text><text xml:space="preserve" font-family="Avenir-Book" font-size="40.0" fill="#52575F" transform="matrix(1.00, 0.00, -0.00, -1.00, 923.9, 14.0)">h</text><text xml:space="preserve" font-family="Avenir-Book" font-size="40.0" fill="#52575F" transform="matrix(1.00, 0.00, -0.00, -1.00, 946.2, 14.0)"> </text><text xml:space="preserve" font-family="Avenir-Book" font-size="40.0" fill="#52575F" transform="matrix(1.00, 0.00, -0.00, -1.00, 957.3, 14.0)">a</text><text xml:space="preserve" font-family="Avenir-Book" font-size="40.0" fill="#52575F" transform="matrix(1.00, 0.00, -0.00, -1.00, 978.0, 14.0)">s</text></g></svg>