<?xml version="1.0" encoding="UTF-8"?><svg xmlns="http://www.w3.org/2000/svg" xmlns:xlink="http://www.w3.org/1999/xlink" clip-rule="evenodd" stroke-miterlimit="4.00" viewBox="0 0 967 46"><desc>SVG generated by Keynote</desc><defs></defs><g transform="matrix(1.00, 0.00, -0.00, -1.00, 0.0, 46.0)"><text xml:space="preserve" font-family="Avenir-Book" font-size="40.0" fill="#52575F" transform="matrix(1.00, 0.00, -0.00, -1.00, -2.0, 14.0)">H</text><text xml:space="preserve" font-family="Avenir-Book" font-size="40.0" fill="#52575F" transform="matrix(1.00, 0.00, -0.00, -1.00, 26.9, 14.0)">a</text><text xml:space="preserve" font-family="Avenir-Book" font-size="40.0" fill="#52575F" transform="matrix(1.00, 0.00, -0.00, -1.00, 47.6, 14.0)">v</text><text xml:space="preserve" font-family="Avenir-Book" font-size="40.0" fill="#52575F" transform="matrix(1.00, 0.00, -0.00, -1.00, 66.9, 14.0)">i</text><text xml:space="preserve" font-family="Avenir-Book" font-size="40.0" fill="#52575F" transform="matrix(1.00, 0.00, -0.00, -1.00, 76.5, 14.0)">n</text><text xml:space="preserve" font-family="Avenir-Book" font-size="40.0" fill="#52575F" transform="matrix(1.00, 0.00, -0.00, -1.00, 98.8, 14.0)">g</text><text xml:space="preserve" font-family="Avenir-Book" font-size="40.0" fill="#52575F" transform="matrix(1.00, 0.00, -0.00, -1.00, 123.2, 14.0)"> </text><text xml:space="preserve" font-family="Avenir-Book" font-size="40.0" fill="#52575F" transform="matrix(1.00, 0.00, -0.00, -1.00, 134.3, 14.0)">a</text><text xml:space="preserve" font-family="Avenir-Book" font-size="40.0" fill="#52575F" transform="matrix(1.00, 0.00, -0.00, -1.00, 155.1, 14.0)"> </text><text xml:space="preserve" font-family="Avenir-Book" font-size="40.0" fill="#52575F" transform="matrix(1.00, 0.00, -0.00, -1.00, 166.2, 14.0)">v</text><text xml:space="preserve" font-family="Avenir-Book" font-size="40.0" fill="#52575F" transform="matrix(1.00, 0.00, -0.00, -1.00, 185.5, 14.0)">e</text><text xml:space="preserve" font-family="Avenir-Book" font-size="40.0" fill="#52575F" transform="matrix(1.00, 0.00, -0.00, -1.00, 207.7, 14.0)">n</text><text xml:space="preserve" font-family="Avenir-Book" font-size="40.0" fill="#52575F" transform="matrix(1.00, 0.00, -0.00, -1.00, 230.0, 14.0)">d</text><text xml:space="preserve" font-family="Avenir-Book" font-size="40.0" fill="#52575F" transform="matrix(1.00, 0.00, -0.00, -1.00, 254.4, 14.0)">i</text><text xml:space="preserve" font-family="Avenir-Book" font-size="40.0" fill="#52575F" transform="matrix(1.00, 0.00, -0.00, -1.00, 264.0, 14.0)">n</text><text xml:space="preserve" font-family="Avenir-Book" font-size="40.0" fill="#52575F" transform="matrix(1.00, 0.00, -0.00, -1.00, 286.2, 14.0)">g</text><text xml:space="preserve" font-family="Avenir-Book" font-size="40.0" fill="#52575F" transform="matrix(1.00, 0.00, -0.00, -1.00, 310.7, 14.0)"> </text><text xml:space="preserve" font-family="Avenir-Book" font-size="40.0" fill="#52575F" transform="matrix(1.00, 0.00, -0.00, -1.00, 321.8, 14.0)">m</text><text xml:space="preserve" font-family="Avenir-Book" font-size="40.0" fill="#52575F" transform="matrix(1.00, 0.00, -0.00, -1.00, 355.9, 14.0)">a</text><text xml:space="preserve" font-family="Avenir-Book" font-size="40.0" fill="#52575F" transform="matrix(1.00, 0.00, -0.00, -1.00, 376.6, 14.0)">c</text><text xml:space="preserve" font-family="Avenir-Book" font-size="40.0" fill="#52575F" transform="matrix(1.00, 0.00, -0.00, -1.00, 395.9, 14.0)">h</text><text xml:space="preserve" font-family="Avenir-Book" font-size="40.0" fill="#52575F" transform="matrix(1.00, 0.00, -0.00, -1.00, 418.2, 14.0)">i</text><text xml:space="preserve" font-family="Avenir-Book" font-size="40.0" fill="#52575F" transform="matrix(1.00, 0.00, -0.00, -1.00, 427.8, 14.0)">n</text><text xml:space="preserve" font-family="Avenir-Book" font-size="40.0" fill="#52575F" transform="matrix(1.00, 0.00, -0.00, -1.00, 450.0, 14.0)">e</text><text xml:space="preserve" font-family="Avenir-Book" font-size="40.0" fill="#52575F" transform="matrix(1.00, 0.00, -0.00, -1.00, 472.2, 14.0)"> </text><text xml:space="preserve" font-family="Avenir-Book" font-size="40.0" fill="#52575F" transform="matrix(1.00, 0.00, -0.00, -1.00, 483.4, 14.0)">a</text><text xml:space="preserve" font-family="Avenir-Book" font-size="40.0" fill="#52575F" transform="matrix(1.00, 0.00, -0.00, -1.00, 504.1, 14.0)">t</text><text xml:space="preserve" font-family="Avenir-Book" font-size="40.0" fill="#52575F" transform="matrix(1.00, 0.00, -0.00, -1.00, 517.4, 14.0)"> </text><text xml:space="preserve" font-family="Avenir-Book" font-size="40.0" fill="#52575F" transform="matrix(1.00, 0.00, -0.00, -1.00, 528.5, 14.0)">s</text><text xml:space="preserve" font-family="Avenir-Book" font-size="40.0" fill="#52575F" transform="matrix(1.00, 0.00, -0.00, -1.00, 545.6, 14.0)">c</text><text xml:space="preserve" font-family="Avenir-Book" font-size="40.0" fill="#52575F" transform="matrix(1.00, 0.00, -0.00, -1.00, 564.8, 14.0)">h</text><text xml:space="preserve" font-family="Avenir-Book" font-size="40.0" fill="#52575F" transform="matrix(1.00, 0.00, -0.00, -1.00, 587.1, 14.0)">o</text><text xml:space="preserve" font-family="Avenir-Book" font-size="40.0" fill="#52575F" transform="matrix(1.00, 0.00, -0.00, -1.00, 610.8, 14.0)">o</text><text xml:space="preserve" font-family="Avenir-Book" font-size="40.0" fill="#52575F" transform="matrix(1.00, 0.00, -0.00, -1.00, 634.5, 14.0)">l</text><text xml:space="preserve" font-family="Avenir-Book" font-size="40.0" fill="#52575F" transform="matrix(1.00, 0.00, -0.00, -1.00, 644.1, 14.0)"> </text><text xml:space="preserve" font-family="Avenir-Book" font-size="40.0" fill="#52575F" transform="matrix(1.00, 0.00, -0.00, -1.00, 655.2, 14.0)">c</text><text xml:space="preserve" font-family="Avenir-Book" font-size="40.0" fill="#52575F" transform="matrix(1.00, 0.00, -0.00, -1.00, 674.5, 14.0)">a</text><text xml:space="preserve" font-family="Avenir-Book" font-size="40.0" fill="#52575F" transform="matrix(1.00, 0.00, -0.00, -1.00, 695.3, 14.0)">n</text><text xml:space="preserve" font-family="Avenir-Book" font-size="40.0" fill="#52575F" transform="matrix(1.00, 0.00, -0.00, -1.00, 717.5, 14.0)"> </text><text xml:space="preserve" font-family="Avenir-Book" font-size="40.0" fill="#52575F" transform="matrix(1.00, 0.00, -0.00, -1.00, 728.6, 14.0)">p</text><text xml:space="preserve" font-family="Avenir-Book" font-size="40.0" fill="#52575F" transform="matrix(1.00, 0.00, -0.00, -1.00, 753.1, 14.0)">r</text><text xml:space="preserve" font-family="Avenir-Book" font-size="40.0" fill="#52575F" transform="matrix(1.00, 0.00, -0.00, -1.00, 765.6, 14.0)">o</text><text xml:space="preserve" font-family="Avenir-Book" font-size="40.0" fill="#52575F" transform="matrix(1.00, 0.00, -0.00, -1.00, 789.4, 14.0)">v</text><text xml:space="preserve" font-family="Avenir-Book" font-size="40.0" fill="#52575F" transform="matrix(1.00, 0.00, -0.00, -1.00, 808.6, 14.0)">i</text><text xml:space="preserve" font-family="Avenir-Book" font-size="40.0" fill="#52575F" transform="matrix(1.00, 0.00, -0.00, -1.00, 818.2, 14.0)">d</text><text xml:space="preserve" font-family="Avenir-Book" font-size="40.0" fill="#52575F" transform="matrix(1.00, 0.00, -0.00, -1.00, 842.7, 14.0)">e</text><text xml:space="preserve" font-family="Avenir-Book" font-size="40.0" fill="#52575F" transform="matrix(1.00, 0.00, -0.00, -1.00, 864.9, 14.0)"> </text><text xml:space="preserve" font-family="Avenir-Book" font-size="40.0" fill="#52575F" transform="matrix(1.00, 0.00, -0.00, -1.00, 876.0, 14.0)">t</text><text xml:space="preserve" font-family="Avenir-Book" font-size="40.0" fill="#52575F" transform="matrix(1.00, 0.00, -0.00, -1.00, 889.3, 14.0)">h</text><text xml:space="preserve" font-family="Avenir-Book" font-size="40.0" fill="#52575F" transform="matrix(1.00, 0.00, -0.00, -1.00, 911.6, 14.0)">e</text><text xml:space="preserve" font-family="Avenir-Book" font-size="40.0" fill="#52575F" transform="matrix(1.00, 0.00, -0.00, -1.00, 933.8, 14.0)">m</text></g></svg>