<?xml version="1.0" encoding="UTF-8"?><svg xmlns="http://www.w3.org/2000/svg" xmlns:xlink="http://www.w3.org/1999/xlink" clip-rule="evenodd" stroke-miterlimit="4.00" viewBox="0 0 102 103"><desc>SVG generated by Keynote</desc><defs></defs><g transform="matrix(1.00, 0.00, -0.00, -1.00, 0.0, 103.0)"><g><clipPath id="clip-387"><path d="M 101.0 54.1 L 54.1 101.0 L 1.0 48.0 L 47.9 1.1 Z M 101.0 54.1 "></path></clipPath><g clip-path="url(#clip-387)"><g><clipPath id="clip-388"><path d="M 47.9 1.1 L 1.0 48.0 L 54.1 101.0 L 101.0 54.1 Z M 47.9 1.1 "></path></clipPath><g clip-path="url(#clip-388)"><path d="M 69.3 69.9 C 69.5 69.4 69.6 69.0 69.7 68.6 C 69.8 68.4 69.8 68.3 69.9 68.1 C 69.9 67.8 70.0 67.5 70.1 67.2 C 70.1 67.0 70.2 66.9 70.2 66.7 C 70.3 66.4 70.3 66.1 70.4 65.8 C 70.4 65.7 70.5 65.5 70.5 65.3 C 70.6 65.0 70.6 64.7 70.7 64.4 C 70.7 64.2 70.7 64.1 70.7 63.9 C 70.8 63.5 70.9 63.0 70.9 62.5 C 70.9 62.5 70.9 62.5 70.9 62.4 C 71.0 62.0 71.0 61.6 71.0 61.1 C 71.0 61.0 71.0 60.8 71.0 60.7 C 71.1 60.6 71.1 60.6 71.1 60.6 L 70.2 63.4 L 65.0 64.9 C 64.3 65.6 63.5 66.2 62.6 66.4 L 54.7 68.7 L 54.7 68.7 L 54.7 68.7 L 54.7 68.7 C 54.6 68.7 54.6 68.7 54.5 68.7 C 54.5 68.7 54.4 68.8 54.4 68.8 C 54.4 68.8 54.3 68.8 54.3 68.8 C 54.2 68.8 54.1 68.8 54.0 68.8 C 53.6 68.9 53.3 68.9 53.0 68.8 C 52.7 68.8 52.4 68.8 52.1 68.7 C 52.1 68.7 52.0 68.7 51.9 68.6 C 51.9 68.6 51.8 68.6 51.8 68.6 C 51.8 68.6 51.8 68.6 51.7 68.6 C 51.4 68.5 51.1 68.3 50.7 68.2 C 50.6 68.1 50.4 68.0 50.2 67.9 C 49.9 67.7 49.6 67.5 49.3 67.2 C 49.2 67.1 49.1 67.0 48.9 66.9 C 48.9 66.9 48.8 66.8 48.8 66.8 C 48.7 66.7 48.6 66.6 48.6 66.6 C 48.5 66.5 48.5 66.5 48.4 66.4 C 48.4 66.4 48.3 66.3 48.2 66.2 C 48.2 66.2 48.1 66.1 48.1 66.1 C 48.0 66.0 48.0 66.0 47.9 65.9 C 47.9 65.9 47.9 65.9 47.9 65.8 C 47.8 65.8 47.8 65.8 47.8 65.8 C 47.6 65.6 47.5 65.4 47.3 65.2 C 47.3 65.2 47.3 65.2 47.3 65.2 C 47.2 65.0 47.0 64.8 46.9 64.6 C 46.9 64.6 46.9 64.6 46.9 64.6 C 46.7 64.4 46.6 64.2 46.5 64.0 C 46.5 63.9 46.4 63.9 46.4 63.9 C 46.3 63.7 46.2 63.5 46.1 63.3 L 46.1 63.2 C 46.0 63.0 45.9 62.8 45.8 62.6 C 45.8 62.5 45.7 62.5 45.7 62.5 C 45.6 62.3 45.5 62.0 45.5 61.8 C 45.5 61.8 45.5 61.8 45.5 61.8 C 45.4 61.7 45.4 61.6 45.3 61.4 C 45.3 61.4 45.3 61.4 45.3 61.4 C 45.3 61.4 45.3 61.4 45.3 61.4 C 45.3 61.4 45.3 61.3 45.3 61.2 C 45.2 61.2 45.2 61.1 45.2 61.0 C 45.1 60.8 45.1 60.7 45.0 60.5 C 45.0 60.4 45.0 60.4 45.0 60.3 C 44.9 60.1 44.9 59.9 44.8 59.7 C 44.8 59.7 44.8 59.6 44.8 59.6 C 44.7 59.4 44.7 59.1 44.6 58.9 C 44.6 58.8 44.6 58.8 44.6 58.7 C 44.6 58.5 44.5 58.4 44.5 58.2 C 44.5 58.1 44.5 58.0 44.5 57.9 C 44.4 57.8 44.4 57.6 44.4 57.5 C 44.4 57.4 44.4 57.3 44.4 57.2 C 44.3 57.1 44.3 56.9 44.3 56.8 C 44.3 56.7 44.3 56.6 44.3 56.5 C 44.3 56.3 44.2 56.2 44.2 56.0 C 44.2 55.9 44.2 55.9 44.2 55.8 C 44.2 55.6 44.2 55.3 44.1 55.1 C 44.1 55.1 44.1 55.1 44.1 55.0 L 39.0 56.5 L 33.3 52.7 C 33.5 50.3 33.9 47.6 34.5 45.2 L 31.1 42.7 L 31.9 39.8 L 37.7 38.1 C 37.8 38.1 37.8 38.0 37.9 37.9 C 37.9 37.9 37.9 37.9 37.9 37.9 C 38.1 37.7 38.3 37.5 38.6 37.4 C 38.6 37.4 38.6 37.3 38.6 37.3 C 38.7 37.3 38.8 37.2 38.9 37.2 C 38.9 37.1 38.9 37.1 38.9 37.1 C 39.0 37.1 39.1 37.0 39.2 37.0 C 39.2 37.0 39.3 36.9 39.3 36.9 C 39.4 36.9 39.5 36.8 39.6 36.8 C 39.6 36.8 39.6 36.8 39.6 36.8 C 39.7 36.7 39.8 36.7 39.9 36.7 C 40.0 36.7 40.0 36.6 40.0 36.6 L 40.0 36.6 L 45.7 35.0 L 47.9 34.4 L 47.9 34.4 C 49.3 34.0 50.9 34.4 52.7 35.7 C 52.8 35.8 52.9 35.9 53.1 36.1 C 53.1 36.1 53.2 36.1 53.2 36.2 C 53.3 36.3 53.4 36.3 53.5 36.4 C 53.5 36.5 53.6 36.5 53.6 36.5 C 53.7 36.6 53.8 36.7 53.8 36.8 C 53.9 36.8 53.9 36.9 54.0 36.9 C 54.0 37.0 54.1 37.1 54.2 37.1 C 54.2 37.2 54.2 37.2 54.2 37.2 C 54.3 37.2 54.3 37.2 54.3 37.3 C 54.4 37.4 54.6 37.6 54.7 37.8 C 54.8 37.8 54.8 37.9 54.8 37.9 C 55.0 38.1 55.1 38.3 55.2 38.5 C 55.2 38.5 55.2 38.5 55.2 38.5 C 55.4 38.7 55.5 38.9 55.6 39.1 C 55.7 39.1 55.7 39.2 55.7 39.2 C 55.8 39.4 55.9 39.6 56.0 39.8 C 56.0 39.8 56.1 39.9 56.1 39.9 C 56.2 40.1 56.3 40.3 56.4 40.5 C 56.4 40.5 56.4 40.6 56.4 40.6 C 56.5 40.8 56.6 41.0 56.7 41.3 C 56.7 41.3 56.7 41.3 56.7 41.3 C 56.8 41.5 56.9 41.7 56.9 42.0 L 57.0 42.0 C 57.0 42.2 57.1 42.4 57.2 42.7 C 57.2 42.7 57.2 42.7 57.2 42.8 C 57.2 43.0 57.3 43.2 57.4 43.4 L 57.4 43.5 C 57.4 43.8 57.5 44.0 57.5 44.2 C 57.5 44.2 57.5 44.3 57.5 44.3 C 57.6 44.5 57.6 44.7 57.7 45.0 C 57.7 45.0 57.7 45.0 57.7 45.0 C 57.7 45.2 57.8 45.4 57.8 45.7 L 57.8 45.8 C 57.8 46.0 57.9 46.2 57.9 46.4 L 57.9 46.5 C 57.9 46.5 57.9 46.6 57.9 46.6 L 63.3 45.0 L 69.3 48.9 C 69.3 48.9 69.3 48.9 69.3 49.0 C 69.3 49.0 69.3 49.0 69.3 49.0 C 69.3 49.0 69.3 49.1 69.3 49.1 C 69.3 49.2 69.3 49.2 69.3 49.2 C 69.3 49.3 69.3 49.3 69.3 49.4 C 69.3 49.4 69.3 49.5 69.3 49.5 C 69.3 49.6 69.3 49.6 69.4 49.7 C 69.4 49.8 69.4 49.8 69.4 49.9 C 69.4 49.9 69.4 50.0 69.4 50.1 C 69.4 50.2 69.4 50.2 69.4 50.3 C 69.4 50.4 69.4 50.5 69.4 50.6 C 69.4 50.6 69.4 50.7 69.4 50.8 C 69.4 50.9 69.4 51.0 69.4 51.1 C 69.4 51.2 69.4 51.3 69.3 51.3 C 69.3 51.5 69.3 51.6 69.3 51.7 C 69.3 51.8 69.3 51.9 69.3 52.0 C 69.3 52.1 69.3 52.2 69.3 52.3 C 69.3 52.4 69.3 52.5 69.3 52.6 C 69.3 52.8 69.3 52.9 69.2 53.0 C 69.2 53.1 69.2 53.2 69.2 53.4 C 69.2 53.5 69.2 53.6 69.2 53.8 C 69.2 53.9 69.1 54.0 69.1 54.1 C 69.1 54.3 69.1 54.4 69.1 54.6 C 69.1 54.7 69.0 54.8 69.0 54.9 C 69.0 55.1 69.0 55.2 68.9 55.4 C 68.9 55.5 68.9 55.7 68.9 55.8 C 68.8 55.9 68.8 56.1 68.8 56.3 C 68.8 56.4 68.7 56.5 68.7 56.7 C 68.7 56.8 68.6 57.0 68.6 57.2 C 68.6 57.3 68.5 57.5 68.5 57.6 C 68.5 57.7 68.5 57.7 68.4 57.8 C 68.4 58.0 68.3 58.2 68.3 58.4 C 68.3 58.4 68.3 58.4 68.3 58.4 L 71.1 60.4 C 71.1 60.2 71.1 59.9 71.1 59.7 C 71.1 59.5 71.1 59.3 71.1 59.2 C 71.1 58.9 71.1 58.5 71.1 58.2 C 71.1 58.1 71.1 57.9 71.1 57.7 C 71.1 57.4 71.1 57.0 71.1 56.7 C 71.1 56.5 71.1 56.4 71.1 56.3 C 71.0 55.8 71.0 55.3 71.0 54.8 C 71.0 54.7 71.0 54.7 71.0 54.6 C 70.9 54.2 70.9 53.8 70.8 53.4 C 70.8 53.2 70.8 53.1 70.8 52.9 C 70.7 52.6 70.7 52.2 70.6 51.9 C 70.6 51.7 70.6 51.6 70.6 51.4 C 70.5 51.1 70.5 50.8 70.4 50.4 C 70.4 50.3 70.3 50.1 70.3 49.9 C 70.2 49.6 70.2 49.2 70.1 48.9 C 70.1 48.8 70.0 48.6 70.0 48.5 C 69.9 48.0 69.8 47.5 69.7 47.1 C 69.6 47.0 69.6 46.9 69.6 46.8 C 69.5 46.4 69.4 46.0 69.3 45.6 C 69.2 45.5 69.2 45.3 69.1 45.2 C 69.0 44.9 68.9 44.5 68.8 44.2 C 68.8 44.1 68.7 43.9 68.7 43.7 C 68.6 43.4 68.5 43.1 68.3 42.8 C 68.3 42.6 68.2 42.5 68.2 42.3 C 68.0 42.0 67.9 41.6 67.8 41.3 C 67.7 41.2 67.7 41.1 67.6 41.0 C 67.5 40.5 67.3 40.1 67.1 39.6 C 67.0 39.5 67.0 39.4 66.9 39.3 C 66.8 39.0 66.6 38.6 66.4 38.3 C 66.4 38.1 66.3 38.0 66.2 37.8 C 66.1 37.6 65.9 37.3 65.8 37.0 C 65.7 36.8 65.6 36.7 65.5 36.5 C 65.4 36.2 65.2 36.0 65.1 35.7 C 65.0 35.5 64.9 35.4 64.8 35.2 C 64.6 34.9 64.4 34.6 64.2 34.3 C 64.2 34.2 64.1 34.1 64.1 34.0 C 63.8 33.6 63.6 33.2 63.3 32.8 C 63.2 32.7 63.1 32.6 63.1 32.5 C 62.9 32.2 62.7 31.9 62.5 31.7 C 62.4 31.5 62.3 31.4 62.2 31.3 C 62.0 31.0 61.8 30.8 61.6 30.5 C 61.5 30.4 61.4 30.3 61.3 30.1 C 61.1 29.9 60.9 29.6 60.7 29.4 C 60.6 29.3 60.5 29.2 60.3 29.0 C 60.2 28.8 60.0 28.6 59.8 28.4 C 59.6 28.3 59.5 28.1 59.3 28.0 C 59.1 27.7 58.9 27.5 58.7 27.3 C 58.6 27.2 58.5 27.1 58.3 26.9 C 58.1 26.7 57.8 26.5 57.6 26.3 C 57.5 26.2 57.4 26.1 57.2 26.0 C 56.9 25.6 56.5 25.3 56.1 25.0 C 54.2 23.5 52.3 22.4 50.4 21.5 C 49.6 21.2 48.8 20.9 48.0 20.6 C 46.9 20.3 45.7 20.0 44.6 19.9 C 43.7 19.8 42.8 19.8 42.0 19.8 C 42.0 19.8 42.0 19.8 42.0 19.8 C 41.9 19.8 41.8 19.9 41.8 19.9 C 41.6 20.0 41.5 20.1 41.3 20.2 C 41.3 20.2 41.2 20.3 41.2 20.3 C 41.0 20.4 40.8 20.5 40.7 20.7 C 40.6 20.7 40.6 20.7 40.5 20.7 C 40.4 20.9 40.2 21.0 40.1 21.1 C 40.0 21.1 40.0 21.2 39.9 21.2 C 39.8 21.4 39.6 21.5 39.4 21.6 C 39.4 21.6 39.4 21.7 39.3 21.7 C 39.2 21.9 39.0 22.0 38.8 22.2 C 38.8 22.2 38.7 22.3 38.7 22.3 C 38.5 22.4 38.4 22.6 38.3 22.7 C 38.2 22.8 38.2 22.8 38.1 22.9 C 37.9 23.0 37.8 23.2 37.6 23.4 C 37.6 23.4 37.6 23.4 37.6 23.4 C 37.4 23.6 37.3 23.8 37.1 24.0 C 37.1 24.0 37.0 24.1 37.0 24.2 C 36.8 24.3 36.7 24.5 36.6 24.6 C 36.6 24.7 36.5 24.7 36.5 24.8 C 36.3 25.0 36.2 25.2 36.0 25.4 C 36.0 25.5 36.0 25.5 35.9 25.5 C 35.8 25.7 35.7 25.9 35.6 26.1 C 35.5 26.2 35.5 26.2 35.4 26.3 C 35.3 26.5 35.2 26.6 35.1 26.8 C 35.1 26.9 35.0 26.9 35.0 27.0 C 34.9 27.2 34.7 27.5 34.6 27.7 L 34.5 27.9 C 34.4 28.1 34.3 28.3 34.2 28.5 C 34.2 28.5 34.1 28.6 34.1 28.7 C 34.0 28.9 33.9 29.1 33.8 29.3 C 33.8 29.4 33.7 29.4 33.7 29.5 C 33.6 29.7 33.5 30.0 33.4 30.3 C 33.3 30.3 33.3 30.4 33.3 30.5 C 33.2 30.7 33.1 30.9 33.0 31.1 C 33.0 31.2 33.0 31.3 33.0 31.4 C 32.8 31.6 32.7 31.9 32.6 32.2 C 32.5 32.6 32.4 33.0 32.3 33.4 C 32.3 33.5 32.2 33.6 32.2 33.8 C 32.1 34.0 32.0 34.3 32.0 34.5 C 31.9 34.7 31.9 34.8 31.9 35.0 C 31.8 35.2 31.7 35.5 31.7 35.7 C 31.7 35.9 31.6 36.1 31.6 36.2 C 31.5 36.5 31.5 36.7 31.5 36.9 C 31.4 37.1 31.4 37.3 31.4 37.4 C 31.3 37.7 31.3 37.9 31.3 38.1 C 31.2 38.3 31.2 38.5 31.2 38.7 C 31.2 38.9 31.1 39.1 31.1 39.4 C 31.1 39.5 31.1 39.7 31.0 39.9 C 31.0 40.1 31.0 40.4 31.0 40.6 C 31.0 40.8 31.0 41.0 31.0 41.2 C 30.9 41.4 30.9 41.6 30.9 41.8 C 30.9 42.0 30.9 42.2 30.9 42.4 C 30.9 42.6 30.9 42.9 30.9 43.1 C 30.9 43.3 30.9 43.5 30.9 43.7 C 30.9 43.9 30.9 44.1 30.9 44.3 C 30.9 44.5 30.9 44.7 30.9 44.9 C 30.9 45.2 30.9 45.4 30.9 45.6 C 30.9 45.8 30.9 46.0 30.9 46.2 C 30.9 46.4 31.0 46.6 31.0 46.9 C 31.0 47.1 31.0 47.3 31.0 47.5 C 31.0 47.7 31.1 47.9 31.1 48.1 C 31.1 48.3 31.1 48.5 31.2 48.7 C 31.2 49.0 31.2 49.2 31.2 49.4 C 31.3 49.6 31.3 49.8 31.3 50.0 C 31.3 50.2 31.4 50.5 31.4 50.7 C 31.5 50.9 31.5 51.1 31.5 51.3 C 31.6 51.6 31.6 52.0 31.7 52.4 C 31.7 52.4 31.7 52.5 31.8 52.6 C 31.8 52.9 31.9 53.2 32.0 53.5 C 32.0 53.7 32.0 53.8 32.0 53.9 C 32.1 54.2 32.2 54.5 32.3 54.8 C 32.3 54.9 32.3 55.0 32.3 55.0 C 32.4 55.4 32.5 55.8 32.6 56.2 C 32.7 56.3 32.7 56.4 32.7 56.4 C 32.8 56.7 32.9 57.0 33.0 57.3 C 33.0 57.4 33.0 57.6 33.1 57.7 C 33.2 58.0 33.3 58.3 33.4 58.7 C 33.4 58.7 33.4 58.7 33.5 58.8 C 33.6 59.2 33.7 59.5 33.9 59.9 C 33.9 60.0 33.9 60.1 34.0 60.2 C 34.1 60.5 34.2 60.8 34.3 61.0 C 34.3 61.1 34.4 61.2 34.4 61.3 C 34.6 61.7 34.7 62.0 34.9 62.4 C 34.9 62.4 34.9 62.5 34.9 62.5 C 35.1 62.8 35.2 63.2 35.4 63.5 C 35.4 63.6 35.5 63.7 35.5 63.8 C 35.7 64.1 35.8 64.3 35.9 64.6 C 36.0 64.7 36.0 64.8 36.1 64.8 C 36.2 65.2 36.4 65.5 36.6 65.9 C 36.6 65.9 36.7 66.0 36.7 66.1 C 36.9 66.4 37.0 66.6 37.2 66.9 C 37.2 67.0 37.3 67.1 37.4 67.2 C 37.5 67.5 37.7 67.7 37.9 68.0 C 37.9 68.1 37.9 68.1 38.0 68.2 C 38.2 68.5 38.4 68.8 38.6 69.1 C 38.7 69.2 38.7 69.3 38.8 69.4 C 38.9 69.6 39.1 69.9 39.3 70.1 C 39.3 70.2 39.4 70.3 39.5 70.4 C 39.7 70.7 39.9 71.0 40.1 71.3 C 40.2 71.3 40.2 71.3 40.2 71.3 C 40.4 71.6 40.6 71.9 40.9 72.1 C 40.9 72.2 41.0 72.3 41.1 72.4 C 41.3 72.6 41.4 72.8 41.6 73.1 C 41.7 73.1 41.8 73.2 41.8 73.3 C 42.1 73.6 42.4 73.9 42.7 74.2 C 42.7 74.2 42.8 74.3 42.9 74.4 C 43.1 74.6 43.4 74.9 43.7 75.1 C 43.7 75.2 43.7 75.2 43.8 75.3 C 44.1 75.5 44.4 75.8 44.7 76.1 C 44.7 76.1 44.8 76.2 44.9 76.3 C 45.2 76.5 45.5 76.8 45.8 77.1 C 48.5 79.1 51.2 80.6 53.9 81.4 C 53.9 81.4 53.9 81.5 54.0 81.5 C 54.6 81.7 55.2 81.8 55.8 81.9 C 55.9 82.0 56.1 82.0 56.3 82.0 C 56.4 82.0 56.5 82.1 56.6 82.1 C 56.9 82.1 57.1 82.2 57.4 82.2 C 57.6 82.2 57.8 82.2 58.0 82.2 C 58.2 82.3 58.4 82.3 58.6 82.3 C 58.8 82.3 59.0 82.3 59.3 82.3 C 59.4 82.3 59.5 82.3 59.7 82.3 C 59.8 82.3 59.9 82.3 60.0 82.3 C 64.0 79.9 67.4 75.7 69.3 69.9 M 60.6 59.9 L 54.8 61.6 C 54.6 61.6 54.5 61.6 54.3 61.6 C 54.3 61.7 54.3 61.7 54.3 61.7 C 54.5 61.9 54.6 62.1 54.7 62.3 C 54.7 62.3 54.7 62.3 54.8 62.4 C 54.9 62.6 55.0 62.7 55.2 62.9 C 55.2 62.9 55.2 63.0 55.2 63.0 C 55.4 63.2 55.5 63.3 55.7 63.5 C 55.7 63.6 55.7 63.6 55.8 63.6 C 55.8 63.7 55.9 63.8 55.9 63.8 C 56.0 63.9 56.0 63.9 56.1 64.0 C 56.1 64.0 56.2 64.1 56.3 64.2 C 56.3 64.2 56.4 64.3 56.4 64.3 C 56.5 64.4 56.6 64.5 56.7 64.5 C 56.7 64.6 56.7 64.6 56.8 64.6 C 56.9 64.7 57.0 64.9 57.2 65.0 C 57.5 65.2 57.8 65.4 58.1 65.6 C 58.2 65.7 58.3 65.7 58.3 65.7 C 58.8 65.1 59.2 64.4 59.5 63.5 L 63.0 62.5 L 60.4 60.6 C 60.5 60.4 60.6 60.1 60.6 59.9 M 43.2 40.0 L 43.2 40.0 L 39.7 41.0 L 42.3 42.9 C 42.3 43.1 42.3 43.2 42.3 43.3 L 47.7 41.8 C 47.8 41.7 47.8 41.7 47.8 41.7 C 47.9 41.7 47.9 41.7 48.0 41.7 C 48.0 41.7 48.0 41.7 48.0 41.7 C 47.9 41.6 47.9 41.5 47.8 41.4 C 47.8 41.4 47.8 41.4 47.8 41.4 C 47.7 41.2 47.5 41.0 47.4 40.8 C 47.4 40.8 47.4 40.7 47.4 40.7 C 47.2 40.5 47.1 40.3 46.9 40.1 C 46.9 40.1 46.9 40.1 46.9 40.1 C 46.7 39.9 46.6 39.7 46.4 39.5 C 46.4 39.5 46.3 39.4 46.3 39.4 C 46.2 39.3 46.2 39.2 46.1 39.2 C 46.1 39.1 46.0 39.1 46.0 39.0 C 45.9 39.0 45.8 38.9 45.7 38.8 C 45.7 38.8 45.6 38.7 45.6 38.7 C 45.5 38.6 45.4 38.5 45.3 38.4 C 45.3 38.4 45.3 38.4 45.2 38.3 C 45.1 38.2 44.9 38.1 44.8 38.0 C 44.6 37.8 44.5 37.7 44.3 37.6 C 44.2 37.7 44.2 37.8 44.1 37.9 C 44.1 38.0 44.1 38.0 44.0 38.0 C 43.9 38.3 43.8 38.6 43.6 38.9 C 43.6 39.0 43.6 39.0 43.6 39.0 C 43.4 39.3 43.3 39.7 43.2 40.0 M 50.6 84.5 C 50.3 84.5 49.9 84.5 49.6 84.5 C 49.4 84.4 49.2 84.4 49.0 84.4 C 48.8 84.4 48.6 84.3 48.4 84.3 C 48.3 84.3 48.2 84.2 48.1 84.2 C 44.7 83.6 41.3 82.0 38.0 79.3 C 37.7 79.1 37.3 78.8 37.0 78.5 C 37.0 78.5 36.9 78.4 36.8 78.3 C 36.5 78.1 36.2 77.8 35.9 77.5 C 35.9 77.5 35.8 77.4 35.8 77.4 C 35.5 77.1 35.3 76.9 35.0 76.6 C 34.9 76.5 34.9 76.5 34.8 76.4 C 34.5 76.1 34.2 75.8 34.0 75.5 C 33.9 75.5 33.9 75.5 33.9 75.5 C 33.9 75.4 33.8 75.4 33.8 75.3 C 33.6 75.1 33.4 74.9 33.2 74.7 C 33.1 74.6 33.1 74.5 33.0 74.4 C 32.8 74.1 32.6 73.9 32.3 73.6 C 32.3 73.6 32.3 73.5 32.3 73.5 C 32.1 73.2 31.8 72.9 31.6 72.6 C 31.5 72.5 31.5 72.4 31.4 72.4 C 31.2 72.1 31.1 71.9 30.9 71.6 C 30.9 71.6 30.8 71.5 30.7 71.4 C 30.5 71.1 30.3 70.8 30.1 70.4 C 30.1 70.4 30.1 70.3 30.0 70.3 C 29.8 70.0 29.7 69.7 29.5 69.4 C 29.4 69.3 29.4 69.2 29.3 69.1 C 29.2 68.9 29.0 68.6 28.9 68.3 C 28.8 68.3 28.8 68.2 28.7 68.1 C 28.6 67.8 28.4 67.4 28.2 67.1 C 28.2 67.0 28.1 66.9 28.1 66.9 C 27.9 66.6 27.8 66.3 27.7 66.0 C 27.6 65.9 27.6 65.8 27.5 65.7 C 27.4 65.4 27.2 65.1 27.1 64.8 C 27.1 64.7 27.0 64.7 27.0 64.7 C 26.9 64.3 26.7 63.9 26.6 63.6 C 26.5 63.5 26.5 63.4 26.4 63.3 C 26.3 63.0 26.2 62.7 26.1 62.5 C 26.1 62.4 26.0 62.2 26.0 62.1 C 25.9 61.8 25.7 61.4 25.6 61.0 C 25.6 61.0 25.6 61.0 25.6 60.9 C 25.4 60.6 25.3 60.3 25.2 59.9 C 25.2 59.8 25.2 59.7 25.1 59.6 C 25.0 59.3 24.9 59.0 24.8 58.7 C 24.8 58.6 24.8 58.5 24.8 58.4 C 24.7 58.1 24.6 57.7 24.5 57.3 C 24.4 57.2 24.4 57.1 24.4 57.1 C 24.3 56.8 24.3 56.4 24.2 56.1 C 24.2 56.0 24.1 55.9 24.1 55.8 C 24.0 55.5 24.0 55.1 23.9 54.8 C 23.9 54.8 23.9 54.7 23.9 54.6 C 23.8 54.3 23.7 54.0 23.7 53.7 C 23.7 53.6 23.7 53.6 23.7 53.5 C 23.6 53.3 23.6 53.1 23.6 53.0 C 23.5 52.7 23.5 52.5 23.5 52.3 C 23.4 52.1 23.4 51.9 23.4 51.7 C 23.3 51.5 23.3 51.2 23.3 51.0 C 23.3 50.8 23.3 50.6 23.2 50.4 C 23.2 50.2 23.2 49.9 23.2 49.7 C 23.2 49.5 23.1 49.3 23.1 49.1 C 23.1 48.9 23.1 48.7 23.1 48.5 C 23.1 48.3 23.1 48.1 23.0 47.9 C 23.0 47.6 23.0 47.4 23.0 47.2 C 23.0 47.0 23.0 46.8 23.0 46.6 C 23.0 46.4 23.0 46.2 23.0 45.9 C 23.0 45.7 23.0 45.5 23.0 45.3 C 23.0 45.1 23.0 44.9 23.0 44.7 C 23.0 44.5 23.0 44.3 23.1 44.1 C 23.1 43.9 23.1 43.6 23.1 43.4 C 23.1 43.2 23.1 43.0 23.1 42.8 C 23.1 42.6 23.2 42.4 23.2 42.2 C 23.2 42.0 23.2 41.8 23.2 41.6 C 23.3 41.4 23.3 41.2 23.3 40.9 C 23.4 40.8 23.4 40.6 23.4 40.4 C 23.4 40.2 23.5 39.9 23.5 39.7 C 23.5 39.5 23.6 39.4 23.6 39.2 C 23.6 38.9 23.7 38.7 23.7 38.5 C 23.8 38.3 23.8 38.1 23.8 38.0 C 23.9 37.7 23.9 37.5 24.0 37.3 C 24.0 37.1 24.1 37.0 24.1 36.9 C 24.1 36.8 24.1 36.8 24.1 36.8 C 24.2 36.5 24.3 36.3 24.3 36.0 C 24.4 35.9 24.4 35.8 24.4 35.6 C 24.5 35.2 24.7 34.9 24.8 34.5 C 24.9 34.2 25.0 33.9 25.1 33.6 C 25.1 33.5 25.2 33.5 25.2 33.4 C 25.3 33.2 25.3 33.0 25.4 32.7 C 25.5 32.7 25.5 32.6 25.5 32.5 C 25.6 32.3 25.7 32.0 25.9 31.7 C 25.9 31.7 25.9 31.7 25.9 31.6 C 26.0 31.4 26.1 31.2 26.2 31.0 C 26.3 30.9 26.3 30.8 26.3 30.7 C 26.4 30.5 26.5 30.3 26.6 30.1 C 26.7 30.1 26.7 30.0 26.7 30.0 C 26.9 29.7 27.0 29.5 27.1 29.3 C 27.2 29.2 27.2 29.1 27.2 29.1 C 27.3 28.9 27.5 28.7 27.6 28.5 C 27.6 28.5 27.7 28.4 27.7 28.3 C 27.8 28.2 28.0 28.0 28.1 27.8 C 28.1 27.7 28.1 27.7 28.1 27.7 C 28.3 27.5 28.5 27.3 28.6 27.1 C 28.7 27.0 28.7 26.9 28.7 26.9 C 28.9 26.7 29.0 26.6 29.1 26.4 C 29.1 26.4 29.2 26.3 29.2 26.3 C 29.4 26.1 29.6 25.9 29.7 25.7 L 29.8 25.7 C 29.9 25.5 30.1 25.3 30.3 25.1 C 30.3 25.1 30.4 25.0 30.4 25.0 C 30.5 24.8 30.7 24.7 30.8 24.6 C 30.9 24.5 30.9 24.5 30.9 24.4 C 31.1 24.3 31.3 24.1 31.5 24.0 C 31.5 23.9 31.6 23.9 31.6 23.9 C 31.7 23.7 31.9 23.6 32.0 23.5 C 32.1 23.4 32.2 23.4 32.2 23.4 C 32.4 23.2 32.5 23.1 32.7 23.0 C 32.7 23.0 32.7 23.0 32.8 22.9 L 32.8 22.9 C 33.0 22.8 33.2 22.7 33.3 22.5 C 33.4 22.5 33.4 22.5 33.5 22.5 C 33.6 22.4 33.8 22.3 33.9 22.2 C 34.0 22.1 34.0 22.1 34.1 22.1 C 34.2 22.0 34.4 21.9 34.5 21.8 C 34.6 21.8 34.6 21.8 34.7 21.7 C 34.9 21.7 35.0 21.6 35.2 21.5 C 35.2 21.5 35.2 21.5 35.3 21.4 C 35.5 21.3 35.7 21.2 35.9 21.2 C 35.9 21.1 36.0 21.1 36.0 21.1 C 36.2 21.0 36.3 21.0 36.5 20.9 C 36.5 20.9 36.6 20.9 36.7 20.8 C 36.8 20.8 37.0 20.7 37.1 20.7 C 37.2 20.7 37.2 20.6 37.3 20.6 C 37.5 20.5 37.7 20.5 37.9 20.4 L 37.9 20.4 L 37.9 20.4 L 37.9 20.4 L 42.2 19.2 L 45.8 18.2 L 45.8 18.2 L 45.8 18.2 L 45.8 18.2 L 45.8 18.2 C 47.8 17.6 49.9 17.4 52.0 17.6 C 46.7 15.0 41.4 14.4 36.6 15.8 L 44.5 13.5 C 50.9 11.7 58.4 13.3 65.3 18.8 C 65.7 19.1 66.1 19.5 66.5 19.8 C 66.5 19.8 66.5 19.8 66.6 19.9 C 66.9 20.2 67.3 20.5 67.7 20.9 C 67.7 20.9 67.7 20.9 67.8 21.0 C 68.1 21.3 68.5 21.6 68.8 22.0 C 68.8 22.0 68.9 22.1 68.9 22.1 C 69.3 22.5 69.6 22.8 69.9 23.2 C 69.9 23.2 70.0 23.2 70.0 23.2 C 70.0 23.3 70.0 23.3 70.1 23.3 C 70.3 23.7 70.6 24.0 70.9 24.3 C 70.9 24.3 71.0 24.4 71.0 24.4 C 71.3 24.7 71.5 25.1 71.8 25.4 C 71.8 25.4 71.8 25.5 71.9 25.5 C 72.1 25.8 72.4 26.2 72.6 26.5 C 72.7 26.6 72.7 26.7 72.8 26.7 C 73.0 27.1 73.3 27.4 73.5 27.8 C 73.6 27.8 73.6 27.9 73.6 27.9 C 73.9 28.3 74.1 28.6 74.3 28.9 C 74.3 29.0 74.4 29.0 74.4 29.1 C 74.6 29.4 74.8 29.8 75.1 30.2 C 75.1 30.3 75.2 30.3 75.2 30.4 C 75.4 30.8 75.6 31.2 75.8 31.5 C 75.9 31.6 75.9 31.6 75.9 31.7 C 76.1 32.1 76.3 32.4 76.5 32.8 C 76.5 32.8 76.6 32.9 76.6 32.9 C 76.8 33.3 77.0 33.7 77.2 34.1 C 77.2 34.2 77.3 34.3 77.3 34.4 C 77.5 34.7 77.7 35.1 77.8 35.5 C 77.9 35.6 77.9 35.6 77.9 35.7 C 78.1 36.1 78.2 36.5 78.4 36.8 C 78.4 36.9 78.5 37.0 78.5 37.0 C 78.6 37.4 78.8 37.8 79.0 38.2 C 79.0 38.3 79.0 38.4 79.1 38.5 C 79.2 38.9 79.4 39.3 79.5 39.7 C 79.5 39.8 79.5 39.8 79.6 39.9 C 79.7 40.3 79.8 40.7 80.0 41.1 C 80.0 41.1 80.0 41.2 80.0 41.3 C 80.1 41.7 80.3 42.1 80.4 42.5 C 80.4 42.6 80.4 42.7 80.5 42.8 C 80.6 43.2 80.7 43.6 80.8 44.1 C 80.8 44.1 80.8 44.2 80.8 44.2 C 81.0 44.6 81.1 45.0 81.1 45.4 C 81.2 45.5 81.2 45.6 81.2 45.6 C 81.3 46.1 81.4 46.5 81.5 46.9 C 81.5 47.0 81.5 47.1 81.5 47.2 C 81.6 47.6 81.7 48.1 81.8 48.5 C 81.8 48.5 81.8 48.6 81.8 48.6 C 81.8 49.0 81.9 49.5 82.0 49.9 L 82.0 50.1 C 82.1 50.5 82.1 50.9 82.2 51.4 C 82.2 51.5 82.2 51.6 82.2 51.6 C 82.2 52.1 82.3 52.5 82.3 53.0 C 82.3 53.0 82.3 53.0 82.3 53.1 C 82.4 53.5 82.4 53.9 82.4 54.3 C 82.4 54.4 82.4 54.5 82.4 54.5 C 82.4 55.0 82.5 55.4 82.5 55.8 C 82.5 55.9 82.5 56.0 82.5 56.1 C 82.5 56.5 82.5 57.0 82.5 57.4 C 82.5 57.4 82.5 57.5 82.5 57.5 C 82.5 57.9 82.5 58.3 82.4 58.8 C 82.4 58.8 82.4 58.9 82.4 59.0 C 82.4 59.4 82.4 59.8 82.4 60.2 C 82.4 60.3 82.4 60.4 82.3 60.5 C 82.3 60.9 82.3 61.4 82.2 61.8 C 82.2 61.8 82.2 61.8 82.2 61.9 C 82.2 62.3 82.1 62.7 82.1 63.1 C 82.1 63.2 82.0 63.3 82.0 63.3 C 82.0 63.7 81.9 64.2 81.8 64.6 C 81.8 64.6 81.8 64.7 81.8 64.8 C 81.7 65.2 81.6 65.7 81.6 66.1 C 81.5 66.1 81.5 66.1 81.5 66.1 C 81.5 66.5 81.4 66.9 81.3 67.3 C 81.2 67.4 81.2 67.4 81.2 67.5 C 81.2 67.5 81.2 67.5 81.2 67.6 C 81.1 68.0 81.0 68.3 80.9 68.7 C 80.9 68.8 80.8 68.9 80.8 69.0 C 80.7 69.4 80.6 69.8 80.4 70.2 C 79.8 72.1 79.0 73.8 78.2 75.4 C 77.9 75.9 77.7 76.3 77.4 76.7 C 76.3 78.5 75.1 80.0 73.8 81.3 C 73.1 81.9 72.5 82.5 71.7 83.1 C 71.4 83.3 71.0 83.6 70.7 83.8 C 69.9 84.3 69.2 84.8 68.4 85.1 C 68.2 85.2 68.0 85.3 67.8 85.4 C 67.0 85.8 66.2 86.1 65.4 86.3 L 57.5 88.6 C 62.3 87.2 66.6 83.9 69.6 78.8 C 69.6 78.9 69.6 78.9 69.6 78.9 C 69.1 79.2 68.7 79.5 68.2 79.8 C 67.9 80.0 67.5 80.2 67.2 80.4 C 66.8 80.6 66.5 80.8 66.2 80.9 C 66.0 81.0 65.8 81.1 65.6 81.1 C 65.1 81.3 64.6 81.5 64.0 81.7 L 60.5 82.7 L 56.2 83.9 C 56.0 84.0 55.7 84.0 55.5 84.1 C 55.4 84.1 55.3 84.2 55.1 84.2 C 54.8 84.3 54.5 84.3 54.2 84.4 C 54.1 84.4 54.1 84.4 54.0 84.4 C 53.8 84.4 53.6 84.4 53.4 84.5 C 53.3 84.5 53.1 84.5 52.9 84.5 C 52.8 84.5 52.7 84.5 52.6 84.5 C 52.3 84.6 52.1 84.6 51.8 84.6 C 51.7 84.6 51.6 84.6 51.5 84.6 C 51.3 84.6 51.0 84.6 50.7 84.6 C 50.7 84.6 50.6 84.5 50.6 84.5 " fill="#F38907"></path><path d="M 45.8 18.2 L 45.8 18.2 L 45.8 18.2 Z M 45.8 18.2 " fill="#DC7601"></path><path d="M 45.7 38.8 C 45.7 38.8 45.6 38.7 45.6 38.7 C 45.5 38.6 45.4 38.5 45.3 38.4 C 45.3 38.4 45.3 38.4 45.2 38.3 C 45.1 38.2 44.9 38.1 44.8 38.0 C 44.6 37.8 44.5 37.7 44.3 37.6 C 44.2 37.7 44.2 37.8 44.1 37.9 C 44.1 38.0 44.1 38.0 44.0 38.0 C 43.9 38.3 43.8 38.6 43.6 38.9 C 43.6 39.0 43.6 39.0 43.6 39.0 C 43.4 39.3 43.3 39.7 43.2 40.0 L 39.7 41.0 L 42.3 42.9 C 42.3 43.1 42.3 43.2 42.3 43.3 L 47.7 41.8 C 47.8 41.7 47.8 41.7 47.8 41.7 C 47.9 41.7 47.9 41.7 48.0 41.7 C 48.0 41.7 48.0 41.7 48.0 41.7 C 47.9 41.6 47.9 41.5 47.8 41.4 C 47.8 41.4 47.8 41.4 47.8 41.4 C 47.7 41.2 47.5 41.0 47.4 40.8 C 47.4 40.8 47.4 40.8 47.4 40.7 C 47.2 40.5 47.1 40.3 46.9 40.2 C 46.9 40.1 46.9 40.1 46.9 40.1 C 46.7 39.9 46.6 39.7 46.4 39.5 C 46.4 39.5 46.3 39.4 46.3 39.4 C 46.2 39.3 46.2 39.2 46.1 39.2 C 46.1 39.1 46.0 39.1 46.0 39.0 C 45.9 39.0 45.8 38.9 45.7 38.8 M 54.3 61.6 C 54.3 61.7 54.3 61.7 54.3 61.7 C 54.5 61.9 54.6 62.1 54.7 62.3 C 54.7 62.3 54.7 62.3 54.8 62.4 C 54.9 62.6 55.0 62.7 55.2 62.9 C 55.2 62.9 55.2 63.0 55.2 63.0 C 55.4 63.2 55.5 63.3 55.7 63.5 C 55.7 63.6 55.7 63.6 55.8 63.6 C 55.8 63.7 55.9 63.8 55.9 63.8 C 56.0 63.9 56.0 63.9 56.1 64.0 C 56.1 64.0 56.2 64.1 56.3 64.2 C 56.3 64.2 56.4 64.3 56.4 64.3 C 56.5 64.4 56.6 64.5 56.7 64.5 C 56.7 64.6 56.7 64.6 56.8 64.6 C 56.9 64.7 57.0 64.9 57.2 65.0 C 57.5 65.2 57.8 65.4 58.1 65.6 C 58.2 65.7 58.3 65.7 58.3 65.7 C 58.8 65.1 59.2 64.4 59.5 63.5 L 63.0 62.5 L 60.4 60.6 C 60.5 60.4 60.6 60.1 60.6 59.9 L 54.8 61.6 C 54.6 61.6 54.5 61.6 54.3 61.6 M 69.4 79.2 C 69.5 79.1 69.6 79.0 69.6 78.8 C 69.6 78.8 69.6 78.9 69.6 78.9 C 69.1 79.2 68.7 79.5 68.2 79.8 C 67.9 80.0 67.5 80.2 67.2 80.4 C 66.8 80.6 66.5 80.8 66.2 80.9 C 66.0 81.0 65.8 81.1 65.6 81.1 C 65.1 81.3 64.6 81.5 64.0 81.7 L 60.5 82.7 L 56.2 83.9 C 56.0 84.0 55.7 84.0 55.5 84.1 C 55.4 84.1 55.3 84.2 55.1 84.2 C 54.8 84.3 54.5 84.3 54.2 84.4 C 54.1 84.4 54.1 84.4 54.0 84.4 C 53.8 84.4 53.6 84.4 53.4 84.5 C 53.3 84.5 53.1 84.5 52.9 84.5 C 52.8 84.5 52.7 84.5 52.6 84.5 C 52.3 84.6 52.1 84.6 51.8 84.6 C 51.7 84.6 51.6 84.6 51.5 84.6 C 51.3 84.6 51.0 84.6 50.7 84.6 C 50.7 84.6 50.6 84.5 50.6 84.5 C 50.3 84.5 49.9 84.5 49.6 84.5 C 49.4 84.4 49.2 84.4 49.0 84.4 C 48.8 84.4 48.6 84.3 48.4 84.3 C 48.3 84.3 48.2 84.2 48.1 84.2 C 44.7 83.6 41.3 82.0 38.0 79.3 C 38.0 79.3 37.9 79.3 37.9 79.3 L 37.5 67.4 C 37.6 67.6 37.8 67.8 37.9 68.0 C 37.9 68.1 37.9 68.1 38.0 68.2 C 38.2 68.5 38.4 68.8 38.6 69.1 C 38.7 69.2 38.7 69.3 38.8 69.4 C 38.9 69.6 39.1 69.9 39.3 70.1 C 39.3 70.2 39.4 70.3 39.5 70.4 C 39.7 70.7 39.9 71.0 40.1 71.3 C 40.2 71.3 40.2 71.3 40.2 71.3 C 40.4 71.6 40.6 71.9 40.9 72.1 C 40.9 72.2 41.0 72.3 41.1 72.4 C 41.3 72.6 41.4 72.8 41.6 73.1 C 41.7 73.1 41.8 73.2 41.8 73.3 C 42.1 73.6 42.4 73.9 42.7 74.2 C 42.7 74.2 42.8 74.3 42.9 74.4 C 43.1 74.6 43.4 74.9 43.7 75.1 C 43.7 75.2 43.7 75.2 43.8 75.3 C 44.1 75.5 44.4 75.8 44.7 76.1 C 44.7 76.1 44.8 76.2 44.9 76.3 C 45.2 76.5 45.5 76.8 45.8 77.1 C 48.5 79.1 51.2 80.6 53.9 81.4 C 53.9 81.4 53.9 81.5 54.0 81.5 C 54.6 81.7 55.2 81.8 55.8 81.9 C 55.9 82.0 56.1 82.0 56.3 82.0 C 56.4 82.0 56.5 82.1 56.6 82.1 C 56.9 82.1 57.1 82.2 57.4 82.2 C 57.6 82.2 57.8 82.2 58.0 82.2 C 58.2 82.3 58.4 82.3 58.6 82.3 C 58.8 82.3 59.0 82.3 59.3 82.3 C 59.4 82.3 59.5 82.3 59.7 82.3 C 59.8 82.3 59.9 82.3 60.0 82.3 C 64.0 79.9 67.4 75.7 69.3 69.9 C 69.5 69.4 69.6 69.0 69.7 68.6 C 69.8 68.4 69.8 68.3 69.9 68.1 C 69.9 67.8 70.0 67.5 70.1 67.2 C 70.1 67.0 70.2 66.9 70.2 66.7 C 70.3 66.4 70.3 66.1 70.4 65.8 C 70.4 65.7 70.5 65.5 70.5 65.3 C 70.6 65.0 70.6 64.7 70.7 64.4 C 70.7 64.2 70.7 64.1 70.7 63.9 C 70.8 63.5 70.9 63.0 70.9 62.5 C 70.9 62.5 70.9 62.5 70.9 62.4 C 71.0 62.0 71.0 61.6 71.0 61.1 C 71.0 61.0 71.0 60.8 71.0 60.7 C 71.1 60.6 71.1 60.6 71.1 60.6 L 70.2 63.4 L 65.0 64.9 C 64.3 65.6 63.5 66.2 62.6 66.4 L 54.7 68.7 L 54.7 68.7 L 54.7 68.7 L 54.7 68.7 C 54.6 68.7 54.6 68.7 54.5 68.7 C 54.5 68.7 54.4 68.8 54.4 68.8 C 54.4 68.8 54.3 68.8 54.3 68.8 C 54.2 68.8 54.1 68.8 54.0 68.8 C 53.6 68.9 53.3 68.9 53.0 68.8 C 52.7 68.8 52.4 68.8 52.1 68.7 C 52.1 68.7 52.0 68.7 51.9 68.6 C 51.9 68.6 51.8 68.6 51.8 68.6 C 51.8 68.6 51.8 68.6 51.7 68.6 C 51.4 68.5 51.1 68.3 50.7 68.2 C 50.6 68.1 50.4 68.0 50.2 67.9 C 49.9 67.7 49.6 67.5 49.3 67.2 C 49.2 67.1 49.1 67.0 48.9 66.9 C 48.9 66.9 48.8 66.8 48.8 66.8 C 48.7 66.7 48.6 66.6 48.6 66.6 C 48.5 66.5 48.5 66.5 48.4 66.4 C 48.4 66.4 48.3 66.3 48.2 66.2 C 48.2 66.2 48.1 66.1 48.1 66.1 C 48.0 66.0 48.0 66.0 47.9 65.9 C 47.9 65.9 47.9 65.9 47.9 65.8 C 47.8 65.8 47.8 65.8 47.8 65.8 C 47.6 65.6 47.5 65.4 47.3 65.2 C 47.3 65.2 47.3 65.2 47.3 65.2 C 47.2 65.0 47.0 64.8 46.9 64.6 C 46.9 64.6 46.9 64.6 46.9 64.6 C 46.7 64.4 46.6 64.2 46.5 64.0 C 46.5 63.9 46.4 63.9 46.4 63.9 C 46.3 63.7 46.2 63.5 46.1 63.3 L 46.1 63.2 C 46.0 63.0 45.9 62.8 45.8 62.6 C 45.8 62.5 45.7 62.5 45.7 62.5 C 45.6 62.3 45.5 62.0 45.5 61.8 C 45.5 61.8 45.5 61.8 45.5 61.8 C 45.4 61.7 45.4 61.6 45.3 61.4 C 45.3 61.4 45.3 61.4 45.3 61.4 C 45.3 61.4 45.3 61.4 45.3 61.4 C 45.3 61.4 45.3 61.3 45.3 61.2 C 45.2 61.2 45.2 61.1 45.2 61.0 C 45.1 60.8 45.1 60.7 45.0 60.5 C 45.0 60.4 45.0 60.4 45.0 60.3 C 44.9 60.1 44.9 59.9 44.8 59.7 C 44.8 59.7 44.8 59.6 44.8 59.6 C 44.7 59.4 44.7 59.1 44.6 58.9 C 44.6 58.8 44.6 58.8 44.6 58.7 C 44.6 58.5 44.5 58.4 44.5 58.2 C 44.5 58.1 44.5 58.0 44.5 57.9 C 44.4 57.8 44.4 57.6 44.4 57.5 C 44.4 57.4 44.4 57.3 44.4 57.2 C 44.3 57.1 44.3 56.9 44.3 56.8 C 44.3 56.7 44.3 56.6 44.3 56.5 C 44.3 56.3 44.2 56.2 44.2 56.0 C 44.2 55.9 44.2 55.9 44.2 55.8 C 44.2 55.6 44.2 55.3 44.1 55.1 C 44.1 55.1 44.1 55.1 44.1 55.0 L 39.0 56.5 L 37.1 55.3 L 36.5 38.5 L 37.7 38.1 C 37.8 38.1 37.8 38.0 37.9 37.9 C 37.9 37.9 37.9 37.9 37.9 37.9 C 38.1 37.7 38.3 37.5 38.6 37.4 C 38.6 37.4 38.6 37.3 38.6 37.3 C 38.7 37.3 38.8 37.2 38.9 37.2 C 38.9 37.1 38.9 37.1 38.9 37.1 C 39.0 37.1 39.1 37.0 39.2 37.0 C 39.2 37.0 39.3 36.9 39.3 36.9 C 39.4 36.9 39.5 36.8 39.6 36.8 C 39.6 36.8 39.6 36.8 39.6 36.8 C 39.7 36.7 39.8 36.7 39.9 36.7 C 40.0 36.7 40.0 36.6 40.0 36.6 L 40.0 36.6 L 45.7 35.0 L 47.9 34.4 L 47.9 34.4 C 49.3 34.0 50.9 34.4 52.7 35.7 C 52.8 35.8 52.9 35.9 53.1 36.1 C 53.1 36.1 53.2 36.1 53.2 36.2 C 53.3 36.3 53.4 36.3 53.5 36.4 C 53.5 36.5 53.6 36.5 53.6 36.5 C 53.7 36.6 53.8 36.7 53.8 36.8 C 53.9 36.8 53.9 36.9 54.0 36.9 C 54.0 37.0 54.1 37.1 54.2 37.1 C 54.2 37.2 54.2 37.2 54.2 37.2 C 54.3 37.2 54.3 37.2 54.3 37.3 C 54.4 37.4 54.6 37.6 54.7 37.8 C 54.8 37.8 54.8 37.9 54.8 37.9 C 55.0 38.1 55.1 38.3 55.2 38.5 C 55.2 38.5 55.2 38.5 55.2 38.5 C 55.4 38.7 55.5 38.9 55.6 39.1 C 55.7 39.1 55.7 39.2 55.7 39.2 C 55.8 39.4 55.9 39.6 56.0 39.8 C 56.0 39.8 56.1 39.9 56.1 39.9 C 56.2 40.1 56.3 40.3 56.4 40.5 C 56.4 40.5 56.4 40.6 56.4 40.6 C 56.5 40.8 56.6 41.0 56.7 41.3 C 56.7 41.3 56.7 41.3 56.7 41.3 C 56.8 41.5 56.9 41.7 56.9 42.0 L 57.0 42.0 C 57.0 42.2 57.1 42.5 57.2 42.7 C 57.2 42.7 57.2 42.7 57.2 42.8 C 57.2 43.0 57.3 43.2 57.4 43.4 L 57.4 43.5 C 57.4 43.8 57.5 44.0 57.5 44.2 C 57.5 44.2 57.5 44.3 57.5 44.3 C 57.6 44.5 57.6 44.7 57.7 45.0 C 57.7 45.0 57.7 45.0 57.7 45.0 C 57.7 45.2 57.8 45.4 57.8 45.7 L 57.8 45.8 C 57.8 46.0 57.9 46.2 57.9 46.4 L 57.9 46.5 C 57.9 46.5 57.9 46.6 57.9 46.6 L 63.3 45.0 L 69.3 48.9 C 69.3 48.9 69.3 48.9 69.3 49.0 C 69.3 49.0 69.3 49.0 69.3 49.0 C 69.3 49.0 69.3 49.1 69.3 49.1 C 69.3 49.2 69.3 49.2 69.3 49.2 C 69.3 49.3 69.3 49.3 69.3 49.4 C 69.3 49.4 69.3 49.5 69.3 49.5 C 69.3 49.6 69.3 49.6 69.4 49.7 C 69.4 49.8 69.4 49.8 69.4 49.9 C 69.4 49.9 69.4 50.0 69.4 50.1 C 69.4 50.2 69.4 50.2 69.4 50.3 C 69.4 50.4 69.4 50.5 69.4 50.6 C 69.4 50.6 69.4 50.7 69.4 50.8 C 69.4 50.9 69.4 51.0 69.4 51.1 C 69.4 51.2 69.4 51.3 69.3 51.3 C 69.3 51.5 69.3 51.6 69.3 51.7 C 69.3 51.8 69.3 51.9 69.3 52.0 C 69.3 52.1 69.3 52.2 69.3 52.3 C 69.3 52.4 69.3 52.5 69.3 52.6 C 69.3 52.8 69.3 52.9 69.2 53.0 C 69.2 53.1 69.2 53.2 69.2 53.4 C 69.2 53.5 69.2 53.6 69.2 53.8 C 69.2 53.9 69.1 54.0 69.1 54.1 C 69.1 54.3 69.1 54.4 69.1 54.6 C 69.1 54.7 69.0 54.8 69.0 54.9 C 69.0 55.1 69.0 55.2 68.9 55.4 C 68.9 55.5 68.9 55.7 68.9 55.8 C 68.8 55.9 68.8 56.1 68.8 56.3 C 68.8 56.4 68.7 56.5 68.7 56.7 C 68.7 56.8 68.6 57.0 68.6 57.2 C 68.6 57.3 68.5 57.5 68.5 57.6 C 68.5 57.7 68.5 57.7 68.4 57.8 C 68.4 58.0 68.3 58.2 68.3 58.4 C 68.3 58.4 68.3 58.4 68.3 58.4 L 71.1 60.4 C 71.1 60.2 71.1 59.9 71.1 59.7 C 71.1 59.5 71.1 59.3 71.1 59.2 C 71.1 58.9 71.1 58.5 71.1 58.2 C 71.1 58.1 71.1 57.9 71.1 57.7 C 71.1 57.4 71.1 57.0 71.1 56.7 C 71.1 56.5 71.1 56.4 71.1 56.3 C 71.0 55.8 71.0 55.3 71.0 54.8 C 71.0 54.7 71.0 54.7 71.0 54.6 C 70.9 54.2 70.9 53.8 70.8 53.4 C 70.8 53.2 70.8 53.0 70.8 52.9 C 70.7 52.6 70.7 52.2 70.6 51.9 C 70.6 51.7 70.6 51.6 70.6 51.4 C 70.5 51.1 70.5 50.8 70.4 50.4 C 70.4 50.3 70.3 50.1 70.3 49.9 C 70.2 49.6 70.2 49.2 70.1 48.9 C 70.1 48.7 70.0 48.6 70.0 48.5 C 69.9 48.0 69.8 47.5 69.7 47.1 C 69.6 47.0 69.6 46.9 69.6 46.8 C 69.5 46.4 69.4 46.0 69.3 45.6 C 69.2 45.5 69.2 45.3 69.1 45.2 C 69.0 44.9 68.9 44.5 68.8 44.2 C 68.8 44.1 68.7 43.9 68.7 43.7 C 68.6 43.4 68.5 43.1 68.3 42.8 C 68.3 42.6 68.2 42.5 68.2 42.3 C 68.0 42.0 67.9 41.6 67.8 41.3 C 67.7 41.2 67.7 41.1 67.6 41.0 C 67.5 40.5 67.3 40.1 67.1 39.6 C 67.0 39.5 67.0 39.4 66.9 39.3 C 66.8 39.0 66.6 38.6 66.4 38.3 C 66.4 38.1 66.3 38.0 66.2 37.8 C 66.1 37.6 65.9 37.3 65.8 37.0 C 65.7 36.8 65.6 36.7 65.5 36.5 C 65.4 36.2 65.2 36.0 65.1 35.7 C 65.0 35.5 64.9 35.4 64.8 35.2 C 64.6 34.9 64.4 34.6 64.2 34.3 C 64.2 34.2 64.1 34.1 64.1 34.0 C 63.8 33.6 63.6 33.2 63.3 32.8 C 63.2 32.7 63.1 32.6 63.1 32.5 C 62.9 32.2 62.7 31.9 62.5 31.7 C 62.4 31.5 62.3 31.4 62.2 31.3 C 62.0 31.0 61.8 30.8 61.6 30.5 C 61.5 30.4 61.4 30.3 61.3 30.1 C 61.1 29.9 60.9 29.6 60.7 29.4 C 60.6 29.3 60.5 29.2 60.3 29.0 C 60.2 28.8 60.0 28.6 59.8 28.4 C 59.6 28.3 59.5 28.1 59.3 28.0 C 59.1 27.7 58.9 27.5 58.7 27.3 C 58.6 27.2 58.5 27.1 58.3 26.9 C 58.1 26.7 57.8 26.5 57.6 26.3 C 57.5 26.2 57.4 26.1 57.2 26.0 C 56.9 25.6 56.5 25.3 56.1 25.0 C 54.2 23.5 52.3 22.4 50.4 21.5 C 49.6 21.2 48.8 20.9 48.0 20.6 C 46.9 20.3 45.7 20.0 44.6 19.9 C 43.7 19.8 42.8 19.8 42.0 19.8 C 42.0 19.8 42.0 19.8 42.0 19.8 C 41.9 19.8 41.8 19.9 41.8 19.9 C 41.6 20.0 41.5 20.1 41.3 20.2 C 41.3 20.2 41.2 20.3 41.2 20.3 C 41.0 20.4 40.8 20.5 40.7 20.7 C 40.6 20.7 40.6 20.7 40.5 20.7 C 40.4 20.9 40.2 21.0 40.1 21.1 C 40.0 21.1 40.0 21.2 39.9 21.2 C 39.8 21.4 39.6 21.5 39.4 21.6 C 39.4 21.6 39.4 21.7 39.3 21.7 C 39.2 21.9 39.0 22.0 38.8 22.2 C 38.8 22.2 38.7 22.3 38.7 22.3 C 38.5 22.4 38.4 22.6 38.3 22.7 C 38.2 22.8 38.2 22.8 38.1 22.9 C 37.9 23.0 37.8 23.2 37.6 23.4 C 37.6 23.4 37.6 23.4 37.6 23.4 C 37.4 23.6 37.3 23.8 37.1 24.0 C 37.1 24.0 37.0 24.1 37.0 24.2 C 36.8 24.3 36.7 24.5 36.6 24.6 C 36.6 24.7 36.5 24.7 36.5 24.8 C 36.3 25.0 36.2 25.2 36.0 25.4 C 36.0 25.4 36.0 25.4 36.0 25.4 L 35.8 21.2 C 35.9 21.2 35.9 21.2 35.9 21.2 C 35.9 21.1 36.0 21.1 36.0 21.1 C 36.2 21.0 36.3 21.0 36.5 20.9 C 36.6 20.9 36.6 20.9 36.7 20.8 C 36.8 20.8 37.0 20.7 37.1 20.7 C 37.2 20.7 37.2 20.6 37.3 20.6 C 37.5 20.5 37.7 20.5 37.9 20.4 L 37.9 20.4 L 37.9 20.4 L 37.9 20.4 L 42.2 19.2 L 45.8 18.2 L 45.8 18.2 C 46.5 17.9 47.3 17.8 48.1 17.7 C 48.4 17.6 48.8 17.6 49.2 17.6 C 50.1 17.5 51.1 17.5 52.0 17.6 C 51.9 17.5 51.7 17.4 51.5 17.4 C 55.3 17.1 59.1 17.0 62.8 17.0 C 63.6 17.6 64.5 18.2 65.3 18.8 C 65.7 19.1 66.1 19.5 66.5 19.8 C 66.5 19.8 66.5 19.8 66.6 19.9 C 66.9 20.2 67.3 20.5 67.7 20.9 C 67.7 20.9 67.7 20.9 67.8 21.0 C 68.1 21.3 68.5 21.6 68.8 22.0 C 68.8 22.0 68.9 22.1 68.9 22.1 C 69.3 22.5 69.6 22.8 69.9 23.2 C 69.9 23.2 70.0 23.2 70.0 23.2 C 70.0 23.3 70.0 23.3 70.1 23.3 C 70.3 23.7 70.6 24.0 70.9 24.3 C 70.9 24.3 71.0 24.4 71.0 24.4 C 71.3 24.7 71.5 25.1 71.8 25.4 C 71.8 25.4 71.8 25.5 71.9 25.5 C 72.1 25.8 72.4 26.2 72.6 26.5 C 72.7 26.6 72.7 26.7 72.8 26.7 C 73.0 27.1 73.3 27.4 73.5 27.8 C 73.6 27.8 73.6 27.9 73.6 27.9 C 73.9 28.3 74.1 28.6 74.3 28.9 C 74.3 29.0 74.4 29.0 74.4 29.1 C 74.6 29.4 74.8 29.8 75.1 30.2 C 75.1 30.3 75.2 30.3 75.2 30.4 C 75.4 30.8 75.6 31.2 75.8 31.5 C 75.9 31.6 75.9 31.6 75.9 31.7 C 76.1 32.1 76.3 32.4 76.5 32.8 C 76.5 32.8 76.6 32.9 76.6 32.9 C 76.8 33.3 77.0 33.7 77.2 34.1 C 77.2 34.2 77.3 34.3 77.3 34.4 C 77.5 34.7 77.7 35.1 77.8 35.5 C 77.9 35.6 77.9 35.6 77.9 35.7 C 78.1 36.1 78.2 36.5 78.4 36.8 C 78.4 36.9 78.5 37.0 78.5 37.0 C 78.6 37.4 78.8 37.8 79.0 38.2 C 79.0 38.3 79.0 38.4 79.1 38.5 C 79.2 38.9 79.4 39.3 79.5 39.7 C 79.5 39.8 79.5 39.8 79.6 39.9 C 79.7 40.3 79.8 40.7 80.0 41.1 C 80.0 41.1 80.0 41.2 80.0 41.3 C 80.1 41.7 80.3 42.1 80.4 42.5 C 80.4 42.6 80.4 42.7 80.5 42.8 C 80.6 43.2 80.7 43.6 80.8 44.1 C 80.8 44.1 80.8 44.2 80.8 44.2 C 81.0 44.6 81.1 45.0 81.1 45.4 C 81.2 45.5 81.2 45.6 81.2 45.6 C 81.3 46.1 81.4 46.5 81.5 46.9 C 81.5 47.0 81.5 47.1 81.5 47.2 C 81.6 47.6 81.7 48.1 81.8 48.5 C 81.8 48.5 81.8 48.6 81.8 48.6 C 81.8 49.0 81.9 49.5 82.0 49.9 L 82.0 50.1 C 82.1 50.5 82.1 50.9 82.2 51.4 C 82.2 51.5 82.2 51.6 82.2 51.6 C 82.2 52.1 82.3 52.5 82.3 53.0 C 82.3 53.0 82.3 53.0 82.3 53.1 C 82.4 53.5 82.4 53.9 82.4 54.3 C 82.4 54.4 82.4 54.5 82.4 54.5 C 82.4 55.0 82.5 55.4 82.5 55.8 C 82.5 55.9 82.5 56.0 82.5 56.1 C 82.5 56.5 82.5 57.0 82.5 57.4 C 82.5 57.4 82.5 57.5 82.5 57.5 C 82.5 57.9 82.5 58.3 82.4 58.7 C 82.4 58.8 82.4 58.9 82.4 59.0 C 82.4 59.4 82.4 59.8 82.4 60.2 C 82.4 60.3 82.4 60.4 82.3 60.5 C 82.3 60.9 82.3 61.4 82.2 61.8 C 82.2 61.8 82.2 61.8 82.2 61.9 C 82.2 62.3 82.1 62.7 82.1 63.1 C 82.1 63.2 82.0 63.3 82.0 63.3 C 82.0 63.7 81.9 64.2 81.8 64.6 C 81.8 64.6 81.8 64.7 81.8 64.8 C 81.7 65.2 81.6 65.7 81.6 66.1 C 81.6 66.1 81.5 66.1 81.5 66.1 C 81.5 66.5 81.4 66.9 81.3 67.3 C 81.2 67.4 81.2 67.4 81.2 67.5 C 81.2 67.5 81.2 67.5 81.2 67.6 C 81.1 68.0 81.0 68.3 80.9 68.7 C 80.9 68.8 80.8 68.9 80.8 69.0 C 80.7 69.4 80.6 69.8 80.4 70.2 C 80.3 70.5 80.2 70.9 80.1 71.2 C 77.2 73.6 74.1 75.9 71.0 78.1 C 70.5 78.5 69.9 78.9 69.4 79.2 " fill="#DC7601"></path><path d="M 45.7 38.8 C 45.7 38.8 45.6 38.7 45.6 38.7 C 45.5 38.6 45.4 38.5 45.3 38.4 C 45.3 38.4 45.3 38.4 45.2 38.3 C 45.1 38.2 44.9 38.1 44.8 38.0 C 44.6 37.8 44.5 37.7 44.3 37.6 C 44.2 37.7 44.2 37.8 44.1 37.9 C 44.1 38.0 44.1 38.0 44.0 38.0 C 43.9 38.3 43.8 38.6 43.6 38.9 C 43.6 39.0 43.6 39.0 43.6 39.0 C 43.4 39.3 43.3 39.7 43.2 40.0 L 39.7 41.0 L 42.3 42.9 C 42.3 43.1 42.3 43.2 42.3 43.3 L 47.7 41.8 C 47.8 41.7 47.8 41.7 47.8 41.7 C 47.9 41.7 47.9 41.7 48.0 41.7 C 48.0 41.7 48.0 41.7 48.0 41.7 C 47.9 41.6 47.9 41.5 47.8 41.4 C 47.8 41.4 47.8 41.4 47.8 41.4 C 47.7 41.2 47.5 41.0 47.4 40.8 C 47.4 40.8 47.4 40.8 47.4 40.7 C 47.2 40.5 47.1 40.3 46.9 40.2 C 46.9 40.1 46.9 40.1 46.9 40.1 C 46.7 39.9 46.6 39.7 46.4 39.5 C 46.4 39.5 46.3 39.4 46.3 39.4 C 46.2 39.3 46.2 39.2 46.1 39.2 C 46.1 39.1 46.0 39.1 46.0 39.0 C 45.9 39.0 45.8 38.9 45.7 38.8 M 54.3 61.6 C 54.3 61.7 54.3 61.7 54.3 61.7 C 54.5 61.9 54.6 62.1 54.7 62.3 C 54.7 62.3 54.7 62.3 54.8 62.4 C 54.9 62.6 55.0 62.7 55.2 62.9 C 55.2 62.9 55.2 63.0 55.2 63.0 C 55.4 63.2 55.5 63.3 55.7 63.5 C 55.7 63.6 55.7 63.6 55.8 63.6 C 55.8 63.7 55.9 63.8 55.9 63.8 C 56.0 63.9 56.0 63.9 56.1 64.0 C 56.1 64.0 56.2 64.1 56.3 64.2 C 56.3 64.2 56.4 64.3 56.4 64.3 C 56.5 64.4 56.6 64.5 56.7 64.5 C 56.7 64.6 56.7 64.6 56.8 64.6 C 56.9 64.7 57.0 64.9 57.2 65.0 C 57.5 65.2 57.8 65.4 58.1 65.6 C 58.2 65.7 58.3 65.7 58.3 65.7 C 58.8 65.1 59.2 64.4 59.5 63.5 L 63.0 62.5 L 60.4 60.6 C 60.5 60.4 60.6 60.1 60.6 59.9 L 54.8 61.6 C 54.6 61.6 54.5 61.6 54.3 61.6 M 37.0 78.5 C 37.0 78.5 36.9 78.4 36.8 78.3 C 36.5 78.1 36.2 77.8 35.9 77.5 C 35.9 77.5 35.8 77.4 35.8 77.4 C 35.5 77.1 35.3 76.9 35.0 76.6 C 34.9 76.5 34.9 76.5 34.8 76.4 C 34.5 76.1 34.2 75.8 34.0 75.5 C 33.9 75.5 33.9 75.5 33.9 75.5 C 33.9 75.4 33.8 75.4 33.8 75.3 C 33.6 75.1 33.4 74.9 33.2 74.7 C 33.1 74.6 33.1 74.5 33.0 74.4 C 32.8 74.1 32.6 73.9 32.3 73.6 C 32.3 73.6 32.3 73.5 32.3 73.5 C 32.1 73.2 31.8 72.9 31.6 72.6 C 31.5 72.5 31.5 72.4 31.4 72.4 C 31.2 72.1 31.1 71.9 30.9 71.6 C 30.9 71.6 30.8 71.5 30.7 71.4 C 30.5 71.1 30.3 70.7 30.1 70.4 C 30.1 70.4 30.1 70.3 30.0 70.3 C 29.8 70.0 29.7 69.7 29.5 69.4 C 29.4 69.3 29.4 69.2 29.3 69.1 C 29.2 68.9 29.0 68.6 28.9 68.3 C 28.8 68.3 28.8 68.2 28.7 68.1 C 28.6 67.8 28.4 67.4 28.2 67.1 C 28.2 67.0 28.1 66.9 28.1 66.9 C 27.9 66.6 27.8 66.3 27.7 66.0 C 27.6 65.9 27.6 65.8 27.5 65.7 C 27.4 65.4 27.2 65.1 27.1 64.8 C 27.1 64.7 27.0 64.7 27.0 64.7 C 26.9 64.3 26.7 63.9 26.6 63.6 C 26.5 63.5 26.5 63.4 26.4 63.3 C 26.3 63.0 26.2 62.7 26.1 62.5 C 26.1 62.3 26.0 62.2 26.0 62.1 C 25.9 61.8 25.7 61.4 25.6 61.0 C 25.6 61.0 25.6 61.0 25.6 60.9 C 25.4 60.6 25.3 60.3 25.2 59.9 C 25.2 59.8 25.2 59.7 25.1 59.6 C 25.0 59.3 24.9 59.0 24.8 58.7 C 24.8 58.6 24.8 58.5 24.8 58.4 C 24.7 58.1 24.6 57.7 24.5 57.3 C 24.4 57.2 24.4 57.1 24.4 57.1 C 24.3 56.8 24.3 56.4 24.2 56.1 C 24.2 56.0 24.1 55.9 24.1 55.8 C 24.0 55.5 24.0 55.1 23.9 54.8 C 23.9 54.8 23.9 54.7 23.9 54.6 C 23.8 54.3 23.7 54.0 23.7 53.7 C 23.7 53.6 23.7 53.6 23.7 53.5 C 23.6 53.3 23.6 53.1 23.6 53.0 C 23.5 52.7 23.5 52.5 23.5 52.3 C 23.4 52.1 23.4 51.9 23.4 51.7 C 23.3 51.5 23.3 51.2 23.3 51.0 C 23.3 50.8 23.3 50.6 23.2 50.4 C 23.2 50.2 23.2 49.9 23.2 49.7 C 23.1 49.5 23.1 49.3 23.1 49.1 C 23.1 48.9 23.1 48.7 23.1 48.5 C 23.1 48.3 23.1 48.1 23.0 47.9 C 23.0 47.6 23.0 47.4 23.0 47.2 C 23.0 47.0 23.0 46.8 23.0 46.6 C 23.0 46.4 23.0 46.2 23.0 45.9 C 23.0 45.7 23.0 45.5 23.0 45.3 C 23.0 45.1 23.0 44.9 23.0 44.7 C 23.0 44.5 23.0 44.4 23.0 44.3 C 25.7 43.3 28.3 42.4 30.9 41.5 C 30.9 41.6 30.9 41.7 30.9 41.8 C 30.9 42.0 30.9 42.2 30.9 42.4 C 30.9 42.6 30.9 42.9 30.9 43.1 C 30.9 43.3 30.9 43.5 30.9 43.7 C 30.9 43.9 30.9 44.1 30.9 44.3 C 30.9 44.5 30.9 44.7 30.9 44.9 C 30.9 45.2 30.9 45.4 30.9 45.6 C 30.9 45.8 30.9 46.0 30.9 46.2 C 30.9 46.4 31.0 46.6 31.0 46.9 C 31.0 47.1 31.0 47.3 31.0 47.5 C 31.0 47.7 31.1 47.9 31.1 48.1 C 31.1 48.3 31.1 48.5 31.2 48.7 C 31.2 49.0 31.2 49.2 31.2 49.4 C 31.3 49.6 31.3 49.8 31.3 50.0 C 31.3 50.2 31.4 50.5 31.4 50.7 C 31.5 50.9 31.5 51.1 31.5 51.3 C 31.6 51.6 31.6 52.0 31.7 52.4 C 31.7 52.4 31.7 52.5 31.8 52.6 C 31.8 52.9 31.9 53.2 32.0 53.5 C 32.0 53.7 32.0 53.8 32.0 53.9 C 32.1 54.2 32.2 54.5 32.3 54.8 C 32.3 54.9 32.3 55.0 32.3 55.0 C 32.4 55.4 32.5 55.8 32.6 56.2 C 32.7 56.3 32.7 56.4 32.7 56.4 C 32.8 56.7 32.9 57.0 33.0 57.3 C 33.0 57.4 33.0 57.6 33.1 57.7 C 33.2 58.0 33.3 58.3 33.4 58.7 C 33.4 58.7 33.4 58.7 33.5 58.8 C 33.6 59.2 33.7 59.5 33.9 59.9 C 33.9 60.0 33.9 60.1 34.0 60.2 C 34.1 60.5 34.2 60.8 34.3 61.0 C 34.3 61.1 34.4 61.2 34.4 61.3 C 34.6 61.7 34.7 62.0 34.9 62.4 C 34.9 62.4 34.9 62.5 34.9 62.5 C 35.1 62.8 35.2 63.2 35.4 63.5 C 35.4 63.6 35.5 63.7 35.5 63.8 C 35.7 64.1 35.8 64.3 35.9 64.6 C 36.0 64.7 36.0 64.8 36.1 64.8 C 36.2 65.2 36.4 65.5 36.6 65.9 C 36.6 65.9 36.7 66.0 36.7 66.1 C 36.9 66.4 37.0 66.6 37.2 66.9 C 37.2 67.0 37.3 67.1 37.4 67.2 C 37.5 67.5 37.7 67.7 37.9 68.0 C 37.9 68.1 37.9 68.1 38.0 68.2 C 38.2 68.5 38.4 68.8 38.6 69.1 C 38.7 69.2 38.7 69.3 38.8 69.4 C 38.9 69.6 39.1 69.9 39.3 70.1 C 39.3 70.2 39.4 70.3 39.5 70.4 C 39.7 70.7 39.9 71.0 40.1 71.3 C 40.2 71.3 40.2 71.3 40.2 71.3 C 40.4 71.6 40.6 71.9 40.9 72.1 C 40.9 72.2 41.0 72.3 41.1 72.4 C 41.3 72.6 41.4 72.8 41.6 73.1 C 41.7 73.1 41.8 73.2 41.8 73.3 C 42.1 73.6 42.4 73.9 42.7 74.2 C 42.7 74.2 42.8 74.3 42.9 74.4 C 43.1 74.6 43.4 74.9 43.7 75.1 C 43.7 75.2 43.7 75.2 43.8 75.3 C 44.1 75.5 44.4 75.8 44.7 76.1 C 44.7 76.1 44.8 76.2 44.9 76.3 C 45.2 76.5 45.5 76.8 45.8 77.1 C 48.5 79.1 51.2 80.6 53.9 81.4 C 53.9 81.4 53.9 81.5 54.0 81.5 C 54.6 81.7 55.2 81.8 55.8 81.9 C 55.9 82.0 56.1 82.0 56.3 82.0 C 56.4 82.0 56.5 82.1 56.6 82.1 C 56.9 82.1 57.1 82.2 57.4 82.2 C 57.6 82.2 57.8 82.2 58.0 82.2 C 58.2 82.3 58.4 82.3 58.6 82.3 C 58.8 82.3 59.0 82.3 59.3 82.3 C 59.4 82.3 59.5 82.3 59.7 82.3 C 59.8 82.3 59.9 82.3 60.0 82.3 C 64.0 79.9 67.4 75.7 69.3 69.9 C 69.5 69.4 69.6 69.0 69.7 68.6 C 69.8 68.4 69.8 68.3 69.9 68.1 C 69.9 67.8 70.0 67.5 70.1 67.2 C 70.1 67.0 70.2 66.9 70.2 66.7 C 70.3 66.4 70.3 66.1 70.4 65.8 C 70.4 65.7 70.5 65.5 70.5 65.3 C 70.6 65.0 70.6 64.7 70.7 64.4 C 70.7 64.2 70.7 64.1 70.7 63.9 C 70.8 63.5 70.9 63.0 70.9 62.5 C 70.9 62.5 70.9 62.5 70.9 62.4 C 71.0 62.0 71.0 61.6 71.0 61.1 C 71.0 61.0 71.0 60.8 71.0 60.7 C 71.1 60.6 71.1 60.6 71.1 60.6 L 70.2 63.4 L 65.0 64.9 C 64.3 65.6 63.5 66.2 62.6 66.4 L 54.7 68.7 L 54.7 68.7 L 54.7 68.7 L 54.7 68.7 C 54.6 68.7 54.6 68.7 54.5 68.7 C 54.5 68.7 54.4 68.8 54.4 68.8 C 54.4 68.8 54.3 68.8 54.3 68.8 C 54.2 68.8 54.1 68.8 54.0 68.8 C 53.6 68.9 53.3 68.9 53.0 68.8 C 52.7 68.8 52.4 68.8 52.1 68.7 C 52.1 68.7 52.0 68.7 51.9 68.6 C 51.9 68.6 51.8 68.6 51.8 68.6 C 51.8 68.6 51.8 68.6 51.7 68.6 C 51.4 68.5 51.1 68.3 50.7 68.2 C 50.6 68.1 50.4 68.0 50.2 67.9 C 49.9 67.7 49.6 67.5 49.3 67.2 C 49.2 67.1 49.1 67.0 48.9 66.9 C 48.9 66.9 48.8 66.8 48.8 66.8 C 48.7 66.7 48.6 66.6 48.6 66.6 C 48.5 66.5 48.5 66.5 48.4 66.4 C 48.4 66.4 48.3 66.3 48.2 66.2 C 48.2 66.2 48.1 66.1 48.1 66.1 C 48.0 66.0 48.0 66.0 47.9 65.9 C 47.9 65.9 47.9 65.9 47.9 65.8 C 47.8 65.8 47.8 65.8 47.8 65.8 C 47.6 65.6 47.5 65.4 47.3 65.2 C 47.3 65.2 47.3 65.2 47.3 65.2 C 47.2 65.0 47.0 64.8 46.9 64.6 C 46.9 64.6 46.9 64.6 46.9 64.6 C 46.7 64.4 46.6 64.2 46.5 64.0 C 46.5 63.9 46.4 63.9 46.4 63.9 C 46.3 63.7 46.2 63.5 46.1 63.3 L 46.1 63.2 C 46.0 63.0 45.9 62.8 45.8 62.6 C 45.8 62.5 45.7 62.5 45.7 62.5 C 45.6 62.3 45.5 62.0 45.5 61.8 C 45.5 61.8 45.5 61.8 45.5 61.8 C 45.4 61.7 45.4 61.6 45.3 61.4 C 45.3 61.4 45.3 61.4 45.3 61.4 C 45.3 61.4 45.3 61.4 45.3 61.4 C 45.3 61.4 45.3 61.3 45.3 61.2 C 45.2 61.2 45.2 61.1 45.2 61.0 C 45.1 60.8 45.1 60.7 45.0 60.5 C 45.0 60.4 45.0 60.4 45.0 60.3 C 44.9 60.1 44.9 59.9 44.8 59.7 C 44.8 59.7 44.8 59.6 44.8 59.6 C 44.7 59.4 44.7 59.1 44.6 58.9 C 44.6 58.8 44.6 58.8 44.6 58.7 C 44.6 58.5 44.5 58.4 44.5 58.2 C 44.5 58.1 44.5 58.0 44.5 57.9 C 44.4 57.8 44.4 57.6 44.4 57.5 C 44.4 57.4 44.4 57.3 44.4 57.2 C 44.3 57.1 44.3 56.9 44.3 56.8 C 44.3 56.7 44.3 56.6 44.3 56.5 C 44.3 56.3 44.2 56.2 44.2 56.0 C 44.2 55.9 44.2 55.9 44.2 55.8 C 44.2 55.6 44.2 55.3 44.1 55.1 C 44.1 55.1 44.1 55.1 44.1 55.0 L 39.0 56.5 L 33.3 52.7 C 33.5 50.3 33.9 47.6 34.5 45.2 L 31.1 42.7 L 31.5 41.3 C 38.2 39.0 44.9 36.9 51.7 35.0 C 52.0 35.2 52.3 35.5 52.7 35.7 C 52.8 35.8 52.9 35.9 53.1 36.1 C 53.1 36.1 53.2 36.1 53.2 36.2 C 53.3 36.3 53.4 36.3 53.5 36.4 C 53.5 36.5 53.6 36.5 53.6 36.5 C 53.7 36.6 53.8 36.7 53.8 36.8 C 53.9 36.8 53.9 36.9 54.0 36.9 C 54.0 37.0 54.1 37.1 54.2 37.1 C 54.2 37.2 54.2 37.2 54.2 37.2 C 54.3 37.2 54.3 37.2 54.3 37.3 C 54.4 37.4 54.6 37.6 54.7 37.8 C 54.8 37.8 54.8 37.9 54.8 37.9 C 55.0 38.1 55.1 38.3 55.2 38.5 C 55.2 38.5 55.2 38.5 55.2 38.5 C 55.4 38.7 55.5 38.9 55.6 39.1 C 55.7 39.1 55.7 39.2 55.7 39.2 C 55.8 39.4 55.9 39.6 56.0 39.8 C 56.0 39.8 56.1 39.9 56.1 39.9 C 56.2 40.1 56.3 40.3 56.4 40.5 C 56.4 40.5 56.4 40.6 56.4 40.6 C 56.5 40.8 56.6 41.0 56.7 41.3 C 56.7 41.3 56.7 41.3 56.7 41.3 C 56.8 41.5 56.9 41.7 56.9 42.0 L 57.0 42.0 C 57.0 42.2 57.1 42.5 57.2 42.7 C 57.2 42.7 57.2 42.7 57.2 42.8 C 57.2 43.0 57.3 43.2 57.4 43.4 L 57.4 43.5 C 57.4 43.8 57.5 44.0 57.5 44.2 C 57.5 44.2 57.5 44.3 57.5 44.3 C 57.6 44.5 57.6 44.7 57.7 45.0 C 57.7 45.0 57.7 45.0 57.7 45.0 C 57.7 45.2 57.8 45.4 57.8 45.7 L 57.8 45.8 C 57.8 46.0 57.9 46.2 57.9 46.4 L 57.9 46.5 C 57.9 46.5 57.9 46.6 57.9 46.6 L 63.3 45.0 L 69.3 48.9 C 69.3 48.9 69.3 48.9 69.3 49.0 C 69.3 49.0 69.3 49.0 69.3 49.0 C 69.3 49.0 69.3 49.1 69.3 49.1 C 69.3 49.2 69.3 49.2 69.3 49.2 C 69.3 49.3 69.3 49.3 69.3 49.4 C 69.3 49.4 69.3 49.5 69.3 49.5 C 69.3 49.6 69.3 49.6 69.4 49.7 C 69.4 49.8 69.4 49.8 69.4 49.9 C 69.4 49.9 69.4 50.0 69.4 50.1 C 69.4 50.2 69.4 50.2 69.4 50.3 C 69.4 50.4 69.4 50.5 69.4 50.6 C 69.4 50.6 69.4 50.7 69.4 50.8 C 69.4 50.9 69.4 51.0 69.4 51.1 C 69.4 51.2 69.4 51.3 69.3 51.3 C 69.3 51.5 69.3 51.6 69.3 51.7 C 69.3 51.8 69.3 51.9 69.3 52.0 C 69.3 52.1 69.3 52.2 69.3 52.3 C 69.3 52.4 69.3 52.5 69.3 52.6 C 69.3 52.8 69.3 52.9 69.2 53.0 C 69.2 53.1 69.2 53.2 69.2 53.4 C 69.2 53.5 69.2 53.6 69.2 53.8 C 69.2 53.9 69.1 54.0 69.1 54.1 C 69.1 54.3 69.1 54.4 69.1 54.6 C 69.1 54.7 69.0 54.8 69.0 54.9 C 69.0 55.1 69.0 55.2 68.9 55.4 C 68.9 55.5 68.9 55.7 68.9 55.8 C 68.8 55.9 68.8 56.1 68.8 56.3 C 68.8 56.4 68.7 56.5 68.7 56.7 C 68.7 56.8 68.6 57.0 68.6 57.2 C 68.6 57.3 68.5 57.5 68.5 57.6 C 68.5 57.7 68.5 57.7 68.4 57.8 C 68.4 58.0 68.3 58.2 68.3 58.4 C 68.3 58.4 68.3 58.4 68.3 58.4 L 71.1 60.4 C 71.1 60.2 71.1 59.9 71.1 59.7 C 71.1 59.5 71.1 59.3 71.1 59.2 C 71.1 58.9 71.1 58.5 71.1 58.2 C 71.1 58.1 71.1 57.9 71.1 57.7 C 71.1 57.4 71.1 57.0 71.1 56.7 C 71.1 56.5 71.1 56.4 71.1 56.3 C 71.0 55.8 71.0 55.3 71.0 54.8 C 71.0 54.7 71.0 54.7 71.0 54.6 C 70.9 54.2 70.9 53.8 70.8 53.4 C 70.8 53.2 70.8 53.0 70.8 52.9 C 70.7 52.6 70.7 52.2 70.6 51.9 C 70.6 51.7 70.6 51.6 70.6 51.4 C 70.5 51.1 70.5 50.8 70.4 50.4 C 70.4 50.3 70.3 50.1 70.3 49.9 C 70.2 49.6 70.2 49.2 70.1 48.9 C 70.1 48.7 70.0 48.6 70.0 48.5 C 69.9 48.0 69.8 47.5 69.7 47.1 C 69.6 47.0 69.6 46.9 69.6 46.8 C 69.5 46.4 69.4 46.0 69.3 45.6 C 69.2 45.5 69.2 45.3 69.1 45.2 C 69.0 44.9 68.9 44.5 68.8 44.2 C 68.8 44.1 68.7 43.9 68.7 43.7 C 68.6 43.4 68.5 43.1 68.3 42.8 C 68.3 42.6 68.2 42.5 68.2 42.3 C 68.0 42.0 67.9 41.6 67.8 41.3 C 67.7 41.2 67.7 41.1 67.6 41.0 C 67.5 40.5 67.3 40.1 67.1 39.6 C 67.0 39.5 67.0 39.4 66.9 39.3 C 66.8 39.0 66.6 38.6 66.4 38.3 C 66.4 38.1 66.3 38.0 66.2 37.8 C 66.1 37.6 65.9 37.3 65.8 37.0 C 65.7 36.8 65.6 36.7 65.5 36.5 C 65.4 36.2 65.2 36.0 65.1 35.7 C 65.0 35.5 64.9 35.4 64.8 35.2 C 64.6 34.9 64.4 34.6 64.2 34.3 C 64.2 34.2 64.1 34.1 64.1 34.0 C 63.8 33.6 63.6 33.2 63.3 32.8 C 63.2 32.7 63.1 32.6 63.1 32.5 C 63.0 32.4 62.9 32.3 62.8 32.1 C 66.7 31.2 70.6 30.3 74.6 29.4 C 74.8 29.7 74.9 29.9 75.1 30.2 C 75.1 30.3 75.2 30.3 75.2 30.4 C 75.4 30.8 75.6 31.2 75.8 31.5 C 75.9 31.6 75.9 31.6 75.9 31.7 C 76.1 32.1 76.3 32.4 76.5 32.8 C 76.5 32.8 76.6 32.9 76.6 32.9 C 76.8 33.3 77.0 33.7 77.2 34.1 C 77.2 34.2 77.3 34.3 77.3 34.4 C 77.5 34.7 77.7 35.1 77.8 35.5 C 77.9 35.6 77.9 35.6 77.9 35.7 C 78.1 36.1 78.2 36.5 78.4 36.8 C 78.4 36.9 78.5 37.0 78.5 37.0 C 78.6 37.4 78.8 37.8 79.0 38.2 C 79.0 38.3 79.0 38.4 79.1 38.5 C 79.2 38.9 79.4 39.3 79.5 39.7 C 79.5 39.8 79.5 39.8 79.6 39.9 C 79.7 40.3 79.8 40.7 80.0 41.1 C 80.0 41.1 80.0 41.2 80.0 41.3 C 80.1 41.7 80.3 42.1 80.4 42.5 C 80.4 42.6 80.4 42.7 80.5 42.8 C 80.6 43.2 80.7 43.6 80.8 44.1 C 80.8 44.1 80.8 44.2 80.8 44.2 C 81.0 44.6 81.1 45.0 81.1 45.4 C 81.2 45.5 81.2 45.6 81.2 45.6 C 81.3 46.1 81.4 46.5 81.5 46.9 C 81.5 47.0 81.5 47.1 81.5 47.2 C 81.6 47.6 81.7 48.1 81.8 48.5 C 81.8 48.5 81.8 48.6 81.8 48.6 C 81.8 49.0 81.9 49.5 82.0 49.9 L 82.0 50.1 C 82.1 50.5 82.1 50.9 82.2 51.4 C 82.2 51.5 82.2 51.6 82.2 51.6 C 82.2 52.1 82.3 52.5 82.3 53.0 C 82.3 53.0 82.3 53.0 82.3 53.1 C 82.4 53.5 82.4 53.9 82.4 54.3 C 82.4 54.4 82.4 54.5 82.4 54.5 C 82.4 55.0 82.5 55.4 82.5 55.8 C 82.5 55.9 82.5 56.0 82.5 56.1 C 82.5 56.5 82.5 57.0 82.5 57.4 C 82.5 57.4 82.5 57.5 82.5 57.5 C 82.5 57.9 82.5 58.3 82.4 58.7 C 82.4 58.8 82.4 58.9 82.4 59.0 C 82.4 59.4 82.4 59.8 82.4 60.2 C 82.4 60.3 82.4 60.4 82.3 60.5 C 82.3 60.9 82.3 61.4 82.2 61.8 C 82.2 61.8 82.2 61.8 82.2 61.9 C 82.2 62.3 82.1 62.7 82.1 63.1 C 82.1 63.2 82.0 63.3 82.0 63.3 C 82.0 63.7 81.9 64.2 81.8 64.6 C 81.8 64.6 81.8 64.7 81.8 64.8 C 81.7 65.2 81.6 65.7 81.6 66.1 C 81.6 66.1 81.5 66.1 81.5 66.1 C 81.5 66.5 81.4 66.9 81.3 67.3 C 81.2 67.4 81.2 67.4 81.2 67.5 C 81.2 67.5 81.2 67.5 81.2 67.6 C 81.1 68.0 81.0 68.3 80.9 68.7 C 80.9 68.8 80.8 68.9 80.8 69.0 C 80.7 69.4 80.6 69.8 80.4 70.2 C 79.8 72.1 79.0 73.8 78.2 75.4 C 77.9 75.9 77.7 76.3 77.4 76.7 C 76.3 78.5 75.1 80.0 73.8 81.3 C 73.1 81.9 72.5 82.5 71.7 83.1 C 71.4 83.3 71.0 83.6 70.7 83.8 C 69.9 84.3 69.2 84.8 68.4 85.1 C 68.2 85.2 68.0 85.3 67.8 85.4 C 67.0 85.8 66.2 86.1 65.4 86.3 L 57.5 88.6 C 62.3 87.2 66.6 83.9 69.6 78.8 C 69.6 78.8 69.6 78.9 69.6 78.9 C 69.1 79.2 68.7 79.5 68.2 79.8 C 67.9 80.0 67.5 80.2 67.2 80.4 C 66.8 80.6 66.5 80.8 66.2 80.9 C 66.0 81.0 65.8 81.1 65.6 81.1 C 65.1 81.3 64.6 81.5 64.0 81.7 L 60.5 82.7 L 56.2 83.9 C 56.0 84.0 55.7 84.0 55.5 84.1 C 55.4 84.1 55.3 84.2 55.1 84.2 C 54.8 84.3 54.5 84.3 54.2 84.4 C 54.1 84.4 54.1 84.4 54.0 84.4 C 53.8 84.4 53.6 84.4 53.4 84.5 C 53.3 84.5 53.1 84.5 52.9 84.5 C 52.8 84.5 52.7 84.5 52.6 84.5 C 52.3 84.6 52.1 84.6 51.8 84.6 C 51.7 84.6 51.6 84.6 51.5 84.6 C 51.3 84.6 51.0 84.6 50.7 84.6 C 50.7 84.6 50.6 84.5 50.6 84.5 C 50.3 84.5 49.9 84.5 49.6 84.5 C 49.4 84.4 49.2 84.4 49.0 84.4 C 48.8 84.4 48.6 84.3 48.4 84.3 C 48.3 84.3 48.2 84.2 48.1 84.2 C 44.7 83.6 41.3 82.0 38.0 79.3 C 37.7 79.1 37.3 78.8 37.0 78.5 " fill="#D66800"></path><path d="M 59.5 63.5 C 57.4 68.5 53.6 70.6 49.3 67.2 C 41.2 60.8 46.1 47.9 41.7 44.5 C 40.2 43.3 38.7 44.2 37.9 46.4 C 37.3 48.4 37.2 49.8 37.6 51.2 C 37.7 51.4 37.9 51.6 37.9 51.6 L 39.9 53.2 L 39.0 56.5 L 33.3 52.7 C 33.5 50.3 33.9 47.6 34.5 45.2 L 31.1 42.7 L 31.9 39.8 L 35.3 42.3 C 37.2 37.0 40.7 34.8 44.8 38.0 C 53.3 44.7 48.1 57.2 52.9 61.0 C 54.7 62.5 56.1 61.2 56.8 59.1 C 57.9 55.8 57.6 53.6 57.5 53.2 C 57.0 52.6 56.4 51.9 56.2 51.9 C 55.8 51.5 54.7 50.6 54.6 50.5 L 55.5 47.3 L 61.4 51.1 C 61.5 51.4 61.8 55.4 60.4 60.6 L 63.2 62.7 L 62.4 65.7 L 59.5 63.5 M 24.8 34.5 C 19.8 49.5 25.7 69.5 38.0 79.3 C 50.3 89.1 64.3 84.9 69.3 69.9 C 74.3 54.9 68.4 34.8 56.1 25.0 C 43.8 15.3 29.8 19.5 24.8 34.5 " fill="#FFE679"></path><path d="M 41.4 81.6 C 42.0 75.0 43.7 68.4 45.5 62.0 C 46.3 63.9 47.5 65.7 49.3 67.2 C 53.6 70.6 57.4 68.5 59.5 63.5 L 62.4 65.7 L 63.2 62.7 L 60.4 60.6 C 61.8 55.4 61.5 51.4 61.4 51.1 L 55.5 47.3 L 54.6 50.5 C 54.7 50.6 55.8 51.5 56.2 51.9 C 56.4 51.9 57.0 52.6 57.5 53.2 C 57.6 53.6 57.9 55.8 56.8 59.1 C 56.1 61.2 54.7 62.5 52.9 61.0 C 49.7 58.5 50.9 52.1 49.6 46.2 C 50.6 41.3 51.2 36.4 51.0 31.5 C 50.8 28.0 50.2 24.4 49.0 21.0 C 51.4 21.8 53.8 23.2 56.1 25.0 C 68.4 34.8 74.3 54.9 69.3 69.9 C 64.8 83.5 52.8 88.2 41.4 81.6 " fill="#FFD93A"></path><path d="M 41.3 44.2 C 40.4 44.3 39.6 45.2 39.1 46.7 C 38.5 48.6 38.4 50.1 38.8 51.5 C 38.9 51.6 39.1 51.8 39.1 51.9 L 41.1 53.4 L 40.2 56.8 L 39.0 56.5 L 39.9 53.2 L 37.9 51.6 C 37.9 51.6 37.7 51.4 37.6 51.2 C 37.2 49.8 37.3 48.4 37.9 46.4 C 38.6 44.4 39.9 43.5 41.3 44.2 " fill="#C76C10"></path><path d="M 35.5 41.8 C 35.4 41.9 35.4 42.1 35.3 42.3 L 31.9 39.8 L 33.1 40.0 Z M 35.5 41.8 " fill="#C76C10"></path><path d="M 60.5 64.3 C 58.8 67.9 56.1 69.8 53.0 68.9 C 55.7 69.1 58.0 67.0 59.5 63.5 Z M 60.5 64.3 " fill="#C76C10"></path><path d="M 24.8 34.5 C 28.5 23.3 37.3 18.1 46.7 20.3 C 37.8 18.8 29.6 24.0 26.0 34.7 C 21.0 49.7 26.9 69.8 39.2 79.6 C 42.3 82.0 45.5 83.6 48.6 84.3 C 45.1 83.7 41.5 82.1 38.0 79.3 C 25.7 69.5 19.8 49.5 24.8 34.5 " fill="#C76C10"></path><path d="M 56.7 47.5 L 62.6 51.4 C 62.7 51.6 63.0 55.7 61.6 60.9 L 64.4 62.9 L 63.6 65.9 L 62.5 65.1 L 63.2 62.7 L 60.4 60.6 C 61.8 55.4 61.5 51.4 61.4 51.1 L 56.6 48.0 Z M 56.7 47.5 " fill="#C76C10"></path><path d="M 42.6 36.7 C 43.7 36.8 44.8 37.3 46.0 38.2 C 54.5 44.9 49.3 57.5 54.1 61.3 C 54.3 61.4 54.4 61.5 54.6 61.6 C 54.1 61.7 53.5 61.5 52.9 61.0 C 48.1 57.2 53.3 44.7 44.8 38.0 C 44.0 37.4 43.3 37.0 42.6 36.7 " fill="#C76C10"></path><path d="M 31.9 39.8 L 31.1 42.7 L 34.5 45.2 C 33.9 47.6 33.5 50.3 33.3 52.7 L 39.0 56.5 L 39.9 53.2 L 37.9 51.6 C 37.9 51.6 37.7 51.4 37.6 51.2 C 37.2 49.8 37.3 48.4 37.9 46.4 C 38.7 44.2 40.2 43.3 41.7 44.5 C 46.1 47.9 41.2 60.8 49.3 67.2 C 53.6 70.6 57.4 68.5 59.5 63.5 L 62.4 65.7 L 63.2 62.7 L 60.4 60.6 C 61.8 55.4 61.5 51.4 61.4 51.1 L 55.5 47.3 L 54.6 50.5 C 54.7 50.6 55.8 51.5 56.2 51.9 C 56.4 51.9 57.0 52.6 57.5 53.2 C 57.6 53.6 57.9 55.8 56.8 59.1 C 56.1 61.2 54.7 62.5 52.9 61.0 C 48.1 57.2 53.3 44.7 44.8 38.0 C 40.7 34.8 37.2 37.0 35.3 42.3 Z M 31.9 39.8 " fill="#FFF3A9"></path><path d="M 45.1 59.2 C 46.5 54.3 47.8 49.4 48.8 44.5 C 49.7 47.1 49.8 49.9 50.0 52.5 C 50.3 56.3 50.5 59.6 52.7 61.3 C 53.8 62.2 55.0 62.2 55.9 61.3 C 56.4 60.8 56.8 60.1 57.1 59.2 C 58.1 56.1 58.0 53.8 57.9 53.2 L 57.8 53.1 L 57.8 53.0 C 57.5 52.7 56.8 51.8 56.4 51.6 C 56.1 51.3 55.4 50.7 55.0 50.4 L 55.7 47.8 L 61.1 51.3 C 61.2 52.2 61.4 55.9 60.1 60.6 L 60.0 60.8 L 62.8 62.8 L 62.2 65.1 L 59.4 63.0 L 59.2 63.4 C 58.6 64.9 57.8 66.0 56.9 66.9 C 54.8 69.1 52.2 69.1 49.5 67.0 C 46.9 64.9 45.7 62.2 45.1 59.3 C 45.1 59.3 45.1 59.2 45.1 59.2 " fill="#FFE061"></path><path d="M 69.3 69.9 C 64.3 84.9 50.3 89.1 38.0 79.3 C 25.7 69.5 19.8 49.5 24.8 34.5 C 29.8 19.5 43.8 15.3 56.1 25.0 C 68.4 34.8 74.3 54.9 69.3 69.9 M 21.6 31.9 C 15.8 49.1 22.6 72.1 36.7 83.3 C 50.8 94.5 66.8 89.6 72.6 72.4 C 78.3 55.3 71.6 32.3 57.5 21.1 C 43.4 9.9 27.3 14.7 21.6 31.9 " fill="#FFF1B4"></path><path d="M 30.3 24.6 C 37.2 17.7 47.5 17.7 56.4 24.8 C 68.7 34.6 74.7 54.9 69.7 70.0 C 68.3 73.9 66.4 77.2 63.9 79.7 C 56.9 86.7 46.7 86.6 37.8 79.6 C 25.4 69.7 19.4 49.5 24.5 34.4 C 25.8 30.4 27.7 27.2 30.3 24.6 M 65.8 83.2 C 68.6 80.4 70.8 76.7 72.3 72.3 C 77.9 55.3 71.2 32.4 57.3 21.4 C 47.4 13.5 36.0 13.4 28.3 21.1 C 25.5 24.0 23.3 27.6 21.9 32.0 C 16.2 49.0 22.9 71.9 36.9 83.0 C 46.7 90.8 58.1 90.9 65.8 83.2 " fill="#FFF1B4"></path><path d="M 38.1 83.9 C 38.1 82.6 38.2 81.3 38.3 80.0 C 47.1 86.6 57.0 86.5 63.9 79.7 C 66.4 77.2 68.3 73.9 69.7 70.0 C 74.7 54.9 68.7 34.6 56.4 24.8 C 53.0 22.1 49.4 20.4 45.9 19.8 C 45.4 18.3 44.8 16.9 44.2 15.6 C 48.5 16.1 53.0 18.0 57.3 21.4 C 71.2 32.4 77.9 55.3 72.3 72.3 C 70.8 76.7 68.6 80.4 65.8 83.2 C 58.4 90.6 47.7 90.8 38.1 83.9 " fill="#FCDE53"></path></g></g></g></g></g></svg>