<?xml version="1.0" encoding="UTF-8"?><svg xmlns="http://www.w3.org/2000/svg" xmlns:xlink="http://www.w3.org/1999/xlink" clip-rule="evenodd" stroke-miterlimit="4.00" viewBox="0 0 41 43"><desc>SVG generated by Keynote</desc><defs></defs><g transform="matrix(1.00, 0.00, -0.00, -1.00, 0.0, 43.0)"><g><clipPath id="clip-411"><path d="M 1.8 1.4 L 39.0 1.4 L 39.0 41.3 L 1.8 41.3 Z M 1.8 1.4 "></path></clipPath><g clip-path="url(#clip-411)"><path d="M 22.5 7.2 C 22.2 7.3 22.0 7.4 21.8 7.5 C 21.7 7.5 21.6 7.5 21.5 7.6 C 21.4 7.6 21.2 7.7 21.1 7.8 C 21.0 7.8 20.9 7.9 20.8 7.9 C 20.7 8.0 20.5 8.0 20.4 8.1 C 20.3 8.1 20.2 8.2 20.1 8.2 C 20.0 8.3 19.8 8.4 19.7 8.5 C 19.6 8.5 19.5 8.5 19.5 8.6 C 19.2 8.7 19.0 8.8 18.8 9.0 C 18.8 9.0 18.8 9.0 18.7 9.0 C 18.5 9.1 18.3 9.3 18.1 9.4 C 18.1 9.4 18.0 9.5 17.9 9.5 C 17.9 9.5 17.9 9.6 17.9 9.6 L 19.4 9.0 L 21.8 10.7 C 22.3 10.8 22.8 11.0 23.2 11.3 L 26.8 13.9 L 26.8 13.9 L 26.8 13.9 C 26.8 13.9 26.9 14.0 26.9 14.0 C 26.9 14.0 26.9 14.0 26.9 14.0 C 27.0 14.0 27.0 14.0 27.0 14.0 C 27.0 14.1 27.1 14.1 27.1 14.2 C 27.2 14.3 27.3 14.4 27.4 14.6 C 27.5 14.7 27.6 14.9 27.7 15.0 C 27.7 15.0 27.7 15.1 27.7 15.1 C 27.7 15.1 27.7 15.2 27.7 15.2 C 27.7 15.2 27.7 15.2 27.7 15.2 C 27.8 15.4 27.8 15.6 27.9 15.8 C 27.9 15.9 27.9 16.0 27.9 16.1 C 27.9 16.3 28.0 16.5 28.0 16.7 C 27.9 16.8 27.9 16.9 27.9 17.0 C 27.9 17.0 27.9 17.0 27.9 17.1 C 27.9 17.1 27.9 17.2 27.9 17.2 C 27.9 17.3 27.9 17.3 27.9 17.4 C 27.9 17.4 27.9 17.5 27.9 17.5 C 27.9 17.5 27.9 17.6 27.9 17.6 C 27.9 17.7 27.9 17.7 27.8 17.8 C 27.8 17.8 27.8 17.8 27.8 17.8 C 27.8 17.8 27.8 17.8 27.8 17.8 C 27.8 18.0 27.8 18.1 27.8 18.2 L 27.7 18.2 C 27.7 18.4 27.7 18.5 27.6 18.6 C 27.6 18.6 27.6 18.6 27.6 18.6 C 27.6 18.8 27.5 18.9 27.5 19.0 C 27.5 19.0 27.5 19.0 27.5 19.1 C 27.4 19.2 27.4 19.3 27.3 19.4 C 27.3 19.4 27.3 19.4 27.3 19.4 C 27.2 19.6 27.2 19.7 27.1 19.8 C 27.1 19.8 27.1 19.8 27.1 19.8 C 27.0 19.9 27.0 20.0 26.9 20.1 C 26.9 20.2 26.9 20.2 26.9 20.2 C 26.9 20.2 26.8 20.3 26.8 20.3 L 26.8 20.3 L 26.8 20.3 C 26.8 20.4 26.7 20.4 26.7 20.4 C 26.7 20.5 26.7 20.5 26.6 20.6 C 26.6 20.6 26.5 20.7 26.5 20.8 C 26.5 20.8 26.4 20.8 26.4 20.9 C 26.3 21.0 26.3 21.0 26.2 21.1 C 26.2 21.1 26.2 21.2 26.2 21.2 C 26.1 21.3 26.0 21.4 25.9 21.5 C 25.9 21.5 25.9 21.5 25.8 21.6 C 25.8 21.6 25.7 21.7 25.7 21.8 C 25.6 21.8 25.6 21.8 25.6 21.9 C 25.5 21.9 25.5 22.0 25.4 22.0 C 25.4 22.1 25.3 22.1 25.3 22.1 C 25.2 22.2 25.2 22.3 25.1 22.3 L 25.0 22.4 C 24.9 22.5 24.9 22.6 24.8 22.6 C 24.8 22.6 24.8 22.7 24.7 22.7 C 24.6 22.8 24.6 22.9 24.5 22.9 C 24.4 22.9 24.4 23.0 24.4 23.0 L 26.8 24.7 L 27.0 28.4 C 25.9 29.1 24.6 29.8 23.4 30.4 L 23.4 32.7 L 21.9 33.3 L 19.3 31.3 C 19.2 31.3 19.2 31.3 19.1 31.3 C 19.1 31.3 19.1 31.3 19.1 31.3 C 18.9 31.3 18.8 31.3 18.7 31.2 C 18.7 31.2 18.7 31.2 18.6 31.2 C 18.6 31.2 18.5 31.2 18.5 31.2 C 18.5 31.2 18.5 31.1 18.4 31.1 C 18.4 31.1 18.3 31.1 18.3 31.1 C 18.3 31.1 18.3 31.1 18.2 31.1 C 18.2 31.0 18.1 31.0 18.1 31.0 L 18.1 31.0 C 18.0 30.9 18.0 30.9 17.9 30.9 C 17.9 30.9 17.9 30.8 17.9 30.8 L 17.9 30.8 L 15.3 28.9 L 14.3 28.2 C 13.7 27.7 13.3 26.9 13.3 25.7 C 13.3 25.6 13.3 25.5 13.3 25.4 C 13.3 25.4 13.3 25.3 13.3 25.3 C 13.3 25.3 13.3 25.2 13.3 25.1 C 13.3 25.1 13.3 25.1 13.3 25.0 C 13.3 25.0 13.4 24.9 13.4 24.9 C 13.4 24.8 13.4 24.8 13.4 24.7 C 13.4 24.7 13.4 24.6 13.4 24.6 L 13.4 24.5 C 13.4 24.5 13.4 24.5 13.4 24.5 C 13.4 24.4 13.5 24.2 13.5 24.1 C 13.5 24.1 13.5 24.1 13.5 24.1 C 13.6 23.9 13.6 23.8 13.6 23.7 C 13.6 23.7 13.6 23.7 13.6 23.7 C 13.7 23.5 13.7 23.4 13.8 23.3 C 13.8 23.3 13.8 23.3 13.8 23.2 C 13.8 23.1 13.9 23.0 13.9 22.9 C 13.9 22.9 14.0 22.9 14.0 22.8 C 14.0 22.7 14.1 22.6 14.1 22.5 C 14.1 22.5 14.1 22.5 14.2 22.5 C 14.2 22.4 14.3 22.2 14.3 22.1 L 14.4 22.1 C 14.4 22.0 14.5 21.9 14.6 21.8 C 14.6 21.8 14.6 21.8 14.6 21.8 C 14.7 21.7 14.7 21.6 14.8 21.5 C 14.8 21.4 14.8 21.4 14.8 21.4 C 14.9 21.3 15.0 21.2 15.1 21.1 C 15.1 21.1 15.1 21.1 15.1 21.1 C 15.2 21.0 15.2 20.9 15.3 20.8 C 15.3 20.8 15.4 20.8 15.4 20.8 C 15.4 20.7 15.5 20.6 15.6 20.5 C 15.6 20.5 15.6 20.5 15.6 20.5 C 15.7 20.4 15.8 20.3 15.9 20.2 C 15.9 20.2 15.9 20.2 15.9 20.2 C 16.0 20.1 16.1 20.0 16.2 19.9 C 16.2 19.9 16.2 19.9 16.2 19.9 C 16.2 19.9 16.2 19.9 16.2 19.9 L 13.7 18.0 L 13.4 14.2 C 13.5 14.2 13.5 14.2 13.5 14.2 C 13.5 14.1 13.5 14.1 13.5 14.1 C 13.5 14.1 13.5 14.1 13.5 14.1 C 13.6 14.1 13.6 14.1 13.6 14.1 C 13.6 14.0 13.6 14.0 13.6 14.0 C 13.7 14.0 13.7 14.0 13.7 14.0 C 13.7 13.9 13.8 13.9 13.8 13.9 C 13.8 13.9 13.8 13.9 13.9 13.8 C 13.9 13.8 13.9 13.8 13.9 13.8 C 14.0 13.7 14.0 13.7 14.0 13.7 C 14.1 13.7 14.1 13.6 14.1 13.6 C 14.2 13.6 14.2 13.6 14.2 13.5 C 14.3 13.5 14.3 13.5 14.4 13.4 C 14.4 13.4 14.5 13.4 14.5 13.3 C 14.5 13.3 14.6 13.3 14.6 13.2 C 14.7 13.2 14.7 13.2 14.8 13.2 C 14.8 13.1 14.9 13.1 14.9 13.0 C 15.0 13.0 15.0 13.0 15.1 13.0 C 15.1 12.9 15.2 12.9 15.2 12.8 C 15.3 12.8 15.3 12.8 15.4 12.7 C 15.5 12.7 15.5 12.7 15.6 12.6 C 15.6 12.6 15.7 12.6 15.8 12.5 C 15.8 12.5 15.9 12.4 16.0 12.4 C 16.0 12.4 16.1 12.3 16.1 12.3 C 16.2 12.3 16.3 12.2 16.4 12.2 C 16.4 12.1 16.5 12.1 16.6 12.1 C 16.6 12.0 16.7 12.0 16.8 12.0 C 16.9 11.9 16.9 11.9 17.0 11.9 C 17.1 11.8 17.2 11.8 17.2 11.7 C 17.3 11.7 17.4 11.7 17.5 11.6 C 17.5 11.6 17.5 11.6 17.6 11.6 C 17.7 11.6 17.8 11.5 17.9 11.5 L 17.8 9.6 C 17.7 9.7 17.6 9.8 17.5 9.8 C 17.4 9.9 17.3 9.9 17.3 10.0 C 17.1 10.1 17.0 10.2 16.9 10.3 L 16.6 10.5 C 16.5 10.6 16.4 10.7 16.2 10.8 C 16.2 10.9 16.1 10.9 16.0 11.0 C 15.8 11.1 15.6 11.3 15.4 11.5 C 15.4 11.5 15.4 11.6 15.4 11.6 C 15.2 11.7 15.0 11.9 14.9 12.0 C 14.8 12.1 14.7 12.2 14.7 12.2 C 14.6 12.3 14.4 12.5 14.3 12.6 C 14.2 12.7 14.2 12.7 14.1 12.8 C 14.0 12.9 13.9 13.1 13.8 13.2 C 13.7 13.3 13.6 13.3 13.6 13.4 C 13.4 13.6 13.3 13.7 13.2 13.8 C 13.1 13.9 13.1 14.0 13.0 14.0 C 12.9 14.2 12.7 14.4 12.5 14.6 C 12.5 14.7 12.5 14.7 12.5 14.8 C 12.3 14.9 12.2 15.1 12.1 15.3 C 12.0 15.3 12.0 15.4 11.9 15.5 C 11.8 15.6 11.7 15.8 11.6 15.9 C 11.5 16.0 11.5 16.1 11.4 16.2 C 11.3 16.3 11.2 16.5 11.2 16.6 C 11.1 16.7 11.0 16.8 11.0 16.8 C 10.9 17.0 10.8 17.2 10.7 17.3 C 10.7 17.4 10.6 17.5 10.6 17.5 C 10.5 17.8 10.3 18.0 10.2 18.2 C 10.2 18.3 10.1 18.3 10.1 18.4 C 10.0 18.6 9.9 18.7 9.8 18.9 C 9.8 19.0 9.8 19.1 9.7 19.2 C 9.6 19.3 9.6 19.5 9.5 19.6 C 9.5 19.7 9.4 19.8 9.4 19.9 C 9.3 20.1 9.2 20.2 9.2 20.4 C 9.1 20.5 9.1 20.5 9.1 20.6 C 9.0 20.8 8.9 21.0 8.8 21.2 C 8.8 21.2 8.8 21.3 8.8 21.4 C 8.7 21.6 8.6 21.8 8.5 22.1 C 8.5 22.1 8.5 22.2 8.5 22.3 C 8.4 22.5 8.4 22.6 8.3 22.8 C 8.3 22.9 8.3 23.0 8.2 23.1 C 8.2 23.3 8.1 23.4 8.1 23.6 C 8.1 23.7 8.1 23.8 8.0 23.9 C 8.0 24.0 8.0 24.2 7.9 24.3 C 7.9 24.4 7.9 24.5 7.9 24.6 C 7.8 24.8 7.8 24.9 7.8 25.1 C 7.8 25.2 7.8 25.3 7.7 25.4 C 7.7 25.6 7.7 25.7 7.7 25.9 C 7.7 26.0 7.7 26.1 7.6 26.2 C 7.6 26.4 7.6 26.5 7.6 26.7 C 7.6 26.8 7.6 26.9 7.6 27.0 C 7.6 27.2 7.6 27.5 7.5 27.7 C 7.5 29.1 7.7 30.3 7.9 31.4 C 8.1 31.8 8.2 32.3 8.3 32.7 C 8.6 33.3 8.8 33.9 9.2 34.4 C 9.4 34.8 9.7 35.2 10.0 35.6 C 10.0 35.6 10.0 35.6 10.0 35.6 C 10.0 35.6 10.1 35.6 10.1 35.6 C 10.2 35.6 10.3 35.7 10.4 35.7 C 10.4 35.7 10.4 35.7 10.4 35.7 C 10.6 35.8 10.7 35.8 10.8 35.8 C 10.8 35.9 10.8 35.9 10.9 35.9 C 11.0 35.9 11.1 35.9 11.2 36.0 C 11.2 36.0 11.2 36.0 11.3 36.0 C 11.4 36.0 11.5 36.0 11.6 36.1 C 11.6 36.1 11.6 36.1 11.7 36.1 C 11.8 36.1 11.9 36.1 12.1 36.1 C 12.1 36.1 12.1 36.2 12.2 36.2 C 12.3 36.2 12.4 36.2 12.5 36.2 C 12.5 36.2 12.5 36.2 12.6 36.2 C 12.7 36.2 12.8 36.2 13.0 36.3 C 13.0 36.3 13.0 36.3 13.0 36.3 C 13.1 36.3 13.3 36.3 13.4 36.3 C 13.4 36.3 13.5 36.3 13.5 36.3 C 13.6 36.3 13.7 36.3 13.8 36.3 C 13.9 36.3 13.9 36.3 14.0 36.3 C 14.1 36.3 14.2 36.3 14.4 36.3 C 14.4 36.3 14.4 36.3 14.4 36.3 C 14.6 36.3 14.7 36.3 14.8 36.2 C 14.9 36.2 14.9 36.2 14.9 36.2 C 15.1 36.2 15.2 36.2 15.3 36.2 C 15.3 36.2 15.4 36.2 15.4 36.2 C 15.5 36.2 15.7 36.1 15.8 36.1 C 15.9 36.1 15.9 36.1 15.9 36.1 C 16.0 36.1 16.2 36.1 16.3 36.0 C 16.3 36.0 16.4 36.0 16.4 36.0 C 16.5 36.0 16.7 36.0 16.8 35.9 C 16.8 35.9 16.9 35.9 16.9 35.9 C 17.0 35.9 17.2 35.8 17.3 35.8 C 17.4 35.8 17.4 35.8 17.5 35.8 C 17.6 35.7 17.7 35.7 17.8 35.7 C 17.9 35.6 17.9 35.6 17.9 35.6 C 18.1 35.6 18.3 35.5 18.4 35.5 C 18.6 35.4 18.8 35.3 19.0 35.2 C 19.1 35.2 19.2 35.2 19.2 35.2 C 19.4 35.1 19.5 35.0 19.6 35.0 C 19.7 35.0 19.8 34.9 19.9 34.9 C 20.0 34.8 20.1 34.8 20.2 34.7 C 20.3 34.7 20.4 34.6 20.5 34.6 C 20.6 34.5 20.7 34.5 20.8 34.4 C 20.9 34.4 21.0 34.3 21.1 34.3 C 21.2 34.2 21.3 34.2 21.4 34.1 C 21.5 34.1 21.6 34.0 21.7 34.0 C 21.8 33.9 21.9 33.8 22.0 33.8 C 22.1 33.7 22.2 33.7 22.3 33.6 C 22.4 33.5 22.5 33.5 22.6 33.4 C 22.7 33.4 22.7 33.3 22.8 33.2 C 22.9 33.2 23.0 33.1 23.1 33.0 C 23.2 33.0 23.3 32.9 23.4 32.8 C 23.5 32.8 23.6 32.7 23.7 32.6 C 23.8 32.6 23.8 32.5 23.9 32.4 C 24.0 32.4 24.1 32.3 24.2 32.2 C 24.3 32.1 24.4 32.1 24.5 32.0 C 24.6 31.9 24.7 31.9 24.8 31.8 C 24.8 31.7 24.9 31.6 25.0 31.6 C 25.1 31.5 25.2 31.4 25.3 31.3 C 25.4 31.3 25.4 31.2 25.5 31.1 C 25.6 31.0 25.7 30.9 25.8 30.9 C 25.9 30.8 25.9 30.7 26.0 30.6 C 26.1 30.6 26.2 30.5 26.3 30.4 C 26.4 30.3 26.4 30.2 26.5 30.2 C 26.6 30.1 26.7 30.0 26.8 29.9 C 26.8 29.8 26.9 29.7 27.0 29.7 C 27.1 29.5 27.3 29.3 27.4 29.2 C 27.4 29.2 27.4 29.1 27.5 29.1 C 27.6 29.0 27.7 28.8 27.8 28.7 C 27.9 28.7 27.9 28.6 27.9 28.6 C 28.0 28.4 28.1 28.3 28.3 28.2 L 28.3 28.0 C 28.5 27.9 28.6 27.7 28.7 27.5 C 28.8 27.5 28.8 27.5 28.8 27.4 C 28.9 27.3 29.0 27.1 29.1 27.0 C 29.1 27.0 29.2 26.9 29.2 26.9 C 29.3 26.7 29.4 26.5 29.5 26.4 C 29.5 26.4 29.6 26.3 29.6 26.3 C 29.7 26.1 29.8 26.0 29.9 25.8 C 29.9 25.7 30.0 25.7 30.0 25.6 C 30.1 25.5 30.2 25.4 30.3 25.2 C 30.3 25.2 30.3 25.1 30.3 25.1 C 30.5 24.9 30.6 24.7 30.7 24.5 L 30.7 24.4 C 30.8 24.3 30.9 24.1 31.0 23.9 C 31.0 23.9 31.0 23.8 31.0 23.8 C 31.1 23.6 31.2 23.5 31.3 23.3 C 31.3 23.3 31.3 23.2 31.3 23.2 C 31.4 23.0 31.5 22.8 31.6 22.6 C 31.6 22.6 31.6 22.5 31.6 22.5 C 31.7 22.3 31.8 22.2 31.8 22.0 C 31.8 22.0 31.9 21.9 31.9 21.9 C 32.0 21.7 32.0 21.5 32.1 21.4 C 32.1 21.3 32.1 21.3 32.1 21.3 C 32.2 21.1 32.3 20.9 32.3 20.7 C 32.3 20.6 32.4 20.6 32.4 20.5 C 32.4 20.4 32.5 20.2 32.5 20.1 C 32.5 20.0 32.5 20.0 32.6 19.9 C 32.6 19.7 32.7 19.5 32.7 19.3 C 32.7 19.3 32.7 19.3 32.7 19.3 C 32.8 19.1 32.8 18.9 32.9 18.7 C 32.9 18.7 32.9 18.6 32.9 18.5 C 32.9 18.4 33.0 18.2 33.0 18.1 C 33.0 18.0 33.0 18.0 33.0 17.9 C 33.1 17.7 33.1 17.5 33.1 17.3 C 33.1 17.2 33.2 17.2 33.2 17.1 C 33.2 16.9 33.2 16.7 33.2 16.5 C 33.2 16.5 33.2 16.5 33.2 16.4 C 33.3 16.2 33.3 16.0 33.3 15.8 C 33.3 15.7 33.3 15.7 33.3 15.6 C 33.3 15.4 33.3 15.2 33.3 14.9 C 33.4 13.1 33.1 11.5 32.6 10.1 C 32.6 10.0 32.5 10.0 32.5 10.0 C 32.4 9.7 32.3 9.4 32.1 9.1 C 32.1 9.0 32.1 8.9 32.0 8.8 C 32.0 8.8 32.0 8.7 31.9 8.7 C 31.9 8.5 31.8 8.4 31.7 8.3 C 31.7 8.2 31.6 8.1 31.5 8.0 C 31.5 7.9 31.4 7.8 31.4 7.7 C 31.3 7.6 31.2 7.5 31.2 7.4 C 31.1 7.4 31.1 7.3 31.0 7.2 C 31.0 7.2 30.9 7.2 30.9 7.1 C 28.5 6.2 25.6 6.1 22.5 7.2 M 21.1 14.3 L 23.7 16.2 C 23.8 16.3 23.8 16.3 23.9 16.4 C 23.9 16.4 23.9 16.4 23.9 16.4 C 24.0 16.3 24.0 16.1 24.0 16.0 C 24.1 16.0 24.1 16.0 24.1 16.0 C 24.1 15.9 24.1 15.7 24.2 15.6 C 24.2 15.6 24.2 15.6 24.2 15.6 C 24.2 15.5 24.2 15.3 24.3 15.2 C 24.3 15.2 24.3 15.2 24.3 15.1 C 24.3 15.1 24.3 15.0 24.3 15.0 C 24.3 14.9 24.3 14.9 24.3 14.9 C 24.3 14.8 24.3 14.8 24.3 14.7 L 24.3 14.6 C 24.4 14.6 24.4 14.5 24.4 14.4 C 24.4 14.4 24.4 14.4 24.4 14.3 C 24.4 14.3 24.4 14.2 24.4 14.1 C 24.4 13.9 24.4 13.7 24.3 13.5 C 24.3 13.4 24.3 13.4 24.3 13.3 C 23.9 13.3 23.5 13.4 23.0 13.5 L 21.4 12.4 L 21.4 14.1 C 21.3 14.2 21.2 14.2 21.1 14.3 M 18.3 28.4 L 18.3 28.4 L 19.9 29.5 L 19.8 27.7 C 19.9 27.7 19.9 27.7 20.0 27.7 L 17.5 25.8 C 17.5 25.8 17.5 25.8 17.5 25.8 C 17.5 25.8 17.4 25.8 17.4 25.7 C 17.4 25.7 17.4 25.7 17.4 25.7 C 17.4 25.8 17.4 25.8 17.4 25.9 C 17.4 25.9 17.3 25.9 17.3 25.9 C 17.3 26.0 17.2 26.2 17.2 26.3 C 17.2 26.3 17.2 26.3 17.2 26.3 C 17.2 26.4 17.1 26.6 17.1 26.7 C 17.1 26.7 17.1 26.7 17.1 26.7 C 17.0 26.9 17.0 27.0 17.0 27.1 L 17.0 27.2 C 17.0 27.3 17.0 27.3 17.0 27.4 C 16.9 27.4 16.9 27.4 16.9 27.5 C 16.9 27.5 16.9 27.6 16.9 27.7 C 16.9 27.7 16.9 27.7 16.9 27.8 C 16.9 27.8 16.9 27.9 16.9 27.9 C 16.9 28.0 16.9 28.0 16.9 28.0 C 16.9 28.1 16.9 28.2 16.9 28.3 C 16.9 28.5 16.9 28.6 16.9 28.7 C 16.9 28.7 17.0 28.7 17.1 28.6 C 17.1 28.6 17.1 28.6 17.1 28.6 C 17.3 28.6 17.5 28.6 17.7 28.5 C 17.7 28.5 17.7 28.5 17.7 28.5 C 17.9 28.5 18.1 28.4 18.3 28.4 M 35.0 10.4 C 35.1 10.6 35.2 10.7 35.3 10.9 C 35.3 11.0 35.4 11.1 35.4 11.1 C 35.5 11.2 35.5 11.3 35.6 11.4 C 35.6 11.5 35.6 11.6 35.7 11.6 C 36.5 13.3 36.9 15.3 36.9 17.6 C 36.9 17.8 36.9 18.0 36.9 18.2 C 36.9 18.3 36.9 18.4 36.9 18.4 C 36.9 18.6 36.8 18.8 36.8 19.1 C 36.8 19.1 36.8 19.1 36.8 19.2 C 36.8 19.4 36.8 19.6 36.7 19.8 C 36.7 19.8 36.7 19.9 36.7 19.9 C 36.7 20.1 36.6 20.3 36.6 20.6 C 36.6 20.6 36.6 20.6 36.6 20.6 C 36.6 20.6 36.6 20.7 36.6 20.7 C 36.5 20.9 36.5 21.0 36.5 21.2 C 36.5 21.2 36.5 21.3 36.4 21.3 C 36.4 21.5 36.4 21.7 36.3 21.9 C 36.3 21.9 36.3 21.9 36.3 21.9 C 36.2 22.1 36.2 22.3 36.1 22.5 C 36.1 22.6 36.1 22.7 36.1 22.7 C 36.0 22.9 36.0 23.0 35.9 23.2 C 35.9 23.2 35.9 23.3 35.9 23.3 C 35.8 23.5 35.8 23.7 35.7 23.9 C 35.7 23.9 35.7 24.0 35.7 24.0 C 35.6 24.2 35.5 24.3 35.5 24.5 C 35.4 24.6 35.4 24.6 35.4 24.7 C 35.3 24.8 35.3 25.0 35.2 25.1 C 35.2 25.2 35.2 25.2 35.2 25.3 C 35.1 25.4 35.0 25.6 34.9 25.8 C 34.9 25.9 34.9 25.9 34.8 26.0 C 34.8 26.1 34.7 26.3 34.6 26.4 C 34.6 26.5 34.6 26.5 34.5 26.6 C 34.4 26.7 34.4 26.9 34.3 27.1 L 34.2 27.1 C 34.1 27.3 34.0 27.5 33.9 27.7 C 33.9 27.7 33.9 27.8 33.8 27.8 C 33.8 28.0 33.7 28.1 33.6 28.3 C 33.6 28.3 33.5 28.4 33.5 28.4 C 33.4 28.6 33.3 28.8 33.1 29.0 L 33.1 29.0 C 33.0 29.2 32.9 29.3 32.8 29.5 C 32.8 29.5 32.7 29.6 32.7 29.6 C 32.6 29.8 32.5 29.9 32.4 30.1 C 32.4 30.1 32.3 30.1 32.3 30.2 C 32.2 30.3 32.0 30.5 31.9 30.7 C 31.9 30.7 31.9 30.8 31.8 30.8 C 31.7 30.9 31.6 31.1 31.5 31.2 C 31.5 31.2 31.4 31.3 31.4 31.3 C 31.3 31.5 31.2 31.6 31.0 31.8 C 31.0 31.8 31.0 31.8 31.0 31.8 C 30.8 32.0 30.7 32.1 30.6 32.2 C 30.6 32.2 30.6 32.3 30.6 32.3 C 30.5 32.4 30.4 32.4 30.3 32.5 C 30.3 32.6 30.2 32.7 30.1 32.8 C 30.0 32.9 29.9 32.9 29.9 33.0 C 29.8 33.1 29.7 33.2 29.6 33.3 C 29.5 33.4 29.4 33.4 29.4 33.5 C 29.3 33.6 29.2 33.7 29.1 33.8 C 29.0 33.8 28.9 33.9 28.8 34.0 C 28.8 34.0 28.7 34.1 28.6 34.2 C 28.5 34.3 28.4 34.3 28.3 34.4 C 28.2 34.5 28.1 34.6 28.0 34.7 C 28.0 34.7 27.9 34.8 27.8 34.8 C 27.7 34.9 27.6 35.0 27.5 35.1 C 27.4 35.1 27.3 35.2 27.3 35.3 C 27.2 35.3 27.1 35.4 27.0 35.5 C 26.9 35.5 26.8 35.6 26.7 35.7 C 26.6 35.7 26.5 35.8 26.4 35.9 C 26.3 35.9 26.2 36.0 26.1 36.0 C 26.0 36.1 25.9 36.2 25.8 36.2 C 25.7 36.3 25.7 36.3 25.6 36.4 C 25.5 36.5 25.4 36.5 25.3 36.6 C 25.2 36.6 25.1 36.7 25.0 36.7 C 24.9 36.8 24.8 36.9 24.7 36.9 C 24.6 37.0 24.5 37.0 24.4 37.1 C 24.3 37.1 24.2 37.2 24.1 37.2 C 24.0 37.3 23.9 37.3 23.8 37.3 C 23.7 37.4 23.6 37.5 23.4 37.5 C 23.4 37.5 23.3 37.6 23.2 37.6 C 23.2 37.6 23.2 37.6 23.2 37.6 C 23.1 37.7 22.9 37.7 22.8 37.8 C 22.7 37.8 22.7 37.8 22.6 37.9 C 22.4 38.0 22.2 38.0 22.0 38.1 C 21.8 38.2 21.7 38.2 21.5 38.3 L 21.4 38.3 C 21.3 38.3 21.1 38.4 21.0 38.4 C 21.0 38.4 21.0 38.4 20.9 38.4 C 20.8 38.5 20.6 38.5 20.5 38.5 C 20.4 38.6 20.4 38.6 20.4 38.6 C 20.3 38.6 20.1 38.6 20.0 38.6 C 19.9 38.7 19.9 38.7 19.9 38.7 C 19.7 38.7 19.6 38.7 19.5 38.7 C 19.5 38.7 19.4 38.7 19.4 38.8 C 19.3 38.8 19.1 38.8 19.0 38.8 C 18.9 38.8 18.9 38.8 18.9 38.8 C 18.7 38.8 18.6 38.9 18.5 38.9 C 18.5 38.9 18.4 38.9 18.4 38.9 C 18.3 38.9 18.1 38.9 18.0 38.9 C 18.0 38.9 18.0 38.9 18.0 38.9 C 17.8 38.9 17.7 38.9 17.5 38.9 C 17.5 38.9 17.5 38.9 17.4 38.9 C 17.3 38.9 17.2 38.9 17.1 38.9 C 17.1 38.9 17.0 38.9 17.0 38.9 C 16.8 38.9 16.7 38.9 16.6 38.9 C 16.6 38.9 16.6 38.9 16.6 38.9 C 16.4 38.9 16.3 38.9 16.2 38.8 C 16.1 38.8 16.1 38.8 16.0 38.8 C 15.9 38.8 15.8 38.8 15.7 38.8 C 15.7 38.8 15.7 38.8 15.6 38.8 C 15.5 38.8 15.4 38.7 15.2 38.7 C 15.2 38.7 15.2 38.7 15.2 38.7 C 15.1 38.7 15.0 38.6 14.9 38.6 C 14.8 38.6 14.8 38.6 14.7 38.6 C 14.6 38.6 14.5 38.5 14.4 38.5 C 14.4 38.5 14.4 38.5 14.4 38.5 C 14.4 38.5 14.4 38.5 14.4 38.5 C 14.2 38.4 14.1 38.4 14.0 38.4 C 14.0 38.4 14.0 38.4 13.9 38.3 C 13.9 38.3 13.8 38.3 13.7 38.2 C 13.6 38.2 13.6 38.2 13.6 38.2 C 13.5 38.2 13.4 38.1 13.3 38.1 C 13.3 38.1 13.3 38.1 13.2 38.1 C 13.1 38.0 13.0 38.0 13.0 37.9 C 12.9 37.9 12.9 37.9 12.9 37.9 C 12.8 37.9 12.7 37.8 12.6 37.7 C 12.6 37.7 12.5 37.7 12.5 37.7 C 12.4 37.6 12.4 37.6 12.3 37.6 C 12.2 37.5 12.2 37.5 12.2 37.5 C 12.1 37.5 12.0 37.4 12.0 37.4 C 11.9 37.3 11.9 37.3 11.9 37.3 C 11.8 37.2 11.7 37.2 11.6 37.1 L 11.6 37.1 L 9.6 35.7 L 8.0 34.5 L 8.0 34.5 L 8.0 34.5 L 8.0 34.5 L 8.0 34.5 C 7.1 33.8 6.3 33.0 5.7 32.0 C 6.3 35.1 7.9 37.6 10.0 39.2 L 6.5 36.6 C 3.5 34.4 1.8 30.7 1.8 25.8 C 1.8 25.6 1.9 25.3 1.9 25.0 L 1.9 25.0 C 1.9 24.7 1.9 24.4 1.9 24.2 C 1.9 24.1 1.9 24.1 1.9 24.1 C 2.0 23.8 2.0 23.6 2.0 23.3 C 2.0 23.3 2.1 23.2 2.1 23.2 C 2.1 22.9 2.1 22.7 2.2 22.4 C 2.2 22.4 2.2 22.4 2.2 22.4 C 2.2 22.4 2.2 22.3 2.2 22.3 C 2.2 22.1 2.3 21.9 2.3 21.6 L 2.4 21.5 C 2.4 21.3 2.5 21.1 2.5 20.9 C 2.5 20.9 2.5 20.9 2.5 20.8 C 2.6 20.6 2.7 20.4 2.7 20.2 C 2.7 20.1 2.7 20.1 2.8 20.0 C 2.8 19.8 2.9 19.6 3.0 19.4 C 3.0 19.3 3.0 19.3 3.0 19.3 C 3.1 19.1 3.1 18.8 3.2 18.6 C 3.2 18.6 3.2 18.6 3.2 18.5 C 3.3 18.3 3.4 18.1 3.5 17.9 C 3.5 17.8 3.5 17.8 3.6 17.8 C 3.6 17.5 3.7 17.3 3.8 17.1 C 3.8 17.1 3.8 17.1 3.9 17.0 C 3.9 16.8 4.0 16.6 4.1 16.4 C 4.1 16.4 4.2 16.4 4.2 16.3 C 4.3 16.1 4.4 15.9 4.5 15.7 C 4.5 15.6 4.5 15.6 4.6 15.6 C 4.7 15.3 4.8 15.1 4.9 14.9 C 4.9 14.9 4.9 14.9 4.9 14.8 C 5.0 14.6 5.1 14.4 5.3 14.3 C 5.3 14.2 5.3 14.2 5.3 14.2 C 5.4 14.0 5.5 13.8 5.7 13.6 L 5.8 13.4 C 5.9 13.2 6.0 13.0 6.1 12.8 C 6.2 12.8 6.2 12.8 6.2 12.8 C 6.3 12.6 6.4 12.4 6.6 12.2 C 6.6 12.2 6.6 12.1 6.6 12.1 C 6.8 11.9 6.9 11.7 7.0 11.5 C 7.1 11.5 7.1 11.4 7.1 11.4 C 7.3 11.2 7.4 11.0 7.6 10.8 L 7.6 10.8 C 7.8 10.6 7.9 10.4 8.0 10.2 L 8.1 10.1 C 8.3 10.0 8.4 9.8 8.6 9.6 C 8.6 9.6 8.6 9.5 8.7 9.5 C 8.8 9.3 9.0 9.1 9.2 9.0 C 9.2 8.9 9.2 8.9 9.2 8.9 C 9.4 8.7 9.5 8.6 9.7 8.4 C 9.7 8.4 9.7 8.3 9.8 8.3 C 9.9 8.2 10.1 8.0 10.3 7.8 C 10.3 7.8 10.3 7.8 10.4 7.7 C 10.5 7.6 10.7 7.4 10.9 7.2 C 10.9 7.2 10.9 7.2 10.9 7.2 C 11.1 7.0 11.3 6.9 11.4 6.7 C 11.5 6.7 11.5 6.7 11.5 6.7 C 11.7 6.5 11.9 6.4 12.1 6.2 C 12.1 6.2 12.2 6.2 12.2 6.1 C 12.4 6.0 12.6 5.8 12.8 5.7 C 12.8 5.7 12.8 5.7 12.8 5.7 C 13.0 5.5 13.2 5.4 13.3 5.3 C 13.4 5.2 13.4 5.2 13.4 5.2 C 13.6 5.1 13.8 4.9 14.0 4.8 L 14.1 4.7 C 14.3 4.6 14.5 4.5 14.7 4.3 C 14.7 4.3 14.7 4.3 14.7 4.3 C 14.9 4.2 15.1 4.1 15.3 4.0 C 15.4 4.0 15.4 3.9 15.4 3.9 C 15.6 3.8 15.8 3.7 16.0 3.6 C 16.1 3.6 16.1 3.6 16.2 3.5 C 16.4 3.4 16.6 3.3 16.8 3.2 C 16.8 3.2 16.8 3.2 16.8 3.2 C 17.0 3.1 17.2 3.0 17.4 2.9 C 17.4 2.9 17.5 2.9 17.5 2.9 C 17.5 2.9 17.5 2.9 17.5 2.9 C 17.7 2.8 17.9 2.7 18.2 2.6 L 18.3 2.6 C 18.5 2.5 18.7 2.4 18.9 2.3 C 19.9 2.0 21.0 1.7 21.9 1.6 C 22.2 1.5 22.5 1.5 22.8 1.5 C 23.8 1.4 24.9 1.4 25.9 1.5 C 26.4 1.6 26.9 1.7 27.3 1.8 C 27.6 1.9 27.8 1.9 28.0 2.0 C 28.5 2.2 28.9 2.4 29.3 2.6 C 29.4 2.6 29.6 2.7 29.7 2.7 C 30.1 3.0 30.5 3.2 30.8 3.5 L 34.4 6.1 C 32.2 4.5 29.4 3.8 26.2 4.1 C 26.2 4.1 26.2 4.1 26.2 4.1 C 26.5 4.2 26.8 4.3 27.1 4.4 C 27.3 4.5 27.5 4.6 27.7 4.7 C 27.9 4.7 28.1 4.8 28.3 4.9 C 28.4 5.0 28.4 5.0 28.5 5.1 C 28.8 5.2 29.0 5.4 29.3 5.6 L 30.9 6.8 L 32.9 8.2 C 33.0 8.3 33.1 8.4 33.2 8.4 C 33.2 8.5 33.3 8.5 33.3 8.6 C 33.5 8.7 33.6 8.8 33.7 8.9 C 33.7 9.0 33.8 9.0 33.8 9.0 C 33.9 9.1 33.9 9.2 34.0 9.2 C 34.1 9.3 34.1 9.4 34.2 9.4 C 34.2 9.5 34.3 9.5 34.3 9.6 C 34.4 9.7 34.5 9.8 34.6 9.9 C 34.6 9.9 34.6 10.0 34.7 10.0 C 34.8 10.1 34.9 10.2 35.0 10.4 Z M 35.0 10.4 " fill="#F38907"></path><path d="M 8.0 34.5 L 8.0 34.5 Z M 8.0 34.5 " fill="#DC7601"></path><path d="M 16.9 27.7 C 16.9 27.7 16.9 27.7 16.9 27.8 C 16.9 27.8 16.9 27.9 16.9 27.9 C 16.9 28.0 16.9 28.0 16.9 28.0 C 16.9 28.1 16.9 28.2 16.9 28.3 C 16.9 28.5 16.9 28.6 16.9 28.7 C 16.9 28.7 17.0 28.7 17.1 28.6 C 17.1 28.6 17.1 28.6 17.1 28.6 C 17.3 28.6 17.5 28.6 17.7 28.5 C 17.7 28.5 17.7 28.5 17.7 28.5 C 17.9 28.5 18.1 28.4 18.3 28.4 L 19.9 29.5 L 19.8 27.7 C 19.9 27.7 19.9 27.7 20.0 27.7 L 17.5 25.8 C 17.5 25.8 17.5 25.8 17.5 25.8 C 17.5 25.8 17.4 25.8 17.4 25.7 C 17.4 25.7 17.4 25.7 17.4 25.7 C 17.4 25.8 17.4 25.8 17.4 25.9 C 17.4 25.9 17.3 25.9 17.3 25.9 C 17.3 26.0 17.2 26.2 17.2 26.3 C 17.2 26.3 17.2 26.3 17.2 26.3 C 17.2 26.4 17.1 26.6 17.1 26.7 C 17.1 26.7 17.1 26.7 17.1 26.7 C 17.0 26.9 17.0 27.0 17.0 27.1 L 17.0 27.2 C 17.0 27.3 17.0 27.3 17.0 27.4 C 16.9 27.4 16.9 27.4 16.9 27.5 C 16.9 27.5 16.9 27.6 16.9 27.7 M 23.9 16.4 C 23.9 16.4 23.9 16.4 23.9 16.4 C 24.0 16.3 24.0 16.1 24.0 16.0 C 24.1 16.0 24.1 16.0 24.1 16.0 C 24.1 15.9 24.1 15.7 24.2 15.6 C 24.2 15.6 24.2 15.6 24.2 15.6 C 24.2 15.5 24.2 15.3 24.3 15.2 C 24.3 15.2 24.3 15.2 24.3 15.1 C 24.3 15.1 24.3 15.0 24.3 15.0 C 24.3 14.9 24.3 14.9 24.3 14.9 C 24.3 14.8 24.3 14.8 24.3 14.7 L 24.3 14.6 C 24.4 14.6 24.4 14.5 24.4 14.4 C 24.4 14.4 24.4 14.4 24.4 14.3 C 24.4 14.3 24.4 14.2 24.4 14.1 C 24.4 13.9 24.4 13.7 24.3 13.5 C 24.3 13.4 24.3 13.4 24.3 13.3 C 23.9 13.4 23.5 13.4 23.0 13.5 L 21.4 12.4 L 21.4 14.1 C 21.3 14.2 21.2 14.2 21.1 14.3 L 23.7 16.2 C 23.8 16.3 23.8 16.3 23.9 16.4 M 26.5 4.1 C 26.4 4.1 26.3 4.1 26.2 4.1 C 26.2 4.1 26.2 4.1 26.2 4.1 C 26.5 4.2 26.8 4.3 27.1 4.4 C 27.3 4.5 27.5 4.6 27.7 4.7 C 27.9 4.7 28.1 4.8 28.3 4.9 C 28.4 5.0 28.4 5.0 28.5 5.1 C 28.8 5.2 29.0 5.4 29.3 5.6 L 30.9 6.8 L 32.9 8.2 C 33.0 8.3 33.1 8.4 33.2 8.4 C 33.2 8.5 33.3 8.5 33.3 8.6 C 33.5 8.7 33.6 8.8 33.7 8.9 C 33.7 9.0 33.8 9.0 33.8 9.0 C 33.9 9.1 33.9 9.2 34.0 9.2 C 34.1 9.3 34.1 9.4 34.2 9.4 C 34.2 9.5 34.3 9.5 34.3 9.6 C 34.4 9.7 34.5 9.8 34.6 9.9 C 34.6 9.9 34.6 10.0 34.7 10.0 C 34.8 10.1 34.9 10.2 35.0 10.4 L 35.0 10.4 C 35.1 10.6 35.2 10.7 35.3 10.9 C 35.3 11.0 35.4 11.1 35.4 11.1 C 35.5 11.2 35.5 11.3 35.6 11.4 C 35.6 11.5 35.6 11.6 35.7 11.6 C 36.5 13.3 36.9 15.3 36.9 17.6 C 36.9 17.6 36.9 17.6 36.9 17.6 L 31.9 21.7 C 32.0 21.6 32.0 21.5 32.1 21.4 C 32.1 21.3 32.1 21.3 32.1 21.3 C 32.2 21.1 32.3 20.9 32.3 20.7 C 32.3 20.6 32.4 20.6 32.4 20.5 C 32.4 20.4 32.5 20.2 32.5 20.1 C 32.5 20.0 32.5 20.0 32.6 19.9 C 32.6 19.7 32.7 19.5 32.7 19.3 C 32.7 19.3 32.7 19.3 32.7 19.3 C 32.8 19.1 32.8 18.9 32.9 18.7 C 32.9 18.7 32.9 18.6 32.9 18.5 C 32.9 18.4 33.0 18.2 33.0 18.1 C 33.0 18.0 33.0 18.0 33.0 17.9 C 33.1 17.7 33.1 17.5 33.1 17.3 C 33.1 17.2 33.2 17.2 33.2 17.1 C 33.2 16.9 33.2 16.7 33.2 16.5 C 33.2 16.5 33.2 16.5 33.2 16.4 C 33.3 16.2 33.3 16.0 33.3 15.8 C 33.3 15.7 33.3 15.7 33.3 15.6 C 33.3 15.4 33.3 15.2 33.3 14.9 C 33.4 13.1 33.1 11.5 32.6 10.1 C 32.6 10.0 32.5 10.0 32.5 10.0 C 32.4 9.7 32.3 9.4 32.1 9.1 C 32.1 9.0 32.1 8.9 32.0 8.8 C 32.0 8.8 32.0 8.7 31.9 8.7 C 31.9 8.5 31.8 8.4 31.7 8.3 C 31.7 8.2 31.6 8.1 31.5 8.0 C 31.5 7.9 31.4 7.8 31.4 7.7 C 31.3 7.6 31.2 7.5 31.2 7.4 C 31.1 7.4 31.1 7.3 31.0 7.2 C 31.0 7.2 30.9 7.2 30.9 7.1 C 28.5 6.2 25.6 6.1 22.5 7.2 C 22.2 7.3 22.0 7.4 21.8 7.5 C 21.7 7.5 21.6 7.5 21.5 7.6 C 21.4 7.6 21.2 7.7 21.1 7.8 C 21.0 7.8 20.9 7.9 20.8 7.9 C 20.7 8.0 20.5 8.0 20.4 8.1 C 20.3 8.1 20.2 8.2 20.1 8.2 C 20.0 8.3 19.8 8.4 19.7 8.5 C 19.6 8.5 19.5 8.5 19.5 8.6 C 19.2 8.7 19.0 8.8 18.8 9.0 C 18.8 9.0 18.8 9.0 18.7 9.0 C 18.5 9.1 18.3 9.3 18.1 9.4 C 18.1 9.4 18.0 9.5 17.9 9.5 C 17.9 9.5 17.9 9.6 17.9 9.6 L 19.4 9.0 L 21.8 10.7 C 22.3 10.8 22.8 11.0 23.2 11.3 L 26.8 13.9 L 26.8 13.9 L 26.8 13.9 C 26.8 13.9 26.9 14.0 26.9 14.0 C 26.9 14.0 26.9 14.0 26.9 14.0 C 27.0 14.0 27.0 14.0 27.0 14.1 C 27.0 14.1 27.1 14.1 27.1 14.2 C 27.2 14.3 27.3 14.4 27.4 14.6 C 27.5 14.7 27.6 14.9 27.7 15.0 C 27.7 15.0 27.7 15.1 27.7 15.1 C 27.7 15.1 27.7 15.2 27.7 15.2 C 27.7 15.2 27.7 15.2 27.7 15.2 C 27.8 15.4 27.8 15.6 27.9 15.8 C 27.9 15.9 27.9 16.0 27.9 16.1 C 27.9 16.3 28.0 16.5 28.0 16.7 C 27.9 16.8 27.9 16.9 27.9 17.0 C 27.9 17.0 27.9 17.0 27.9 17.1 C 27.9 17.1 27.9 17.2 27.9 17.2 C 27.9 17.3 27.9 17.3 27.9 17.4 C 27.9 17.4 27.9 17.5 27.9 17.5 C 27.9 17.5 27.9 17.6 27.9 17.6 C 27.9 17.7 27.9 17.7 27.8 17.8 C 27.8 17.8 27.8 17.8 27.8 17.8 C 27.8 17.8 27.8 17.8 27.8 17.8 C 27.8 18.0 27.8 18.1 27.7 18.2 L 27.7 18.2 C 27.7 18.4 27.7 18.5 27.6 18.6 C 27.6 18.6 27.6 18.6 27.6 18.6 C 27.6 18.8 27.5 18.9 27.5 19.0 C 27.5 19.0 27.5 19.0 27.5 19.1 C 27.4 19.2 27.4 19.3 27.3 19.4 C 27.3 19.4 27.3 19.4 27.3 19.4 C 27.2 19.6 27.2 19.7 27.1 19.8 C 27.1 19.8 27.1 19.8 27.1 19.8 C 27.0 19.9 27.0 20.0 26.9 20.1 C 26.9 20.2 26.9 20.2 26.9 20.2 C 26.9 20.2 26.8 20.3 26.8 20.3 L 26.8 20.3 L 26.8 20.3 C 26.8 20.4 26.7 20.4 26.7 20.4 C 26.7 20.5 26.7 20.5 26.6 20.6 C 26.6 20.6 26.5 20.7 26.5 20.8 C 26.5 20.8 26.4 20.8 26.4 20.9 C 26.3 21.0 26.3 21.0 26.2 21.1 C 26.2 21.1 26.2 21.2 26.2 21.2 C 26.1 21.3 26.0 21.4 25.9 21.5 C 25.9 21.5 25.9 21.5 25.8 21.6 C 25.8 21.6 25.7 21.7 25.7 21.8 C 25.6 21.8 25.6 21.8 25.6 21.9 C 25.5 21.9 25.4 22.0 25.4 22.0 C 25.4 22.1 25.3 22.1 25.3 22.1 C 25.2 22.2 25.2 22.3 25.1 22.3 L 25.0 22.4 C 24.9 22.5 24.9 22.6 24.8 22.6 C 24.8 22.6 24.8 22.7 24.7 22.7 C 24.6 22.8 24.6 22.9 24.5 22.9 C 24.4 23.0 24.4 23.0 24.4 23.0 L 26.8 24.7 L 26.9 25.9 L 19.9 31.7 L 19.3 31.3 C 19.2 31.3 19.2 31.3 19.1 31.3 C 19.1 31.3 19.1 31.3 19.1 31.3 C 18.9 31.3 18.8 31.3 18.7 31.2 C 18.7 31.2 18.7 31.2 18.6 31.2 C 18.6 31.2 18.5 31.2 18.5 31.2 C 18.5 31.2 18.5 31.1 18.4 31.1 C 18.4 31.1 18.3 31.1 18.3 31.1 C 18.3 31.1 18.3 31.1 18.2 31.1 C 18.2 31.0 18.1 31.0 18.1 31.0 L 18.1 31.0 C 18.0 30.9 18.0 30.9 17.9 30.9 C 17.9 30.9 17.9 30.8 17.9 30.8 L 17.9 30.8 L 15.3 28.9 L 14.3 28.2 C 13.7 27.7 13.3 26.9 13.3 25.7 C 13.3 25.6 13.3 25.5 13.3 25.4 C 13.3 25.4 13.3 25.3 13.3 25.3 C 13.3 25.3 13.3 25.2 13.3 25.1 C 13.3 25.1 13.3 25.1 13.3 25.0 C 13.3 25.0 13.4 24.9 13.4 24.9 C 13.4 24.8 13.4 24.8 13.4 24.7 C 13.4 24.7 13.4 24.6 13.4 24.6 L 13.4 24.5 C 13.4 24.5 13.4 24.5 13.4 24.5 C 13.4 24.4 13.5 24.2 13.5 24.1 C 13.5 24.1 13.5 24.1 13.5 24.1 C 13.6 23.9 13.6 23.8 13.6 23.7 C 13.6 23.7 13.6 23.7 13.6 23.7 C 13.7 23.5 13.7 23.4 13.8 23.3 C 13.8 23.3 13.8 23.3 13.8 23.2 C 13.8 23.1 13.9 23.0 13.9 22.9 C 13.9 22.9 14.0 22.9 14.0 22.8 C 14.0 22.7 14.1 22.6 14.1 22.5 C 14.1 22.5 14.1 22.5 14.2 22.5 C 14.2 22.4 14.3 22.2 14.3 22.1 L 14.4 22.1 C 14.4 22.0 14.5 21.9 14.6 21.8 C 14.6 21.8 14.6 21.8 14.6 21.8 C 14.6 21.7 14.7 21.6 14.8 21.5 C 14.8 21.4 14.8 21.4 14.8 21.4 C 14.9 21.3 15.0 21.2 15.1 21.1 C 15.1 21.1 15.1 21.1 15.1 21.1 C 15.2 21.0 15.2 20.9 15.3 20.8 C 15.3 20.8 15.4 20.8 15.4 20.8 C 15.4 20.7 15.5 20.6 15.6 20.5 C 15.6 20.5 15.6 20.5 15.6 20.5 C 15.7 20.4 15.8 20.3 15.9 20.2 C 15.9 20.2 15.9 20.2 15.9 20.2 C 16.0 20.1 16.1 20.0 16.2 19.9 C 16.2 19.9 16.2 19.9 16.2 19.9 C 16.2 19.9 16.2 19.9 16.2 19.9 L 13.7 18.0 L 13.4 14.2 C 13.5 14.2 13.5 14.2 13.5 14.1 C 13.5 14.1 13.5 14.1 13.5 14.1 C 13.5 14.1 13.5 14.1 13.5 14.1 C 13.6 14.1 13.6 14.1 13.6 14.1 C 13.6 14.0 13.6 14.0 13.6 14.0 C 13.7 14.0 13.7 14.0 13.7 14.0 C 13.7 13.9 13.8 13.9 13.8 13.9 C 13.8 13.9 13.8 13.9 13.9 13.8 C 13.9 13.8 13.9 13.8 13.9 13.8 C 14.0 13.7 14.0 13.7 14.0 13.7 C 14.1 13.7 14.1 13.6 14.1 13.6 C 14.2 13.6 14.2 13.6 14.2 13.5 C 14.3 13.5 14.3 13.5 14.4 13.4 C 14.4 13.4 14.5 13.4 14.5 13.3 C 14.5 13.3 14.6 13.3 14.6 13.2 C 14.7 13.2 14.7 13.2 14.8 13.2 C 14.8 13.1 14.9 13.1 14.9 13.0 C 15.0 13.0 15.0 13.0 15.1 13.0 C 15.1 12.9 15.2 12.9 15.2 12.8 C 15.3 12.8 15.3 12.8 15.4 12.7 C 15.5 12.7 15.5 12.7 15.6 12.6 C 15.6 12.6 15.7 12.6 15.8 12.5 C 15.8 12.5 15.9 12.4 16.0 12.4 C 16.0 12.4 16.1 12.3 16.1 12.3 C 16.2 12.3 16.3 12.2 16.4 12.2 C 16.4 12.1 16.5 12.1 16.6 12.1 C 16.6 12.0 16.7 12.0 16.8 12.0 C 16.9 11.9 16.9 11.9 17.0 11.9 C 17.1 11.8 17.2 11.8 17.2 11.7 C 17.3 11.7 17.4 11.7 17.5 11.6 C 17.5 11.6 17.5 11.6 17.6 11.6 C 17.7 11.6 17.8 11.5 17.9 11.5 L 17.8 9.6 C 17.7 9.7 17.6 9.8 17.5 9.8 C 17.4 9.9 17.3 9.9 17.3 10.0 C 17.1 10.1 17.0 10.2 16.9 10.3 L 16.6 10.5 C 16.5 10.6 16.4 10.7 16.2 10.8 C 16.2 10.9 16.1 10.9 16.0 11.0 C 15.8 11.1 15.6 11.3 15.4 11.5 C 15.4 11.5 15.4 11.5 15.4 11.6 C 15.2 11.7 15.0 11.9 14.9 12.0 C 14.8 12.1 14.7 12.2 14.7 12.2 C 14.6 12.3 14.4 12.5 14.3 12.6 C 14.2 12.7 14.2 12.7 14.1 12.8 C 14.0 12.9 13.9 13.1 13.8 13.2 C 13.7 13.3 13.6 13.3 13.6 13.4 C 13.4 13.6 13.3 13.7 13.2 13.8 C 13.1 13.9 13.1 14.0 13.0 14.0 C 12.9 14.2 12.7 14.4 12.5 14.6 C 12.5 14.7 12.5 14.7 12.5 14.8 C 12.3 14.9 12.2 15.1 12.1 15.3 C 12.0 15.3 12.0 15.4 11.9 15.5 C 11.8 15.6 11.7 15.8 11.6 15.9 C 11.5 16.0 11.5 16.1 11.4 16.2 C 11.3 16.3 11.2 16.5 11.2 16.6 C 11.1 16.7 11.0 16.8 11.0 16.8 C 10.9 17.0 10.8 17.2 10.7 17.3 C 10.7 17.4 10.6 17.5 10.6 17.5 C 10.5 17.8 10.3 18.0 10.2 18.2 C 10.2 18.3 10.1 18.3 10.1 18.4 C 10.0 18.6 9.9 18.7 9.8 18.9 C 9.8 19.0 9.8 19.1 9.7 19.2 C 9.6 19.3 9.6 19.5 9.5 19.6 C 9.5 19.7 9.4 19.8 9.4 19.9 C 9.3 20.1 9.2 20.2 9.2 20.4 C 9.1 20.5 9.1 20.5 9.1 20.6 C 9.0 20.8 8.9 21.0 8.8 21.2 C 8.8 21.2 8.8 21.3 8.8 21.4 C 8.7 21.6 8.6 21.8 8.5 22.1 C 8.5 22.1 8.5 22.2 8.5 22.3 C 8.4 22.5 8.4 22.6 8.3 22.8 C 8.3 22.9 8.3 23.0 8.2 23.1 C 8.2 23.3 8.1 23.4 8.1 23.6 C 8.1 23.7 8.1 23.8 8.0 23.9 C 8.0 24.0 8.0 24.2 7.9 24.3 C 7.9 24.4 7.9 24.5 7.9 24.6 C 7.8 24.8 7.8 24.9 7.8 25.1 C 7.8 25.2 7.8 25.3 7.7 25.4 C 7.7 25.6 7.7 25.7 7.7 25.9 C 7.7 26.0 7.7 26.1 7.6 26.2 C 7.6 26.4 7.6 26.5 7.6 26.7 C 7.6 26.8 7.6 26.9 7.6 27.0 C 7.6 27.2 7.6 27.5 7.5 27.7 C 7.5 29.1 7.7 30.3 7.9 31.4 C 8.1 31.8 8.2 32.3 8.3 32.7 C 8.6 33.3 8.8 33.9 9.2 34.4 C 9.4 34.8 9.7 35.2 10.0 35.6 C 10.0 35.6 10.0 35.6 10.0 35.6 C 10.0 35.6 10.1 35.6 10.1 35.6 C 10.2 35.6 10.3 35.7 10.4 35.7 C 10.4 35.7 10.4 35.7 10.4 35.7 C 10.6 35.8 10.7 35.8 10.8 35.8 C 10.8 35.9 10.8 35.9 10.9 35.9 C 11.0 35.9 11.1 35.9 11.2 36.0 C 11.2 36.0 11.2 36.0 11.3 36.0 C 11.4 36.0 11.5 36.0 11.6 36.1 C 11.6 36.1 11.6 36.1 11.7 36.1 C 11.8 36.1 11.9 36.1 12.1 36.1 C 12.1 36.1 12.1 36.2 12.2 36.2 C 12.3 36.2 12.4 36.2 12.5 36.2 C 12.5 36.2 12.5 36.2 12.6 36.2 C 12.7 36.2 12.8 36.2 13.0 36.3 C 13.0 36.3 13.0 36.3 13.0 36.3 C 13.1 36.3 13.3 36.3 13.4 36.3 C 13.4 36.3 13.5 36.3 13.5 36.3 C 13.6 36.3 13.7 36.3 13.8 36.3 C 13.9 36.3 13.9 36.3 14.0 36.3 C 14.1 36.3 14.2 36.3 14.4 36.3 C 14.4 36.3 14.4 36.3 14.4 36.3 L 12.6 37.7 C 12.6 37.7 12.6 37.7 12.6 37.7 C 12.6 37.7 12.5 37.7 12.5 37.7 C 12.4 37.6 12.4 37.6 12.3 37.6 C 12.2 37.5 12.2 37.5 12.2 37.5 C 12.1 37.5 12.0 37.4 12.0 37.4 C 11.9 37.3 11.9 37.3 11.9 37.3 C 11.8 37.2 11.7 37.2 11.6 37.1 L 11.6 37.1 L 9.6 35.7 L 8.0 34.5 L 8.0 34.5 C 7.7 34.2 7.4 33.9 7.1 33.6 C 6.9 33.5 6.8 33.4 6.6 33.2 C 6.3 32.8 6.0 32.4 5.7 32.0 C 5.7 32.1 5.8 32.2 5.8 32.3 C 4.4 30.7 3.1 29.1 1.9 27.5 C 1.8 27.0 1.8 26.4 1.8 25.8 C 1.8 25.6 1.9 25.3 1.9 25.0 L 1.9 25.0 C 1.9 24.7 1.9 24.4 1.9 24.2 C 1.9 24.1 1.9 24.1 1.9 24.1 C 2.0 23.8 2.0 23.6 2.0 23.3 C 2.0 23.3 2.1 23.2 2.1 23.2 C 2.1 22.9 2.1 22.7 2.2 22.4 C 2.2 22.4 2.2 22.4 2.2 22.4 C 2.2 22.4 2.2 22.3 2.2 22.3 C 2.2 22.1 2.3 21.9 2.3 21.6 L 2.4 21.5 C 2.4 21.3 2.5 21.1 2.5 20.9 C 2.5 20.9 2.5 20.9 2.5 20.8 C 2.6 20.6 2.7 20.4 2.7 20.2 C 2.7 20.1 2.7 20.1 2.8 20.0 C 2.8 19.8 2.9 19.6 3.0 19.4 C 3.0 19.3 3.0 19.3 3.0 19.3 C 3.1 19.1 3.1 18.8 3.2 18.6 C 3.2 18.6 3.2 18.6 3.2 18.5 C 3.3 18.3 3.4 18.1 3.5 17.9 C 3.5 17.8 3.5 17.8 3.6 17.8 C 3.6 17.5 3.7 17.3 3.8 17.1 C 3.8 17.1 3.8 17.1 3.9 17.0 C 3.9 16.8 4.0 16.6 4.1 16.4 C 4.1 16.4 4.2 16.4 4.2 16.3 C 4.3 16.1 4.4 15.9 4.5 15.7 C 4.5 15.6 4.5 15.6 4.6 15.6 C 4.7 15.3 4.8 15.1 4.9 14.9 C 4.9 14.9 4.9 14.9 4.9 14.8 C 5.0 14.6 5.1 14.4 5.3 14.3 C 5.3 14.2 5.3 14.2 5.3 14.2 C 5.4 14.0 5.6 13.8 5.7 13.6 L 5.8 13.4 C 5.9 13.2 6.0 13.0 6.1 12.8 C 6.2 12.8 6.2 12.8 6.2 12.8 C 6.3 12.6 6.4 12.4 6.6 12.2 C 6.6 12.2 6.6 12.1 6.6 12.1 C 6.8 11.9 6.9 11.7 7.0 11.5 C 7.1 11.5 7.1 11.4 7.1 11.4 C 7.3 11.2 7.4 11.0 7.6 10.8 L 7.6 10.8 C 7.8 10.6 7.9 10.4 8.0 10.2 L 8.1 10.1 C 8.3 10.0 8.4 9.8 8.6 9.6 C 8.6 9.6 8.6 9.5 8.7 9.5 C 8.8 9.3 9.0 9.1 9.2 9.0 C 9.2 8.9 9.2 8.9 9.2 8.9 C 9.4 8.7 9.5 8.6 9.7 8.4 C 9.7 8.4 9.7 8.3 9.8 8.3 C 9.9 8.2 10.1 8.0 10.3 7.8 C 10.3 7.8 10.3 7.8 10.4 7.7 C 10.5 7.6 10.7 7.4 10.9 7.2 C 10.9 7.2 10.9 7.2 10.9 7.2 C 11.1 7.0 11.3 6.9 11.4 6.7 C 11.5 6.7 11.5 6.7 11.5 6.7 C 11.7 6.5 11.9 6.4 12.1 6.2 C 12.1 6.2 12.2 6.2 12.2 6.1 C 12.4 6.0 12.6 5.8 12.8 5.7 C 12.8 5.7 12.8 5.7 12.8 5.7 C 13.0 5.5 13.2 5.4 13.3 5.3 C 13.4 5.2 13.4 5.2 13.4 5.2 C 13.6 5.1 13.8 4.9 14.0 4.8 L 14.1 4.7 C 14.3 4.6 14.5 4.5 14.7 4.3 C 14.7 4.3 14.7 4.3 14.7 4.3 C 14.9 4.2 15.1 4.1 15.3 4.0 C 15.4 4.0 15.4 3.9 15.4 3.9 C 15.6 3.8 15.8 3.7 16.0 3.6 C 16.1 3.6 16.1 3.6 16.2 3.5 C 16.4 3.4 16.6 3.3 16.8 3.2 C 16.8 3.2 16.8 3.2 16.8 3.2 C 17.0 3.1 17.2 3.0 17.4 2.9 C 17.4 2.9 17.5 2.9 17.5 2.9 C 17.5 2.9 17.5 2.9 17.5 2.9 C 17.7 2.8 17.9 2.7 18.2 2.6 L 18.3 2.6 C 18.5 2.5 18.7 2.4 18.9 2.3 C 19.1 2.3 19.3 2.2 19.5 2.2 C 21.5 2.6 23.5 3.1 25.5 3.8 C 25.8 3.9 26.1 4.0 26.5 4.1 " fill="#DC7601"></path><path d="M 16.9 27.7 C 16.9 27.7 16.9 27.7 16.9 27.8 C 16.9 27.8 16.9 27.9 16.9 27.9 C 16.9 28.0 16.9 28.0 16.9 28.0 C 16.9 28.1 16.9 28.2 16.9 28.3 C 16.9 28.5 16.9 28.6 16.9 28.7 C 16.9 28.7 17.0 28.7 17.1 28.6 C 17.1 28.6 17.1 28.6 17.1 28.6 C 17.3 28.6 17.5 28.6 17.7 28.5 C 17.7 28.5 17.7 28.5 17.7 28.5 C 17.9 28.5 18.1 28.4 18.3 28.4 L 19.9 29.5 L 19.8 27.7 C 19.9 27.7 19.9 27.7 20.0 27.7 L 17.5 25.8 C 17.5 25.8 17.5 25.8 17.5 25.8 C 17.5 25.8 17.4 25.8 17.4 25.7 C 17.4 25.7 17.4 25.7 17.4 25.7 C 17.4 25.8 17.4 25.8 17.4 25.9 C 17.4 25.9 17.3 25.9 17.3 25.9 C 17.3 26.0 17.2 26.2 17.2 26.3 C 17.2 26.3 17.2 26.3 17.2 26.3 C 17.2 26.4 17.1 26.6 17.1 26.7 C 17.1 26.7 17.1 26.7 17.1 26.7 C 17.0 26.9 17.0 27.0 17.0 27.1 L 17.0 27.2 C 17.0 27.3 17.0 27.3 17.0 27.4 C 16.9 27.4 16.9 27.4 16.9 27.5 C 16.9 27.5 16.9 27.6 16.9 27.7 M 23.9 16.4 C 23.9 16.4 23.9 16.4 23.9 16.4 C 24.0 16.3 24.0 16.1 24.0 16.0 C 24.1 16.0 24.1 16.0 24.1 16.0 C 24.1 15.9 24.1 15.7 24.2 15.6 C 24.2 15.6 24.2 15.6 24.2 15.6 C 24.2 15.5 24.2 15.3 24.3 15.2 C 24.3 15.2 24.3 15.2 24.3 15.1 C 24.3 15.1 24.3 15.0 24.3 15.0 C 24.3 14.9 24.3 14.9 24.3 14.9 C 24.3 14.8 24.3 14.8 24.3 14.7 L 24.3 14.6 C 24.4 14.6 24.4 14.5 24.4 14.4 C 24.4 14.4 24.4 14.4 24.4 14.3 C 24.4 14.3 24.4 14.2 24.4 14.1 C 24.4 13.9 24.4 13.7 24.3 13.5 C 24.3 13.4 24.3 13.4 24.3 13.3 C 23.9 13.4 23.5 13.4 23.0 13.5 L 21.4 12.4 L 21.4 14.1 C 21.3 14.2 21.2 14.2 21.1 14.3 L 23.7 16.2 C 23.8 16.3 23.8 16.3 23.9 16.4 M 36.9 18.2 C 36.9 18.3 36.9 18.4 36.9 18.4 C 36.9 18.6 36.8 18.8 36.8 19.1 C 36.8 19.1 36.8 19.1 36.8 19.2 C 36.8 19.4 36.8 19.6 36.7 19.8 C 36.7 19.8 36.7 19.9 36.7 19.9 C 36.7 20.1 36.6 20.3 36.6 20.6 C 36.6 20.6 36.6 20.6 36.6 20.6 C 36.6 20.6 36.6 20.7 36.6 20.7 C 36.5 20.9 36.5 21.0 36.5 21.2 C 36.5 21.2 36.5 21.3 36.4 21.3 C 36.4 21.5 36.4 21.7 36.3 21.9 C 36.3 21.9 36.3 21.9 36.3 21.9 C 36.2 22.1 36.2 22.3 36.1 22.5 C 36.1 22.6 36.1 22.7 36.1 22.7 C 36.0 22.9 36.0 23.0 35.9 23.2 C 35.9 23.2 35.9 23.3 35.9 23.3 C 35.8 23.5 35.8 23.7 35.7 23.9 C 35.7 23.9 35.7 24.0 35.7 24.0 C 35.6 24.2 35.5 24.3 35.5 24.5 C 35.4 24.6 35.4 24.6 35.4 24.7 C 35.3 24.8 35.3 25.0 35.2 25.1 C 35.2 25.2 35.2 25.2 35.2 25.3 C 35.1 25.4 35.0 25.6 34.9 25.8 C 34.9 25.9 34.9 25.9 34.8 26.0 C 34.8 26.1 34.7 26.3 34.6 26.4 C 34.6 26.5 34.6 26.5 34.5 26.6 C 34.4 26.7 34.4 26.9 34.3 27.1 L 34.2 27.1 C 34.1 27.3 34.0 27.5 33.9 27.7 C 33.9 27.7 33.9 27.8 33.8 27.8 C 33.8 28.0 33.7 28.1 33.6 28.3 C 33.6 28.3 33.5 28.4 33.5 28.4 C 33.4 28.6 33.3 28.8 33.1 29.0 L 33.1 29.0 C 33.0 29.2 32.9 29.3 32.8 29.5 C 32.8 29.5 32.7 29.6 32.7 29.6 C 32.6 29.8 32.5 29.9 32.4 30.1 C 32.4 30.1 32.3 30.1 32.3 30.2 C 32.2 30.3 32.0 30.5 31.9 30.7 C 31.9 30.7 31.9 30.8 31.8 30.8 C 31.7 30.9 31.6 31.1 31.5 31.2 C 31.5 31.2 31.4 31.3 31.4 31.3 C 31.3 31.5 31.2 31.6 31.0 31.8 C 31.0 31.8 31.0 31.8 31.0 31.8 C 30.8 32.0 30.7 32.1 30.6 32.2 C 30.6 32.2 30.6 32.3 30.6 32.3 C 30.5 32.4 30.4 32.4 30.3 32.5 C 30.3 32.6 30.2 32.7 30.1 32.8 C 30.0 32.9 29.9 32.9 29.9 33.0 C 29.8 33.1 29.7 33.2 29.6 33.3 C 29.5 33.4 29.4 33.4 29.4 33.5 C 29.3 33.6 29.2 33.7 29.1 33.8 C 29.0 33.8 28.9 33.9 28.8 34.0 C 28.8 34.0 28.7 34.1 28.6 34.2 C 28.5 34.3 28.4 34.3 28.3 34.4 C 28.2 34.5 28.1 34.6 28.0 34.6 C 28.0 34.7 27.9 34.8 27.8 34.8 C 27.7 34.9 27.6 35.0 27.5 35.1 C 27.4 35.1 27.3 35.2 27.3 35.3 C 27.2 35.3 27.1 35.4 27.0 35.5 C 26.9 35.5 26.8 35.6 26.8 35.6 C 25.5 34.8 24.2 34.0 23.0 33.1 C 23.0 33.1 23.1 33.1 23.1 33.0 C 23.2 33.0 23.3 32.9 23.4 32.8 C 23.5 32.8 23.6 32.7 23.7 32.6 C 23.8 32.6 23.8 32.5 23.9 32.4 C 24.0 32.4 24.1 32.3 24.2 32.2 C 24.3 32.2 24.4 32.1 24.5 32.0 C 24.6 31.9 24.7 31.9 24.8 31.8 C 24.8 31.7 24.9 31.6 25.0 31.6 C 25.1 31.5 25.2 31.4 25.3 31.3 C 25.4 31.3 25.4 31.2 25.5 31.1 C 25.6 31.0 25.7 30.9 25.8 30.9 C 25.9 30.8 25.9 30.7 26.0 30.6 C 26.1 30.6 26.2 30.5 26.3 30.4 C 26.4 30.3 26.4 30.2 26.5 30.2 C 26.6 30.1 26.7 30.0 26.8 29.9 C 26.8 29.8 26.9 29.7 27.0 29.7 C 27.1 29.5 27.3 29.3 27.4 29.2 C 27.4 29.2 27.4 29.1 27.5 29.1 C 27.6 29.0 27.7 28.8 27.8 28.7 C 27.9 28.7 27.9 28.6 27.9 28.6 C 28.0 28.4 28.1 28.3 28.3 28.2 L 28.3 28.0 C 28.5 27.9 28.6 27.7 28.7 27.5 C 28.8 27.5 28.8 27.5 28.8 27.4 C 28.9 27.3 29.0 27.1 29.1 27.0 C 29.1 27.0 29.2 26.9 29.2 26.9 C 29.3 26.7 29.4 26.5 29.5 26.4 C 29.5 26.4 29.6 26.3 29.6 26.3 C 29.7 26.1 29.8 26.0 29.9 25.8 C 29.9 25.7 30.0 25.7 30.0 25.6 C 30.1 25.5 30.2 25.4 30.3 25.2 C 30.3 25.2 30.3 25.1 30.3 25.1 C 30.5 24.9 30.6 24.7 30.7 24.5 L 30.7 24.4 C 30.8 24.3 30.9 24.1 31.0 23.9 C 31.0 23.9 31.0 23.8 31.0 23.8 C 31.1 23.6 31.2 23.5 31.3 23.3 C 31.3 23.3 31.3 23.2 31.3 23.2 C 31.4 23.0 31.5 22.8 31.6 22.6 C 31.6 22.6 31.6 22.5 31.6 22.5 C 31.7 22.3 31.8 22.2 31.8 22.0 C 31.8 22.0 31.9 21.9 31.9 21.9 C 32.0 21.7 32.0 21.5 32.1 21.4 C 32.1 21.3 32.1 21.3 32.1 21.3 C 32.2 21.1 32.3 20.9 32.3 20.7 C 32.3 20.6 32.4 20.6 32.4 20.5 C 32.4 20.4 32.5 20.2 32.5 20.1 C 32.5 20.0 32.5 20.0 32.6 19.9 C 32.6 19.7 32.7 19.5 32.7 19.3 C 32.7 19.3 32.7 19.3 32.7 19.3 C 32.8 19.1 32.8 18.9 32.9 18.7 C 32.9 18.7 32.9 18.6 32.9 18.5 C 32.9 18.4 33.0 18.2 33.0 18.1 C 33.0 18.0 33.0 18.0 33.0 17.9 C 33.1 17.7 33.1 17.5 33.1 17.3 C 33.1 17.2 33.2 17.2 33.2 17.1 C 33.2 16.9 33.2 16.7 33.2 16.5 C 33.2 16.5 33.2 16.5 33.2 16.4 C 33.3 16.2 33.3 16.0 33.3 15.8 C 33.3 15.7 33.3 15.7 33.3 15.6 C 33.3 15.4 33.3 15.2 33.3 14.9 C 33.4 13.1 33.1 11.5 32.6 10.1 C 32.6 10.0 32.5 10.0 32.5 10.0 C 32.4 9.7 32.3 9.4 32.1 9.1 C 32.1 9.0 32.1 8.9 32.0 8.8 C 32.0 8.8 32.0 8.7 31.9 8.7 C 31.9 8.5 31.8 8.4 31.7 8.3 C 31.7 8.2 31.6 8.1 31.5 8.0 C 31.5 7.9 31.4 7.8 31.4 7.7 C 31.3 7.6 31.2 7.5 31.2 7.4 C 31.1 7.4 31.1 7.3 31.0 7.2 C 31.0 7.2 30.9 7.2 30.9 7.1 C 28.5 6.2 25.6 6.1 22.5 7.2 C 22.2 7.3 22.0 7.4 21.8 7.5 C 21.7 7.5 21.6 7.5 21.5 7.6 C 21.4 7.6 21.2 7.7 21.1 7.8 C 21.0 7.8 20.9 7.9 20.8 7.9 C 20.7 8.0 20.5 8.0 20.4 8.1 C 20.3 8.1 20.2 8.2 20.1 8.2 C 20.0 8.3 19.8 8.4 19.7 8.5 C 19.6 8.5 19.5 8.5 19.5 8.6 C 19.2 8.7 19.0 8.8 18.8 9.0 C 18.8 9.0 18.8 9.0 18.7 9.0 C 18.5 9.1 18.3 9.3 18.1 9.4 C 18.1 9.4 18.0 9.5 17.9 9.5 C 17.9 9.5 17.9 9.6 17.9 9.6 L 19.4 9.0 L 21.8 10.7 C 22.3 10.8 22.8 11.0 23.2 11.3 L 26.8 13.9 L 26.8 13.9 L 26.8 13.9 C 26.8 13.9 26.9 14.0 26.9 14.0 C 26.9 14.0 26.9 14.0 26.9 14.0 C 27.0 14.0 27.0 14.0 27.0 14.1 C 27.0 14.1 27.1 14.1 27.1 14.2 C 27.2 14.3 27.3 14.4 27.4 14.6 C 27.5 14.7 27.6 14.9 27.7 15.0 C 27.7 15.0 27.7 15.1 27.7 15.1 C 27.7 15.1 27.7 15.2 27.7 15.2 C 27.7 15.2 27.7 15.2 27.7 15.2 C 27.8 15.4 27.8 15.6 27.9 15.8 C 27.9 15.9 27.9 16.0 27.9 16.1 C 27.9 16.3 28.0 16.5 28.0 16.7 C 27.9 16.8 27.9 16.9 27.9 17.0 C 27.9 17.0 27.9 17.0 27.9 17.1 C 27.9 17.1 27.9 17.2 27.9 17.2 C 27.9 17.3 27.9 17.3 27.9 17.4 C 27.9 17.4 27.9 17.5 27.9 17.5 C 27.9 17.5 27.9 17.6 27.9 17.6 C 27.9 17.7 27.9 17.7 27.8 17.8 C 27.8 17.8 27.8 17.8 27.8 17.8 C 27.8 17.8 27.8 17.8 27.8 17.8 C 27.8 18.0 27.8 18.1 27.7 18.2 L 27.7 18.2 C 27.7 18.4 27.7 18.5 27.6 18.6 C 27.6 18.6 27.6 18.6 27.6 18.6 C 27.6 18.8 27.5 18.9 27.5 19.0 C 27.5 19.0 27.5 19.0 27.5 19.1 C 27.4 19.2 27.4 19.3 27.3 19.4 C 27.3 19.4 27.3 19.4 27.3 19.4 C 27.2 19.6 27.2 19.7 27.1 19.8 C 27.1 19.8 27.1 19.8 27.1 19.8 C 27.0 19.9 27.0 20.0 26.9 20.1 C 26.9 20.2 26.9 20.2 26.9 20.2 C 26.9 20.2 26.8 20.3 26.8 20.3 L 26.8 20.3 L 26.8 20.3 C 26.8 20.4 26.7 20.4 26.7 20.4 C 26.7 20.5 26.7 20.5 26.6 20.6 C 26.6 20.6 26.5 20.7 26.5 20.8 C 26.5 20.8 26.4 20.8 26.4 20.9 C 26.3 21.0 26.3 21.0 26.2 21.1 C 26.2 21.1 26.2 21.2 26.2 21.2 C 26.1 21.3 26.0 21.4 25.9 21.5 C 25.9 21.5 25.9 21.5 25.8 21.6 C 25.8 21.6 25.7 21.7 25.7 21.8 C 25.6 21.8 25.6 21.8 25.6 21.9 C 25.5 21.9 25.4 22.0 25.4 22.0 C 25.4 22.1 25.3 22.1 25.3 22.1 C 25.2 22.2 25.2 22.3 25.1 22.3 L 25.0 22.4 C 24.9 22.5 24.9 22.6 24.8 22.6 C 24.8 22.6 24.8 22.7 24.7 22.7 C 24.6 22.8 24.6 22.9 24.5 22.9 C 24.4 23.0 24.4 23.0 24.4 23.0 L 26.8 24.7 L 27.0 28.4 C 25.9 29.1 24.6 29.8 23.4 30.4 L 23.4 32.7 L 22.7 33.0 C 19.5 30.8 16.4 28.6 13.3 26.3 C 13.3 26.1 13.3 25.9 13.3 25.7 C 13.3 25.6 13.3 25.5 13.3 25.4 C 13.3 25.4 13.3 25.3 13.3 25.3 C 13.3 25.3 13.3 25.2 13.3 25.1 C 13.3 25.1 13.3 25.1 13.3 25.0 C 13.3 25.0 13.4 24.9 13.4 24.9 C 13.4 24.8 13.4 24.8 13.4 24.7 C 13.4 24.7 13.4 24.6 13.4 24.6 L 13.4 24.5 C 13.4 24.5 13.4 24.5 13.4 24.5 C 13.4 24.4 13.5 24.2 13.5 24.1 C 13.5 24.1 13.5 24.1 13.5 24.1 C 13.6 23.9 13.6 23.8 13.6 23.7 C 13.6 23.7 13.6 23.7 13.6 23.7 C 13.7 23.5 13.7 23.4 13.8 23.3 C 13.8 23.3 13.8 23.3 13.8 23.2 C 13.8 23.1 13.9 23.0 13.9 22.9 C 13.9 22.9 14.0 22.9 14.0 22.8 C 14.0 22.7 14.1 22.6 14.1 22.5 C 14.1 22.5 14.1 22.5 14.2 22.5 C 14.2 22.4 14.3 22.2 14.3 22.1 L 14.4 22.1 C 14.4 22.0 14.5 21.9 14.6 21.8 C 14.6 21.8 14.6 21.8 14.6 21.8 C 14.6 21.7 14.7 21.6 14.8 21.5 C 14.8 21.4 14.8 21.4 14.8 21.4 C 14.9 21.3 15.0 21.2 15.1 21.1 C 15.1 21.1 15.1 21.1 15.1 21.1 C 15.2 21.0 15.2 20.9 15.3 20.8 C 15.3 20.8 15.4 20.8 15.4 20.8 C 15.4 20.7 15.5 20.6 15.6 20.5 C 15.6 20.5 15.6 20.5 15.6 20.5 C 15.7 20.4 15.8 20.3 15.9 20.2 C 15.9 20.2 15.9 20.2 15.9 20.2 C 16.0 20.1 16.1 20.0 16.2 19.9 C 16.2 19.9 16.2 19.9 16.2 19.9 C 16.2 19.9 16.2 19.9 16.2 19.9 L 13.7 18.0 L 13.4 14.2 C 13.5 14.2 13.5 14.2 13.5 14.1 C 13.5 14.1 13.5 14.1 13.5 14.1 C 13.5 14.1 13.5 14.1 13.5 14.1 C 13.6 14.1 13.6 14.1 13.6 14.1 C 13.6 14.0 13.6 14.0 13.6 14.0 C 13.7 14.0 13.7 14.0 13.7 14.0 C 13.7 13.9 13.8 13.9 13.8 13.9 C 13.8 13.9 13.8 13.9 13.9 13.8 C 13.9 13.8 13.9 13.8 13.9 13.8 C 14.0 13.7 14.0 13.7 14.0 13.7 C 14.1 13.7 14.1 13.6 14.1 13.6 C 14.2 13.6 14.2 13.6 14.2 13.5 C 14.3 13.5 14.3 13.5 14.4 13.4 C 14.4 13.4 14.5 13.4 14.5 13.3 C 14.5 13.3 14.6 13.3 14.6 13.2 C 14.7 13.2 14.7 13.2 14.8 13.2 C 14.8 13.1 14.9 13.1 14.9 13.0 C 15.0 13.0 15.0 13.0 15.1 13.0 C 15.1 12.9 15.2 12.9 15.2 12.8 C 15.3 12.8 15.3 12.8 15.4 12.7 C 15.5 12.7 15.5 12.7 15.6 12.6 C 15.6 12.6 15.7 12.6 15.8 12.5 C 15.8 12.5 15.9 12.4 16.0 12.4 C 16.0 12.4 16.1 12.3 16.1 12.3 C 16.2 12.3 16.3 12.2 16.4 12.2 C 16.4 12.1 16.5 12.1 16.6 12.1 C 16.6 12.0 16.7 12.0 16.8 12.0 C 16.9 11.9 16.9 11.9 17.0 11.9 C 17.1 11.8 17.2 11.8 17.2 11.7 C 17.3 11.7 17.4 11.7 17.5 11.6 C 17.5 11.6 17.5 11.6 17.6 11.6 C 17.7 11.6 17.8 11.5 17.9 11.5 L 17.8 9.6 C 17.7 9.7 17.6 9.8 17.5 9.8 C 17.4 9.9 17.3 9.9 17.3 10.0 C 17.1 10.1 17.0 10.2 16.9 10.3 L 16.6 10.5 C 16.5 10.6 16.4 10.7 16.2 10.8 C 16.2 10.9 16.1 10.9 16.0 11.0 C 15.8 11.1 15.6 11.3 15.4 11.5 C 15.4 11.5 15.4 11.5 15.4 11.6 C 15.2 11.7 15.0 11.9 14.9 12.0 C 14.8 12.1 14.7 12.2 14.7 12.2 C 14.6 12.3 14.4 12.5 14.3 12.6 C 14.2 12.7 14.2 12.7 14.1 12.8 C 14.0 12.9 13.9 13.1 13.8 13.2 C 13.7 13.3 13.6 13.3 13.6 13.4 C 13.4 13.6 13.3 13.7 13.2 13.8 C 13.1 13.9 13.1 14.0 13.0 14.0 C 12.9 14.2 12.7 14.4 12.5 14.6 C 12.5 14.7 12.5 14.7 12.5 14.8 C 12.3 14.9 12.2 15.1 12.1 15.3 C 12.0 15.3 12.0 15.4 11.9 15.5 C 11.8 15.6 11.7 15.8 11.6 15.9 C 11.5 16.0 11.5 16.1 11.4 16.2 C 11.3 16.3 11.2 16.5 11.2 16.6 C 11.1 16.7 11.0 16.8 11.0 16.8 C 10.9 17.0 10.8 17.2 10.7 17.3 C 10.7 17.4 10.6 17.5 10.6 17.5 C 10.5 17.8 10.3 18.0 10.2 18.2 C 10.2 18.3 10.1 18.3 10.1 18.4 C 10.0 18.6 9.9 18.7 9.8 18.9 C 9.8 19.0 9.8 19.1 9.7 19.2 C 9.6 19.3 9.6 19.5 9.5 19.6 C 9.5 19.7 9.4 19.8 9.4 19.9 C 9.3 20.1 9.2 20.2 9.2 20.4 C 9.1 20.5 9.1 20.5 9.1 20.6 C 9.0 20.8 8.9 21.0 8.8 21.2 C 8.8 21.2 8.8 21.3 8.8 21.4 C 8.7 21.6 8.6 21.8 8.5 22.1 C 8.5 22.1 8.5 22.2 8.5 22.3 C 8.4 22.4 8.4 22.4 8.4 22.5 C 6.7 21.2 5.0 19.8 3.3 18.3 C 3.4 18.2 3.4 18.0 3.5 17.9 C 3.5 17.8 3.5 17.8 3.6 17.8 C 3.6 17.5 3.7 17.3 3.8 17.1 C 3.8 17.1 3.8 17.1 3.9 17.0 C 3.9 16.8 4.0 16.6 4.1 16.4 C 4.1 16.4 4.2 16.4 4.2 16.3 C 4.3 16.1 4.4 15.9 4.5 15.7 C 4.5 15.6 4.5 15.6 4.6 15.6 C 4.7 15.3 4.8 15.1 4.9 14.9 C 4.9 14.9 4.9 14.9 4.9 14.8 C 5.0 14.6 5.1 14.4 5.3 14.3 C 5.3 14.2 5.3 14.2 5.3 14.2 C 5.4 14.0 5.6 13.8 5.7 13.6 L 5.8 13.4 C 5.9 13.2 6.0 13.0 6.1 12.8 C 6.2 12.8 6.2 12.8 6.2 12.8 C 6.3 12.6 6.4 12.4 6.6 12.2 C 6.6 12.2 6.6 12.1 6.6 12.1 C 6.8 11.9 6.9 11.7 7.0 11.5 C 7.1 11.5 7.1 11.4 7.1 11.4 C 7.3 11.2 7.4 11.0 7.6 10.8 L 7.6 10.8 C 7.8 10.6 7.9 10.4 8.0 10.2 L 8.1 10.1 C 8.3 10.0 8.4 9.8 8.6 9.6 C 8.6 9.6 8.6 9.5 8.7 9.5 C 8.8 9.3 9.0 9.1 9.2 9.0 C 9.2 8.9 9.2 8.9 9.2 8.9 C 9.4 8.7 9.5 8.6 9.7 8.4 C 9.7 8.4 9.7 8.3 9.8 8.3 C 9.9 8.2 10.1 8.0 10.3 7.8 C 10.3 7.8 10.3 7.8 10.4 7.7 C 10.5 7.6 10.7 7.4 10.9 7.2 C 10.9 7.2 10.9 7.2 10.9 7.2 C 11.1 7.0 11.3 6.9 11.4 6.7 C 11.5 6.7 11.5 6.7 11.5 6.7 C 11.7 6.5 11.9 6.4 12.1 6.2 C 12.1 6.2 12.2 6.2 12.2 6.1 C 12.4 6.0 12.6 5.8 12.8 5.7 C 12.8 5.7 12.8 5.7 12.8 5.7 C 13.0 5.5 13.2 5.4 13.3 5.3 C 13.4 5.2 13.4 5.2 13.4 5.2 C 13.6 5.1 13.8 4.9 14.0 4.8 L 14.1 4.7 C 14.3 4.6 14.5 4.5 14.7 4.3 C 14.7 4.3 14.7 4.3 14.7 4.3 C 14.9 4.2 15.1 4.1 15.3 4.0 C 15.4 4.0 15.4 3.9 15.4 3.9 C 15.6 3.8 15.8 3.7 16.0 3.6 C 16.1 3.6 16.1 3.6 16.2 3.5 C 16.4 3.4 16.6 3.3 16.8 3.2 C 16.8 3.2 16.8 3.2 16.8 3.2 C 17.0 3.1 17.2 3.0 17.4 2.9 C 17.4 2.9 17.5 2.9 17.5 2.9 C 17.5 2.9 17.5 2.9 17.5 2.9 C 17.7 2.8 17.9 2.7 18.2 2.6 L 18.3 2.6 C 18.5 2.5 18.7 2.4 18.9 2.3 C 19.9 2.0 21.0 1.7 21.9 1.6 C 22.2 1.5 22.5 1.5 22.8 1.5 C 23.8 1.4 24.9 1.4 25.9 1.5 C 26.4 1.6 26.9 1.7 27.3 1.8 C 27.6 1.9 27.8 1.9 28.0 2.0 C 28.5 2.2 28.9 2.4 29.3 2.6 C 29.4 2.6 29.6 2.7 29.7 2.7 C 30.1 3.0 30.5 3.2 30.8 3.5 L 34.4 6.1 C 32.2 4.5 29.4 3.8 26.2 4.1 C 26.2 4.1 26.2 4.1 26.2 4.1 C 26.5 4.2 26.8 4.3 27.1 4.4 C 27.3 4.5 27.5 4.6 27.7 4.7 C 27.9 4.7 28.1 4.8 28.3 4.9 C 28.4 5.0 28.4 5.0 28.5 5.1 C 28.8 5.2 29.0 5.4 29.3 5.6 L 30.9 6.8 L 32.9 8.2 C 33.0 8.3 33.1 8.4 33.2 8.4 C 33.2 8.5 33.3 8.5 33.3 8.6 C 33.5 8.7 33.6 8.8 33.7 8.9 C 33.7 9.0 33.8 9.0 33.8 9.0 C 33.9 9.1 33.9 9.2 34.0 9.2 C 34.1 9.3 34.1 9.4 34.2 9.4 C 34.2 9.5 34.3 9.5 34.3 9.6 C 34.4 9.7 34.5 9.8 34.6 9.9 C 34.6 9.9 34.6 10.0 34.7 10.0 C 34.8 10.1 34.9 10.2 35.0 10.4 L 35.0 10.4 C 35.1 10.6 35.2 10.7 35.3 10.9 C 35.3 11.0 35.4 11.1 35.4 11.1 C 35.5 11.2 35.5 11.3 35.6 11.4 C 35.6 11.5 35.6 11.6 35.7 11.6 C 36.5 13.3 36.9 15.3 36.9 17.6 C 36.9 17.8 36.9 18.0 36.9 18.2 " fill="#D66800"></path><path d="M 23.0 13.5 C 25.8 12.8 28.0 13.7 28.0 16.7 C 27.9 22.3 20.7 24.5 20.7 27.5 C 20.7 28.6 21.6 28.9 22.8 28.5 C 23.8 28.1 24.5 27.7 25.0 27.1 C 25.0 26.9 25.0 26.8 25.0 26.8 L 25.0 25.4 L 26.8 24.7 L 27.0 28.4 C 25.9 29.1 24.6 29.8 23.4 30.4 L 23.4 32.7 L 21.9 33.3 L 21.9 31.0 C 19.0 31.9 16.8 31.1 16.9 28.3 C 17.0 22.5 24.1 20.5 24.1 17.2 C 24.1 16.0 23.1 15.8 22.0 16.2 C 20.2 16.8 19.3 17.7 19.2 17.8 C 19.1 18.3 19.0 18.7 19.1 18.8 C 19.0 19.1 19.0 19.9 19.0 20.0 L 17.3 20.7 L 17.0 16.8 C 17.1 16.7 18.7 15.2 21.4 14.1 L 21.4 12.2 L 23.0 11.6 L 23.0 13.5 M 22.0 38.1 C 30.1 35.3 36.8 26.1 36.9 17.6 C 37.0 9.1 30.6 4.4 22.5 7.2 C 14.4 10.0 7.7 19.2 7.5 27.7 C 7.4 36.3 13.9 40.9 22.0 38.1 " fill="#FFE679"></path><path d="M 36.8 15.3 C 33.7 17.3 30.3 18.7 27.0 20.1 C 27.5 19.1 27.9 18.0 28.0 16.7 C 28.0 13.7 25.8 12.8 23.0 13.5 L 23.0 11.6 L 21.4 12.2 L 21.4 14.1 C 18.7 15.2 17.1 16.7 17.0 16.8 L 17.3 20.7 L 19.0 20.0 C 19.0 19.9 19.0 19.1 19.1 18.8 C 19.0 18.7 19.1 18.3 19.2 17.8 C 19.3 17.7 20.2 16.8 22.0 16.2 C 23.1 15.8 24.1 16.0 24.1 17.2 C 24.1 19.4 20.9 21.0 18.8 23.6 C 16.4 24.7 14.1 26.1 12.0 27.8 C 10.6 29.1 9.2 30.5 8.2 32.2 C 7.7 30.8 7.5 29.4 7.5 27.7 C 7.7 19.2 14.4 10.0 22.5 7.2 C 29.8 4.7 35.8 8.3 36.8 15.3 " fill="#FFD93A"></path><path d="M 20.7 27.8 C 21.1 28.1 21.7 28.2 22.5 27.9 C 23.6 27.5 24.2 27.1 24.7 26.5 C 24.7 26.3 24.7 26.2 24.7 26.2 L 24.7 24.8 L 26.5 24.1 L 26.8 24.7 L 25.0 25.4 L 25.0 26.8 C 25.0 26.8 25.0 26.9 25.0 27.1 C 24.5 27.7 23.8 28.1 22.8 28.5 C 21.7 28.9 20.9 28.6 20.7 27.8 " fill="#C76C10"></path><path d="M 21.6 31.1 C 21.7 31.0 21.8 31.0 21.9 31.0 L 21.9 33.3 L 21.6 32.7 Z M 21.6 31.1 " fill="#C76C10"></path><path d="M 23.0 12.9 C 25.1 12.4 26.8 12.9 27.4 14.6 C 26.6 13.3 25.0 13.0 23.0 13.5 Z M 23.0 12.9 " fill="#C76C10"></path><path d="M 22.0 38.1 C 15.9 40.2 10.8 38.1 8.6 33.4 C 10.9 37.7 15.9 39.5 21.7 37.5 C 29.8 34.7 36.5 25.5 36.6 17.0 C 36.6 14.8 36.3 12.9 35.5 11.3 C 36.4 13.0 36.9 15.2 36.9 17.6 C 36.8 26.1 30.1 35.3 22.0 38.1 " fill="#C76C10"></path><path d="M 17.0 20.1 L 16.7 16.2 C 16.8 16.1 18.4 14.6 21.2 13.5 L 21.1 11.6 L 22.7 11.0 L 22.7 11.7 L 21.4 12.2 L 21.4 14.1 C 18.7 15.2 17.1 16.7 17.0 16.8 L 17.3 20.0 Z M 17.0 20.1 " fill="#C76C10"></path><path d="M 17.1 29.7 C 16.7 29.2 16.6 28.6 16.6 27.7 C 16.7 21.9 23.8 19.9 23.8 16.6 C 23.8 16.5 23.8 16.4 23.8 16.3 C 24.0 16.5 24.1 16.8 24.1 17.2 C 24.1 20.5 17.0 22.5 16.9 28.3 C 16.9 28.9 16.9 29.3 17.1 29.7 " fill="#C76C10"></path><path d="M 21.9 33.3 L 23.4 32.7 L 23.4 30.4 C 24.6 29.8 25.9 29.1 27.0 28.4 L 26.8 24.7 L 25.0 25.4 L 25.0 26.8 C 25.0 26.8 25.0 26.9 25.0 27.1 C 24.5 27.7 23.8 28.1 22.8 28.5 C 21.6 28.9 20.7 28.6 20.7 27.5 C 20.7 24.5 27.9 22.3 28.0 16.7 C 28.0 13.7 25.8 12.8 23.0 13.5 L 23.0 11.6 L 21.4 12.2 L 21.4 14.1 C 18.7 15.2 17.1 16.7 17.0 16.8 L 17.3 20.7 L 19.0 20.0 C 19.0 19.9 19.0 19.1 19.1 18.8 C 19.0 18.7 19.1 18.3 19.2 17.8 C 19.3 17.7 20.2 16.8 22.0 16.2 C 23.1 15.8 24.1 16.0 24.1 17.2 C 24.1 20.5 17.0 22.5 16.9 28.3 C 16.8 31.1 19.0 31.9 21.9 31.0 Z M 21.9 33.3 " fill="#FFF3A9"></path><path d="M 25.9 21.2 C 23.4 22.2 20.8 23.2 18.3 24.5 C 19.2 23.2 20.3 22.2 21.4 21.3 C 22.9 19.9 24.3 18.7 24.3 17.2 C 24.3 16.4 23.9 15.9 23.2 15.8 C 22.8 15.8 22.4 15.9 21.9 16.0 C 20.3 16.6 19.3 17.4 19.1 17.7 L 19.1 17.7 L 19.0 17.8 C 19.0 18.0 18.9 18.6 18.9 18.8 C 18.9 19.1 18.8 19.6 18.8 19.8 L 17.5 20.4 L 17.2 16.9 C 17.6 16.6 19.1 15.3 21.5 14.3 L 21.6 14.2 L 21.6 12.3 L 22.8 11.9 L 22.8 13.8 L 23.0 13.7 C 23.9 13.5 24.6 13.4 25.3 13.5 C 26.9 13.7 27.8 14.8 27.8 16.7 C 27.7 18.5 27.0 19.9 25.9 21.2 C 25.9 21.2 25.9 21.2 25.9 21.2 " fill="#FFE061"></path><path d="M 22.5 7.2 C 30.6 4.4 37.0 9.0 36.9 17.6 C 36.8 26.1 30.1 35.3 22.0 38.1 C 13.9 40.9 7.4 36.3 7.5 27.7 C 7.7 19.2 14.4 10.0 22.5 7.2 M 22.0 40.3 C 31.2 37.1 38.9 26.6 39.0 16.8 C 39.2 7.1 31.8 1.8 22.5 5.0 C 13.2 8.2 5.6 18.7 5.4 28.5 C 5.3 38.2 12.7 43.6 22.0 40.3 " fill="#FFF1B4"></path><path d="M 16.0 39.0 C 10.6 38.3 7.3 33.9 7.4 27.7 C 7.5 19.2 14.2 9.9 22.4 7.0 C 24.5 6.3 26.6 6.1 28.5 6.3 C 33.8 7.0 37.2 11.4 37.1 17.6 C 37.0 26.2 30.2 35.4 22.0 38.3 C 19.9 39.0 17.9 39.3 16.0 39.0 M 29.4 4.3 C 27.2 4.0 24.9 4.3 22.6 5.1 C 13.4 8.3 5.7 18.8 5.6 28.5 C 5.5 35.3 9.2 40.2 15.1 41.0 C 17.2 41.3 19.5 41.0 21.9 40.2 C 31.1 37.0 38.7 26.5 38.9 16.8 C 39.0 10.0 35.2 5.1 29.4 4.3 " fill="#FFF1B4"></path><path d="M 38.8 16.0 C 38.3 16.4 37.7 16.8 37.1 17.2 C 37.0 11.2 33.7 7.0 28.5 6.3 C 26.6 6.1 24.5 6.3 22.4 7.0 C 14.2 9.9 7.5 19.2 7.4 27.7 C 7.3 30.1 7.8 32.2 8.7 33.9 C 8.2 34.6 7.8 35.3 7.4 36.0 C 6.2 34.0 5.5 31.4 5.6 28.5 C 5.7 18.8 13.4 8.3 22.6 5.1 C 24.9 4.3 27.2 4.0 29.4 4.3 C 35.0 5.1 38.6 9.6 38.8 16.0 " fill="#FCDE53"></path></g></g></g></svg>