<?xml version="1.0" encoding="UTF-8"?><svg xmlns="http://www.w3.org/2000/svg" xmlns:xlink="http://www.w3.org/1999/xlink" clip-rule="evenodd" stroke-miterlimit="4.00" viewBox="0 0 70 78"><desc>SVG generated by Keynote</desc><defs></defs><g transform="matrix(1.00, 0.00, -0.00, -1.00, 0.0, 78.0)"><g><clipPath id="clip-409"><path d="M 1.8 1.5 L 68.1 1.5 L 68.1 76.6 L 1.8 76.6 Z M 1.8 1.5 "></path></clipPath><g clip-path="url(#clip-409)"><path d="M 35.3 12.8 C 34.9 13.0 34.5 13.2 34.1 13.4 C 34.0 13.5 33.9 13.6 33.7 13.6 C 33.5 13.8 33.2 13.9 32.9 14.1 C 32.8 14.2 32.6 14.3 32.5 14.4 C 32.2 14.5 32.0 14.7 31.7 14.9 C 31.6 15.0 31.4 15.1 31.3 15.2 C 31.0 15.3 30.8 15.5 30.5 15.7 C 30.4 15.8 30.3 15.9 30.2 16.0 C 29.8 16.3 29.4 16.5 29.0 16.8 C 29.0 16.9 29.0 16.9 28.9 16.9 C 28.6 17.2 28.3 17.5 28.0 17.8 C 27.8 17.9 27.7 18.0 27.6 18.1 C 27.6 18.1 27.6 18.1 27.5 18.1 L 30.1 16.7 L 34.9 19.3 C 35.9 19.3 36.9 19.5 37.7 20.0 L 44.8 23.9 L 44.8 23.9 L 44.8 23.9 L 44.8 23.9 C 44.9 24.0 45.0 24.0 45.0 24.1 C 45.1 24.1 45.1 24.1 45.1 24.1 C 45.2 24.1 45.2 24.2 45.2 24.2 C 45.3 24.2 45.4 24.3 45.5 24.4 C 45.7 24.6 46.0 24.8 46.2 25.1 C 46.4 25.3 46.5 25.5 46.7 25.8 C 46.7 25.8 46.7 25.9 46.8 25.9 C 46.8 26.0 46.8 26.0 46.9 26.1 C 46.9 26.1 46.9 26.1 46.9 26.1 C 47.0 26.4 47.2 26.8 47.3 27.1 C 47.3 27.3 47.4 27.5 47.4 27.7 C 47.5 28.0 47.6 28.4 47.6 28.8 C 47.6 29.0 47.6 29.1 47.7 29.3 C 47.7 29.4 47.7 29.4 47.7 29.5 C 47.7 29.6 47.7 29.7 47.7 29.8 C 47.7 29.9 47.7 29.9 47.7 30.0 C 47.7 30.1 47.7 30.2 47.7 30.3 C 47.7 30.3 47.7 30.4 47.7 30.5 C 47.7 30.6 47.7 30.7 47.7 30.7 C 47.7 30.8 47.7 30.8 47.7 30.8 C 47.7 30.8 47.7 30.9 47.7 30.9 C 47.7 31.1 47.6 31.4 47.6 31.6 C 47.6 31.6 47.6 31.6 47.6 31.6 C 47.6 31.9 47.5 32.1 47.5 32.3 C 47.5 32.4 47.5 32.4 47.5 32.4 C 47.4 32.6 47.4 32.9 47.3 33.1 C 47.3 33.1 47.3 33.2 47.3 33.2 C 47.2 33.4 47.2 33.6 47.1 33.8 L 47.1 34.0 C 47.0 34.2 46.9 34.4 46.8 34.6 C 46.8 34.6 46.8 34.7 46.8 34.7 C 46.7 34.9 46.6 35.1 46.5 35.3 C 46.5 35.3 46.5 35.3 46.5 35.4 C 46.5 35.5 46.4 35.6 46.4 35.7 C 46.4 35.7 46.3 35.7 46.3 35.7 C 46.3 35.7 46.4 35.7 46.4 35.7 C 46.3 35.8 46.3 35.8 46.3 35.9 C 46.2 36.0 46.2 36.1 46.1 36.1 C 46.1 36.3 46.0 36.4 45.9 36.6 C 45.9 36.6 45.8 36.7 45.8 36.8 C 45.7 36.9 45.6 37.1 45.5 37.3 C 45.5 37.3 45.4 37.3 45.4 37.4 C 45.3 37.6 45.2 37.8 45.0 38.0 C 45.0 38.0 45.0 38.1 44.9 38.1 C 44.8 38.3 44.7 38.4 44.6 38.6 C 44.6 38.6 44.5 38.7 44.5 38.8 C 44.4 38.9 44.3 39.0 44.2 39.2 C 44.2 39.2 44.1 39.3 44.0 39.4 C 44.0 39.5 43.9 39.6 43.8 39.7 C 43.7 39.8 43.7 39.9 43.6 39.9 C 43.5 40.1 43.4 40.2 43.3 40.4 C 43.2 40.4 43.2 40.4 43.2 40.5 C 43.0 40.7 42.9 40.8 42.7 41.0 C 42.7 41.0 42.7 41.1 42.7 41.1 L 47.4 43.7 L 48.7 50.4 C 46.8 51.9 44.6 53.6 42.5 54.9 L 43.2 59.0 L 40.5 60.5 L 35.3 57.6 C 35.2 57.6 35.1 57.6 35.0 57.6 C 34.9 57.6 34.9 57.6 34.9 57.6 C 34.6 57.6 34.4 57.6 34.1 57.5 C 34.1 57.5 34.1 57.5 34.1 57.5 C 34.0 57.5 33.9 57.5 33.8 57.4 C 33.7 57.4 33.7 57.4 33.7 57.4 C 33.6 57.4 33.5 57.4 33.4 57.3 C 33.4 57.3 33.3 57.3 33.3 57.3 C 33.2 57.3 33.0 57.2 32.9 57.2 C 32.9 57.2 32.9 57.2 32.9 57.2 C 32.8 57.1 32.7 57.1 32.6 57.0 C 32.6 57.0 32.6 57.0 32.6 57.0 L 32.6 57.0 L 27.4 54.1 L 25.4 53.0 L 25.4 53.0 C 24.1 52.3 23.2 50.9 23.0 48.7 C 23.0 48.5 22.9 48.3 22.9 48.2 C 22.9 48.1 22.9 48.1 22.9 48.0 C 22.9 47.9 22.9 47.8 22.9 47.7 C 22.9 47.6 22.9 47.5 22.9 47.5 C 22.9 47.3 22.9 47.2 22.9 47.1 C 22.9 47.1 22.9 47.0 22.9 46.9 C 22.9 46.8 22.9 46.7 22.9 46.6 C 22.9 46.6 22.9 46.6 22.9 46.5 C 22.9 46.5 22.9 46.5 22.9 46.5 C 22.9 46.2 23.0 46.0 23.0 45.8 C 23.0 45.7 23.0 45.7 23.0 45.7 C 23.0 45.4 23.1 45.2 23.1 44.9 C 23.1 44.9 23.1 44.9 23.1 44.9 C 23.2 44.7 23.2 44.4 23.3 44.2 C 23.3 44.2 23.3 44.1 23.3 44.1 C 23.3 43.9 23.4 43.7 23.5 43.4 C 23.5 43.4 23.5 43.4 23.5 43.3 C 23.6 43.1 23.7 42.9 23.7 42.7 C 23.8 42.7 23.8 42.6 23.8 42.6 C 23.9 42.4 24.0 42.2 24.0 41.9 C 24.1 41.9 24.1 41.9 24.1 41.9 C 24.2 41.7 24.3 41.5 24.4 41.3 L 24.4 41.2 C 24.5 41.0 24.6 40.8 24.7 40.6 C 24.7 40.6 24.7 40.5 24.8 40.5 C 24.9 40.3 25.0 40.1 25.1 39.9 L 25.2 39.8 C 25.3 39.6 25.4 39.5 25.5 39.3 C 25.5 39.2 25.6 39.2 25.6 39.2 C 25.7 39.0 25.8 38.8 26.0 38.6 C 26.0 38.6 26.0 38.6 26.0 38.6 C 26.1 38.4 26.3 38.2 26.4 38.0 L 26.4 38.0 C 26.6 37.8 26.7 37.6 26.9 37.4 L 26.9 37.3 C 26.9 37.3 26.9 37.3 26.9 37.3 L 22.0 34.6 L 20.5 27.6 C 20.5 27.6 20.5 27.6 20.6 27.6 C 20.6 27.6 20.6 27.5 20.6 27.5 C 20.6 27.5 20.6 27.5 20.7 27.4 C 20.7 27.4 20.7 27.4 20.7 27.4 C 20.8 27.3 20.8 27.3 20.8 27.3 C 20.9 27.2 20.9 27.2 20.9 27.2 C 21.0 27.1 21.0 27.1 21.1 27.0 C 21.1 27.0 21.1 26.9 21.2 26.9 C 21.2 26.8 21.3 26.8 21.3 26.7 C 21.4 26.7 21.4 26.6 21.5 26.6 C 21.5 26.5 21.6 26.5 21.7 26.4 C 21.7 26.3 21.8 26.3 21.8 26.2 C 21.9 26.2 22.0 26.1 22.0 26.0 C 22.1 26.0 22.2 25.9 22.2 25.9 C 22.3 25.8 22.4 25.7 22.5 25.6 C 22.5 25.6 22.6 25.5 22.7 25.4 C 22.8 25.4 22.9 25.3 22.9 25.2 C 23.0 25.1 23.1 25.1 23.2 25.0 C 23.3 24.9 23.4 24.8 23.5 24.7 C 23.6 24.7 23.7 24.6 23.7 24.5 C 23.8 24.4 23.9 24.4 24.1 24.3 C 24.2 24.2 24.2 24.1 24.3 24.0 C 24.5 24.0 24.6 23.9 24.7 23.8 C 24.8 23.7 24.9 23.6 25.0 23.5 C 25.1 23.5 25.2 23.4 25.4 23.3 C 25.5 23.2 25.6 23.1 25.7 23.0 C 25.8 23.0 26.0 22.9 26.1 22.8 C 26.2 22.7 26.3 22.6 26.5 22.5 C 26.6 22.5 26.7 22.4 26.9 22.3 C 27.0 22.2 27.1 22.1 27.3 22.0 C 27.3 22.0 27.4 22.0 27.4 21.9 C 27.6 21.8 27.8 21.7 28.0 21.6 C 28.0 21.6 28.0 21.6 28.0 21.6 L 27.4 18.2 C 27.3 18.4 27.1 18.6 26.9 18.7 C 26.8 18.8 26.6 19.0 26.5 19.1 C 26.3 19.3 26.1 19.5 25.8 19.7 C 25.7 19.9 25.6 20.0 25.5 20.1 C 25.2 20.4 25.0 20.6 24.8 20.9 C 24.7 21.0 24.6 21.1 24.5 21.2 C 24.2 21.5 23.8 21.9 23.5 22.2 C 23.5 22.3 23.4 22.4 23.4 22.4 C 23.1 22.7 22.9 23.0 22.6 23.4 C 22.5 23.5 22.4 23.6 22.3 23.8 C 22.1 24.0 21.9 24.3 21.7 24.5 C 21.6 24.7 21.5 24.8 21.4 25.0 C 21.2 25.2 21.0 25.5 20.8 25.8 C 20.7 25.9 20.6 26.0 20.5 26.2 C 20.3 26.5 20.2 26.8 20.0 27.1 C 19.9 27.2 19.8 27.3 19.7 27.4 C 19.5 27.8 19.2 28.2 19.0 28.7 C 18.9 28.7 18.9 28.8 18.8 28.9 C 18.6 29.2 18.4 29.6 18.2 29.9 C 18.2 30.1 18.1 30.2 18.0 30.4 C 17.9 30.7 17.7 31.0 17.6 31.2 C 17.5 31.4 17.4 31.6 17.3 31.7 C 17.2 32.0 17.0 32.3 16.9 32.6 C 16.8 32.8 16.7 32.9 16.7 33.1 C 16.5 33.4 16.4 33.7 16.2 34.1 C 16.2 34.2 16.1 34.3 16.1 34.4 C 15.9 34.9 15.7 35.3 15.5 35.8 C 15.5 35.9 15.5 36.0 15.4 36.1 C 15.3 36.4 15.2 36.8 15.0 37.1 C 15.0 37.3 14.9 37.5 14.9 37.6 C 14.8 37.9 14.7 38.2 14.6 38.5 C 14.5 38.7 14.5 38.9 14.4 39.0 C 14.3 39.3 14.3 39.7 14.2 40.0 C 14.1 40.1 14.1 40.3 14.0 40.4 C 13.9 40.8 13.9 41.2 13.8 41.5 C 13.8 41.6 13.7 41.7 13.7 41.8 C 13.6 42.3 13.5 42.8 13.4 43.2 C 13.4 43.4 13.4 43.5 13.4 43.6 C 13.3 43.9 13.2 44.3 13.2 44.6 C 13.2 44.8 13.1 45.0 13.1 45.1 C 13.1 45.4 13.0 45.8 13.0 46.1 C 13.0 46.2 13.0 46.4 12.9 46.6 C 12.9 46.9 12.9 47.2 12.9 47.5 C 12.8 47.7 12.8 47.8 12.8 48.0 C 12.8 48.3 12.8 48.6 12.8 48.8 C 12.8 49.1 12.8 49.3 12.8 49.5 C 12.8 49.8 12.8 50.1 12.8 50.3 C 12.8 50.5 12.8 50.7 12.8 50.9 C 12.8 51.2 12.8 51.6 12.8 51.9 C 12.8 52.0 12.8 52.2 12.8 52.4 C 12.9 52.8 12.9 53.3 13.0 53.8 C 13.2 56.2 13.8 58.4 14.5 60.4 C 14.9 61.2 15.2 61.9 15.6 62.7 C 16.2 63.7 16.8 64.7 17.5 65.6 C 18.1 66.3 18.6 66.9 19.3 67.5 C 19.3 67.5 19.3 67.5 19.3 67.5 C 19.4 67.5 19.4 67.6 19.5 67.6 C 19.7 67.6 19.8 67.7 20.0 67.7 C 20.1 67.7 20.1 67.7 20.2 67.7 C 20.4 67.8 20.6 67.8 20.8 67.8 C 20.9 67.9 20.9 67.9 21.0 67.9 C 21.2 67.9 21.3 67.9 21.5 67.9 C 21.6 68.0 21.7 68.0 21.7 68.0 C 21.9 68.0 22.1 68.0 22.3 68.0 C 22.4 68.0 22.4 68.0 22.5 68.0 C 22.7 68.1 23.0 68.1 23.2 68.1 C 23.3 68.1 23.3 68.1 23.4 68.1 C 23.6 68.1 23.8 68.1 24.0 68.1 C 24.0 68.1 24.1 68.1 24.2 68.1 C 24.4 68.1 24.7 68.1 24.9 68.1 C 24.9 68.1 24.9 68.1 24.9 68.1 C 25.2 68.0 25.4 68.0 25.7 68.0 C 25.8 68.0 25.8 68.0 25.9 68.0 C 26.1 68.0 26.3 67.9 26.5 67.9 C 26.6 67.9 26.6 67.9 26.7 67.9 C 27.0 67.8 27.2 67.8 27.5 67.8 C 27.5 67.8 27.5 67.7 27.6 67.7 C 27.8 67.7 28.0 67.7 28.3 67.6 C 28.3 67.6 28.4 67.6 28.5 67.6 C 28.7 67.5 28.9 67.5 29.1 67.4 C 29.2 67.4 29.2 67.4 29.3 67.4 C 29.6 67.3 29.8 67.2 30.1 67.1 L 30.3 67.1 C 30.5 67.0 30.7 67.0 30.9 66.9 C 31.0 66.9 31.1 66.8 31.1 66.8 C 31.4 66.7 31.6 66.6 31.8 66.6 C 31.9 66.5 31.9 66.5 32.0 66.5 C 32.2 66.4 32.5 66.3 32.8 66.2 C 32.8 66.2 32.9 66.1 33.0 66.1 C 33.2 66.0 33.4 65.9 33.6 65.8 C 33.7 65.8 33.8 65.8 33.8 65.7 C 34.1 65.6 34.4 65.5 34.7 65.3 C 35.0 65.1 35.4 65.0 35.7 64.8 C 35.8 64.7 36.0 64.6 36.1 64.6 C 36.3 64.4 36.5 64.3 36.8 64.2 C 36.9 64.1 37.0 64.0 37.2 63.9 C 37.4 63.8 37.6 63.7 37.8 63.5 C 37.9 63.4 38.1 63.3 38.2 63.2 C 38.4 63.1 38.6 63.0 38.8 62.8 C 39.0 62.7 39.1 62.6 39.3 62.5 C 39.4 62.4 39.6 62.3 39.8 62.1 C 40.0 62.0 40.1 61.9 40.3 61.8 C 40.4 61.7 40.6 61.5 40.8 61.4 C 40.9 61.3 41.1 61.1 41.2 61.0 C 41.4 60.9 41.6 60.7 41.7 60.6 C 41.9 60.5 42.0 60.3 42.2 60.2 C 42.3 60.1 42.5 59.9 42.7 59.8 C 42.8 59.6 43.0 59.5 43.1 59.4 C 43.3 59.2 43.4 59.1 43.6 58.9 C 43.7 58.8 43.9 58.6 44.0 58.5 C 44.2 58.3 44.3 58.2 44.5 58.0 C 44.6 57.9 44.8 57.7 44.9 57.6 C 45.0 57.4 45.2 57.3 45.4 57.1 C 45.5 56.9 45.6 56.8 45.7 56.7 C 45.9 56.5 46.0 56.3 46.2 56.1 C 46.3 56.0 46.5 55.8 46.6 55.7 C 46.7 55.5 46.9 55.3 47.0 55.2 C 47.1 55.0 47.3 54.9 47.4 54.7 C 47.5 54.5 47.7 54.3 47.8 54.2 C 47.9 54.0 48.0 53.9 48.2 53.7 C 48.3 53.5 48.4 53.3 48.6 53.1 C 48.7 53.0 48.8 52.8 48.9 52.7 C 49.1 52.4 49.4 52.0 49.6 51.7 C 49.6 51.7 49.6 51.6 49.7 51.6 C 49.8 51.3 50.0 51.0 50.2 50.7 C 50.3 50.6 50.3 50.5 50.4 50.4 C 50.6 50.2 50.7 49.9 50.9 49.6 C 50.9 49.6 51.0 49.5 51.0 49.4 C 51.2 49.1 51.4 48.7 51.6 48.4 C 51.7 48.3 51.7 48.2 51.7 48.2 C 51.9 47.9 52.0 47.6 52.2 47.3 C 52.2 47.2 52.3 47.1 52.3 47.0 C 52.5 46.7 52.7 46.4 52.8 46.1 C 52.8 46.1 52.8 46.0 52.9 46.0 C 53.0 45.6 53.2 45.3 53.4 44.9 C 53.4 44.8 53.5 44.7 53.5 44.6 C 53.6 44.3 53.7 44.1 53.9 43.8 C 53.9 43.7 53.9 43.6 54.0 43.5 C 54.1 43.1 54.3 42.8 54.4 42.4 C 54.4 42.4 54.4 42.3 54.5 42.3 C 54.6 42.0 54.7 41.6 54.8 41.3 C 54.9 41.2 54.9 41.1 54.9 41.0 C 55.0 40.7 55.1 40.4 55.2 40.1 C 55.3 40.0 55.3 39.9 55.3 39.8 C 55.4 39.5 55.5 39.1 55.6 38.7 C 55.7 38.7 55.7 38.6 55.7 38.5 C 55.8 38.2 55.9 37.9 56.0 37.6 C 56.0 37.5 56.0 37.4 56.0 37.3 C 56.1 37.0 56.2 36.6 56.3 36.3 C 56.3 36.3 56.3 36.2 56.3 36.1 C 56.4 35.8 56.5 35.4 56.5 35.0 C 56.6 34.9 56.6 34.8 56.6 34.7 C 56.6 34.4 56.7 34.2 56.7 33.9 C 56.8 33.8 56.8 33.7 56.8 33.5 C 56.9 33.2 56.9 32.8 57.0 32.4 C 57.0 32.4 57.0 32.4 57.0 32.3 C 57.0 32.0 57.0 31.6 57.1 31.3 C 57.1 31.2 57.1 31.1 57.1 31.0 C 57.1 30.7 57.1 30.4 57.2 30.1 C 57.2 30.0 57.2 29.9 57.2 29.8 C 57.2 29.4 57.2 29.0 57.2 28.6 C 57.2 28.5 57.2 28.4 57.2 28.3 C 57.2 27.9 57.2 27.6 57.2 27.2 C 57.2 27.1 57.2 27.1 57.2 27.0 C 57.2 26.6 57.2 26.2 57.2 25.8 C 57.2 25.7 57.1 25.6 57.1 25.5 C 57.1 25.1 57.1 24.7 57.0 24.3 C 56.6 21.0 55.8 18.0 54.5 15.5 C 54.4 15.5 54.4 15.5 54.4 15.4 C 54.1 14.9 53.8 14.3 53.4 13.8 C 53.4 13.7 53.3 13.5 53.2 13.4 C 53.1 13.3 53.0 13.2 53.0 13.1 C 52.8 12.9 52.6 12.7 52.5 12.5 C 52.4 12.3 52.2 12.2 52.1 12.0 C 52.0 11.9 51.9 11.7 51.7 11.6 C 51.6 11.4 51.4 11.3 51.3 11.1 C 51.2 11.0 51.1 10.9 51.0 10.8 C 50.9 10.7 50.8 10.7 50.7 10.6 C 46.2 9.4 40.8 10.0 35.3 12.8 M 34.4 26.0 L 39.8 28.9 C 39.9 29.0 40.0 29.1 40.1 29.2 C 40.1 29.2 40.2 29.2 40.2 29.1 C 40.2 28.9 40.3 28.7 40.3 28.4 C 40.3 28.4 40.3 28.4 40.3 28.4 C 40.4 28.2 40.4 27.9 40.4 27.7 C 40.4 27.7 40.4 27.7 40.4 27.6 C 40.5 27.4 40.5 27.2 40.5 26.9 C 40.5 26.9 40.5 26.8 40.5 26.8 C 40.5 26.7 40.5 26.6 40.5 26.5 C 40.5 26.4 40.5 26.4 40.5 26.3 C 40.5 26.2 40.5 26.1 40.5 26.0 C 40.5 26.0 40.5 25.9 40.5 25.8 C 40.5 25.7 40.5 25.6 40.5 25.5 C 40.5 25.4 40.5 25.4 40.5 25.3 C 40.5 25.2 40.5 25.0 40.5 24.8 C 40.4 24.4 40.3 24.1 40.3 23.7 C 40.2 23.6 40.2 23.5 40.2 23.5 C 39.4 23.6 38.6 23.9 37.8 24.2 L 34.6 22.4 L 35.1 25.6 C 34.9 25.7 34.7 25.8 34.4 26.0 M 32.7 52.4 L 32.7 52.4 L 35.9 54.1 L 35.4 50.9 C 35.5 50.8 35.6 50.8 35.7 50.7 L 30.7 47.9 C 30.7 47.9 30.7 47.9 30.7 47.9 C 30.6 47.9 30.6 47.8 30.5 47.8 C 30.5 47.8 30.5 47.8 30.5 47.8 C 30.5 47.9 30.5 48.0 30.4 48.1 C 30.4 48.1 30.4 48.1 30.4 48.2 C 30.4 48.4 30.3 48.6 30.3 48.9 C 30.3 48.9 30.3 48.9 30.3 48.9 C 30.2 49.1 30.2 49.4 30.1 49.6 C 30.1 49.6 30.1 49.7 30.1 49.7 C 30.1 49.9 30.1 50.2 30.1 50.4 C 30.1 50.5 30.1 50.5 30.1 50.6 C 30.1 50.7 30.1 50.8 30.1 50.9 C 30.1 51.0 30.0 51.0 30.0 51.1 C 30.0 51.2 30.1 51.3 30.1 51.4 C 30.1 51.5 30.1 51.5 30.1 51.6 C 30.1 51.7 30.1 51.8 30.1 52.0 C 30.1 52.0 30.1 52.1 30.1 52.1 C 30.1 52.3 30.1 52.5 30.1 52.7 C 30.2 52.9 30.2 53.1 30.2 53.3 C 30.4 53.3 30.5 53.2 30.6 53.2 C 30.6 53.2 30.7 53.2 30.7 53.2 C 31.0 53.1 31.3 53.0 31.6 52.8 C 31.7 52.8 31.7 52.8 31.7 52.8 C 32.1 52.7 32.4 52.5 32.7 52.4 M 59.0 15.6 C 59.2 15.9 59.4 16.2 59.6 16.4 C 59.7 16.6 59.8 16.7 59.9 16.9 C 60.1 17.0 60.2 17.2 60.3 17.4 C 60.4 17.5 60.4 17.5 60.5 17.6 C 62.4 20.5 63.7 24.0 64.2 28.3 C 64.2 28.7 64.3 29.1 64.3 29.5 C 64.3 29.6 64.3 29.7 64.3 29.8 C 64.3 30.2 64.4 30.6 64.4 31.0 C 64.4 31.0 64.4 31.1 64.4 31.2 C 64.4 31.5 64.4 31.9 64.4 32.3 C 64.4 32.4 64.4 32.5 64.4 32.6 C 64.4 33.0 64.4 33.4 64.3 33.8 C 64.3 33.8 64.3 33.8 64.3 33.9 C 64.3 33.9 64.3 34.0 64.3 34.1 C 64.3 34.3 64.3 34.6 64.3 34.9 C 64.2 35.0 64.2 35.1 64.2 35.3 C 64.2 35.6 64.2 36.0 64.1 36.3 C 64.1 36.3 64.1 36.4 64.1 36.4 C 64.1 36.8 64.0 37.1 64.0 37.5 C 63.9 37.6 63.9 37.7 63.9 37.8 C 63.9 38.1 63.8 38.4 63.8 38.7 C 63.7 38.8 63.7 38.9 63.7 39.0 C 63.6 39.4 63.5 39.7 63.5 40.1 C 63.5 40.2 63.4 40.2 63.4 40.3 C 63.4 40.6 63.3 40.9 63.2 41.2 C 63.2 41.3 63.1 41.5 63.1 41.6 C 63.0 41.9 63.0 42.2 62.9 42.5 C 62.8 42.5 62.8 42.6 62.8 42.7 C 62.7 43.1 62.6 43.4 62.5 43.8 C 62.4 43.9 62.4 44.0 62.4 44.1 C 62.3 44.4 62.2 44.6 62.1 44.9 C 62.1 45.0 62.0 45.2 62.0 45.3 C 61.9 45.6 61.7 45.9 61.6 46.2 C 61.6 46.3 61.6 46.3 61.6 46.4 C 61.4 46.7 61.3 47.1 61.1 47.5 C 61.1 47.6 61.1 47.6 61.0 47.7 C 60.9 48.0 60.8 48.3 60.7 48.6 C 60.6 48.7 60.6 48.8 60.5 48.9 C 60.4 49.2 60.2 49.6 60.0 49.9 C 60.0 50.0 60.0 50.0 60.0 50.1 C 59.8 50.4 59.7 50.7 59.5 51.0 C 59.4 51.1 59.4 51.2 59.3 51.3 C 59.2 51.6 59.0 51.8 58.9 52.1 C 58.8 52.2 58.8 52.3 58.8 52.4 C 58.6 52.7 58.4 53.0 58.2 53.4 C 58.1 53.4 58.1 53.5 58.0 53.6 C 57.9 53.9 57.7 54.1 57.6 54.4 C 57.5 54.5 57.4 54.6 57.4 54.7 C 57.2 55.0 57.0 55.3 56.8 55.5 C 56.8 55.6 56.8 55.6 56.7 55.7 C 56.5 56.0 56.3 56.2 56.2 56.5 C 56.1 56.6 56.1 56.6 56.1 56.6 C 56.0 56.8 55.9 56.9 55.7 57.1 C 55.6 57.3 55.5 57.5 55.3 57.7 C 55.2 57.8 55.1 58.0 55.0 58.1 C 54.8 58.3 54.7 58.5 54.5 58.7 C 54.4 58.8 54.3 59.0 54.2 59.1 C 54.0 59.3 53.9 59.5 53.7 59.7 C 53.6 59.8 53.5 60.0 53.4 60.1 C 53.2 60.3 53.1 60.4 52.9 60.6 C 52.8 60.8 52.6 60.9 52.5 61.1 C 52.4 61.2 52.2 61.4 52.0 61.6 C 51.9 61.7 51.8 61.8 51.6 62.0 C 51.5 62.1 51.3 62.3 51.2 62.5 C 51.0 62.6 50.9 62.7 50.7 62.9 C 50.6 63.0 50.4 63.2 50.3 63.3 C 50.1 63.5 50.0 63.6 49.8 63.7 C 49.7 63.9 49.5 64.0 49.3 64.2 C 49.2 64.3 49.0 64.4 48.9 64.5 C 48.7 64.7 48.6 64.8 48.4 65.0 C 48.2 65.1 48.1 65.2 47.9 65.3 C 47.8 65.5 47.6 65.6 47.4 65.8 C 47.3 65.9 47.1 66.0 47.0 66.1 C 46.8 66.2 46.6 66.4 46.4 66.5 C 46.3 66.6 46.1 66.7 46.0 66.8 C 45.8 66.9 45.6 67.1 45.4 67.2 C 45.2 67.3 45.1 67.4 45.0 67.5 C 44.8 67.6 44.5 67.7 44.3 67.9 C 44.2 68.0 44.1 68.0 44.0 68.1 C 44.0 68.1 43.9 68.1 43.9 68.1 C 43.7 68.3 43.5 68.4 43.2 68.5 C 43.1 68.6 43.0 68.7 42.9 68.7 C 42.5 68.9 42.2 69.1 41.8 69.3 C 41.5 69.4 41.3 69.6 41.0 69.7 C 40.9 69.7 40.8 69.8 40.8 69.8 C 40.5 69.9 40.3 70.0 40.1 70.1 C 40.1 70.1 40.0 70.1 39.9 70.2 C 39.6 70.3 39.4 70.4 39.1 70.5 C 39.1 70.5 39.0 70.5 39.0 70.5 C 38.8 70.6 38.5 70.7 38.3 70.8 C 38.2 70.8 38.1 70.8 38.1 70.8 C 37.8 70.9 37.6 71.0 37.4 71.0 C 37.4 71.1 37.3 71.1 37.2 71.1 C 37.0 71.2 36.7 71.3 36.4 71.3 C 36.4 71.3 36.3 71.4 36.3 71.4 C 36.1 71.4 35.9 71.5 35.6 71.5 C 35.6 71.5 35.5 71.5 35.4 71.6 C 35.2 71.6 35.0 71.7 34.7 71.7 C 34.7 71.7 34.7 71.7 34.6 71.7 C 34.4 71.8 34.1 71.8 33.9 71.8 C 33.8 71.9 33.7 71.9 33.6 71.9 C 33.4 71.9 33.3 71.9 33.1 71.9 C 33.0 71.9 32.9 72.0 32.8 72.0 C 32.6 72.0 32.3 72.0 32.1 72.0 L 32.1 72.0 C 31.8 72.0 31.6 72.0 31.3 72.0 C 31.3 72.0 31.2 72.0 31.1 72.0 C 30.9 72.0 30.7 72.0 30.5 72.0 C 30.5 72.0 30.4 72.0 30.4 72.0 C 30.1 72.0 29.9 72.0 29.6 72.0 C 29.6 72.0 29.5 72.0 29.5 72.0 C 29.3 72.0 29.1 72.0 28.9 71.9 C 28.8 71.9 28.8 71.9 28.7 71.9 C 28.5 71.9 28.3 71.9 28.1 71.8 C 28.1 71.8 28.0 71.8 28.0 71.8 L 28.0 71.8 C 27.7 71.8 27.5 71.7 27.3 71.7 C 27.3 71.7 27.2 71.7 27.2 71.6 C 27.0 71.6 26.8 71.6 26.7 71.5 C 26.6 71.5 26.5 71.5 26.4 71.5 C 26.3 71.4 26.1 71.4 26.0 71.4 C 25.9 71.3 25.9 71.3 25.8 71.3 C 25.6 71.2 25.4 71.2 25.3 71.1 C 25.2 71.1 25.2 71.1 25.2 71.1 C 25.0 71.0 24.8 70.9 24.6 70.9 C 24.5 70.8 24.4 70.8 24.4 70.8 C 24.2 70.7 24.1 70.7 23.9 70.6 C 23.9 70.6 23.8 70.6 23.7 70.5 C 23.6 70.5 23.5 70.4 23.3 70.3 C 23.3 70.3 23.2 70.3 23.1 70.2 C 23.0 70.1 22.8 70.0 22.6 69.9 L 22.6 69.9 L 22.6 69.9 L 22.6 69.9 L 18.6 67.8 L 15.4 66.0 L 15.4 66.0 L 15.4 66.0 L 15.4 66.0 L 15.4 66.0 C 13.6 65.0 12.0 63.6 10.6 62.0 C 12.5 67.6 15.9 71.7 20.2 74.1 L 13.1 70.2 C 7.2 66.9 3.1 60.5 2.1 51.7 C 2.0 51.2 2.0 50.7 1.9 50.2 C 1.9 50.1 1.9 50.1 1.9 50.1 C 1.9 49.6 1.9 49.1 1.9 48.6 C 1.9 48.6 1.9 48.5 1.9 48.4 C 1.8 48.0 1.8 47.5 1.8 47.0 C 1.8 46.9 1.8 46.9 1.8 46.8 C 1.9 46.3 1.9 45.9 1.9 45.4 C 1.9 45.4 1.9 45.3 1.9 45.3 C 1.9 45.2 1.9 45.2 1.9 45.1 C 1.9 44.7 2.0 44.3 2.0 43.9 C 2.0 43.8 2.0 43.8 2.0 43.7 C 2.1 43.3 2.1 42.9 2.1 42.5 C 2.2 42.5 2.2 42.4 2.2 42.4 C 2.2 41.9 2.3 41.5 2.3 41.1 C 2.4 41.0 2.4 40.9 2.4 40.8 C 2.5 40.4 2.5 40.0 2.6 39.6 C 2.6 39.5 2.6 39.5 2.6 39.4 C 2.7 39.0 2.8 38.6 2.9 38.2 C 2.9 38.1 2.9 38.1 2.9 38.0 C 3.0 37.6 3.1 37.2 3.2 36.8 C 3.2 36.7 3.3 36.6 3.3 36.5 C 3.4 36.1 3.5 35.7 3.6 35.3 C 3.6 35.2 3.7 35.2 3.7 35.1 C 3.8 34.7 3.9 34.3 4.0 33.9 C 4.1 33.9 4.1 33.8 4.1 33.7 C 4.2 33.3 4.4 32.9 4.5 32.5 C 4.5 32.4 4.6 32.3 4.6 32.2 C 4.7 31.8 4.9 31.4 5.0 31.0 C 5.1 31.0 5.1 30.9 5.1 30.9 C 5.3 30.5 5.4 30.1 5.6 29.7 C 5.6 29.6 5.6 29.6 5.6 29.5 C 5.8 29.1 6.0 28.7 6.2 28.3 C 6.2 28.2 6.2 28.2 6.3 28.1 C 6.5 27.7 6.6 27.3 6.8 26.9 C 6.9 26.8 6.9 26.8 6.9 26.7 C 7.1 26.4 7.3 26.0 7.5 25.6 C 7.5 25.6 7.5 25.5 7.6 25.4 C 7.8 25.0 8.0 24.7 8.2 24.3 C 8.2 24.2 8.3 24.1 8.3 24.0 C 8.5 23.7 8.8 23.3 9.0 22.9 C 9.0 22.8 9.0 22.8 9.0 22.8 C 9.3 22.4 9.5 22.0 9.7 21.7 C 9.7 21.6 9.8 21.6 9.8 21.5 C 10.1 21.1 10.3 20.8 10.5 20.4 C 10.6 20.3 10.6 20.3 10.7 20.2 C 10.9 19.8 11.2 19.5 11.4 19.1 C 11.5 19.1 11.5 19.0 11.5 19.0 C 11.8 18.7 12.0 18.3 12.3 18.0 L 12.4 17.8 C 12.7 17.5 12.9 17.1 13.2 16.8 C 13.2 16.7 13.3 16.6 13.4 16.6 C 13.6 16.2 13.9 15.9 14.2 15.5 C 14.2 15.5 14.2 15.5 14.3 15.5 C 14.5 15.1 14.8 14.8 15.1 14.5 C 15.1 14.5 15.2 14.4 15.2 14.3 C 15.5 14.0 15.8 13.7 16.1 13.4 C 16.2 13.3 16.2 13.3 16.3 13.2 C 16.6 12.9 16.9 12.6 17.2 12.3 C 17.2 12.3 17.3 12.2 17.3 12.2 C 17.6 11.9 17.9 11.6 18.2 11.4 C 18.3 11.3 18.3 11.3 18.4 11.2 C 18.7 10.9 19.0 10.6 19.3 10.4 C 19.4 10.3 19.4 10.2 19.5 10.2 C 19.8 9.9 20.2 9.6 20.5 9.4 C 20.5 9.3 20.5 9.3 20.6 9.3 C 20.9 9.1 21.2 8.8 21.5 8.5 C 21.6 8.5 21.7 8.5 21.7 8.4 C 22.1 8.2 22.4 7.9 22.7 7.7 C 22.8 7.6 22.9 7.6 22.9 7.5 C 23.3 7.3 23.6 7.0 24.0 6.8 C 24.0 6.8 24.0 6.8 24.0 6.8 C 24.4 6.6 24.7 6.3 25.1 6.1 C 25.1 6.1 25.2 6.1 25.2 6.1 C 25.3 6.0 25.3 6.0 25.3 6.0 C 25.7 5.8 26.0 5.6 26.4 5.4 C 26.4 5.4 26.5 5.3 26.6 5.3 C 27.0 5.1 27.3 4.9 27.7 4.7 C 29.5 3.8 31.3 3.1 33.0 2.6 C 33.5 2.4 34.0 2.3 34.5 2.2 C 36.5 1.7 38.4 1.5 40.2 1.5 C 41.2 1.5 42.1 1.6 43.0 1.7 C 43.4 1.8 43.8 1.9 44.3 1.9 C 45.1 2.1 46.0 2.4 46.8 2.6 C 47.0 2.7 47.2 2.8 47.4 2.9 C 48.2 3.2 49.0 3.5 49.7 3.9 L 56.9 7.9 C 52.5 5.5 47.2 4.8 41.5 6.2 C 41.5 6.2 41.5 6.2 41.5 6.2 C 42.1 6.3 42.6 6.4 43.2 6.5 C 43.6 6.6 43.9 6.7 44.3 6.8 C 44.7 6.9 45.0 7.1 45.4 7.2 C 45.6 7.3 45.7 7.3 45.9 7.4 C 46.4 7.6 46.9 7.9 47.4 8.2 L 50.6 9.9 L 54.6 12.1 C 54.8 12.2 55.0 12.3 55.2 12.5 C 55.3 12.5 55.4 12.6 55.5 12.7 C 55.8 12.8 56.0 13.0 56.3 13.2 C 56.3 13.2 56.4 13.3 56.4 13.3 C 56.6 13.4 56.8 13.6 56.9 13.7 C 57.0 13.8 57.2 13.9 57.3 14.0 C 57.4 14.1 57.5 14.2 57.6 14.2 C 57.7 14.4 57.9 14.6 58.1 14.7 C 58.2 14.8 58.2 14.9 58.3 15.0 C 58.5 15.2 58.7 15.4 58.9 15.6 C 58.9 15.6 58.9 15.6 59.0 15.6 " fill="#F38907"></path><path d="M 15.4 66.0 L 15.4 66.0 L 15.4 66.0 Z M 15.4 66.0 " fill="#DC7601"></path><path d="M 30.1 51.4 C 30.1 51.5 30.1 51.5 30.1 51.6 C 30.1 51.7 30.1 51.8 30.1 52.0 C 30.1 52.0 30.1 52.1 30.1 52.1 C 30.1 52.3 30.1 52.5 30.1 52.7 C 30.2 52.9 30.2 53.1 30.2 53.3 C 30.4 53.3 30.5 53.2 30.6 53.2 C 30.6 53.2 30.7 53.2 30.7 53.2 C 31.0 53.1 31.3 53.0 31.6 52.8 C 31.7 52.8 31.7 52.8 31.7 52.8 C 32.1 52.7 32.4 52.5 32.7 52.4 L 35.9 54.1 L 35.4 50.9 C 35.5 50.8 35.6 50.8 35.7 50.7 L 30.7 47.9 C 30.7 47.9 30.7 47.9 30.7 47.9 C 30.6 47.9 30.6 47.8 30.5 47.8 C 30.5 47.8 30.5 47.8 30.5 47.8 C 30.5 47.9 30.5 48.0 30.4 48.1 C 30.4 48.1 30.4 48.1 30.4 48.2 C 30.4 48.4 30.3 48.6 30.3 48.9 C 30.3 48.9 30.3 48.9 30.3 48.9 C 30.2 49.1 30.2 49.4 30.2 49.6 C 30.1 49.6 30.1 49.7 30.1 49.7 C 30.1 49.9 30.1 50.2 30.1 50.4 C 30.1 50.5 30.1 50.5 30.1 50.6 C 30.1 50.7 30.1 50.8 30.1 50.9 C 30.1 51.0 30.0 51.0 30.0 51.1 C 30.0 51.2 30.1 51.3 30.1 51.4 M 40.1 29.2 C 40.1 29.2 40.2 29.2 40.2 29.1 C 40.2 28.9 40.3 28.7 40.3 28.4 C 40.3 28.4 40.3 28.4 40.3 28.4 C 40.4 28.2 40.4 27.9 40.4 27.7 C 40.4 27.7 40.4 27.7 40.4 27.6 C 40.5 27.4 40.5 27.2 40.5 26.9 C 40.5 26.9 40.5 26.8 40.5 26.8 C 40.5 26.7 40.5 26.6 40.5 26.5 C 40.5 26.4 40.5 26.4 40.5 26.3 C 40.5 26.2 40.5 26.1 40.5 26.0 C 40.5 26.0 40.5 25.9 40.5 25.8 C 40.5 25.7 40.5 25.6 40.5 25.5 C 40.5 25.4 40.5 25.4 40.5 25.3 C 40.5 25.2 40.5 25.0 40.5 24.8 C 40.4 24.4 40.3 24.1 40.3 23.7 C 40.2 23.6 40.2 23.5 40.2 23.5 C 39.4 23.6 38.6 23.9 37.8 24.2 L 34.6 22.4 L 35.1 25.6 C 34.9 25.7 34.7 25.9 34.4 26.0 L 39.8 28.9 C 39.9 29.0 40.0 29.1 40.1 29.2 M 41.9 6.1 C 41.8 6.1 41.6 6.2 41.5 6.2 C 41.5 6.2 41.5 6.2 41.5 6.2 C 42.1 6.3 42.6 6.4 43.2 6.5 C 43.6 6.6 43.9 6.7 44.3 6.8 C 44.7 6.9 45.0 7.1 45.4 7.2 C 45.6 7.3 45.7 7.3 45.9 7.4 C 46.4 7.6 46.9 7.9 47.4 8.2 L 50.6 9.9 L 54.6 12.1 C 54.8 12.2 55.0 12.3 55.2 12.5 C 55.3 12.5 55.4 12.6 55.5 12.7 C 55.8 12.8 56.0 13.0 56.3 13.2 C 56.3 13.2 56.4 13.3 56.4 13.3 C 56.6 13.4 56.8 13.6 56.9 13.7 C 57.0 13.8 57.2 13.9 57.3 14.0 C 57.4 14.1 57.5 14.2 57.6 14.2 C 57.7 14.4 57.9 14.6 58.1 14.7 C 58.2 14.8 58.2 14.9 58.3 15.0 C 58.5 15.2 58.7 15.3 58.9 15.6 C 58.9 15.6 58.9 15.6 59.0 15.6 C 59.2 15.9 59.4 16.2 59.6 16.4 C 59.7 16.6 59.8 16.7 59.9 16.9 C 60.1 17.0 60.2 17.2 60.3 17.4 C 60.4 17.5 60.4 17.5 60.5 17.6 C 62.4 20.5 63.7 24.0 64.2 28.3 C 64.2 28.3 64.2 28.3 64.2 28.3 L 56.1 37.0 C 56.2 36.8 56.2 36.5 56.3 36.3 C 56.3 36.3 56.3 36.2 56.3 36.1 C 56.4 35.8 56.5 35.4 56.5 35.0 C 56.6 34.9 56.6 34.8 56.6 34.7 C 56.6 34.4 56.7 34.1 56.7 33.9 C 56.8 33.8 56.8 33.6 56.8 33.5 C 56.9 33.2 56.9 32.8 57.0 32.4 C 57.0 32.4 57.0 32.4 57.0 32.3 C 57.0 32.0 57.0 31.6 57.1 31.3 C 57.1 31.2 57.1 31.1 57.1 31.0 C 57.1 30.7 57.1 30.4 57.2 30.1 C 57.2 30.0 57.2 29.9 57.2 29.8 C 57.2 29.4 57.2 29.0 57.2 28.6 C 57.2 28.5 57.2 28.4 57.2 28.3 C 57.2 27.9 57.2 27.6 57.2 27.2 C 57.2 27.1 57.2 27.1 57.2 27.0 C 57.2 26.6 57.2 26.2 57.2 25.8 C 57.2 25.7 57.1 25.6 57.1 25.5 C 57.1 25.1 57.1 24.7 57.0 24.3 C 56.6 21.0 55.8 18.0 54.5 15.5 C 54.4 15.5 54.4 15.5 54.4 15.4 C 54.1 14.9 53.8 14.3 53.4 13.8 C 53.4 13.7 53.3 13.5 53.2 13.4 C 53.1 13.3 53.0 13.2 53.0 13.1 C 52.8 12.9 52.6 12.7 52.5 12.5 C 52.4 12.3 52.2 12.2 52.1 12.0 C 52.0 11.9 51.9 11.7 51.7 11.6 C 51.6 11.4 51.4 11.3 51.3 11.1 C 51.2 11.0 51.1 10.9 51.0 10.8 C 50.9 10.7 50.8 10.7 50.7 10.6 C 46.2 9.4 40.8 10.0 35.3 12.8 C 34.9 13.0 34.5 13.2 34.1 13.4 C 34.0 13.5 33.9 13.6 33.7 13.6 C 33.5 13.8 33.2 13.9 32.9 14.1 C 32.8 14.2 32.6 14.3 32.5 14.4 C 32.2 14.5 32.0 14.7 31.7 14.9 C 31.6 15.0 31.4 15.1 31.3 15.2 C 31.0 15.3 30.8 15.5 30.5 15.7 C 30.4 15.8 30.3 15.9 30.2 16.0 C 29.8 16.3 29.4 16.5 29.0 16.8 C 29.0 16.9 29.0 16.9 28.9 16.9 C 28.6 17.2 28.3 17.5 28.0 17.8 C 27.8 17.9 27.7 18.0 27.6 18.1 C 27.6 18.1 27.6 18.1 27.5 18.1 L 30.1 16.7 L 34.9 19.3 C 35.9 19.3 36.9 19.5 37.7 20.0 L 44.8 23.9 L 44.8 23.9 L 44.8 23.9 L 44.8 23.9 C 44.9 24.0 45.0 24.0 45.0 24.1 C 45.1 24.1 45.1 24.1 45.1 24.1 C 45.1 24.1 45.2 24.2 45.2 24.2 C 45.3 24.2 45.4 24.3 45.5 24.4 C 45.7 24.6 46.0 24.8 46.2 25.1 C 46.4 25.3 46.5 25.5 46.7 25.8 C 46.7 25.8 46.8 25.9 46.8 25.9 C 46.8 26.0 46.8 26.0 46.9 26.1 C 46.9 26.1 46.9 26.1 46.9 26.1 C 47.0 26.4 47.2 26.8 47.3 27.1 C 47.3 27.3 47.4 27.5 47.4 27.7 C 47.5 28.0 47.6 28.4 47.6 28.8 C 47.6 29.0 47.7 29.1 47.7 29.3 C 47.7 29.4 47.7 29.4 47.7 29.5 C 47.7 29.6 47.7 29.7 47.7 29.8 C 47.7 29.8 47.7 29.9 47.7 30.0 C 47.7 30.1 47.7 30.2 47.7 30.3 C 47.7 30.3 47.7 30.4 47.7 30.5 C 47.7 30.6 47.7 30.7 47.7 30.7 C 47.7 30.8 47.7 30.8 47.7 30.8 C 47.7 30.8 47.7 30.8 47.7 30.9 C 47.7 31.1 47.6 31.4 47.6 31.6 C 47.6 31.6 47.6 31.6 47.6 31.6 C 47.6 31.9 47.5 32.1 47.5 32.3 C 47.5 32.4 47.5 32.4 47.5 32.4 C 47.4 32.6 47.4 32.9 47.3 33.1 C 47.3 33.1 47.3 33.2 47.3 33.2 C 47.2 33.4 47.2 33.6 47.1 33.8 L 47.1 34.0 C 47.0 34.2 46.9 34.4 46.8 34.6 C 46.8 34.6 46.8 34.7 46.8 34.7 C 46.7 34.9 46.6 35.1 46.5 35.3 C 46.5 35.3 46.5 35.3 46.5 35.4 C 46.5 35.5 46.4 35.6 46.4 35.7 C 46.4 35.7 46.4 35.7 46.3 35.7 C 46.4 35.7 46.4 35.7 46.4 35.7 C 46.3 35.8 46.3 35.8 46.3 35.9 C 46.2 36.0 46.2 36.1 46.1 36.1 C 46.1 36.3 46.0 36.4 45.9 36.6 C 45.9 36.6 45.8 36.7 45.8 36.8 C 45.7 36.9 45.6 37.1 45.5 37.3 C 45.5 37.3 45.4 37.3 45.4 37.4 C 45.3 37.6 45.2 37.8 45.0 38.0 C 45.0 38.0 45.0 38.1 44.9 38.1 C 44.8 38.3 44.7 38.4 44.6 38.6 C 44.6 38.6 44.5 38.7 44.5 38.8 C 44.4 38.9 44.3 39.0 44.2 39.2 C 44.2 39.2 44.1 39.3 44.0 39.4 C 44.0 39.5 43.9 39.6 43.8 39.7 C 43.7 39.8 43.7 39.9 43.6 39.9 C 43.5 40.1 43.4 40.2 43.3 40.4 C 43.2 40.4 43.2 40.4 43.2 40.5 C 43.0 40.7 42.9 40.8 42.7 41.0 C 42.7 41.0 42.7 41.0 42.7 41.1 L 47.4 43.7 L 47.8 45.9 L 36.4 58.2 L 35.3 57.6 C 35.2 57.6 35.1 57.6 35.0 57.6 C 34.9 57.6 34.9 57.6 34.9 57.6 C 34.6 57.6 34.4 57.6 34.1 57.5 C 34.1 57.5 34.1 57.5 34.1 57.5 C 34.0 57.5 33.9 57.5 33.8 57.4 C 33.7 57.4 33.7 57.4 33.7 57.4 C 33.6 57.4 33.5 57.4 33.4 57.3 C 33.4 57.3 33.3 57.3 33.3 57.3 C 33.2 57.3 33.0 57.2 32.9 57.2 C 32.9 57.2 32.9 57.2 32.9 57.2 C 32.8 57.1 32.7 57.1 32.6 57.0 C 32.6 57.0 32.6 57.0 32.6 57.0 L 32.6 57.0 L 27.4 54.1 L 25.4 53.0 L 25.4 53.0 C 24.1 52.3 23.2 50.9 23.0 48.7 C 23.0 48.5 22.9 48.3 22.9 48.2 C 22.9 48.1 22.9 48.1 22.9 48.0 C 22.9 47.9 22.9 47.8 22.9 47.7 C 22.9 47.6 22.9 47.5 22.9 47.5 C 22.9 47.3 22.9 47.2 22.9 47.1 C 22.9 47.1 22.9 47.0 22.9 46.9 C 22.9 46.8 22.9 46.7 22.9 46.6 C 22.9 46.6 22.9 46.6 22.9 46.5 C 22.9 46.5 22.9 46.5 22.9 46.5 C 22.9 46.2 23.0 46.0 23.0 45.8 C 23.0 45.7 23.0 45.7 23.0 45.7 C 23.0 45.4 23.1 45.2 23.1 44.9 C 23.1 44.9 23.1 44.9 23.1 44.9 C 23.2 44.7 23.2 44.4 23.3 44.2 C 23.3 44.2 23.3 44.1 23.3 44.1 C 23.3 43.9 23.4 43.7 23.5 43.4 C 23.5 43.4 23.5 43.4 23.5 43.3 C 23.6 43.1 23.7 42.9 23.7 42.7 C 23.8 42.7 23.8 42.6 23.8 42.6 C 23.9 42.4 24.0 42.2 24.0 41.9 C 24.1 41.9 24.1 41.9 24.1 41.9 C 24.2 41.7 24.3 41.5 24.4 41.3 L 24.4 41.2 C 24.5 41.0 24.6 40.8 24.7 40.6 C 24.7 40.6 24.7 40.5 24.8 40.5 C 24.9 40.3 25.0 40.1 25.1 39.9 L 25.2 39.8 C 25.3 39.6 25.4 39.5 25.5 39.3 C 25.5 39.2 25.6 39.2 25.6 39.2 C 25.7 39.0 25.8 38.8 26.0 38.6 C 26.0 38.6 26.0 38.6 26.0 38.6 C 26.1 38.4 26.3 38.2 26.4 38.0 L 26.4 38.0 C 26.6 37.8 26.7 37.6 26.9 37.4 L 26.9 37.3 C 26.9 37.3 26.9 37.3 26.9 37.3 L 22.0 34.6 L 20.5 27.6 C 20.5 27.6 20.5 27.6 20.6 27.6 C 20.6 27.6 20.6 27.5 20.6 27.5 C 20.6 27.5 20.6 27.5 20.7 27.4 C 20.7 27.4 20.7 27.4 20.7 27.4 C 20.8 27.3 20.8 27.3 20.8 27.3 C 20.9 27.2 20.9 27.2 20.9 27.2 C 21.0 27.1 21.0 27.1 21.1 27.0 C 21.1 27.0 21.1 26.9 21.2 26.9 C 21.2 26.8 21.3 26.8 21.3 26.7 C 21.4 26.7 21.4 26.6 21.5 26.6 C 21.5 26.5 21.6 26.5 21.7 26.4 C 21.7 26.3 21.8 26.3 21.8 26.2 C 21.9 26.2 22.0 26.1 22.0 26.0 C 22.1 26.0 22.2 25.9 22.2 25.9 C 22.3 25.8 22.4 25.7 22.5 25.6 C 22.5 25.6 22.6 25.5 22.7 25.4 C 22.8 25.4 22.9 25.3 22.9 25.2 C 23.0 25.1 23.1 25.1 23.2 25.0 C 23.3 24.9 23.4 24.8 23.5 24.7 C 23.6 24.7 23.7 24.6 23.7 24.5 C 23.8 24.4 23.9 24.4 24.1 24.3 C 24.2 24.2 24.2 24.1 24.3 24.0 C 24.5 24.0 24.6 23.9 24.7 23.8 C 24.8 23.7 24.9 23.6 25.0 23.5 C 25.1 23.5 25.2 23.4 25.4 23.3 C 25.5 23.2 25.6 23.1 25.7 23.0 C 25.8 23.0 26.0 22.9 26.1 22.8 C 26.2 22.7 26.3 22.6 26.5 22.5 C 26.6 22.5 26.7 22.4 26.9 22.3 C 27.0 22.2 27.1 22.1 27.3 22.0 C 27.3 22.0 27.4 22.0 27.4 21.9 C 27.6 21.8 27.8 21.7 28.0 21.6 C 28.0 21.6 28.0 21.6 28.0 21.6 L 27.4 18.2 C 27.3 18.4 27.1 18.5 26.9 18.7 C 26.8 18.8 26.6 19.0 26.5 19.1 C 26.3 19.3 26.1 19.5 25.8 19.7 C 25.7 19.9 25.6 20.0 25.5 20.1 C 25.2 20.4 25.0 20.6 24.8 20.9 C 24.7 21.0 24.6 21.1 24.5 21.2 C 24.2 21.5 23.8 21.9 23.5 22.2 C 23.5 22.3 23.4 22.4 23.4 22.4 C 23.1 22.7 22.9 23.0 22.6 23.4 C 22.5 23.5 22.4 23.6 22.3 23.8 C 22.1 24.0 21.9 24.3 21.7 24.5 C 21.6 24.7 21.5 24.8 21.4 25.0 C 21.2 25.2 21.0 25.5 20.8 25.8 C 20.7 25.9 20.6 26.0 20.5 26.2 C 20.3 26.5 20.2 26.8 20.0 27.1 C 19.9 27.2 19.8 27.3 19.7 27.4 C 19.5 27.8 19.2 28.2 19.0 28.7 C 18.9 28.7 18.9 28.8 18.8 28.9 C 18.6 29.2 18.4 29.6 18.2 29.9 C 18.2 30.1 18.1 30.2 18.0 30.4 C 17.9 30.7 17.7 31.0 17.6 31.2 C 17.5 31.4 17.4 31.6 17.3 31.7 C 17.2 32.0 17.0 32.3 16.9 32.6 C 16.8 32.8 16.7 32.9 16.7 33.1 C 16.5 33.4 16.4 33.7 16.2 34.1 C 16.2 34.2 16.1 34.3 16.1 34.4 C 15.9 34.9 15.7 35.3 15.5 35.8 C 15.5 35.9 15.5 36.0 15.4 36.1 C 15.3 36.4 15.2 36.8 15.0 37.1 C 15.0 37.3 14.9 37.5 14.9 37.6 C 14.8 37.9 14.7 38.2 14.6 38.5 C 14.5 38.7 14.5 38.9 14.4 39.0 C 14.3 39.3 14.3 39.7 14.2 40.0 C 14.1 40.1 14.1 40.3 14.0 40.4 C 13.9 40.8 13.9 41.2 13.8 41.5 C 13.8 41.6 13.7 41.7 13.7 41.8 C 13.6 42.3 13.5 42.8 13.4 43.2 C 13.4 43.4 13.4 43.5 13.4 43.6 C 13.3 43.9 13.2 44.3 13.2 44.6 C 13.2 44.8 13.1 45.0 13.1 45.1 C 13.1 45.4 13.0 45.8 13.0 46.1 C 13.0 46.2 13.0 46.4 12.9 46.6 C 12.9 46.9 12.9 47.2 12.9 47.5 C 12.8 47.7 12.8 47.8 12.8 48.0 C 12.8 48.3 12.8 48.6 12.8 48.8 C 12.8 49.1 12.8 49.3 12.8 49.5 C 12.8 49.8 12.8 50.1 12.8 50.3 C 12.8 50.5 12.8 50.7 12.8 50.9 C 12.8 51.2 12.8 51.6 12.8 51.9 C 12.8 52.0 12.8 52.2 12.8 52.4 C 12.9 52.8 12.9 53.3 13.0 53.8 C 13.2 56.2 13.8 58.4 14.5 60.4 C 14.9 61.2 15.2 61.9 15.6 62.6 C 16.1 63.7 16.8 64.7 17.5 65.6 C 18.1 66.3 18.6 66.9 19.3 67.5 C 19.3 67.5 19.3 67.5 19.3 67.5 C 19.4 67.5 19.4 67.6 19.5 67.6 C 19.7 67.6 19.8 67.7 20.0 67.7 C 20.1 67.7 20.1 67.7 20.2 67.7 C 20.4 67.8 20.6 67.8 20.8 67.8 C 20.9 67.8 20.9 67.9 21.0 67.9 C 21.2 67.9 21.3 67.9 21.5 67.9 C 21.6 68.0 21.7 68.0 21.7 68.0 C 21.9 68.0 22.1 68.0 22.3 68.0 C 22.4 68.0 22.4 68.0 22.5 68.0 C 22.7 68.1 23.0 68.1 23.2 68.1 C 23.3 68.1 23.3 68.1 23.4 68.1 C 23.6 68.1 23.8 68.1 24.0 68.1 C 24.0 68.1 24.1 68.1 24.2 68.1 C 24.4 68.1 24.7 68.1 24.9 68.1 C 24.9 68.1 24.9 68.1 24.9 68.1 C 25.2 68.0 25.4 68.0 25.7 68.0 C 25.8 68.0 25.8 68.0 25.9 68.0 C 26.1 68.0 26.3 67.9 26.5 67.9 C 26.6 67.9 26.6 67.9 26.7 67.9 C 27.0 67.8 27.2 67.8 27.5 67.8 C 27.5 67.8 27.5 67.8 27.5 67.8 L 24.6 70.9 C 24.6 70.9 24.6 70.9 24.6 70.9 C 24.5 70.8 24.4 70.8 24.4 70.8 C 24.2 70.7 24.1 70.7 23.9 70.6 C 23.9 70.6 23.8 70.6 23.7 70.5 C 23.6 70.5 23.5 70.4 23.3 70.3 C 23.3 70.3 23.2 70.3 23.1 70.2 C 23.0 70.1 22.8 70.0 22.6 69.9 L 22.6 69.9 L 22.6 69.9 L 22.6 69.9 L 18.6 67.8 L 15.4 66.0 L 15.4 66.0 C 14.7 65.6 14.1 65.2 13.5 64.7 C 13.2 64.5 12.9 64.2 12.6 64.0 C 11.9 63.4 11.2 62.7 10.6 62.0 C 10.7 62.1 10.7 62.3 10.8 62.5 C 8.0 60.0 5.3 57.4 2.6 54.8 C 2.4 53.8 2.2 52.8 2.1 51.7 C 2.0 51.2 2.0 50.7 1.9 50.2 C 1.9 50.1 1.9 50.1 1.9 50.1 C 1.9 49.6 1.9 49.1 1.9 48.6 C 1.9 48.6 1.9 48.5 1.9 48.4 C 1.8 48.0 1.8 47.5 1.8 47.0 C 1.8 46.9 1.8 46.9 1.9 46.8 C 1.9 46.3 1.9 45.9 1.9 45.4 C 1.9 45.3 1.9 45.3 1.9 45.3 C 1.9 45.2 1.9 45.2 1.9 45.1 C 1.9 44.7 2.0 44.3 2.0 43.9 C 2.0 43.8 2.0 43.8 2.0 43.7 C 2.1 43.3 2.1 42.9 2.1 42.5 C 2.2 42.5 2.2 42.4 2.2 42.4 C 2.2 41.9 2.3 41.5 2.3 41.1 C 2.4 41.0 2.4 40.9 2.4 40.8 C 2.5 40.4 2.5 40.0 2.6 39.6 C 2.6 39.5 2.6 39.5 2.6 39.4 C 2.7 39.0 2.8 38.6 2.9 38.2 C 2.9 38.1 2.9 38.1 2.9 38.0 C 3.0 37.6 3.1 37.2 3.2 36.8 C 3.2 36.7 3.3 36.6 3.3 36.5 C 3.4 36.1 3.5 35.7 3.6 35.3 C 3.6 35.2 3.7 35.2 3.7 35.1 C 3.8 34.7 3.9 34.3 4.0 33.9 C 4.1 33.9 4.1 33.8 4.1 33.7 C 4.2 33.3 4.4 32.9 4.5 32.5 C 4.5 32.4 4.6 32.3 4.6 32.2 C 4.7 31.8 4.9 31.4 5.0 31.0 C 5.1 31.0 5.1 30.9 5.1 30.9 C 5.3 30.5 5.4 30.1 5.6 29.7 C 5.6 29.6 5.6 29.6 5.6 29.5 C 5.8 29.1 6.0 28.7 6.2 28.3 C 6.2 28.2 6.2 28.2 6.3 28.1 C 6.5 27.7 6.6 27.3 6.8 26.9 C 6.9 26.8 6.9 26.8 6.9 26.7 C 7.1 26.4 7.3 26.0 7.5 25.6 C 7.5 25.6 7.5 25.5 7.6 25.4 C 7.8 25.0 8.0 24.7 8.2 24.3 C 8.2 24.2 8.3 24.1 8.3 24.0 C 8.5 23.7 8.8 23.3 9.0 22.9 C 9.0 22.8 9.0 22.8 9.0 22.8 C 9.3 22.4 9.5 22.0 9.7 21.7 C 9.7 21.6 9.8 21.6 9.8 21.5 C 10.1 21.1 10.3 20.8 10.5 20.4 C 10.6 20.3 10.6 20.3 10.7 20.2 C 10.9 19.8 11.2 19.5 11.4 19.1 C 11.5 19.1 11.5 19.0 11.5 19.0 C 11.8 18.7 12.0 18.3 12.3 18.0 L 12.4 17.8 C 12.7 17.5 12.9 17.1 13.2 16.8 C 13.2 16.7 13.3 16.6 13.4 16.6 C 13.6 16.2 13.9 15.9 14.2 15.5 C 14.2 15.5 14.2 15.5 14.3 15.5 C 14.5 15.1 14.8 14.8 15.1 14.5 C 15.1 14.5 15.2 14.4 15.2 14.3 C 15.5 14.0 15.8 13.7 16.1 13.4 C 16.2 13.3 16.2 13.3 16.3 13.2 C 16.6 12.9 16.9 12.6 17.2 12.3 C 17.2 12.3 17.3 12.2 17.3 12.2 C 17.6 11.9 17.9 11.6 18.2 11.4 C 18.3 11.3 18.3 11.3 18.4 11.2 C 18.7 10.9 19.0 10.6 19.3 10.4 C 19.4 10.3 19.4 10.2 19.5 10.2 C 19.8 9.9 20.2 9.6 20.5 9.4 C 20.5 9.3 20.5 9.3 20.6 9.3 C 20.9 9.1 21.2 8.8 21.5 8.5 C 21.6 8.5 21.7 8.5 21.7 8.4 C 22.1 8.2 22.4 7.9 22.7 7.7 C 22.8 7.6 22.9 7.6 22.9 7.5 C 23.3 7.3 23.6 7.0 24.0 6.8 C 24.0 6.8 24.0 6.8 24.0 6.8 C 24.4 6.6 24.7 6.3 25.1 6.1 C 25.1 6.1 25.2 6.1 25.2 6.1 C 25.3 6.0 25.3 6.0 25.3 6.0 C 25.7 5.8 26.0 5.6 26.4 5.4 C 26.4 5.4 26.5 5.3 26.6 5.3 C 27.0 5.1 27.3 4.9 27.7 4.7 C 28.0 4.5 28.3 4.4 28.7 4.2 C 32.5 4.6 36.2 5.1 40.0 5.8 C 40.6 5.9 41.3 6.0 41.9 6.1 " fill="#DC7601"></path><path d="M 30.1 51.4 C 30.1 51.5 30.1 51.5 30.1 51.6 C 30.1 51.7 30.1 51.8 30.1 52.0 C 30.1 52.0 30.1 52.1 30.1 52.1 C 30.1 52.3 30.1 52.5 30.1 52.7 C 30.2 52.9 30.2 53.1 30.2 53.3 C 30.4 53.3 30.5 53.2 30.6 53.2 C 30.6 53.2 30.7 53.2 30.7 53.2 C 31.0 53.1 31.3 53.0 31.6 52.8 C 31.7 52.8 31.7 52.8 31.7 52.8 C 32.1 52.7 32.4 52.5 32.7 52.4 L 35.9 54.1 L 35.4 50.9 C 35.5 50.8 35.6 50.8 35.7 50.7 L 30.7 47.9 C 30.7 47.9 30.7 47.9 30.7 47.9 C 30.6 47.9 30.6 47.8 30.5 47.8 C 30.5 47.8 30.5 47.8 30.5 47.8 C 30.5 47.9 30.5 48.0 30.4 48.1 C 30.4 48.1 30.4 48.1 30.4 48.2 C 30.4 48.4 30.3 48.6 30.3 48.9 C 30.3 48.9 30.3 48.9 30.3 48.9 C 30.2 49.1 30.2 49.4 30.2 49.6 C 30.1 49.6 30.1 49.7 30.1 49.7 C 30.1 49.9 30.1 50.2 30.1 50.4 C 30.1 50.5 30.1 50.5 30.1 50.6 C 30.1 50.7 30.1 50.8 30.1 50.9 C 30.1 51.0 30.0 51.0 30.0 51.1 C 30.0 51.2 30.1 51.3 30.1 51.4 M 40.1 29.2 C 40.1 29.2 40.2 29.2 40.2 29.1 C 40.2 28.9 40.3 28.7 40.3 28.4 C 40.3 28.4 40.3 28.4 40.3 28.4 C 40.4 28.2 40.4 27.9 40.4 27.7 C 40.4 27.7 40.4 27.7 40.4 27.6 C 40.5 27.4 40.5 27.2 40.5 26.9 C 40.5 26.9 40.5 26.8 40.5 26.8 C 40.5 26.7 40.5 26.6 40.5 26.5 C 40.5 26.4 40.5 26.4 40.5 26.3 C 40.5 26.2 40.5 26.1 40.5 26.0 C 40.5 26.0 40.5 25.9 40.5 25.8 C 40.5 25.7 40.5 25.6 40.5 25.5 C 40.5 25.4 40.5 25.4 40.5 25.3 C 40.5 25.2 40.5 25.0 40.5 24.8 C 40.4 24.4 40.3 24.1 40.3 23.7 C 40.2 23.6 40.2 23.5 40.2 23.5 C 39.4 23.6 38.6 23.9 37.8 24.2 L 34.6 22.4 L 35.1 25.6 C 34.9 25.7 34.7 25.9 34.4 26.0 L 39.8 28.9 C 39.9 29.0 40.0 29.1 40.1 29.2 M 64.3 29.5 C 64.3 29.6 64.3 29.7 64.3 29.8 C 64.3 30.2 64.4 30.6 64.4 31.0 C 64.4 31.1 64.4 31.1 64.4 31.2 C 64.4 31.5 64.4 31.9 64.4 32.3 C 64.4 32.4 64.4 32.5 64.4 32.6 C 64.4 33.0 64.4 33.4 64.3 33.8 C 64.3 33.8 64.3 33.8 64.3 33.9 C 64.3 33.9 64.3 34.0 64.3 34.1 C 64.3 34.3 64.3 34.6 64.3 34.9 C 64.3 35.0 64.2 35.1 64.2 35.3 C 64.2 35.6 64.2 36.0 64.1 36.3 C 64.1 36.3 64.1 36.4 64.1 36.4 C 64.1 36.8 64.0 37.1 64.0 37.5 C 63.9 37.6 63.9 37.7 63.9 37.8 C 63.9 38.1 63.8 38.4 63.8 38.7 C 63.7 38.8 63.7 38.9 63.7 39.0 C 63.6 39.4 63.5 39.7 63.5 40.1 C 63.5 40.2 63.4 40.2 63.4 40.3 C 63.4 40.6 63.3 40.9 63.2 41.2 C 63.2 41.3 63.1 41.5 63.1 41.6 C 63.0 41.9 63.0 42.2 62.9 42.5 C 62.8 42.5 62.8 42.6 62.8 42.7 C 62.7 43.1 62.6 43.4 62.5 43.8 C 62.4 43.9 62.4 44.0 62.4 44.1 C 62.3 44.4 62.2 44.6 62.1 44.9 C 62.1 45.0 62.0 45.2 62.0 45.3 C 61.9 45.6 61.7 45.9 61.6 46.2 C 61.6 46.3 61.6 46.3 61.6 46.4 C 61.4 46.7 61.3 47.1 61.1 47.5 C 61.1 47.6 61.1 47.6 61.0 47.7 C 60.9 48.0 60.8 48.3 60.7 48.6 C 60.6 48.7 60.6 48.8 60.5 48.9 C 60.4 49.2 60.2 49.6 60.0 49.9 C 60.0 50.0 60.0 50.0 60.0 50.1 C 59.8 50.4 59.7 50.7 59.5 51.0 C 59.4 51.1 59.4 51.2 59.3 51.3 C 59.2 51.6 59.0 51.8 58.9 52.1 C 58.8 52.2 58.8 52.3 58.8 52.4 C 58.6 52.7 58.4 53.0 58.2 53.4 C 58.1 53.4 58.1 53.5 58.0 53.6 C 57.9 53.9 57.7 54.1 57.6 54.4 C 57.5 54.5 57.4 54.6 57.4 54.7 C 57.2 55.0 57.0 55.3 56.8 55.5 C 56.8 55.6 56.8 55.6 56.7 55.7 C 56.5 56.0 56.3 56.2 56.2 56.5 C 56.1 56.6 56.1 56.6 56.1 56.6 C 56.0 56.8 55.9 56.9 55.7 57.1 C 55.6 57.3 55.5 57.5 55.3 57.7 C 55.2 57.8 55.1 58.0 55.0 58.1 C 54.8 58.3 54.7 58.5 54.5 58.7 C 54.4 58.8 54.3 59.0 54.2 59.1 C 54.0 59.3 53.9 59.5 53.7 59.7 C 53.6 59.8 53.5 60.0 53.4 60.1 C 53.2 60.3 53.1 60.4 52.9 60.6 C 52.8 60.8 52.6 60.9 52.5 61.1 C 52.4 61.2 52.2 61.4 52.0 61.6 C 51.9 61.7 51.8 61.8 51.6 62.0 C 51.5 62.1 51.3 62.3 51.2 62.5 C 51.0 62.6 50.9 62.7 50.7 62.9 C 50.6 63.0 50.4 63.2 50.3 63.3 C 50.2 63.4 50.1 63.5 50.0 63.6 C 47.4 62.4 44.9 61.2 42.4 60.0 C 42.5 59.9 42.6 59.8 42.7 59.8 C 42.8 59.6 43.0 59.5 43.1 59.4 C 43.3 59.2 43.4 59.1 43.6 58.9 C 43.7 58.8 43.9 58.6 44.0 58.5 C 44.2 58.3 44.3 58.2 44.5 58.0 C 44.6 57.9 44.8 57.7 44.9 57.6 C 45.0 57.4 45.2 57.3 45.4 57.1 C 45.5 56.9 45.6 56.8 45.7 56.7 C 45.9 56.5 46.0 56.3 46.2 56.1 C 46.3 56.0 46.5 55.9 46.6 55.7 C 46.7 55.5 46.9 55.3 47.0 55.2 C 47.1 55.0 47.3 54.9 47.4 54.7 C 47.5 54.5 47.7 54.3 47.8 54.2 C 47.9 54.0 48.0 53.9 48.2 53.7 C 48.3 53.5 48.4 53.3 48.6 53.1 C 48.7 53.0 48.8 52.8 48.9 52.7 C 49.1 52.4 49.4 52.0 49.6 51.7 C 49.6 51.7 49.6 51.6 49.7 51.6 C 49.8 51.3 50.0 51.0 50.2 50.7 C 50.3 50.6 50.3 50.5 50.4 50.4 C 50.6 50.2 50.7 49.9 50.9 49.6 C 50.9 49.6 51.0 49.5 51.0 49.4 C 51.2 49.1 51.4 48.7 51.6 48.4 C 51.7 48.3 51.7 48.2 51.7 48.2 C 51.9 47.9 52.0 47.6 52.2 47.3 C 52.2 47.2 52.3 47.1 52.3 47.0 C 52.5 46.7 52.7 46.4 52.8 46.1 C 52.8 46.1 52.8 46.0 52.9 46.0 C 53.0 45.6 53.2 45.3 53.4 44.9 C 53.4 44.8 53.5 44.7 53.5 44.6 C 53.6 44.3 53.7 44.1 53.9 43.8 C 53.9 43.7 53.9 43.6 54.0 43.5 C 54.1 43.1 54.3 42.8 54.4 42.4 C 54.4 42.4 54.4 42.3 54.5 42.3 C 54.6 42.0 54.7 41.6 54.8 41.3 C 54.9 41.2 54.9 41.1 54.9 41.0 C 55.0 40.7 55.1 40.4 55.2 40.1 C 55.3 40.0 55.3 39.9 55.3 39.9 C 55.4 39.5 55.5 39.1 55.6 38.7 C 55.7 38.7 55.7 38.6 55.7 38.5 C 55.8 38.2 55.9 37.9 56.0 37.6 C 56.0 37.5 56.0 37.4 56.0 37.3 C 56.1 37.0 56.2 36.6 56.3 36.3 C 56.3 36.3 56.3 36.2 56.3 36.1 C 56.4 35.8 56.5 35.4 56.5 35.0 C 56.6 34.9 56.6 34.8 56.6 34.7 C 56.6 34.4 56.7 34.1 56.7 33.9 C 56.8 33.8 56.8 33.6 56.8 33.5 C 56.9 33.2 56.9 32.8 57.0 32.4 C 57.0 32.4 57.0 32.4 57.0 32.3 C 57.0 32.0 57.0 31.6 57.1 31.3 C 57.1 31.2 57.1 31.1 57.1 31.0 C 57.1 30.7 57.1 30.4 57.2 30.1 C 57.2 30.0 57.2 29.9 57.2 29.8 C 57.2 29.4 57.2 29.0 57.2 28.6 C 57.2 28.5 57.2 28.4 57.2 28.3 C 57.2 27.9 57.2 27.6 57.2 27.2 C 57.2 27.1 57.2 27.1 57.2 27.0 C 57.2 26.6 57.2 26.2 57.2 25.8 C 57.2 25.7 57.1 25.6 57.1 25.5 C 57.1 25.1 57.1 24.7 57.0 24.3 C 56.6 21.0 55.8 18.0 54.5 15.5 C 54.4 15.5 54.4 15.5 54.4 15.4 C 54.1 14.9 53.8 14.3 53.4 13.8 C 53.4 13.7 53.3 13.5 53.2 13.4 C 53.1 13.3 53.0 13.2 53.0 13.1 C 52.8 12.9 52.6 12.7 52.5 12.5 C 52.4 12.3 52.2 12.2 52.1 12.0 C 52.0 11.9 51.9 11.7 51.7 11.6 C 51.6 11.4 51.4 11.3 51.3 11.1 C 51.2 11.0 51.1 10.9 51.0 10.8 C 50.9 10.7 50.8 10.7 50.7 10.6 C 46.2 9.4 40.8 10.0 35.3 12.8 C 34.9 13.0 34.5 13.2 34.1 13.4 C 34.0 13.5 33.9 13.6 33.7 13.6 C 33.5 13.8 33.2 13.9 32.9 14.1 C 32.8 14.2 32.6 14.3 32.5 14.4 C 32.2 14.5 32.0 14.7 31.7 14.9 C 31.6 15.0 31.4 15.1 31.3 15.2 C 31.0 15.3 30.8 15.5 30.5 15.7 C 30.4 15.8 30.3 15.9 30.2 16.0 C 29.8 16.3 29.4 16.5 29.0 16.8 C 29.0 16.9 29.0 16.9 28.9 16.9 C 28.6 17.2 28.3 17.5 28.0 17.8 C 27.8 17.9 27.7 18.0 27.6 18.1 C 27.6 18.1 27.6 18.1 27.5 18.1 L 30.1 16.7 L 34.9 19.3 C 35.9 19.3 36.9 19.5 37.7 20.0 L 44.8 23.9 L 44.8 23.9 L 44.8 23.9 L 44.8 23.9 C 44.9 24.0 45.0 24.0 45.0 24.1 C 45.1 24.1 45.1 24.1 45.1 24.1 C 45.1 24.1 45.2 24.2 45.2 24.2 C 45.3 24.2 45.4 24.3 45.5 24.4 C 45.7 24.6 46.0 24.8 46.2 25.1 C 46.4 25.3 46.5 25.5 46.7 25.8 C 46.7 25.8 46.8 25.9 46.8 25.9 C 46.8 26.0 46.8 26.0 46.9 26.1 C 46.9 26.1 46.9 26.1 46.9 26.1 C 47.0 26.4 47.2 26.8 47.3 27.1 C 47.3 27.3 47.4 27.5 47.4 27.7 C 47.5 28.0 47.6 28.4 47.6 28.8 C 47.6 29.0 47.7 29.1 47.7 29.3 C 47.7 29.4 47.7 29.4 47.7 29.5 C 47.7 29.6 47.7 29.7 47.7 29.8 C 47.7 29.8 47.7 29.9 47.7 30.0 C 47.7 30.1 47.7 30.2 47.7 30.3 C 47.7 30.3 47.7 30.4 47.7 30.5 C 47.7 30.6 47.7 30.7 47.7 30.7 C 47.7 30.8 47.7 30.8 47.7 30.8 C 47.7 30.8 47.7 30.8 47.7 30.9 C 47.7 31.1 47.6 31.4 47.6 31.6 C 47.6 31.6 47.6 31.6 47.6 31.6 C 47.6 31.9 47.5 32.1 47.5 32.3 C 47.5 32.4 47.5 32.4 47.5 32.4 C 47.4 32.6 47.4 32.9 47.3 33.1 C 47.3 33.1 47.3 33.2 47.3 33.2 C 47.2 33.4 47.2 33.6 47.1 33.8 L 47.1 34.0 C 47.0 34.2 46.9 34.4 46.8 34.6 C 46.8 34.6 46.8 34.7 46.8 34.7 C 46.7 34.9 46.6 35.1 46.5 35.3 C 46.5 35.3 46.5 35.3 46.5 35.4 C 46.5 35.5 46.4 35.6 46.4 35.7 C 46.4 35.7 46.4 35.7 46.3 35.7 C 46.4 35.7 46.4 35.7 46.4 35.7 C 46.3 35.8 46.3 35.8 46.3 35.9 C 46.2 36.0 46.2 36.1 46.1 36.1 C 46.1 36.3 46.0 36.4 45.9 36.6 C 45.9 36.6 45.8 36.7 45.8 36.8 C 45.7 36.9 45.6 37.1 45.5 37.3 C 45.5 37.3 45.4 37.3 45.4 37.4 C 45.3 37.6 45.2 37.8 45.0 38.0 C 45.0 38.0 45.0 38.1 44.9 38.1 C 44.8 38.3 44.7 38.4 44.6 38.6 C 44.6 38.6 44.5 38.7 44.5 38.8 C 44.4 38.9 44.3 39.0 44.2 39.2 C 44.2 39.2 44.1 39.3 44.0 39.4 C 44.0 39.5 43.9 39.6 43.8 39.7 C 43.7 39.8 43.7 39.9 43.6 39.9 C 43.5 40.1 43.4 40.2 43.3 40.4 C 43.2 40.4 43.2 40.4 43.2 40.5 C 43.0 40.7 42.9 40.8 42.7 41.0 C 42.7 41.0 42.7 41.0 42.7 41.1 L 47.4 43.7 L 48.7 50.4 C 46.8 51.9 44.6 53.6 42.5 54.9 L 43.2 59.0 L 41.9 59.7 C 35.6 56.6 29.3 53.3 23.2 49.9 C 23.1 49.5 23.0 49.1 23.0 48.7 C 23.0 48.5 22.9 48.3 22.9 48.2 C 22.9 48.1 22.9 48.1 22.9 48.0 C 22.9 47.9 22.9 47.8 22.9 47.7 C 22.9 47.6 22.9 47.5 22.9 47.5 C 22.9 47.3 22.9 47.2 22.9 47.1 C 22.9 47.1 22.9 47.0 22.9 46.9 C 22.9 46.8 22.9 46.7 22.9 46.6 C 22.9 46.6 22.9 46.6 22.9 46.5 C 22.9 46.5 22.9 46.5 22.9 46.5 C 22.9 46.2 23.0 46.0 23.0 45.8 C 23.0 45.7 23.0 45.7 23.0 45.7 C 23.0 45.4 23.1 45.2 23.1 44.9 C 23.1 44.9 23.1 44.9 23.1 44.9 C 23.2 44.7 23.2 44.4 23.3 44.2 C 23.3 44.2 23.3 44.1 23.3 44.1 C 23.3 43.9 23.4 43.7 23.5 43.4 C 23.5 43.4 23.5 43.4 23.5 43.3 C 23.6 43.1 23.7 42.9 23.7 42.7 C 23.8 42.7 23.8 42.6 23.8 42.6 C 23.9 42.4 24.0 42.2 24.0 41.9 C 24.1 41.9 24.1 41.9 24.1 41.9 C 24.2 41.7 24.3 41.5 24.4 41.3 L 24.4 41.2 C 24.5 41.0 24.6 40.8 24.7 40.6 C 24.7 40.6 24.7 40.5 24.8 40.5 C 24.9 40.3 25.0 40.1 25.1 39.9 L 25.2 39.8 C 25.3 39.6 25.4 39.5 25.5 39.3 C 25.5 39.2 25.6 39.2 25.6 39.2 C 25.7 39.0 25.8 38.8 26.0 38.6 C 26.0 38.6 26.0 38.6 26.0 38.6 C 26.1 38.4 26.3 38.2 26.4 38.0 L 26.4 38.0 C 26.6 37.8 26.7 37.6 26.9 37.4 L 26.9 37.3 C 26.9 37.3 26.9 37.3 26.9 37.3 L 22.0 34.6 L 20.5 27.6 C 20.5 27.6 20.5 27.6 20.6 27.6 C 20.6 27.6 20.6 27.5 20.6 27.5 C 20.6 27.5 20.6 27.5 20.7 27.4 C 20.7 27.4 20.7 27.4 20.7 27.4 C 20.8 27.3 20.8 27.3 20.8 27.3 C 20.9 27.2 20.9 27.2 20.9 27.2 C 21.0 27.1 21.0 27.1 21.1 27.0 C 21.1 27.0 21.1 26.9 21.2 26.9 C 21.2 26.8 21.3 26.8 21.3 26.7 C 21.4 26.7 21.4 26.6 21.5 26.6 C 21.5 26.5 21.6 26.5 21.7 26.4 C 21.7 26.3 21.8 26.3 21.8 26.2 C 21.9 26.2 22.0 26.1 22.0 26.0 C 22.1 26.0 22.2 25.9 22.2 25.9 C 22.3 25.8 22.4 25.7 22.5 25.6 C 22.5 25.6 22.6 25.5 22.7 25.4 C 22.8 25.4 22.9 25.3 22.9 25.2 C 23.0 25.1 23.1 25.1 23.2 25.0 C 23.3 24.9 23.4 24.8 23.5 24.7 C 23.6 24.7 23.7 24.6 23.7 24.5 C 23.8 24.4 23.9 24.4 24.1 24.3 C 24.2 24.2 24.2 24.1 24.3 24.0 C 24.5 24.0 24.6 23.9 24.7 23.8 C 24.8 23.7 24.9 23.6 25.0 23.5 C 25.1 23.5 25.2 23.4 25.4 23.3 C 25.5 23.2 25.6 23.1 25.7 23.0 C 25.8 23.0 26.0 22.9 26.1 22.8 C 26.2 22.7 26.3 22.6 26.5 22.5 C 26.6 22.5 26.7 22.4 26.9 22.3 C 27.0 22.2 27.1 22.1 27.3 22.0 C 27.3 22.0 27.4 22.0 27.4 21.9 C 27.6 21.8 27.8 21.7 28.0 21.6 C 28.0 21.6 28.0 21.6 28.0 21.6 L 27.4 18.2 C 27.3 18.4 27.1 18.5 26.9 18.7 C 26.8 18.8 26.6 19.0 26.5 19.1 C 26.3 19.3 26.1 19.5 25.8 19.7 C 25.7 19.9 25.6 20.0 25.5 20.1 C 25.2 20.4 25.0 20.6 24.8 20.9 C 24.7 21.0 24.6 21.1 24.5 21.2 C 24.2 21.5 23.8 21.9 23.5 22.2 C 23.5 22.3 23.4 22.4 23.4 22.4 C 23.1 22.7 22.9 23.0 22.6 23.4 C 22.5 23.5 22.4 23.6 22.3 23.8 C 22.1 24.0 21.9 24.3 21.7 24.5 C 21.6 24.7 21.5 24.8 21.4 25.0 C 21.2 25.2 21.0 25.5 20.8 25.8 C 20.7 25.9 20.6 26.0 20.5 26.2 C 20.3 26.5 20.2 26.8 20.0 27.1 C 19.9 27.2 19.8 27.3 19.7 27.4 C 19.5 27.8 19.2 28.2 19.0 28.7 C 18.9 28.7 18.9 28.8 18.8 28.9 C 18.6 29.2 18.4 29.6 18.2 29.9 C 18.2 30.1 18.1 30.2 18.0 30.4 C 17.9 30.7 17.7 31.0 17.6 31.2 C 17.5 31.4 17.4 31.6 17.3 31.7 C 17.2 32.0 17.0 32.3 16.9 32.6 C 16.8 32.8 16.7 32.9 16.7 33.1 C 16.5 33.4 16.4 33.7 16.2 34.1 C 16.2 34.2 16.1 34.3 16.1 34.4 C 15.9 34.9 15.7 35.3 15.5 35.8 C 15.5 35.9 15.5 36.0 15.4 36.1 C 15.3 36.4 15.2 36.8 15.0 37.1 C 15.0 37.3 14.9 37.5 14.9 37.6 C 14.8 37.9 14.7 38.2 14.6 38.5 C 14.5 38.7 14.5 38.9 14.4 39.0 C 14.3 39.3 14.3 39.7 14.2 40.0 C 14.1 40.1 14.1 40.3 14.0 40.4 C 13.9 40.8 13.9 41.2 13.8 41.5 C 13.8 41.6 13.7 41.7 13.7 41.8 C 13.6 42.3 13.5 42.8 13.4 43.2 C 13.4 43.4 13.4 43.5 13.4 43.6 C 13.3 43.8 13.3 43.9 13.3 44.1 C 9.8 42.0 6.4 39.8 3.0 37.6 C 3.1 37.4 3.1 37.1 3.2 36.8 C 3.2 36.7 3.3 36.6 3.3 36.5 C 3.4 36.1 3.5 35.7 3.6 35.3 C 3.6 35.2 3.7 35.2 3.7 35.1 C 3.8 34.7 3.9 34.3 4.0 33.9 C 4.1 33.9 4.1 33.8 4.1 33.7 C 4.2 33.3 4.4 32.9 4.5 32.5 C 4.5 32.4 4.6 32.3 4.6 32.2 C 4.7 31.8 4.9 31.4 5.0 31.0 C 5.1 31.0 5.1 30.9 5.1 30.9 C 5.3 30.5 5.4 30.1 5.6 29.7 C 5.6 29.6 5.6 29.6 5.6 29.5 C 5.8 29.1 6.0 28.7 6.2 28.3 C 6.2 28.2 6.2 28.2 6.3 28.1 C 6.5 27.7 6.6 27.3 6.8 26.9 C 6.9 26.8 6.9 26.8 6.9 26.7 C 7.1 26.4 7.3 26.0 7.5 25.6 C 7.5 25.6 7.5 25.5 7.6 25.4 C 7.8 25.0 8.0 24.7 8.2 24.3 C 8.2 24.2 8.3 24.1 8.3 24.0 C 8.5 23.7 8.8 23.3 9.0 22.9 C 9.0 22.8 9.0 22.8 9.0 22.8 C 9.3 22.4 9.5 22.0 9.7 21.7 C 9.7 21.6 9.8 21.6 9.8 21.5 C 10.1 21.1 10.3 20.8 10.5 20.4 C 10.6 20.3 10.6 20.3 10.7 20.2 C 10.9 19.8 11.2 19.5 11.4 19.1 C 11.5 19.1 11.5 19.0 11.5 19.0 C 11.8 18.7 12.0 18.3 12.3 18.0 L 12.4 17.8 C 12.7 17.5 12.9 17.1 13.2 16.8 C 13.2 16.7 13.3 16.6 13.4 16.6 C 13.6 16.2 13.9 15.9 14.2 15.5 C 14.2 15.5 14.2 15.5 14.3 15.5 C 14.5 15.1 14.8 14.8 15.1 14.5 C 15.1 14.5 15.2 14.4 15.2 14.3 C 15.5 14.0 15.8 13.7 16.1 13.4 C 16.2 13.3 16.2 13.3 16.3 13.2 C 16.6 12.9 16.9 12.6 17.2 12.3 C 17.2 12.3 17.3 12.2 17.3 12.2 C 17.6 11.9 17.9 11.6 18.2 11.4 C 18.3 11.3 18.3 11.3 18.4 11.2 C 18.7 10.9 19.0 10.6 19.3 10.4 C 19.4 10.3 19.4 10.2 19.5 10.2 C 19.8 9.9 20.2 9.6 20.5 9.4 C 20.5 9.3 20.5 9.3 20.6 9.3 C 20.9 9.1 21.2 8.8 21.5 8.5 C 21.6 8.5 21.7 8.5 21.7 8.4 C 22.1 8.2 22.4 7.9 22.7 7.7 C 22.8 7.6 22.9 7.6 22.9 7.5 C 23.3 7.3 23.6 7.0 24.0 6.8 C 24.0 6.8 24.0 6.8 24.0 6.8 C 24.4 6.6 24.7 6.3 25.1 6.1 C 25.1 6.1 25.2 6.1 25.2 6.1 C 25.3 6.0 25.3 6.0 25.3 6.0 C 25.7 5.8 26.0 5.6 26.4 5.4 C 26.4 5.4 26.5 5.3 26.6 5.3 C 27.0 5.1 27.3 4.9 27.7 4.7 C 29.5 3.8 31.3 3.1 33.0 2.6 C 33.5 2.4 34.0 2.3 34.5 2.2 C 36.5 1.7 38.4 1.5 40.2 1.5 C 41.2 1.5 42.1 1.6 43.0 1.7 C 43.4 1.8 43.8 1.9 44.3 1.9 C 45.1 2.1 46.0 2.4 46.8 2.6 C 47.0 2.7 47.2 2.8 47.4 2.9 C 48.2 3.2 49.0 3.5 49.7 3.9 L 56.9 7.9 C 52.5 5.5 47.2 4.8 41.5 6.2 C 41.5 6.2 41.5 6.2 41.5 6.2 C 42.1 6.3 42.6 6.4 43.2 6.5 C 43.6 6.6 43.9 6.7 44.3 6.8 C 44.7 6.9 45.0 7.1 45.4 7.2 C 45.6 7.3 45.7 7.3 45.9 7.4 C 46.4 7.6 46.9 7.9 47.4 8.2 L 50.6 9.9 L 54.6 12.1 C 54.8 12.2 55.0 12.3 55.2 12.5 C 55.3 12.5 55.4 12.6 55.5 12.7 C 55.8 12.8 56.0 13.0 56.3 13.2 C 56.3 13.2 56.4 13.3 56.4 13.3 C 56.6 13.4 56.8 13.6 56.9 13.7 C 57.0 13.8 57.2 13.9 57.3 14.0 C 57.4 14.1 57.5 14.2 57.6 14.2 C 57.7 14.4 57.9 14.6 58.1 14.7 C 58.2 14.8 58.2 14.9 58.3 15.0 C 58.5 15.2 58.7 15.3 58.9 15.6 C 58.9 15.6 58.9 15.6 59.0 15.6 C 59.2 15.9 59.4 16.2 59.6 16.4 C 59.7 16.6 59.8 16.7 59.9 16.9 C 60.1 17.0 60.2 17.2 60.3 17.4 C 60.4 17.5 60.4 17.5 60.5 17.6 C 62.4 20.5 63.7 24.0 64.2 28.3 C 64.2 28.7 64.3 29.1 64.3 29.5 " fill="#D66800"></path><path d="M 37.8 24.2 C 42.8 22.2 47.0 23.4 47.6 28.8 C 48.8 39.1 36.3 44.7 36.9 50.2 C 37.1 52.2 38.8 52.6 41.0 51.6 C 42.8 50.6 43.9 49.7 44.6 48.4 C 44.6 48.2 44.6 48.0 44.6 47.9 L 44.4 45.4 L 47.4 43.7 L 48.7 50.4 C 46.8 51.9 44.6 53.6 42.5 54.9 L 43.2 59.0 L 40.5 60.5 L 39.9 56.3 C 34.8 58.7 30.7 57.8 30.1 52.7 C 28.9 41.9 41.4 36.7 40.7 30.6 C 40.5 28.4 38.6 28.3 36.6 29.3 C 33.5 30.8 32.1 32.6 31.9 32.9 C 31.9 33.7 31.8 34.6 31.9 34.8 C 31.9 35.3 32.1 36.8 32.1 36.8 L 29.1 38.5 L 27.7 31.6 C 27.8 31.4 30.4 28.3 35.1 25.6 L 34.6 22.1 L 37.3 20.7 L 37.8 24.2 M 41.8 69.3 C 56.0 62.2 66.0 43.9 64.2 28.3 C 62.4 12.6 49.5 5.7 35.3 12.8 C 21.2 19.8 11.2 38.2 13.0 53.8 C 14.8 69.4 27.7 76.3 41.8 69.3 " fill="#FFE679"></path><path d="M 63.4 24.2 C 58.3 28.5 52.4 31.9 46.6 35.2 C 47.4 33.3 47.9 31.2 47.6 28.8 C 47.0 23.4 42.8 22.2 37.8 24.2 L 37.3 20.7 L 34.6 22.1 L 35.1 25.6 C 30.4 28.3 27.8 31.4 27.7 31.6 L 29.1 38.5 L 32.1 36.8 C 32.1 36.8 31.9 35.3 31.9 34.8 C 31.8 34.6 31.9 33.7 31.9 32.9 C 32.1 32.6 33.5 30.8 36.6 29.3 C 38.6 28.3 40.5 28.4 40.7 30.6 C 41.2 34.7 35.8 38.3 32.5 43.5 C 28.4 46.2 24.5 49.2 21.2 52.9 C 18.8 55.5 16.7 58.5 15.1 61.7 C 14.0 59.4 13.3 56.8 13.0 53.8 C 11.2 38.2 21.2 19.8 35.3 12.8 C 48.2 6.4 60.0 11.5 63.4 24.2 " fill="#FFD93A"></path><path d="M 37.0 50.8 C 37.8 51.3 38.9 51.2 40.3 50.5 C 42.2 49.6 43.2 48.7 43.9 47.4 C 44.0 47.2 44.0 46.9 44.0 46.9 L 43.7 44.4 L 46.7 42.7 L 47.4 43.7 L 44.4 45.4 L 44.6 47.9 C 44.6 48.0 44.6 48.2 44.6 48.4 C 43.9 49.7 42.8 50.6 41.0 51.6 C 39.0 52.5 37.5 52.3 37.0 50.8 " fill="#C76C10"></path><path d="M 39.4 56.5 C 39.5 56.5 39.7 56.4 39.9 56.3 L 40.5 60.5 L 39.9 59.5 Z M 39.4 56.5 " fill="#C76C10"></path><path d="M 37.6 23.0 C 41.4 21.6 44.7 22.1 46.2 25.0 C 44.4 23.0 41.3 22.8 37.8 24.2 Z M 37.6 23.0 " fill="#C76C10"></path><path d="M 41.8 69.3 C 31.2 74.6 21.3 72.0 16.3 63.9 C 21.5 71.2 31.0 73.3 41.1 68.3 C 55.3 61.2 65.3 42.9 63.5 27.2 C 63.1 23.3 61.9 19.9 60.2 17.2 C 62.3 20.1 63.7 23.8 64.2 28.3 C 66.0 43.9 56.0 62.2 41.8 69.3 " fill="#C76C10"></path><path d="M 28.5 37.5 L 27.0 30.6 C 27.1 30.4 29.8 27.3 34.4 24.6 L 33.9 21.1 L 36.6 19.6 L 36.8 20.9 L 34.6 22.2 L 35.1 25.6 C 30.4 28.3 27.8 31.4 27.7 31.6 L 28.9 37.3 Z M 28.5 37.5 " fill="#C76C10"></path><path d="M 30.8 55.1 C 30.1 54.3 29.6 53.2 29.5 51.7 C 28.2 40.9 40.7 35.7 40.0 29.6 C 40.0 29.4 40.0 29.2 39.9 29.0 C 40.3 29.3 40.6 29.9 40.7 30.6 C 41.4 36.7 28.9 41.9 30.1 52.7 C 30.2 53.6 30.5 54.4 30.8 55.1 " fill="#C76C10"></path><path d="M 40.5 60.5 L 43.2 59.0 L 42.5 54.9 C 44.6 53.6 46.8 51.9 48.7 50.4 L 47.4 43.7 L 44.4 45.4 L 44.6 47.9 C 44.6 48.0 44.6 48.2 44.6 48.4 C 43.9 49.7 42.8 50.6 41.0 51.6 C 38.8 52.6 37.1 52.2 36.9 50.2 C 36.3 44.7 48.8 39.1 47.6 28.8 C 47.0 23.4 42.8 22.2 37.8 24.2 L 37.3 20.7 L 34.6 22.2 L 35.1 25.6 C 30.4 28.3 27.8 31.4 27.7 31.6 L 29.1 38.6 L 32.1 36.8 C 32.1 36.8 31.9 35.3 31.9 34.8 C 31.8 34.6 31.9 33.7 31.9 32.9 C 32.1 32.6 33.5 30.8 36.6 29.3 C 38.6 28.3 40.5 28.4 40.7 30.6 C 41.4 36.7 28.9 41.9 30.1 52.7 C 30.7 57.8 34.8 58.7 39.9 56.3 Z M 40.5 60.5 " fill="#FFF3A9"></path><path d="M 45.0 37.5 C 40.5 39.9 36.1 42.4 31.9 45.3 C 33.1 42.8 35.0 40.7 36.7 38.7 C 39.2 35.8 41.4 33.4 41.1 30.6 C 40.9 29.1 40.1 28.3 38.7 28.3 C 38.1 28.3 37.3 28.6 36.4 29.0 C 33.5 30.4 32.0 32.2 31.6 32.7 L 31.6 32.8 L 31.6 32.8 C 31.6 33.2 31.5 34.4 31.5 34.8 C 31.6 35.2 31.7 36.2 31.7 36.7 L 29.4 38.0 L 28.0 31.7 C 28.6 31.0 31.1 28.3 35.3 25.9 L 35.5 25.8 L 35.0 22.3 L 37.0 21.2 L 37.5 24.7 L 37.9 24.5 C 39.4 23.9 40.8 23.6 42.0 23.6 C 45.1 23.6 46.9 25.4 47.3 28.8 C 47.7 32.1 46.6 34.9 45.0 37.4 C 45.0 37.4 45.0 37.4 45.0 37.5 " fill="#FFE061"></path><path d="M 35.3 12.8 C 49.5 5.7 62.4 12.6 64.2 28.3 C 66.0 43.9 56.0 62.2 41.8 69.3 C 27.7 76.3 14.7 69.4 13.0 53.8 C 11.2 38.2 21.2 19.8 35.3 12.8 M 42.3 73.4 C 58.5 65.3 70.0 44.3 67.9 26.4 C 65.9 8.5 51.1 0.6 34.9 8.7 C 18.7 16.7 7.2 37.8 9.2 55.7 C 11.3 73.5 26.1 81.5 42.3 73.4 " fill="#FFF1B4"></path><path d="M 31.0 72.4 C 21.1 72.4 13.9 65.1 12.6 53.8 C 10.8 38.1 20.9 19.6 35.2 12.5 C 38.9 10.6 42.6 9.7 46.2 9.7 C 56.0 9.7 63.2 16.9 64.5 28.2 C 66.3 43.9 56.2 62.5 42.0 69.6 C 38.2 71.4 34.6 72.4 31.0 72.4 M 47.3 5.8 C 43.3 5.8 39.2 6.9 35.0 9.0 C 18.9 17.0 7.5 37.9 9.6 55.6 C 11.0 68.1 19.0 76.2 29.9 76.2 C 33.9 76.2 38.0 75.2 42.1 73.1 C 58.2 65.1 69.6 44.2 67.6 26.4 C 66.1 13.9 58.2 5.8 47.3 5.8 " fill="#FFF1B4"></path><path d="M 67.4 24.9 C 66.4 25.8 65.4 26.7 64.4 27.5 C 62.9 16.6 55.8 9.7 46.2 9.7 C 42.6 9.7 38.9 10.6 35.2 12.5 C 20.9 19.6 10.8 38.1 12.6 53.8 C 13.1 58.1 14.5 61.8 16.5 64.7 C 15.8 66.1 15.2 67.5 14.7 69.0 C 12.0 65.5 10.2 61.0 9.6 55.6 C 7.5 37.9 19.0 17.0 35.0 9.0 C 39.2 6.9 43.3 5.8 47.3 5.8 C 57.7 5.8 65.5 13.3 67.4 24.9 " fill="#FCDE53"></path></g></g></g></svg>