<?xml version="1.0" encoding="UTF-8"?><svg xmlns="http://www.w3.org/2000/svg" xmlns:xlink="http://www.w3.org/1999/xlink" clip-rule="evenodd" stroke-miterlimit="4.00" viewBox="0 0 679 77"><desc>SVG generated by Keynote</desc><defs></defs><g transform="matrix(1.00, 0.00, -0.00, -1.00, 0.0, 77.0)"><text xml:space="preserve" font-family="AvenirNextCondensed-Bold" font-weight="bold" font-size="98.0" fill="#D76800" transform="matrix(1.00, 0.00, -0.00, -1.00, 2.0, 4.0)">V</text><text xml:space="preserve" font-family="AvenirNextCondensed-Bold" font-weight="bold" font-size="98.0" fill="#D76800" transform="matrix(1.00, 0.00, -0.00, -1.00, 54.3, 4.0)">A</text><text xml:space="preserve" font-family="AvenirNextCondensed-Bold" font-weight="bold" font-size="98.0" fill="#D76800" transform="matrix(1.00, 0.00, -0.00, -1.00, 107.5, 4.0)">L</text><text xml:space="preserve" font-family="AvenirNextCondensed-Bold" font-weight="bold" font-size="98.0" fill="#D76800" transform="matrix(1.00, 0.00, -0.00, -1.00, 146.6, 4.0)">U</text><text xml:space="preserve" font-family="AvenirNextCondensed-Bold" font-weight="bold" font-size="98.0" fill="#D76800" transform="matrix(1.00, 0.00, -0.00, -1.00, 203.6, 4.0)">E</text><text xml:space="preserve" font-family="AvenirNextCondensed-Bold" font-weight="bold" font-size="98.0" fill="#D76800" transform="matrix(1.00, 0.00, -0.00, -1.00, 247.5, 4.0)"> </text><text xml:space="preserve" font-family="AvenirNextCondensed-Bold" font-weight="bold" font-size="98.0" fill="#D76800" transform="matrix(1.00, 0.00, -0.00, -1.00, 267.1, 4.0)">O</text><text xml:space="preserve" font-family="AvenirNextCondensed-Bold" font-weight="bold" font-size="98.0" fill="#D76800" transform="matrix(1.00, 0.00, -0.00, -1.00, 327.1, 4.0)">F</text><text xml:space="preserve" font-family="AvenirNextCondensed-Bold" font-weight="bold" font-size="98.0" fill="#D76800" transform="matrix(1.00, 0.00, -0.00, -1.00, 369.4, 4.0)"> </text><text xml:space="preserve" font-family="AvenirNextCondensed-Bold" font-weight="bold" font-size="98.0" fill="#D76800" transform="matrix(1.00, 0.00, -0.00, -1.00, 389.0, 4.0)">M</text><text xml:space="preserve" font-family="AvenirNextCondensed-Bold" font-weight="bold" font-size="98.0" fill="#D76800" transform="matrix(1.00, 0.00, -0.00, -1.00, 464.6, 4.0)">O</text><text xml:space="preserve" font-family="AvenirNextCondensed-Bold" font-weight="bold" font-size="98.0" fill="#D76800" transform="matrix(1.00, 0.00, -0.00, -1.00, 524.5, 4.0)">N</text><text xml:space="preserve" font-family="AvenirNextCondensed-Bold" font-weight="bold" font-size="98.0" fill="#D76800" transform="matrix(1.00, 0.00, -0.00, -1.00, 583.6, 4.0)">E</text><text xml:space="preserve" font-family="AvenirNextCondensed-Bold" font-weight="bold" font-size="98.0" fill="#D76800" transform="matrix(1.00, 0.00, -0.00, -1.00, 627.5, 4.0)">Y</text></g></svg>