<?xml version="1.0" encoding="UTF-8"?><svg xmlns="http://www.w3.org/2000/svg" xmlns:xlink="http://www.w3.org/1999/xlink" clip-rule="evenodd" stroke-miterlimit="4.00" viewBox="0 0 190 191"><desc>SVG generated by Keynote</desc><defs></defs><g transform="matrix(1.00, 0.00, -0.00, -1.00, 0.0, 191.0)"><g><clipPath id="clip-393"><path d="M 188.9 109.8 L 109.0 189.6 L 1.3 81.8 L 81.1 2.0 Z M 188.9 109.8 "></path></clipPath><g clip-path="url(#clip-393)"><g><clipPath id="clip-394"><path d="M 81.1 2.0 L 1.3 81.8 L 109.0 189.6 L 188.9 109.8 Z M 81.1 2.0 "></path></clipPath><g clip-path="url(#clip-394)"><path d="M 109.8 153.8 C 109.9 153.4 109.9 153.1 110.0 152.7 C 110.1 152.5 110.1 152.2 110.2 152.0 C 110.3 151.5 110.3 151.0 110.4 150.5 C 110.5 150.3 110.5 150.1 110.5 149.9 C 110.6 149.1 110.7 148.4 110.8 147.7 C 110.9 146.9 111.0 146.1 111.1 145.2 C 111.1 145.0 111.1 144.7 111.1 144.4 C 111.2 143.8 111.2 143.3 111.2 142.7 C 111.3 142.4 111.3 142.0 111.3 141.7 C 111.3 141.2 111.3 140.6 111.3 140.1 C 111.4 139.7 111.4 139.3 111.4 138.9 C 111.4 138.4 111.4 137.9 111.4 137.4 C 111.4 137.0 111.4 136.5 111.4 136.1 C 111.4 135.6 111.4 135.1 111.4 134.6 C 111.4 134.1 111.3 133.5 111.3 133.0 C 111.3 132.9 111.3 132.8 111.3 132.7 L 102.6 134.9 L 102.2 134.2 L 98.1 135.3 C 98.1 135.4 98.2 135.6 98.3 135.8 C 98.6 136.3 98.8 136.8 99.1 137.4 C 99.2 137.6 99.4 137.9 99.5 138.1 C 99.9 138.9 100.3 139.7 100.7 140.4 C 101.2 141.3 101.7 142.2 102.2 143.0 C 102.2 143.1 102.3 143.1 102.3 143.2 C 102.8 144.0 103.3 144.8 103.8 145.6 C 103.9 145.8 104.1 146.1 104.2 146.3 C 104.6 146.8 104.9 147.3 105.2 147.8 C 105.4 148.1 105.6 148.3 105.8 148.6 C 106.1 149.0 106.4 149.4 106.7 149.9 C 106.9 150.1 107.1 150.4 107.3 150.7 C 107.6 151.1 107.8 151.4 108.1 151.8 C 108.3 152.0 108.5 152.3 108.7 152.5 C 109.0 152.9 109.2 153.2 109.5 153.4 C 109.6 153.6 109.7 153.7 109.8 153.8 M 80.0 39.6 C 79.9 40.1 79.8 40.6 79.7 41.1 C 79.7 41.3 79.7 41.5 79.6 41.7 C 79.5 42.4 79.4 43.2 79.3 43.9 C 79.2 44.8 79.1 45.6 79.1 46.5 C 79.1 46.8 79.0 47.0 79.0 47.3 C 79.0 47.9 78.9 48.5 78.9 49.1 C 78.9 49.5 78.9 49.8 78.9 50.2 C 78.8 50.7 78.8 51.3 78.8 51.9 C 78.8 52.2 78.8 52.6 78.8 53.0 C 78.8 53.6 78.8 54.2 78.8 54.7 C 78.8 55.1 78.8 55.5 78.8 55.9 C 78.8 56.5 78.8 57.0 78.8 57.6 C 78.8 58.1 78.8 58.6 78.8 59.1 C 78.9 59.6 78.9 60.1 78.9 60.7 C 78.9 60.9 78.9 61.0 78.9 61.2 L 87.9 58.9 L 88.4 59.8 L 93.2 58.6 C 93.0 58.2 92.8 57.9 92.7 57.5 C 92.4 57.0 92.2 56.5 91.9 56.0 C 91.7 55.5 91.4 54.9 91.1 54.4 C 91.0 54.1 90.8 53.8 90.7 53.6 C 90.3 52.8 89.8 51.9 89.4 51.2 C 88.9 50.3 88.4 49.4 87.9 48.6 C 87.9 48.5 87.9 48.4 87.8 48.4 C 87.4 47.6 86.9 46.8 86.4 46.0 C 86.2 45.8 86.1 45.5 85.9 45.3 C 85.6 44.8 85.3 44.3 84.9 43.8 C 84.8 43.5 84.6 43.3 84.4 43.0 C 84.1 42.6 83.8 42.1 83.5 41.7 C 83.3 41.5 83.1 41.2 82.9 40.9 C 82.6 40.5 82.3 40.2 82.0 39.8 C 81.8 39.5 81.6 39.3 81.4 39.0 C 81.2 38.7 80.9 38.4 80.6 38.1 C 80.6 38.0 80.5 37.9 80.4 37.8 C 80.3 38.2 80.2 38.5 80.1 38.9 C 80.1 39.1 80.0 39.4 80.0 39.6 M 130.5 168.1 C 130.4 168.3 130.2 168.4 130.0 168.6 C 129.9 168.7 129.8 168.8 129.7 168.9 C 129.5 169.1 129.4 169.2 129.2 169.3 C 129.1 169.4 128.9 169.5 128.8 169.6 C 128.7 169.7 128.5 169.8 128.3 169.9 C 128.2 170.0 128.1 170.1 127.9 170.1 C 127.7 170.2 127.5 170.3 127.3 170.4 C 127.2 170.5 127.1 170.5 127.0 170.6 C 126.7 170.7 126.4 170.8 126.1 170.9 L 103.7 176.6 C 104.0 176.5 104.3 176.4 104.6 176.3 C 104.7 176.2 104.8 176.2 104.9 176.1 C 105.1 176.0 105.3 175.9 105.5 175.8 C 105.7 175.8 105.8 175.7 105.9 175.6 C 106.1 175.5 106.3 175.4 106.4 175.3 C 106.6 175.2 106.7 175.1 106.8 175.0 C 107.0 174.9 107.1 174.7 107.3 174.6 C 107.4 174.5 107.5 174.4 107.6 174.3 C 107.8 174.1 108.0 173.9 108.2 173.8 C 108.2 173.7 108.3 173.6 108.4 173.5 C 108.6 173.2 108.8 173.0 109.0 172.7 C 109.1 172.6 109.2 172.6 109.2 172.5 C 109.5 172.2 109.7 171.8 109.9 171.4 C 110.0 171.3 110.0 171.2 110.1 171.2 C 110.3 170.9 110.4 170.6 110.6 170.2 C 110.7 170.1 110.7 170.0 110.8 169.8 C 111.0 169.5 111.1 169.2 111.3 168.9 C 111.3 168.8 111.4 168.6 111.5 168.5 C 111.6 168.1 111.8 167.7 111.9 167.3 C 112.0 167.2 112.0 167.1 112.0 167.0 C 112.1 166.9 112.1 166.8 112.1 166.7 C 112.3 166.2 112.5 165.6 112.7 165.0 C 112.8 164.8 112.8 164.5 112.9 164.3 C 113.0 164.1 113.0 163.9 113.1 163.6 L 101.2 166.7 L 101.2 166.7 L 101.2 166.7 L 101.2 166.7 C 100.8 166.8 100.4 166.8 100.1 166.8 C 100.0 166.9 99.9 166.9 99.8 166.9 C 99.5 166.9 99.2 166.9 99.0 166.9 C 98.8 166.9 98.7 166.8 98.6 166.8 C 98.3 166.8 98.0 166.8 97.6 166.7 C 97.6 166.7 97.5 166.7 97.4 166.6 C 97.0 166.6 96.6 166.4 96.2 166.3 C 96.1 166.2 96.0 166.2 95.9 166.2 C 95.6 166.0 95.3 165.9 95.0 165.8 C 94.9 165.7 94.7 165.6 94.6 165.6 C 94.3 165.4 94.0 165.2 93.7 165.0 C 93.6 164.9 93.5 164.9 93.3 164.8 C 93.3 164.8 93.3 164.8 93.2 164.7 C 93.1 164.7 93.0 164.6 92.9 164.5 C 92.5 164.2 92.1 163.9 91.7 163.6 C 91.5 163.5 91.3 163.3 91.1 163.1 C 90.7 162.8 90.3 162.5 90.0 162.1 C 89.8 162.0 89.7 161.9 89.6 161.8 C 89.5 161.7 89.4 161.6 89.4 161.6 C 89.1 161.3 88.9 161.0 88.6 160.8 C 88.4 160.5 88.1 160.3 87.9 160.0 C 87.6 159.7 87.4 159.4 87.1 159.1 C 86.9 158.9 86.8 158.8 86.6 158.6 C 86.5 158.5 86.4 158.3 86.3 158.2 C 86.1 158.0 85.9 157.7 85.7 157.5 C 85.4 157.1 85.2 156.7 84.9 156.4 C 84.7 156.1 84.5 155.8 84.3 155.5 C 84.1 155.4 84.0 155.2 83.9 155.0 C 83.7 154.8 83.5 154.5 83.4 154.3 C 83.2 154.0 83.0 153.8 82.8 153.5 C 82.5 153.0 82.2 152.5 81.8 152.0 C 81.7 151.7 81.5 151.5 81.4 151.3 C 81.3 151.2 81.3 151.1 81.2 151.1 C 80.8 150.4 80.4 149.6 79.9 148.9 C 79.9 148.8 79.9 148.8 79.8 148.7 C 79.4 148.0 79.0 147.4 78.6 146.6 C 78.5 146.5 78.4 146.3 78.3 146.1 C 77.9 145.4 77.5 144.6 77.1 143.8 C 77.0 143.6 76.8 143.3 76.7 143.0 C 76.5 142.6 76.2 142.1 76.0 141.6 C 76.0 141.6 75.9 141.5 75.9 141.5 C 75.5 140.7 75.1 139.9 74.8 139.1 C 74.7 139.0 74.7 138.9 74.6 138.8 C 74.2 137.9 73.8 137.0 73.4 136.0 C 73.3 136.0 73.3 135.9 73.3 135.9 C 73.2 135.7 73.1 135.5 73.1 135.4 C 72.7 134.6 72.4 133.7 72.0 132.9 C 71.9 132.6 71.7 132.2 71.6 131.9 C 71.3 131.1 71.0 130.4 70.7 129.6 C 70.6 129.4 70.5 129.2 70.4 129.0 C 70.4 128.9 70.3 128.8 70.3 128.7 C 69.8 127.3 69.2 125.9 68.7 124.5 C 68.6 124.3 68.5 124.0 68.4 123.7 C 67.9 122.3 67.4 120.8 66.9 119.4 C 66.9 119.3 66.9 119.3 66.9 119.3 C 66.9 119.2 66.8 119.0 66.8 118.9 C 66.4 117.8 66.1 116.8 65.8 115.7 C 65.6 115.4 65.5 115.0 65.4 114.7 C 65.1 113.6 64.8 112.6 64.5 111.6 C 64.4 111.4 64.4 111.2 64.3 110.9 C 64.0 109.7 63.6 108.5 63.3 107.2 C 63.2 106.9 63.1 106.6 63.0 106.3 C 62.8 105.3 62.5 104.3 62.3 103.4 C 62.2 103.0 62.1 102.7 62.0 102.3 C 62.0 102.1 61.9 101.9 61.9 101.7 C 61.9 101.7 61.9 101.7 61.9 101.7 C 61.9 101.7 61.9 101.7 61.9 101.7 C 61.7 100.9 61.5 100.1 61.3 99.4 C 61.2 99.0 61.2 98.7 61.1 98.4 C 60.8 97.1 60.5 95.8 60.2 94.5 C 60.2 94.2 60.1 93.9 60.1 93.6 C 59.9 92.6 59.7 91.6 59.5 90.6 C 59.4 90.1 59.3 89.7 59.2 89.2 C 59.1 88.4 58.9 87.5 58.8 86.7 C 58.8 86.5 58.7 86.2 58.7 86.0 C 58.6 85.8 58.6 85.6 58.6 85.4 C 58.4 84.0 58.1 82.6 57.9 81.2 C 57.9 81.1 57.9 80.9 57.9 80.8 C 57.7 79.3 57.5 77.8 57.3 76.3 C 57.3 76.2 57.3 76.0 57.3 75.8 C 57.2 75.5 57.2 75.3 57.2 75.0 C 57.1 74.3 57.0 73.6 57.0 72.9 C 56.9 72.4 56.9 71.9 56.9 71.4 C 56.8 70.7 56.7 70.0 56.7 69.4 C 56.7 69.1 56.6 68.7 56.6 68.4 C 56.6 68.3 56.6 68.1 56.6 67.9 C 56.6 67.4 56.5 66.9 56.5 66.4 C 56.5 65.8 56.5 65.3 56.4 64.7 C 56.4 64.2 56.4 63.8 56.4 63.3 C 56.4 62.9 56.4 62.6 56.4 62.3 C 56.4 62.0 56.4 61.8 56.4 61.6 C 56.4 61.2 56.4 60.8 56.4 60.4 C 56.4 59.8 56.4 59.3 56.4 58.7 C 56.4 58.3 56.4 57.9 56.4 57.5 C 56.4 57.3 56.4 57.1 56.4 56.9 C 56.4 56.5 56.4 56.2 56.5 55.8 C 56.5 55.5 56.5 55.1 56.5 54.8 C 56.5 54.2 56.6 53.6 56.6 53.0 C 56.6 52.7 56.7 52.4 56.7 52.1 C 56.7 52.1 56.7 52.0 56.7 51.9 C 56.8 51.2 56.8 50.4 56.9 49.6 C 57.0 48.9 57.1 48.1 57.2 47.4 C 57.2 47.4 57.2 47.4 57.2 47.3 C 57.3 47.1 57.3 47.0 57.3 46.8 C 57.4 46.3 57.5 45.8 57.6 45.3 C 57.6 45.1 57.7 44.8 57.7 44.6 C 57.8 44.1 57.9 43.7 58.0 43.3 C 58.0 43.2 58.0 43.1 58.1 43.0 C 58.1 42.9 58.1 42.8 58.2 42.7 C 58.3 42.2 58.4 41.7 58.5 41.3 C 58.6 41.1 58.6 40.9 58.7 40.7 C 58.9 40.2 59.0 39.7 59.2 39.2 C 59.2 39.1 59.3 39.0 59.3 39.0 C 59.3 39.0 59.3 38.9 59.3 38.9 C 59.3 38.8 59.4 38.8 59.4 38.7 C 59.5 38.3 59.7 38.0 59.8 37.7 C 59.9 37.5 59.9 37.4 60.0 37.3 C 60.1 37.0 60.2 36.7 60.4 36.5 C 60.4 36.4 60.5 36.2 60.5 36.1 C 60.7 35.8 60.8 35.6 61.0 35.3 C 61.0 35.2 61.1 35.2 61.1 35.1 C 61.1 35.1 61.2 35.1 61.2 35.0 C 61.4 34.7 61.6 34.4 61.8 34.1 C 61.8 34.1 61.9 34.0 61.9 34.0 C 62.1 33.7 62.3 33.5 62.4 33.3 C 62.5 33.2 62.6 33.1 62.7 33.0 C 62.8 32.9 63.0 32.7 63.1 32.6 C 63.2 32.5 63.3 32.4 63.4 32.3 C 63.6 32.2 63.7 32.1 63.9 32.0 C 64.0 31.9 64.1 31.8 64.2 31.7 C 64.3 31.6 64.5 31.5 64.7 31.4 C 64.8 31.4 64.9 31.3 65.0 31.2 C 65.1 31.2 65.3 31.1 65.5 31.0 C 65.6 30.9 65.7 30.9 65.8 30.9 C 66.0 30.8 66.3 30.7 66.6 30.6 L 66.6 30.6 L 72.2 29.2 L 78.6 27.6 C 78.5 27.5 78.5 27.5 78.5 27.4 C 78.2 27.1 77.9 26.8 77.6 26.6 C 77.1 26.1 76.7 25.7 76.2 25.3 C 76.2 25.3 76.2 25.2 76.1 25.2 C 75.7 24.8 75.2 24.4 74.7 24.0 C 74.6 24.0 74.5 23.9 74.4 23.8 C 74.0 23.5 73.5 23.1 73.0 22.8 C 72.9 22.8 72.8 22.7 72.7 22.6 C 72.3 22.4 71.9 22.2 71.6 22.0 C 71.4 21.9 71.3 21.8 71.1 21.8 C 70.8 21.6 70.4 21.4 70.1 21.3 C 69.9 21.2 69.8 21.2 69.7 21.1 C 69.2 21.0 68.8 20.8 68.3 20.7 C 68.3 20.7 68.2 20.7 68.1 20.7 C 67.7 20.6 67.4 20.6 67.0 20.5 C 66.9 20.5 66.7 20.5 66.6 20.5 C 66.3 20.5 66.0 20.5 65.7 20.5 C 65.6 20.5 65.4 20.5 65.3 20.5 C 64.9 20.5 64.5 20.6 64.1 20.7 L 86.5 15.0 C 86.9 14.9 87.3 14.9 87.7 14.8 C 87.8 14.8 88.0 14.8 88.1 14.8 C 88.4 14.8 88.7 14.8 89.0 14.8 C 89.1 14.8 89.3 14.8 89.4 14.8 C 89.8 14.9 90.1 14.9 90.5 15.0 C 90.6 15.0 90.7 15.0 90.7 15.0 C 91.2 15.2 91.6 15.3 92.1 15.5 C 92.2 15.5 92.3 15.6 92.5 15.6 C 92.8 15.7 93.2 15.9 93.5 16.1 C 93.7 16.1 93.8 16.2 94.0 16.3 C 94.3 16.5 94.7 16.7 95.0 16.9 C 95.2 17.0 95.3 17.1 95.4 17.2 C 95.5 17.2 95.5 17.2 95.6 17.2 C 96.0 17.5 96.4 17.8 96.8 18.1 C 96.9 18.2 97.0 18.3 97.1 18.4 C 97.6 18.7 98.1 19.1 98.5 19.5 C 98.6 19.5 98.6 19.6 98.6 19.6 C 99.0 19.9 99.3 20.2 99.7 20.6 C 99.8 20.7 99.9 20.8 100.0 20.9 C 100.3 21.2 100.6 21.5 100.9 21.8 C 101.1 22.1 101.4 22.3 101.7 22.7 C 102.0 23.0 102.3 23.3 102.6 23.7 C 102.8 23.9 103.0 24.1 103.2 24.3 C 103.3 24.4 103.4 24.6 103.5 24.7 C 103.7 25.0 103.9 25.3 104.2 25.6 C 104.5 26.0 104.8 26.4 105.1 26.8 C 105.4 27.1 105.6 27.5 105.8 27.8 C 106.0 28.0 106.1 28.2 106.3 28.4 C 106.5 28.7 106.7 28.9 106.9 29.2 C 107.1 29.5 107.3 29.8 107.5 30.1 C 107.9 30.7 108.2 31.2 108.6 31.8 C 108.8 32.1 109.0 32.4 109.2 32.7 C 109.2 32.7 109.3 32.8 109.3 32.9 C 109.8 33.7 110.3 34.5 110.8 35.4 C 110.8 35.5 110.9 35.5 110.9 35.6 C 111.4 36.4 111.8 37.2 112.3 38.0 C 112.4 38.2 112.5 38.4 112.6 38.6 C 113.1 39.5 113.6 40.4 114.1 41.3 C 114.2 41.6 114.4 41.9 114.6 42.2 C 114.8 42.7 115.1 43.2 115.3 43.7 C 115.4 43.8 115.4 44.0 115.5 44.1 C 115.8 44.7 116.1 45.3 116.3 45.8 C 116.6 46.3 116.8 46.8 117.0 47.3 C 117.3 47.9 117.6 48.5 117.9 49.1 C 118.0 49.5 118.2 49.9 118.4 50.3 C 118.4 50.4 118.5 50.5 118.5 50.6 C 119.0 51.6 119.5 52.7 119.9 53.8 C 120.0 53.9 120.0 54.1 120.1 54.2 C 120.6 55.5 121.1 56.7 121.6 58.0 C 121.6 58.1 121.7 58.1 121.7 58.2 C 121.8 58.4 121.8 58.6 121.9 58.7 C 122.5 60.2 123.0 61.6 123.5 63.1 C 123.7 63.4 123.8 63.7 123.9 64.1 C 124.5 65.7 125.0 67.3 125.6 68.9 C 125.6 69.1 125.7 69.2 125.7 69.3 C 125.8 69.6 125.9 69.9 126.0 70.2 C 126.3 71.2 126.7 72.2 127.0 73.2 C 127.1 73.7 127.3 74.1 127.4 74.6 C 127.7 75.7 128.1 76.8 128.4 77.9 C 128.5 78.2 128.6 78.6 128.7 78.9 C 129.1 80.4 129.5 81.8 129.9 83.3 C 130.0 83.6 130.1 83.9 130.2 84.2 C 130.5 85.4 130.7 86.5 131.0 87.6 C 131.2 88.1 131.3 88.6 131.4 89.1 C 131.6 90.1 131.9 91.1 132.1 92.2 C 132.2 92.6 132.3 93.1 132.4 93.5 C 132.7 94.9 133.0 96.3 133.3 97.7 C 133.3 97.8 133.4 97.8 133.4 97.9 C 133.7 99.4 134.0 100.8 134.2 102.3 C 134.3 102.7 134.4 103.1 134.5 103.6 C 134.7 104.6 134.8 105.6 135.0 106.7 C 135.1 106.9 135.1 107.2 135.1 107.4 C 135.2 107.6 135.2 107.8 135.2 108.0 C 135.5 109.7 135.8 111.4 136.0 113.1 C 136.0 113.3 136.1 113.6 136.1 113.8 C 136.3 115.4 136.5 116.9 136.7 118.5 C 136.7 118.7 136.7 118.9 136.8 119.1 C 136.8 119.2 136.8 119.3 136.8 119.5 C 136.9 120.6 137.0 121.7 137.1 122.8 C 137.1 123.0 137.2 123.2 137.2 123.4 C 137.3 124.7 137.4 126.0 137.5 127.3 C 137.5 127.4 137.5 127.5 137.5 127.5 C 137.5 128.0 137.5 128.4 137.5 128.8 C 137.6 129.4 137.6 130.1 137.7 130.8 C 137.7 131.3 137.7 131.8 137.7 132.3 C 137.7 132.9 137.7 133.6 137.8 134.2 C 137.8 134.3 137.8 134.5 137.8 134.6 C 137.8 135.0 137.8 135.5 137.8 135.9 C 137.8 136.4 137.8 136.9 137.8 137.4 C 137.8 137.9 137.8 138.5 137.8 139.1 C 137.8 139.5 137.8 140.0 137.7 140.5 C 137.7 140.6 137.7 140.7 137.7 140.8 C 137.7 141.3 137.7 141.8 137.7 142.2 C 137.7 142.6 137.6 143.0 137.6 143.4 C 137.6 144.1 137.5 144.7 137.5 145.3 C 137.5 145.7 137.4 146.0 137.4 146.3 C 137.4 146.4 137.4 146.4 137.4 146.4 C 137.3 147.3 137.2 148.2 137.1 149.1 C 137.0 150.0 136.9 150.8 136.8 151.6 C 136.8 151.7 136.8 151.7 136.8 151.7 C 136.8 151.9 136.7 152.1 136.7 152.3 C 136.6 152.9 136.5 153.5 136.4 154.0 C 136.3 154.3 136.3 154.6 136.2 154.9 C 136.1 155.4 136.0 155.8 135.9 156.3 C 135.9 156.4 135.9 156.5 135.9 156.6 C 135.8 156.8 135.8 156.9 135.7 157.1 C 135.6 157.6 135.5 158.1 135.3 158.6 C 135.2 158.9 135.2 159.1 135.1 159.3 C 134.9 159.9 134.7 160.5 134.5 161.0 C 134.5 161.1 134.5 161.2 134.5 161.3 C 134.4 161.3 134.4 161.3 134.4 161.4 C 134.4 161.4 134.4 161.5 134.3 161.6 C 134.2 162.0 134.0 162.4 133.9 162.8 C 133.8 162.9 133.7 163.1 133.7 163.2 C 133.5 163.5 133.4 163.8 133.2 164.1 C 133.1 164.3 133.1 164.4 133.0 164.6 C 132.8 164.9 132.7 165.2 132.5 165.5 C 132.4 165.6 132.4 165.6 132.3 165.7 C 132.3 165.7 132.3 165.8 132.3 165.8 C 132.1 166.1 131.8 166.5 131.6 166.8 C 131.5 166.9 131.5 166.9 131.4 167.0 C 131.2 167.3 131.0 167.5 130.8 167.8 C 130.7 167.9 130.6 168.0 130.5 168.1 " fill="#F38907"></path><path d="M 87.4 60.2 L 87.9 61.0 L 94.7 59.3 L 94.2 58.1 L 93.6 56.9 C 93.4 56.5 93.1 56.0 92.9 55.5 C 92.6 55.0 92.4 54.4 92.1 53.9 L 91.7 53.1 C 91.2 52.2 90.8 51.4 90.4 50.6 C 89.9 49.7 89.4 48.9 88.8 47.9 L 88.8 47.8 C 88.3 47.0 87.8 46.2 87.3 45.4 L 86.8 44.7 C 86.5 44.2 86.2 43.7 85.8 43.2 C 85.7 42.9 85.3 42.4 85.3 42.4 C 85.0 41.9 84.7 41.5 84.4 41.1 C 84.2 40.8 84.0 40.5 83.8 40.3 C 83.5 39.9 83.2 39.5 82.9 39.1 C 82.9 39.1 82.4 38.6 82.3 38.4 C 82.0 38.1 81.8 37.8 81.5 37.4 L 79.8 35.5 L 79.3 37.6 C 79.2 37.9 79.1 38.3 79.1 38.7 C 79.1 38.7 78.9 39.2 78.9 39.4 C 78.8 39.9 78.7 40.4 78.6 40.9 L 78.5 41.6 C 78.4 42.3 78.3 43.0 78.2 43.8 C 78.1 44.6 78.1 45.5 78.0 46.4 L 77.9 47.3 C 77.9 47.9 77.8 48.5 77.8 49.1 L 77.8 50.1 C 77.7 50.7 77.7 51.3 77.7 51.8 C 77.7 52.2 77.7 52.6 77.7 53.0 C 77.7 53.6 77.7 54.1 77.7 54.7 C 77.7 55.1 77.7 55.5 77.7 55.9 C 77.7 56.5 77.7 57.0 77.7 57.6 C 77.7 58.1 77.7 58.6 77.8 59.1 C 77.8 59.6 77.8 60.1 77.8 60.6 L 77.9 62.6 Z M 136.7 134.2 L 136.7 134.6 C 136.7 134.9 136.7 136.9 136.7 137.4 C 136.7 137.8 136.7 138.3 136.7 138.8 L 136.7 139.4 C 136.7 139.7 136.7 140.1 136.7 140.4 L 136.6 140.7 C 136.6 141.1 136.6 141.4 136.6 141.7 L 136.5 143.4 C 136.5 144.0 136.5 144.6 136.4 145.1 L 136.3 146.3 C 136.3 147.2 136.2 148.1 136.1 149.0 C 136.0 149.4 135.9 149.8 135.9 150.3 C 127.7 151.0 119.4 151.7 111.2 152.6 L 111.2 152.2 C 111.3 151.7 111.4 151.2 111.5 150.6 L 111.6 150.0 C 111.7 149.3 111.8 148.5 111.9 147.8 C 112.0 147.0 112.1 146.2 112.2 145.3 L 112.2 144.2 C 112.3 143.7 112.3 143.3 112.3 142.8 L 112.4 141.6 C 112.4 141.1 112.4 140.6 112.4 140.1 C 112.4 139.9 112.5 138.6 112.5 138.6 C 112.5 138.2 112.5 137.8 112.5 137.4 C 112.5 137.0 112.5 136.0 112.5 136.0 C 112.5 135.5 112.5 135.1 112.5 134.6 C 112.4 134.1 112.4 133.5 112.4 132.9 L 112.3 131.4 L 103.2 133.7 L 102.7 132.9 L 96.5 134.5 L 97.3 136.3 C 97.6 136.8 97.9 137.3 98.1 137.9 L 98.5 138.6 C 99.0 139.4 99.4 140.2 99.8 141.0 C 100.3 141.9 100.8 142.7 101.3 143.7 L 101.4 143.8 C 101.9 144.6 102.4 145.4 102.8 146.2 L 103.3 146.9 C 103.6 147.4 104.0 147.9 104.3 148.4 C 104.5 148.6 104.9 149.2 104.9 149.2 C 105.2 149.7 105.5 150.1 105.8 150.5 C 106.0 150.8 106.2 151.1 106.4 151.3 C 106.7 151.7 107.0 152.1 107.3 152.5 L 107.7 152.9 C 100.3 153.7 93.1 154.7 85.8 155.8 C 85.8 155.8 85.8 155.8 85.7 155.7 C 85.5 155.4 85.3 155.2 85.1 154.9 L 84.7 154.4 L 83.7 152.9 C 83.4 152.4 83.1 151.9 82.7 151.4 L 82.2 150.5 C 81.7 149.8 81.3 149.1 80.8 148.3 L 80.8 148.2 C 80.4 147.5 80.0 146.8 79.6 146.1 L 79.3 145.6 C 78.9 144.9 78.5 144.1 78.1 143.3 L 77.5 142.2 C 77.3 141.9 77.2 141.5 76.9 141.1 L 76.9 141.0 C 76.5 140.2 76.1 139.4 75.7 138.6 L 75.6 138.3 C 75.2 137.4 74.8 136.5 74.3 135.6 L 74.1 134.9 C 73.7 134.1 73.4 133.3 73.0 132.5 L 72.6 131.4 C 72.3 130.7 72.0 130.0 71.7 129.2 L 71.4 128.6 L 71.3 128.3 C 70.8 126.9 70.3 125.5 69.7 124.1 L 69.5 123.4 C 69.0 121.9 68.4 120.5 67.9 118.9 L 67.8 118.5 C 67.5 117.5 67.1 116.5 66.8 115.4 L 66.5 114.3 C 66.2 113.3 65.9 112.3 65.6 111.3 L 65.4 110.6 C 65.0 109.4 64.7 108.2 64.3 106.9 L 64.1 106.0 C 63.8 105.0 63.6 104.1 63.3 103.1 L 62.9 101.4 C 62.8 100.9 62.7 100.3 62.5 99.7 L 62.2 98.1 C 61.9 96.8 61.6 95.5 61.3 94.2 L 61.1 93.4 C 60.9 92.4 60.7 91.4 60.6 90.4 L 60.3 89.0 C 60.2 88.2 60.0 87.3 59.9 86.5 L 59.7 85.8 L 59.7 85.2 C 59.4 83.8 59.2 82.4 59.0 81.0 L 59.0 80.6 C 58.8 79.2 58.6 77.7 58.4 76.2 L 58.4 75.7 L 58.3 74.9 C 58.2 74.2 58.1 73.5 58.1 72.8 C 58.0 72.3 58.0 71.8 57.9 71.3 C 57.9 70.6 57.8 70.0 57.8 69.3 L 57.7 68.4 L 57.7 67.8 C 57.7 67.4 57.6 66.3 57.6 66.3 C 57.6 65.8 57.6 65.2 57.5 64.7 C 57.5 64.2 57.5 62.2 57.5 62.2 C 57.5 62.2 57.5 60.8 57.5 60.4 C 57.5 59.8 57.5 59.3 57.5 58.7 C 57.5 58.3 57.5 56.9 57.5 56.9 L 57.6 54.9 C 57.6 54.3 57.7 53.7 57.7 53.1 L 57.8 52.0 C 57.8 51.3 57.9 50.5 58.0 49.7 C 58.1 49.0 58.2 48.3 58.3 47.5 L 58.4 47.0 C 58.5 46.5 58.6 46.0 58.6 45.5 L 58.8 44.8 C 58.9 44.4 59.0 44.0 59.1 43.6 L 59.1 43.3 L 59.2 42.9 C 59.3 42.5 59.4 42.0 59.6 41.6 L 59.7 41.0 C 59.9 40.5 60.1 40.0 60.2 39.6 L 60.3 39.4 L 60.4 39.1 C 60.5 38.7 60.7 38.4 60.8 38.1 L 60.8 38.0 C 75.9 34.8 91.1 32.0 106.4 30.5 C 106.5 30.6 106.6 30.7 106.6 30.7 C 107.0 31.3 107.3 31.8 107.7 32.4 L 108.4 33.5 C 108.9 34.3 109.4 35.1 109.9 36.0 L 110.0 36.1 C 110.4 36.9 110.9 37.7 111.3 38.5 L 111.7 39.1 C 112.2 40.0 112.6 40.9 113.1 41.8 C 113.1 41.8 114.2 43.8 114.3 44.2 L 114.5 44.6 C 114.8 45.1 115.1 45.7 115.3 46.2 L 115.4 46.3 C 115.4 46.3 115.9 47.4 116.1 47.8 C 116.3 48.4 116.6 48.9 116.9 49.6 L 117.4 50.7 L 117.5 51.0 C 118.0 52.1 118.5 53.1 118.9 54.2 L 119.1 54.7 C 119.6 55.9 120.1 57.1 120.6 58.4 L 120.9 59.1 C 121.4 60.5 122.0 62.0 122.5 63.4 L 122.9 64.4 C 123.5 66.0 124.0 67.6 124.6 69.3 L 124.7 69.6 L 125.0 70.5 C 125.3 71.5 125.6 72.5 125.9 73.5 L 126.4 74.9 C 126.7 76.0 127.0 77.1 127.4 78.2 L 127.7 79.2 C 128.1 80.7 128.5 82.1 128.9 83.5 L 129.1 84.5 C 129.4 85.6 129.7 86.8 130.0 87.9 L 130.3 89.3 C 130.6 90.4 130.8 91.4 131.1 92.4 L 131.4 93.8 C 131.7 95.2 132.0 96.5 132.3 97.9 L 132.3 98.1 C 132.6 99.6 132.9 101.0 133.2 102.5 L 133.4 103.8 C 133.6 104.8 133.8 105.8 133.9 106.8 L 134.1 107.6 L 134.2 108.1 C 134.4 109.9 134.7 111.6 134.9 113.3 L 135.0 114.0 C 135.2 115.5 135.4 117.1 135.6 118.6 L 135.7 119.2 L 135.7 119.6 C 135.8 120.7 135.9 121.8 136.0 122.9 L 136.1 123.5 C 136.2 124.8 136.3 126.1 136.4 127.4 L 136.5 129.1 C 136.5 129.7 136.5 130.2 136.6 130.8 C 136.6 131.2 136.6 132.6 136.6 132.6 C 136.6 133.1 136.7 133.7 136.7 134.2 " fill="#DC7601"></path><path d="M 135.0 114.0 C 135.2 115.5 135.4 117.1 135.6 118.6 L 135.7 119.2 L 135.7 119.6 C 135.8 120.7 135.9 121.8 136.0 122.9 L 136.1 123.5 C 136.2 124.8 136.3 126.1 136.4 127.4 L 136.5 129.1 C 136.5 129.7 136.5 130.2 136.6 130.8 C 136.6 130.9 136.6 131.2 136.6 131.5 C 128.5 132.2 120.5 133.0 112.4 133.7 C 112.4 133.4 112.4 133.2 112.4 132.9 L 112.3 131.4 L 103.2 133.7 L 102.7 132.9 L 96.5 134.5 L 96.7 135.0 C 89.9 135.5 83.0 136.0 76.2 136.4 C 75.7 136.5 75.2 136.5 74.8 136.5 C 74.6 136.2 74.5 135.9 74.3 135.6 L 74.1 134.9 C 73.7 134.1 73.4 133.3 73.0 132.5 L 72.6 131.4 C 72.3 130.7 72.0 130.0 71.7 129.2 L 71.4 128.6 L 71.3 128.3 C 70.8 126.9 70.3 125.5 69.8 124.1 L 69.5 123.4 C 69.0 121.9 68.4 120.5 67.9 118.9 L 67.8 118.5 C 67.5 117.5 67.1 116.5 66.8 115.4 L 66.5 114.3 C 66.2 113.3 65.9 112.3 65.6 111.3 L 65.4 110.6 C 65.0 109.4 64.7 108.2 64.3 106.9 L 64.1 106.0 C 63.8 105.0 63.6 104.1 63.3 103.1 L 62.9 101.4 C 62.8 100.9 62.7 100.3 62.5 99.7 L 62.2 98.1 C 61.9 96.8 61.6 95.5 61.3 94.2 L 61.1 93.4 C 60.9 92.4 60.7 91.4 60.6 90.4 L 60.3 89.0 C 60.2 88.2 60.0 87.3 59.9 86.5 L 59.7 85.8 L 59.7 85.2 C 59.4 83.8 59.2 82.4 59.0 81.0 L 59.0 80.6 C 58.8 79.2 58.6 77.7 58.4 76.2 L 58.4 75.7 L 58.3 74.9 C 58.2 74.2 58.1 73.5 58.1 72.8 C 58.0 72.3 58.0 71.8 57.9 71.3 C 57.9 70.6 57.8 70.0 57.8 69.3 L 57.7 68.4 L 57.7 67.8 C 57.7 67.4 57.6 66.3 57.6 66.3 C 57.6 65.8 57.6 65.2 57.5 64.7 C 57.5 64.2 57.5 62.2 57.5 62.2 C 57.5 62.2 57.5 60.8 57.5 60.4 C 57.5 59.8 57.5 59.3 57.5 58.7 C 57.5 58.3 57.5 56.9 57.5 56.9 L 57.6 55.4 C 64.2 54.2 71.0 53.2 77.7 52.4 C 77.7 52.6 77.7 52.8 77.7 53.0 C 77.7 53.6 77.7 54.1 77.7 54.7 C 77.7 55.1 77.7 55.5 77.7 55.9 C 77.7 56.5 77.7 57.0 77.7 57.6 C 77.7 58.1 77.7 58.6 77.8 59.1 C 77.8 59.6 77.8 60.1 77.8 60.6 L 77.9 62.6 L 87.4 60.2 L 87.9 61.0 L 94.7 59.3 L 94.2 58.1 L 93.6 56.9 C 93.4 56.5 93.1 56.0 92.9 55.5 C 92.6 55.0 92.4 54.4 92.1 53.9 L 91.7 53.1 C 91.4 52.5 91.0 51.9 90.7 51.3 C 99.7 50.8 108.8 50.8 117.7 51.4 C 118.1 52.3 118.5 53.2 118.9 54.2 L 119.1 54.7 C 119.6 55.9 120.1 57.1 120.6 58.4 L 120.9 59.1 C 121.4 60.5 122.0 62.0 122.5 63.4 L 122.9 64.4 C 123.5 66.0 124.0 67.6 124.6 69.3 L 124.7 69.6 L 125.0 70.5 C 125.3 71.5 125.6 72.5 125.9 73.5 L 126.4 74.9 C 126.7 76.0 127.0 77.1 127.4 78.2 L 127.7 79.2 C 128.1 80.7 128.5 82.1 128.9 83.5 L 129.1 84.5 C 129.4 85.7 129.7 86.8 130.0 87.9 L 130.3 89.3 C 130.6 90.4 130.8 91.4 131.1 92.4 L 131.4 93.8 C 131.7 95.2 132.0 96.5 132.3 97.9 L 132.3 98.1 C 132.6 99.6 132.9 101.0 133.2 102.5 L 133.4 103.8 C 133.6 104.8 133.8 105.8 133.9 106.8 L 134.1 107.6 L 134.2 108.1 C 134.4 109.9 134.7 111.6 134.9 113.3 Z M 135.0 114.0 " fill="#D66800"></path><path d="M 99.2 128.9 C 97.7 137.3 93.9 139.1 88.7 129.6 C 78.9 111.8 82.1 89.7 76.9 80.2 C 75.0 76.7 73.5 77.5 73.1 81.5 C 72.7 85.0 72.8 87.7 73.4 90.7 C 73.6 91.1 73.8 91.5 73.9 91.7 L 76.3 96.0 L 75.8 102.0 L 69.0 90.8 C 68.9 86.3 68.9 81.2 69.1 76.8 L 65.1 69.8 L 65.5 64.6 L 69.6 71.7 C 70.8 62.5 74.3 60.4 79.2 69.3 C 89.4 87.9 85.8 109.2 91.6 119.8 C 93.8 123.7 95.1 122.1 95.5 118.4 C 96.2 112.7 95.5 108.1 95.4 107.4 C 94.7 105.8 93.9 104.1 93.7 103.9 C 93.3 103.0 91.9 100.4 91.8 100.3 L 92.2 94.4 L 99.3 105.8 C 99.4 106.3 100.4 114.5 99.7 123.8 L 103.1 129.7 L 102.6 134.9 L 99.2 128.9 M 56.9 49.6 C 53.9 75.8 63.5 119.0 78.3 146.1 C 93.2 173.2 107.8 173.9 110.8 147.7 C 113.9 121.4 104.3 78.2 89.4 51.2 C 74.5 24.1 60.0 23.4 56.9 49.6 " fill="#FFE679"></path><path d="M 82.6 112.0 C 83.8 117.9 85.6 124.0 88.7 129.6 C 93.9 139.1 97.7 137.3 99.2 128.9 L 102.6 134.9 L 103.1 129.7 L 99.7 123.8 C 100.4 114.5 99.4 106.3 99.3 105.8 L 92.2 94.4 L 91.8 100.3 C 91.9 100.4 93.3 103.0 93.7 103.9 C 93.9 104.1 94.7 105.8 95.4 107.4 C 95.5 108.1 96.2 112.7 95.5 118.4 C 95.1 122.1 93.8 123.7 91.6 119.8 C 86.4 110.4 88.7 92.3 82.0 75.3 C 80.9 60.8 78.6 46.4 74.5 32.5 C 79.1 35.6 84.3 41.8 89.4 51.2 C 104.3 78.2 113.9 121.4 110.8 147.7 C 107.9 173.0 94.2 173.2 79.8 148.8 C 81.2 136.5 82.2 124.2 82.6 112.0 " fill="#FFD93A"></path><path d="M 110.8 147.7 C 107.8 173.9 93.2 173.2 78.3 146.1 C 63.5 119.0 53.9 75.8 56.9 49.6 C 60.0 23.4 74.5 24.1 89.4 51.2 C 104.3 78.2 113.9 121.4 110.8 147.7 M 53.0 42.5 C 49.5 72.5 60.5 122.0 77.5 153.0 C 94.6 184.0 111.2 184.8 114.7 154.8 C 118.2 124.8 107.3 75.3 90.2 44.2 C 73.2 13.2 56.5 12.4 53.0 42.5 " fill="#FFF1B4"></path><path d="M 81.5 153.4 C 87.6 162.6 93.6 167.7 99.0 168.0 C 102.2 168.1 105.0 166.5 107.2 163.3 C 109.5 159.9 111.1 154.6 111.9 147.8 C 115.0 121.4 105.3 77.8 90.4 50.6 C 83.4 37.9 76.2 30.5 69.9 29.4 C 69.2 26.8 68.4 24.3 67.6 21.7 C 74.0 22.8 81.8 31.1 89.3 44.8 C 106.2 75.6 117.1 124.9 113.7 154.7 C 112.8 162.1 111.1 167.8 108.7 171.4 C 106.6 174.4 104.1 175.8 101.3 175.7 C 95.5 175.4 88.3 168.8 81.2 157.2 C 81.3 155.9 81.4 154.7 81.5 153.4 " fill="#FCDE53"></path><path d="M 65.5 64.6 L 65.1 69.8 L 69.1 76.8 C 68.9 81.2 68.9 86.3 69.0 90.8 L 75.8 102.0 L 76.3 96.0 L 73.9 91.7 C 73.8 91.5 73.6 91.1 73.4 90.7 C 72.8 87.7 72.7 85.0 73.1 81.5 C 73.5 77.5 75.0 76.7 76.9 80.2 C 82.1 89.7 78.9 111.8 88.7 129.6 C 93.9 139.1 97.7 137.3 99.2 128.9 L 102.6 134.9 L 103.1 129.7 L 99.7 123.8 C 100.4 114.5 99.4 106.3 99.3 105.8 L 92.2 94.4 L 91.8 100.3 C 91.9 100.4 93.3 103.0 93.7 103.9 C 93.9 104.1 94.7 105.8 95.4 107.4 C 95.5 108.1 96.2 112.7 95.5 118.4 C 95.1 122.1 93.8 123.7 91.6 119.8 C 85.8 109.2 89.4 87.9 79.2 69.3 C 74.3 60.4 70.8 62.5 69.6 71.7 Z M 65.5 64.6 " fill="#FFF3A9"></path><path d="M 81.8 98.2 C 82.6 93.7 83.3 89.1 83.7 84.6 C 85.1 90.4 85.8 96.1 86.4 101.4 C 87.3 109.0 88.1 115.6 90.7 120.3 C 91.7 122.2 92.7 123.1 93.7 123.1 C 94.1 123.2 94.9 123.0 95.5 122.1 C 96.0 121.4 96.4 120.2 96.6 118.5 C 97.3 112.1 96.5 107.3 96.5 107.2 L 96.4 107.1 L 96.4 107.0 C 95.8 105.6 95.0 103.9 94.7 103.3 C 94.3 102.6 93.5 101.1 92.9 100.0 L 93.1 97.8 L 98.3 106.2 C 98.4 107.8 99.3 115.3 98.6 123.8 L 98.6 124.1 L 102.0 129.9 L 101.8 131.4 L 98.6 125.8 L 98.1 128.8 C 97.7 131.0 97.1 132.8 96.4 133.9 C 95.7 134.9 95.1 134.9 94.9 134.9 C 94.3 134.9 92.5 134.2 89.7 129.1 C 84.2 119.2 82.9 108.1 81.8 98.2 " fill="#FFE061"></path><path d="M 100.6 124.4 C 101.3 115.1 100.3 106.9 100.2 106.4 L 95.3 98.5 L 95.5 95.3 L 102.6 106.8 C 102.7 107.2 103.7 115.5 103.0 124.8 L 106.4 130.6 L 105.9 135.9 L 103.8 132.2 L 104.0 130.3 Z M 100.6 124.4 " fill="#BE5D00"></path><path d="M 65.5 64.6 L 68.8 65.5 L 71.0 69.3 C 70.8 70.2 70.6 71.2 70.5 72.3 Z M 65.5 64.6 " fill="#BE5D00"></path><path d="M 60.2 50.5 C 57.2 76.8 66.8 120.0 81.7 147.1 C 88.3 159.2 94.9 166.0 100.4 167.5 C 94.4 167.6 86.9 160.6 79.2 146.7 C 64.4 119.7 54.8 76.4 57.8 50.2 C 59.5 35.7 64.7 29.5 71.6 31.3 C 65.9 31.4 61.7 37.8 60.2 50.5 " fill="#BE5D00"></path><path d="M 82.5 70.2 C 92.7 88.9 89.1 110.2 94.9 120.7 C 95.2 121.2 95.4 121.6 95.7 121.9 C 95.0 123.1 93.9 123.0 92.5 120.4 C 86.7 109.9 90.3 88.5 80.1 69.9 C 78.6 67.2 77.2 65.6 76.1 64.8 C 77.7 63.9 79.9 65.5 82.5 70.2 " fill="#BE5D00"></path><path d="M 96.7 136.4 C 98.2 135.7 99.4 133.3 100.1 129.6 L 101.8 132.6 C 100.7 136.2 99.0 137.7 96.7 136.4 " fill="#BE5D00"></path><path d="M 74.8 92.3 C 74.7 92.2 74.5 91.8 74.3 91.3 C 73.7 88.3 73.6 85.6 74.0 82.1 C 74.4 78.6 75.5 77.6 77.1 79.7 C 76.8 80.3 76.5 81.2 76.4 82.4 C 76.0 85.9 76.1 88.6 76.7 91.6 C 77.0 92.1 77.1 92.5 77.2 92.6 L 79.6 96.9 L 79.1 102.9 L 75.8 102.0 L 77.2 96.6 Z M 74.8 92.3 " fill="#BE5D00"></path></g></g></g></g></g></svg>