<?xml version="1.0" encoding="UTF-8"?><svg xmlns="http://www.w3.org/2000/svg" xmlns:xlink="http://www.w3.org/1999/xlink" clip-rule="evenodd" stroke-miterlimit="4.00" viewBox="0 0 326 326"><desc>SVG generated by Keynote</desc><defs></defs><g transform="matrix(1.00, 0.00, -0.00, -1.00, 0.0, 326.0)"><g><clipPath id="clip-359"><path d="M 324.3 173.2 L 172.9 324.6 L 1.5 153.2 L 152.9 1.8 Z M 324.3 173.2 "></path></clipPath><g clip-path="url(#clip-359)"><g><clipPath id="clip-360"><path d="M 152.9 1.8 L 1.5 153.2 L 172.9 324.6 L 324.3 173.2 Z M 152.9 1.8 "></path></clipPath><g clip-path="url(#clip-360)"><path d="M 222.1 224.0 C 222.6 222.6 223.0 221.2 223.5 219.7 C 223.6 219.3 223.7 218.8 223.8 218.4 C 224.1 217.4 224.4 216.4 224.6 215.4 C 224.7 214.9 224.8 214.3 225.0 213.8 C 225.2 212.8 225.4 211.9 225.6 210.9 C 225.7 210.4 225.8 209.9 225.9 209.3 C 226.1 208.3 226.3 207.2 226.4 206.2 C 226.5 205.7 226.6 205.3 226.6 204.8 C 226.8 203.3 227.0 201.8 227.2 200.3 C 227.2 200.2 227.2 200.0 227.2 199.9 C 227.4 198.5 227.5 197.1 227.6 195.8 C 227.6 195.3 227.6 194.8 227.7 194.2 C 227.7 194.1 227.7 194.0 227.7 193.9 L 225.0 203.1 L 225.0 203.1 L 208.2 207.9 C 205.8 210.4 203.1 212.1 200.2 212.9 L 174.9 220.2 C 174.9 220.2 174.9 220.2 174.9 220.2 L 174.9 220.2 L 174.9 220.2 C 174.7 220.2 174.4 220.3 174.2 220.3 C 174.1 220.4 174.0 220.4 173.9 220.4 C 173.8 220.5 173.7 220.5 173.5 220.5 C 173.2 220.6 172.8 220.6 172.5 220.7 C 171.4 220.8 170.4 220.8 169.3 220.7 C 168.4 220.6 167.5 220.5 166.5 220.2 C 166.3 220.2 166.1 220.1 165.9 220.0 C 165.7 220.0 165.6 220.0 165.4 219.9 C 165.4 219.9 165.4 219.9 165.3 219.9 C 164.2 219.5 163.2 219.0 162.1 218.5 C 161.5 218.2 161.0 217.9 160.5 217.5 C 159.5 216.9 158.5 216.2 157.5 215.4 C 157.0 215.1 156.6 214.7 156.2 214.4 C 156.1 214.3 156.0 214.2 155.8 214.0 C 155.6 213.8 155.3 213.6 155.1 213.3 C 154.9 213.2 154.8 213.0 154.6 212.9 C 154.4 212.7 154.2 212.5 153.9 212.2 C 153.8 212.1 153.6 211.9 153.5 211.8 C 153.3 211.6 153.1 211.3 152.9 211.1 C 152.8 211.1 152.8 211.0 152.8 211.0 C 152.7 210.9 152.7 210.9 152.6 210.8 C 152.1 210.2 151.6 209.6 151.1 209.0 C 151.1 209.0 151.0 208.9 151.0 208.9 C 150.5 208.3 150.1 207.7 149.7 207.0 C 149.6 207.0 149.6 206.9 149.5 206.9 C 149.1 206.2 148.7 205.6 148.3 204.9 C 148.3 204.8 148.2 204.7 148.2 204.6 C 147.8 204.0 147.4 203.4 147.1 202.7 C 147.1 202.6 147.0 202.5 146.9 202.4 C 146.6 201.7 146.3 201.1 146.0 200.4 C 146.0 200.3 145.9 200.2 145.9 200.1 C 145.6 199.4 145.3 198.7 145.0 198.0 C 145.0 198.0 145.0 198.0 145.0 197.9 C 144.9 197.6 144.7 197.2 144.6 196.8 C 144.6 196.8 144.6 196.8 144.6 196.8 C 144.6 196.8 144.6 196.8 144.6 196.8 C 144.5 196.5 144.4 196.3 144.4 196.1 C 144.3 195.8 144.2 195.6 144.1 195.3 C 143.9 194.8 143.8 194.3 143.7 193.8 C 143.6 193.6 143.5 193.3 143.4 193.1 C 143.3 192.5 143.1 191.8 143.0 191.2 C 142.9 191.1 142.9 191.0 142.9 190.8 C 142.7 190.1 142.5 189.3 142.4 188.6 C 142.3 188.4 142.3 188.1 142.3 187.9 C 142.2 187.4 142.1 186.8 142.0 186.3 C 141.9 186.0 141.9 185.8 141.8 185.5 C 141.8 185.0 141.7 184.5 141.6 184.0 C 141.6 183.7 141.5 183.4 141.5 183.1 C 141.4 182.6 141.4 182.1 141.3 181.6 C 141.3 181.4 141.2 181.1 141.2 180.9 C 141.1 180.3 141.1 179.7 141.0 179.1 C 141.0 178.9 141.0 178.8 141.0 178.6 C 140.9 177.8 140.8 177.1 140.8 176.4 C 140.8 176.3 140.8 176.2 140.7 176.1 L 124.0 180.9 L 105.6 168.6 C 106.5 160.9 107.7 152.0 109.6 144.3 L 98.6 136.3 L 101.3 126.9 L 119.9 121.5 C 120.2 121.3 120.4 121.0 120.6 120.8 C 120.7 120.7 120.7 120.7 120.8 120.6 C 121.4 120.0 122.0 119.5 122.7 119.0 C 122.8 119.0 122.8 118.9 122.9 118.9 C 123.1 118.7 123.4 118.5 123.7 118.4 C 123.8 118.3 123.9 118.2 124.0 118.2 C 124.2 118.0 124.5 117.9 124.8 117.7 C 124.9 117.7 125.0 117.6 125.1 117.6 C 125.4 117.4 125.8 117.2 126.2 117.1 C 126.2 117.1 126.2 117.1 126.2 117.1 C 126.5 116.9 126.9 116.8 127.2 116.8 C 127.2 116.7 127.3 116.7 127.4 116.7 L 127.4 116.7 L 127.4 116.7 L 145.9 111.4 L 152.8 109.4 L 152.8 109.4 C 157.5 108.0 162.7 109.3 168.3 113.7 C 168.7 114.1 169.2 114.4 169.6 114.8 C 169.7 114.9 169.9 115.0 170.0 115.2 C 170.3 115.4 170.6 115.7 170.9 115.9 C 171.0 116.1 171.2 116.2 171.3 116.4 C 171.6 116.6 171.8 116.8 172.0 117.1 C 172.2 117.2 172.4 117.4 172.5 117.6 C 172.7 117.8 172.9 118.0 173.2 118.3 C 173.2 118.3 173.3 118.4 173.4 118.5 C 173.4 118.5 173.5 118.6 173.5 118.7 C 174.0 119.2 174.5 119.8 175.0 120.4 C 175.1 120.5 175.1 120.6 175.2 120.7 C 175.7 121.3 176.2 122.0 176.6 122.6 C 176.6 122.6 176.6 122.6 176.6 122.7 C 177.1 123.3 177.5 124.0 177.9 124.6 C 178.0 124.7 178.0 124.8 178.1 124.9 C 178.4 125.5 178.8 126.2 179.1 126.8 C 179.2 127.0 179.3 127.1 179.3 127.2 C 179.7 127.8 180.0 128.5 180.3 129.2 C 180.3 129.3 180.4 129.4 180.4 129.5 C 180.7 130.2 181.0 130.9 181.3 131.6 C 181.3 131.6 181.3 131.7 181.3 131.8 C 181.6 132.5 181.9 133.2 182.1 133.9 C 182.1 133.9 182.1 134.0 182.1 134.0 C 182.4 134.7 182.6 135.4 182.8 136.1 C 182.8 136.3 182.9 136.4 182.9 136.5 C 183.1 137.2 183.3 137.9 183.4 138.6 C 183.5 138.7 183.5 138.8 183.5 138.9 C 183.7 139.7 183.9 140.4 184.0 141.1 C 184.0 141.2 184.0 141.3 184.1 141.4 C 184.2 142.1 184.4 142.8 184.5 143.6 C 184.5 143.6 184.5 143.6 184.5 143.6 C 184.6 144.4 184.7 145.1 184.8 145.9 C 184.9 145.9 184.9 146.0 184.9 146.1 C 185.0 146.8 185.1 147.6 185.2 148.3 C 185.2 148.4 185.2 148.5 185.2 148.6 C 185.2 148.7 185.2 148.7 185.2 148.7 L 202.8 143.6 L 222.0 156.2 C 222.0 156.3 222.1 156.4 222.1 156.5 C 222.1 156.5 222.1 156.6 222.1 156.6 C 222.1 156.7 222.1 156.9 222.1 157.0 C 222.1 157.1 222.1 157.2 222.1 157.3 C 222.1 157.5 222.1 157.6 222.1 157.8 C 222.2 157.9 222.2 158.1 222.2 158.2 C 222.2 158.4 222.2 158.6 222.2 158.9 C 222.2 159.0 222.2 159.2 222.2 159.4 C 222.2 159.6 222.2 159.9 222.2 160.1 C 222.2 160.3 222.2 160.5 222.2 160.8 C 222.2 161.0 222.2 161.3 222.2 161.6 C 222.2 161.9 222.2 162.1 222.2 162.4 C 222.2 162.7 222.2 163.0 222.2 163.3 C 222.2 163.6 222.2 163.9 222.2 164.2 C 222.2 164.5 222.2 164.8 222.2 165.2 C 222.1 165.5 222.1 165.8 222.1 166.2 C 222.1 166.5 222.1 166.9 222.0 167.3 C 222.0 167.6 222.0 168.0 222.0 168.3 C 221.9 168.7 221.9 169.1 221.9 169.5 C 221.8 169.9 221.8 170.3 221.8 170.7 C 221.7 171.1 221.7 171.5 221.6 172.0 C 221.6 172.3 221.5 172.7 221.5 173.1 C 221.4 173.6 221.4 174.1 221.3 174.5 C 221.2 174.9 221.2 175.4 221.1 175.8 C 221.0 176.2 221.0 176.7 220.9 177.2 C 220.8 177.6 220.7 178.1 220.6 178.5 C 220.6 179.0 220.5 179.5 220.4 180.0 C 220.3 180.5 220.2 180.9 220.1 181.4 C 220.0 181.9 219.9 182.4 219.7 183.0 C 219.6 183.4 219.5 183.9 219.4 184.4 C 219.3 184.6 219.3 184.8 219.2 185.0 C 219.1 185.7 218.9 186.3 218.8 186.9 C 218.8 186.9 218.8 186.9 218.8 186.9 L 227.7 193.5 C 227.8 192.7 227.8 191.9 227.8 191.1 C 227.8 190.6 227.9 190.0 227.9 189.4 C 227.9 188.4 227.9 187.4 227.9 186.4 C 227.9 185.8 227.9 185.3 227.9 184.7 C 227.9 183.6 227.8 182.5 227.8 181.4 C 227.8 181.0 227.8 180.5 227.7 180.1 C 227.7 178.5 227.6 176.9 227.4 175.4 C 227.4 175.2 227.4 174.9 227.4 174.7 C 227.3 173.4 227.1 172.0 227.0 170.7 C 226.9 170.2 226.8 169.7 226.8 169.1 C 226.7 168.1 226.5 167.1 226.4 166.0 C 226.3 165.4 226.2 164.9 226.1 164.3 C 225.9 163.3 225.8 162.3 225.6 161.2 C 225.5 160.7 225.4 160.1 225.3 159.6 C 225.1 158.4 224.8 157.3 224.6 156.2 C 224.5 155.8 224.4 155.3 224.3 154.9 C 224.0 153.4 223.6 151.9 223.2 150.3 C 223.1 150.0 223.0 149.7 223.0 149.5 C 222.6 148.2 222.3 147.0 221.9 145.8 C 221.8 145.2 221.6 144.7 221.5 144.2 C 221.2 143.2 220.9 142.2 220.5 141.2 C 220.4 140.6 220.2 140.1 220.0 139.5 C 219.6 138.5 219.3 137.6 219.0 136.6 C 218.8 136.1 218.6 135.5 218.4 135.0 C 218.0 133.9 217.5 132.8 217.1 131.7 C 217.0 131.3 216.8 131.0 216.7 130.6 C 216.1 129.1 215.4 127.7 214.8 126.3 C 214.7 125.9 214.5 125.6 214.4 125.3 C 213.9 124.2 213.3 123.1 212.8 122.0 C 212.6 121.5 212.3 121.0 212.1 120.5 C 211.6 119.6 211.2 118.7 210.7 117.8 C 210.4 117.3 210.1 116.8 209.9 116.2 C 209.4 115.3 208.9 114.4 208.4 113.6 C 208.1 113.1 207.8 112.6 207.5 112.1 C 206.9 111.1 206.3 110.1 205.7 109.1 C 205.5 108.8 205.3 108.5 205.1 108.2 C 204.3 106.9 203.5 105.6 202.6 104.3 C 202.4 104.0 202.2 103.7 201.9 103.4 C 201.3 102.4 200.6 101.5 199.9 100.6 C 199.6 100.1 199.3 99.7 199.0 99.3 C 198.4 98.5 197.7 97.7 197.1 96.9 C 196.8 96.5 196.4 96.0 196.1 95.6 C 195.4 94.8 194.8 94.1 194.1 93.3 C 193.8 92.9 193.4 92.5 193.1 92.1 C 192.5 91.4 191.9 90.8 191.2 90.1 C 190.8 89.6 190.3 89.1 189.9 88.6 C 189.2 87.9 188.5 87.3 187.9 86.6 C 187.4 86.2 187.0 85.7 186.5 85.3 C 185.8 84.6 185.0 83.9 184.2 83.2 C 183.9 82.9 183.5 82.5 183.1 82.2 C 181.9 81.1 180.7 80.1 179.5 79.2 C 173.4 74.3 167.1 70.5 160.8 67.8 C 158.3 66.7 155.8 65.7 153.3 64.9 C 149.6 63.8 145.8 63.0 142.1 62.6 C 139.3 62.2 136.6 62.2 133.8 62.2 C 133.8 62.3 133.8 62.3 133.7 62.3 C 133.5 62.4 133.3 62.5 133.1 62.7 C 132.6 63.0 132.2 63.3 131.7 63.6 C 131.6 63.6 131.4 63.7 131.3 63.8 C 130.7 64.2 130.1 64.6 129.5 65.0 C 129.4 65.1 129.2 65.2 129.1 65.3 C 128.6 65.7 128.1 66.1 127.6 66.4 C 127.5 66.6 127.3 66.7 127.1 66.9 C 126.6 67.3 126.1 67.7 125.6 68.1 C 125.5 68.2 125.4 68.3 125.3 68.4 C 124.7 68.9 124.1 69.4 123.5 70.0 C 123.4 70.1 123.2 70.2 123.1 70.4 C 122.6 70.8 122.2 71.2 121.8 71.7 C 121.6 71.8 121.4 72.0 121.3 72.2 C 120.7 72.7 120.2 73.3 119.7 73.9 C 119.7 73.9 119.6 73.9 119.6 73.9 C 119.1 74.6 118.6 75.2 118.0 75.8 C 117.9 76.0 117.7 76.2 117.6 76.4 C 117.2 76.8 116.8 77.3 116.4 77.8 C 116.3 78.0 116.1 78.2 116.0 78.4 C 115.5 79.1 115.0 79.7 114.5 80.4 C 114.4 80.5 114.4 80.6 114.3 80.7 C 113.9 81.3 113.5 82.0 113.1 82.6 C 112.9 82.8 112.8 83.0 112.6 83.2 C 112.3 83.8 111.9 84.4 111.6 85.0 C 111.5 85.2 111.3 85.3 111.2 85.5 C 110.8 86.3 110.4 87.0 109.9 87.8 C 109.8 88.0 109.7 88.2 109.7 88.3 C 109.3 89.0 109.0 89.6 108.7 90.3 C 108.5 90.5 108.4 90.7 108.3 91.0 C 108.0 91.7 107.6 92.4 107.3 93.1 C 107.2 93.3 107.2 93.4 107.1 93.5 C 106.7 94.4 106.4 95.2 106.0 96.1 C 105.9 96.3 105.8 96.6 105.7 96.8 C 105.4 97.5 105.2 98.2 104.9 98.8 C 104.8 99.1 104.7 99.4 104.6 99.6 C 104.3 100.5 104.0 101.5 103.6 102.4 C 103.2 103.6 102.8 104.9 102.5 106.1 C 102.4 106.5 102.3 106.9 102.1 107.4 C 101.9 108.2 101.7 109.0 101.5 109.9 C 101.3 110.4 101.2 110.9 101.1 111.4 C 100.9 112.1 100.7 112.9 100.6 113.7 C 100.4 114.2 100.3 114.8 100.2 115.3 C 100.1 116.1 99.9 116.8 99.8 117.6 C 99.7 118.1 99.6 118.7 99.5 119.3 C 99.4 120.0 99.3 120.7 99.2 121.5 C 99.1 122.1 99.0 122.7 98.9 123.2 C 98.8 124.0 98.7 124.7 98.7 125.4 C 98.6 126.0 98.5 126.6 98.5 127.2 C 98.4 128.0 98.3 128.7 98.3 129.4 C 98.2 130.0 98.2 130.6 98.2 131.3 C 98.1 132.0 98.1 132.7 98.0 133.4 C 98.0 134.1 98.0 134.7 98.0 135.3 C 97.9 136.0 97.9 136.8 97.9 137.5 C 97.9 138.1 97.9 138.7 97.9 139.4 C 97.9 140.1 97.9 140.8 97.9 141.6 C 97.9 142.2 97.9 142.8 97.9 143.4 C 98.0 144.2 98.0 144.9 98.0 145.6 C 98.0 146.3 98.1 146.9 98.1 147.5 C 98.2 148.3 98.2 149.0 98.3 149.7 C 98.3 150.4 98.3 151.0 98.4 151.6 C 98.5 152.4 98.5 153.1 98.6 153.8 C 98.7 154.5 98.7 155.1 98.8 155.7 C 98.9 156.5 99.0 157.2 99.1 157.9 C 99.2 158.6 99.2 159.2 99.3 159.8 C 99.4 160.6 99.6 161.3 99.7 162.1 C 99.8 162.7 99.9 163.3 100.0 163.9 C 100.2 165.1 100.4 166.3 100.6 167.5 C 100.7 167.7 100.7 167.9 100.8 168.1 C 101.0 169.1 101.2 170.2 101.4 171.3 C 101.5 171.6 101.6 172.0 101.7 172.4 C 101.9 173.3 102.2 174.3 102.4 175.3 C 102.5 175.6 102.5 175.9 102.6 176.1 C 102.9 177.3 103.2 178.6 103.6 179.8 C 103.7 180.1 103.8 180.3 103.8 180.6 C 104.1 181.6 104.4 182.5 104.7 183.5 C 104.8 183.9 104.9 184.2 105.0 184.6 C 105.4 185.6 105.7 186.7 106.1 187.8 C 106.2 187.9 106.2 188.1 106.2 188.2 C 106.7 189.4 107.1 190.6 107.5 191.8 C 107.7 192.1 107.8 192.4 107.9 192.7 C 108.3 193.6 108.6 194.5 109.0 195.4 C 109.1 195.8 109.2 196.1 109.4 196.4 C 109.9 197.6 110.4 198.7 110.9 199.9 C 110.9 200.0 111.0 200.1 111.0 200.3 C 111.5 201.3 112.0 202.3 112.5 203.3 C 112.6 203.7 112.8 204.0 112.9 204.3 C 113.4 205.2 113.8 206.1 114.3 207.0 C 114.4 207.2 114.5 207.5 114.7 207.8 C 115.2 208.9 115.8 210.0 116.4 211.1 C 116.5 211.3 116.7 211.5 116.8 211.8 C 117.3 212.6 117.8 213.5 118.3 214.4 C 118.5 214.7 118.7 215.0 118.9 215.3 C 119.4 216.2 120.0 217.1 120.5 218.0 C 120.6 218.2 120.7 218.3 120.8 218.5 C 121.5 219.5 122.2 220.6 122.9 221.6 C 123.0 221.9 123.2 222.1 123.4 222.4 C 124.0 223.2 124.5 224.0 125.1 224.7 C 125.3 225.0 125.5 225.3 125.7 225.6 C 126.4 226.5 127.1 227.5 127.9 228.5 C 127.9 228.5 128.0 228.6 128.0 228.7 C 128.7 229.6 129.4 230.5 130.2 231.3 C 130.4 231.6 130.6 231.9 130.8 232.1 C 131.5 232.9 132.1 233.6 132.7 234.3 C 132.9 234.5 133.1 234.7 133.3 234.9 C 134.2 235.9 135.1 236.9 136.0 237.9 C 136.2 238.1 136.4 238.3 136.6 238.5 C 137.5 239.3 138.3 240.2 139.2 241.0 C 139.3 241.2 139.4 241.3 139.6 241.4 C 140.5 242.3 141.5 243.2 142.5 244.1 C 142.7 244.3 143.0 244.5 143.2 244.7 C 144.2 245.5 145.2 246.4 146.3 247.2 C 154.7 254.0 163.5 258.6 172.1 261.3 C 172.2 261.4 172.4 261.4 172.5 261.4 C 174.4 262.1 176.4 262.5 178.3 262.9 C 178.9 263.0 179.4 263.2 179.9 263.3 C 180.3 263.3 180.6 263.4 181.0 263.4 C 181.9 263.6 182.8 263.7 183.7 263.8 C 184.3 263.9 184.9 263.9 185.5 264.0 C 186.1 264.0 186.7 264.1 187.3 264.1 C 188.1 264.2 188.8 264.2 189.6 264.2 C 190.1 264.2 190.5 264.2 191.0 264.2 C 191.3 264.2 191.6 264.2 191.9 264.2 C 205.1 256.5 215.8 242.9 222.1 224.0 M 194.0 191.8 L 175.2 197.2 C 174.6 197.3 174.1 197.4 173.6 197.4 C 173.6 197.5 173.7 197.6 173.7 197.7 C 174.1 198.3 174.5 198.9 174.9 199.6 C 175.0 199.6 175.0 199.7 175.1 199.7 C 175.5 200.4 175.9 201.0 176.4 201.6 C 176.4 201.6 176.5 201.7 176.5 201.7 C 177.0 202.3 177.5 202.9 178.0 203.5 C 178.1 203.6 178.2 203.7 178.3 203.8 C 178.5 204.0 178.7 204.3 178.9 204.5 C 179.0 204.6 179.2 204.8 179.3 204.9 C 179.5 205.2 179.8 205.4 180.0 205.6 C 180.1 205.7 180.3 205.9 180.4 206.0 C 180.7 206.3 181.0 206.5 181.2 206.7 C 181.4 206.9 181.5 207.0 181.6 207.1 C 182.0 207.4 182.4 207.8 182.9 208.1 C 183.9 208.9 184.9 209.6 185.9 210.2 C 186.1 210.4 186.3 210.5 186.6 210.7 C 188.0 208.6 189.3 206.2 190.4 203.6 L 190.4 203.6 L 190.4 203.6 L 201.7 200.3 L 193.4 194.2 C 193.6 193.4 193.8 192.6 194.0 191.8 M 137.7 127.6 L 137.7 127.6 L 137.7 127.6 L 126.5 130.8 L 135.0 137.0 C 134.9 137.4 134.8 137.8 134.7 138.3 L 152.4 133.2 L 152.4 133.2 C 152.4 133.2 152.5 133.2 152.6 133.1 C 152.8 133.1 152.9 133.1 153.1 133.0 C 153.1 133.0 153.1 133.0 153.1 133.0 C 153.0 132.8 152.8 132.5 152.7 132.2 C 152.6 132.1 152.6 132.0 152.5 131.9 C 152.1 131.3 151.7 130.6 151.3 130.0 C 151.2 129.9 151.2 129.9 151.2 129.9 C 150.8 129.3 150.3 128.6 149.8 128.0 C 149.8 127.9 149.7 127.8 149.6 127.7 C 149.2 127.1 148.7 126.5 148.1 126.0 C 148.0 125.8 147.9 125.7 147.8 125.6 C 147.6 125.3 147.3 125.1 147.1 124.9 C 147.0 124.7 146.8 124.5 146.7 124.4 C 146.4 124.1 146.2 123.9 145.9 123.7 C 145.8 123.5 145.6 123.4 145.5 123.2 C 145.2 123.0 144.9 122.7 144.6 122.5 C 144.5 122.3 144.4 122.2 144.2 122.1 C 143.8 121.7 143.3 121.4 142.9 121.0 C 142.3 120.5 141.8 120.2 141.2 119.8 C 141.0 120.1 140.8 120.5 140.6 120.8 C 140.6 121.0 140.5 121.1 140.4 121.2 C 140.0 122.1 139.5 123.0 139.1 124.0 C 139.0 124.1 139.0 124.3 138.9 124.4 C 138.5 125.4 138.1 126.5 137.7 127.6 M 161.6 271.4 C 160.5 271.3 159.4 271.3 158.3 271.1 C 157.7 271.1 157.2 271.0 156.6 270.9 C 155.9 270.8 155.2 270.7 154.6 270.6 C 154.2 270.5 153.9 270.4 153.5 270.4 C 142.7 268.2 131.6 263.0 120.9 254.5 C 119.8 253.7 118.8 252.8 117.8 252.0 C 117.6 251.8 117.3 251.6 117.1 251.4 C 116.1 250.5 115.1 249.6 114.2 248.7 C 114.0 248.6 113.9 248.5 113.8 248.3 C 112.9 247.5 112.1 246.6 111.2 245.8 C 111.0 245.6 110.8 245.4 110.6 245.2 C 109.7 244.2 108.8 243.2 107.9 242.2 C 107.8 242.2 107.8 242.1 107.7 242.1 C 107.6 241.9 107.4 241.7 107.3 241.6 C 106.7 240.9 106.1 240.2 105.5 239.4 C 105.2 239.2 105.0 238.9 104.8 238.6 C 104.1 237.8 103.3 236.9 102.6 236.0 C 102.6 235.9 102.5 235.8 102.5 235.8 C 101.7 234.8 101.0 233.8 100.3 232.9 C 100.1 232.6 99.9 232.3 99.7 232.0 C 99.1 231.2 98.6 230.5 98.0 229.7 C 97.8 229.4 97.7 229.2 97.5 228.9 C 96.8 227.9 96.1 226.8 95.4 225.8 C 95.3 225.6 95.3 225.5 95.2 225.3 C 94.6 224.4 94.0 223.5 93.5 222.6 C 93.3 222.3 93.1 222.0 92.9 221.7 C 92.4 220.8 91.9 219.9 91.4 219.1 C 91.3 218.8 91.2 218.6 91.0 218.4 C 90.4 217.3 89.8 216.2 89.3 215.1 C 89.1 214.8 89.0 214.5 88.9 214.3 C 88.4 213.4 88.0 212.5 87.5 211.6 C 87.4 211.3 87.2 211.0 87.1 210.6 C 86.6 209.6 86.1 208.6 85.6 207.6 C 85.6 207.4 85.5 207.3 85.5 207.2 C 85.0 206.0 84.5 204.9 84.0 203.7 C 83.9 203.4 83.7 203.1 83.6 202.7 C 83.2 201.8 82.9 200.9 82.5 200.0 C 82.4 199.7 82.3 199.4 82.2 199.1 C 81.7 197.9 81.3 196.7 80.9 195.5 C 80.8 195.4 80.8 195.2 80.7 195.1 C 80.4 194.0 80.0 192.9 79.7 191.9 C 79.5 191.5 79.4 191.2 79.3 190.8 C 79.0 189.8 78.7 188.9 78.5 187.9 C 78.4 187.6 78.3 187.4 78.2 187.1 C 77.9 185.9 77.5 184.6 77.2 183.4 C 77.1 183.2 77.1 182.9 77.0 182.6 C 76.8 181.6 76.5 180.6 76.3 179.7 C 76.2 179.3 76.1 178.9 76.0 178.6 C 75.8 177.5 75.6 176.4 75.4 175.4 C 75.3 175.2 75.3 175.0 75.3 174.8 C 75.0 173.8 74.8 172.7 74.7 171.6 C 74.6 171.5 74.6 171.3 74.6 171.2 C 74.5 170.6 74.4 170.0 74.3 169.4 C 74.2 168.6 74.1 167.9 73.9 167.1 C 73.9 166.5 73.8 165.9 73.7 165.3 C 73.6 164.5 73.5 163.8 73.4 163.0 C 73.4 162.4 73.3 161.8 73.2 161.1 C 73.2 160.4 73.1 159.7 73.0 158.9 C 73.0 158.3 72.9 157.7 72.9 157.0 C 72.8 156.3 72.8 155.6 72.7 154.8 C 72.7 154.2 72.7 153.6 72.6 152.9 C 72.6 152.2 72.6 151.5 72.6 150.7 C 72.5 150.1 72.5 149.5 72.5 148.9 C 72.5 148.1 72.5 147.4 72.5 146.7 C 72.5 146.0 72.5 145.4 72.5 144.8 C 72.5 144.1 72.5 143.3 72.6 142.6 C 72.6 142.0 72.6 141.4 72.6 140.7 C 72.7 140.0 72.7 139.3 72.8 138.6 C 72.8 137.9 72.8 137.3 72.9 136.7 C 73.0 136.0 73.0 135.3 73.1 134.5 C 73.1 133.9 73.2 133.3 73.3 132.7 C 73.4 132.0 73.4 131.3 73.5 130.5 C 73.6 130.0 73.7 129.4 73.8 128.8 C 73.9 128.0 74.0 127.3 74.1 126.6 C 74.2 126.0 74.3 125.4 74.4 124.9 C 74.5 124.1 74.7 123.4 74.8 122.6 C 75.0 122.1 75.1 121.5 75.2 121.0 C 75.3 120.2 75.5 119.4 75.7 118.7 C 75.8 118.2 75.9 117.8 76.0 117.3 C 76.0 117.3 76.1 117.2 76.1 117.2 C 76.3 116.3 76.5 115.5 76.7 114.7 C 76.9 114.2 77.0 113.8 77.1 113.4 C 77.5 112.2 77.8 110.9 78.3 109.7 C 78.6 108.8 78.9 107.8 79.2 106.9 C 79.3 106.7 79.4 106.4 79.5 106.1 C 79.8 105.5 80.1 104.8 80.3 104.1 C 80.4 103.9 80.5 103.6 80.6 103.4 C 81.0 102.5 81.3 101.7 81.7 100.8 C 81.8 100.7 81.8 100.5 81.9 100.4 C 82.2 99.7 82.6 99.0 82.9 98.3 C 83.0 98.0 83.2 97.8 83.3 97.6 C 83.6 96.9 83.9 96.3 84.3 95.6 C 84.4 95.5 84.5 95.3 84.5 95.1 C 85.0 94.3 85.4 93.6 85.9 92.8 C 86.0 92.6 86.1 92.5 86.2 92.3 C 86.5 91.7 86.9 91.1 87.2 90.5 C 87.4 90.3 87.5 90.1 87.7 89.9 C 88.1 89.2 88.5 88.6 88.9 88.0 C 89.0 87.9 89.0 87.8 89.1 87.7 C 89.6 87.0 90.1 86.4 90.6 85.7 C 90.7 85.5 90.9 85.3 91.0 85.1 C 91.4 84.6 91.8 84.1 92.2 83.7 C 92.3 83.5 92.5 83.3 92.6 83.1 C 93.2 82.5 93.7 81.8 94.2 81.2 C 94.3 81.2 94.3 81.2 94.3 81.2 C 94.8 80.6 95.4 80.0 95.9 79.5 C 96.1 79.3 96.2 79.1 96.4 79.0 C 96.8 78.5 97.3 78.1 97.7 77.7 C 97.8 77.5 98.0 77.4 98.1 77.3 C 98.7 76.7 99.3 76.2 99.9 75.7 C 100.0 75.6 100.1 75.5 100.2 75.4 C 100.7 75.0 101.2 74.6 101.7 74.2 C 101.9 74.0 102.1 73.9 102.2 73.7 C 102.7 73.4 103.2 73.0 103.7 72.6 C 103.8 72.6 103.9 72.5 104.0 72.4 C 104.1 72.4 104.1 72.4 104.1 72.3 C 104.7 71.9 105.3 71.5 105.9 71.1 C 106.0 71.0 106.2 70.9 106.3 70.9 C 106.8 70.6 107.2 70.3 107.7 70.0 C 107.9 69.8 108.1 69.7 108.3 69.6 C 108.8 69.3 109.2 69.1 109.6 68.9 C 109.8 68.7 110.0 68.6 110.2 68.5 C 110.8 68.2 111.3 68.0 111.8 67.7 C 111.9 67.7 112.0 67.6 112.1 67.6 C 112.8 67.2 113.4 66.9 114.1 66.7 C 114.2 66.6 114.4 66.5 114.6 66.4 C 115.1 66.2 115.5 66.0 116.0 65.9 C 116.2 65.8 116.5 65.7 116.7 65.6 C 117.2 65.4 117.6 65.3 118.1 65.1 C 118.3 65.0 118.5 65.0 118.7 64.9 C 119.4 64.7 120.0 64.5 120.7 64.3 C 120.7 64.3 120.7 64.3 120.7 64.3 L 120.7 64.3 C 120.7 64.3 120.7 64.3 120.7 64.3 L 134.6 60.3 L 146.1 57.0 C 146.1 57.0 146.1 57.0 146.1 57.0 L 146.1 57.0 C 146.1 57.0 146.1 57.0 146.1 57.0 L 146.1 57.0 C 152.5 55.1 159.3 54.5 166.3 55.2 C 149.2 46.6 131.9 44.9 116.4 49.3 L 141.8 42.0 C 162.6 36.1 186.7 41.3 209.2 59.1 C 210.5 60.1 211.7 61.2 213.0 62.3 C 213.0 62.3 213.1 62.4 213.2 62.5 C 214.4 63.5 215.6 64.6 216.7 65.7 C 216.8 65.8 217.0 65.9 217.1 66.0 C 218.2 67.1 219.3 68.2 220.4 69.3 C 220.6 69.5 220.7 69.6 220.9 69.8 C 221.9 70.9 223.0 72.0 224.0 73.1 C 224.1 73.2 224.2 73.3 224.3 73.4 C 224.3 73.5 224.4 73.6 224.5 73.7 C 225.4 74.7 226.3 75.7 227.2 76.8 C 227.3 76.9 227.4 77.1 227.6 77.2 C 228.4 78.2 229.2 79.2 230.0 80.3 C 230.1 80.4 230.2 80.5 230.3 80.7 C 231.2 81.7 232.0 82.8 232.8 84.0 C 233.0 84.2 233.1 84.4 233.3 84.6 C 234.1 85.8 234.9 86.9 235.7 88.0 C 235.8 88.2 235.9 88.3 236.0 88.5 C 236.7 89.6 237.5 90.7 238.2 91.8 C 238.3 92.0 238.4 92.1 238.5 92.3 C 239.2 93.4 239.9 94.6 240.6 95.8 C 240.8 96.1 240.9 96.3 241.1 96.6 C 241.8 97.8 242.5 99.0 243.2 100.2 C 243.3 100.3 243.4 100.5 243.4 100.7 C 244.1 101.8 244.7 103.0 245.3 104.2 C 245.4 104.4 245.5 104.6 245.6 104.7 C 246.2 106.0 246.9 107.2 247.5 108.5 C 247.6 108.8 247.7 109.0 247.9 109.3 C 248.5 110.6 249.1 111.8 249.6 113.1 C 249.7 113.3 249.8 113.5 249.8 113.6 C 250.4 114.9 250.9 116.1 251.4 117.3 C 251.5 117.5 251.6 117.7 251.7 117.9 C 252.2 119.2 252.7 120.5 253.2 121.8 C 253.3 122.1 253.4 122.4 253.5 122.7 C 254.0 124.0 254.5 125.3 255.0 126.7 C 255.1 126.8 255.1 127.0 255.2 127.1 C 255.6 128.4 256.0 129.7 256.4 131.0 C 256.5 131.2 256.6 131.4 256.6 131.6 C 257.1 133.0 257.5 134.3 257.9 135.7 C 257.9 136.0 258.0 136.3 258.1 136.5 C 258.5 137.9 258.9 139.3 259.2 140.7 C 259.3 140.8 259.3 141.0 259.3 141.1 C 259.7 142.4 260.0 143.8 260.3 145.1 C 260.3 145.3 260.4 145.5 260.4 145.8 C 260.8 147.1 261.0 148.5 261.3 149.9 C 261.4 150.2 261.4 150.5 261.5 150.7 C 261.8 152.1 262.0 153.6 262.3 155.0 C 262.3 155.1 262.3 155.2 262.3 155.4 C 262.6 156.7 262.8 158.0 262.9 159.4 C 263.0 159.6 263.0 159.9 263.1 160.1 C 263.2 161.5 263.4 162.9 263.6 164.3 C 263.6 164.6 263.6 164.8 263.7 165.1 C 263.8 166.5 264.0 168.0 264.1 169.4 C 264.1 169.5 264.1 169.6 264.1 169.7 C 264.2 171.1 264.3 172.4 264.4 173.8 C 264.4 174.0 264.4 174.3 264.4 174.5 C 264.5 175.9 264.5 177.3 264.6 178.7 C 264.6 178.9 264.6 179.2 264.6 179.5 C 264.6 180.9 264.6 182.3 264.6 183.7 C 264.6 183.8 264.6 183.9 264.6 184.0 C 264.6 185.4 264.5 186.7 264.5 188.1 C 264.5 188.3 264.5 188.6 264.5 188.8 C 264.4 190.2 264.3 191.6 264.2 192.9 C 264.2 193.2 264.2 193.5 264.2 193.7 C 264.1 195.1 263.9 196.5 263.8 197.9 L 263.8 198.1 C 263.6 199.5 263.5 200.8 263.3 202.1 C 263.2 202.4 263.2 202.6 263.2 202.9 C 263.0 204.2 262.8 205.5 262.5 206.9 C 262.5 207.1 262.4 207.4 262.4 207.6 C 262.1 209.0 261.9 210.4 261.6 211.7 C 261.6 211.8 261.6 211.8 261.6 211.8 C 261.3 213.2 261.0 214.5 260.7 215.8 C 260.6 215.9 260.6 216.1 260.6 216.2 C 260.5 216.3 260.5 216.4 260.5 216.5 C 260.2 217.8 259.8 219.1 259.4 220.3 C 259.4 220.6 259.3 220.8 259.2 221.1 C 258.8 222.4 258.4 223.7 258.0 225.0 C 255.9 231.1 253.5 236.8 250.7 241.9 C 249.9 243.4 249.0 244.8 248.2 246.2 C 244.7 251.8 240.8 256.7 236.6 260.9 C 234.5 262.9 232.2 264.9 229.9 266.6 C 228.8 267.5 227.6 268.3 226.4 269.1 C 224.1 270.7 221.6 272.1 219.1 273.3 C 218.5 273.6 217.8 273.9 217.2 274.2 C 214.6 275.3 212.0 276.3 209.4 277.0 L 184.0 284.3 C 199.5 279.9 213.2 269.2 223.1 253.0 C 223.1 253.0 223.1 253.0 223.0 253.0 C 221.5 254.2 220.0 255.2 218.4 256.2 C 217.3 256.9 216.3 257.5 215.2 258.1 C 214.1 258.6 213.0 259.2 211.9 259.7 C 211.3 259.9 210.8 260.1 210.2 260.4 C 208.5 261.0 206.8 261.6 205.1 262.1 L 193.7 265.4 L 179.7 269.4 C 179.0 269.6 178.3 269.8 177.5 270.0 C 177.1 270.1 176.7 270.2 176.2 270.3 C 175.2 270.5 174.2 270.7 173.2 270.8 C 173.1 270.9 172.9 270.9 172.7 270.9 C 172.1 271.0 171.4 271.1 170.7 271.2 C 170.2 271.2 169.7 271.3 169.2 271.3 C 168.8 271.4 168.4 271.4 168.0 271.4 C 167.2 271.4 166.4 271.5 165.6 271.5 C 165.3 271.5 165.0 271.5 164.7 271.5 C 163.8 271.5 162.9 271.5 161.9 271.4 C 161.8 271.4 161.7 271.4 161.6 271.4 " fill="#F38907"></path><path d="M 146.1 57.0 L 146.1 57.0 L 146.1 57.0 C 146.1 57.0 146.1 57.0 146.1 57.0 " fill="#DC7601"></path><path d="M 145.9 123.7 C 145.8 123.5 145.6 123.4 145.5 123.2 C 145.2 123.0 144.9 122.7 144.6 122.5 C 144.5 122.3 144.4 122.2 144.2 122.1 C 143.8 121.7 143.3 121.4 142.9 121.0 C 142.3 120.5 141.8 120.2 141.2 119.8 C 141.0 120.1 140.8 120.5 140.6 120.8 C 140.6 121.0 140.5 121.1 140.4 121.2 C 140.0 122.1 139.5 123.0 139.1 124.0 C 139.0 124.1 139.0 124.3 138.9 124.4 C 138.5 125.4 138.1 126.5 137.7 127.6 L 137.7 127.6 L 137.7 127.6 L 126.5 130.8 L 135.0 137.0 C 134.9 137.4 134.8 137.8 134.7 138.3 L 152.4 133.2 L 152.4 133.2 C 152.4 133.2 152.5 133.2 152.6 133.1 C 152.8 133.1 152.9 133.1 153.1 133.0 C 153.1 133.0 153.1 133.0 153.1 133.0 C 153.0 132.8 152.8 132.5 152.7 132.2 C 152.6 132.1 152.6 132.0 152.5 131.9 C 152.1 131.3 151.7 130.6 151.3 130.0 C 151.2 129.9 151.2 129.9 151.2 129.9 C 150.8 129.3 150.3 128.6 149.8 128.0 C 149.8 127.9 149.7 127.8 149.6 127.7 C 149.2 127.1 148.7 126.5 148.1 126.0 C 148.0 125.8 147.9 125.7 147.8 125.6 C 147.6 125.3 147.3 125.1 147.1 124.9 C 147.0 124.7 146.8 124.5 146.7 124.4 C 146.4 124.1 146.2 123.9 145.9 123.7 M 173.6 197.4 C 173.6 197.5 173.7 197.6 173.7 197.7 C 174.1 198.3 174.5 198.9 174.9 199.6 C 175.0 199.6 175.0 199.7 175.1 199.7 C 175.5 200.4 175.9 201.0 176.4 201.6 C 176.4 201.6 176.5 201.7 176.5 201.7 C 177.0 202.3 177.5 202.9 178.0 203.5 C 178.1 203.6 178.2 203.7 178.3 203.8 C 178.5 204.0 178.7 204.3 178.9 204.5 C 179.0 204.6 179.2 204.8 179.3 204.9 C 179.5 205.2 179.8 205.4 180.0 205.6 C 180.1 205.7 180.3 205.9 180.4 206.0 C 180.7 206.3 181.0 206.5 181.2 206.7 C 181.4 206.9 181.5 207.0 181.6 207.1 C 182.0 207.4 182.4 207.8 182.9 208.1 C 183.9 208.9 184.9 209.6 185.9 210.2 C 186.1 210.4 186.3 210.5 186.6 210.7 C 188.0 208.6 189.3 206.2 190.4 203.6 L 190.4 203.6 L 190.4 203.6 L 201.7 200.3 L 193.4 194.2 C 193.6 193.4 193.8 192.6 194.0 191.8 L 175.2 197.2 C 174.6 197.3 174.1 197.4 173.6 197.4 M 222.3 254.2 C 222.6 253.8 222.8 253.4 223.1 253.0 C 223.1 253.0 223.1 253.0 223.0 253.0 C 221.5 254.2 220.0 255.2 218.4 256.2 C 217.3 256.9 216.3 257.5 215.2 258.1 C 214.1 258.6 213.0 259.2 211.9 259.7 C 211.3 259.9 210.8 260.1 210.2 260.4 C 208.5 261.0 206.8 261.6 205.1 262.1 L 193.7 265.4 L 179.7 269.4 C 179.0 269.6 178.3 269.8 177.5 270.0 C 177.1 270.1 176.7 270.2 176.2 270.3 C 175.2 270.5 174.2 270.7 173.2 270.8 C 173.1 270.9 172.9 270.9 172.7 270.9 C 172.1 271.0 171.4 271.1 170.7 271.2 C 170.2 271.2 169.7 271.3 169.2 271.3 C 168.8 271.4 168.4 271.4 168.0 271.4 C 167.2 271.4 166.4 271.5 165.6 271.5 C 165.3 271.5 165.0 271.5 164.7 271.5 C 163.8 271.5 162.9 271.5 161.9 271.4 C 161.8 271.4 161.7 271.4 161.6 271.4 C 160.5 271.3 159.4 271.3 158.3 271.1 C 157.7 271.1 157.2 271.0 156.6 270.9 C 155.9 270.8 155.2 270.7 154.6 270.6 C 154.2 270.5 153.9 270.4 153.5 270.4 C 142.7 268.2 131.6 263.0 120.9 254.5 C 120.8 254.5 120.8 254.4 120.7 254.4 L 119.3 216.0 C 119.7 216.7 120.1 217.4 120.5 218.0 C 120.6 218.2 120.7 218.3 120.8 218.5 C 121.5 219.5 122.2 220.6 122.9 221.6 C 123.0 221.9 123.2 222.1 123.4 222.4 C 124.0 223.2 124.5 224.0 125.1 224.7 C 125.3 225.0 125.5 225.3 125.7 225.6 C 126.4 226.5 127.1 227.5 127.9 228.5 C 127.9 228.5 128.0 228.6 128.0 228.7 C 128.7 229.6 129.4 230.5 130.2 231.3 C 130.4 231.6 130.6 231.9 130.8 232.1 C 131.5 232.9 132.1 233.6 132.7 234.3 C 132.9 234.5 133.1 234.7 133.3 234.9 C 134.2 235.9 135.1 236.9 136.0 237.9 C 136.2 238.1 136.4 238.3 136.6 238.5 C 137.5 239.3 138.3 240.2 139.2 241.0 C 139.3 241.2 139.4 241.3 139.6 241.4 C 140.5 242.3 141.5 243.2 142.5 244.1 C 142.7 244.3 143.0 244.5 143.2 244.7 C 144.2 245.5 145.2 246.4 146.3 247.2 C 154.7 254.0 163.5 258.6 172.1 261.3 C 172.2 261.4 172.4 261.4 172.5 261.4 C 174.4 262.1 176.4 262.5 178.3 262.9 C 178.9 263.0 179.4 263.2 179.9 263.3 C 180.3 263.3 180.6 263.4 181.0 263.4 C 181.9 263.6 182.8 263.7 183.7 263.8 C 184.3 263.9 184.9 263.9 185.5 264.0 C 186.1 264.0 186.7 264.1 187.3 264.1 C 188.1 264.2 188.8 264.2 189.6 264.2 C 190.1 264.2 190.5 264.2 191.0 264.2 C 191.3 264.2 191.6 264.2 191.9 264.2 C 205.1 256.5 215.8 242.9 222.1 224.0 C 222.6 222.6 223.0 221.2 223.5 219.7 C 223.6 219.3 223.7 218.8 223.8 218.4 C 224.1 217.4 224.4 216.4 224.6 215.4 C 224.7 214.9 224.8 214.3 225.0 213.8 C 225.2 212.8 225.4 211.9 225.6 210.9 C 225.7 210.4 225.8 209.9 225.9 209.3 C 226.1 208.3 226.3 207.2 226.4 206.2 C 226.5 205.7 226.6 205.3 226.6 204.8 C 226.8 203.3 227.0 201.8 227.2 200.3 C 227.2 200.2 227.2 200.0 227.2 199.9 C 227.4 198.5 227.5 197.1 227.6 195.8 C 227.6 195.3 227.6 194.8 227.7 194.2 C 227.7 194.1 227.7 194.0 227.7 193.9 L 225.0 203.1 L 225.0 203.1 L 208.2 207.9 C 205.8 210.4 203.1 212.1 200.3 212.9 L 174.9 220.2 C 174.9 220.2 174.9 220.2 174.9 220.2 L 174.9 220.2 L 174.9 220.2 C 174.7 220.2 174.4 220.3 174.2 220.3 C 174.1 220.4 174.0 220.4 173.9 220.4 C 173.8 220.5 173.7 220.5 173.5 220.5 C 173.2 220.6 172.8 220.6 172.5 220.7 C 171.4 220.8 170.3 220.8 169.3 220.7 C 168.4 220.6 167.5 220.5 166.5 220.2 C 166.3 220.2 166.1 220.1 165.9 220.0 C 165.7 220.0 165.6 220.0 165.4 219.9 C 165.4 219.9 165.4 219.9 165.3 219.9 C 164.2 219.5 163.2 219.0 162.1 218.5 C 161.5 218.2 161.0 217.9 160.5 217.5 C 159.5 216.9 158.5 216.2 157.5 215.4 C 157.0 215.1 156.6 214.7 156.2 214.4 C 156.1 214.3 156.0 214.2 155.8 214.0 C 155.6 213.8 155.3 213.6 155.1 213.3 C 154.9 213.2 154.8 213.0 154.6 212.9 C 154.4 212.7 154.2 212.5 153.9 212.2 C 153.8 212.1 153.6 211.9 153.5 211.8 C 153.3 211.6 153.1 211.3 152.9 211.1 C 152.8 211.1 152.8 211.0 152.7 211.0 C 152.7 210.9 152.7 210.9 152.6 210.8 C 152.1 210.2 151.6 209.6 151.1 209.0 C 151.1 209.0 151.0 208.9 151.0 208.9 C 150.5 208.3 150.1 207.7 149.7 207.0 C 149.6 207.0 149.6 206.9 149.5 206.9 C 149.1 206.2 148.7 205.6 148.3 204.9 C 148.3 204.8 148.2 204.7 148.2 204.6 C 147.8 204.0 147.4 203.4 147.1 202.7 C 147.1 202.6 147.0 202.5 146.9 202.4 C 146.6 201.7 146.3 201.1 146.0 200.4 C 146.0 200.3 145.9 200.2 145.9 200.1 C 145.6 199.4 145.3 198.7 145.0 198.0 C 145.0 198.0 145.0 198.0 145.0 197.9 C 144.9 197.6 144.7 197.2 144.6 196.8 C 144.6 196.8 144.6 196.8 144.6 196.8 C 144.6 196.8 144.6 196.8 144.6 196.8 C 144.5 196.5 144.4 196.3 144.4 196.1 C 144.3 195.8 144.2 195.6 144.1 195.3 C 143.9 194.8 143.8 194.3 143.7 193.8 C 143.6 193.6 143.5 193.3 143.4 193.1 C 143.3 192.5 143.1 191.8 143.0 191.2 C 142.9 191.1 142.9 191.0 142.9 190.8 C 142.7 190.1 142.5 189.3 142.4 188.6 C 142.3 188.4 142.3 188.1 142.3 187.9 C 142.2 187.4 142.1 186.8 142.0 186.3 C 141.9 186.0 141.9 185.8 141.8 185.5 C 141.8 185.0 141.7 184.5 141.6 184.0 C 141.6 183.7 141.5 183.4 141.5 183.1 C 141.4 182.6 141.4 182.1 141.3 181.6 C 141.3 181.4 141.2 181.1 141.2 180.9 C 141.1 180.3 141.1 179.7 141.0 179.1 C 141.0 178.9 141.0 178.8 141.0 178.6 C 140.9 177.8 140.8 177.1 140.8 176.4 C 140.8 176.3 140.8 176.2 140.7 176.1 L 124.0 180.9 L 117.9 176.8 L 116.0 122.6 L 119.9 121.5 C 120.2 121.3 120.4 121.0 120.6 120.8 C 120.7 120.7 120.7 120.7 120.8 120.6 C 121.4 120.0 122.0 119.5 122.7 119.0 C 122.8 119.0 122.8 118.9 122.9 118.9 C 123.1 118.7 123.4 118.5 123.7 118.4 C 123.8 118.3 123.9 118.2 124.0 118.2 C 124.2 118.0 124.5 117.9 124.8 117.7 C 124.9 117.7 125.0 117.6 125.1 117.6 C 125.4 117.4 125.8 117.2 126.2 117.1 C 126.2 117.1 126.2 117.1 126.2 117.1 C 126.5 116.9 126.9 116.8 127.2 116.8 C 127.2 116.7 127.3 116.7 127.4 116.7 L 127.4 116.7 L 127.4 116.7 L 145.9 111.4 L 152.8 109.4 L 152.8 109.4 C 157.5 108.0 162.7 109.3 168.3 113.7 C 168.7 114.1 169.2 114.4 169.6 114.8 C 169.7 114.9 169.9 115.0 170.0 115.2 C 170.3 115.4 170.6 115.7 170.9 115.9 C 171.0 116.1 171.2 116.2 171.3 116.4 C 171.6 116.6 171.8 116.8 172.0 117.1 C 172.2 117.2 172.4 117.4 172.5 117.6 C 172.7 117.8 172.9 118.0 173.2 118.3 C 173.2 118.3 173.3 118.4 173.4 118.5 C 173.4 118.5 173.5 118.6 173.5 118.7 C 174.0 119.2 174.5 119.8 175.0 120.4 C 175.1 120.5 175.1 120.6 175.2 120.7 C 175.7 121.3 176.2 122.0 176.6 122.6 C 176.6 122.6 176.6 122.6 176.6 122.7 C 177.1 123.3 177.5 124.0 177.9 124.6 C 178.0 124.7 178.0 124.8 178.1 124.9 C 178.4 125.5 178.8 126.2 179.1 126.8 C 179.2 127.0 179.3 127.1 179.3 127.2 C 179.7 127.8 180.0 128.5 180.3 129.2 C 180.3 129.3 180.4 129.4 180.4 129.5 C 180.7 130.2 181.0 130.9 181.3 131.6 C 181.3 131.6 181.3 131.7 181.3 131.8 C 181.6 132.5 181.9 133.2 182.1 133.9 C 182.1 133.9 182.1 134.0 182.1 134.0 C 182.4 134.7 182.6 135.4 182.8 136.1 C 182.8 136.3 182.9 136.4 182.9 136.5 C 183.1 137.2 183.3 137.9 183.4 138.6 C 183.5 138.7 183.5 138.8 183.5 138.9 C 183.7 139.7 183.9 140.4 184.0 141.1 C 184.0 141.2 184.0 141.3 184.1 141.4 C 184.2 142.1 184.4 142.8 184.5 143.6 C 184.5 143.6 184.5 143.6 184.5 143.6 C 184.6 144.4 184.7 145.1 184.8 145.9 C 184.9 145.9 184.9 146.0 184.9 146.1 C 185.0 146.8 185.1 147.6 185.2 148.3 C 185.2 148.4 185.2 148.5 185.2 148.6 C 185.2 148.7 185.2 148.7 185.2 148.7 L 202.8 143.6 L 222.0 156.2 C 222.0 156.3 222.1 156.4 222.1 156.5 C 222.1 156.5 222.1 156.6 222.1 156.6 C 222.1 156.7 222.1 156.9 222.1 157.0 C 222.1 157.1 222.1 157.2 222.1 157.3 C 222.1 157.5 222.1 157.6 222.1 157.8 C 222.2 157.9 222.2 158.1 222.2 158.2 C 222.2 158.4 222.2 158.6 222.2 158.9 C 222.2 159.0 222.2 159.2 222.2 159.4 C 222.2 159.6 222.2 159.9 222.2 160.1 C 222.2 160.3 222.2 160.5 222.2 160.8 C 222.2 161.0 222.2 161.3 222.2 161.6 C 222.2 161.9 222.2 162.1 222.2 162.4 C 222.2 162.7 222.2 163.0 222.2 163.3 C 222.2 163.6 222.2 163.9 222.2 164.2 C 222.2 164.5 222.2 164.8 222.2 165.2 C 222.1 165.5 222.1 165.8 222.1 166.2 C 222.1 166.5 222.1 166.9 222.0 167.3 C 222.0 167.6 222.0 168.0 222.0 168.3 C 221.9 168.7 221.9 169.1 221.9 169.5 C 221.8 169.9 221.8 170.3 221.8 170.7 C 221.7 171.1 221.7 171.5 221.6 172.0 C 221.6 172.3 221.5 172.7 221.5 173.1 C 221.4 173.6 221.4 174.1 221.3 174.5 C 221.2 174.9 221.2 175.4 221.1 175.8 C 221.0 176.2 221.0 176.7 220.9 177.2 C 220.8 177.6 220.7 178.1 220.6 178.5 C 220.6 179.0 220.5 179.5 220.4 180.0 C 220.3 180.5 220.2 180.9 220.1 181.4 C 220.0 181.9 219.9 182.4 219.7 183.0 C 219.6 183.4 219.5 183.9 219.4 184.4 C 219.3 184.6 219.3 184.8 219.2 185.0 C 219.1 185.7 218.9 186.3 218.8 186.9 C 218.8 186.9 218.8 186.9 218.8 186.9 L 227.7 193.5 C 227.8 192.7 227.8 191.9 227.8 191.1 C 227.8 190.6 227.9 190.0 227.9 189.4 C 227.9 188.4 227.9 187.4 227.9 186.4 C 227.9 185.8 227.9 185.3 227.9 184.7 C 227.9 183.6 227.8 182.5 227.8 181.4 C 227.8 181.0 227.8 180.5 227.7 180.1 C 227.7 178.5 227.6 176.9 227.4 175.4 C 227.4 175.2 227.4 174.9 227.4 174.7 C 227.3 173.4 227.1 172.0 227.0 170.7 C 226.9 170.2 226.8 169.7 226.8 169.1 C 226.7 168.1 226.5 167.1 226.4 166.0 C 226.3 165.4 226.2 164.9 226.1 164.3 C 225.9 163.3 225.8 162.3 225.6 161.2 C 225.5 160.7 225.4 160.1 225.3 159.6 C 225.1 158.4 224.8 157.3 224.6 156.2 C 224.5 155.8 224.4 155.4 224.3 154.9 C 224.0 153.4 223.6 151.9 223.2 150.3 C 223.1 150.0 223.0 149.7 223.0 149.5 C 222.6 148.2 222.3 147.0 221.9 145.8 C 221.8 145.2 221.6 144.7 221.5 144.2 C 221.2 143.2 220.9 142.2 220.5 141.2 C 220.4 140.6 220.2 140.1 220.0 139.5 C 219.6 138.5 219.3 137.6 219.0 136.6 C 218.8 136.1 218.6 135.5 218.4 135.0 C 218.0 133.9 217.5 132.8 217.1 131.7 C 217.0 131.3 216.8 131.0 216.7 130.6 C 216.1 129.1 215.4 127.7 214.8 126.3 C 214.7 125.9 214.5 125.6 214.4 125.3 C 213.9 124.2 213.3 123.1 212.8 122.0 C 212.6 121.5 212.3 121.0 212.1 120.5 C 211.6 119.6 211.2 118.7 210.7 117.8 C 210.4 117.3 210.1 116.8 209.9 116.2 C 209.4 115.3 208.9 114.4 208.4 113.6 C 208.1 113.1 207.8 112.6 207.5 112.1 C 206.9 111.1 206.3 110.1 205.7 109.1 C 205.5 108.8 205.3 108.5 205.1 108.2 C 204.3 106.9 203.5 105.6 202.6 104.3 C 202.4 104.0 202.2 103.7 201.9 103.4 C 201.3 102.4 200.6 101.5 199.9 100.6 C 199.6 100.1 199.3 99.7 199.0 99.3 C 198.4 98.5 197.7 97.7 197.1 96.9 C 196.8 96.5 196.4 96.0 196.1 95.6 C 195.4 94.8 194.8 94.1 194.1 93.3 C 193.8 92.9 193.4 92.5 193.1 92.1 C 192.5 91.4 191.9 90.8 191.2 90.1 C 190.8 89.6 190.3 89.1 189.9 88.6 C 189.2 87.9 188.5 87.3 187.9 86.6 C 187.4 86.2 187.0 85.7 186.5 85.3 C 185.8 84.6 185.0 83.9 184.2 83.2 C 183.9 82.9 183.5 82.5 183.1 82.2 C 181.9 81.1 180.7 80.1 179.5 79.2 C 173.4 74.3 167.1 70.5 160.8 67.8 C 158.3 66.7 155.8 65.7 153.3 64.9 C 149.6 63.8 145.8 63.0 142.1 62.6 C 139.3 62.2 136.6 62.2 133.8 62.2 C 133.8 62.3 133.8 62.3 133.7 62.3 C 133.5 62.4 133.3 62.5 133.1 62.7 C 132.6 63.0 132.2 63.3 131.7 63.6 C 131.6 63.6 131.4 63.7 131.3 63.8 C 130.7 64.2 130.1 64.6 129.5 65.0 C 129.4 65.1 129.2 65.2 129.1 65.3 C 128.6 65.7 128.1 66.1 127.6 66.4 C 127.5 66.6 127.3 66.7 127.1 66.9 C 126.6 67.3 126.1 67.7 125.6 68.1 C 125.5 68.2 125.4 68.3 125.3 68.4 C 124.7 68.9 124.1 69.4 123.5 70.0 C 123.4 70.1 123.2 70.2 123.1 70.4 C 122.6 70.8 122.2 71.2 121.8 71.7 C 121.6 71.8 121.4 72.0 121.3 72.2 C 120.7 72.7 120.2 73.3 119.7 73.9 C 119.7 73.9 119.6 73.9 119.6 73.9 C 119.1 74.6 118.6 75.2 118.0 75.8 C 117.9 76.0 117.7 76.2 117.6 76.4 C 117.2 76.8 116.8 77.3 116.4 77.8 C 116.3 78.0 116.1 78.2 116.0 78.4 C 115.5 79.1 115.0 79.7 114.5 80.4 C 114.5 80.5 114.5 80.5 114.4 80.5 L 113.9 66.7 C 114.0 66.7 114.0 66.7 114.1 66.7 C 114.2 66.6 114.4 66.5 114.6 66.4 C 115.1 66.2 115.5 66.0 116.0 65.9 C 116.2 65.8 116.5 65.7 116.7 65.6 C 117.2 65.4 117.6 65.3 118.1 65.1 C 118.3 65.0 118.5 65.0 118.7 64.9 C 119.4 64.7 120.0 64.5 120.7 64.3 C 120.7 64.3 120.7 64.3 120.7 64.3 L 120.7 64.3 C 120.7 64.3 120.7 64.3 120.7 64.3 L 134.6 60.3 L 146.1 57.0 L 146.1 57.0 C 148.5 56.3 150.9 55.8 153.4 55.4 C 154.6 55.3 155.9 55.2 157.1 55.1 C 160.1 54.9 163.2 54.9 166.3 55.2 C 165.7 54.9 165.2 54.7 164.7 54.4 C 176.7 53.6 188.9 53.4 201.1 53.3 C 203.8 55.1 206.5 57.0 209.2 59.1 C 210.5 60.1 211.7 61.2 213.0 62.3 C 213.0 62.3 213.1 62.4 213.2 62.5 C 214.4 63.5 215.6 64.6 216.7 65.7 C 216.8 65.8 217.0 65.9 217.1 66.0 C 218.2 67.1 219.3 68.2 220.4 69.3 C 220.6 69.5 220.7 69.6 220.9 69.8 C 221.9 70.9 223.0 72.0 224.0 73.1 C 224.1 73.2 224.2 73.3 224.3 73.4 C 224.3 73.5 224.4 73.6 224.5 73.7 C 225.4 74.7 226.3 75.7 227.2 76.8 C 227.3 76.9 227.4 77.1 227.6 77.2 C 228.4 78.2 229.2 79.2 230.0 80.3 C 230.1 80.4 230.2 80.5 230.3 80.7 C 231.2 81.7 232.0 82.8 232.8 84.0 C 233.0 84.2 233.1 84.4 233.3 84.6 C 234.1 85.8 234.9 86.9 235.7 88.0 C 235.8 88.2 235.9 88.3 236.0 88.5 C 236.7 89.6 237.5 90.7 238.2 91.8 C 238.3 92.0 238.4 92.1 238.5 92.3 C 239.2 93.4 239.9 94.6 240.6 95.8 C 240.8 96.1 240.9 96.3 241.1 96.6 C 241.8 97.8 242.5 99.0 243.2 100.2 C 243.3 100.3 243.4 100.5 243.4 100.7 C 244.1 101.8 244.7 103.0 245.3 104.2 C 245.4 104.4 245.5 104.6 245.6 104.7 C 246.2 106.0 246.9 107.2 247.5 108.5 C 247.6 108.8 247.7 109.0 247.9 109.3 C 248.5 110.6 249.1 111.8 249.6 113.1 C 249.7 113.3 249.8 113.5 249.8 113.6 C 250.4 114.8 250.9 116.1 251.4 117.3 C 251.5 117.5 251.6 117.7 251.7 117.9 C 252.2 119.2 252.7 120.5 253.2 121.8 C 253.3 122.1 253.4 122.4 253.5 122.7 C 254.0 124.0 254.5 125.3 255.0 126.7 C 255.1 126.8 255.1 127.0 255.2 127.1 C 255.6 128.4 256.0 129.7 256.4 131.0 C 256.5 131.2 256.6 131.4 256.6 131.6 C 257.1 133.0 257.5 134.3 257.9 135.7 C 257.9 136.0 258.0 136.3 258.1 136.5 C 258.5 137.9 258.9 139.3 259.2 140.7 C 259.3 140.8 259.3 141.0 259.3 141.1 C 259.7 142.4 260.0 143.8 260.3 145.1 C 260.3 145.3 260.4 145.5 260.4 145.8 C 260.8 147.1 261.0 148.5 261.3 149.9 C 261.4 150.2 261.4 150.5 261.5 150.7 C 261.8 152.1 262.0 153.6 262.3 155.0 C 262.3 155.1 262.3 155.2 262.3 155.4 C 262.6 156.7 262.8 158.0 262.9 159.4 C 263.0 159.6 263.0 159.9 263.1 160.1 C 263.2 161.5 263.4 162.9 263.6 164.3 C 263.6 164.6 263.6 164.8 263.7 165.1 C 263.8 166.5 264.0 168.0 264.1 169.4 C 264.1 169.5 264.1 169.6 264.1 169.7 C 264.2 171.1 264.3 172.4 264.4 173.8 C 264.4 174.0 264.4 174.3 264.4 174.5 C 264.5 175.9 264.5 177.3 264.6 178.7 C 264.6 178.9 264.6 179.2 264.6 179.5 C 264.6 180.9 264.6 182.3 264.6 183.7 C 264.6 183.8 264.6 183.9 264.6 184.0 C 264.6 185.4 264.5 186.7 264.5 188.1 C 264.5 188.3 264.5 188.6 264.5 188.8 C 264.4 190.2 264.3 191.6 264.2 192.9 C 264.2 193.2 264.2 193.5 264.2 193.7 C 264.1 195.1 263.9 196.5 263.8 197.9 L 263.8 198.1 C 263.6 199.5 263.5 200.8 263.3 202.1 C 263.2 202.4 263.2 202.6 263.2 202.9 C 263.0 204.2 262.8 205.5 262.5 206.9 C 262.5 207.1 262.4 207.4 262.4 207.6 C 262.1 209.0 261.9 210.4 261.6 211.7 C 261.6 211.8 261.6 211.8 261.6 211.8 C 261.3 213.2 261.0 214.5 260.7 215.8 C 260.6 215.9 260.6 216.1 260.6 216.2 C 260.5 216.3 260.5 216.4 260.5 216.5 C 260.2 217.8 259.8 219.1 259.4 220.3 C 259.4 220.6 259.3 220.8 259.2 221.1 C 258.8 222.4 258.4 223.7 258.0 225.0 C 257.6 226.1 257.2 227.2 256.8 228.2 C 247.4 236.1 237.6 243.6 227.5 250.6 C 225.8 251.8 224.1 253.0 222.3 254.2 " fill="#DC7601"></path><path d="M 145.9 123.7 C 145.8 123.5 145.6 123.4 145.5 123.2 C 145.2 123.0 144.9 122.7 144.6 122.5 C 144.5 122.3 144.4 122.2 144.2 122.1 C 143.8 121.7 143.3 121.4 142.9 121.0 C 142.3 120.5 141.8 120.2 141.2 119.8 C 141.0 120.1 140.8 120.5 140.6 120.8 C 140.6 121.0 140.5 121.1 140.4 121.2 C 140.0 122.1 139.5 123.0 139.1 124.0 C 139.0 124.1 139.0 124.3 138.9 124.4 C 138.5 125.4 138.1 126.5 137.7 127.6 L 137.7 127.6 L 137.7 127.6 L 126.5 130.8 L 135.0 137.0 C 134.9 137.4 134.8 137.8 134.7 138.3 L 152.4 133.2 L 152.4 133.2 C 152.4 133.2 152.5 133.2 152.6 133.1 C 152.8 133.1 152.9 133.1 153.1 133.0 C 153.1 133.0 153.1 133.0 153.1 133.0 C 153.0 132.8 152.8 132.5 152.7 132.2 C 152.6 132.1 152.6 132.0 152.5 131.9 C 152.1 131.3 151.7 130.6 151.3 130.0 C 151.2 129.9 151.2 129.9 151.2 129.9 C 150.8 129.3 150.3 128.6 149.8 128.0 C 149.8 127.9 149.7 127.8 149.6 127.7 C 149.2 127.1 148.7 126.5 148.1 126.0 C 148.0 125.8 147.9 125.7 147.8 125.6 C 147.6 125.3 147.3 125.1 147.1 124.9 C 147.0 124.7 146.8 124.5 146.7 124.4 C 146.4 124.1 146.2 123.9 145.9 123.7 M 173.6 197.4 C 173.6 197.5 173.7 197.6 173.7 197.7 C 174.1 198.3 174.5 198.9 174.9 199.6 C 175.0 199.6 175.0 199.7 175.1 199.7 C 175.5 200.4 175.9 201.0 176.4 201.6 C 176.4 201.6 176.5 201.7 176.5 201.7 C 177.0 202.3 177.5 202.9 178.0 203.5 C 178.1 203.6 178.2 203.7 178.3 203.8 C 178.5 204.0 178.7 204.3 178.9 204.5 C 179.0 204.6 179.2 204.8 179.3 204.9 C 179.5 205.2 179.8 205.4 180.0 205.6 C 180.1 205.7 180.3 205.9 180.4 206.0 C 180.7 206.3 181.0 206.5 181.2 206.7 C 181.4 206.9 181.5 207.0 181.6 207.1 C 182.0 207.4 182.4 207.8 182.9 208.1 C 183.9 208.9 184.9 209.6 185.9 210.2 C 186.1 210.4 186.3 210.5 186.6 210.7 C 188.0 208.6 189.3 206.2 190.4 203.6 L 190.4 203.6 L 190.4 203.6 L 201.7 200.3 L 193.4 194.2 C 193.6 193.4 193.8 192.6 194.0 191.8 L 175.2 197.2 C 174.6 197.3 174.1 197.4 173.6 197.4 M 117.8 252.0 C 117.6 251.8 117.3 251.6 117.1 251.3 C 116.1 250.5 115.1 249.6 114.2 248.7 C 114.0 248.6 113.9 248.5 113.8 248.3 C 112.9 247.5 112.1 246.6 111.2 245.8 C 111.0 245.6 110.8 245.4 110.6 245.2 C 109.7 244.2 108.8 243.2 107.9 242.2 C 107.8 242.2 107.8 242.1 107.7 242.1 C 107.6 241.9 107.4 241.7 107.3 241.6 C 106.7 240.9 106.1 240.2 105.5 239.4 C 105.2 239.2 105.0 238.9 104.8 238.6 C 104.1 237.8 103.3 236.9 102.6 236.0 C 102.6 235.9 102.5 235.8 102.5 235.8 C 101.7 234.8 101.0 233.8 100.3 232.9 C 100.1 232.6 99.9 232.3 99.7 232.0 C 99.1 231.2 98.6 230.5 98.0 229.7 C 97.8 229.4 97.7 229.2 97.5 228.9 C 96.8 227.9 96.1 226.8 95.4 225.8 C 95.3 225.6 95.3 225.5 95.2 225.3 C 94.6 224.4 94.0 223.5 93.5 222.6 C 93.3 222.3 93.1 222.0 92.9 221.7 C 92.4 220.8 91.9 219.9 91.4 219.1 C 91.3 218.8 91.2 218.6 91.0 218.4 C 90.4 217.3 89.8 216.2 89.3 215.1 C 89.1 214.8 89.0 214.5 88.9 214.3 C 88.4 213.4 88.0 212.5 87.5 211.6 C 87.4 211.3 87.2 211.0 87.1 210.6 C 86.6 209.6 86.1 208.6 85.6 207.6 C 85.6 207.4 85.5 207.3 85.5 207.2 C 85.0 206.0 84.5 204.9 84.0 203.7 C 83.9 203.4 83.7 203.1 83.6 202.7 C 83.2 201.8 82.9 200.9 82.5 200.0 C 82.4 199.7 82.3 199.4 82.2 199.1 C 81.7 197.9 81.3 196.7 80.9 195.5 C 80.8 195.4 80.8 195.2 80.7 195.1 C 80.4 194.0 80.0 192.9 79.7 191.9 C 79.5 191.5 79.4 191.2 79.3 190.8 C 79.0 189.8 78.7 188.9 78.5 187.9 C 78.4 187.6 78.3 187.4 78.2 187.1 C 77.9 185.9 77.5 184.6 77.2 183.4 C 77.1 183.2 77.1 182.9 77.0 182.6 C 76.8 181.6 76.5 180.6 76.3 179.7 C 76.2 179.3 76.1 178.9 76.0 178.6 C 75.8 177.5 75.6 176.4 75.4 175.4 C 75.3 175.2 75.3 175.0 75.3 174.8 C 75.0 173.8 74.8 172.7 74.7 171.6 C 74.6 171.5 74.6 171.3 74.6 171.2 C 74.5 170.6 74.4 170.0 74.3 169.4 C 74.2 168.6 74.1 167.9 73.9 167.1 C 73.9 166.5 73.8 165.9 73.7 165.3 C 73.6 164.5 73.5 163.8 73.4 163.0 C 73.4 162.4 73.3 161.8 73.2 161.1 C 73.2 160.4 73.1 159.7 73.0 158.9 C 73.0 158.3 72.9 157.7 72.9 157.0 C 72.8 156.3 72.8 155.6 72.7 154.8 C 72.7 154.2 72.7 153.6 72.6 152.9 C 72.6 152.2 72.6 151.5 72.5 150.7 C 72.5 150.1 72.5 149.5 72.5 148.9 C 72.5 148.1 72.5 147.4 72.5 146.7 C 72.5 146.0 72.5 145.4 72.5 144.8 C 72.5 144.1 72.5 143.3 72.6 142.6 C 72.6 142.2 72.6 141.7 72.6 141.3 C 81.1 138.2 89.6 135.2 98.1 132.3 C 98.1 132.7 98.0 133.0 98.0 133.4 C 98.0 134.1 98.0 134.7 98.0 135.3 C 97.9 136.0 97.9 136.8 97.9 137.5 C 97.9 138.1 97.9 138.7 97.9 139.4 C 97.9 140.1 97.9 140.8 97.9 141.6 C 97.9 142.2 97.9 142.8 97.9 143.4 C 98.0 144.2 98.0 144.9 98.0 145.6 C 98.0 146.3 98.1 146.9 98.1 147.5 C 98.2 148.3 98.2 149.0 98.3 149.7 C 98.3 150.4 98.3 151.0 98.4 151.6 C 98.5 152.4 98.5 153.1 98.6 153.8 C 98.7 154.5 98.7 155.1 98.8 155.7 C 98.9 156.5 99.0 157.2 99.1 157.9 C 99.2 158.6 99.2 159.2 99.3 159.8 C 99.4 160.6 99.6 161.3 99.7 162.1 C 99.8 162.7 99.9 163.3 100.0 163.9 C 100.2 165.1 100.4 166.3 100.6 167.5 C 100.7 167.7 100.7 167.9 100.8 168.1 C 101.0 169.1 101.2 170.2 101.4 171.3 C 101.5 171.6 101.6 172.0 101.7 172.4 C 101.9 173.3 102.2 174.3 102.4 175.3 C 102.5 175.6 102.5 175.9 102.6 176.1 C 102.9 177.3 103.2 178.6 103.6 179.8 C 103.7 180.1 103.8 180.3 103.8 180.6 C 104.1 181.6 104.4 182.5 104.7 183.5 C 104.8 183.9 104.9 184.2 105.0 184.6 C 105.4 185.6 105.7 186.7 106.1 187.8 C 106.2 187.9 106.2 188.1 106.2 188.2 C 106.7 189.4 107.1 190.6 107.5 191.8 C 107.7 192.1 107.8 192.4 107.9 192.7 C 108.3 193.6 108.6 194.5 109.0 195.4 C 109.1 195.8 109.2 196.1 109.4 196.4 C 109.9 197.6 110.4 198.7 110.9 199.9 C 110.9 200.0 111.0 200.1 111.0 200.3 C 111.5 201.3 112.0 202.3 112.5 203.3 C 112.6 203.7 112.8 204.0 112.9 204.3 C 113.4 205.2 113.8 206.1 114.3 207.0 C 114.4 207.2 114.5 207.5 114.7 207.8 C 115.2 208.9 115.8 210.0 116.4 211.1 C 116.5 211.3 116.7 211.5 116.8 211.8 C 117.3 212.6 117.8 213.5 118.3 214.4 C 118.5 214.7 118.7 215.0 118.9 215.3 C 119.4 216.2 120.0 217.1 120.5 218.0 C 120.6 218.2 120.7 218.3 120.8 218.5 C 121.5 219.5 122.2 220.6 122.9 221.6 C 123.0 221.9 123.2 222.1 123.4 222.4 C 124.0 223.2 124.5 224.0 125.1 224.7 C 125.3 225.0 125.5 225.3 125.7 225.6 C 126.4 226.5 127.1 227.5 127.9 228.5 C 127.9 228.5 128.0 228.6 128.0 228.7 C 128.7 229.6 129.4 230.5 130.2 231.3 C 130.4 231.6 130.6 231.9 130.8 232.1 C 131.5 232.9 132.1 233.6 132.7 234.3 C 132.9 234.5 133.1 234.7 133.3 234.9 C 134.2 235.9 135.1 236.9 136.0 237.9 C 136.2 238.1 136.4 238.3 136.6 238.5 C 137.5 239.3 138.3 240.2 139.2 241.0 C 139.3 241.2 139.4 241.3 139.6 241.4 C 140.5 242.3 141.5 243.2 142.5 244.1 C 142.7 244.3 143.0 244.5 143.2 244.7 C 144.2 245.5 145.2 246.4 146.3 247.2 C 154.7 254.0 163.5 258.6 172.1 261.3 C 172.2 261.4 172.4 261.4 172.5 261.4 C 174.4 262.1 176.4 262.5 178.3 262.9 C 178.9 263.0 179.4 263.2 179.9 263.3 C 180.3 263.3 180.6 263.4 181.0 263.4 C 181.9 263.6 182.8 263.7 183.7 263.8 C 184.3 263.9 184.9 263.9 185.5 264.0 C 186.1 264.0 186.7 264.1 187.3 264.1 C 188.1 264.2 188.8 264.2 189.6 264.2 C 190.1 264.2 190.5 264.2 191.0 264.2 C 191.3 264.2 191.6 264.2 191.9 264.2 C 205.1 256.5 215.8 242.9 222.1 224.0 C 222.6 222.6 223.0 221.2 223.5 219.7 C 223.6 219.3 223.7 218.8 223.8 218.4 C 224.1 217.4 224.4 216.4 224.6 215.4 C 224.7 214.9 224.8 214.3 225.0 213.8 C 225.2 212.8 225.4 211.9 225.6 210.9 C 225.7 210.4 225.8 209.9 225.9 209.3 C 226.1 208.3 226.3 207.2 226.4 206.2 C 226.5 205.7 226.6 205.3 226.6 204.8 C 226.8 203.3 227.0 201.8 227.2 200.3 C 227.2 200.2 227.2 200.0 227.2 199.9 C 227.4 198.5 227.5 197.1 227.6 195.8 C 227.6 195.3 227.6 194.8 227.7 194.2 C 227.7 194.1 227.7 194.0 227.7 193.9 L 225.0 203.1 L 225.0 203.1 L 208.2 207.9 C 205.8 210.4 203.1 212.1 200.3 212.9 L 174.9 220.2 C 174.9 220.2 174.9 220.2 174.9 220.2 L 174.9 220.2 L 174.9 220.2 C 174.7 220.2 174.4 220.3 174.2 220.3 C 174.1 220.4 174.0 220.4 173.9 220.4 C 173.8 220.5 173.7 220.5 173.5 220.5 C 173.2 220.6 172.8 220.6 172.5 220.7 C 171.4 220.8 170.3 220.8 169.3 220.7 C 168.4 220.6 167.5 220.5 166.5 220.2 C 166.3 220.2 166.1 220.1 165.9 220.0 C 165.7 220.0 165.6 220.0 165.4 219.9 C 165.4 219.9 165.4 219.9 165.3 219.9 C 164.2 219.5 163.2 219.0 162.1 218.5 C 161.5 218.2 161.0 217.9 160.5 217.5 C 159.5 216.9 158.5 216.2 157.5 215.4 C 157.0 215.1 156.6 214.7 156.2 214.4 C 156.1 214.3 156.0 214.2 155.8 214.0 C 155.6 213.8 155.3 213.6 155.1 213.3 C 154.9 213.2 154.8 213.0 154.6 212.9 C 154.4 212.7 154.2 212.5 153.9 212.2 C 153.8 212.1 153.6 211.9 153.5 211.8 C 153.3 211.6 153.1 211.3 152.9 211.1 C 152.8 211.1 152.8 211.0 152.7 211.0 C 152.7 210.9 152.7 210.9 152.6 210.8 C 152.1 210.2 151.6 209.6 151.1 209.0 C 151.1 209.0 151.0 208.9 151.0 208.9 C 150.5 208.3 150.1 207.7 149.7 207.0 C 149.6 207.0 149.6 206.9 149.5 206.9 C 149.1 206.2 148.7 205.6 148.3 204.9 C 148.3 204.8 148.2 204.7 148.2 204.6 C 147.8 204.0 147.4 203.4 147.1 202.7 C 147.1 202.6 147.0 202.5 146.9 202.4 C 146.6 201.7 146.3 201.1 146.0 200.4 C 146.0 200.3 145.9 200.2 145.9 200.1 C 145.6 199.4 145.3 198.7 145.0 198.0 C 145.0 198.0 145.0 198.0 145.0 197.9 C 144.9 197.6 144.7 197.2 144.6 196.8 C 144.6 196.8 144.6 196.8 144.6 196.8 C 144.6 196.8 144.6 196.8 144.6 196.8 C 144.5 196.5 144.4 196.3 144.4 196.1 C 144.3 195.8 144.2 195.6 144.1 195.3 C 143.9 194.8 143.8 194.3 143.7 193.8 C 143.6 193.6 143.5 193.3 143.4 193.1 C 143.3 192.5 143.1 191.8 143.0 191.2 C 142.9 191.1 142.9 191.0 142.9 190.8 C 142.7 190.1 142.5 189.3 142.4 188.6 C 142.3 188.4 142.3 188.1 142.3 187.9 C 142.2 187.4 142.1 186.8 142.0 186.3 C 141.9 186.0 141.9 185.8 141.8 185.5 C 141.8 185.0 141.7 184.5 141.6 184.0 C 141.6 183.7 141.5 183.4 141.5 183.1 C 141.4 182.6 141.4 182.1 141.3 181.6 C 141.3 181.4 141.2 181.1 141.2 180.9 C 141.1 180.3 141.1 179.7 141.0 179.1 C 141.0 178.9 141.0 178.8 141.0 178.6 C 140.9 177.8 140.8 177.1 140.8 176.4 C 140.8 176.3 140.8 176.2 140.7 176.1 L 124.0 180.9 L 105.6 168.6 C 106.5 160.9 107.7 152.0 109.6 144.3 L 98.6 136.3 L 99.9 131.6 C 121.5 124.3 143.2 117.6 165.1 111.5 C 166.1 112.1 167.2 112.8 168.3 113.7 C 168.7 114.1 169.2 114.4 169.6 114.8 C 169.7 114.9 169.9 115.0 170.0 115.2 C 170.3 115.4 170.6 115.7 170.9 115.9 C 171.0 116.1 171.2 116.2 171.3 116.4 C 171.6 116.6 171.8 116.8 172.0 117.1 C 172.2 117.2 172.4 117.4 172.5 117.6 C 172.7 117.8 172.9 118.0 173.2 118.3 C 173.2 118.3 173.3 118.4 173.4 118.5 C 173.4 118.5 173.5 118.6 173.5 118.7 C 174.0 119.2 174.5 119.8 175.0 120.4 C 175.1 120.5 175.1 120.6 175.2 120.7 C 175.7 121.3 176.2 122.0 176.6 122.6 C 176.6 122.6 176.6 122.6 176.6 122.7 C 177.1 123.3 177.5 124.0 177.9 124.6 C 178.0 124.7 178.0 124.8 178.1 124.9 C 178.4 125.5 178.8 126.2 179.1 126.8 C 179.2 127.0 179.3 127.1 179.3 127.2 C 179.7 127.8 180.0 128.5 180.3 129.2 C 180.3 129.3 180.4 129.4 180.4 129.5 C 180.7 130.2 181.0 130.9 181.3 131.6 C 181.3 131.6 181.3 131.7 181.3 131.8 C 181.6 132.5 181.9 133.2 182.1 133.9 C 182.1 133.9 182.1 134.0 182.1 134.0 C 182.4 134.7 182.6 135.4 182.8 136.1 C 182.8 136.3 182.9 136.4 182.9 136.5 C 183.1 137.2 183.3 137.9 183.4 138.6 C 183.5 138.7 183.5 138.8 183.5 138.9 C 183.7 139.7 183.9 140.4 184.0 141.1 C 184.0 141.2 184.0 141.3 184.1 141.4 C 184.2 142.1 184.4 142.8 184.5 143.6 C 184.5 143.6 184.5 143.6 184.5 143.6 C 184.6 144.4 184.7 145.1 184.8 145.9 C 184.9 145.9 184.9 146.0 184.9 146.1 C 185.0 146.8 185.1 147.6 185.2 148.3 C 185.2 148.4 185.2 148.5 185.2 148.6 C 185.2 148.7 185.2 148.7 185.2 148.7 L 202.8 143.6 L 222.0 156.2 C 222.0 156.3 222.1 156.4 222.1 156.5 C 222.1 156.5 222.1 156.6 222.1 156.6 C 222.1 156.7 222.1 156.9 222.1 157.0 C 222.1 157.1 222.1 157.2 222.1 157.3 C 222.1 157.5 222.1 157.6 222.1 157.8 C 222.2 157.9 222.2 158.1 222.2 158.2 C 222.2 158.4 222.2 158.6 222.2 158.9 C 222.2 159.0 222.2 159.2 222.2 159.4 C 222.2 159.6 222.2 159.9 222.2 160.1 C 222.2 160.3 222.2 160.5 222.2 160.8 C 222.2 161.0 222.2 161.3 222.2 161.6 C 222.2 161.9 222.2 162.1 222.2 162.4 C 222.2 162.7 222.2 163.0 222.2 163.3 C 222.2 163.6 222.2 163.9 222.2 164.2 C 222.2 164.5 222.2 164.8 222.2 165.2 C 222.1 165.5 222.1 165.8 222.1 166.2 C 222.1 166.5 222.1 166.9 222.0 167.3 C 222.0 167.6 222.0 168.0 222.0 168.3 C 221.9 168.7 221.9 169.1 221.9 169.5 C 221.8 169.9 221.8 170.3 221.8 170.7 C 221.7 171.1 221.7 171.5 221.6 172.0 C 221.6 172.3 221.5 172.7 221.5 173.1 C 221.4 173.6 221.4 174.1 221.3 174.5 C 221.2 174.9 221.2 175.4 221.1 175.8 C 221.0 176.2 221.0 176.7 220.9 177.2 C 220.8 177.6 220.7 178.1 220.6 178.5 C 220.6 179.0 220.5 179.5 220.4 180.0 C 220.3 180.5 220.2 180.9 220.1 181.4 C 220.0 181.9 219.9 182.4 219.7 183.0 C 219.6 183.4 219.5 183.9 219.4 184.4 C 219.3 184.6 219.3 184.8 219.2 185.0 C 219.1 185.7 218.9 186.3 218.8 186.9 C 218.8 186.9 218.8 186.9 218.8 186.9 L 227.7 193.5 C 227.8 192.7 227.8 191.9 227.8 191.1 C 227.8 190.6 227.9 190.0 227.9 189.4 C 227.9 188.4 227.9 187.4 227.9 186.4 C 227.9 185.8 227.9 185.3 227.9 184.7 C 227.9 183.6 227.8 182.5 227.8 181.4 C 227.8 181.0 227.8 180.5 227.7 180.1 C 227.7 178.5 227.6 176.9 227.4 175.4 C 227.4 175.2 227.4 174.9 227.4 174.7 C 227.3 173.4 227.1 172.0 227.0 170.7 C 226.9 170.2 226.8 169.7 226.8 169.1 C 226.7 168.1 226.5 167.1 226.4 166.0 C 226.3 165.4 226.2 164.9 226.1 164.3 C 225.9 163.3 225.8 162.3 225.6 161.2 C 225.5 160.7 225.4 160.1 225.3 159.6 C 225.1 158.4 224.8 157.3 224.6 156.2 C 224.5 155.8 224.4 155.4 224.3 154.9 C 224.0 153.4 223.6 151.9 223.2 150.3 C 223.1 150.0 223.0 149.7 223.0 149.5 C 222.6 148.2 222.3 147.0 221.9 145.8 C 221.8 145.2 221.6 144.7 221.5 144.2 C 221.2 143.2 220.9 142.2 220.5 141.2 C 220.4 140.6 220.2 140.1 220.0 139.5 C 219.6 138.5 219.3 137.6 219.0 136.6 C 218.8 136.1 218.6 135.5 218.4 135.0 C 218.0 133.9 217.5 132.8 217.1 131.7 C 217.0 131.3 216.8 131.0 216.7 130.6 C 216.1 129.1 215.4 127.7 214.8 126.3 C 214.7 125.9 214.5 125.6 214.4 125.3 C 213.9 124.2 213.3 123.1 212.8 122.0 C 212.6 121.5 212.3 121.0 212.1 120.5 C 211.6 119.6 211.2 118.7 210.7 117.8 C 210.4 117.3 210.1 116.8 209.9 116.2 C 209.4 115.3 208.9 114.4 208.4 113.6 C 208.1 113.1 207.8 112.6 207.5 112.1 C 206.9 111.1 206.3 110.1 205.7 109.1 C 205.5 108.8 205.3 108.5 205.1 108.2 C 204.3 106.9 203.5 105.6 202.6 104.3 C 202.4 104.0 202.2 103.7 201.9 103.4 C 201.6 103.0 201.3 102.5 201.0 102.1 C 213.7 99.0 226.4 96.1 239.1 93.4 C 239.6 94.2 240.2 95.0 240.6 95.8 C 240.8 96.1 240.9 96.3 241.1 96.6 C 241.8 97.8 242.5 99.0 243.2 100.2 C 243.3 100.3 243.4 100.5 243.4 100.7 C 244.1 101.8 244.7 103.0 245.3 104.2 C 245.4 104.4 245.5 104.6 245.6 104.7 C 246.2 106.0 246.9 107.2 247.5 108.5 C 247.6 108.8 247.7 109.0 247.9 109.3 C 248.5 110.6 249.1 111.8 249.6 113.1 C 249.7 113.3 249.8 113.5 249.8 113.6 C 250.4 114.8 250.9 116.1 251.4 117.3 C 251.5 117.5 251.6 117.7 251.7 117.9 C 252.2 119.2 252.7 120.5 253.2 121.8 C 253.3 122.1 253.4 122.4 253.5 122.7 C 254.0 124.0 254.5 125.3 255.0 126.7 C 255.1 126.8 255.1 127.0 255.2 127.1 C 255.6 128.4 256.0 129.7 256.4 131.0 C 256.5 131.2 256.6 131.4 256.6 131.6 C 257.1 133.0 257.5 134.3 257.9 135.7 C 257.9 136.0 258.0 136.3 258.1 136.5 C 258.5 137.9 258.9 139.3 259.2 140.7 C 259.3 140.8 259.3 141.0 259.3 141.1 C 259.7 142.4 260.0 143.8 260.3 145.1 C 260.3 145.3 260.4 145.5 260.4 145.8 C 260.8 147.1 261.0 148.5 261.3 149.9 C 261.4 150.2 261.4 150.5 261.5 150.7 C 261.8 152.1 262.0 153.6 262.3 155.0 C 262.3 155.1 262.3 155.2 262.3 155.4 C 262.6 156.7 262.8 158.0 262.9 159.4 C 263.0 159.6 263.0 159.9 263.1 160.1 C 263.2 161.5 263.4 162.9 263.6 164.3 C 263.6 164.6 263.6 164.8 263.7 165.1 C 263.8 166.5 264.0 168.0 264.1 169.4 C 264.1 169.5 264.1 169.6 264.1 169.7 C 264.2 171.1 264.3 172.4 264.4 173.8 C 264.4 174.0 264.4 174.3 264.4 174.5 C 264.5 175.9 264.5 177.3 264.6 178.7 C 264.6 178.9 264.6 179.2 264.6 179.5 C 264.6 180.9 264.6 182.3 264.6 183.7 C 264.6 183.8 264.6 183.9 264.6 184.0 C 264.6 185.4 264.5 186.7 264.5 188.1 C 264.5 188.3 264.5 188.6 264.5 188.8 C 264.4 190.2 264.3 191.6 264.2 192.9 C 264.2 193.2 264.2 193.5 264.2 193.7 C 264.1 195.1 263.9 196.5 263.8 197.9 L 263.8 198.1 C 263.6 199.5 263.5 200.8 263.3 202.1 C 263.2 202.4 263.2 202.6 263.2 202.9 C 263.0 204.2 262.8 205.5 262.5 206.9 C 262.5 207.1 262.4 207.4 262.4 207.6 C 262.1 209.0 261.9 210.4 261.6 211.7 C 261.6 211.8 261.6 211.8 261.6 211.8 C 261.3 213.2 261.0 214.5 260.7 215.8 C 260.6 215.9 260.6 216.1 260.6 216.2 C 260.5 216.3 260.5 216.4 260.5 216.5 C 260.2 217.8 259.8 219.1 259.4 220.3 C 259.4 220.6 259.3 220.8 259.2 221.1 C 258.8 222.4 258.4 223.7 258.0 225.0 C 255.9 231.1 253.5 236.8 250.7 241.9 C 249.9 243.4 249.0 244.8 248.2 246.2 C 244.7 251.8 240.8 256.7 236.6 260.9 C 234.5 262.9 232.2 264.9 229.9 266.6 C 228.8 267.5 227.6 268.3 226.4 269.1 C 224.1 270.7 221.6 272.1 219.1 273.3 C 218.5 273.6 217.8 273.9 217.2 274.2 C 214.6 275.3 212.0 276.3 209.4 277.0 L 184.0 284.3 C 199.5 279.9 213.2 269.2 223.1 253.0 C 223.1 253.0 223.1 253.0 223.0 253.0 C 221.5 254.2 220.0 255.2 218.4 256.2 C 217.3 256.9 216.3 257.5 215.2 258.1 C 214.1 258.6 213.0 259.2 211.9 259.7 C 211.3 259.9 210.8 260.1 210.2 260.4 C 208.5 261.0 206.8 261.6 205.1 262.1 L 193.7 265.4 L 179.7 269.4 C 179.0 269.6 178.3 269.8 177.5 270.0 C 177.1 270.1 176.7 270.2 176.2 270.3 C 175.2 270.5 174.2 270.7 173.2 270.8 C 173.1 270.9 172.9 270.9 172.7 270.9 C 172.1 271.0 171.4 271.1 170.7 271.2 C 170.2 271.2 169.7 271.3 169.2 271.3 C 168.8 271.4 168.4 271.4 168.0 271.4 C 167.2 271.4 166.4 271.5 165.6 271.5 C 165.3 271.5 165.0 271.5 164.7 271.5 C 163.8 271.5 162.9 271.5 161.9 271.4 C 161.8 271.4 161.7 271.4 161.6 271.4 C 160.5 271.3 159.4 271.3 158.3 271.1 C 157.7 271.1 157.2 271.0 156.6 270.9 C 155.9 270.8 155.2 270.7 154.6 270.6 C 154.2 270.5 153.9 270.4 153.5 270.4 C 142.7 268.2 131.6 263.0 120.9 254.5 C 119.8 253.7 118.8 252.8 117.8 252.0 " fill="#D66800"></path><path d="M 190.4 203.6 C 183.6 219.5 171.3 226.4 157.5 215.4 C 131.3 194.7 147.0 153.2 133.0 142.1 C 128.0 138.1 123.1 140.9 120.7 148.2 C 118.6 154.7 118.4 159.2 119.5 163.8 C 120.1 164.4 120.5 164.9 120.7 165.1 L 127.1 170.1 L 124.0 180.9 L 105.6 168.6 C 106.5 160.9 107.7 152.0 109.6 144.3 L 98.6 136.3 L 101.3 126.9 L 112.3 134.9 C 118.4 117.8 129.8 110.6 142.9 121.0 C 170.2 142.7 153.6 183.2 169.0 195.5 C 174.8 200.0 179.3 195.9 181.5 189.1 C 185.1 178.6 184.2 171.4 184.0 170.3 C 182.2 168.1 180.2 166.0 179.7 165.8 C 178.6 164.7 174.8 161.7 174.6 161.6 L 177.4 150.9 L 196.7 163.5 C 196.7 164.2 198.0 177.4 193.4 194.2 L 202.4 200.8 L 199.7 210.4 L 190.4 203.6 M 78.3 109.7 C 62.1 158.1 81.1 223.0 120.9 254.5 C 160.6 286.1 205.9 272.4 222.1 224.0 C 238.3 175.6 219.3 110.7 179.5 79.2 C 139.8 47.6 94.4 61.3 78.3 109.7 " fill="#FFE679"></path><path d="M 131.9 262.0 C 133.8 240.6 139.3 219.4 145.2 198.5 C 147.7 204.8 151.5 210.7 157.5 215.4 C 171.3 226.4 183.6 219.5 190.4 203.6 L 199.7 210.4 L 202.4 200.8 L 193.4 194.2 C 198.0 177.4 196.7 164.2 196.7 163.5 L 177.4 150.9 L 174.6 161.6 C 174.8 161.7 178.6 164.7 179.7 165.8 C 180.2 166.0 182.2 168.1 184.0 170.3 C 184.2 171.4 185.1 178.6 181.5 189.1 C 179.3 195.9 174.8 200.0 169.0 195.5 C 158.8 187.3 162.6 166.7 158.4 147.5 C 161.6 131.8 163.5 116.0 162.8 100.1 C 162.3 88.6 160.2 77.0 156.5 66.0 C 164.2 68.8 172.0 73.2 179.5 79.2 C 219.3 110.7 238.3 175.6 222.1 224.0 C 207.4 268.0 168.7 283.3 131.9 262.0 " fill="#FFD93A"></path><path d="M 131.5 141.1 C 128.6 141.6 126.1 144.4 124.6 149.0 C 122.4 155.4 122.2 160.0 123.4 164.5 C 123.9 165.1 124.3 165.7 124.6 165.8 L 130.9 170.9 L 127.9 181.7 L 124.0 180.9 L 127.1 170.1 L 120.7 165.1 C 120.5 164.9 120.1 164.4 119.5 163.8 C 118.4 159.2 118.6 154.7 120.7 148.2 C 122.9 141.7 127.0 138.7 131.5 141.1 " fill="#C76C10"></path><path d="M 112.9 133.3 C 112.7 133.8 112.5 134.3 112.3 134.9 L 101.3 126.9 L 105.1 127.6 Z M 112.9 133.3 " fill="#C76C10"></path><path d="M 193.5 205.9 C 188.0 217.6 179.4 223.9 169.4 220.7 C 178.2 221.4 185.6 214.7 190.4 203.6 Z M 193.5 205.9 " fill="#C76C10"></path><path d="M 78.3 109.7 C 90.4 73.5 118.8 56.7 148.9 63.8 C 120.2 59.0 93.7 75.8 82.1 110.5 C 65.9 158.9 85.0 223.7 124.7 255.3 C 134.7 263.2 145.1 268.3 155.3 270.7 C 143.9 268.8 132.2 263.5 120.9 254.5 C 81.1 223.0 62.1 158.1 78.3 109.7 " fill="#C76C10"></path><path d="M 181.3 151.7 L 200.5 164.3 C 200.6 165.0 201.8 178.2 197.2 195.0 L 206.3 201.6 L 203.5 211.2 L 200.2 208.7 L 202.4 200.8 L 193.4 194.2 C 198.0 177.4 196.7 164.2 196.7 163.5 L 180.9 153.2 Z M 181.3 151.7 " fill="#C76C10"></path><path d="M 135.8 117.0 C 139.2 117.2 142.9 118.7 146.7 121.8 C 174.1 143.5 157.4 183.9 172.9 196.2 C 173.4 196.7 174.0 197.0 174.5 197.3 C 172.9 197.6 171.0 197.1 169.0 195.5 C 153.6 183.2 170.2 142.7 142.9 121.0 C 140.5 119.1 138.1 117.7 135.8 117.0 " fill="#C76C10"></path><path d="M 101.3 126.9 L 98.6 136.3 L 109.6 144.3 C 107.7 152.0 106.5 160.9 105.6 168.6 L 124.0 180.9 L 127.1 170.1 L 120.7 165.1 C 120.5 164.9 120.1 164.4 119.5 163.8 C 118.4 159.2 118.6 154.7 120.7 148.2 C 123.1 140.9 128.0 138.1 133.0 142.1 C 147.0 153.2 131.3 194.7 157.5 215.4 C 171.3 226.4 183.6 219.5 190.4 203.6 L 199.7 210.4 L 202.4 200.8 L 193.4 194.2 C 198.0 177.4 196.7 164.2 196.7 163.5 L 177.4 150.9 L 174.6 161.6 C 174.8 161.7 178.6 164.7 179.7 165.8 C 180.2 166.0 182.2 168.1 184.0 170.3 C 184.2 171.4 185.1 178.6 181.5 189.1 C 179.3 195.9 174.8 200.0 169.0 195.5 C 153.5 183.2 170.2 142.7 142.9 121.0 C 129.8 110.6 118.4 117.8 112.3 134.9 Z M 101.3 126.9 " fill="#FFF3A9"></path><path d="M 143.8 189.6 C 148.2 173.9 152.7 158.0 155.8 141.9 C 158.6 150.3 159.2 159.4 159.8 167.8 C 160.6 180.1 161.3 190.7 168.4 196.3 C 172.0 199.3 175.7 199.2 178.8 196.2 C 180.3 194.7 181.6 192.3 182.6 189.5 C 185.9 179.5 185.5 172.1 185.1 170.1 L 185.0 169.8 L 184.8 169.6 C 184.0 168.6 181.5 165.7 180.4 164.9 C 179.4 164.0 177.1 162.2 175.8 161.2 L 178.1 152.7 L 195.6 164.1 C 195.8 167.0 196.4 179.0 192.3 193.9 L 192.1 194.6 L 201.2 201.3 L 199.0 208.6 L 189.9 201.9 L 189.4 203.2 C 187.4 207.8 184.9 211.7 182.1 214.5 C 175.1 221.4 166.8 221.5 158.1 214.6 C 149.7 207.9 145.8 199.1 143.7 189.8 C 143.7 189.7 143.8 189.7 143.8 189.6 " fill="#FFE061"></path><path d="M 222.1 224.0 C 205.9 272.4 160.6 286.1 120.9 254.5 C 81.1 223.0 62.1 158.1 78.3 109.7 C 94.4 61.3 139.8 47.6 179.5 79.2 C 219.3 110.7 238.3 175.6 222.1 224.0 M 67.8 101.4 C 49.2 156.8 71.1 231.1 116.6 267.3 C 162.1 303.4 214.1 287.8 232.6 232.3 C 251.2 176.8 229.3 102.6 183.8 66.4 C 138.3 30.3 86.4 45.9 67.8 101.4 " fill="#FFF1B4"></path><path d="M 95.9 77.9 C 118.4 55.4 151.5 55.5 180.2 78.3 C 220.2 110.1 239.5 175.6 223.2 224.3 C 218.9 237.1 212.6 247.6 204.5 255.8 C 182.0 278.3 148.9 278.1 120.2 255.4 C 80.2 223.6 60.9 158.1 77.2 109.3 C 81.5 96.6 87.8 86.0 95.9 77.9 M 210.7 267.1 C 219.8 258.0 226.8 246.2 231.6 232.0 C 250.0 177.0 228.2 103.1 183.1 67.3 C 151.3 42.0 114.6 41.7 89.7 66.6 C 80.6 75.7 73.6 87.5 68.8 101.7 C 50.4 156.7 72.2 230.6 117.3 266.4 C 149.2 291.7 185.8 292.0 210.7 267.1 " fill="#FFF1B4"></path><path d="M 121.3 269.4 C 121.4 265.2 121.7 261.0 122.1 256.8 C 150.3 278.1 182.4 277.8 204.5 255.8 C 212.6 247.6 218.9 237.1 223.2 224.3 C 239.5 175.6 220.2 110.1 180.2 78.3 C 169.3 69.7 157.8 64.3 146.5 62.2 C 144.9 57.5 143.0 52.9 140.8 48.6 C 154.9 50.2 169.5 56.4 183.1 67.3 C 228.2 103.1 250.0 177.0 231.6 232.0 C 226.8 246.2 219.8 258.0 210.7 267.1 C 186.9 290.9 152.2 291.7 121.3 269.4 " fill="#FCDE53"></path><path d="M 246.6 247.8 C 247.5 246.4 248.3 244.9 249.1 243.5 C 251.9 238.3 254.4 232.7 256.5 226.5 C 256.9 225.2 257.3 223.9 257.7 222.6 C 257.8 222.4 257.8 222.1 257.9 221.9 C 258.3 220.6 258.6 219.3 258.9 218.1 C 259.0 218.0 259.0 217.9 259.0 217.8 C 259.1 217.6 259.1 217.5 259.1 217.3 C 259.4 216.0 259.8 214.7 260.0 213.4 C 260.0 213.3 260.1 213.3 260.1 213.3 C 260.4 211.9 260.6 210.6 260.9 209.2 C 260.9 208.9 261.0 208.7 261.0 208.4 C 261.2 207.1 261.4 205.8 261.6 204.4 C 261.7 204.2 261.7 203.9 261.7 203.7 C 261.9 202.3 262.1 201.0 262.2 199.6 C 262.2 199.6 262.2 199.5 262.2 199.5 C 262.4 198.1 262.5 196.7 262.6 195.3 C 262.6 195.0 262.7 194.7 262.7 194.5 C 262.8 193.1 262.9 191.7 262.9 190.4 C 262.9 190.1 262.9 189.9 262.9 189.6 C 263.0 188.3 263.0 186.9 263.1 185.5 C 263.1 185.5 263.1 185.4 263.1 185.3 C 263.1 183.9 263.1 182.5 263.0 181.0 C 263.0 180.8 263.0 180.5 263.0 180.2 C 263.0 178.8 262.9 177.4 262.9 176.0 C 262.9 175.8 262.8 175.6 262.8 175.3 C 262.8 174.0 262.7 172.6 262.6 171.2 C 262.5 171.1 262.5 171.0 262.5 170.9 C 262.4 169.5 262.3 168.1 262.1 166.7 C 262.1 166.4 262.1 166.1 262.0 165.8 C 261.9 164.4 261.7 163.0 261.5 161.6 C 261.5 161.4 261.4 161.2 261.4 160.9 C 261.2 159.6 261.0 158.2 260.8 156.9 C 260.8 156.8 260.7 156.6 260.7 156.5 C 260.5 155.1 260.2 153.7 260.0 152.3 C 259.9 152.0 259.8 151.7 259.8 151.4 C 259.5 150.1 259.2 148.7 258.9 147.3 C 258.9 147.1 258.8 146.8 258.8 146.6 C 258.4 145.3 258.1 144.0 257.8 142.7 C 257.8 142.5 257.7 142.4 257.7 142.2 C 257.3 140.8 257.0 139.5 256.6 138.1 C 256.5 137.8 256.4 137.5 256.3 137.2 C 255.9 135.9 255.5 134.5 255.1 133.2 C 255.0 133.0 255.0 132.8 254.9 132.5 C 254.5 131.3 254.1 130.0 253.6 128.7 C 253.6 128.5 253.5 128.4 253.5 128.2 C 253.0 126.9 252.5 125.5 252.0 124.2 C 251.9 123.9 251.8 123.7 251.7 123.4 C 251.2 122.1 250.7 120.7 250.1 119.4 C 250.1 119.3 250.0 119.1 249.9 118.9 C 249.4 117.6 248.9 116.4 248.3 115.2 C 248.2 115.0 248.2 114.8 248.1 114.7 C 247.5 113.4 246.9 112.1 246.3 110.8 C 246.2 110.6 246.1 110.3 245.9 110.0 C 245.3 108.8 244.7 107.5 244.1 106.3 C 244.0 106.1 243.9 105.9 243.8 105.7 C 243.2 104.6 242.5 103.4 241.9 102.2 C 241.8 102.1 241.7 101.9 241.6 101.7 C 241.0 100.5 240.3 99.3 239.5 98.1 C 239.4 97.8 239.3 97.6 239.1 97.3 C 238.4 96.2 237.7 95.0 236.9 93.8 C 236.8 93.6 236.7 93.5 236.6 93.3 C 235.9 92.2 235.2 91.1 234.5 90.0 C 234.4 89.9 234.2 89.7 234.1 89.5 C 233.4 88.4 232.6 87.3 231.8 86.2 C 231.6 85.9 231.4 85.7 231.3 85.5 C 230.4 84.4 229.6 83.3 228.8 82.2 C 228.7 82.1 228.6 81.9 228.5 81.8 C 227.7 80.8 226.8 79.8 226.0 78.8 C 225.9 78.6 225.8 78.5 225.6 78.3 C 224.8 77.3 223.9 76.2 223.0 75.2 C 222.9 75.1 222.8 75.0 222.7 74.9 C 222.6 74.8 222.5 74.8 222.5 74.7 C 221.4 73.5 220.4 72.4 219.3 71.3 C 219.2 71.2 219.0 71.0 218.9 70.8 C 217.8 69.7 216.7 68.6 215.6 67.6 C 215.4 67.5 215.3 67.3 215.2 67.2 C 214.0 66.1 212.9 65.1 211.7 64.0 C 211.6 64.0 211.5 63.9 211.4 63.8 C 210.2 62.7 208.9 61.7 207.6 60.7 C 185.2 42.8 161.1 37.6 140.3 43.6 L 127.4 47.3 C 123.7 47.6 120.0 48.3 116.4 49.3 L 141.8 42.0 C 162.6 36.1 186.7 41.3 209.2 59.1 C 210.5 60.1 211.7 61.2 213.0 62.3 C 213.0 62.3 213.1 62.4 213.2 62.5 C 214.4 63.5 215.6 64.6 216.7 65.7 C 216.8 65.8 217.0 65.9 217.1 66.0 C 218.2 67.1 219.3 68.2 220.4 69.3 C 220.6 69.5 220.7 69.6 220.9 69.8 C 221.9 70.9 223.0 72.0 224.0 73.1 C 224.1 73.2 224.2 73.3 224.3 73.4 C 224.3 73.5 224.4 73.6 224.5 73.7 C 225.4 74.7 226.3 75.7 227.2 76.8 C 227.3 76.9 227.4 77.1 227.6 77.2 C 228.4 78.2 229.2 79.2 230.0 80.3 C 230.1 80.4 230.2 80.5 230.3 80.7 C 231.2 81.7 232.0 82.8 232.8 84.0 C 233.0 84.2 233.1 84.4 233.3 84.6 C 234.1 85.8 234.9 86.9 235.7 88.0 C 235.8 88.2 235.9 88.3 236.0 88.5 C 236.7 89.6 237.5 90.7 238.2 91.8 C 238.3 92.0 238.4 92.1 238.5 92.3 C 239.2 93.4 239.9 94.6 240.6 95.8 C 240.8 96.1 240.9 96.3 241.1 96.6 C 241.8 97.8 242.5 99.0 243.2 100.2 C 243.3 100.3 243.4 100.5 243.4 100.7 C 244.1 101.8 244.7 103.0 245.3 104.2 C 245.4 104.4 245.5 104.6 245.6 104.7 C 246.2 106.0 246.9 107.2 247.5 108.5 C 247.6 108.8 247.7 109.0 247.9 109.3 C 248.5 110.6 249.1 111.8 249.6 113.1 C 249.7 113.3 249.8 113.5 249.8 113.6 C 250.4 114.8 250.9 116.1 251.4 117.3 C 251.5 117.5 251.6 117.7 251.7 117.9 C 252.2 119.2 252.7 120.5 253.2 121.8 C 253.3 122.1 253.4 122.4 253.5 122.7 C 254.0 124.0 254.5 125.3 255.0 126.7 C 255.1 126.8 255.1 127.0 255.2 127.1 C 255.6 128.4 256.0 129.7 256.4 131.0 C 256.5 131.2 256.6 131.4 256.6 131.6 C 257.1 133.0 257.5 134.3 257.9 135.7 C 257.9 136.0 258.0 136.3 258.1 136.5 C 258.5 137.9 258.9 139.3 259.2 140.7 C 259.3 140.8 259.3 141.0 259.3 141.1 C 259.7 142.4 260.0 143.8 260.3 145.1 C 260.3 145.3 260.4 145.5 260.4 145.8 C 260.8 147.1 261.0 148.5 261.3 149.9 C 261.4 150.2 261.4 150.5 261.5 150.7 C 261.8 152.1 262.0 153.6 262.3 155.0 C 262.3 155.1 262.3 155.2 262.3 155.4 C 262.6 156.7 262.8 158.0 262.9 159.4 C 263.0 159.6 263.0 159.9 263.1 160.1 C 263.2 161.5 263.4 162.9 263.6 164.3 C 263.6 164.6 263.6 164.8 263.7 165.1 C 263.8 166.5 264.0 168.0 264.1 169.4 C 264.1 169.5 264.1 169.6 264.1 169.7 C 264.2 171.1 264.3 172.4 264.4 173.8 C 264.4 174.0 264.4 174.3 264.4 174.5 C 264.5 175.9 264.5 177.3 264.6 178.7 C 264.6 178.9 264.6 179.2 264.6 179.5 C 264.6 180.9 264.6 182.3 264.6 183.7 C 264.6 183.8 264.6 183.9 264.6 184.0 C 264.6 185.4 264.5 186.7 264.5 188.1 C 264.5 188.3 264.5 188.6 264.5 188.8 C 264.4 190.2 264.3 191.6 264.2 192.9 C 264.2 193.2 264.2 193.5 264.2 193.7 C 264.1 195.1 263.9 196.5 263.8 197.9 L 263.8 198.1 C 263.6 199.5 263.5 200.8 263.3 202.1 C 263.2 202.4 263.2 202.6 263.2 202.9 C 263.0 204.2 262.8 205.5 262.5 206.9 C 262.5 207.1 262.4 207.4 262.4 207.6 C 262.1 209.0 261.9 210.4 261.6 211.7 C 261.6 211.8 261.6 211.8 261.6 211.8 C 261.3 213.2 261.0 214.5 260.7 215.8 C 260.6 215.9 260.6 216.1 260.6 216.2 C 260.5 216.3 260.5 216.4 260.5 216.5 C 260.2 217.8 259.8 219.1 259.4 220.3 C 259.4 220.6 259.3 220.8 259.2 221.1 C 258.8 222.4 258.4 223.7 258.0 225.0 C 255.9 231.1 253.5 236.8 250.7 241.9 C 249.9 243.4 249.0 244.8 248.2 246.2 C 244.7 251.8 240.8 256.7 236.6 260.9 C 236.4 261.0 236.3 261.1 236.1 261.3 C 239.9 257.3 243.5 252.8 246.6 247.8 " fill="#F38907"></path></g></g></g></g></g></svg>