<?xml version="1.0" encoding="UTF-8"?><svg xmlns="http://www.w3.org/2000/svg" xmlns:xlink="http://www.w3.org/1999/xlink" clip-rule="evenodd" stroke-miterlimit="4.00" viewBox="0 0 59 93"><desc>SVG generated by Keynote</desc><defs></defs><g transform="matrix(1.00, 0.00, -0.00, -1.00, 0.0, 93.0)"><g><clipPath id="clip-407"><path d="M 1.4 1.9 L 57.9 1.9 L 57.9 91.5 L 1.4 91.5 Z M 1.4 1.9 "></path></clipPath><g clip-path="url(#clip-407)"><path d="M 42.9 15.6 C 42.8 15.7 42.6 15.9 42.5 16.0 C 42.4 16.1 42.2 16.2 42.1 16.3 C 41.9 16.5 41.7 16.7 41.5 16.9 C 41.4 16.9 41.3 17.0 41.3 17.1 C 41.0 17.4 40.7 17.7 40.4 18.0 C 40.1 18.3 39.7 18.6 39.4 19.0 C 39.3 19.1 39.2 19.2 39.1 19.4 C 38.9 19.6 38.7 19.8 38.5 20.1 C 38.4 20.2 38.2 20.4 38.1 20.5 C 37.9 20.7 37.7 21.0 37.5 21.2 C 37.4 21.4 37.2 21.6 37.1 21.7 C 36.9 22.0 36.8 22.2 36.6 22.4 C 36.4 22.6 36.3 22.8 36.2 23.0 C 36.0 23.2 35.8 23.4 35.6 23.7 C 35.5 23.9 35.3 24.2 35.1 24.4 C 35.1 24.5 35.0 24.5 35.0 24.5 L 39.7 26.5 L 39.6 27.0 L 41.8 27.9 C 41.9 27.8 41.9 27.7 41.9 27.6 C 42.0 27.3 42.0 27.0 42.1 26.6 C 42.1 26.5 42.2 26.3 42.2 26.2 C 42.3 25.7 42.3 25.2 42.4 24.7 C 42.5 24.1 42.6 23.6 42.6 23.0 C 42.7 23.0 42.7 22.9 42.7 22.9 C 42.7 22.4 42.8 21.9 42.8 21.3 C 42.8 21.2 42.9 21.0 42.9 20.9 C 42.9 20.5 42.9 20.2 42.9 19.8 C 43.0 19.7 43.0 19.5 43.0 19.3 C 43.0 19.0 43.0 18.7 43.0 18.4 C 43.0 18.2 43.0 18.0 43.0 17.8 C 43.0 17.6 43.0 17.3 43.0 17.1 C 43.0 16.9 43.0 16.7 43.0 16.5 C 43.0 16.3 43.0 16.1 43.0 15.8 C 42.9 15.8 42.9 15.7 42.9 15.6 M 17.1 77.2 C 17.3 77.0 17.5 76.8 17.8 76.6 C 17.8 76.5 17.9 76.4 18.0 76.3 C 18.3 76.1 18.6 75.8 18.9 75.5 C 19.2 75.1 19.6 74.8 19.9 74.4 C 20.0 74.3 20.1 74.1 20.2 74.0 C 20.4 73.8 20.6 73.5 20.9 73.3 C 21.0 73.1 21.1 73.0 21.2 72.8 C 21.5 72.6 21.7 72.3 21.9 72.1 C 22.0 71.9 22.1 71.7 22.3 71.5 C 22.5 71.3 22.7 71.0 22.9 70.8 C 23.0 70.6 23.1 70.4 23.3 70.2 C 23.5 70.0 23.6 69.7 23.8 69.5 C 24.0 69.3 24.1 69.0 24.3 68.8 C 24.5 68.6 24.7 68.3 24.8 68.1 C 24.9 68.0 24.9 67.9 25.0 67.8 L 20.2 65.8 L 20.3 65.2 L 17.7 64.1 C 17.7 64.3 17.6 64.5 17.6 64.8 C 17.5 65.1 17.4 65.4 17.4 65.7 C 17.3 66.0 17.2 66.4 17.2 66.7 C 17.2 66.9 17.1 67.0 17.1 67.2 C 17.0 67.7 16.9 68.2 16.8 68.7 C 16.8 69.3 16.7 69.9 16.6 70.4 C 16.6 70.4 16.6 70.5 16.6 70.5 C 16.5 71.1 16.5 71.6 16.4 72.1 C 16.4 72.3 16.4 72.4 16.4 72.6 C 16.4 72.9 16.3 73.3 16.3 73.6 C 16.3 73.8 16.3 73.9 16.3 74.1 C 16.3 74.4 16.3 74.7 16.3 75.0 C 16.3 75.2 16.3 75.4 16.3 75.6 C 16.3 75.9 16.3 76.1 16.3 76.4 C 16.3 76.6 16.3 76.7 16.3 76.9 C 16.3 77.2 16.3 77.4 16.3 77.6 C 16.3 77.7 16.3 77.8 16.3 77.8 C 16.5 77.7 16.6 77.6 16.8 77.4 C 16.9 77.3 17.0 77.3 17.1 77.2 M 38.5 2.0 C 38.7 2.0 38.8 2.0 38.9 2.0 C 39.0 2.0 39.1 2.0 39.2 1.9 C 39.3 1.9 39.4 1.9 39.6 1.9 C 39.6 1.9 39.7 1.9 39.8 1.9 C 39.9 1.9 40.0 2.0 40.2 2.0 C 40.2 2.0 40.3 2.0 40.4 2.0 C 40.5 2.0 40.6 2.0 40.8 2.1 C 40.8 2.1 40.9 2.1 41.0 2.1 C 41.1 2.2 41.3 2.2 41.5 2.3 L 53.5 7.4 C 53.3 7.4 53.2 7.3 53.0 7.3 C 52.9 7.2 52.9 7.2 52.8 7.2 C 52.7 7.2 52.5 7.2 52.4 7.1 C 52.3 7.1 52.3 7.1 52.2 7.1 C 52.1 7.1 51.9 7.1 51.8 7.1 C 51.7 7.1 51.7 7.1 51.6 7.1 C 51.5 7.1 51.3 7.1 51.2 7.1 C 51.1 7.1 51.0 7.1 51.0 7.1 C 50.8 7.1 50.7 7.1 50.5 7.2 C 50.5 7.2 50.4 7.2 50.3 7.2 C 50.1 7.2 49.9 7.3 49.8 7.3 C 49.7 7.3 49.7 7.4 49.6 7.4 C 49.4 7.4 49.2 7.5 48.9 7.6 C 48.9 7.6 48.8 7.6 48.8 7.7 C 48.6 7.7 48.4 7.8 48.2 7.9 C 48.1 7.9 48.1 8.0 48.0 8.0 C 47.8 8.1 47.6 8.2 47.5 8.3 C 47.4 8.3 47.3 8.4 47.2 8.4 C 47.0 8.5 46.8 8.6 46.6 8.8 C 46.6 8.8 46.5 8.8 46.5 8.9 C 46.4 8.9 46.4 8.9 46.3 9.0 C 46.0 9.1 45.8 9.3 45.5 9.5 C 45.4 9.6 45.3 9.7 45.1 9.8 C 45.0 9.9 44.9 9.9 44.8 10.0 L 51.2 12.8 L 51.2 12.8 L 51.2 12.8 L 51.2 12.8 L 51.2 12.8 C 51.4 12.8 51.6 12.9 51.8 13.0 C 51.8 13.1 51.9 13.1 51.9 13.2 C 52.1 13.2 52.2 13.3 52.3 13.4 C 52.4 13.5 52.4 13.5 52.5 13.6 C 52.6 13.7 52.7 13.8 52.8 14.0 C 52.9 14.0 52.9 14.0 52.9 14.0 C 53.1 14.2 53.2 14.4 53.3 14.6 C 53.4 14.7 53.4 14.7 53.4 14.8 C 53.5 14.9 53.6 15.1 53.7 15.3 C 53.7 15.4 53.8 15.4 53.8 15.5 C 53.9 15.7 54.0 15.9 54.0 16.1 C 54.1 16.1 54.1 16.2 54.1 16.3 C 54.1 16.3 54.1 16.3 54.2 16.4 C 54.2 16.4 54.2 16.5 54.2 16.6 C 54.3 16.8 54.4 17.1 54.5 17.4 C 54.5 17.5 54.5 17.7 54.5 17.8 C 54.6 18.1 54.7 18.4 54.7 18.6 C 54.7 18.7 54.8 18.8 54.8 18.9 C 54.8 19.0 54.8 19.0 54.8 19.1 C 54.8 19.3 54.8 19.5 54.9 19.7 C 54.9 19.9 54.9 20.1 54.9 20.3 C 54.9 20.5 55.0 20.8 55.0 21.0 C 55.0 21.1 55.0 21.3 55.0 21.4 C 55.0 21.5 55.0 21.6 55.0 21.6 C 55.0 21.8 55.0 22.0 55.0 22.2 C 55.0 22.5 55.0 22.7 55.0 23.0 C 55.0 23.2 55.0 23.4 55.0 23.6 C 55.0 23.7 55.0 23.8 55.0 23.9 C 55.0 24.1 55.0 24.3 55.0 24.4 C 55.0 24.6 55.0 24.8 55.0 25.0 C 54.9 25.3 54.9 25.7 54.9 26.0 C 54.9 26.2 54.9 26.3 54.9 26.5 C 54.8 26.5 54.8 26.6 54.8 26.6 C 54.8 27.1 54.7 27.6 54.7 28.0 C 54.7 28.1 54.7 28.1 54.7 28.2 C 54.6 28.6 54.6 29.0 54.5 29.5 C 54.5 29.6 54.5 29.7 54.4 29.8 C 54.4 30.3 54.3 30.8 54.2 31.3 C 54.2 31.4 54.1 31.6 54.1 31.8 C 54.1 32.1 54.0 32.4 54.0 32.6 C 54.0 32.7 53.9 32.7 53.9 32.8 C 53.8 33.2 53.7 33.7 53.6 34.2 C 53.6 34.3 53.6 34.3 53.6 34.4 C 53.5 35.0 53.4 35.5 53.2 36.1 C 53.2 36.1 53.2 36.1 53.2 36.2 C 53.2 36.3 53.1 36.4 53.1 36.5 C 53.0 37.0 52.9 37.5 52.8 38.0 C 52.7 38.2 52.6 38.4 52.6 38.6 C 52.5 39.0 52.4 39.5 52.2 39.9 C 52.2 40.0 52.2 40.1 52.1 40.3 C 52.1 40.3 52.1 40.4 52.1 40.5 C 51.8 41.2 51.6 42.0 51.3 42.8 C 51.3 43.0 51.3 43.2 51.2 43.3 C 50.9 44.1 50.7 45.0 50.4 45.8 C 50.4 45.8 50.4 45.8 50.4 45.8 C 50.3 45.9 50.3 46.0 50.3 46.1 C 50.1 46.6 49.9 47.2 49.7 47.8 C 49.6 48.0 49.5 48.2 49.4 48.4 C 49.2 49.0 49.0 49.5 48.8 50.1 C 48.8 50.2 48.7 50.4 48.7 50.5 C 48.4 51.2 48.1 51.8 47.9 52.5 C 47.8 52.7 47.7 52.8 47.6 53.0 C 47.4 53.5 47.2 54.1 47.0 54.6 C 46.9 54.8 46.8 54.9 46.7 55.1 C 46.7 55.2 46.6 55.4 46.6 55.5 C 46.6 55.5 46.6 55.5 46.6 55.5 C 46.6 55.5 46.6 55.5 46.6 55.5 C 46.4 55.9 46.2 56.3 46.0 56.7 C 46.0 56.9 45.9 57.1 45.8 57.2 C 45.5 57.9 45.2 58.6 44.8 59.3 C 44.8 59.4 44.7 59.6 44.6 59.7 C 44.4 60.3 44.1 60.8 43.8 61.3 C 43.7 61.5 43.6 61.8 43.5 62.0 C 43.3 62.4 43.0 62.9 42.8 63.3 C 42.8 63.4 42.7 63.5 42.6 63.6 C 42.6 63.7 42.5 63.8 42.5 63.9 C 42.1 64.6 41.7 65.3 41.3 66.0 C 41.3 66.1 41.2 66.2 41.2 66.2 C 40.8 67.0 40.4 67.7 39.9 68.4 C 39.9 68.5 39.8 68.6 39.8 68.7 C 39.7 68.8 39.6 68.9 39.5 69.1 C 39.3 69.4 39.1 69.8 38.9 70.1 C 38.7 70.3 38.6 70.6 38.4 70.8 C 38.2 71.1 38.0 71.5 37.8 71.8 C 37.7 71.9 37.6 72.1 37.5 72.2 C 37.5 72.3 37.4 72.4 37.3 72.5 C 37.2 72.7 37.0 73.0 36.9 73.2 C 36.7 73.4 36.5 73.7 36.3 73.9 C 36.2 74.2 36.0 74.4 35.8 74.6 C 35.7 74.8 35.6 74.9 35.5 75.1 C 35.4 75.2 35.4 75.3 35.3 75.4 C 35.2 75.6 35.0 75.7 34.9 75.9 C 34.7 76.2 34.5 76.4 34.3 76.7 C 34.2 76.9 34.0 77.0 33.9 77.2 C 33.8 77.3 33.7 77.4 33.6 77.5 C 33.5 77.6 33.4 77.8 33.3 77.9 C 33.1 78.1 33.0 78.3 32.9 78.4 C 32.7 78.7 32.5 78.9 32.2 79.2 C 32.1 79.3 32.0 79.4 31.9 79.5 C 31.9 79.6 31.9 79.6 31.8 79.6 C 31.5 80.0 31.2 80.3 30.9 80.6 C 30.6 80.9 30.3 81.2 30.0 81.5 C 30.0 81.5 30.0 81.5 30.0 81.5 C 29.9 81.6 29.8 81.6 29.8 81.7 C 29.6 81.9 29.4 82.1 29.2 82.3 C 29.0 82.4 28.9 82.5 28.8 82.6 C 28.6 82.7 28.5 82.9 28.3 83.0 C 28.2 83.1 28.2 83.1 28.2 83.2 C 28.1 83.2 28.0 83.2 28.0 83.3 C 27.8 83.5 27.6 83.6 27.3 83.8 C 27.2 83.9 27.2 83.9 27.1 84.0 C 26.8 84.2 26.6 84.3 26.3 84.5 C 26.3 84.5 26.2 84.5 26.2 84.6 C 26.2 84.6 26.2 84.6 26.2 84.6 C 26.1 84.6 26.1 84.6 26.1 84.7 C 25.9 84.8 25.7 84.9 25.5 85.0 C 25.5 85.0 25.4 85.0 25.3 85.1 C 25.2 85.2 25.0 85.2 24.9 85.3 C 24.8 85.3 24.7 85.4 24.7 85.4 C 24.5 85.5 24.3 85.6 24.2 85.6 C 24.1 85.6 24.1 85.7 24.0 85.7 C 24.0 85.7 24.0 85.7 24.0 85.7 C 23.8 85.8 23.6 85.8 23.4 85.9 C 23.4 85.9 23.4 85.9 23.3 85.9 C 23.2 86.0 23.0 86.0 22.8 86.0 C 22.8 86.0 22.7 86.0 22.6 86.1 C 22.5 86.1 22.4 86.1 22.3 86.1 C 22.2 86.1 22.1 86.1 22.1 86.1 C 21.9 86.1 21.8 86.1 21.7 86.1 C 21.7 86.1 21.6 86.1 21.5 86.1 C 21.4 86.1 21.3 86.1 21.2 86.1 C 21.1 86.1 21.1 86.1 21.0 86.1 C 20.9 86.1 20.8 86.0 20.7 86.0 C 20.6 86.0 20.6 86.0 20.5 86.0 C 20.3 85.9 20.2 85.9 20.0 85.8 L 20.0 85.8 L 17.1 84.5 L 13.6 83.1 C 13.6 83.1 13.6 83.1 13.6 83.2 C 13.7 83.4 13.7 83.6 13.7 83.9 C 13.8 84.2 13.8 84.6 13.9 84.9 C 13.9 84.9 13.9 84.9 13.9 85.0 C 14.0 85.3 14.0 85.6 14.1 86.0 C 14.1 86.0 14.2 86.1 14.2 86.2 C 14.3 86.5 14.4 86.8 14.5 87.1 C 14.5 87.2 14.5 87.3 14.6 87.3 C 14.7 87.6 14.7 87.8 14.8 88.0 C 14.9 88.1 14.9 88.2 15.0 88.2 C 15.1 88.4 15.2 88.6 15.3 88.8 C 15.3 88.9 15.4 88.9 15.4 89.0 C 15.5 89.2 15.7 89.5 15.9 89.7 C 15.9 89.7 15.9 89.7 16.0 89.8 C 16.1 89.9 16.2 90.1 16.4 90.2 C 16.4 90.3 16.5 90.3 16.6 90.4 C 16.7 90.5 16.8 90.6 17.0 90.7 C 17.0 90.7 17.1 90.8 17.2 90.8 C 17.4 90.9 17.6 91.0 17.8 91.1 L 5.7 86.0 C 5.5 85.9 5.3 85.8 5.1 85.7 C 5.1 85.6 5.0 85.6 4.9 85.5 C 4.8 85.4 4.7 85.3 4.5 85.2 C 4.5 85.2 4.4 85.1 4.4 85.1 C 4.2 84.9 4.1 84.8 3.9 84.6 C 3.9 84.6 3.9 84.6 3.8 84.5 C 3.7 84.3 3.5 84.1 3.4 83.9 C 3.3 83.8 3.3 83.7 3.3 83.7 C 3.1 83.5 3.0 83.3 2.9 83.1 C 2.9 83.0 2.9 82.9 2.8 82.8 C 2.7 82.6 2.6 82.4 2.5 82.2 C 2.5 82.1 2.5 82.0 2.5 82.0 C 2.4 81.9 2.4 81.9 2.4 81.9 C 2.3 81.6 2.2 81.3 2.2 81.0 C 2.1 81.0 2.1 80.9 2.1 80.8 C 2.0 80.5 1.9 80.2 1.9 79.8 C 1.9 79.8 1.9 79.8 1.9 79.8 C 1.8 79.5 1.8 79.2 1.7 78.9 C 1.7 78.9 1.7 78.8 1.7 78.7 C 1.7 78.5 1.6 78.3 1.6 78.0 C 1.6 77.8 1.5 77.6 1.5 77.3 C 1.5 77.1 1.5 76.8 1.5 76.6 C 1.5 76.4 1.4 76.3 1.4 76.1 C 1.4 76.0 1.4 75.9 1.4 75.8 C 1.4 75.6 1.4 75.4 1.4 75.2 C 1.4 74.9 1.4 74.6 1.4 74.3 C 1.4 74.1 1.4 73.8 1.4 73.6 C 1.4 73.5 1.4 73.3 1.4 73.2 C 1.4 73.0 1.4 72.8 1.5 72.6 C 1.5 72.4 1.5 72.2 1.5 72.0 C 1.5 71.6 1.5 71.2 1.6 70.8 C 1.6 70.6 1.6 70.5 1.6 70.3 C 1.6 70.2 1.6 70.2 1.6 70.1 C 1.7 69.6 1.7 69.0 1.8 68.5 C 1.8 68.4 1.8 68.4 1.8 68.3 C 1.9 67.8 1.9 67.3 2.0 66.8 C 2.0 66.7 2.1 66.6 2.1 66.4 C 2.2 65.8 2.3 65.3 2.4 64.7 C 2.4 64.5 2.4 64.3 2.5 64.1 C 2.5 63.8 2.6 63.5 2.6 63.2 C 2.7 63.1 2.7 63.0 2.7 62.9 C 2.8 62.6 2.8 62.2 2.9 61.9 C 3.0 61.6 3.0 61.3 3.1 61.0 C 3.2 60.6 3.3 60.2 3.3 59.9 C 3.4 59.6 3.5 59.4 3.5 59.2 C 3.5 59.1 3.5 59.0 3.6 59.0 C 3.7 58.4 3.9 57.7 4.0 57.1 C 4.1 57.0 4.1 56.9 4.1 56.8 C 4.3 56.1 4.5 55.3 4.7 54.6 C 4.7 54.6 4.7 54.5 4.7 54.5 C 4.8 54.4 4.8 54.3 4.8 54.2 C 5.1 53.3 5.3 52.5 5.6 51.6 C 5.6 51.5 5.7 51.3 5.8 51.1 C 6.1 50.2 6.4 49.2 6.7 48.3 C 6.7 48.2 6.7 48.2 6.8 48.1 C 6.8 47.9 6.9 47.8 6.9 47.6 C 7.1 47.0 7.3 46.5 7.5 45.9 C 7.6 45.7 7.7 45.4 7.8 45.1 C 8.0 44.5 8.3 43.9 8.5 43.3 C 8.6 43.1 8.6 42.9 8.7 42.7 C 9.0 42.0 9.3 41.2 9.7 40.4 C 9.7 40.2 9.8 40.0 9.9 39.9 C 10.1 39.2 10.4 38.6 10.7 38.0 C 10.8 37.8 10.9 37.5 11.0 37.3 C 11.2 36.7 11.5 36.2 11.7 35.6 C 11.8 35.4 11.9 35.1 12.1 34.9 C 12.4 34.2 12.7 33.4 13.1 32.7 C 13.1 32.7 13.1 32.6 13.1 32.6 C 13.5 31.8 13.9 31.1 14.2 30.4 C 14.4 30.1 14.5 29.9 14.6 29.7 C 14.9 29.2 15.1 28.6 15.4 28.1 C 15.5 28.0 15.5 27.8 15.6 27.7 C 15.7 27.6 15.7 27.5 15.8 27.4 C 16.2 26.6 16.7 25.7 17.2 24.9 C 17.2 24.8 17.3 24.6 17.4 24.5 C 17.8 23.7 18.3 23.0 18.7 22.2 C 18.8 22.1 18.8 22.0 18.9 21.9 C 18.9 21.9 19.0 21.8 19.0 21.7 C 19.3 21.2 19.7 20.7 20.0 20.1 C 20.1 20.0 20.1 19.9 20.2 19.8 C 20.6 19.2 21.0 18.6 21.4 18.0 C 21.4 17.9 21.4 17.9 21.5 17.9 C 21.6 17.7 21.7 17.5 21.9 17.3 C 22.1 17.0 22.3 16.7 22.5 16.4 C 22.7 16.1 22.8 15.9 23.0 15.7 C 23.2 15.4 23.4 15.1 23.6 14.8 C 23.7 14.7 23.7 14.7 23.8 14.6 C 23.9 14.4 24.1 14.2 24.2 14.0 C 24.4 13.8 24.5 13.6 24.7 13.4 C 24.9 13.1 25.1 12.8 25.3 12.6 C 25.5 12.4 25.6 12.2 25.8 12.0 C 25.8 11.9 25.9 11.9 25.9 11.8 C 26.1 11.6 26.3 11.4 26.4 11.2 C 26.6 11.0 26.7 10.8 26.9 10.7 C 27.1 10.4 27.3 10.1 27.6 9.9 C 27.7 9.7 27.8 9.6 27.9 9.4 C 28.0 9.4 28.0 9.4 28.0 9.4 C 28.3 9.0 28.7 8.6 29.0 8.3 C 29.4 7.9 29.7 7.6 30.0 7.3 C 30.1 7.3 30.1 7.2 30.1 7.2 C 30.2 7.2 30.3 7.1 30.3 7.0 C 30.6 6.8 30.8 6.5 31.1 6.3 C 31.2 6.2 31.3 6.1 31.4 6.0 C 31.6 5.8 31.8 5.7 32.0 5.5 C 32.1 5.4 32.1 5.4 32.2 5.4 C 32.3 5.3 32.3 5.3 32.4 5.2 C 32.6 5.0 32.9 4.8 33.1 4.6 C 33.2 4.6 33.3 4.5 33.5 4.4 C 33.7 4.2 34.0 4.0 34.3 3.8 C 34.3 3.8 34.4 3.8 34.4 3.7 C 34.4 3.7 34.4 3.7 34.5 3.7 C 34.5 3.7 34.5 3.7 34.6 3.6 C 34.8 3.5 35.0 3.4 35.2 3.3 C 35.3 3.2 35.4 3.2 35.5 3.1 C 35.6 3.0 35.8 3.0 36.0 2.9 C 36.0 2.8 36.1 2.8 36.2 2.8 C 36.4 2.7 36.6 2.6 36.8 2.5 C 36.8 2.5 36.9 2.5 36.9 2.5 C 36.9 2.5 36.9 2.5 36.9 2.5 C 37.2 2.4 37.4 2.3 37.6 2.2 C 37.7 2.2 37.7 2.2 37.7 2.2 C 37.9 2.1 38.1 2.1 38.3 2.1 C 38.4 2.1 38.4 2.0 38.5 2.0 " fill="#F38907"></path><path d="M 20.9 65.4 L 20.9 64.8 L 17.3 63.3 L 17.1 64.0 L 16.9 64.7 C 16.9 65.0 16.8 65.3 16.8 65.6 C 16.7 65.9 16.6 66.2 16.6 66.6 L 16.5 67.1 C 16.4 67.6 16.3 68.1 16.2 68.6 C 16.1 69.2 16.1 69.8 16.0 70.4 L 16.0 70.5 C 15.9 71.0 15.9 71.5 15.8 72.0 L 15.8 72.5 C 15.8 72.9 15.7 73.2 15.7 73.5 C 15.7 73.7 15.7 74.1 15.7 74.1 C 15.7 74.4 15.7 74.7 15.7 75.0 C 15.6 75.2 15.6 75.4 15.6 75.6 C 15.6 75.9 15.6 76.1 15.6 76.4 C 15.6 76.4 15.7 76.8 15.7 76.9 C 15.7 77.2 15.7 77.4 15.7 77.6 L 15.8 79.1 L 16.7 78.3 C 16.9 78.2 17.0 78.0 17.2 77.9 C 17.2 77.9 17.5 77.7 17.5 77.6 C 17.7 77.4 18.0 77.2 18.2 77.0 L 18.4 76.8 C 18.7 76.5 19.0 76.2 19.3 75.9 C 19.7 75.5 20.0 75.2 20.3 74.8 L 20.7 74.4 C 20.9 74.2 21.1 73.9 21.3 73.7 L 21.7 73.2 C 21.9 73.0 22.1 72.7 22.3 72.5 C 22.5 72.3 22.6 72.1 22.8 71.9 C 23.0 71.7 23.1 71.4 23.3 71.2 C 23.5 71.0 23.6 70.8 23.8 70.6 C 23.9 70.4 24.1 70.1 24.3 69.9 C 24.5 69.6 24.6 69.4 24.8 69.2 C 25.0 68.9 25.1 68.7 25.3 68.5 L 25.9 67.5 Z M 24.1 15.1 L 24.3 15.0 C 24.3 14.8 25.0 13.9 25.2 13.7 C 25.4 13.5 25.5 13.3 25.7 13.1 L 25.9 12.8 C 26.0 12.7 26.1 12.5 26.3 12.4 L 26.4 12.2 C 26.5 12.1 26.6 11.9 26.7 11.8 L 27.3 11.1 C 27.6 10.8 27.8 10.6 28.0 10.3 L 28.4 9.8 C 28.8 9.4 29.1 9.1 29.5 8.7 C 29.6 8.5 29.8 8.4 30.0 8.2 C 33.9 10.7 37.9 13.2 41.9 15.7 L 41.7 15.8 C 41.5 16.0 41.3 16.2 41.1 16.4 L 40.8 16.7 C 40.5 16.9 40.2 17.2 39.9 17.6 C 39.6 17.9 39.3 18.2 39.0 18.6 L 38.5 19.1 C 38.4 19.3 38.2 19.5 38.0 19.7 L 37.6 20.2 C 37.4 20.4 37.2 20.6 37.1 20.8 C 37.0 20.9 36.5 21.5 36.5 21.5 C 36.4 21.7 36.2 21.9 36.1 22.0 C 36.0 22.2 35.6 22.7 35.6 22.7 C 35.5 22.9 35.3 23.1 35.2 23.3 C 35.0 23.5 34.8 23.8 34.6 24.1 L 34.1 24.8 L 39.0 26.9 L 39.0 27.4 L 42.3 28.8 L 42.5 27.7 C 42.6 27.4 42.6 27.1 42.7 26.7 L 42.8 26.3 C 42.9 25.8 43.0 25.3 43.0 24.8 C 43.1 24.2 43.2 23.7 43.3 23.0 L 43.3 23.0 C 43.3 22.4 43.4 21.9 43.4 21.4 L 43.5 20.9 C 43.5 20.6 43.5 20.2 43.6 19.9 C 43.6 19.7 43.6 19.3 43.6 19.3 C 43.6 19.0 43.6 18.7 43.6 18.4 C 43.6 18.2 43.6 18.0 43.6 17.8 C 43.6 17.6 43.6 17.3 43.6 17.0 L 43.6 16.7 C 47.2 18.9 50.8 20.9 54.4 22.9 C 54.4 22.9 54.4 23.0 54.4 23.0 C 54.4 23.2 54.4 23.4 54.4 23.6 L 54.4 23.9 L 54.3 24.9 C 54.3 25.3 54.3 25.6 54.3 25.9 L 54.2 26.6 C 54.2 27.0 54.1 27.5 54.1 28.0 L 54.1 28.1 C 54.0 28.5 54.0 29.0 53.9 29.4 L 53.8 29.7 C 53.8 30.2 53.7 30.7 53.6 31.2 L 53.5 31.9 C 53.4 32.1 53.4 32.3 53.3 32.6 L 53.3 32.6 C 53.2 33.1 53.1 33.6 53.0 34.1 L 53.0 34.3 C 52.9 34.8 52.8 35.4 52.6 35.9 L 52.5 36.3 C 52.4 36.8 52.3 37.3 52.2 37.8 L 52.0 38.4 C 51.9 38.9 51.8 39.3 51.6 39.7 L 51.5 40.1 L 51.5 40.3 C 51.2 41.1 51.0 41.9 50.8 42.7 L 50.6 43.1 C 50.4 43.9 50.1 44.8 49.8 45.6 L 49.7 45.9 C 49.5 46.4 49.3 47.0 49.1 47.6 L 48.9 48.2 C 48.7 48.8 48.4 49.3 48.2 49.9 L 48.1 50.3 C 47.8 50.9 47.6 51.6 47.3 52.3 L 47.1 52.8 C 46.9 53.3 46.6 53.8 46.4 54.3 L 46.0 55.2 C 45.9 55.5 45.8 55.8 45.6 56.1 L 45.2 57.0 C 44.9 57.7 44.6 58.3 44.3 59.0 L 44.1 59.5 C 43.8 60.0 43.6 60.5 43.3 61.0 L 42.9 61.7 C 42.7 62.1 42.5 62.6 42.3 63.0 L 42.1 63.3 L 41.9 63.6 C 41.5 64.3 41.2 65.0 40.8 65.7 L 40.7 65.9 C 40.2 66.7 39.8 67.4 39.4 68.1 L 39.2 68.4 L 39.0 68.8 C 38.8 69.1 38.6 69.4 38.4 69.8 C 38.2 70.0 38.1 70.2 37.9 70.5 C 37.7 70.8 37.5 71.1 37.3 71.4 L 37.0 71.9 L 36.8 72.1 C 36.7 72.3 36.4 72.8 36.4 72.8 C 36.2 73.1 36.0 73.3 35.8 73.6 C 35.7 73.8 35.0 74.7 35.0 74.7 C 35.0 74.7 34.5 75.4 34.4 75.6 C 34.2 75.8 34.0 76.1 33.8 76.3 C 33.7 76.5 33.2 77.1 33.2 77.1 L 32.4 78.0 C 32.2 78.3 32.0 78.5 31.8 78.8 L 31.4 79.2 C 31.1 79.5 30.8 79.9 30.5 80.2 C 30.2 80.5 29.9 80.8 29.6 81.1 L 29.4 81.3 C 29.1 81.5 28.9 81.7 28.7 81.8 L 28.4 82.1 C 28.2 82.3 28.1 82.4 27.9 82.6 L 27.8 82.7 L 27.6 82.8 C 27.4 83.0 27.2 83.1 27.0 83.3 L 26.7 83.5 C 26.5 83.7 26.2 83.8 26.0 84.0 L 25.9 84.0 L 25.7 84.1 C 25.6 84.2 25.4 84.3 25.2 84.4 L 25.2 84.5 C 17.3 80.7 9.5 76.8 2.1 72.2 C 2.1 72.1 2.1 72.1 2.1 72.0 C 2.1 71.6 2.2 71.3 2.2 70.9 L 2.2 70.2 C 2.3 69.6 2.3 69.1 2.4 68.5 L 2.4 68.4 C 2.5 67.9 2.6 67.4 2.6 66.9 L 2.7 66.5 C 2.8 65.9 2.9 65.4 3.0 64.8 C 3.0 64.8 3.2 63.5 3.2 63.3 L 3.3 63.0 C 3.4 62.7 3.4 62.4 3.5 62.1 L 3.5 62.0 C 3.5 62.0 3.6 61.3 3.7 61.1 C 3.8 60.7 3.9 60.4 3.9 60.0 L 4.1 59.3 L 4.2 59.1 C 4.3 58.5 4.5 57.9 4.6 57.2 L 4.7 57.0 C 4.9 56.2 5.1 55.5 5.3 54.8 L 5.4 54.3 C 5.7 53.5 5.9 52.7 6.2 51.8 L 6.4 51.3 C 6.6 50.4 6.9 49.4 7.3 48.5 L 7.3 48.3 L 7.5 47.8 C 7.7 47.3 7.9 46.7 8.1 46.1 L 8.4 45.3 C 8.6 44.7 8.8 44.1 9.1 43.5 L 9.3 43.0 C 9.6 42.2 9.9 41.4 10.2 40.6 L 10.5 40.1 C 10.7 39.5 11.0 38.9 11.2 38.3 L 11.6 37.5 C 11.8 37.0 12.0 36.4 12.3 35.9 L 12.6 35.2 C 13.0 34.4 13.3 33.7 13.6 33.0 L 13.7 32.9 C 14.1 32.1 14.4 31.4 14.8 30.6 L 15.1 30.0 C 15.4 29.4 15.7 28.9 16.0 28.4 L 16.2 28.0 L 16.3 27.7 C 16.8 26.9 17.2 26.0 17.7 25.2 L 17.9 24.8 C 18.3 24.1 18.8 23.3 19.2 22.5 L 19.4 22.2 L 19.5 22.1 C 19.9 21.5 20.2 21.0 20.5 20.4 L 20.7 20.2 C 21.1 19.5 21.5 18.9 21.9 18.3 L 22.5 17.5 C 22.6 17.2 22.8 17.0 23.0 16.7 C 23.1 16.5 23.6 15.9 23.6 15.9 C 23.8 15.6 23.9 15.4 24.1 15.1 " fill="#DC7601"></path><path d="M 17.9 24.8 C 18.3 24.1 18.8 23.3 19.2 22.5 L 19.4 22.2 L 19.5 22.1 C 19.9 21.5 20.2 21.0 20.5 20.4 L 20.7 20.2 C 21.1 19.5 21.5 18.9 21.9 18.3 L 22.5 17.5 C 22.6 17.2 22.8 17.0 23.0 16.7 C 23.0 16.7 23.1 16.5 23.2 16.4 C 27.1 18.8 31.0 21.3 34.8 23.7 C 34.8 23.8 34.7 23.9 34.6 24.1 L 34.1 24.8 L 39.0 26.9 L 39.0 27.4 L 42.3 28.8 L 42.4 28.5 C 45.6 30.6 48.9 32.8 52.1 34.9 C 52.3 35.1 52.5 35.2 52.7 35.4 C 52.7 35.6 52.7 35.8 52.6 35.9 L 52.5 36.3 C 52.4 36.8 52.3 37.3 52.2 37.8 L 52.0 38.4 C 51.9 38.9 51.8 39.3 51.6 39.7 L 51.5 40.1 L 51.5 40.3 C 51.3 41.1 51.0 41.9 50.8 42.7 L 50.6 43.1 C 50.4 43.9 50.1 44.8 49.8 45.6 L 49.7 45.9 C 49.5 46.4 49.3 47.0 49.1 47.6 L 48.9 48.2 C 48.7 48.8 48.4 49.3 48.2 49.9 L 48.1 50.3 C 47.8 50.9 47.6 51.6 47.3 52.3 L 47.1 52.8 C 46.9 53.3 46.6 53.8 46.4 54.3 L 46.0 55.2 C 45.9 55.5 45.8 55.8 45.6 56.1 L 45.2 57.0 C 44.9 57.7 44.6 58.3 44.3 59.0 L 44.1 59.5 C 43.8 60.0 43.6 60.5 43.3 61.0 L 42.9 61.7 C 42.7 62.1 42.5 62.6 42.3 63.0 L 42.1 63.3 L 41.9 63.6 C 41.5 64.3 41.2 65.0 40.8 65.7 L 40.7 65.9 C 40.2 66.7 39.8 67.4 39.4 68.1 L 39.2 68.4 L 39.0 68.8 C 38.8 69.1 38.6 69.4 38.4 69.8 C 38.2 70.0 38.1 70.2 37.9 70.5 C 37.7 70.8 37.5 71.1 37.3 71.4 L 37.0 71.9 L 36.8 72.1 C 36.7 72.3 36.4 72.8 36.4 72.8 C 36.2 73.1 36.0 73.3 35.8 73.6 C 35.7 73.8 35.0 74.7 35.0 74.7 C 35.0 74.7 34.5 75.4 34.4 75.6 C 34.2 75.8 34.0 76.1 33.8 76.3 C 33.7 76.5 33.2 77.1 33.2 77.1 L 32.6 77.8 C 29.2 76.0 25.8 74.2 22.5 72.2 C 22.6 72.1 22.7 72.0 22.8 71.9 C 23.0 71.7 23.1 71.4 23.3 71.2 C 23.5 71.0 23.6 70.8 23.8 70.6 C 23.9 70.4 24.1 70.1 24.3 69.9 C 24.5 69.6 24.6 69.4 24.8 69.2 C 25.0 68.9 25.1 68.7 25.3 68.5 L 25.9 67.5 L 20.9 65.4 L 20.9 64.8 L 17.3 63.3 L 17.1 64.0 L 16.9 64.7 C 16.9 65.0 16.8 65.3 16.8 65.6 C 16.7 65.9 16.6 66.2 16.6 66.6 L 16.5 67.1 C 16.4 67.5 16.4 67.8 16.3 68.2 C 12.1 65.4 8.0 62.3 4.2 58.9 C 4.3 58.4 4.5 57.8 4.6 57.2 L 4.7 57.0 C 4.9 56.2 5.1 55.5 5.3 54.8 L 5.4 54.3 C 5.7 53.5 5.9 52.7 6.2 51.8 L 6.4 51.3 C 6.6 50.4 6.9 49.4 7.3 48.5 L 7.3 48.3 L 7.5 47.8 C 7.7 47.3 7.9 46.7 8.1 46.1 L 8.4 45.3 C 8.6 44.7 8.8 44.1 9.1 43.5 L 9.3 43.0 C 9.6 42.2 9.9 41.4 10.2 40.6 L 10.5 40.1 C 10.7 39.5 11.0 38.9 11.2 38.3 L 11.6 37.5 C 11.8 37.0 12.0 36.4 12.3 35.9 L 12.6 35.2 C 12.9 34.4 13.3 33.7 13.6 33.0 L 13.7 32.9 C 14.1 32.1 14.4 31.4 14.8 30.6 L 15.1 30.0 C 15.4 29.4 15.7 28.9 15.9 28.4 L 16.2 28.0 L 16.3 27.7 C 16.8 26.9 17.2 26.0 17.7 25.2 Z M 17.9 24.8 " fill="#D66800"></path><path d="M 39.2 30.4 C 42.7 27.2 45.0 27.7 44.1 33.7 C 42.4 45.1 33.4 53.9 32.4 60.0 C 32.1 62.2 33.0 62.3 34.6 60.7 C 36.0 59.3 36.9 58.0 37.6 56.5 C 37.7 56.2 37.7 55.9 37.8 55.8 L 38.2 53.1 L 40.4 50.6 L 39.7 57.9 C 38.1 60.0 36.4 62.3 34.8 64.1 L 34.2 68.7 L 32.2 70.9 L 32.8 66.3 C 29.1 70.0 26.8 69.8 27.7 64.1 C 29.5 52.2 38.4 43.9 39.4 37.1 C 39.8 34.6 38.7 34.9 37.2 36.4 C 35.0 38.7 33.7 41.0 33.5 41.4 C 33.2 42.4 33.0 43.4 33.0 43.5 C 32.9 44.1 32.6 45.7 32.6 45.8 L 30.4 48.3 L 31.2 40.7 C 31.3 40.5 33.7 36.5 37.2 32.5 L 37.7 28.7 L 39.7 26.5 L 39.2 30.4 M 30.9 80.6 C 41.3 69.8 51.8 47.1 54.4 29.8 C 57.1 12.5 50.7 7.2 40.4 18.0 C 30.0 28.7 19.5 51.4 16.8 68.7 C 14.2 86.0 20.5 91.3 30.9 80.6 " fill="#FFE679"></path><path d="M 40.8 43.7 C 42.3 40.6 43.6 37.3 44.1 33.7 C 45.0 27.7 42.7 27.2 39.2 30.4 L 39.7 26.5 L 37.7 28.7 L 37.2 32.5 C 33.7 36.5 31.3 40.5 31.2 40.7 L 30.4 48.3 L 32.6 45.8 C 32.6 45.7 32.9 44.1 33.0 43.5 C 33.0 43.4 33.2 42.4 33.5 41.4 C 33.7 41.0 34.9 38.7 37.2 36.4 C 38.7 34.9 39.8 34.6 39.4 37.1 C 38.5 43.1 31.3 50.5 28.5 60.4 C 24.0 67.3 20.1 74.6 17.1 82.2 C 16.1 79.3 15.9 74.7 16.8 68.7 C 19.5 51.4 30.0 28.7 40.4 18.0 C 50.4 7.6 56.6 12.2 54.7 28.1 C 49.9 33.1 45.2 38.3 40.8 43.7 " fill="#FFD93A"></path><path d="M 40.4 18.0 C 50.8 7.2 57.1 12.5 54.4 29.8 C 51.8 47.1 41.3 69.8 30.9 80.6 C 20.5 91.3 14.2 86.0 16.8 68.7 C 19.5 51.4 30.0 28.7 40.4 18.0 M 30.2 85.1 C 42.1 72.8 54.2 46.8 57.2 27.0 C 60.2 7.2 52.9 1.1 41.1 13.4 C 29.2 25.7 17.1 51.8 14.1 71.6 C 11.1 91.4 18.3 97.4 30.2 85.1 " fill="#FFF1B4"></path><path d="M 55.6 25.5 C 56.0 19.2 55.0 14.9 52.7 12.9 C 51.3 11.8 49.4 11.5 47.4 12.2 C 45.1 12.9 42.6 14.7 39.9 17.6 C 29.5 28.4 18.9 51.3 16.2 68.6 C 15.0 76.7 15.7 82.6 18.2 85.2 C 17.6 86.6 17.1 88.0 16.5 89.5 C 14.1 86.8 13.4 80.4 14.7 71.7 C 17.7 52.0 29.7 26.1 41.5 13.9 C 44.5 10.8 47.1 8.8 49.5 8.1 C 51.4 7.4 53.1 7.6 54.3 8.6 C 56.8 10.8 57.7 16.2 57.0 23.9 C 56.5 24.4 56.0 24.9 55.6 25.5 " fill="#FCDE53"></path><path d="M 32.2 70.9 L 34.2 68.7 L 34.8 64.1 C 36.4 62.3 38.1 60.0 39.7 57.9 L 40.4 50.6 L 38.2 53.1 L 37.8 55.8 C 37.7 55.9 37.7 56.2 37.6 56.5 C 36.9 58.0 36.0 59.3 34.6 60.7 C 33.0 62.3 32.1 62.2 32.4 60.0 C 33.4 53.9 42.4 45.1 44.1 33.7 C 45.0 27.7 42.7 27.2 39.2 30.4 L 39.7 26.5 L 37.7 28.7 L 37.2 32.5 C 33.7 36.5 31.3 40.5 31.2 40.7 L 30.4 48.3 L 32.6 45.8 C 32.6 45.7 32.9 44.1 33.0 43.5 C 33.0 43.4 33.2 42.4 33.5 41.4 C 33.7 41.0 35.0 38.7 37.2 36.4 C 38.7 34.9 39.8 34.6 39.4 37.1 C 38.4 43.9 29.5 52.2 27.7 64.1 C 26.8 69.8 29.1 70.0 32.8 66.3 Z M 32.2 70.9 " fill="#FFF3A9"></path><path d="M 36.4 50.2 C 34.5 52.0 32.6 53.8 30.9 55.7 C 32.2 52.6 33.9 49.8 35.5 47.2 C 37.7 43.4 39.6 40.2 40.0 37.2 C 40.2 36.0 40.1 35.3 39.6 34.9 C 39.5 34.7 39.1 34.5 38.5 34.7 C 38.0 34.9 37.4 35.3 36.8 36.0 C 34.2 38.6 33.0 41.1 32.9 41.1 L 32.9 41.2 L 32.9 41.2 C 32.7 42.0 32.4 43.1 32.4 43.5 C 32.3 43.9 32.2 44.9 32.1 45.6 L 31.2 46.5 L 31.8 40.9 C 32.2 40.2 34.5 36.5 37.6 32.9 L 37.8 32.8 L 38.3 29.0 L 38.8 28.4 L 38.4 32.0 L 39.6 30.9 C 40.6 30.0 41.4 29.4 42.1 29.2 C 42.8 28.9 43.1 29.1 43.1 29.2 C 43.4 29.4 44.0 30.3 43.5 33.6 C 42.6 39.9 39.3 45.4 36.4 50.2 " fill="#FFE061"></path><path d="M 37.0 31.9 C 33.5 35.9 31.1 40.0 31.0 40.2 L 30.5 45.4 L 29.3 46.8 L 30.0 39.2 C 30.1 39.0 32.5 34.9 36.0 31.0 L 36.5 27.2 L 38.5 25.0 L 38.2 27.3 L 37.5 28.2 Z M 37.0 31.9 " fill="#BE5D00"></path><path d="M 32.2 70.9 L 31.0 69.3 L 31.4 66.9 C 31.8 66.6 32.2 66.2 32.6 65.7 Z M 32.2 70.9 " fill="#BE5D00"></path><path d="M 29.7 79.0 C 40.1 68.3 50.7 45.6 53.3 28.3 C 54.4 20.6 53.8 15.2 51.9 12.7 C 54.6 14.7 55.6 20.4 54.3 29.3 C 51.6 46.5 41.1 69.3 30.7 80.0 C 25.0 85.9 20.5 87.0 18.1 83.8 C 20.6 85.7 24.7 84.3 29.7 79.0 " fill="#BE5D00"></path><path d="M 26.5 62.5 C 28.3 50.6 37.2 42.3 38.3 35.6 C 38.3 35.3 38.3 35.0 38.3 34.8 C 39.1 34.5 39.5 34.9 39.2 36.5 C 38.2 43.3 29.3 51.6 27.5 63.5 C 27.2 65.2 27.3 66.4 27.5 67.2 C 26.5 67.0 26.1 65.5 26.5 62.5 " fill="#BE5D00"></path><path d="M 42.9 27.9 C 41.9 27.7 40.6 28.4 39.0 29.8 L 39.2 27.8 C 41.0 26.6 42.3 26.5 42.9 27.9 " fill="#BE5D00"></path><path d="M 37.6 55.2 C 37.5 55.3 37.5 55.6 37.4 55.9 C 36.7 57.4 35.8 58.7 34.4 60.1 C 33.0 61.5 32.2 61.6 32.2 60.1 C 32.5 60.0 33.0 59.7 33.4 59.2 C 34.8 57.7 35.7 56.5 36.4 54.9 C 36.5 54.6 36.6 54.4 36.6 54.3 L 37.0 51.5 L 39.3 49.0 L 40.4 50.6 L 38.0 52.5 Z M 37.6 55.2 " fill="#BE5D00"></path></g></g></g></svg>