<?xml version="1.0" encoding="UTF-8"?><svg xmlns="http://www.w3.org/2000/svg" xmlns:xlink="http://www.w3.org/1999/xlink" clip-rule="evenodd" stroke-miterlimit="4.00" viewBox="0 0 176 175"><desc>SVG generated by Keynote</desc><defs></defs><g transform="matrix(1.00, 0.00, -0.00, -1.00, 0.0, 175.0)"><g><clipPath id="clip-377"><path d="M 174.0 93.0 L 93.3 173.8 L 1.9 82.4 L 82.7 1.7 Z M 174.0 93.0 "></path></clipPath><g clip-path="url(#clip-377)"><g><clipPath id="clip-378"><path d="M 82.7 1.7 L 1.9 82.4 L 93.3 173.8 L 174.0 93.0 Z M 82.7 1.7 "></path></clipPath><g clip-path="url(#clip-378)"><path d="M 119.6 120.1 C 119.8 119.4 120.0 118.6 120.3 117.9 C 120.3 117.6 120.4 117.4 120.5 117.1 C 120.6 116.6 120.7 116.1 120.9 115.6 C 120.9 115.3 121.0 115.0 121.1 114.7 C 121.2 114.2 121.3 113.7 121.4 113.2 C 121.5 112.9 121.5 112.6 121.6 112.3 C 121.7 111.8 121.8 111.2 121.8 110.7 C 121.9 110.4 121.9 110.2 122.0 109.9 C 122.1 109.1 122.2 108.3 122.3 107.5 C 122.3 107.4 122.3 107.4 122.3 107.3 C 122.4 106.6 122.4 105.8 122.5 105.1 C 122.5 104.8 122.5 104.6 122.5 104.3 C 122.5 104.2 122.5 104.2 122.5 104.1 L 121.1 109.0 L 121.1 109.0 L 112.2 111.6 C 110.9 112.9 109.4 113.8 107.9 114.2 L 94.4 118.1 C 94.4 118.1 94.4 118.1 94.4 118.1 L 94.4 118.1 L 94.4 118.1 C 94.2 118.1 94.1 118.2 94.0 118.2 C 94.0 118.2 93.9 118.2 93.8 118.2 C 93.8 118.3 93.7 118.3 93.7 118.3 C 93.5 118.3 93.3 118.3 93.1 118.4 C 92.5 118.4 92.0 118.4 91.4 118.4 C 90.9 118.3 90.4 118.3 89.9 118.1 C 89.8 118.1 89.7 118.1 89.6 118.0 C 89.5 118.0 89.4 118.0 89.3 118.0 C 89.3 118.0 89.3 117.9 89.3 117.9 C 88.7 117.7 88.1 117.5 87.5 117.2 C 87.3 117.0 87.0 116.9 86.7 116.7 C 86.2 116.4 85.6 116.0 85.1 115.6 C 84.9 115.4 84.6 115.2 84.4 115.0 C 84.4 115.0 84.3 114.9 84.2 114.8 C 84.1 114.7 83.9 114.6 83.8 114.5 C 83.7 114.4 83.6 114.3 83.6 114.2 C 83.4 114.1 83.3 114.0 83.2 113.9 C 83.1 113.8 83.0 113.7 83.0 113.6 C 82.9 113.5 82.7 113.4 82.6 113.3 C 82.6 113.3 82.6 113.2 82.6 113.2 C 82.5 113.2 82.5 113.1 82.5 113.1 C 82.2 112.8 81.9 112.5 81.7 112.2 C 81.7 112.1 81.7 112.1 81.6 112.1 C 81.4 111.8 81.2 111.4 80.9 111.1 C 80.9 111.1 80.9 111.0 80.9 111.0 C 80.6 110.7 80.4 110.3 80.2 110.0 C 80.2 109.9 80.2 109.9 80.1 109.8 C 79.9 109.5 79.7 109.1 79.6 108.8 C 79.5 108.7 79.5 108.7 79.5 108.6 C 79.3 108.3 79.1 107.9 79.0 107.6 C 79.0 107.5 78.9 107.5 78.9 107.4 C 78.7 107.0 78.6 106.7 78.5 106.3 C 78.4 106.3 78.4 106.3 78.4 106.3 C 78.4 106.0 78.3 105.8 78.2 105.6 L 78.2 105.6 L 78.2 105.6 C 78.2 105.5 78.1 105.4 78.1 105.3 C 78.0 105.1 78.0 105.0 78.0 104.8 C 77.9 104.6 77.8 104.3 77.7 104.0 C 77.7 103.9 77.6 103.8 77.6 103.7 C 77.5 103.3 77.4 103.0 77.4 102.7 C 77.3 102.6 77.3 102.5 77.3 102.5 C 77.2 102.1 77.1 101.7 77.0 101.3 C 77.0 101.1 77.0 101.0 77.0 100.9 C 76.9 100.6 76.9 100.3 76.8 100.0 C 76.8 99.9 76.8 99.8 76.7 99.6 C 76.7 99.3 76.7 99.1 76.6 98.8 C 76.6 98.7 76.6 98.5 76.6 98.4 C 76.5 98.1 76.5 97.8 76.5 97.6 C 76.4 97.4 76.4 97.3 76.4 97.1 C 76.4 96.8 76.3 96.5 76.3 96.2 C 76.3 96.1 76.3 96.0 76.3 95.9 C 76.2 95.5 76.2 95.1 76.2 94.7 L 76.2 94.6 L 67.3 97.2 L 57.4 90.6 C 57.9 86.5 58.6 81.8 59.5 77.6 L 53.7 73.4 L 55.1 68.4 L 65.1 65.5 C 65.2 65.4 65.3 65.2 65.4 65.1 C 65.5 65.1 65.5 65.1 65.5 65.0 C 65.9 64.7 66.2 64.4 66.6 64.2 C 66.6 64.2 66.6 64.1 66.6 64.1 C 66.8 64.0 66.9 63.9 67.1 63.8 C 67.1 63.8 67.2 63.8 67.2 63.7 C 67.4 63.6 67.5 63.6 67.7 63.5 C 67.7 63.5 67.8 63.4 67.8 63.4 C 68.0 63.3 68.2 63.2 68.4 63.1 C 68.4 63.1 68.4 63.1 68.4 63.1 C 68.6 63.1 68.8 63.0 68.9 63.0 C 69.0 62.9 69.0 62.9 69.1 62.9 L 69.1 62.9 L 78.9 60.1 L 82.6 59.0 L 82.6 59.0 C 85.1 58.3 87.9 59.0 90.8 61.3 C 91.1 61.5 91.3 61.7 91.6 61.9 C 91.6 62.0 91.7 62.0 91.8 62.1 C 91.9 62.2 92.1 62.4 92.2 62.5 C 92.3 62.6 92.4 62.7 92.5 62.8 C 92.6 62.9 92.7 63.0 92.9 63.1 C 92.9 63.2 93.0 63.3 93.1 63.4 C 93.2 63.5 93.3 63.6 93.5 63.8 C 93.5 63.8 93.5 63.8 93.6 63.9 C 93.6 63.9 93.6 63.9 93.6 64.0 C 93.9 64.3 94.2 64.6 94.4 64.9 C 94.5 65.0 94.5 65.0 94.5 65.1 C 94.8 65.4 95.1 65.8 95.3 66.1 L 95.3 66.1 C 95.5 66.5 95.8 66.8 96.0 67.2 C 96.0 67.2 96.0 67.3 96.1 67.3 C 96.3 67.6 96.5 68.0 96.6 68.3 C 96.7 68.4 96.7 68.5 96.7 68.5 C 96.9 68.9 97.1 69.2 97.2 69.6 C 97.3 69.6 97.3 69.7 97.3 69.8 C 97.5 70.1 97.6 70.5 97.8 70.9 C 97.8 70.9 97.8 70.9 97.8 71.0 C 98.0 71.3 98.1 71.7 98.2 72.1 C 98.2 72.1 98.2 72.1 98.2 72.2 C 98.4 72.5 98.5 72.9 98.6 73.3 C 98.6 73.4 98.6 73.4 98.6 73.5 C 98.7 73.9 98.8 74.2 98.9 74.6 C 98.9 74.7 99.0 74.7 99.0 74.8 C 99.1 75.2 99.2 75.5 99.2 75.9 C 99.2 76.0 99.3 76.0 99.3 76.1 C 99.3 76.5 99.4 76.9 99.5 77.3 C 99.5 77.3 99.5 77.3 99.5 77.3 C 99.6 77.7 99.6 78.1 99.7 78.5 C 99.7 78.5 99.7 78.6 99.7 78.6 C 99.8 79.0 99.8 79.4 99.9 79.8 C 99.9 79.8 99.9 79.9 99.9 80.0 C 99.9 80.0 99.9 80.0 99.9 80.0 L 109.3 77.3 L 119.5 84.0 C 119.5 84.0 119.5 84.1 119.5 84.1 C 119.5 84.2 119.5 84.2 119.5 84.2 C 119.5 84.3 119.5 84.3 119.5 84.4 C 119.5 84.5 119.6 84.5 119.6 84.6 C 119.6 84.7 119.6 84.7 119.6 84.9 C 119.6 84.9 119.6 85.0 119.6 85.1 C 119.6 85.2 119.6 85.3 119.6 85.4 C 119.6 85.5 119.6 85.6 119.6 85.7 C 119.6 85.8 119.6 85.9 119.6 86.1 C 119.6 86.2 119.6 86.3 119.6 86.4 C 119.6 86.6 119.6 86.7 119.6 86.9 C 119.6 87.0 119.6 87.1 119.6 87.3 C 119.6 87.4 119.6 87.6 119.6 87.8 C 119.6 87.9 119.6 88.1 119.6 88.2 C 119.6 88.4 119.6 88.6 119.6 88.8 C 119.6 89.0 119.6 89.1 119.5 89.3 C 119.5 89.5 119.5 89.7 119.5 89.9 C 119.5 90.1 119.5 90.3 119.5 90.5 C 119.5 90.7 119.4 90.9 119.4 91.1 C 119.4 91.3 119.4 91.5 119.4 91.7 C 119.3 91.9 119.3 92.2 119.3 92.4 C 119.3 92.6 119.2 92.8 119.2 93.0 C 119.2 93.3 119.1 93.5 119.1 93.8 C 119.1 94.0 119.0 94.2 119.0 94.4 C 119.0 94.7 118.9 94.9 118.9 95.2 C 118.9 95.4 118.8 95.7 118.8 95.9 C 118.7 96.2 118.7 96.4 118.6 96.7 C 118.6 96.9 118.5 97.2 118.5 97.4 C 118.4 97.7 118.3 98.0 118.3 98.3 C 118.2 98.5 118.2 98.8 118.1 99.0 C 118.1 99.1 118.0 99.3 118.0 99.4 C 117.9 99.7 117.9 100.0 117.8 100.4 C 117.8 100.4 117.8 100.4 117.8 100.4 L 117.8 100.4 L 122.5 103.9 C 122.6 103.5 122.6 103.0 122.6 102.6 C 122.6 102.3 122.6 102.0 122.6 101.7 C 122.6 101.2 122.6 100.6 122.6 100.1 C 122.6 99.8 122.6 99.5 122.6 99.2 C 122.6 98.6 122.6 98.0 122.6 97.4 C 122.6 97.2 122.6 97.0 122.6 96.7 C 122.5 95.9 122.5 95.1 122.4 94.2 C 122.4 94.1 122.4 94.0 122.4 93.9 C 122.3 93.2 122.2 92.4 122.1 91.7 C 122.1 91.5 122.1 91.2 122.0 90.9 C 122.0 90.3 121.9 89.8 121.8 89.2 C 121.8 88.9 121.7 88.6 121.7 88.3 C 121.6 87.8 121.5 87.2 121.4 86.7 C 121.3 86.4 121.3 86.1 121.2 85.8 C 121.1 85.2 121.0 84.6 120.9 84.0 C 120.8 83.8 120.8 83.5 120.7 83.3 C 120.5 82.5 120.3 81.7 120.1 80.9 C 120.1 80.7 120.0 80.6 120.0 80.4 C 119.8 79.7 119.7 79.1 119.5 78.4 C 119.4 78.1 119.3 77.9 119.2 77.6 C 119.0 77.1 118.9 76.5 118.7 76.0 C 118.6 75.7 118.5 75.4 118.4 75.1 C 118.2 74.6 118.1 74.1 117.9 73.5 C 117.8 73.3 117.7 73.0 117.6 72.7 C 117.3 72.1 117.1 71.5 116.9 70.9 C 116.8 70.7 116.7 70.5 116.6 70.3 C 116.3 69.6 116.0 68.8 115.7 68.0 C 115.6 67.9 115.5 67.7 115.4 67.5 C 115.2 66.9 114.9 66.3 114.6 65.8 C 114.5 65.5 114.3 65.2 114.2 65.0 C 114.0 64.5 113.7 64.0 113.5 63.5 C 113.3 63.2 113.2 63.0 113.0 62.7 C 112.8 62.2 112.5 61.7 112.2 61.3 C 112.1 61.0 111.9 60.8 111.8 60.5 C 111.5 60.0 111.1 59.4 110.8 58.9 C 110.7 58.7 110.6 58.6 110.5 58.4 C 110.1 57.7 109.6 57.0 109.1 56.3 C 109.0 56.2 108.9 56.0 108.8 55.8 C 108.4 55.3 108.1 54.8 107.7 54.3 C 107.6 54.1 107.4 53.9 107.2 53.6 C 106.9 53.2 106.6 52.8 106.2 52.4 C 106.0 52.2 105.9 51.9 105.7 51.7 C 105.3 51.3 105.0 50.9 104.6 50.5 C 104.4 50.3 104.3 50.0 104.1 49.8 C 103.8 49.5 103.4 49.1 103.1 48.7 C 102.8 48.5 102.6 48.2 102.4 48.0 C 102.0 47.6 101.6 47.2 101.3 46.9 C 101.1 46.7 100.8 46.4 100.6 46.2 C 100.2 45.8 99.8 45.4 99.4 45.1 C 99.2 44.9 99.0 44.7 98.7 44.5 C 98.1 44.0 97.5 43.4 96.8 42.9 C 93.6 40.3 90.2 38.3 86.9 36.8 C 85.5 36.3 84.2 35.8 82.9 35.3 C 80.9 34.7 78.9 34.3 76.9 34.1 C 75.4 33.9 73.9 33.9 72.5 33.9 C 72.5 33.9 72.4 33.9 72.4 33.9 C 72.3 34.0 72.2 34.1 72.1 34.1 C 71.8 34.3 71.6 34.4 71.3 34.6 C 71.3 34.6 71.2 34.7 71.1 34.7 C 70.8 34.9 70.5 35.2 70.2 35.4 C 70.1 35.4 70.0 35.5 70.0 35.5 C 69.7 35.7 69.4 35.9 69.2 36.1 C 69.1 36.2 69.0 36.3 68.9 36.4 C 68.6 36.6 68.3 36.8 68.1 37.0 C 68.0 37.1 68.0 37.1 67.9 37.2 C 67.6 37.4 67.3 37.7 67.0 38.0 C 66.9 38.1 66.8 38.2 66.7 38.2 C 66.5 38.5 66.3 38.7 66.1 38.9 C 66.0 39.0 65.9 39.1 65.8 39.2 C 65.5 39.5 65.2 39.8 64.9 40.1 C 64.9 40.1 64.9 40.1 64.9 40.1 C 64.6 40.5 64.3 40.8 64.1 41.1 C 64.0 41.2 63.9 41.3 63.8 41.4 C 63.6 41.7 63.4 42.0 63.2 42.2 C 63.1 42.3 63.0 42.4 63.0 42.5 C 62.7 42.9 62.4 43.2 62.2 43.6 C 62.1 43.6 62.1 43.7 62.1 43.8 C 61.8 44.1 61.6 44.4 61.4 44.7 C 61.3 44.9 61.3 45.0 61.2 45.1 C 61.0 45.4 60.8 45.7 60.6 46.0 C 60.5 46.1 60.5 46.2 60.4 46.3 C 60.2 46.7 60.0 47.1 59.7 47.5 C 59.7 47.6 59.6 47.7 59.6 47.8 C 59.4 48.2 59.2 48.5 59.1 48.8 C 59.0 49.0 58.9 49.1 58.9 49.2 C 58.7 49.6 58.5 50.0 58.3 50.4 C 58.3 50.4 58.3 50.5 58.2 50.6 C 58.0 51.0 57.8 51.5 57.6 51.9 C 57.6 52.1 57.5 52.2 57.5 52.3 C 57.3 52.7 57.2 53.0 57.1 53.4 C 57.0 53.6 57.0 53.7 56.9 53.8 C 56.7 54.3 56.6 54.8 56.4 55.3 C 56.2 56.0 56.0 56.6 55.8 57.3 C 55.7 57.5 55.6 57.7 55.6 58.0 C 55.5 58.4 55.3 58.8 55.2 59.3 C 55.1 59.6 55.1 59.8 55.0 60.1 C 54.9 60.5 54.8 60.9 54.7 61.3 C 54.7 61.6 54.6 61.9 54.6 62.2 C 54.5 62.6 54.4 63.0 54.3 63.4 C 54.3 63.7 54.2 64.0 54.2 64.3 C 54.1 64.7 54.1 65.1 54.0 65.5 C 54.0 65.8 53.9 66.1 53.9 66.4 C 53.8 66.8 53.8 67.2 53.7 67.6 C 53.7 67.9 53.7 68.2 53.6 68.6 C 53.6 68.9 53.6 69.3 53.5 69.7 C 53.5 70.0 53.5 70.4 53.5 70.7 C 53.4 71.1 53.4 71.5 53.4 71.9 C 53.4 72.2 53.4 72.5 53.4 72.9 C 53.3 73.2 53.3 73.6 53.3 74.0 C 53.3 74.3 53.3 74.7 53.3 75.0 C 53.3 75.4 53.3 75.8 53.3 76.2 C 53.3 76.5 53.3 76.9 53.3 77.2 C 53.4 77.6 53.4 78.0 53.4 78.4 C 53.4 78.7 53.4 79.0 53.4 79.4 C 53.5 79.8 53.5 80.2 53.5 80.5 C 53.5 80.9 53.6 81.2 53.6 81.5 C 53.6 81.9 53.7 82.3 53.7 82.7 C 53.7 83.1 53.8 83.4 53.8 83.7 C 53.9 84.1 53.9 84.5 54.0 84.9 C 54.0 85.3 54.0 85.6 54.1 85.9 C 54.1 86.3 54.2 86.7 54.3 87.1 C 54.3 87.4 54.4 87.8 54.4 88.1 C 54.5 88.7 54.7 89.4 54.8 90.0 C 54.8 90.1 54.8 90.2 54.8 90.3 C 55.0 90.9 55.1 91.5 55.2 92.0 C 55.3 92.2 55.3 92.4 55.3 92.6 C 55.5 93.1 55.6 93.7 55.7 94.2 C 55.8 94.3 55.8 94.5 55.8 94.6 C 56.0 95.3 56.2 95.9 56.4 96.6 C 56.4 96.7 56.4 96.9 56.5 97.0 C 56.6 97.5 56.8 98.0 57.0 98.6 C 57.0 98.7 57.1 98.9 57.1 99.1 C 57.3 99.7 57.5 100.3 57.7 100.8 C 57.7 100.9 57.7 101.0 57.8 101.1 C 58.0 101.7 58.2 102.3 58.5 103.0 C 58.5 103.1 58.6 103.3 58.7 103.5 C 58.8 104.0 59.0 104.4 59.2 104.9 C 59.3 105.1 59.4 105.3 59.4 105.4 C 59.7 106.1 60.0 106.7 60.2 107.3 C 60.3 107.4 60.3 107.4 60.3 107.5 C 60.6 108.0 60.8 108.6 61.1 109.1 C 61.2 109.3 61.3 109.5 61.3 109.7 C 61.6 110.1 61.8 110.6 62.0 111.1 C 62.1 111.2 62.2 111.3 62.3 111.5 C 62.6 112.1 62.9 112.7 63.2 113.2 C 63.3 113.4 63.3 113.5 63.4 113.6 C 63.7 114.1 63.9 114.5 64.2 115.0 C 64.3 115.2 64.4 115.3 64.5 115.5 C 64.8 116.0 65.1 116.5 65.4 117.0 C 65.4 117.0 65.5 117.1 65.5 117.2 C 65.9 117.8 66.3 118.3 66.6 118.9 C 66.7 119.0 66.8 119.1 66.9 119.3 C 67.2 119.7 67.5 120.1 67.8 120.5 C 67.9 120.7 68.0 120.8 68.1 121.0 C 68.5 121.5 68.9 122.0 69.3 122.5 C 69.3 122.6 69.4 122.6 69.4 122.6 C 69.8 123.1 70.1 123.6 70.5 124.1 C 70.6 124.2 70.8 124.3 70.9 124.5 C 71.2 124.9 71.5 125.3 71.9 125.6 C 72.0 125.7 72.1 125.9 72.2 126.0 C 72.7 126.5 73.1 127.0 73.6 127.5 C 73.7 127.6 73.8 127.8 74.0 127.9 C 74.4 128.3 74.9 128.8 75.3 129.2 C 75.4 129.3 75.5 129.4 75.5 129.4 C 76.0 129.9 76.6 130.4 77.1 130.8 C 77.2 130.9 77.3 131.1 77.5 131.2 C 78.0 131.6 78.6 132.1 79.1 132.5 C 83.6 136.1 88.3 138.6 92.9 140.1 C 93.0 140.1 93.0 140.1 93.1 140.1 C 94.1 140.4 95.2 140.7 96.2 140.9 C 96.5 141.0 96.8 141.0 97.1 141.1 C 97.3 141.1 97.4 141.1 97.6 141.2 C 98.1 141.2 98.6 141.3 99.0 141.4 C 99.4 141.4 99.7 141.4 100.0 141.5 C 100.3 141.5 100.7 141.5 101.0 141.5 C 101.4 141.6 101.8 141.6 102.2 141.6 C 102.5 141.6 102.7 141.6 102.9 141.6 C 103.1 141.6 103.3 141.6 103.5 141.6 C 110.5 137.5 116.2 130.2 119.6 120.1 M 104.6 103.0 L 94.5 105.9 C 94.2 105.9 94.0 106.0 93.7 106.0 C 93.7 106.0 93.7 106.0 93.8 106.1 C 94.0 106.4 94.2 106.8 94.4 107.1 C 94.4 107.1 94.4 107.2 94.5 107.2 C 94.7 107.5 94.9 107.9 95.2 108.2 C 95.2 108.2 95.2 108.2 95.2 108.3 C 95.5 108.6 95.7 108.9 96.0 109.2 C 96.1 109.3 96.1 109.3 96.2 109.4 C 96.3 109.5 96.4 109.6 96.5 109.7 C 96.6 109.8 96.7 109.9 96.7 110.0 C 96.9 110.1 97.0 110.2 97.1 110.3 C 97.2 110.4 97.3 110.5 97.3 110.6 C 97.5 110.7 97.6 110.8 97.7 110.9 C 97.8 111.0 97.9 111.1 98.0 111.1 C 98.2 111.3 98.4 111.5 98.6 111.7 C 99.2 112.1 99.7 112.5 100.2 112.8 C 100.3 112.9 100.5 113.0 100.6 113.0 C 101.3 111.9 102.0 110.7 102.6 109.3 L 102.6 109.3 L 108.7 107.5 L 104.2 104.3 C 104.3 103.8 104.4 103.4 104.6 103.0 M 74.5 68.7 L 74.5 68.7 L 68.5 70.4 L 73.1 73.8 C 73.0 74.0 73.0 74.2 72.9 74.4 L 82.4 71.7 C 82.4 71.7 82.5 71.7 82.5 71.7 C 82.6 71.7 82.7 71.7 82.7 71.6 C 82.8 71.6 82.8 71.6 82.8 71.6 C 82.7 71.5 82.6 71.3 82.5 71.2 C 82.5 71.2 82.5 71.1 82.4 71.1 C 82.2 70.7 82.0 70.4 81.8 70.0 C 81.8 70.0 81.8 70.0 81.8 70.0 C 81.5 69.6 81.3 69.3 81.0 69.0 C 81.0 68.9 80.9 68.9 80.9 68.8 C 80.6 68.5 80.4 68.2 80.1 67.9 C 80.0 67.8 80.0 67.7 79.9 67.7 C 79.8 67.5 79.7 67.4 79.6 67.3 C 79.5 67.2 79.4 67.1 79.3 67.0 C 79.2 66.9 79.1 66.8 78.9 66.6 C 78.9 66.6 78.8 66.5 78.7 66.4 C 78.5 66.3 78.4 66.1 78.2 66.0 C 78.2 65.9 78.1 65.9 78.0 65.8 C 77.8 65.6 77.6 65.4 77.3 65.2 C 77.0 65.0 76.7 64.8 76.4 64.6 C 76.3 64.8 76.2 64.9 76.1 65.1 C 76.1 65.2 76.0 65.3 76.0 65.3 C 75.8 65.8 75.5 66.3 75.3 66.8 C 75.2 66.9 75.2 67.0 75.2 67.0 C 75.0 67.6 74.7 68.1 74.5 68.7 M 87.3 145.4 C 86.7 145.4 86.1 145.3 85.5 145.3 C 85.2 145.2 84.9 145.2 84.6 145.1 C 84.3 145.1 83.9 145.0 83.5 145.0 C 83.3 144.9 83.2 144.9 83.0 144.9 C 77.2 143.7 71.3 140.9 65.6 136.4 C 65.0 136.0 64.5 135.5 63.9 135.1 C 63.8 134.9 63.7 134.8 63.6 134.7 C 63.0 134.3 62.5 133.8 62.0 133.3 C 61.9 133.2 61.9 133.2 61.8 133.1 C 61.3 132.7 60.9 132.2 60.4 131.8 C 60.3 131.6 60.2 131.5 60.1 131.4 C 59.6 130.9 59.1 130.4 58.6 129.9 C 58.6 129.8 58.6 129.8 58.6 129.8 C 58.5 129.7 58.4 129.6 58.3 129.5 C 58.0 129.1 57.7 128.8 57.4 128.4 C 57.2 128.2 57.1 128.1 57.0 127.9 C 56.6 127.5 56.2 127.0 55.8 126.5 C 55.8 126.5 55.8 126.5 55.8 126.4 C 55.4 125.9 55.0 125.4 54.6 124.9 C 54.5 124.7 54.4 124.6 54.3 124.4 C 54.0 124.0 53.7 123.6 53.4 123.2 C 53.3 123.0 53.2 122.9 53.1 122.7 C 52.7 122.2 52.4 121.7 52.0 121.1 C 52.0 121.0 51.9 120.9 51.9 120.9 C 51.6 120.4 51.3 119.9 51.0 119.4 C 50.9 119.2 50.8 119.1 50.7 118.9 C 50.4 118.4 50.1 118.0 49.9 117.5 C 49.8 117.4 49.7 117.3 49.7 117.1 C 49.3 116.6 49.0 116.0 48.7 115.4 C 48.6 115.2 48.6 115.1 48.5 115.0 C 48.3 114.5 48.0 114.0 47.8 113.5 C 47.7 113.4 47.6 113.2 47.5 113.0 C 47.3 112.5 47.0 111.9 46.8 111.4 C 46.8 111.3 46.7 111.2 46.7 111.2 C 46.4 110.6 46.2 109.9 45.9 109.3 C 45.8 109.2 45.8 109.0 45.7 108.8 C 45.5 108.3 45.3 107.9 45.1 107.4 C 45.1 107.2 45.0 107.0 44.9 106.8 C 44.7 106.2 44.5 105.6 44.2 104.9 C 44.2 104.9 44.2 104.8 44.2 104.7 C 44.0 104.2 43.8 103.6 43.6 103.0 C 43.5 102.8 43.5 102.6 43.4 102.4 C 43.3 101.9 43.1 101.4 43.0 100.9 C 42.9 100.8 42.9 100.6 42.8 100.5 C 42.6 99.8 42.5 99.2 42.3 98.5 C 42.3 98.4 42.2 98.2 42.2 98.1 C 42.1 97.6 41.9 97.0 41.8 96.5 C 41.8 96.3 41.7 96.1 41.7 95.9 C 41.5 95.4 41.4 94.8 41.3 94.2 C 41.3 94.1 41.3 94.0 41.2 93.9 C 41.1 93.4 41.0 92.8 40.9 92.2 C 40.9 92.1 40.9 92.1 40.9 92.0 C 40.8 91.7 40.8 91.3 40.7 91.0 C 40.7 90.6 40.6 90.2 40.6 89.8 C 40.5 89.5 40.5 89.1 40.4 88.8 C 40.4 88.4 40.3 88.0 40.3 87.6 C 40.2 87.3 40.2 87.0 40.2 86.6 C 40.1 86.2 40.1 85.8 40.1 85.4 C 40.0 85.1 40.0 84.8 40.0 84.4 C 39.9 84.0 39.9 83.7 39.9 83.3 C 39.9 82.9 39.9 82.6 39.8 82.3 C 39.8 81.9 39.8 81.5 39.8 81.1 C 39.8 80.7 39.8 80.4 39.8 80.1 C 39.8 79.7 39.8 79.3 39.8 78.9 C 39.8 78.6 39.8 78.2 39.8 77.9 C 39.8 77.5 39.8 77.1 39.8 76.7 C 39.8 76.4 39.8 76.1 39.9 75.8 C 39.9 75.4 39.9 75.0 39.9 74.6 C 39.9 74.3 40.0 73.9 40.0 73.6 C 40.0 73.2 40.1 72.8 40.1 72.4 C 40.1 72.1 40.2 71.8 40.2 71.5 C 40.2 71.1 40.3 70.7 40.3 70.3 C 40.4 70.0 40.4 69.7 40.5 69.4 C 40.5 69.0 40.6 68.6 40.6 68.2 C 40.7 67.9 40.7 67.6 40.8 67.3 C 40.9 66.9 41.0 66.5 41.0 66.1 C 41.1 65.8 41.1 65.5 41.2 65.2 C 41.3 64.8 41.4 64.4 41.5 64.0 C 41.5 63.8 41.6 63.5 41.7 63.3 C 41.7 63.2 41.7 63.2 41.7 63.2 C 41.8 62.7 41.9 62.3 42.0 61.8 C 42.1 61.6 42.2 61.4 42.2 61.2 C 42.4 60.5 42.6 59.9 42.8 59.2 C 43.0 58.7 43.2 58.2 43.4 57.7 C 43.4 57.6 43.5 57.4 43.5 57.3 C 43.7 56.9 43.8 56.6 44.0 56.2 C 44.0 56.1 44.1 56.0 44.1 55.8 C 44.3 55.4 44.5 54.9 44.7 54.5 C 44.7 54.4 44.8 54.3 44.8 54.3 C 45.0 53.9 45.1 53.5 45.3 53.1 C 45.4 53.0 45.5 52.9 45.5 52.7 C 45.7 52.4 45.9 52.0 46.1 51.7 C 46.1 51.6 46.2 51.5 46.2 51.4 C 46.4 51.0 46.7 50.6 46.9 50.2 C 47.0 50.1 47.0 50.0 47.1 49.9 C 47.3 49.6 47.4 49.3 47.6 49.0 C 47.7 48.9 47.8 48.7 47.9 48.6 C 48.1 48.3 48.3 48.0 48.5 47.6 C 48.6 47.6 48.6 47.5 48.6 47.5 C 48.9 47.1 49.2 46.8 49.4 46.4 C 49.5 46.3 49.6 46.2 49.6 46.1 C 49.9 45.8 50.1 45.6 50.3 45.3 C 50.4 45.2 50.4 45.1 50.5 45.0 C 50.8 44.7 51.1 44.4 51.4 44.0 C 51.4 44.0 51.4 44.0 51.4 44.0 C 51.7 43.7 52.0 43.4 52.3 43.1 C 52.3 43.0 52.4 42.9 52.5 42.8 C 52.7 42.6 53.0 42.4 53.2 42.1 C 53.3 42.1 53.4 42.0 53.5 41.9 C 53.8 41.6 54.1 41.3 54.4 41.1 C 54.4 41.0 54.5 41.0 54.5 40.9 C 54.8 40.7 55.1 40.5 55.4 40.3 C 55.4 40.2 55.5 40.1 55.6 40.0 C 55.9 39.8 56.2 39.6 56.4 39.4 C 56.5 39.4 56.5 39.4 56.6 39.3 C 56.6 39.3 56.6 39.3 56.6 39.3 C 57.0 39.1 57.3 38.8 57.6 38.6 C 57.7 38.6 57.7 38.5 57.8 38.5 C 58.1 38.3 58.3 38.2 58.6 38.0 C 58.7 37.9 58.8 37.9 58.9 37.8 C 59.1 37.7 59.3 37.6 59.6 37.4 C 59.7 37.4 59.8 37.3 59.9 37.2 C 60.2 37.1 60.5 37.0 60.7 36.8 C 60.8 36.8 60.9 36.8 60.9 36.7 C 61.3 36.6 61.6 36.4 61.9 36.3 C 62.0 36.2 62.1 36.2 62.2 36.1 C 62.5 36.0 62.7 35.9 63.0 35.8 C 63.1 35.8 63.2 35.7 63.3 35.7 C 63.6 35.6 63.8 35.5 64.1 35.4 C 64.2 35.4 64.3 35.3 64.4 35.3 C 64.8 35.2 65.1 35.1 65.5 35.0 L 65.5 35.0 L 65.5 35.0 L 65.5 35.0 L 72.9 32.8 L 79.0 31.1 L 79.0 31.1 L 79.0 31.1 L 79.0 31.1 L 79.0 31.1 C 82.4 30.1 86.1 29.8 89.8 30.1 C 80.7 25.6 71.5 24.6 63.2 27.0 L 76.7 23.1 C 87.8 19.9 100.7 22.7 112.7 32.2 C 113.3 32.8 114.0 33.3 114.7 33.9 C 114.7 34.0 114.8 34.0 114.8 34.0 C 115.4 34.6 116.1 35.1 116.7 35.7 C 116.7 35.8 116.8 35.9 116.9 35.9 C 117.5 36.5 118.1 37.1 118.6 37.7 C 118.7 37.7 118.8 37.8 118.9 37.9 C 119.5 38.5 120.0 39.1 120.6 39.7 C 120.6 39.7 120.6 39.8 120.7 39.8 C 120.7 39.9 120.8 40.0 120.8 40.0 C 121.3 40.5 121.8 41.1 122.2 41.6 C 122.3 41.7 122.4 41.8 122.5 41.9 C 122.9 42.4 123.3 43.0 123.8 43.5 C 123.8 43.6 123.9 43.7 123.9 43.7 C 124.4 44.3 124.8 44.9 125.2 45.5 C 125.3 45.6 125.4 45.7 125.5 45.8 C 125.9 46.4 126.4 47.0 126.8 47.6 C 126.8 47.7 126.9 47.8 127.0 47.9 C 127.3 48.5 127.7 49.1 128.1 49.7 C 128.2 49.7 128.2 49.8 128.3 49.9 C 128.7 50.5 129.1 51.2 129.4 51.8 C 129.5 51.9 129.6 52.1 129.7 52.2 C 130.0 52.8 130.4 53.5 130.8 54.1 C 130.8 54.2 130.9 54.3 130.9 54.4 C 131.3 55.0 131.6 55.6 131.9 56.3 C 132.0 56.4 132.0 56.5 132.1 56.6 C 132.4 57.2 132.7 57.9 133.1 58.6 C 133.1 58.7 133.2 58.8 133.3 59.0 C 133.6 59.7 133.9 60.3 134.2 61.0 C 134.3 61.1 134.3 61.2 134.3 61.3 C 134.6 61.9 134.9 62.6 135.2 63.3 C 135.2 63.4 135.3 63.5 135.3 63.6 C 135.6 64.3 135.9 65.0 136.1 65.7 C 136.2 65.8 136.3 66.0 136.3 66.1 C 136.6 66.8 136.8 67.5 137.1 68.3 C 137.1 68.3 137.1 68.4 137.2 68.5 C 137.4 69.2 137.6 69.9 137.9 70.6 C 137.9 70.7 137.9 70.8 138.0 70.9 C 138.2 71.6 138.4 72.3 138.6 73.1 L 138.7 73.5 C 138.9 74.2 139.1 75.0 139.3 75.7 C 139.4 75.8 139.4 75.9 139.4 76.0 C 139.6 76.7 139.7 77.4 139.9 78.1 C 139.9 78.2 140.0 78.3 140.0 78.4 C 140.2 79.2 140.3 79.9 140.5 80.6 C 140.5 80.8 140.5 80.9 140.5 81.1 C 140.7 81.8 140.8 82.6 141.0 83.3 C 141.0 83.4 141.0 83.5 141.0 83.5 C 141.1 84.3 141.2 85.0 141.3 85.7 C 141.3 85.8 141.4 85.9 141.4 86.1 C 141.5 86.8 141.6 87.6 141.7 88.3 C 141.7 88.5 141.7 88.6 141.7 88.8 C 141.8 89.5 141.9 90.3 141.9 91.0 C 141.9 91.1 141.9 91.1 141.9 91.2 C 142.0 91.9 142.0 92.6 142.1 93.4 C 142.1 93.5 142.1 93.6 142.1 93.8 C 142.1 94.5 142.2 95.2 142.2 96.0 C 142.2 96.1 142.2 96.3 142.2 96.4 C 142.2 97.2 142.2 97.9 142.2 98.7 C 142.2 98.7 142.2 98.8 142.2 98.8 C 142.2 99.5 142.2 100.3 142.1 101.0 C 142.1 101.1 142.1 101.3 142.1 101.4 C 142.1 102.1 142.1 102.8 142.0 103.6 C 142.0 103.7 142.0 103.9 142.0 104.0 C 141.9 104.8 141.8 105.5 141.8 106.2 C 141.8 106.3 141.8 106.3 141.8 106.3 C 141.7 107.1 141.6 107.8 141.5 108.5 C 141.5 108.6 141.5 108.8 141.4 108.9 C 141.3 109.6 141.2 110.3 141.1 111.0 C 141.1 111.2 141.1 111.3 141.0 111.4 C 140.9 112.2 140.8 112.9 140.6 113.6 C 140.6 113.6 140.6 113.6 140.6 113.7 C 140.4 114.4 140.3 115.1 140.1 115.8 C 140.1 115.8 140.1 115.9 140.0 116.0 C 140.0 116.1 140.0 116.1 140.0 116.2 C 139.8 116.8 139.6 117.5 139.5 118.2 C 139.4 118.3 139.4 118.5 139.3 118.6 C 139.1 119.3 138.9 120.0 138.7 120.7 C 137.6 124.0 136.3 127.0 134.8 129.7 C 134.3 130.5 133.9 131.3 133.4 132.0 C 131.6 135.0 129.5 137.6 127.3 139.8 C 126.1 140.9 124.9 141.9 123.7 142.9 C 123.1 143.3 122.5 143.8 121.9 144.2 C 120.6 145.0 119.3 145.8 117.9 146.4 C 117.6 146.6 117.3 146.8 116.9 146.9 C 115.6 147.5 114.2 148.0 112.8 148.4 L 99.2 152.3 C 107.5 149.9 114.8 144.3 120.1 135.6 C 120.1 135.6 120.1 135.6 120.0 135.6 C 119.2 136.2 118.4 136.8 117.6 137.3 C 117.0 137.7 116.4 138.0 115.9 138.3 C 115.3 138.6 114.7 138.9 114.1 139.2 C 113.8 139.3 113.5 139.4 113.2 139.5 C 112.3 139.9 111.4 140.2 110.5 140.5 L 104.4 142.2 L 96.9 144.4 C 96.5 144.5 96.2 144.6 95.8 144.7 C 95.6 144.7 95.3 144.8 95.1 144.8 C 94.6 144.9 94.0 145.0 93.5 145.1 C 93.4 145.1 93.3 145.2 93.2 145.2 C 92.9 145.2 92.5 145.3 92.1 145.3 C 91.9 145.3 91.6 145.4 91.3 145.4 C 91.1 145.4 90.9 145.4 90.7 145.4 C 90.3 145.4 89.8 145.5 89.4 145.5 C 89.2 145.5 89.1 145.5 88.9 145.5 C 88.4 145.5 88.0 145.5 87.5 145.4 C 87.4 145.4 87.4 145.4 87.3 145.4 " fill="#F38907"></path><path d="M 79.0 31.1 L 79.0 31.1 L 79.0 31.1 Z M 79.0 31.1 " fill="#DC7601"></path><path d="M 78.9 66.6 C 78.9 66.6 78.8 66.5 78.7 66.4 C 78.5 66.3 78.4 66.1 78.2 66.0 C 78.2 65.9 78.1 65.9 78.0 65.8 C 77.8 65.6 77.6 65.4 77.3 65.2 C 77.0 65.0 76.7 64.8 76.4 64.6 C 76.3 64.8 76.2 64.9 76.1 65.1 C 76.1 65.2 76.0 65.3 76.0 65.3 C 75.8 65.8 75.5 66.3 75.3 66.8 C 75.2 66.9 75.2 67.0 75.2 67.0 C 75.0 67.6 74.7 68.1 74.5 68.7 L 74.5 68.7 L 68.5 70.4 L 73.1 73.8 C 73.0 74.0 73.0 74.2 72.9 74.4 L 82.4 71.7 C 82.4 71.7 82.5 71.7 82.5 71.7 C 82.6 71.7 82.7 71.7 82.7 71.6 C 82.8 71.6 82.8 71.6 82.8 71.6 C 82.7 71.5 82.6 71.3 82.5 71.2 C 82.5 71.2 82.5 71.1 82.4 71.1 C 82.2 70.7 82.0 70.4 81.8 70.0 C 81.8 70.0 81.8 70.0 81.8 70.0 C 81.5 69.6 81.3 69.3 81.0 69.0 C 81.0 68.9 80.9 68.9 80.9 68.8 C 80.6 68.5 80.4 68.2 80.1 67.9 C 80.0 67.8 80.0 67.7 79.9 67.7 C 79.8 67.5 79.7 67.4 79.6 67.3 C 79.5 67.2 79.4 67.1 79.3 67.0 C 79.2 66.9 79.1 66.8 78.9 66.6 M 93.7 106.0 C 93.7 106.0 93.7 106.0 93.8 106.1 C 94.0 106.4 94.2 106.8 94.4 107.1 C 94.4 107.1 94.4 107.2 94.5 107.2 C 94.7 107.5 94.9 107.9 95.2 108.2 C 95.2 108.2 95.2 108.2 95.2 108.3 C 95.5 108.6 95.7 108.9 96.0 109.2 C 96.1 109.3 96.1 109.3 96.2 109.4 C 96.3 109.5 96.4 109.6 96.5 109.7 C 96.6 109.8 96.7 109.9 96.7 110.0 C 96.9 110.1 97.0 110.2 97.1 110.3 C 97.2 110.4 97.3 110.5 97.3 110.6 C 97.5 110.7 97.6 110.8 97.7 110.9 C 97.8 111.0 97.9 111.1 98.0 111.1 C 98.2 111.3 98.4 111.5 98.6 111.7 C 99.2 112.1 99.7 112.5 100.2 112.8 C 100.4 112.9 100.5 113.0 100.6 113.0 C 101.3 111.9 102.0 110.7 102.6 109.3 L 102.6 109.3 L 108.7 107.5 L 104.2 104.3 C 104.3 103.8 104.5 103.4 104.6 103.0 L 94.5 105.9 C 94.2 105.9 94.0 106.0 93.7 106.0 M 119.7 136.2 C 119.8 136.0 119.9 135.8 120.1 135.6 C 120.1 135.6 120.1 135.6 120.0 135.6 C 119.2 136.2 118.4 136.8 117.6 137.3 C 117.0 137.7 116.4 138.0 115.9 138.3 C 115.3 138.6 114.7 138.9 114.1 139.2 C 113.8 139.3 113.5 139.4 113.2 139.5 C 112.3 139.9 111.4 140.2 110.5 140.5 L 104.4 142.2 L 96.9 144.4 C 96.6 144.5 96.2 144.6 95.8 144.7 C 95.6 144.7 95.3 144.8 95.1 144.8 C 94.6 144.9 94.0 145.0 93.5 145.1 C 93.4 145.1 93.3 145.2 93.2 145.2 C 92.9 145.2 92.5 145.3 92.1 145.3 C 91.9 145.3 91.6 145.4 91.3 145.4 C 91.1 145.4 90.9 145.4 90.7 145.4 C 90.3 145.4 89.8 145.5 89.4 145.5 C 89.2 145.5 89.1 145.5 88.9 145.5 C 88.4 145.5 88.0 145.5 87.5 145.4 C 87.4 145.4 87.4 145.4 87.3 145.4 C 86.7 145.4 86.1 145.3 85.5 145.3 C 85.2 145.2 84.9 145.2 84.6 145.1 C 84.3 145.1 83.9 145.0 83.5 145.0 C 83.3 144.9 83.2 144.9 83.0 144.9 C 77.2 143.7 71.3 140.9 65.6 136.4 C 65.5 136.4 65.5 136.4 65.5 136.3 L 64.7 115.9 C 65.0 116.3 65.2 116.6 65.4 117.0 C 65.4 117.0 65.5 117.1 65.5 117.2 C 65.9 117.8 66.3 118.3 66.6 118.9 C 66.7 119.0 66.8 119.1 66.9 119.3 C 67.2 119.7 67.5 120.1 67.8 120.5 C 67.9 120.7 68.0 120.8 68.1 121.0 C 68.5 121.5 68.9 122.0 69.3 122.5 C 69.3 122.6 69.4 122.6 69.4 122.6 C 69.8 123.1 70.1 123.6 70.5 124.1 C 70.6 124.2 70.8 124.3 70.9 124.5 C 71.2 124.9 71.5 125.3 71.9 125.6 C 72.0 125.7 72.1 125.9 72.2 126.0 C 72.7 126.5 73.1 127.0 73.6 127.5 C 73.7 127.6 73.8 127.8 74.0 127.9 C 74.4 128.3 74.9 128.8 75.3 129.2 C 75.4 129.3 75.5 129.4 75.5 129.4 C 76.0 129.9 76.6 130.4 77.1 130.8 C 77.2 130.9 77.3 131.1 77.5 131.2 C 78.0 131.6 78.6 132.1 79.1 132.5 C 83.6 136.1 88.3 138.6 92.9 140.1 C 93.0 140.1 93.0 140.1 93.1 140.1 C 94.1 140.4 95.2 140.7 96.2 140.9 C 96.5 141.0 96.8 141.0 97.1 141.1 C 97.3 141.1 97.4 141.1 97.6 141.2 C 98.1 141.2 98.6 141.3 99.0 141.4 C 99.4 141.4 99.7 141.4 100.0 141.5 C 100.3 141.5 100.7 141.5 101.0 141.5 C 101.4 141.6 101.8 141.6 102.2 141.6 C 102.5 141.6 102.7 141.6 102.9 141.6 C 103.1 141.6 103.3 141.6 103.5 141.6 C 110.5 137.5 116.2 130.2 119.6 120.1 C 119.8 119.4 120.0 118.6 120.3 117.9 C 120.3 117.6 120.4 117.4 120.5 117.1 C 120.6 116.6 120.7 116.1 120.9 115.6 C 120.9 115.3 121.0 115.0 121.1 114.7 C 121.2 114.2 121.3 113.7 121.4 113.2 C 121.5 112.9 121.5 112.6 121.6 112.3 C 121.7 111.8 121.8 111.2 121.8 110.7 C 121.9 110.4 121.9 110.2 122.0 109.9 C 122.1 109.1 122.2 108.3 122.3 107.5 C 122.3 107.4 122.3 107.4 122.3 107.3 C 122.4 106.6 122.4 105.8 122.5 105.1 C 122.5 104.8 122.5 104.6 122.5 104.3 C 122.5 104.2 122.5 104.2 122.5 104.1 L 121.1 109.0 L 121.1 109.0 L 112.2 111.6 C 110.9 112.9 109.4 113.8 107.9 114.2 L 94.4 118.1 C 94.4 118.1 94.4 118.1 94.4 118.1 L 94.4 118.1 L 94.4 118.1 C 94.2 118.1 94.1 118.2 94.0 118.2 C 94.0 118.2 93.9 118.2 93.8 118.2 C 93.8 118.3 93.7 118.3 93.7 118.3 C 93.5 118.3 93.3 118.3 93.1 118.4 C 92.5 118.4 92.0 118.4 91.4 118.4 C 90.9 118.3 90.4 118.3 89.9 118.1 C 89.8 118.1 89.7 118.1 89.6 118.0 C 89.5 118.0 89.4 118.0 89.3 118.0 C 89.3 118.0 89.3 117.9 89.3 117.9 C 88.7 117.7 88.1 117.5 87.5 117.2 C 87.3 117.0 87.0 116.9 86.7 116.7 C 86.2 116.4 85.6 116.0 85.1 115.6 C 84.9 115.4 84.6 115.2 84.4 115.0 C 84.3 115.0 84.3 114.9 84.2 114.8 C 84.1 114.7 83.9 114.6 83.8 114.5 C 83.7 114.4 83.6 114.3 83.6 114.2 C 83.4 114.1 83.3 114.0 83.2 113.9 C 83.1 113.8 83.0 113.7 83.0 113.6 C 82.9 113.5 82.7 113.4 82.6 113.3 C 82.6 113.3 82.6 113.2 82.6 113.2 C 82.5 113.2 82.5 113.1 82.5 113.1 C 82.2 112.8 81.9 112.5 81.7 112.2 C 81.7 112.1 81.7 112.1 81.6 112.1 C 81.4 111.8 81.2 111.4 80.9 111.1 C 80.9 111.1 80.9 111.0 80.9 111.0 C 80.6 110.7 80.4 110.3 80.2 110.0 C 80.2 109.9 80.2 109.9 80.1 109.8 C 79.9 109.5 79.7 109.1 79.6 108.8 C 79.5 108.7 79.5 108.7 79.5 108.6 C 79.3 108.3 79.1 107.9 79.0 107.6 C 79.0 107.5 78.9 107.5 78.9 107.4 C 78.7 107.0 78.6 106.7 78.5 106.3 C 78.4 106.3 78.4 106.3 78.4 106.3 C 78.4 106.0 78.3 105.8 78.2 105.6 L 78.2 105.6 L 78.2 105.6 C 78.2 105.5 78.1 105.4 78.1 105.3 C 78.0 105.1 78.0 105.0 78.0 104.8 C 77.9 104.6 77.8 104.3 77.7 104.1 C 77.7 103.9 77.6 103.8 77.6 103.7 C 77.5 103.3 77.4 103.0 77.4 102.7 C 77.3 102.6 77.3 102.5 77.3 102.5 C 77.2 102.1 77.1 101.7 77.0 101.3 C 77.0 101.1 77.0 101.0 77.0 100.9 C 76.9 100.6 76.9 100.3 76.8 100.0 C 76.8 99.9 76.8 99.8 76.7 99.6 C 76.7 99.3 76.7 99.1 76.6 98.8 C 76.6 98.7 76.6 98.5 76.6 98.4 C 76.5 98.1 76.5 97.8 76.5 97.6 C 76.4 97.4 76.4 97.3 76.4 97.1 C 76.4 96.8 76.3 96.5 76.3 96.2 C 76.3 96.1 76.3 96.0 76.3 95.9 C 76.2 95.5 76.2 95.1 76.2 94.7 L 76.2 94.6 L 67.3 97.2 L 64.0 95.0 L 63.0 66.1 L 65.1 65.5 C 65.2 65.4 65.3 65.2 65.4 65.1 C 65.5 65.1 65.5 65.1 65.5 65.0 C 65.9 64.7 66.2 64.4 66.6 64.2 C 66.6 64.2 66.6 64.1 66.6 64.1 C 66.8 64.0 66.9 63.9 67.1 63.8 C 67.1 63.8 67.2 63.8 67.2 63.7 C 67.4 63.6 67.5 63.6 67.7 63.5 C 67.7 63.5 67.8 63.4 67.8 63.4 C 68.0 63.3 68.2 63.2 68.4 63.1 C 68.4 63.1 68.4 63.1 68.4 63.1 C 68.6 63.1 68.8 63.0 68.9 63.0 C 69.0 63.0 69.0 62.9 69.1 62.9 L 69.1 62.9 L 78.9 60.1 L 82.6 59.0 L 82.6 59.0 C 85.1 58.3 87.9 59.0 90.8 61.3 C 91.1 61.5 91.3 61.7 91.6 61.9 C 91.6 62.0 91.7 62.0 91.8 62.1 C 91.9 62.2 92.1 62.4 92.2 62.5 C 92.3 62.6 92.4 62.7 92.5 62.8 C 92.6 62.9 92.7 63.0 92.9 63.1 C 92.9 63.2 93.0 63.3 93.1 63.4 C 93.2 63.5 93.3 63.6 93.5 63.8 C 93.5 63.8 93.5 63.8 93.6 63.9 C 93.6 63.9 93.6 63.9 93.6 64.0 C 93.9 64.3 94.2 64.6 94.4 64.9 C 94.5 65.0 94.5 65.0 94.5 65.1 C 94.8 65.4 95.1 65.8 95.3 66.1 L 95.3 66.1 C 95.5 66.5 95.8 66.8 96.0 67.2 C 96.0 67.2 96.0 67.3 96.1 67.3 C 96.3 67.6 96.5 68.0 96.6 68.3 C 96.7 68.4 96.7 68.5 96.7 68.5 C 96.9 68.9 97.1 69.2 97.2 69.6 C 97.3 69.6 97.3 69.7 97.3 69.8 C 97.5 70.1 97.6 70.5 97.8 70.9 C 97.8 70.9 97.8 70.9 97.8 71.0 C 98.0 71.3 98.1 71.7 98.2 72.1 C 98.2 72.1 98.2 72.1 98.2 72.2 C 98.4 72.5 98.5 72.9 98.6 73.3 C 98.6 73.4 98.6 73.4 98.6 73.5 C 98.7 73.9 98.8 74.2 98.9 74.6 C 98.9 74.7 99.0 74.7 99.0 74.8 C 99.1 75.2 99.2 75.5 99.2 75.9 C 99.2 76.0 99.3 76.0 99.3 76.1 C 99.3 76.5 99.4 76.9 99.5 77.3 C 99.5 77.3 99.5 77.3 99.5 77.3 C 99.6 77.7 99.6 78.1 99.7 78.5 C 99.7 78.5 99.7 78.6 99.7 78.6 C 99.8 79.0 99.8 79.4 99.9 79.8 C 99.9 79.8 99.9 79.9 99.9 80.0 C 99.9 80.0 99.9 80.0 99.9 80.0 L 109.3 77.3 L 119.5 84.0 C 119.5 84.0 119.5 84.1 119.5 84.1 C 119.5 84.2 119.5 84.2 119.5 84.2 C 119.5 84.3 119.5 84.3 119.5 84.4 C 119.5 84.5 119.6 84.5 119.6 84.6 C 119.6 84.7 119.6 84.8 119.6 84.9 C 119.6 84.9 119.6 85.0 119.6 85.1 C 119.6 85.2 119.6 85.3 119.6 85.4 C 119.6 85.5 119.6 85.6 119.6 85.7 C 119.6 85.8 119.6 85.9 119.6 86.1 C 119.6 86.2 119.6 86.3 119.6 86.4 C 119.6 86.6 119.6 86.7 119.6 86.9 C 119.6 87.0 119.6 87.1 119.6 87.3 C 119.6 87.4 119.6 87.6 119.6 87.8 C 119.6 87.9 119.6 88.1 119.6 88.2 C 119.6 88.4 119.6 88.6 119.6 88.8 C 119.6 89.0 119.6 89.1 119.5 89.3 C 119.5 89.5 119.5 89.7 119.5 89.9 C 119.5 90.1 119.5 90.3 119.5 90.5 C 119.5 90.7 119.4 90.9 119.4 91.1 C 119.4 91.3 119.4 91.5 119.4 91.7 C 119.3 91.9 119.3 92.2 119.3 92.4 C 119.3 92.6 119.2 92.8 119.2 93.0 C 119.2 93.3 119.1 93.5 119.1 93.8 C 119.1 94.0 119.0 94.2 119.0 94.4 C 119.0 94.7 118.9 94.9 118.9 95.2 C 118.9 95.4 118.8 95.7 118.8 95.9 C 118.7 96.2 118.7 96.4 118.6 96.7 C 118.6 96.9 118.5 97.2 118.5 97.4 C 118.4 97.7 118.3 98.0 118.3 98.3 C 118.2 98.5 118.2 98.8 118.1 99.0 C 118.1 99.1 118.1 99.3 118.0 99.4 C 117.9 99.7 117.9 100.0 117.8 100.4 C 117.8 100.4 117.8 100.4 117.8 100.4 L 117.8 100.4 L 122.5 103.9 C 122.6 103.5 122.6 103.0 122.6 102.6 C 122.6 102.3 122.6 102.0 122.6 101.7 C 122.6 101.2 122.6 100.6 122.6 100.1 C 122.6 99.8 122.6 99.5 122.6 99.2 C 122.6 98.6 122.6 98.0 122.6 97.4 C 122.6 97.2 122.6 97.0 122.6 96.7 C 122.5 95.9 122.5 95.1 122.4 94.2 C 122.4 94.1 122.4 94.0 122.4 93.9 C 122.3 93.2 122.2 92.4 122.1 91.7 C 122.1 91.5 122.1 91.2 122.0 90.9 C 122.0 90.3 121.9 89.8 121.8 89.2 C 121.8 88.9 121.7 88.6 121.7 88.3 C 121.6 87.8 121.5 87.2 121.4 86.7 C 121.3 86.4 121.3 86.1 121.2 85.8 C 121.1 85.2 121.0 84.6 120.9 84.0 C 120.8 83.8 120.8 83.5 120.7 83.3 C 120.5 82.5 120.3 81.7 120.1 80.9 C 120.1 80.7 120.0 80.6 120.0 80.4 C 119.8 79.7 119.7 79.1 119.5 78.4 C 119.4 78.1 119.3 77.9 119.2 77.6 C 119.0 77.1 118.9 76.5 118.7 76.0 C 118.6 75.7 118.5 75.4 118.4 75.1 C 118.2 74.6 118.1 74.1 117.9 73.5 C 117.8 73.3 117.7 73.0 117.6 72.7 C 117.3 72.1 117.1 71.5 116.9 70.9 C 116.8 70.7 116.7 70.5 116.6 70.3 C 116.3 69.6 116.0 68.8 115.7 68.0 C 115.6 67.9 115.5 67.7 115.4 67.5 C 115.2 66.9 114.9 66.3 114.6 65.8 C 114.5 65.5 114.3 65.2 114.2 65.0 C 114.0 64.5 113.7 64.0 113.5 63.5 C 113.3 63.2 113.2 63.0 113.0 62.7 C 112.8 62.2 112.5 61.7 112.2 61.3 C 112.1 61.0 111.9 60.8 111.8 60.5 C 111.5 60.0 111.1 59.4 110.8 58.9 C 110.7 58.7 110.6 58.5 110.5 58.4 C 110.1 57.7 109.6 57.0 109.1 56.3 C 109.0 56.2 108.9 56.0 108.8 55.8 C 108.4 55.3 108.1 54.8 107.7 54.3 C 107.6 54.1 107.4 53.9 107.2 53.7 C 106.9 53.2 106.6 52.8 106.2 52.4 C 106.0 52.2 105.9 51.9 105.7 51.7 C 105.3 51.3 105.0 50.9 104.6 50.5 C 104.4 50.3 104.3 50.0 104.1 49.8 C 103.8 49.5 103.4 49.1 103.1 48.7 C 102.8 48.5 102.6 48.2 102.4 48.0 C 102.0 47.6 101.6 47.2 101.3 46.9 C 101.1 46.7 100.8 46.4 100.6 46.2 C 100.2 45.8 99.8 45.4 99.4 45.1 C 99.2 44.9 99.0 44.7 98.7 44.5 C 98.1 44.0 97.5 43.4 96.8 42.9 C 93.6 40.3 90.2 38.3 86.9 36.8 C 85.5 36.3 84.2 35.8 82.9 35.3 C 80.9 34.7 78.9 34.3 76.9 34.1 C 75.4 33.9 73.9 33.9 72.5 33.9 C 72.5 33.9 72.4 33.9 72.4 33.9 C 72.3 34.0 72.2 34.1 72.1 34.1 C 71.8 34.3 71.6 34.4 71.3 34.6 C 71.3 34.6 71.2 34.7 71.1 34.7 C 70.8 34.9 70.5 35.2 70.2 35.4 C 70.1 35.4 70.0 35.5 70.0 35.5 C 69.7 35.7 69.4 35.9 69.2 36.1 C 69.1 36.2 69.0 36.3 68.9 36.4 C 68.6 36.6 68.3 36.8 68.1 37.0 C 68.0 37.1 68.0 37.1 67.9 37.2 C 67.6 37.4 67.3 37.7 67.0 38.0 C 66.9 38.1 66.8 38.2 66.7 38.2 C 66.5 38.5 66.3 38.7 66.1 38.9 C 66.0 39.0 65.9 39.1 65.8 39.2 C 65.5 39.5 65.2 39.8 64.9 40.1 C 64.9 40.1 64.9 40.1 64.9 40.1 C 64.6 40.5 64.3 40.8 64.1 41.1 C 64.0 41.2 63.9 41.3 63.8 41.4 C 63.6 41.7 63.4 42.0 63.2 42.2 C 63.1 42.3 63.0 42.4 63.0 42.5 C 62.7 42.9 62.4 43.2 62.2 43.6 C 62.2 43.6 62.2 43.6 62.1 43.6 L 61.9 36.3 C 61.9 36.3 61.9 36.3 61.9 36.3 C 62.0 36.2 62.1 36.2 62.2 36.1 C 62.5 36.0 62.7 35.9 63.0 35.8 C 63.1 35.8 63.2 35.7 63.3 35.7 C 63.6 35.6 63.8 35.5 64.1 35.4 C 64.2 35.4 64.3 35.3 64.4 35.3 C 64.8 35.2 65.1 35.1 65.5 35.0 L 65.5 35.0 L 65.5 35.0 L 65.5 35.0 L 72.9 32.8 L 79.0 31.1 L 79.0 31.1 C 80.3 30.7 81.6 30.4 82.9 30.3 C 83.6 30.2 84.2 30.1 84.9 30.1 C 86.5 30.0 88.1 30.0 89.8 30.1 C 89.5 30.0 89.2 29.9 88.9 29.7 C 95.4 29.3 101.9 29.2 108.3 29.1 C 109.8 30.1 111.2 31.1 112.7 32.2 C 113.3 32.8 114.0 33.3 114.7 33.9 C 114.7 34.0 114.8 34.0 114.8 34.0 C 115.4 34.6 116.1 35.1 116.7 35.7 C 116.7 35.8 116.8 35.9 116.9 35.9 C 117.5 36.5 118.1 37.1 118.6 37.7 C 118.7 37.7 118.8 37.8 118.9 37.9 C 119.5 38.5 120.0 39.1 120.6 39.7 C 120.6 39.7 120.6 39.8 120.7 39.8 C 120.7 39.9 120.8 40.0 120.8 40.0 C 121.3 40.5 121.8 41.1 122.2 41.6 C 122.3 41.7 122.4 41.8 122.5 41.9 C 122.9 42.4 123.3 43.0 123.8 43.5 C 123.8 43.6 123.9 43.6 123.9 43.7 C 124.4 44.3 124.8 44.9 125.2 45.5 C 125.3 45.6 125.4 45.7 125.5 45.8 C 125.9 46.4 126.4 47.0 126.8 47.6 C 126.8 47.7 126.9 47.8 127.0 47.9 C 127.3 48.5 127.7 49.1 128.1 49.7 C 128.2 49.7 128.2 49.8 128.3 49.9 C 128.7 50.5 129.1 51.2 129.4 51.8 C 129.5 51.9 129.6 52.1 129.7 52.2 C 130.0 52.8 130.4 53.5 130.8 54.1 C 130.8 54.2 130.9 54.3 130.9 54.4 C 131.3 55.0 131.6 55.6 131.9 56.3 C 132.0 56.4 132.0 56.5 132.1 56.6 C 132.4 57.2 132.7 57.9 133.1 58.6 C 133.1 58.7 133.2 58.8 133.3 59.0 C 133.6 59.7 133.9 60.3 134.2 61.0 C 134.3 61.1 134.3 61.2 134.3 61.3 C 134.6 61.9 134.9 62.6 135.2 63.3 C 135.2 63.4 135.3 63.5 135.3 63.6 C 135.6 64.3 135.9 65.0 136.1 65.7 C 136.2 65.8 136.3 66.0 136.3 66.1 C 136.6 66.8 136.8 67.5 137.1 68.3 C 137.1 68.3 137.1 68.4 137.2 68.5 C 137.4 69.2 137.6 69.9 137.9 70.6 C 137.9 70.7 137.9 70.8 138.0 70.9 C 138.2 71.6 138.4 72.3 138.6 73.1 L 138.7 73.5 C 138.9 74.2 139.1 75.0 139.3 75.7 C 139.4 75.8 139.4 75.9 139.4 76.0 C 139.6 76.7 139.7 77.4 139.9 78.1 C 139.9 78.2 140.0 78.3 140.0 78.4 C 140.2 79.2 140.3 79.9 140.5 80.6 C 140.5 80.8 140.5 80.9 140.5 81.1 C 140.7 81.8 140.8 82.6 141.0 83.3 C 141.0 83.4 141.0 83.5 141.0 83.5 C 141.1 84.3 141.2 85.0 141.3 85.7 C 141.3 85.8 141.4 85.9 141.4 86.1 C 141.5 86.8 141.6 87.6 141.7 88.3 C 141.7 88.4 141.7 88.6 141.7 88.8 C 141.8 89.5 141.9 90.3 141.9 91.0 C 141.9 91.1 141.9 91.1 141.9 91.2 C 142.0 91.9 142.0 92.6 142.1 93.4 C 142.1 93.5 142.1 93.6 142.1 93.8 C 142.1 94.5 142.2 95.2 142.2 96.0 C 142.2 96.1 142.2 96.3 142.2 96.4 C 142.2 97.2 142.2 97.9 142.2 98.7 C 142.2 98.7 142.2 98.8 142.2 98.8 C 142.2 99.5 142.2 100.3 142.1 101.0 C 142.1 101.1 142.1 101.3 142.1 101.4 C 142.1 102.1 142.1 102.8 142.0 103.6 C 142.0 103.7 142.0 103.9 142.0 104.0 C 141.9 104.8 141.9 105.5 141.8 106.2 C 141.8 106.3 141.8 106.3 141.8 106.3 C 141.7 107.1 141.6 107.8 141.5 108.5 C 141.5 108.6 141.5 108.8 141.4 108.9 C 141.3 109.6 141.2 110.3 141.1 111.0 C 141.1 111.2 141.1 111.3 141.0 111.4 C 140.9 112.2 140.8 112.9 140.6 113.6 C 140.6 113.6 140.6 113.6 140.6 113.7 C 140.4 114.4 140.3 115.1 140.1 115.8 C 140.1 115.8 140.1 115.9 140.0 116.0 C 140.0 116.1 140.0 116.1 140.0 116.2 C 139.8 116.8 139.6 117.5 139.5 118.2 C 139.4 118.3 139.4 118.5 139.3 118.6 C 139.1 119.3 138.9 120.0 138.7 120.7 C 138.5 121.3 138.3 121.8 138.1 122.4 C 133.0 126.6 127.8 130.6 122.4 134.3 C 121.5 135.0 120.6 135.6 119.7 136.2 " fill="#DC7601"></path><path d="M 78.9 66.6 C 78.9 66.6 78.8 66.5 78.7 66.4 C 78.5 66.3 78.4 66.1 78.2 66.0 C 78.2 65.9 78.1 65.9 78.0 65.8 C 77.8 65.6 77.6 65.4 77.3 65.2 C 77.0 65.0 76.7 64.8 76.4 64.6 C 76.3 64.8 76.2 64.9 76.1 65.1 C 76.1 65.2 76.0 65.3 76.0 65.3 C 75.8 65.8 75.5 66.3 75.3 66.8 C 75.2 66.9 75.2 67.0 75.2 67.0 C 75.0 67.6 74.7 68.1 74.5 68.7 L 74.5 68.7 L 68.5 70.4 L 73.1 73.8 C 73.0 74.0 73.0 74.2 72.9 74.4 L 82.4 71.7 C 82.4 71.7 82.5 71.7 82.5 71.7 C 82.6 71.7 82.7 71.7 82.7 71.6 C 82.8 71.6 82.8 71.6 82.8 71.6 C 82.7 71.5 82.6 71.3 82.5 71.2 C 82.5 71.2 82.5 71.1 82.4 71.1 C 82.2 70.7 82.0 70.4 81.8 70.0 C 81.8 70.0 81.8 70.0 81.8 70.0 C 81.5 69.6 81.3 69.3 81.0 69.0 C 81.0 68.9 80.9 68.9 80.9 68.8 C 80.6 68.5 80.4 68.2 80.1 67.9 C 80.0 67.8 80.0 67.7 79.9 67.7 C 79.8 67.5 79.7 67.4 79.6 67.3 C 79.5 67.2 79.4 67.1 79.3 67.0 C 79.2 66.9 79.1 66.8 78.9 66.6 M 93.7 106.0 C 93.7 106.0 93.7 106.0 93.8 106.1 C 94.0 106.4 94.2 106.8 94.4 107.1 C 94.4 107.1 94.4 107.2 94.5 107.2 C 94.7 107.5 94.9 107.9 95.2 108.2 C 95.2 108.2 95.2 108.2 95.2 108.3 C 95.5 108.6 95.7 108.9 96.0 109.2 C 96.1 109.3 96.1 109.3 96.2 109.4 C 96.3 109.5 96.4 109.6 96.5 109.7 C 96.6 109.8 96.7 109.9 96.7 110.0 C 96.9 110.1 97.0 110.2 97.1 110.3 C 97.2 110.4 97.3 110.5 97.3 110.6 C 97.5 110.7 97.6 110.8 97.7 110.9 C 97.8 111.0 97.9 111.1 98.0 111.1 C 98.2 111.3 98.4 111.5 98.6 111.7 C 99.2 112.1 99.7 112.5 100.2 112.8 C 100.4 112.9 100.5 113.0 100.6 113.0 C 101.3 111.9 102.0 110.7 102.6 109.3 L 102.6 109.3 L 108.7 107.5 L 104.2 104.3 C 104.3 103.8 104.5 103.4 104.6 103.0 L 94.5 105.9 C 94.2 105.9 94.0 106.0 93.7 106.0 M 63.9 135.1 C 63.8 134.9 63.7 134.8 63.6 134.7 C 63.0 134.3 62.5 133.8 62.0 133.3 C 61.9 133.2 61.9 133.2 61.8 133.1 C 61.3 132.7 60.9 132.2 60.4 131.8 C 60.3 131.6 60.2 131.5 60.1 131.4 C 59.6 130.9 59.1 130.4 58.6 129.9 C 58.6 129.8 58.6 129.8 58.6 129.8 C 58.5 129.7 58.4 129.6 58.3 129.5 C 58.0 129.1 57.7 128.8 57.4 128.4 C 57.2 128.2 57.1 128.1 57.0 127.9 C 56.6 127.5 56.2 127.0 55.8 126.5 C 55.8 126.5 55.8 126.5 55.8 126.4 C 55.4 125.9 55.0 125.4 54.6 124.9 C 54.5 124.7 54.4 124.6 54.3 124.4 C 54.0 124.0 53.7 123.6 53.4 123.2 C 53.3 123.0 53.2 122.9 53.1 122.8 C 52.7 122.2 52.4 121.7 52.0 121.1 C 52.0 121.0 51.9 120.9 51.9 120.9 C 51.6 120.4 51.3 119.9 51.0 119.4 C 50.9 119.2 50.8 119.1 50.7 118.9 C 50.4 118.4 50.1 118.0 49.9 117.5 C 49.8 117.4 49.7 117.3 49.7 117.1 C 49.3 116.6 49.0 116.0 48.7 115.4 C 48.6 115.2 48.6 115.1 48.5 115.0 C 48.3 114.5 48.0 114.0 47.8 113.5 C 47.7 113.4 47.6 113.2 47.5 113.0 C 47.3 112.5 47.0 111.9 46.8 111.4 C 46.8 111.3 46.7 111.2 46.7 111.2 C 46.4 110.6 46.2 109.9 45.9 109.3 C 45.8 109.2 45.8 109.0 45.7 108.8 C 45.5 108.3 45.3 107.8 45.1 107.4 C 45.1 107.2 45.0 107.0 44.9 106.8 C 44.7 106.2 44.5 105.6 44.2 104.9 C 44.2 104.9 44.2 104.8 44.2 104.7 C 44.0 104.2 43.8 103.6 43.6 103.0 C 43.5 102.8 43.5 102.6 43.4 102.4 C 43.3 101.9 43.1 101.4 43.0 100.9 C 42.9 100.8 42.9 100.6 42.8 100.5 C 42.6 99.8 42.5 99.2 42.3 98.5 C 42.3 98.4 42.2 98.2 42.2 98.1 C 42.1 97.6 41.9 97.0 41.8 96.5 C 41.8 96.3 41.7 96.1 41.7 95.9 C 41.5 95.4 41.4 94.8 41.3 94.2 C 41.3 94.1 41.3 94.0 41.2 93.9 C 41.1 93.4 41.0 92.8 40.9 92.2 C 40.9 92.1 40.9 92.1 40.9 92.0 C 40.8 91.7 40.8 91.3 40.7 91.0 C 40.7 90.6 40.6 90.2 40.6 89.8 C 40.5 89.5 40.5 89.1 40.4 88.8 C 40.4 88.4 40.3 88.0 40.3 87.6 C 40.2 87.3 40.2 87.0 40.2 86.6 C 40.1 86.2 40.1 85.8 40.1 85.4 C 40.0 85.1 40.0 84.8 40.0 84.4 C 39.9 84.0 39.9 83.7 39.9 83.3 C 39.9 82.9 39.9 82.6 39.8 82.3 C 39.8 81.9 39.8 81.5 39.8 81.1 C 39.8 80.7 39.8 80.4 39.8 80.1 C 39.8 79.7 39.8 79.3 39.8 78.9 C 39.8 78.6 39.8 78.2 39.8 77.9 C 39.8 77.5 39.8 77.1 39.8 76.7 C 39.8 76.5 39.8 76.3 39.8 76.0 C 44.4 74.4 48.9 72.8 53.4 71.2 C 53.4 71.4 53.4 71.7 53.4 71.9 C 53.4 72.2 53.4 72.5 53.4 72.9 C 53.3 73.2 53.3 73.6 53.3 74.0 C 53.3 74.4 53.3 74.7 53.3 75.0 C 53.3 75.4 53.3 75.8 53.3 76.2 C 53.3 76.5 53.3 76.9 53.3 77.2 C 53.4 77.6 53.4 78.0 53.4 78.4 C 53.4 78.7 53.4 79.0 53.4 79.4 C 53.5 79.8 53.5 80.2 53.5 80.5 C 53.5 80.9 53.6 81.2 53.6 81.5 C 53.6 81.9 53.7 82.3 53.7 82.7 C 53.7 83.1 53.8 83.4 53.8 83.7 C 53.9 84.1 53.9 84.5 54.0 84.9 C 54.0 85.3 54.0 85.6 54.1 85.9 C 54.1 86.3 54.2 86.7 54.3 87.1 C 54.3 87.4 54.4 87.8 54.4 88.1 C 54.5 88.7 54.7 89.4 54.8 90.0 C 54.8 90.1 54.8 90.2 54.8 90.3 C 55.0 90.9 55.1 91.5 55.2 92.0 C 55.3 92.2 55.3 92.4 55.3 92.6 C 55.5 93.1 55.6 93.7 55.7 94.2 C 55.8 94.3 55.8 94.5 55.8 94.6 C 56.0 95.3 56.2 95.9 56.4 96.6 C 56.4 96.7 56.4 96.9 56.5 97.0 C 56.6 97.5 56.8 98.0 57.0 98.6 C 57.0 98.7 57.1 98.9 57.1 99.1 C 57.3 99.7 57.5 100.3 57.7 100.8 C 57.7 100.9 57.7 101.0 57.8 101.1 C 58.0 101.7 58.2 102.3 58.5 103.0 C 58.5 103.1 58.6 103.3 58.7 103.5 C 58.8 104.0 59.0 104.4 59.2 104.9 C 59.3 105.1 59.4 105.3 59.4 105.4 C 59.7 106.1 60.0 106.7 60.2 107.3 C 60.3 107.4 60.3 107.4 60.3 107.5 C 60.6 108.0 60.8 108.6 61.1 109.1 C 61.2 109.3 61.3 109.5 61.3 109.7 C 61.6 110.1 61.8 110.6 62.0 111.1 C 62.1 111.2 62.2 111.3 62.3 111.5 C 62.6 112.1 62.9 112.7 63.2 113.2 C 63.3 113.4 63.3 113.5 63.4 113.6 C 63.7 114.1 63.9 114.5 64.2 115.0 C 64.3 115.2 64.4 115.3 64.5 115.5 C 64.8 116.0 65.1 116.5 65.4 117.0 C 65.4 117.0 65.5 117.1 65.5 117.2 C 65.9 117.8 66.3 118.3 66.6 118.9 C 66.7 119.0 66.8 119.1 66.9 119.3 C 67.2 119.7 67.5 120.1 67.8 120.5 C 67.9 120.7 68.0 120.8 68.1 121.0 C 68.5 121.5 68.9 122.0 69.3 122.5 C 69.3 122.6 69.4 122.6 69.4 122.6 C 69.8 123.1 70.1 123.6 70.5 124.1 C 70.6 124.2 70.8 124.3 70.9 124.5 C 71.2 124.9 71.5 125.3 71.9 125.6 C 72.0 125.7 72.1 125.9 72.2 126.0 C 72.7 126.5 73.1 127.0 73.6 127.5 C 73.7 127.6 73.8 127.8 74.0 127.9 C 74.4 128.3 74.9 128.8 75.3 129.2 C 75.4 129.3 75.5 129.4 75.5 129.4 C 76.0 129.9 76.6 130.4 77.1 130.8 C 77.2 130.9 77.3 131.1 77.5 131.2 C 78.0 131.6 78.6 132.1 79.1 132.5 C 83.6 136.1 88.3 138.6 92.9 140.1 C 93.0 140.1 93.0 140.1 93.1 140.1 C 94.1 140.4 95.2 140.7 96.2 140.9 C 96.5 141.0 96.8 141.0 97.1 141.1 C 97.3 141.1 97.4 141.1 97.6 141.2 C 98.1 141.2 98.6 141.3 99.0 141.4 C 99.4 141.4 99.7 141.4 100.0 141.5 C 100.3 141.5 100.7 141.5 101.0 141.5 C 101.4 141.6 101.8 141.6 102.2 141.6 C 102.5 141.6 102.7 141.6 102.9 141.6 C 103.1 141.6 103.3 141.6 103.5 141.6 C 110.5 137.5 116.2 130.2 119.6 120.1 C 119.8 119.4 120.0 118.6 120.3 117.9 C 120.3 117.6 120.4 117.4 120.5 117.1 C 120.6 116.6 120.7 116.1 120.9 115.6 C 120.9 115.3 121.0 115.0 121.1 114.7 C 121.2 114.2 121.3 113.7 121.4 113.2 C 121.5 112.9 121.5 112.6 121.6 112.3 C 121.7 111.8 121.8 111.2 121.8 110.7 C 121.9 110.4 121.9 110.2 122.0 109.9 C 122.1 109.1 122.2 108.3 122.3 107.5 C 122.3 107.4 122.3 107.4 122.3 107.3 C 122.4 106.6 122.4 105.8 122.5 105.1 C 122.5 104.8 122.5 104.6 122.5 104.3 C 122.5 104.2 122.5 104.2 122.5 104.1 L 121.1 109.0 L 121.1 109.0 L 112.2 111.6 C 110.9 112.9 109.4 113.8 107.9 114.2 L 94.4 118.1 C 94.4 118.1 94.4 118.1 94.4 118.1 L 94.4 118.1 L 94.4 118.1 C 94.2 118.1 94.1 118.2 94.0 118.2 C 94.0 118.2 93.9 118.2 93.8 118.2 C 93.8 118.3 93.7 118.3 93.7 118.3 C 93.5 118.3 93.3 118.3 93.1 118.4 C 92.5 118.4 92.0 118.4 91.4 118.4 C 90.9 118.3 90.4 118.3 89.9 118.1 C 89.8 118.1 89.7 118.1 89.6 118.0 C 89.5 118.0 89.4 118.0 89.3 118.0 C 89.3 118.0 89.3 117.9 89.3 117.9 C 88.7 117.7 88.1 117.5 87.5 117.2 C 87.3 117.0 87.0 116.9 86.7 116.7 C 86.2 116.4 85.6 116.0 85.1 115.6 C 84.9 115.4 84.6 115.2 84.4 115.0 C 84.3 115.0 84.3 114.9 84.2 114.8 C 84.1 114.7 83.9 114.6 83.8 114.5 C 83.7 114.4 83.6 114.3 83.6 114.2 C 83.4 114.1 83.3 114.0 83.2 113.9 C 83.1 113.8 83.0 113.7 83.0 113.6 C 82.9 113.5 82.7 113.4 82.6 113.3 C 82.6 113.3 82.6 113.2 82.6 113.2 C 82.5 113.2 82.5 113.1 82.5 113.1 C 82.2 112.8 81.9 112.5 81.7 112.2 C 81.7 112.1 81.7 112.1 81.6 112.1 C 81.4 111.8 81.2 111.4 80.9 111.1 C 80.9 111.1 80.9 111.0 80.9 111.0 C 80.6 110.7 80.4 110.3 80.2 110.0 C 80.2 109.9 80.2 109.9 80.1 109.8 C 79.9 109.5 79.7 109.1 79.6 108.8 C 79.5 108.7 79.5 108.7 79.5 108.6 C 79.3 108.3 79.1 107.9 79.0 107.6 C 79.0 107.5 78.9 107.5 78.9 107.4 C 78.7 107.0 78.6 106.7 78.5 106.3 C 78.4 106.3 78.4 106.3 78.4 106.3 C 78.4 106.0 78.3 105.8 78.2 105.6 L 78.2 105.6 L 78.2 105.6 C 78.2 105.5 78.1 105.4 78.1 105.3 C 78.0 105.1 78.0 105.0 78.0 104.8 C 77.9 104.6 77.8 104.3 77.7 104.1 C 77.7 103.9 77.6 103.8 77.6 103.7 C 77.5 103.3 77.4 103.0 77.4 102.7 C 77.3 102.6 77.3 102.5 77.3 102.5 C 77.2 102.1 77.1 101.7 77.0 101.3 C 77.0 101.1 77.0 101.0 77.0 100.9 C 76.9 100.6 76.9 100.3 76.8 100.0 C 76.8 99.9 76.8 99.8 76.7 99.6 C 76.7 99.3 76.7 99.1 76.6 98.8 C 76.6 98.7 76.6 98.5 76.6 98.4 C 76.5 98.1 76.5 97.8 76.5 97.6 C 76.4 97.4 76.4 97.3 76.4 97.1 C 76.4 96.8 76.3 96.5 76.3 96.2 C 76.3 96.1 76.3 96.0 76.3 95.9 C 76.2 95.5 76.2 95.1 76.2 94.7 L 76.2 94.6 L 67.3 97.2 L 57.4 90.6 C 57.9 86.5 58.6 81.8 59.5 77.6 L 53.7 73.4 L 54.4 70.9 C 65.9 67.0 77.5 63.4 89.1 60.2 C 89.7 60.5 90.3 60.9 90.8 61.3 C 91.1 61.5 91.3 61.7 91.6 61.9 C 91.6 62.0 91.7 62.0 91.8 62.1 C 91.9 62.2 92.1 62.4 92.2 62.5 C 92.3 62.6 92.4 62.7 92.5 62.8 C 92.6 62.9 92.7 63.0 92.9 63.1 C 92.9 63.2 93.0 63.3 93.1 63.4 C 93.2 63.5 93.3 63.6 93.5 63.8 C 93.5 63.8 93.5 63.8 93.6 63.9 C 93.6 63.9 93.6 63.9 93.6 64.0 C 93.9 64.3 94.2 64.6 94.4 64.9 C 94.5 65.0 94.5 65.0 94.5 65.1 C 94.8 65.4 95.1 65.8 95.3 66.1 L 95.3 66.1 C 95.5 66.5 95.8 66.8 96.0 67.2 C 96.0 67.2 96.0 67.3 96.1 67.3 C 96.3 67.6 96.5 68.0 96.6 68.3 C 96.7 68.4 96.7 68.5 96.7 68.5 C 96.9 68.9 97.1 69.2 97.2 69.6 C 97.3 69.6 97.3 69.7 97.3 69.8 C 97.5 70.1 97.6 70.5 97.8 70.9 C 97.8 70.9 97.8 70.9 97.8 71.0 C 98.0 71.3 98.1 71.7 98.2 72.1 C 98.2 72.1 98.2 72.1 98.2 72.2 C 98.4 72.5 98.5 72.9 98.6 73.3 C 98.6 73.4 98.6 73.4 98.6 73.5 C 98.7 73.9 98.8 74.2 98.9 74.6 C 98.9 74.7 99.0 74.7 99.0 74.8 C 99.1 75.2 99.2 75.5 99.2 75.9 C 99.2 76.0 99.3 76.0 99.3 76.1 C 99.3 76.5 99.4 76.9 99.5 77.3 C 99.5 77.3 99.5 77.3 99.5 77.3 C 99.6 77.7 99.6 78.1 99.7 78.5 C 99.7 78.5 99.7 78.6 99.7 78.6 C 99.8 79.0 99.8 79.4 99.9 79.8 C 99.9 79.8 99.9 79.9 99.9 80.0 C 99.9 80.0 99.9 80.0 99.9 80.0 L 109.3 77.3 L 119.5 84.0 C 119.5 84.0 119.5 84.1 119.5 84.1 C 119.5 84.2 119.5 84.2 119.5 84.2 C 119.5 84.3 119.5 84.3 119.5 84.4 C 119.5 84.5 119.6 84.5 119.6 84.6 C 119.6 84.7 119.6 84.8 119.6 84.9 C 119.6 84.9 119.6 85.0 119.6 85.1 C 119.6 85.2 119.6 85.3 119.6 85.4 C 119.6 85.5 119.6 85.6 119.6 85.7 C 119.6 85.8 119.6 85.9 119.6 86.1 C 119.6 86.2 119.6 86.3 119.6 86.4 C 119.6 86.6 119.6 86.7 119.6 86.9 C 119.6 87.0 119.6 87.1 119.6 87.3 C 119.6 87.4 119.6 87.6 119.6 87.8 C 119.6 87.9 119.6 88.1 119.6 88.2 C 119.6 88.4 119.6 88.6 119.6 88.8 C 119.6 89.0 119.6 89.1 119.5 89.3 C 119.5 89.5 119.5 89.7 119.5 89.9 C 119.5 90.1 119.5 90.3 119.5 90.5 C 119.5 90.7 119.4 90.9 119.4 91.1 C 119.4 91.3 119.4 91.5 119.4 91.7 C 119.3 91.9 119.3 92.2 119.3 92.4 C 119.3 92.6 119.2 92.8 119.2 93.0 C 119.2 93.3 119.1 93.5 119.1 93.8 C 119.1 94.0 119.0 94.2 119.0 94.4 C 119.0 94.7 118.9 94.9 118.9 95.2 C 118.9 95.4 118.8 95.7 118.8 95.9 C 118.7 96.2 118.7 96.4 118.6 96.7 C 118.6 96.9 118.5 97.2 118.5 97.4 C 118.4 97.7 118.3 98.0 118.3 98.3 C 118.2 98.5 118.2 98.8 118.1 99.0 C 118.1 99.1 118.1 99.3 118.0 99.4 C 117.9 99.7 117.9 100.0 117.8 100.4 C 117.8 100.4 117.8 100.4 117.8 100.4 L 117.8 100.4 L 122.5 103.9 C 122.6 103.5 122.6 103.0 122.6 102.6 C 122.6 102.3 122.6 102.0 122.6 101.7 C 122.6 101.2 122.6 100.6 122.6 100.1 C 122.6 99.8 122.6 99.5 122.6 99.2 C 122.6 98.6 122.6 98.0 122.6 97.4 C 122.6 97.2 122.6 97.0 122.6 96.7 C 122.5 95.9 122.5 95.1 122.4 94.2 C 122.4 94.1 122.4 94.0 122.4 93.9 C 122.3 93.2 122.2 92.4 122.1 91.7 C 122.1 91.5 122.1 91.2 122.0 90.9 C 122.0 90.3 121.9 89.8 121.8 89.2 C 121.8 88.9 121.7 88.6 121.7 88.3 C 121.6 87.8 121.5 87.2 121.4 86.7 C 121.3 86.4 121.3 86.1 121.2 85.8 C 121.1 85.2 121.0 84.6 120.9 84.0 C 120.8 83.8 120.8 83.5 120.7 83.3 C 120.5 82.5 120.3 81.7 120.1 80.9 C 120.1 80.7 120.0 80.6 120.0 80.4 C 119.8 79.7 119.7 79.1 119.5 78.4 C 119.4 78.1 119.3 77.9 119.2 77.6 C 119.0 77.1 118.9 76.5 118.7 76.0 C 118.6 75.7 118.5 75.4 118.4 75.1 C 118.2 74.6 118.1 74.1 117.9 73.5 C 117.8 73.3 117.7 73.0 117.6 72.7 C 117.3 72.1 117.1 71.5 116.9 70.9 C 116.8 70.7 116.7 70.5 116.6 70.3 C 116.3 69.6 116.0 68.8 115.7 68.0 C 115.6 67.9 115.5 67.7 115.4 67.5 C 115.2 66.9 114.9 66.3 114.6 65.8 C 114.5 65.5 114.3 65.2 114.2 65.0 C 114.0 64.5 113.7 64.0 113.5 63.5 C 113.3 63.2 113.2 63.0 113.0 62.7 C 112.8 62.2 112.5 61.7 112.2 61.3 C 112.1 61.0 111.9 60.8 111.8 60.5 C 111.5 60.0 111.1 59.4 110.8 58.9 C 110.7 58.7 110.6 58.5 110.5 58.4 C 110.1 57.7 109.6 57.0 109.1 56.3 C 109.0 56.2 108.9 56.0 108.8 55.8 C 108.6 55.6 108.5 55.4 108.3 55.1 C 115.1 53.5 121.8 51.9 128.6 50.5 C 128.9 50.9 129.2 51.4 129.4 51.8 C 129.5 51.9 129.6 52.1 129.7 52.2 C 130.0 52.8 130.4 53.5 130.8 54.1 C 130.8 54.2 130.9 54.3 130.9 54.4 C 131.3 55.0 131.6 55.6 131.9 56.3 C 132.0 56.4 132.0 56.5 132.1 56.6 C 132.4 57.2 132.7 57.9 133.1 58.6 C 133.1 58.7 133.2 58.8 133.3 59.0 C 133.6 59.7 133.9 60.3 134.2 61.0 C 134.3 61.1 134.3 61.2 134.3 61.3 C 134.6 61.9 134.9 62.6 135.2 63.3 C 135.2 63.4 135.3 63.5 135.3 63.6 C 135.6 64.3 135.9 65.0 136.1 65.7 C 136.2 65.8 136.3 66.0 136.3 66.1 C 136.6 66.8 136.8 67.5 137.1 68.3 C 137.1 68.3 137.1 68.4 137.2 68.5 C 137.4 69.2 137.6 69.9 137.9 70.6 C 137.9 70.7 137.9 70.8 138.0 70.9 C 138.2 71.6 138.4 72.3 138.6 73.1 L 138.7 73.5 C 138.9 74.2 139.1 75.0 139.3 75.7 C 139.4 75.8 139.4 75.9 139.4 76.0 C 139.6 76.7 139.7 77.4 139.9 78.1 C 139.9 78.2 140.0 78.3 140.0 78.4 C 140.2 79.2 140.3 79.9 140.5 80.6 C 140.5 80.8 140.5 80.9 140.5 81.1 C 140.7 81.8 140.8 82.6 141.0 83.3 C 141.0 83.4 141.0 83.5 141.0 83.5 C 141.1 84.3 141.2 85.0 141.3 85.7 C 141.3 85.8 141.4 85.9 141.4 86.1 C 141.5 86.8 141.6 87.6 141.7 88.3 C 141.7 88.4 141.7 88.6 141.7 88.8 C 141.8 89.5 141.9 90.3 141.9 91.0 C 141.9 91.1 141.9 91.1 141.9 91.2 C 142.0 91.9 142.0 92.6 142.1 93.4 C 142.1 93.5 142.1 93.6 142.1 93.8 C 142.1 94.5 142.2 95.2 142.2 96.0 C 142.2 96.1 142.2 96.3 142.2 96.4 C 142.2 97.2 142.2 97.9 142.2 98.7 C 142.2 98.7 142.2 98.8 142.2 98.8 C 142.2 99.5 142.2 100.3 142.1 101.0 C 142.1 101.1 142.1 101.3 142.1 101.4 C 142.1 102.1 142.1 102.8 142.0 103.6 C 142.0 103.7 142.0 103.9 142.0 104.0 C 141.9 104.8 141.9 105.5 141.8 106.2 C 141.8 106.3 141.8 106.3 141.8 106.3 C 141.7 107.1 141.6 107.8 141.5 108.5 C 141.5 108.6 141.5 108.8 141.4 108.9 C 141.3 109.6 141.2 110.3 141.1 111.0 C 141.1 111.2 141.1 111.3 141.0 111.4 C 140.9 112.2 140.8 112.9 140.6 113.6 C 140.6 113.6 140.6 113.6 140.6 113.7 C 140.4 114.4 140.3 115.1 140.1 115.8 C 140.1 115.8 140.1 115.9 140.0 116.0 C 140.0 116.1 140.0 116.1 140.0 116.2 C 139.8 116.8 139.6 117.5 139.5 118.2 C 139.4 118.3 139.4 118.5 139.3 118.6 C 139.1 119.3 138.9 120.0 138.7 120.7 C 137.6 124.0 136.3 127.0 134.8 129.7 C 134.3 130.5 133.9 131.3 133.4 132.0 C 131.6 135.0 129.5 137.6 127.3 139.8 C 126.1 140.9 124.9 141.9 123.7 142.9 C 123.1 143.3 122.5 143.8 121.9 144.2 C 120.6 145.0 119.3 145.8 117.9 146.4 C 117.6 146.6 117.3 146.8 116.9 146.9 C 115.6 147.5 114.2 148.0 112.8 148.4 L 99.2 152.3 C 107.5 149.9 114.8 144.3 120.1 135.6 C 120.1 135.6 120.1 135.6 120.0 135.6 C 119.2 136.2 118.4 136.8 117.6 137.3 C 117.0 137.7 116.4 138.0 115.9 138.3 C 115.3 138.6 114.7 138.9 114.1 139.2 C 113.8 139.3 113.5 139.4 113.2 139.5 C 112.3 139.9 111.4 140.2 110.5 140.5 L 104.4 142.2 L 96.9 144.4 C 96.6 144.5 96.2 144.6 95.8 144.7 C 95.6 144.7 95.3 144.8 95.1 144.8 C 94.6 144.9 94.0 145.0 93.5 145.1 C 93.4 145.1 93.3 145.2 93.2 145.2 C 92.9 145.2 92.5 145.3 92.1 145.3 C 91.9 145.3 91.6 145.4 91.3 145.4 C 91.1 145.4 90.9 145.4 90.7 145.4 C 90.3 145.4 89.8 145.5 89.4 145.5 C 89.2 145.5 89.1 145.5 88.9 145.5 C 88.4 145.5 88.0 145.5 87.5 145.4 C 87.4 145.4 87.4 145.4 87.3 145.4 C 86.7 145.4 86.1 145.3 85.5 145.3 C 85.2 145.2 84.9 145.2 84.6 145.1 C 84.3 145.1 83.9 145.0 83.5 145.0 C 83.3 144.9 83.2 144.9 83.0 144.9 C 77.2 143.7 71.3 140.9 65.6 136.4 C 65.0 136.0 64.5 135.5 63.9 135.1 " fill="#D66800"></path><path d="M 102.6 109.3 C 99.0 117.7 92.5 121.4 85.1 115.6 C 71.1 104.5 79.5 82.4 72.0 76.5 C 69.4 74.3 66.8 75.9 65.5 79.8 C 64.3 83.2 64.2 85.6 64.9 88.0 C 65.1 88.4 65.4 88.6 65.5 88.7 L 68.9 91.4 L 67.3 97.2 L 57.4 90.6 C 57.9 86.5 58.6 81.8 59.5 77.6 L 53.7 73.4 L 55.1 68.4 L 61.0 72.6 C 64.3 63.5 70.3 59.7 77.3 65.2 C 91.9 76.8 83.0 98.4 91.2 104.9 C 94.3 107.4 96.7 105.1 97.9 101.6 C 99.8 95.9 99.4 92.1 99.2 91.5 C 98.3 90.4 97.2 89.2 96.9 89.1 C 96.3 88.5 94.3 86.9 94.2 86.9 L 95.7 81.2 L 106.0 87.9 C 106.0 88.3 106.7 95.3 104.2 104.3 L 109.0 107.8 L 107.6 112.9 L 102.6 109.3 M 42.8 59.2 C 34.2 85.0 44.4 119.6 65.6 136.4 C 86.8 153.2 110.9 146.0 119.6 120.1 C 128.2 94.3 118.0 59.8 96.8 42.9 C 75.7 26.1 51.5 33.4 42.8 59.2 " fill="#FFE679"></path><path d="M 71.4 140.4 C 72.5 129.0 75.4 117.7 78.5 106.5 C 79.9 109.9 81.9 113.0 85.1 115.6 C 92.5 121.4 99.0 117.7 102.6 109.3 L 107.6 112.9 L 109.1 107.8 L 104.2 104.3 C 106.7 95.3 106.0 88.3 106.0 87.9 L 95.7 81.2 L 94.2 86.9 C 94.3 86.9 96.3 88.5 96.9 89.1 C 97.2 89.2 98.3 90.4 99.2 91.5 C 99.4 92.1 99.8 95.9 97.9 101.6 C 96.7 105.1 94.3 107.4 91.2 104.9 C 85.8 100.6 87.8 89.6 85.6 79.3 C 87.3 71.0 88.3 62.6 87.9 54.1 C 87.7 48.0 86.6 41.8 84.6 35.9 C 88.7 37.4 92.8 39.7 96.8 42.9 C 118.0 59.8 128.2 94.3 119.6 120.1 C 111.7 143.6 91.1 151.8 71.4 140.4 " fill="#FFD93A"></path><path d="M 71.2 76.0 C 69.7 76.2 68.4 77.7 67.5 80.2 C 66.4 83.6 66.3 86.0 66.9 88.4 C 67.2 88.8 67.4 89.0 67.5 89.1 L 70.9 91.8 L 69.3 97.6 L 67.3 97.2 L 68.9 91.4 L 65.5 88.7 C 65.4 88.6 65.1 88.4 64.9 88.0 C 64.2 85.6 64.3 83.2 65.5 79.8 C 66.7 76.3 68.9 74.7 71.2 76.0 " fill="#C76C10"></path><path d="M 61.3 71.8 C 61.2 72.0 61.1 72.3 61.0 72.6 L 55.1 68.4 L 57.2 68.8 Z M 61.3 71.8 " fill="#C76C10"></path><path d="M 104.3 110.5 C 101.4 116.7 96.8 120.1 91.5 118.4 C 96.1 118.8 100.1 115.2 102.6 109.3 Z M 104.3 110.5 " fill="#C76C10"></path><path d="M 42.8 59.2 C 49.3 39.9 64.4 31.0 80.5 34.7 C 65.2 32.2 51.1 41.1 44.9 59.6 C 36.3 85.4 46.4 120.0 67.6 136.8 C 73.0 141.1 78.5 143.8 83.9 145.0 C 77.9 144.0 71.6 141.2 65.6 136.4 C 44.4 119.6 34.2 85.0 42.8 59.2 " fill="#C76C10"></path><path d="M 97.8 81.6 L 108.0 88.3 C 108.1 88.7 108.7 95.7 106.3 104.7 L 111.1 108.2 L 109.6 113.3 L 107.8 112.0 L 109.0 107.8 L 104.2 104.3 C 106.7 95.3 106.0 88.3 106.0 87.9 L 97.6 82.4 Z M 97.8 81.6 " fill="#C76C10"></path><path d="M 73.5 63.1 C 75.4 63.2 77.3 64.0 79.4 65.6 C 93.9 77.2 85.0 98.8 93.3 105.3 C 93.6 105.6 93.9 105.8 94.2 105.9 C 93.3 106.1 92.3 105.8 91.2 104.9 C 83.0 98.4 91.9 76.8 77.3 65.2 C 76.0 64.2 74.7 63.5 73.5 63.1 " fill="#C76C10"></path><path d="M 55.1 68.4 L 53.7 73.4 L 59.5 77.6 C 58.6 81.8 57.9 86.5 57.4 90.6 L 67.3 97.2 L 68.9 91.4 L 65.5 88.7 C 65.4 88.6 65.1 88.4 64.9 88.0 C 64.2 85.6 64.3 83.2 65.5 79.8 C 66.8 75.9 69.4 74.3 72.0 76.5 C 79.5 82.4 71.1 104.5 85.1 115.6 C 92.5 121.4 99.0 117.8 102.6 109.3 L 107.6 112.9 L 109.0 107.8 L 104.2 104.3 C 106.7 95.3 106.0 88.3 106.0 87.9 L 95.7 81.2 L 94.2 86.9 C 94.3 86.9 96.3 88.5 96.9 89.1 C 97.2 89.2 98.3 90.4 99.2 91.5 C 99.4 92.1 99.8 95.9 97.9 101.6 C 96.7 105.1 94.3 107.4 91.2 104.9 C 83.0 98.4 91.9 76.8 77.3 65.2 C 70.3 59.7 64.3 63.5 61.0 72.6 Z M 55.1 68.4 " fill="#FFF3A9"></path><path d="M 77.8 101.8 C 80.2 93.4 82.5 84.9 84.2 76.4 C 85.7 80.9 86.0 85.7 86.3 90.2 C 86.8 96.8 87.1 102.4 90.9 105.4 C 92.9 107.0 94.8 106.9 96.4 105.3 C 97.3 104.5 98.0 103.3 98.5 101.7 C 100.2 96.4 100.0 92.5 99.8 91.4 L 99.8 91.2 L 99.7 91.1 C 99.2 90.6 97.9 89.0 97.3 88.6 C 96.8 88.2 95.5 87.2 94.9 86.6 L 96.1 82.1 L 105.4 88.2 C 105.5 89.7 105.8 96.1 103.7 104.1 L 103.6 104.5 L 108.4 108.0 L 107.3 111.9 L 102.4 108.4 L 102.1 109.0 C 101.0 111.5 99.7 113.6 98.2 115.1 C 94.5 118.8 90.1 118.8 85.4 115.1 C 81.0 111.6 78.8 106.9 77.8 101.9 Z M 77.8 101.8 " fill="#FFE061"></path><path d="M 119.6 120.1 C 110.9 146.0 86.8 153.2 65.6 136.4 C 44.4 119.6 34.2 85.0 42.8 59.2 C 51.5 33.4 75.7 26.1 96.8 42.9 C 118.0 59.8 128.2 94.3 119.6 120.1 M 37.3 54.8 C 27.4 84.3 39.0 123.9 63.3 143.2 C 87.6 162.5 115.3 154.1 125.1 124.6 C 135.0 95.0 123.4 55.4 99.1 36.1 C 74.9 16.9 47.2 25.2 37.3 54.8 " fill="#FFF1B4"></path><path d="M 52.3 42.3 C 64.3 30.2 81.9 30.3 97.2 42.5 C 118.5 59.4 128.8 94.3 120.1 120.3 C 117.8 127.1 114.5 132.8 110.2 137.1 C 98.1 149.1 80.5 149.0 65.2 136.9 C 43.9 119.9 33.6 85.0 42.3 59.0 C 44.6 52.2 47.9 46.6 52.3 42.3 M 113.5 143.1 C 118.3 138.3 122.1 132.0 124.6 124.4 C 134.4 95.1 122.8 55.7 98.8 36.6 C 81.8 23.1 62.2 23.0 48.9 36.2 C 44.1 41.1 40.4 47.4 37.8 55.0 C 28.0 84.3 39.6 123.6 63.7 142.8 C 80.7 156.2 100.2 156.4 113.5 143.1 " fill="#FFF1B4"></path><path d="M 65.8 144.4 C 65.8 142.1 66.0 139.9 66.2 137.6 C 81.3 149.0 98.4 148.8 110.2 137.1 C 114.5 132.8 117.8 127.1 120.1 120.3 C 128.8 94.3 118.5 59.4 97.2 42.5 C 91.4 37.9 85.3 35.0 79.2 33.9 C 78.4 31.4 77.4 28.9 76.2 26.6 C 83.7 27.5 91.5 30.8 98.8 36.6 C 122.8 55.7 134.4 95.1 124.6 124.4 C 122.1 132.0 118.3 138.3 113.5 143.1 C 100.8 155.8 82.3 156.2 65.8 144.4 " fill="#FCDE53"></path></g></g></g></g></g></svg>