<?xml version="1.0" encoding="UTF-8"?><svg xmlns="http://www.w3.org/2000/svg" xmlns:xlink="http://www.w3.org/1999/xlink" clip-rule="evenodd" stroke-miterlimit="4.00" viewBox="0 0 143 143"><desc>SVG generated by Keynote</desc><defs></defs><g transform="matrix(1.00, 0.00, -0.00, -1.00, 0.0, 143.0)"><g><clipPath id="clip-371"><path d="M 141.1 65.6 L 65.1 141.6 L 1.3 77.7 L 77.3 1.7 Z M 141.1 65.6 "></path></clipPath><g clip-path="url(#clip-371)"><g><clipPath id="clip-372"><path d="M 77.3 1.7 L 1.3 77.7 L 65.1 141.6 L 141.1 65.6 Z M 77.3 1.7 "></path></clipPath><g clip-path="url(#clip-372)"><path d="M 73.6 108.6 C 74.2 108.3 74.7 108.0 75.3 107.6 C 75.4 107.5 75.6 107.4 75.8 107.3 C 76.1 107.0 76.5 106.7 76.9 106.5 C 77.1 106.3 77.3 106.2 77.5 106.1 C 77.8 105.8 78.1 105.5 78.5 105.3 C 78.7 105.1 78.8 105.0 79.0 104.8 C 79.4 104.5 79.7 104.2 80.1 103.9 C 80.2 103.8 80.4 103.7 80.5 103.6 C 81.0 103.1 81.5 102.7 82.0 102.2 C 82.1 102.2 82.1 102.1 82.1 102.1 C 82.6 101.7 83.0 101.2 83.4 100.8 C 83.6 100.7 83.7 100.5 83.9 100.3 C 83.9 100.3 84.0 100.3 84.0 100.2 L 80.5 102.5 L 73.6 99.4 C 72.1 99.5 70.7 99.3 69.5 98.7 L 59.0 94.0 L 59.0 94.0 L 59.0 94.0 C 58.9 93.9 58.8 93.9 58.7 93.8 C 58.7 93.8 58.6 93.8 58.6 93.8 C 58.5 93.7 58.5 93.7 58.5 93.7 C 58.3 93.6 58.2 93.5 58.1 93.4 C 57.7 93.2 57.3 92.9 57.0 92.5 C 56.7 92.3 56.5 92.0 56.2 91.6 C 56.2 91.5 56.1 91.5 56.1 91.4 C 56.0 91.3 56.0 91.3 55.9 91.2 C 55.9 91.2 55.9 91.2 55.9 91.1 C 55.7 90.7 55.4 90.3 55.2 89.8 C 55.1 89.5 55.0 89.3 55.0 89.0 C 54.8 88.5 54.7 88.0 54.6 87.4 C 54.5 87.2 54.5 87.0 54.4 86.8 C 54.4 86.7 54.4 86.6 54.4 86.5 C 54.4 86.4 54.4 86.2 54.4 86.1 C 54.3 86.0 54.3 85.9 54.3 85.8 C 54.3 85.7 54.3 85.5 54.3 85.4 C 54.3 85.3 54.3 85.2 54.3 85.1 C 54.3 85.0 54.3 84.8 54.3 84.7 C 54.3 84.7 54.3 84.7 54.3 84.6 C 54.3 84.6 54.3 84.6 54.3 84.5 C 54.3 84.2 54.3 83.9 54.3 83.5 C 54.3 83.5 54.3 83.5 54.3 83.4 C 54.3 83.1 54.3 82.8 54.4 82.4 C 54.4 82.4 54.4 82.4 54.4 82.4 C 54.4 82.0 54.5 81.7 54.5 81.4 C 54.5 81.3 54.5 81.3 54.5 81.2 C 54.6 80.9 54.7 80.6 54.7 80.3 C 54.7 80.2 54.8 80.2 54.8 80.1 C 54.8 79.8 54.9 79.5 55.0 79.2 C 55.0 79.2 55.0 79.1 55.1 79.1 C 55.2 78.8 55.3 78.5 55.4 78.1 C 55.4 78.1 55.4 78.1 55.4 78.1 C 55.4 77.9 55.5 77.8 55.6 77.6 C 55.6 77.6 55.6 77.6 55.6 77.6 C 55.6 77.6 55.6 77.6 55.6 77.6 C 55.6 77.5 55.7 77.4 55.7 77.3 C 55.7 77.2 55.8 77.1 55.8 77.0 C 55.9 76.8 56.0 76.6 56.1 76.3 C 56.2 76.2 56.2 76.1 56.2 76.0 C 56.4 75.8 56.5 75.5 56.6 75.3 C 56.6 75.2 56.7 75.2 56.7 75.1 C 56.8 74.8 57.0 74.5 57.2 74.2 C 57.2 74.2 57.3 74.1 57.3 74.0 C 57.4 73.8 57.6 73.6 57.7 73.4 C 57.7 73.3 57.8 73.2 57.9 73.1 C 58.0 72.9 58.1 72.7 58.2 72.5 C 58.3 72.4 58.3 72.3 58.4 72.2 C 58.5 72.0 58.7 71.8 58.8 71.6 C 58.8 71.5 58.9 71.4 59.0 71.3 C 59.1 71.1 59.3 70.9 59.4 70.7 C 59.5 70.6 59.5 70.6 59.5 70.5 C 59.7 70.3 59.9 70.0 60.1 69.7 C 60.1 69.7 60.1 69.7 60.2 69.6 L 53.3 66.5 L 50.6 57.2 C 53.1 54.9 56.0 52.3 58.8 50.2 L 57.5 44.4 L 61.0 42.1 L 68.7 45.6 C 68.9 45.6 69.0 45.6 69.2 45.6 C 69.2 45.6 69.2 45.5 69.3 45.5 C 69.6 45.5 70.0 45.5 70.4 45.6 C 70.4 45.6 70.4 45.6 70.5 45.6 C 70.6 45.6 70.7 45.6 70.9 45.6 C 70.9 45.6 71.0 45.6 71.0 45.6 C 71.2 45.7 71.3 45.7 71.4 45.7 C 71.5 45.7 71.5 45.7 71.6 45.8 C 71.7 45.8 71.9 45.8 72.1 45.9 C 72.1 45.9 72.1 45.9 72.1 45.9 C 72.2 46.0 72.4 46.0 72.5 46.1 C 72.5 46.1 72.6 46.1 72.6 46.1 L 72.6 46.1 L 80.3 49.6 L 83.1 50.9 L 83.1 50.9 C 85.0 51.8 86.4 53.7 87.0 56.7 C 87.1 57.0 87.1 57.2 87.2 57.5 C 87.2 57.5 87.2 57.6 87.2 57.7 C 87.2 57.9 87.2 58.0 87.3 58.2 C 87.3 58.3 87.3 58.4 87.3 58.5 C 87.3 58.6 87.3 58.8 87.3 58.9 C 87.3 59.0 87.3 59.1 87.3 59.2 C 87.3 59.3 87.3 59.5 87.4 59.6 C 87.4 59.7 87.4 59.7 87.4 59.8 C 87.4 59.8 87.4 59.8 87.4 59.9 C 87.4 60.2 87.4 60.5 87.3 60.9 C 87.3 60.9 87.3 61.0 87.3 61.0 C 87.3 61.4 87.3 61.7 87.3 62.1 C 87.3 62.1 87.3 62.1 87.3 62.1 C 87.2 62.4 87.2 62.8 87.1 63.1 C 87.1 63.1 87.1 63.2 87.1 63.2 C 87.0 63.5 87.0 63.9 86.9 64.2 L 86.9 64.3 C 86.8 64.6 86.7 65.0 86.6 65.3 C 86.6 65.3 86.6 65.4 86.6 65.4 C 86.5 65.7 86.4 66.0 86.3 66.3 C 86.3 66.4 86.2 66.4 86.2 66.4 C 86.1 66.7 86.0 67.0 85.9 67.3 C 85.9 67.4 85.9 67.4 85.9 67.4 C 85.7 67.7 85.6 68.0 85.5 68.3 C 85.5 68.3 85.4 68.4 85.4 68.4 C 85.3 68.7 85.1 69.0 85.0 69.3 C 85.0 69.3 85.0 69.4 84.9 69.4 C 84.8 69.7 84.6 70.0 84.5 70.3 C 84.5 70.3 84.4 70.4 84.4 70.4 C 84.3 70.7 84.1 71.0 83.9 71.2 C 83.9 71.3 83.9 71.3 83.9 71.3 C 83.7 71.6 83.6 71.8 83.4 72.1 C 83.4 72.1 83.4 72.2 83.3 72.2 C 83.2 72.5 83.0 72.7 82.8 73.0 C 82.8 73.0 82.8 73.1 82.7 73.1 C 82.7 73.1 82.7 73.1 82.7 73.2 L 90.0 76.5 L 92.8 86.1 C 92.8 86.1 92.8 86.1 92.7 86.2 C 92.7 86.2 92.7 86.2 92.7 86.2 C 92.7 86.3 92.7 86.3 92.6 86.4 C 92.6 86.4 92.6 86.5 92.5 86.5 C 92.5 86.5 92.5 86.6 92.4 86.7 C 92.4 86.7 92.3 86.8 92.3 86.8 C 92.2 86.9 92.2 86.9 92.1 87.0 C 92.1 87.1 92.0 87.1 92.0 87.2 C 91.9 87.3 91.8 87.4 91.8 87.5 C 91.7 87.5 91.7 87.6 91.6 87.7 C 91.5 87.8 91.4 87.9 91.3 88.0 C 91.3 88.0 91.2 88.1 91.1 88.2 C 91.0 88.3 91.0 88.4 90.9 88.5 C 90.8 88.6 90.7 88.7 90.6 88.8 C 90.5 88.9 90.4 89.0 90.3 89.1 C 90.2 89.2 90.1 89.3 90.0 89.4 C 89.9 89.5 89.8 89.7 89.7 89.8 C 89.6 89.9 89.5 90.0 89.4 90.1 C 89.2 90.2 89.1 90.4 89.0 90.5 C 88.9 90.6 88.7 90.7 88.6 90.8 C 88.5 90.9 88.4 91.1 88.2 91.2 C 88.1 91.3 88.0 91.4 87.8 91.6 C 87.7 91.7 87.5 91.8 87.4 92.0 C 87.2 92.1 87.1 92.2 87.0 92.3 C 86.8 92.5 86.6 92.6 86.5 92.7 C 86.3 92.9 86.2 93.0 86.0 93.1 C 85.8 93.3 85.7 93.4 85.5 93.5 C 85.3 93.7 85.2 93.8 85.0 93.9 C 84.8 94.1 84.6 94.2 84.5 94.3 C 84.3 94.5 84.1 94.6 83.9 94.7 C 83.9 94.8 83.8 94.8 83.7 94.9 C 83.5 95.0 83.3 95.2 83.0 95.4 C 83.0 95.4 83.0 95.4 83.0 95.4 L 84.1 100.1 C 84.4 99.8 84.6 99.6 84.8 99.3 C 85.0 99.2 85.2 99.0 85.3 98.8 C 85.6 98.5 85.9 98.1 86.2 97.8 C 86.4 97.6 86.5 97.4 86.7 97.2 C 87.0 96.9 87.3 96.5 87.6 96.1 C 87.7 95.9 87.8 95.8 87.9 95.6 C 88.4 95.1 88.8 94.6 89.2 94.0 C 89.2 93.9 89.3 93.8 89.3 93.8 C 89.7 93.3 90.0 92.8 90.3 92.3 C 90.5 92.1 90.6 91.9 90.7 91.7 C 91.0 91.4 91.2 91.0 91.5 90.6 C 91.6 90.4 91.7 90.2 91.9 89.9 C 92.1 89.5 92.3 89.2 92.6 88.8 C 92.7 88.6 92.8 88.3 92.9 88.1 C 93.2 87.7 93.4 87.3 93.7 86.8 C 93.8 86.6 93.8 86.5 93.9 86.3 C 94.3 85.7 94.6 85.1 94.9 84.5 C 94.9 84.4 95.0 84.2 95.0 84.1 C 95.3 83.6 95.5 83.1 95.8 82.6 C 95.9 82.4 95.9 82.2 96.0 81.9 C 96.2 81.5 96.4 81.1 96.6 80.7 C 96.7 80.4 96.8 80.2 96.9 80.0 C 97.0 79.5 97.2 79.1 97.4 78.7 C 97.5 78.5 97.5 78.2 97.6 78.0 C 97.8 77.5 98.0 77.0 98.1 76.6 C 98.2 76.4 98.2 76.2 98.3 76.1 C 98.5 75.4 98.7 74.8 98.9 74.1 C 99.0 74.0 99.0 73.8 99.0 73.7 C 99.2 73.1 99.3 72.6 99.5 72.1 C 99.5 71.9 99.6 71.7 99.6 71.4 C 99.7 71.0 99.9 70.5 99.9 70.1 C 100.0 69.9 100.1 69.6 100.1 69.4 C 100.2 68.9 100.3 68.5 100.4 68.0 C 100.4 67.8 100.5 67.6 100.5 67.3 C 100.6 66.8 100.7 66.3 100.8 65.8 C 100.8 65.7 100.8 65.5 100.8 65.3 C 100.9 64.7 101.0 64.0 101.1 63.3 C 101.1 63.2 101.1 63.0 101.1 62.8 C 101.2 62.3 101.2 61.8 101.3 61.3 C 101.3 61.1 101.3 60.9 101.3 60.6 C 101.3 60.2 101.4 59.8 101.4 59.3 C 101.4 59.1 101.4 58.8 101.4 58.6 C 101.4 58.2 101.4 57.7 101.4 57.3 C 101.4 57.1 101.4 56.8 101.4 56.6 C 101.4 56.2 101.4 55.8 101.4 55.4 C 101.3 55.1 101.3 54.8 101.3 54.5 C 101.3 54.1 101.3 53.7 101.2 53.3 C 101.2 53.0 101.2 52.7 101.1 52.5 C 101.1 52.0 101.0 51.6 101.0 51.1 C 101.0 50.9 100.9 50.7 100.9 50.4 C 100.8 49.8 100.7 49.1 100.6 48.4 C 99.9 45.1 98.9 42.0 97.6 39.3 C 97.1 38.3 96.5 37.2 95.9 36.3 C 95.0 34.8 94.0 33.5 92.8 32.3 C 92.0 31.4 91.1 30.6 90.2 29.9 C 90.2 29.8 90.2 29.8 90.1 29.8 C 90.0 29.8 89.9 29.8 89.8 29.8 C 89.6 29.7 89.3 29.7 89.1 29.7 C 89.0 29.7 89.0 29.7 88.9 29.7 C 88.6 29.6 88.3 29.6 88.0 29.6 C 87.9 29.5 87.8 29.5 87.7 29.5 C 87.5 29.5 87.2 29.5 86.9 29.5 C 86.8 29.5 86.7 29.5 86.6 29.5 C 86.3 29.5 86.1 29.5 85.8 29.5 C 85.7 29.5 85.7 29.5 85.6 29.5 C 85.3 29.5 84.9 29.5 84.6 29.5 C 84.5 29.5 84.4 29.5 84.3 29.5 C 84.0 29.5 83.8 29.5 83.5 29.6 C 83.4 29.6 83.3 29.6 83.2 29.6 C 82.9 29.6 82.5 29.7 82.2 29.7 C 82.2 29.7 82.2 29.7 82.1 29.7 C 81.8 29.8 81.4 29.8 81.1 29.9 C 81.0 29.9 80.9 29.9 80.8 29.9 C 80.5 30.0 80.2 30.0 80.0 30.1 C 79.9 30.1 79.8 30.1 79.7 30.1 C 79.3 30.2 79.0 30.3 78.6 30.4 C 78.5 30.4 78.5 30.4 78.4 30.4 C 78.1 30.5 77.8 30.6 77.5 30.7 C 77.4 30.7 77.3 30.8 77.2 30.8 C 76.9 30.9 76.6 31.0 76.3 31.1 C 76.2 31.1 76.2 31.1 76.1 31.2 C 75.7 31.3 75.4 31.4 75.0 31.6 C 74.9 31.6 74.8 31.6 74.7 31.7 C 74.5 31.8 74.2 31.9 73.9 32.0 C 73.8 32.1 73.7 32.1 73.5 32.2 C 73.2 32.3 72.9 32.4 72.6 32.6 C 72.5 32.6 72.5 32.6 72.4 32.7 C 72.1 32.8 71.7 33.0 71.3 33.2 C 71.2 33.2 71.1 33.3 71.0 33.4 C 70.8 33.5 70.5 33.6 70.2 33.8 C 70.1 33.9 70.0 33.9 69.9 34.0 C 69.5 34.2 69.1 34.4 68.8 34.6 C 68.3 34.9 67.8 35.2 67.3 35.5 C 67.2 35.6 67.0 35.7 66.8 35.8 C 66.5 36.1 66.2 36.3 65.9 36.5 C 65.7 36.6 65.5 36.8 65.4 36.9 C 65.1 37.1 64.8 37.3 64.5 37.5 C 64.3 37.6 64.1 37.8 64.0 38.0 C 63.7 38.2 63.4 38.4 63.2 38.6 C 63.0 38.7 62.8 38.9 62.6 39.1 C 62.3 39.3 62.1 39.5 61.9 39.7 C 61.7 39.9 61.5 40.0 61.3 40.2 C 61.0 40.4 60.8 40.6 60.6 40.9 C 60.4 41.0 60.2 41.2 60.0 41.4 C 59.8 41.6 59.5 41.9 59.3 42.1 C 59.1 42.3 58.9 42.5 58.7 42.7 C 58.5 42.9 58.3 43.1 58.1 43.3 C 57.9 43.5 57.7 43.7 57.5 43.9 C 57.3 44.2 57.1 44.4 56.9 44.7 C 56.7 44.9 56.5 45.1 56.4 45.3 C 56.2 45.5 55.9 45.8 55.7 46.0 C 55.6 46.2 55.4 46.4 55.2 46.6 C 55.0 46.9 54.8 47.1 54.6 47.4 C 54.5 47.6 54.3 47.8 54.1 48.0 C 53.9 48.3 53.7 48.6 53.5 48.8 C 53.4 49.0 53.2 49.3 53.1 49.5 C 52.9 49.8 52.7 50.0 52.5 50.3 C 52.3 50.5 52.2 50.7 52.0 51.0 C 51.8 51.2 51.7 51.5 51.5 51.8 C 51.3 52.0 51.2 52.2 51.0 52.5 C 50.9 52.8 50.7 53.0 50.5 53.3 C 50.4 53.6 50.2 53.8 50.1 54.0 C 49.8 54.5 49.5 54.9 49.3 55.4 C 49.2 55.5 49.2 55.5 49.2 55.6 C 48.9 56.0 48.7 56.5 48.5 56.9 L 48.3 57.3 C 48.1 57.7 47.8 58.1 47.7 58.5 C 47.6 58.6 47.5 58.7 47.5 58.8 C 47.2 59.3 47.0 59.8 46.8 60.3 C 46.7 60.4 46.7 60.6 46.6 60.7 C 46.4 61.1 46.3 61.5 46.1 61.9 C 46.0 62.0 46.0 62.2 45.9 62.3 C 45.7 62.8 45.5 63.2 45.3 63.7 C 45.3 63.8 45.3 63.8 45.3 63.9 C 45.1 64.4 44.9 64.9 44.7 65.4 C 44.6 65.6 44.6 65.7 44.5 65.8 C 44.4 66.2 44.3 66.6 44.1 67.0 C 44.1 67.2 44.0 67.3 44.0 67.5 C 43.8 68.0 43.7 68.5 43.5 69.1 C 43.5 69.1 43.5 69.2 43.4 69.2 C 43.3 69.7 43.2 70.2 43.0 70.7 C 43.0 70.8 43.0 71.0 42.9 71.1 C 42.8 71.5 42.7 72.0 42.6 72.4 C 42.6 72.5 42.5 72.6 42.5 72.8 C 42.4 73.3 42.3 73.8 42.2 74.3 C 42.1 74.5 42.1 74.6 42.1 74.7 C 42.0 75.1 41.9 75.6 41.9 76.0 C 41.8 76.1 41.8 76.3 41.8 76.5 C 41.7 76.9 41.6 77.4 41.6 77.8 C 41.5 77.9 41.5 78.0 41.5 78.1 C 41.4 78.6 41.4 79.1 41.3 79.7 C 41.3 79.8 41.3 80.0 41.3 80.1 C 41.2 80.5 41.2 80.9 41.2 81.3 C 41.1 81.5 41.1 81.6 41.1 81.8 C 41.1 82.3 41.0 82.9 41.0 83.4 C 41.0 83.4 41.0 83.5 41.0 83.5 C 41.0 84.0 41.0 84.5 41.0 85.0 C 41.0 85.1 41.0 85.3 41.0 85.4 C 41.0 85.9 41.0 86.3 41.0 86.7 C 41.0 86.8 41.0 86.9 41.0 87.1 C 41.0 87.6 41.0 88.2 41.1 88.8 C 41.1 88.9 41.1 89.1 41.1 89.2 C 41.1 89.7 41.2 90.2 41.2 90.8 C 41.2 90.8 41.2 90.9 41.2 91.0 C 41.3 91.6 41.4 92.1 41.5 92.7 C 41.5 92.8 41.5 93.0 41.5 93.1 C 41.6 93.7 41.7 94.3 41.8 94.8 C 42.7 99.5 44.3 103.5 46.4 106.9 C 46.4 106.9 46.5 106.9 46.5 107.0 C 47.0 107.7 47.5 108.5 48.0 109.1 C 48.2 109.3 48.3 109.5 48.5 109.7 C 48.6 109.8 48.7 110.0 48.8 110.1 C 49.0 110.4 49.3 110.7 49.5 111.0 C 49.7 111.1 49.9 111.3 50.1 111.5 C 50.3 111.7 50.5 111.9 50.7 112.1 C 50.9 112.3 51.2 112.5 51.4 112.8 C 51.6 112.9 51.7 113.0 51.9 113.2 C 52.0 113.2 52.1 113.3 52.2 113.4 C 58.7 114.6 66.2 113.1 73.6 108.6 M 73.4 90.0 L 65.6 86.4 C 65.4 86.3 65.2 86.2 65.0 86.0 C 65.0 86.1 65.0 86.1 65.0 86.2 C 65.0 86.5 64.9 86.8 64.9 87.1 C 64.9 87.2 64.9 87.2 64.9 87.2 C 64.8 87.6 64.8 87.9 64.8 88.2 C 64.8 88.2 64.8 88.3 64.8 88.3 C 64.8 88.6 64.8 89.0 64.8 89.3 C 64.8 89.4 64.8 89.4 64.8 89.5 C 64.8 89.6 64.8 89.8 64.8 89.9 C 64.8 90.0 64.8 90.1 64.8 90.2 C 64.8 90.3 64.8 90.4 64.8 90.6 C 64.8 90.7 64.8 90.8 64.9 90.8 C 64.9 91.0 64.9 91.2 64.9 91.3 C 64.9 91.4 64.9 91.5 64.9 91.5 C 65.0 91.8 65.0 92.0 65.1 92.2 C 65.2 92.8 65.3 93.3 65.5 93.8 C 65.5 93.9 65.5 94.0 65.6 94.1 C 66.6 93.8 67.7 93.4 68.9 92.8 L 73.5 95.0 L 72.5 90.6 C 72.8 90.4 73.1 90.2 73.4 90.0 M 72.9 52.6 L 72.9 52.6 L 68.3 50.5 L 69.3 55.0 C 69.2 55.1 69.0 55.2 68.9 55.3 L 76.2 58.7 C 76.2 58.7 76.3 58.7 76.3 58.7 C 76.4 58.8 76.4 58.8 76.5 58.8 C 76.5 58.8 76.5 58.8 76.5 58.8 C 76.5 58.7 76.6 58.6 76.6 58.4 C 76.6 58.4 76.6 58.4 76.6 58.3 C 76.7 58.0 76.7 57.6 76.8 57.3 C 76.8 57.3 76.8 57.3 76.8 57.3 C 76.8 56.9 76.8 56.6 76.8 56.2 C 76.8 56.2 76.8 56.1 76.8 56.1 C 76.9 55.8 76.9 55.4 76.9 55.1 C 76.9 55.0 76.8 54.9 76.8 54.8 C 76.8 54.7 76.8 54.6 76.8 54.4 C 76.8 54.3 76.8 54.2 76.8 54.1 C 76.8 54.0 76.8 53.8 76.8 53.7 C 76.8 53.6 76.8 53.5 76.7 53.4 C 76.7 53.2 76.7 53.1 76.7 52.9 C 76.7 52.8 76.7 52.8 76.7 52.7 C 76.6 52.4 76.6 52.2 76.5 51.9 C 76.5 51.6 76.4 51.3 76.3 51.1 C 76.1 51.1 76.0 51.2 75.8 51.2 C 75.8 51.3 75.7 51.3 75.6 51.3 C 75.2 51.5 74.8 51.7 74.4 51.9 C 74.3 51.9 74.3 51.9 74.2 51.9 C 73.8 52.2 73.4 52.4 72.9 52.6 M 40.1 107.2 C 39.7 106.9 39.4 106.5 39.0 106.2 C 38.9 106.0 38.7 105.8 38.5 105.6 C 38.3 105.4 38.1 105.2 37.9 104.9 C 37.9 104.8 37.8 104.7 37.7 104.6 C 34.7 100.8 32.5 95.9 31.3 90.0 C 31.2 89.5 31.1 88.9 31.0 88.3 C 31.0 88.2 31.0 88.1 31.0 87.9 C 30.9 87.4 30.8 86.8 30.7 86.2 C 30.7 86.1 30.7 86.1 30.7 86.0 C 30.7 85.5 30.6 84.9 30.6 84.4 C 30.6 84.3 30.6 84.1 30.6 84.0 C 30.5 83.4 30.5 82.9 30.5 82.3 C 30.5 82.2 30.5 82.2 30.5 82.2 C 30.5 82.1 30.5 82.0 30.5 81.9 C 30.5 81.5 30.5 81.1 30.5 80.7 C 30.5 80.5 30.5 80.4 30.5 80.2 C 30.5 79.7 30.5 79.2 30.5 78.7 C 30.5 78.7 30.5 78.6 30.5 78.6 C 30.5 78.1 30.6 77.5 30.6 77.0 C 30.6 76.9 30.6 76.7 30.7 76.6 C 30.7 76.1 30.7 75.7 30.8 75.3 C 30.8 75.2 30.8 75.0 30.8 74.9 C 30.9 74.4 30.9 73.8 31.0 73.3 C 31.0 73.2 31.0 73.1 31.1 73.1 C 31.1 72.6 31.2 72.1 31.3 71.7 C 31.3 71.5 31.3 71.4 31.4 71.2 C 31.4 70.8 31.5 70.3 31.6 69.9 C 31.6 69.8 31.6 69.7 31.7 69.6 C 31.8 69.0 31.9 68.5 32.0 68.0 C 32.0 67.8 32.1 67.7 32.1 67.6 C 32.2 67.2 32.3 66.8 32.4 66.3 C 32.5 66.2 32.5 66.0 32.5 65.9 C 32.7 65.4 32.8 64.9 32.9 64.5 C 33.0 64.4 33.0 64.3 33.0 64.3 C 33.1 63.8 33.3 63.2 33.5 62.7 C 33.5 62.6 33.6 62.4 33.6 62.3 C 33.8 61.9 33.9 61.5 34.0 61.1 C 34.1 60.9 34.1 60.8 34.2 60.6 C 34.4 60.1 34.6 59.6 34.8 59.1 C 34.8 59.0 34.8 59.0 34.8 58.9 C 35.0 58.5 35.2 58.0 35.4 57.5 C 35.5 57.4 35.5 57.2 35.6 57.1 C 35.8 56.7 35.9 56.3 36.1 55.9 C 36.2 55.8 36.2 55.7 36.3 55.5 C 36.5 55.0 36.7 54.5 37.0 54.0 C 37.0 53.9 37.1 53.8 37.1 53.7 C 37.3 53.3 37.5 52.9 37.7 52.5 C 37.8 52.4 37.9 52.2 38.0 52.1 C 38.2 51.7 38.4 51.3 38.7 50.8 C 38.7 50.8 38.7 50.7 38.8 50.6 C 39.0 50.2 39.2 49.8 39.5 49.4 C 39.5 49.3 39.6 49.3 39.6 49.2 C 39.7 49.0 39.9 48.8 40.0 48.5 C 40.2 48.3 40.4 48.0 40.5 47.7 C 40.7 47.5 40.8 47.2 41.0 47.0 C 41.2 46.7 41.3 46.5 41.5 46.2 C 41.7 46.0 41.8 45.7 42.0 45.5 C 42.2 45.2 42.4 45.0 42.5 44.7 C 42.7 44.5 42.9 44.3 43.0 44.0 C 43.2 43.8 43.4 43.5 43.6 43.3 C 43.8 43.0 43.9 42.8 44.1 42.6 C 44.3 42.4 44.5 42.1 44.7 41.9 C 44.9 41.6 45.1 41.4 45.2 41.2 C 45.4 41.0 45.6 40.7 45.9 40.5 C 46.0 40.3 46.2 40.1 46.4 39.9 C 46.6 39.6 46.8 39.4 47.0 39.2 C 47.2 39.0 47.4 38.8 47.6 38.6 C 47.8 38.3 48.0 38.1 48.2 37.9 C 48.4 37.7 48.6 37.5 48.8 37.3 C 49.0 37.1 49.3 36.9 49.5 36.6 C 49.7 36.4 49.9 36.3 50.1 36.1 C 50.3 35.9 50.5 35.6 50.8 35.4 C 51.0 35.3 51.2 35.1 51.4 34.9 C 51.6 34.7 51.8 34.5 52.1 34.3 C 52.3 34.1 52.5 34.0 52.7 33.8 C 52.9 33.6 53.2 33.4 53.4 33.2 C 53.6 33.0 53.8 32.9 54.0 32.7 C 54.3 32.5 54.6 32.3 54.9 32.1 C 55.0 32.0 55.2 31.9 55.3 31.8 C 55.4 31.7 55.4 31.7 55.4 31.7 C 55.7 31.5 56.0 31.3 56.3 31.1 C 56.5 31.0 56.7 30.8 56.8 30.7 C 57.3 30.4 57.8 30.1 58.3 29.8 C 58.6 29.6 59.0 29.4 59.4 29.2 C 59.5 29.1 59.6 29.1 59.7 29.0 C 60.0 28.9 60.2 28.7 60.5 28.6 C 60.6 28.5 60.7 28.5 60.8 28.4 C 61.2 28.2 61.6 28.0 61.9 27.9 C 62.0 27.9 62.0 27.8 62.1 27.8 C 62.4 27.7 62.7 27.5 63.0 27.4 C 63.1 27.3 63.3 27.3 63.4 27.2 C 63.7 27.1 63.9 27.0 64.2 26.9 C 64.3 26.9 64.4 26.8 64.5 26.8 C 64.8 26.6 65.2 26.5 65.6 26.4 C 65.7 26.4 65.7 26.3 65.8 26.3 C 66.1 26.2 66.4 26.1 66.7 26.0 C 66.8 26.0 66.9 26.0 67.0 25.9 C 67.3 25.8 67.6 25.8 67.9 25.7 C 68.0 25.7 68.0 25.6 68.1 25.6 C 68.5 25.5 68.8 25.4 69.2 25.4 C 69.3 25.3 69.4 25.3 69.5 25.3 C 69.7 25.3 70.0 25.2 70.3 25.1 C 70.4 25.1 70.5 25.1 70.6 25.1 C 70.9 25.0 71.3 25.0 71.6 24.9 C 71.6 24.9 71.7 24.9 71.7 24.9 C 72.0 24.9 72.4 24.8 72.7 24.8 C 72.8 24.8 72.9 24.8 73.0 24.8 C 73.3 24.8 73.5 24.7 73.8 24.7 C 73.9 24.7 74.0 24.7 74.1 24.7 C 74.4 24.7 74.8 24.7 75.1 24.7 C 75.2 24.7 75.2 24.7 75.3 24.7 C 75.6 24.7 75.8 24.7 76.1 24.7 C 76.2 24.7 76.3 24.7 76.4 24.7 C 76.7 24.7 77.0 24.7 77.2 24.8 C 77.3 24.8 77.3 24.8 77.4 24.8 C 77.4 24.8 77.4 24.8 77.4 24.8 C 77.8 24.8 78.1 24.8 78.4 24.9 C 78.5 24.9 78.5 24.9 78.6 24.9 C 78.8 24.9 79.1 25.0 79.3 25.0 C 79.4 25.0 79.5 25.0 79.6 25.1 C 79.8 25.1 80.1 25.1 80.3 25.2 C 80.4 25.2 80.5 25.2 80.6 25.2 C 80.8 25.3 81.1 25.4 81.3 25.4 C 81.4 25.4 81.4 25.4 81.5 25.5 C 81.8 25.5 82.1 25.6 82.4 25.7 C 82.4 25.7 82.5 25.8 82.6 25.8 C 82.8 25.9 83.0 25.9 83.2 26.0 C 83.3 26.0 83.4 26.1 83.5 26.1 C 83.7 26.2 83.9 26.3 84.1 26.3 C 84.2 26.4 84.3 26.4 84.4 26.4 C 84.7 26.6 85.0 26.7 85.2 26.8 L 85.2 26.8 L 85.2 26.8 L 85.2 26.8 L 91.0 29.4 L 95.8 31.6 L 95.7 31.6 L 95.8 31.6 L 95.8 31.6 L 95.8 31.6 C 98.4 32.8 100.8 34.5 103.0 36.7 C 99.7 29.0 94.5 23.5 88.1 20.6 L 98.6 25.4 C 107.2 29.3 113.7 37.9 116.1 50.2 C 116.2 50.9 116.4 51.6 116.5 52.3 C 116.5 52.4 116.5 52.4 116.5 52.5 C 116.6 53.1 116.7 53.8 116.7 54.5 C 116.8 54.6 116.8 54.7 116.8 54.7 C 116.8 55.4 116.9 56.1 116.9 56.8 C 116.9 56.9 117.0 57.0 117.0 57.1 C 117.0 57.7 117.0 58.4 117.0 59.1 C 117.0 59.1 117.1 59.2 117.1 59.2 C 117.1 59.3 117.1 59.3 117.1 59.4 C 117.1 60.0 117.1 60.6 117.1 61.2 C 117.1 61.3 117.1 61.3 117.1 61.4 C 117.1 62.0 117.0 62.6 117.0 63.1 C 117.0 63.2 117.0 63.3 117.0 63.4 C 117.0 63.9 116.9 64.5 116.9 65.1 C 116.9 65.3 116.9 65.4 116.9 65.5 C 116.8 66.1 116.8 66.7 116.7 67.3 C 116.7 67.4 116.7 67.5 116.7 67.6 C 116.6 68.1 116.5 68.7 116.5 69.3 C 116.4 69.4 116.4 69.4 116.4 69.5 C 116.3 70.1 116.2 70.7 116.1 71.3 C 116.1 71.4 116.1 71.6 116.1 71.7 C 116.0 72.3 115.9 72.9 115.7 73.5 L 115.7 73.7 C 115.6 74.3 115.4 74.9 115.3 75.4 C 115.3 75.5 115.3 75.6 115.3 75.7 C 115.1 76.3 115.0 76.9 114.8 77.5 L 114.7 77.8 C 114.6 78.4 114.4 79.0 114.2 79.6 C 114.2 79.7 114.2 79.8 114.1 79.8 C 114.0 80.4 113.8 81.0 113.6 81.5 C 113.6 81.6 113.6 81.7 113.5 81.8 C 113.3 82.4 113.1 83.0 112.9 83.5 C 112.9 83.7 112.8 83.8 112.8 83.9 C 112.6 84.5 112.4 85.1 112.1 85.6 C 112.1 85.7 112.1 85.8 112.1 85.8 C 111.9 86.4 111.6 86.9 111.4 87.5 C 111.4 87.6 111.3 87.7 111.3 87.8 C 111.0 88.3 110.8 88.9 110.5 89.5 C 110.5 89.6 110.4 89.7 110.4 89.8 C 110.1 90.4 109.9 90.9 109.6 91.5 C 109.6 91.6 109.5 91.6 109.5 91.7 C 109.2 92.2 109.0 92.7 108.7 93.3 C 108.6 93.3 108.6 93.4 108.5 93.5 C 108.3 94.1 108.0 94.6 107.7 95.2 C 107.6 95.3 107.5 95.4 107.5 95.5 C 107.2 96.0 106.9 96.6 106.5 97.1 C 106.5 97.2 106.5 97.2 106.4 97.2 C 106.1 97.8 105.8 98.3 105.5 98.8 C 105.5 98.9 105.4 98.9 105.3 99.0 C 105.0 99.5 104.7 100.1 104.3 100.6 C 104.3 100.7 104.2 100.8 104.1 100.9 C 103.8 101.4 103.4 101.9 103.0 102.4 C 103.0 102.4 103.0 102.5 103.0 102.5 C 102.6 103.0 102.3 103.5 101.9 103.9 C 101.8 104.0 101.8 104.1 101.7 104.2 C 101.3 104.7 101.0 105.2 100.6 105.6 C 100.5 105.7 100.4 105.8 100.3 105.9 C 99.9 106.4 99.5 106.9 99.1 107.3 C 99.1 107.4 99.1 107.4 99.1 107.4 C 98.7 107.9 98.3 108.3 97.9 108.7 C 97.8 108.8 97.7 108.9 97.7 109.0 C 97.2 109.4 96.8 109.8 96.4 110.3 L 96.2 110.5 C 95.7 111.0 95.3 111.4 94.9 111.8 C 94.8 111.8 94.8 111.8 94.8 111.9 C 94.4 112.3 93.9 112.7 93.5 113.1 C 93.4 113.1 93.3 113.2 93.2 113.3 C 92.8 113.7 92.3 114.0 91.9 114.4 C 91.8 114.5 91.7 114.6 91.6 114.6 C 91.2 115.0 90.7 115.4 90.2 115.8 L 90.2 115.8 C 89.7 116.2 89.2 116.5 88.7 116.8 C 88.7 116.9 88.6 116.9 88.6 117.0 C 88.5 117.0 88.5 117.0 88.5 117.0 C 88.0 117.4 87.5 117.7 87.0 118.0 C 86.9 118.1 86.9 118.1 86.8 118.2 C 86.3 118.5 85.8 118.8 85.2 119.2 C 82.8 120.6 80.4 121.8 78.0 122.7 C 77.3 123.0 76.6 123.2 76.0 123.4 C 73.2 124.3 70.6 124.8 68.0 125.0 C 66.7 125.1 65.4 125.1 64.1 125.0 C 63.5 125.0 62.9 124.9 62.2 124.9 C 61.0 124.7 59.8 124.5 58.6 124.2 C 58.3 124.1 58.0 124.0 57.7 123.9 C 56.6 123.6 55.4 123.1 54.3 122.6 L 43.8 117.9 C 50.2 120.8 57.8 121.1 65.7 118.5 C 65.7 118.5 65.7 118.5 65.7 118.5 C 64.8 118.5 64.0 118.4 63.2 118.3 C 62.7 118.2 62.2 118.1 61.6 118.0 C 61.1 117.9 60.6 117.7 60.1 117.6 C 59.8 117.5 59.6 117.4 59.3 117.3 C 58.6 117.1 57.8 116.8 57.1 116.5 L 52.4 114.3 L 46.6 111.7 C 46.3 111.6 46.0 111.4 45.8 111.3 C 45.6 111.2 45.4 111.1 45.2 111.0 C 44.8 110.8 44.5 110.6 44.1 110.3 C 44.0 110.3 43.9 110.3 43.9 110.2 C 43.6 110.1 43.4 109.9 43.1 109.7 C 43.0 109.6 42.8 109.5 42.6 109.3 C 42.5 109.2 42.3 109.1 42.2 109.0 C 41.9 108.8 41.6 108.6 41.3 108.4 C 41.2 108.3 41.2 108.2 41.0 108.1 C 40.7 107.9 40.4 107.6 40.2 107.3 C 40.1 107.3 40.1 107.3 40.1 107.2 " fill="#F38907"></path><path d="M 95.8 31.6 L 95.8 31.6 L 95.8 31.6 Z M 95.8 31.6 " fill="#DC7601"></path><path d="M 76.8 53.7 C 76.8 53.6 76.8 53.5 76.7 53.4 C 76.7 53.2 76.7 53.1 76.7 52.9 C 76.7 52.8 76.7 52.8 76.6 52.7 C 76.6 52.4 76.6 52.2 76.5 51.9 C 76.5 51.6 76.4 51.3 76.3 51.1 C 76.1 51.1 76.0 51.2 75.8 51.2 C 75.8 51.3 75.7 51.3 75.6 51.3 C 75.2 51.5 74.8 51.7 74.4 51.9 C 74.3 51.9 74.3 51.9 74.2 51.9 C 73.8 52.2 73.4 52.4 72.9 52.6 L 68.3 50.5 L 69.3 55.0 C 69.2 55.1 69.0 55.2 68.9 55.3 L 76.2 58.7 C 76.2 58.7 76.3 58.7 76.3 58.7 C 76.4 58.8 76.4 58.8 76.5 58.8 C 76.5 58.8 76.5 58.8 76.5 58.8 C 76.5 58.7 76.6 58.6 76.6 58.4 C 76.6 58.4 76.6 58.4 76.6 58.3 C 76.7 58.0 76.7 57.6 76.8 57.3 C 76.8 57.3 76.8 57.3 76.8 57.3 C 76.8 56.9 76.8 56.6 76.8 56.2 C 76.8 56.2 76.8 56.1 76.8 56.1 C 76.9 55.8 76.9 55.4 76.9 55.1 C 76.9 55.0 76.9 54.9 76.8 54.8 C 76.8 54.7 76.8 54.6 76.8 54.4 C 76.8 54.3 76.8 54.2 76.8 54.1 C 76.8 54.0 76.8 53.8 76.8 53.7 M 65.0 86.0 C 65.0 86.1 65.0 86.1 65.0 86.2 C 65.0 86.5 64.9 86.8 64.9 87.1 C 64.9 87.2 64.9 87.2 64.9 87.2 C 64.8 87.6 64.8 87.9 64.8 88.2 C 64.8 88.2 64.8 88.3 64.8 88.3 C 64.8 88.6 64.8 89.0 64.8 89.3 C 64.8 89.4 64.8 89.4 64.8 89.5 C 64.8 89.6 64.8 89.8 64.8 89.9 C 64.8 90.0 64.8 90.1 64.8 90.2 C 64.8 90.3 64.8 90.4 64.8 90.6 C 64.8 90.7 64.8 90.8 64.9 90.8 C 64.9 91.0 64.9 91.2 64.9 91.3 C 64.9 91.4 64.9 91.5 64.9 91.5 C 65.0 91.8 65.0 92.0 65.1 92.2 C 65.2 92.8 65.3 93.3 65.5 93.8 C 65.5 93.9 65.5 94.0 65.6 94.1 C 66.6 93.8 67.7 93.4 68.9 92.8 L 73.5 95.0 L 72.5 90.6 C 72.8 90.4 73.1 90.2 73.4 90.0 L 65.6 86.4 C 65.4 86.3 65.2 86.2 65.0 86.0 M 65.1 118.7 C 65.3 118.7 65.5 118.6 65.7 118.5 C 65.7 118.5 65.7 118.5 65.7 118.5 C 64.8 118.5 64.0 118.4 63.2 118.3 C 62.7 118.2 62.2 118.1 61.6 118.0 C 61.1 117.9 60.6 117.7 60.1 117.6 C 59.8 117.5 59.6 117.4 59.3 117.3 C 58.6 117.1 57.8 116.8 57.1 116.5 L 52.4 114.3 L 46.6 111.7 C 46.3 111.6 46.0 111.4 45.8 111.3 C 45.6 111.2 45.4 111.1 45.2 111.0 C 44.8 110.8 44.5 110.6 44.1 110.3 C 44.0 110.3 43.9 110.3 43.9 110.2 C 43.6 110.1 43.4 109.9 43.1 109.7 C 43.0 109.6 42.8 109.5 42.6 109.3 C 42.5 109.2 42.3 109.1 42.2 109.0 C 41.9 108.8 41.6 108.6 41.3 108.4 C 41.2 108.3 41.1 108.2 41.0 108.1 C 40.7 107.9 40.4 107.6 40.2 107.3 C 40.1 107.3 40.1 107.3 40.1 107.2 C 39.7 106.9 39.4 106.5 39.0 106.2 C 38.9 106.0 38.7 105.8 38.5 105.6 C 38.3 105.4 38.1 105.2 37.9 104.9 C 37.9 104.8 37.8 104.7 37.7 104.6 C 34.7 100.8 32.5 95.9 31.3 90.0 C 31.3 90.0 31.3 90.0 31.3 89.9 L 41.7 76.8 C 41.7 77.2 41.6 77.5 41.6 77.8 C 41.5 77.9 41.5 78.0 41.5 78.1 C 41.4 78.6 41.4 79.1 41.3 79.7 C 41.3 79.8 41.3 80.0 41.3 80.1 C 41.2 80.5 41.2 80.9 41.2 81.3 C 41.1 81.5 41.1 81.6 41.1 81.8 C 41.1 82.3 41.0 82.9 41.0 83.4 C 41.0 83.4 41.0 83.5 41.0 83.5 C 41.0 84.0 41.0 84.5 41.0 85.0 C 41.0 85.1 41.0 85.3 41.0 85.4 C 41.0 85.9 41.0 86.3 41.0 86.7 C 41.0 86.8 41.0 86.9 41.0 87.1 C 41.0 87.6 41.0 88.2 41.1 88.8 C 41.1 88.9 41.1 89.1 41.1 89.2 C 41.1 89.7 41.2 90.2 41.2 90.8 C 41.2 90.8 41.2 90.9 41.2 91.0 C 41.3 91.6 41.4 92.1 41.5 92.7 C 41.5 92.8 41.5 93.0 41.5 93.1 C 41.6 93.7 41.7 94.3 41.8 94.8 C 42.7 99.5 44.3 103.5 46.4 106.9 C 46.4 106.9 46.5 106.9 46.5 107.0 C 47.0 107.7 47.5 108.5 48.0 109.1 C 48.2 109.3 48.3 109.5 48.5 109.7 C 48.6 109.8 48.7 110.0 48.8 110.1 C 49.0 110.4 49.3 110.7 49.5 111.0 C 49.7 111.2 49.9 111.3 50.1 111.5 C 50.3 111.7 50.5 111.9 50.7 112.1 C 50.9 112.3 51.2 112.5 51.4 112.8 C 51.6 112.9 51.7 113.0 51.9 113.2 C 52.0 113.2 52.1 113.3 52.2 113.4 C 58.7 114.6 66.2 113.1 73.6 108.6 C 74.2 108.3 74.7 108.0 75.3 107.6 C 75.4 107.5 75.6 107.4 75.8 107.3 C 76.1 107.0 76.5 106.7 76.9 106.5 C 77.1 106.3 77.3 106.2 77.5 106.1 C 77.8 105.8 78.1 105.5 78.5 105.3 C 78.7 105.1 78.8 105.0 79.0 104.8 C 79.4 104.5 79.7 104.2 80.1 103.9 C 80.2 103.8 80.4 103.7 80.5 103.6 C 81.0 103.1 81.5 102.7 82.0 102.2 C 82.1 102.2 82.1 102.1 82.1 102.1 C 82.6 101.7 83.0 101.2 83.4 100.8 C 83.6 100.7 83.7 100.5 83.9 100.3 C 83.9 100.3 84.0 100.3 84.0 100.2 L 80.5 102.5 L 73.6 99.4 C 72.1 99.5 70.7 99.3 69.5 98.7 L 59.0 94.0 L 59.0 94.0 L 59.0 94.0 C 58.9 93.9 58.8 93.9 58.7 93.8 C 58.7 93.8 58.6 93.8 58.6 93.8 C 58.5 93.7 58.5 93.7 58.5 93.7 C 58.3 93.6 58.2 93.5 58.1 93.4 C 57.7 93.2 57.3 92.9 57.0 92.5 C 56.7 92.3 56.5 92.0 56.2 91.6 C 56.2 91.5 56.1 91.4 56.1 91.4 C 56.0 91.3 56.0 91.3 55.9 91.2 C 55.9 91.2 55.9 91.2 55.9 91.1 C 55.7 90.7 55.4 90.3 55.2 89.8 C 55.1 89.5 55.0 89.3 55.0 89.0 C 54.8 88.5 54.7 88.0 54.6 87.4 C 54.5 87.2 54.5 87.0 54.4 86.8 C 54.4 86.7 54.4 86.6 54.4 86.5 C 54.4 86.4 54.4 86.2 54.4 86.1 C 54.3 86.0 54.3 85.9 54.3 85.8 C 54.3 85.7 54.3 85.5 54.3 85.4 C 54.3 85.3 54.3 85.2 54.3 85.1 C 54.3 85.0 54.3 84.8 54.3 84.7 C 54.3 84.7 54.3 84.7 54.3 84.6 C 54.3 84.6 54.3 84.6 54.3 84.5 C 54.3 84.2 54.3 83.9 54.3 83.5 C 54.3 83.5 54.3 83.5 54.3 83.4 C 54.3 83.1 54.3 82.8 54.4 82.4 C 54.4 82.4 54.4 82.4 54.4 82.4 C 54.4 82.0 54.5 81.7 54.5 81.4 C 54.5 81.3 54.5 81.3 54.5 81.2 C 54.6 80.9 54.7 80.6 54.7 80.3 C 54.7 80.2 54.8 80.2 54.8 80.1 C 54.8 79.8 54.9 79.5 55.0 79.2 C 55.0 79.2 55.0 79.1 55.1 79.1 C 55.2 78.8 55.3 78.5 55.4 78.1 C 55.4 78.1 55.4 78.1 55.4 78.1 C 55.4 77.9 55.5 77.8 55.6 77.6 C 55.6 77.6 55.6 77.6 55.6 77.6 C 55.6 77.6 55.6 77.6 55.6 77.6 C 55.6 77.5 55.7 77.4 55.7 77.3 C 55.7 77.2 55.8 77.1 55.8 77.0 C 55.9 76.8 56.0 76.6 56.1 76.3 C 56.2 76.2 56.2 76.1 56.3 76.0 C 56.4 75.8 56.5 75.5 56.6 75.3 C 56.6 75.2 56.7 75.2 56.7 75.1 C 56.8 74.8 57.0 74.5 57.2 74.3 C 57.2 74.2 57.3 74.1 57.3 74.0 C 57.4 73.8 57.6 73.6 57.7 73.4 C 57.7 73.3 57.8 73.2 57.9 73.1 C 58.0 72.9 58.1 72.7 58.2 72.5 C 58.3 72.4 58.3 72.3 58.4 72.2 C 58.5 72.0 58.7 71.8 58.8 71.6 C 58.8 71.5 58.9 71.4 59.0 71.4 C 59.1 71.1 59.3 70.9 59.4 70.7 C 59.5 70.7 59.5 70.6 59.5 70.5 C 59.7 70.3 59.9 70.0 60.1 69.7 C 60.1 69.7 60.1 69.7 60.2 69.6 L 53.3 66.5 L 52.4 63.4 L 67.1 44.8 L 68.7 45.6 C 68.9 45.6 69.0 45.6 69.2 45.6 C 69.2 45.6 69.2 45.5 69.3 45.5 C 69.6 45.5 70.0 45.5 70.4 45.6 C 70.4 45.6 70.4 45.6 70.5 45.6 C 70.6 45.6 70.7 45.6 70.9 45.6 C 70.9 45.6 71.0 45.6 71.0 45.6 C 71.2 45.7 71.3 45.7 71.4 45.7 C 71.5 45.7 71.5 45.7 71.6 45.8 C 71.7 45.8 71.9 45.8 72.1 45.9 C 72.1 45.9 72.1 45.9 72.1 45.9 C 72.2 46.0 72.4 46.0 72.5 46.1 C 72.5 46.1 72.6 46.1 72.6 46.1 L 72.6 46.1 L 80.3 49.6 L 83.1 50.9 L 83.1 50.9 C 85.0 51.8 86.4 53.7 87.0 56.7 C 87.1 57.0 87.1 57.2 87.2 57.5 C 87.2 57.5 87.2 57.6 87.2 57.7 C 87.2 57.9 87.2 58.0 87.3 58.2 C 87.3 58.3 87.3 58.4 87.3 58.5 C 87.3 58.6 87.3 58.8 87.3 58.9 C 87.3 59.0 87.3 59.1 87.3 59.2 C 87.3 59.3 87.3 59.5 87.4 59.6 C 87.4 59.7 87.4 59.7 87.4 59.8 C 87.4 59.8 87.4 59.8 87.4 59.9 C 87.4 60.2 87.4 60.5 87.3 60.9 C 87.3 60.9 87.3 61.0 87.3 61.0 C 87.3 61.4 87.3 61.7 87.3 62.1 C 87.3 62.1 87.3 62.1 87.3 62.1 C 87.2 62.4 87.2 62.8 87.1 63.1 C 87.1 63.1 87.1 63.2 87.1 63.2 C 87.0 63.5 87.0 63.9 86.9 64.2 L 86.9 64.3 C 86.8 64.6 86.7 65.0 86.6 65.3 C 86.6 65.3 86.6 65.4 86.6 65.4 C 86.5 65.7 86.4 66.0 86.3 66.3 C 86.3 66.4 86.2 66.4 86.2 66.4 C 86.1 66.7 86.0 67.0 85.9 67.3 C 85.9 67.4 85.9 67.4 85.9 67.4 C 85.7 67.7 85.6 68.0 85.5 68.3 C 85.5 68.3 85.4 68.4 85.4 68.4 C 85.3 68.7 85.1 69.0 85.0 69.3 C 85.0 69.3 85.0 69.4 84.9 69.4 C 84.8 69.7 84.6 70.0 84.5 70.3 C 84.5 70.3 84.4 70.4 84.4 70.4 C 84.3 70.7 84.1 71.0 83.9 71.2 C 83.9 71.3 83.9 71.3 83.9 71.3 C 83.7 71.5 83.6 71.8 83.4 72.1 C 83.4 72.1 83.4 72.2 83.3 72.2 C 83.2 72.5 83.0 72.7 82.8 73.0 C 82.8 73.0 82.8 73.1 82.7 73.1 C 82.7 73.1 82.7 73.1 82.7 73.2 L 90.0 76.5 L 92.8 86.1 C 92.8 86.1 92.8 86.2 92.7 86.2 C 92.7 86.2 92.7 86.2 92.7 86.2 C 92.7 86.3 92.7 86.3 92.6 86.4 C 92.6 86.4 92.6 86.5 92.5 86.5 C 92.5 86.5 92.5 86.6 92.4 86.7 C 92.4 86.7 92.3 86.8 92.3 86.8 C 92.2 86.9 92.2 86.9 92.1 87.0 C 92.1 87.1 92.0 87.1 92.0 87.2 C 91.9 87.3 91.8 87.4 91.8 87.5 C 91.7 87.5 91.7 87.6 91.6 87.7 C 91.5 87.8 91.4 87.9 91.4 88.0 C 91.3 88.0 91.2 88.1 91.1 88.2 C 91.0 88.3 91.0 88.4 90.9 88.5 C 90.8 88.6 90.7 88.7 90.6 88.8 C 90.5 88.9 90.4 89.0 90.3 89.1 C 90.2 89.2 90.1 89.3 90.0 89.4 C 89.9 89.5 89.8 89.7 89.7 89.8 C 89.6 89.9 89.5 90.0 89.4 90.1 C 89.2 90.2 89.1 90.4 89.0 90.5 C 88.9 90.6 88.7 90.7 88.6 90.8 C 88.5 90.9 88.4 91.1 88.2 91.2 C 88.1 91.3 88.0 91.4 87.8 91.6 C 87.7 91.7 87.5 91.8 87.4 92.0 C 87.2 92.1 87.1 92.2 87.0 92.3 C 86.8 92.5 86.6 92.6 86.5 92.7 C 86.3 92.9 86.2 93.0 86.0 93.1 C 85.8 93.3 85.7 93.4 85.5 93.5 C 85.3 93.7 85.2 93.8 85.0 93.9 C 84.8 94.1 84.6 94.2 84.5 94.3 C 84.3 94.5 84.1 94.6 83.9 94.7 C 83.9 94.8 83.8 94.8 83.7 94.9 C 83.5 95.0 83.3 95.2 83.0 95.4 C 83.0 95.4 83.0 95.4 83.0 95.4 L 84.1 100.1 C 84.4 99.8 84.6 99.6 84.8 99.3 C 85.0 99.2 85.2 99.0 85.3 98.8 C 85.6 98.5 85.9 98.1 86.2 97.8 C 86.4 97.6 86.5 97.4 86.7 97.2 C 87.0 96.9 87.3 96.5 87.6 96.1 C 87.7 95.9 87.8 95.8 87.9 95.6 C 88.4 95.1 88.8 94.6 89.2 94.0 C 89.2 93.9 89.3 93.8 89.3 93.8 C 89.7 93.3 90.0 92.8 90.3 92.3 C 90.5 92.1 90.6 91.9 90.7 91.7 C 91.0 91.4 91.2 91.0 91.5 90.6 C 91.6 90.4 91.7 90.1 91.9 89.9 C 92.1 89.5 92.3 89.2 92.6 88.8 C 92.7 88.6 92.8 88.3 92.9 88.1 C 93.2 87.7 93.4 87.3 93.7 86.8 C 93.8 86.7 93.8 86.5 93.9 86.3 C 94.3 85.7 94.6 85.1 94.9 84.5 C 94.9 84.4 95.0 84.2 95.0 84.1 C 95.3 83.6 95.5 83.1 95.8 82.6 C 95.9 82.4 95.9 82.2 96.0 81.9 C 96.2 81.5 96.4 81.1 96.6 80.7 C 96.7 80.4 96.8 80.2 96.9 80.0 C 97.0 79.5 97.2 79.1 97.4 78.7 C 97.5 78.5 97.5 78.2 97.6 78.0 C 97.8 77.5 98.0 77.0 98.1 76.6 C 98.2 76.4 98.2 76.2 98.3 76.1 C 98.5 75.4 98.7 74.8 98.9 74.1 C 99.0 74.0 99.0 73.8 99.0 73.7 C 99.2 73.1 99.3 72.6 99.5 72.1 C 99.5 71.9 99.6 71.7 99.6 71.4 C 99.7 71.0 99.9 70.5 100.0 70.1 C 100.0 69.9 100.1 69.6 100.1 69.4 C 100.2 68.9 100.3 68.5 100.4 68.0 C 100.4 67.8 100.5 67.6 100.5 67.3 C 100.6 66.8 100.7 66.3 100.8 65.8 C 100.8 65.7 100.8 65.5 100.8 65.3 C 100.9 64.7 101.0 64.0 101.1 63.3 C 101.1 63.2 101.1 63.0 101.1 62.8 C 101.2 62.3 101.2 61.8 101.3 61.3 C 101.3 61.1 101.3 60.9 101.3 60.6 C 101.3 60.2 101.4 59.8 101.4 59.3 C 101.4 59.1 101.4 58.8 101.4 58.6 C 101.4 58.2 101.4 57.7 101.4 57.3 C 101.4 57.1 101.4 56.8 101.4 56.6 C 101.4 56.2 101.4 55.8 101.4 55.4 C 101.3 55.1 101.3 54.8 101.3 54.5 C 101.3 54.1 101.3 53.7 101.2 53.3 C 101.2 53.0 101.2 52.7 101.1 52.5 C 101.1 52.0 101.0 51.6 101.0 51.1 C 101.0 50.9 100.9 50.7 100.9 50.4 C 100.8 49.8 100.7 49.1 100.6 48.4 C 99.9 45.1 98.9 42.0 97.6 39.3 C 97.1 38.3 96.5 37.2 95.9 36.3 C 95.0 34.8 94.0 33.5 92.8 32.3 C 92.0 31.4 91.1 30.6 90.2 29.9 C 90.2 29.8 90.2 29.8 90.1 29.8 C 90.0 29.8 89.9 29.8 89.8 29.8 C 89.6 29.7 89.3 29.7 89.1 29.7 C 89.0 29.7 89.0 29.7 88.9 29.7 C 88.6 29.6 88.3 29.6 88.0 29.6 C 87.9 29.5 87.8 29.5 87.7 29.5 C 87.5 29.5 87.2 29.5 86.9 29.5 C 86.8 29.5 86.7 29.5 86.6 29.5 C 86.3 29.5 86.1 29.5 85.8 29.5 C 85.7 29.5 85.7 29.5 85.6 29.5 C 85.3 29.5 84.9 29.5 84.6 29.5 C 84.5 29.5 84.4 29.5 84.3 29.5 C 84.0 29.5 83.8 29.5 83.5 29.6 C 83.4 29.6 83.3 29.6 83.2 29.6 C 82.9 29.6 82.5 29.7 82.2 29.7 C 82.2 29.7 82.2 29.7 82.1 29.7 C 81.8 29.8 81.4 29.8 81.1 29.9 C 81.0 29.9 80.9 29.9 80.8 29.9 C 80.5 30.0 80.2 30.0 80.0 30.1 C 79.9 30.1 79.8 30.1 79.7 30.1 C 79.3 30.2 79.0 30.3 78.6 30.4 C 78.6 30.4 78.6 30.4 78.6 30.4 L 82.3 25.7 C 82.3 25.7 82.3 25.7 82.4 25.7 C 82.4 25.7 82.5 25.8 82.6 25.8 C 82.8 25.9 83.0 25.9 83.2 26.0 C 83.3 26.0 83.4 26.1 83.5 26.1 C 83.7 26.2 83.9 26.3 84.1 26.3 C 84.2 26.4 84.3 26.4 84.4 26.4 C 84.7 26.5 85.0 26.7 85.2 26.8 L 85.2 26.8 L 85.2 26.8 L 85.2 26.8 L 91.0 29.4 L 95.8 31.6 L 95.8 31.6 C 96.7 32.0 97.7 32.6 98.6 33.1 C 99.1 33.4 99.5 33.8 99.9 34.1 C 101.0 34.8 102.0 35.7 103.0 36.7 C 102.9 36.5 102.8 36.2 102.7 36.0 C 106.9 39.2 111.0 42.5 115.1 45.9 C 115.5 47.3 115.8 48.7 116.1 50.2 C 116.2 50.9 116.4 51.6 116.5 52.3 C 116.5 52.4 116.5 52.4 116.5 52.5 C 116.6 53.1 116.7 53.8 116.7 54.5 C 116.8 54.6 116.8 54.7 116.8 54.7 C 116.8 55.4 116.9 56.1 116.9 56.8 C 116.9 56.9 117.0 57.0 117.0 57.1 C 117.0 57.7 117.0 58.4 117.0 59.1 C 117.0 59.1 117.1 59.2 117.1 59.2 C 117.1 59.3 117.1 59.3 117.1 59.4 C 117.1 60.0 117.1 60.6 117.1 61.2 C 117.1 61.3 117.1 61.3 117.1 61.4 C 117.1 62.0 117.0 62.6 117.0 63.1 C 117.0 63.2 117.0 63.3 117.0 63.4 C 117.0 63.9 116.9 64.5 116.9 65.1 C 116.9 65.3 116.9 65.4 116.9 65.5 C 116.8 66.1 116.8 66.7 116.7 67.3 C 116.7 67.4 116.7 67.5 116.7 67.6 C 116.6 68.1 116.5 68.7 116.5 69.3 C 116.4 69.4 116.4 69.4 116.4 69.5 C 116.3 70.1 116.2 70.7 116.1 71.3 C 116.1 71.4 116.1 71.6 116.1 71.7 C 116.0 72.3 115.9 72.9 115.7 73.5 L 115.7 73.7 C 115.6 74.3 115.4 74.9 115.3 75.4 C 115.3 75.5 115.3 75.6 115.3 75.7 C 115.1 76.3 115.0 76.9 114.8 77.5 L 114.7 77.8 C 114.6 78.4 114.4 79.0 114.2 79.6 C 114.2 79.7 114.2 79.8 114.1 79.8 C 114.0 80.4 113.8 81.0 113.6 81.5 C 113.6 81.6 113.6 81.7 113.5 81.8 C 113.3 82.4 113.1 83.0 112.9 83.5 C 112.9 83.7 112.8 83.8 112.8 83.9 C 112.6 84.5 112.4 85.1 112.1 85.6 C 112.1 85.7 112.1 85.8 112.1 85.8 C 111.9 86.4 111.6 86.9 111.4 87.5 C 111.4 87.6 111.3 87.7 111.3 87.8 C 111.0 88.3 110.8 88.9 110.5 89.5 C 110.5 89.6 110.4 89.7 110.4 89.8 C 110.1 90.4 109.9 90.9 109.6 91.5 C 109.6 91.6 109.5 91.6 109.5 91.7 C 109.2 92.2 109.0 92.7 108.7 93.3 C 108.6 93.3 108.6 93.4 108.5 93.5 C 108.3 94.1 108.0 94.6 107.7 95.2 C 107.6 95.3 107.5 95.4 107.5 95.5 C 107.2 96.0 106.9 96.6 106.5 97.1 C 106.5 97.2 106.5 97.2 106.4 97.2 C 106.1 97.8 105.8 98.3 105.5 98.8 C 105.5 98.9 105.4 98.9 105.3 99.0 C 105.0 99.5 104.7 100.1 104.3 100.6 C 104.3 100.7 104.2 100.8 104.1 100.9 C 103.8 101.4 103.4 101.9 103.0 102.4 C 103.0 102.4 103.0 102.5 103.0 102.5 C 102.6 103.0 102.3 103.5 101.9 103.9 C 101.8 104.0 101.8 104.1 101.7 104.2 C 101.3 104.7 101.0 105.2 100.6 105.6 C 100.5 105.7 100.4 105.8 100.3 105.9 C 99.9 106.4 99.5 106.9 99.1 107.3 C 99.1 107.4 99.1 107.4 99.1 107.4 C 98.7 107.9 98.3 108.3 97.9 108.7 C 97.8 108.8 97.7 108.9 97.7 109.0 C 97.2 109.4 96.8 109.8 96.4 110.3 L 96.2 110.5 C 95.7 111.0 95.3 111.4 94.9 111.8 C 94.8 111.8 94.8 111.8 94.8 111.9 C 94.4 112.3 93.9 112.7 93.5 113.1 C 93.4 113.1 93.3 113.2 93.2 113.3 C 92.8 113.7 92.3 114.0 91.9 114.4 C 91.8 114.5 91.7 114.6 91.6 114.6 C 91.2 115.0 90.7 115.4 90.2 115.8 L 90.2 115.8 C 89.7 116.2 89.2 116.5 88.7 116.8 C 88.7 116.9 88.6 116.9 88.6 117.0 C 88.5 117.0 88.5 117.0 88.5 117.0 C 88.0 117.4 87.5 117.7 87.0 118.0 C 87.0 118.1 86.9 118.1 86.8 118.2 C 86.3 118.5 85.8 118.8 85.2 119.2 C 84.8 119.4 84.4 119.7 83.9 119.9 C 78.6 119.9 73.2 119.6 67.9 119.0 C 66.9 118.9 66.0 118.8 65.1 118.7 " fill="#DC7601"></path><path d="M 76.8 53.7 C 76.8 53.6 76.8 53.5 76.7 53.4 C 76.7 53.2 76.7 53.1 76.7 52.9 C 76.7 52.8 76.7 52.8 76.6 52.7 C 76.6 52.4 76.6 52.2 76.5 51.9 C 76.5 51.6 76.4 51.3 76.3 51.1 C 76.1 51.1 76.0 51.2 75.8 51.2 C 75.8 51.3 75.7 51.3 75.6 51.3 C 75.2 51.5 74.8 51.7 74.4 51.9 C 74.3 51.9 74.3 51.9 74.2 51.9 C 73.8 52.2 73.4 52.4 72.9 52.6 L 68.3 50.5 L 69.3 55.0 C 69.2 55.1 69.0 55.2 68.9 55.3 L 76.2 58.7 C 76.2 58.7 76.3 58.7 76.3 58.7 C 76.4 58.8 76.4 58.8 76.5 58.8 C 76.5 58.8 76.5 58.8 76.5 58.8 C 76.5 58.7 76.6 58.6 76.6 58.4 C 76.6 58.4 76.6 58.4 76.6 58.3 C 76.7 58.0 76.7 57.6 76.8 57.3 C 76.8 57.3 76.8 57.3 76.8 57.3 C 76.8 56.9 76.8 56.6 76.8 56.2 C 76.8 56.2 76.8 56.1 76.8 56.1 C 76.9 55.8 76.9 55.4 76.9 55.1 C 76.9 55.0 76.9 54.9 76.8 54.8 C 76.8 54.7 76.8 54.6 76.8 54.4 C 76.8 54.3 76.8 54.2 76.8 54.1 C 76.8 54.0 76.8 53.8 76.8 53.7 M 65.0 86.0 C 65.0 86.1 65.0 86.1 65.0 86.2 C 65.0 86.5 64.9 86.8 64.9 87.1 C 64.9 87.2 64.9 87.2 64.9 87.2 C 64.8 87.6 64.8 87.9 64.8 88.2 C 64.8 88.2 64.8 88.3 64.8 88.3 C 64.8 88.6 64.8 89.0 64.8 89.3 C 64.8 89.4 64.8 89.4 64.8 89.5 C 64.8 89.6 64.8 89.8 64.8 89.9 C 64.8 90.0 64.8 90.1 64.8 90.2 C 64.8 90.3 64.8 90.4 64.8 90.6 C 64.8 90.7 64.8 90.8 64.9 90.8 C 64.9 91.0 64.9 91.2 64.9 91.3 C 64.9 91.4 64.9 91.5 64.9 91.5 C 65.0 91.8 65.0 92.0 65.1 92.2 C 65.2 92.8 65.3 93.3 65.5 93.8 C 65.5 93.9 65.5 94.0 65.6 94.1 C 66.6 93.8 67.7 93.4 68.9 92.8 L 73.5 95.0 L 72.5 90.6 C 72.8 90.4 73.1 90.2 73.4 90.0 L 65.6 86.4 C 65.4 86.3 65.2 86.2 65.0 86.0 M 31.0 88.3 C 31.0 88.2 31.0 88.1 31.0 87.9 C 30.9 87.4 30.8 86.8 30.7 86.2 C 30.7 86.1 30.7 86.1 30.7 86.0 C 30.7 85.5 30.6 84.9 30.6 84.4 C 30.6 84.3 30.6 84.1 30.6 84.0 C 30.5 83.4 30.5 82.9 30.5 82.3 C 30.5 82.2 30.5 82.2 30.5 82.2 C 30.5 82.1 30.5 82.0 30.5 81.9 C 30.5 81.5 30.5 81.1 30.5 80.7 C 30.5 80.5 30.5 80.4 30.5 80.2 C 30.5 79.7 30.5 79.2 30.5 78.7 C 30.5 78.7 30.5 78.6 30.5 78.6 C 30.5 78.1 30.6 77.5 30.6 77.0 C 30.6 76.9 30.6 76.7 30.7 76.6 C 30.7 76.1 30.7 75.7 30.8 75.3 C 30.8 75.2 30.8 75.0 30.8 74.9 C 30.9 74.4 30.9 73.8 31.0 73.3 C 31.0 73.2 31.0 73.1 31.1 73.1 C 31.1 72.6 31.2 72.1 31.3 71.7 C 31.3 71.5 31.3 71.4 31.4 71.2 C 31.4 70.8 31.5 70.3 31.6 69.9 C 31.6 69.8 31.6 69.7 31.7 69.6 C 31.8 69.0 31.9 68.5 32.0 68.0 C 32.0 67.8 32.1 67.7 32.1 67.6 C 32.2 67.2 32.3 66.8 32.4 66.3 C 32.5 66.2 32.5 66.0 32.5 65.9 C 32.7 65.4 32.8 64.9 32.9 64.5 C 33.0 64.4 33.0 64.3 33.0 64.3 C 33.1 63.8 33.3 63.2 33.5 62.7 C 33.5 62.6 33.6 62.4 33.6 62.3 C 33.8 61.9 33.9 61.5 34.0 61.1 C 34.1 60.9 34.1 60.8 34.2 60.6 C 34.4 60.1 34.6 59.6 34.8 59.1 C 34.8 59.0 34.8 59.0 34.8 58.9 C 35.0 58.5 35.2 58.0 35.4 57.5 C 35.5 57.4 35.5 57.2 35.6 57.1 C 35.8 56.7 35.9 56.3 36.1 55.9 C 36.2 55.8 36.2 55.7 36.3 55.5 C 36.5 55.0 36.7 54.5 37.0 54.0 C 37.0 53.9 37.1 53.8 37.1 53.7 C 37.3 53.3 37.5 52.9 37.7 52.5 C 37.8 52.4 37.9 52.2 38.0 52.1 C 38.2 51.7 38.4 51.3 38.7 50.8 C 38.7 50.8 38.7 50.7 38.8 50.6 C 39.0 50.2 39.2 49.8 39.5 49.4 C 39.5 49.3 39.6 49.3 39.6 49.2 C 39.7 49.0 39.9 48.8 40.0 48.5 C 40.2 48.3 40.4 48.0 40.5 47.7 C 40.7 47.5 40.8 47.2 41.0 47.0 C 41.2 46.7 41.3 46.5 41.5 46.2 C 41.7 46.0 41.8 45.7 42.0 45.5 C 42.2 45.2 42.4 45.0 42.5 44.7 C 42.7 44.5 42.9 44.3 43.0 44.0 C 43.2 43.8 43.4 43.5 43.6 43.3 C 43.8 43.0 43.9 42.8 44.1 42.6 C 44.3 42.4 44.5 42.1 44.7 41.9 C 44.9 41.6 45.1 41.4 45.2 41.2 C 45.4 41.0 45.6 40.7 45.9 40.5 C 46.0 40.3 46.2 40.1 46.4 39.9 C 46.6 39.6 46.8 39.4 47.0 39.2 C 47.2 39.0 47.3 38.9 47.4 38.7 C 51.1 40.1 54.8 41.5 58.4 43.0 C 58.3 43.1 58.2 43.2 58.1 43.3 C 57.9 43.5 57.7 43.7 57.5 43.9 C 57.3 44.2 57.1 44.4 56.9 44.7 C 56.7 44.9 56.5 45.1 56.4 45.3 C 56.1 45.5 55.9 45.8 55.7 46.0 C 55.6 46.2 55.4 46.4 55.2 46.6 C 55.0 46.9 54.8 47.1 54.6 47.4 C 54.4 47.6 54.3 47.8 54.1 48.0 C 53.9 48.3 53.7 48.6 53.5 48.8 C 53.4 49.0 53.2 49.3 53.1 49.5 C 52.9 49.8 52.7 50.0 52.5 50.3 C 52.3 50.5 52.2 50.7 52.0 51.0 C 51.8 51.2 51.7 51.5 51.5 51.8 C 51.3 52.0 51.2 52.2 51.0 52.5 C 50.9 52.8 50.7 53.0 50.5 53.3 C 50.4 53.6 50.2 53.8 50.1 54.0 C 49.8 54.5 49.5 54.9 49.3 55.4 C 49.2 55.5 49.2 55.5 49.2 55.6 C 48.9 56.0 48.7 56.5 48.5 56.9 L 48.3 57.3 C 48.1 57.7 47.8 58.1 47.7 58.5 C 47.6 58.6 47.5 58.7 47.5 58.8 C 47.2 59.3 47.0 59.8 46.8 60.3 C 46.7 60.4 46.7 60.6 46.6 60.7 C 46.4 61.1 46.3 61.5 46.1 61.9 C 46.0 62.0 46.0 62.2 45.9 62.3 C 45.7 62.8 45.5 63.2 45.3 63.7 C 45.3 63.8 45.3 63.8 45.3 63.9 C 45.1 64.4 44.9 64.9 44.7 65.4 C 44.6 65.6 44.6 65.7 44.5 65.8 C 44.4 66.2 44.3 66.6 44.1 67.0 C 44.1 67.2 44.0 67.3 44.0 67.5 C 43.8 68.0 43.7 68.5 43.5 69.1 C 43.5 69.1 43.5 69.2 43.4 69.2 C 43.3 69.7 43.2 70.2 43.0 70.7 C 43.0 70.8 43.0 71.0 42.9 71.1 C 42.8 71.5 42.7 72.0 42.6 72.4 C 42.6 72.5 42.5 72.6 42.5 72.8 C 42.4 73.3 42.3 73.8 42.2 74.3 C 42.1 74.5 42.1 74.6 42.1 74.7 C 42.0 75.1 41.9 75.5 41.9 76.0 C 41.8 76.1 41.8 76.3 41.8 76.5 C 41.7 76.9 41.6 77.4 41.6 77.8 C 41.5 77.9 41.5 78.0 41.5 78.1 C 41.4 78.6 41.4 79.1 41.3 79.7 C 41.3 79.8 41.3 80.0 41.3 80.1 C 41.2 80.5 41.2 80.9 41.2 81.3 C 41.1 81.5 41.1 81.6 41.1 81.8 C 41.1 82.3 41.0 82.9 41.0 83.4 C 41.0 83.4 41.0 83.5 41.0 83.5 C 41.0 84.0 41.0 84.5 41.0 85.0 C 41.0 85.1 41.0 85.3 41.0 85.4 C 41.0 85.9 41.0 86.3 41.0 86.7 C 41.0 86.8 41.0 86.9 41.0 87.1 C 41.0 87.6 41.0 88.2 41.1 88.8 C 41.1 88.9 41.1 89.1 41.1 89.2 C 41.1 89.7 41.2 90.2 41.2 90.8 C 41.2 90.8 41.2 90.9 41.2 91.0 C 41.3 91.6 41.4 92.1 41.5 92.7 C 41.5 92.8 41.5 93.0 41.5 93.1 C 41.6 93.7 41.7 94.3 41.8 94.8 C 42.7 99.5 44.3 103.5 46.4 106.9 C 46.4 106.9 46.5 106.9 46.5 107.0 C 47.0 107.7 47.5 108.5 48.0 109.1 C 48.2 109.3 48.3 109.5 48.5 109.7 C 48.6 109.8 48.7 110.0 48.8 110.1 C 49.0 110.4 49.3 110.7 49.5 111.0 C 49.7 111.2 49.9 111.3 50.1 111.5 C 50.3 111.7 50.5 111.9 50.7 112.1 C 50.9 112.3 51.2 112.5 51.4 112.8 C 51.6 112.9 51.7 113.0 51.9 113.2 C 52.0 113.2 52.1 113.3 52.2 113.4 C 58.7 114.6 66.2 113.1 73.6 108.6 C 74.2 108.3 74.7 108.0 75.3 107.6 C 75.4 107.5 75.6 107.4 75.8 107.3 C 76.1 107.0 76.5 106.7 76.9 106.5 C 77.1 106.3 77.3 106.2 77.5 106.1 C 77.8 105.8 78.1 105.5 78.5 105.3 C 78.7 105.1 78.8 105.0 79.0 104.8 C 79.4 104.5 79.7 104.2 80.1 103.9 C 80.2 103.8 80.4 103.7 80.5 103.6 C 81.0 103.1 81.5 102.7 82.0 102.2 C 82.1 102.2 82.1 102.1 82.1 102.1 C 82.6 101.7 83.0 101.2 83.4 100.8 C 83.6 100.7 83.7 100.5 83.9 100.3 C 83.9 100.3 84.0 100.3 84.0 100.2 L 80.5 102.5 L 73.6 99.4 C 72.1 99.5 70.7 99.3 69.5 98.7 L 59.0 94.0 L 59.0 94.0 L 59.0 94.0 C 58.9 93.9 58.8 93.9 58.7 93.8 C 58.7 93.8 58.6 93.8 58.6 93.8 C 58.5 93.7 58.5 93.7 58.5 93.7 C 58.3 93.6 58.2 93.5 58.1 93.4 C 57.7 93.2 57.3 92.9 57.0 92.5 C 56.7 92.3 56.5 92.0 56.2 91.6 C 56.2 91.5 56.1 91.4 56.1 91.4 C 56.0 91.3 56.0 91.3 55.9 91.2 C 55.9 91.2 55.9 91.2 55.9 91.1 C 55.7 90.7 55.4 90.3 55.2 89.8 C 55.1 89.5 55.0 89.3 55.0 89.0 C 54.8 88.5 54.7 88.0 54.6 87.4 C 54.5 87.2 54.5 87.0 54.4 86.8 C 54.4 86.7 54.4 86.6 54.4 86.5 C 54.4 86.4 54.4 86.2 54.4 86.1 C 54.3 86.0 54.3 85.9 54.3 85.8 C 54.3 85.7 54.3 85.5 54.3 85.4 C 54.3 85.3 54.3 85.2 54.3 85.1 C 54.3 85.0 54.3 84.8 54.3 84.7 C 54.3 84.7 54.3 84.7 54.3 84.6 C 54.3 84.6 54.3 84.6 54.3 84.5 C 54.3 84.2 54.3 83.9 54.3 83.5 C 54.3 83.5 54.3 83.5 54.3 83.4 C 54.3 83.1 54.3 82.8 54.4 82.4 C 54.4 82.4 54.4 82.4 54.4 82.4 C 54.4 82.0 54.5 81.7 54.5 81.4 C 54.5 81.3 54.5 81.3 54.5 81.2 C 54.6 80.9 54.7 80.6 54.7 80.3 C 54.7 80.2 54.8 80.2 54.8 80.1 C 54.8 79.8 54.9 79.5 55.0 79.2 C 55.0 79.2 55.0 79.1 55.1 79.1 C 55.2 78.8 55.3 78.5 55.4 78.1 C 55.4 78.1 55.4 78.1 55.4 78.1 C 55.4 77.9 55.5 77.8 55.6 77.6 C 55.6 77.6 55.6 77.6 55.6 77.6 C 55.6 77.6 55.6 77.6 55.6 77.6 C 55.6 77.5 55.7 77.4 55.7 77.3 C 55.7 77.2 55.8 77.1 55.8 77.0 C 55.9 76.8 56.0 76.6 56.1 76.3 C 56.2 76.2 56.2 76.1 56.3 76.0 C 56.4 75.8 56.5 75.5 56.6 75.3 C 56.6 75.2 56.7 75.2 56.7 75.1 C 56.8 74.8 57.0 74.5 57.2 74.3 C 57.2 74.2 57.3 74.1 57.3 74.0 C 57.4 73.8 57.6 73.6 57.7 73.4 C 57.7 73.3 57.8 73.2 57.9 73.1 C 58.0 72.9 58.1 72.7 58.2 72.5 C 58.3 72.4 58.3 72.3 58.4 72.2 C 58.5 72.0 58.7 71.8 58.8 71.6 C 58.8 71.5 58.9 71.4 59.0 71.4 C 59.1 71.1 59.3 70.9 59.4 70.7 C 59.5 70.7 59.5 70.6 59.5 70.5 C 59.7 70.3 59.9 70.0 60.1 69.7 C 60.1 69.7 60.1 69.7 60.2 69.6 L 53.3 66.5 L 50.6 57.2 C 53.1 54.9 56.0 52.3 58.8 50.2 L 57.5 44.4 L 59.2 43.3 C 68.5 47.0 77.6 50.9 86.6 55.1 C 86.8 55.6 86.9 56.1 87.0 56.7 C 87.1 57.0 87.1 57.2 87.2 57.5 C 87.2 57.5 87.2 57.6 87.2 57.7 C 87.2 57.9 87.2 58.0 87.3 58.2 C 87.3 58.3 87.3 58.4 87.3 58.5 C 87.3 58.6 87.3 58.8 87.3 58.9 C 87.3 59.0 87.3 59.1 87.3 59.2 C 87.3 59.3 87.3 59.5 87.4 59.6 C 87.4 59.7 87.4 59.7 87.4 59.8 C 87.4 59.8 87.4 59.8 87.4 59.9 C 87.4 60.2 87.4 60.5 87.3 60.9 C 87.3 60.9 87.3 61.0 87.3 61.0 C 87.3 61.4 87.3 61.7 87.3 62.1 C 87.3 62.1 87.3 62.1 87.3 62.1 C 87.2 62.4 87.2 62.8 87.1 63.1 C 87.1 63.1 87.1 63.2 87.1 63.2 C 87.0 63.5 87.0 63.9 86.9 64.2 L 86.9 64.3 C 86.8 64.6 86.7 65.0 86.6 65.3 C 86.6 65.3 86.6 65.4 86.6 65.4 C 86.5 65.7 86.4 66.0 86.3 66.3 C 86.3 66.4 86.2 66.4 86.2 66.4 C 86.1 66.7 86.0 67.0 85.9 67.3 C 85.9 67.4 85.9 67.4 85.9 67.4 C 85.7 67.7 85.6 68.0 85.5 68.3 C 85.5 68.3 85.4 68.4 85.4 68.4 C 85.3 68.7 85.1 69.0 85.0 69.3 C 85.0 69.3 85.0 69.4 84.9 69.4 C 84.8 69.7 84.6 70.0 84.5 70.3 C 84.5 70.3 84.4 70.4 84.4 70.4 C 84.3 70.7 84.1 71.0 83.9 71.2 C 83.9 71.3 83.9 71.3 83.9 71.3 C 83.7 71.5 83.6 71.8 83.4 72.1 C 83.4 72.1 83.4 72.2 83.3 72.2 C 83.2 72.5 83.0 72.7 82.8 73.0 C 82.8 73.0 82.8 73.1 82.7 73.1 C 82.7 73.1 82.7 73.1 82.7 73.2 L 90.0 76.5 L 92.8 86.1 C 92.8 86.1 92.8 86.2 92.7 86.2 C 92.7 86.2 92.7 86.2 92.7 86.2 C 92.7 86.3 92.7 86.3 92.6 86.4 C 92.6 86.4 92.6 86.5 92.5 86.5 C 92.5 86.5 92.5 86.6 92.4 86.7 C 92.4 86.7 92.3 86.8 92.3 86.8 C 92.2 86.9 92.2 86.9 92.1 87.0 C 92.1 87.1 92.0 87.1 92.0 87.2 C 91.9 87.3 91.8 87.4 91.8 87.5 C 91.7 87.5 91.7 87.6 91.6 87.7 C 91.5 87.8 91.4 87.9 91.4 88.0 C 91.3 88.0 91.2 88.1 91.1 88.2 C 91.0 88.3 91.0 88.4 90.9 88.5 C 90.8 88.6 90.7 88.7 90.6 88.8 C 90.5 88.9 90.4 89.0 90.3 89.1 C 90.2 89.2 90.1 89.3 90.0 89.4 C 89.9 89.5 89.8 89.7 89.7 89.8 C 89.6 89.9 89.5 90.0 89.4 90.1 C 89.2 90.2 89.1 90.4 89.0 90.5 C 88.9 90.6 88.7 90.7 88.6 90.8 C 88.5 90.9 88.4 91.1 88.2 91.2 C 88.1 91.3 88.0 91.4 87.8 91.6 C 87.7 91.7 87.5 91.8 87.4 92.0 C 87.2 92.1 87.1 92.2 87.0 92.3 C 86.8 92.5 86.6 92.6 86.5 92.7 C 86.3 92.9 86.2 93.0 86.0 93.1 C 85.8 93.3 85.7 93.4 85.5 93.5 C 85.3 93.7 85.2 93.8 85.0 93.9 C 84.8 94.1 84.6 94.2 84.5 94.3 C 84.3 94.5 84.1 94.6 83.9 94.7 C 83.9 94.8 83.8 94.8 83.7 94.9 C 83.5 95.0 83.3 95.2 83.0 95.4 C 83.0 95.4 83.0 95.4 83.0 95.4 L 84.1 100.1 C 84.4 99.8 84.6 99.6 84.8 99.3 C 85.0 99.2 85.2 99.0 85.3 98.8 C 85.6 98.5 85.9 98.1 86.2 97.8 C 86.4 97.6 86.5 97.4 86.7 97.2 C 87.0 96.9 87.3 96.5 87.6 96.1 C 87.7 95.9 87.8 95.8 87.9 95.6 C 88.4 95.1 88.8 94.6 89.2 94.0 C 89.2 93.9 89.3 93.8 89.3 93.8 C 89.7 93.3 90.0 92.8 90.3 92.3 C 90.5 92.1 90.6 91.9 90.7 91.7 C 91.0 91.4 91.2 91.0 91.5 90.6 C 91.6 90.4 91.7 90.1 91.9 89.9 C 92.1 89.5 92.3 89.2 92.6 88.8 C 92.7 88.6 92.8 88.3 92.9 88.1 C 93.2 87.7 93.4 87.3 93.7 86.8 C 93.8 86.7 93.8 86.5 93.9 86.3 C 94.3 85.7 94.6 85.1 94.9 84.5 C 94.9 84.4 95.0 84.2 95.0 84.1 C 95.3 83.6 95.5 83.1 95.8 82.6 C 95.9 82.4 95.9 82.2 96.0 81.9 C 96.2 81.5 96.4 81.1 96.6 80.7 C 96.7 80.4 96.8 80.2 96.9 80.0 C 97.0 79.5 97.2 79.1 97.4 78.7 C 97.5 78.5 97.5 78.2 97.6 78.0 C 97.8 77.5 98.0 77.0 98.1 76.6 C 98.2 76.4 98.2 76.2 98.3 76.1 C 98.5 75.4 98.7 74.8 98.9 74.1 C 99.0 74.0 99.0 73.8 99.0 73.7 C 99.2 73.1 99.3 72.6 99.5 72.1 C 99.5 71.9 99.6 71.7 99.6 71.4 C 99.7 71.0 99.9 70.5 100.0 70.1 C 100.0 69.9 100.1 69.6 100.1 69.4 C 100.2 68.9 100.3 68.5 100.4 68.0 C 100.4 67.8 100.5 67.6 100.5 67.3 C 100.6 66.8 100.7 66.3 100.8 65.8 C 100.8 65.7 100.8 65.5 100.8 65.3 C 100.9 64.7 101.0 64.0 101.1 63.3 C 101.1 63.2 101.1 63.0 101.1 62.8 C 101.2 62.6 101.2 62.4 101.2 62.2 C 106.3 64.7 111.3 67.3 116.3 70.1 C 116.3 70.5 116.2 70.9 116.1 71.3 C 116.1 71.4 116.1 71.6 116.1 71.7 C 116.0 72.3 115.9 72.9 115.7 73.5 L 115.7 73.7 C 115.6 74.3 115.4 74.9 115.3 75.4 C 115.3 75.5 115.3 75.6 115.3 75.7 C 115.1 76.3 115.0 76.9 114.8 77.5 L 114.7 77.8 C 114.6 78.4 114.4 79.0 114.2 79.6 C 114.2 79.7 114.2 79.8 114.1 79.8 C 114.0 80.4 113.8 81.0 113.6 81.5 C 113.6 81.6 113.6 81.7 113.5 81.8 C 113.3 82.4 113.1 83.0 112.9 83.5 C 112.9 83.7 112.8 83.8 112.8 83.9 C 112.6 84.5 112.4 85.1 112.1 85.6 C 112.1 85.7 112.1 85.8 112.1 85.8 C 111.9 86.4 111.6 86.9 111.4 87.5 C 111.4 87.6 111.3 87.7 111.3 87.8 C 111.0 88.3 110.8 88.9 110.5 89.5 C 110.5 89.6 110.4 89.7 110.4 89.8 C 110.1 90.4 109.9 90.9 109.6 91.5 C 109.6 91.6 109.5 91.6 109.5 91.7 C 109.2 92.2 109.0 92.7 108.7 93.3 C 108.6 93.3 108.6 93.4 108.5 93.5 C 108.3 94.1 108.0 94.6 107.7 95.2 C 107.6 95.3 107.5 95.4 107.5 95.5 C 107.2 96.0 106.9 96.6 106.5 97.1 C 106.5 97.2 106.5 97.2 106.4 97.2 C 106.1 97.8 105.8 98.3 105.5 98.8 C 105.5 98.9 105.4 98.9 105.3 99.0 C 105.0 99.5 104.7 100.1 104.3 100.6 C 104.3 100.7 104.2 100.8 104.1 100.9 C 103.8 101.4 103.4 101.9 103.0 102.4 C 103.0 102.4 103.0 102.5 103.0 102.5 C 102.6 103.0 102.3 103.5 101.9 103.9 C 101.8 104.0 101.8 104.1 101.7 104.2 C 101.3 104.7 101.0 105.2 100.6 105.6 C 100.5 105.7 100.4 105.8 100.3 105.9 C 99.9 106.4 99.5 106.9 99.1 107.3 C 99.1 107.4 99.1 107.4 99.1 107.4 C 98.7 107.9 98.3 108.3 97.9 108.7 C 97.8 108.8 97.7 108.9 97.7 109.0 C 97.2 109.4 96.8 109.8 96.4 110.3 L 96.2 110.5 C 95.7 111.0 95.3 111.4 94.9 111.8 C 94.8 111.8 94.8 111.8 94.8 111.9 C 94.4 112.3 93.9 112.7 93.5 113.1 C 93.4 113.1 93.3 113.2 93.2 113.3 C 92.8 113.7 92.3 114.0 91.9 114.4 C 91.8 114.5 91.7 114.6 91.6 114.6 C 91.2 115.0 90.7 115.4 90.2 115.8 L 90.2 115.8 C 89.7 116.2 89.2 116.5 88.7 116.8 C 88.7 116.9 88.6 116.9 88.6 117.0 C 88.5 117.0 88.5 117.0 88.5 117.0 C 88.0 117.4 87.5 117.7 87.0 118.0 C 87.0 118.1 86.9 118.1 86.8 118.2 C 86.3 118.5 85.8 118.8 85.2 119.2 C 82.8 120.6 80.4 121.8 78.0 122.7 C 77.3 123.0 76.6 123.2 76.0 123.4 C 73.2 124.3 70.6 124.8 68.0 125.0 C 66.7 125.1 65.4 125.1 64.1 125.0 C 63.5 125.0 62.9 124.9 62.2 124.9 C 61.0 124.7 59.8 124.5 58.6 124.2 C 58.3 124.1 58.0 124.0 57.7 123.9 C 56.6 123.6 55.4 123.1 54.3 122.6 L 43.8 117.9 C 50.2 120.8 57.8 121.1 65.7 118.5 C 65.7 118.5 65.7 118.5 65.7 118.5 C 64.8 118.5 64.0 118.4 63.2 118.3 C 62.7 118.2 62.2 118.1 61.6 118.0 C 61.1 117.9 60.6 117.7 60.1 117.6 C 59.8 117.5 59.6 117.4 59.3 117.3 C 58.6 117.1 57.8 116.8 57.1 116.5 L 52.4 114.3 L 46.6 111.7 C 46.3 111.6 46.0 111.4 45.8 111.3 C 45.6 111.2 45.4 111.1 45.2 111.0 C 44.8 110.8 44.5 110.6 44.1 110.3 C 44.0 110.3 43.9 110.3 43.9 110.2 C 43.6 110.1 43.4 109.9 43.1 109.7 C 43.0 109.6 42.8 109.5 42.6 109.3 C 42.5 109.2 42.3 109.1 42.2 109.0 C 41.9 108.8 41.6 108.6 41.3 108.4 C 41.2 108.3 41.1 108.2 41.0 108.1 C 40.7 107.9 40.4 107.6 40.2 107.3 C 40.1 107.3 40.1 107.3 40.1 107.2 C 39.7 106.9 39.4 106.5 39.0 106.2 C 38.9 106.0 38.7 105.8 38.5 105.6 C 38.3 105.4 38.1 105.2 37.9 104.9 C 37.9 104.8 37.8 104.7 37.7 104.6 C 34.7 100.8 32.5 95.9 31.3 90.0 C 31.2 89.5 31.1 88.9 31.0 88.3 " fill="#D66800"></path><path d="M 68.9 92.8 C 62.1 96.2 56.0 95.0 54.6 87.4 C 51.8 73.1 68.7 63.8 67.2 56.1 C 66.7 53.4 64.3 53.0 61.4 54.7 C 58.9 56.2 57.5 57.7 56.6 59.5 C 56.6 59.9 56.6 60.2 56.6 60.3 L 57.3 63.8 L 53.3 66.5 L 50.6 57.2 C 53.1 54.9 56.0 52.3 58.8 50.2 L 57.5 44.4 L 61.0 42.1 L 62.4 47.9 C 69.3 43.9 75.1 44.7 76.5 51.9 C 79.4 66.9 62.4 75.6 64.1 84.1 C 64.7 87.3 67.4 87.1 70.0 85.5 C 74.2 83.0 76.0 80.4 76.2 80.0 C 76.2 78.8 76.1 77.5 76.0 77.3 C 76.0 76.6 75.6 74.5 75.5 74.4 L 79.5 71.7 L 82.3 81.3 C 82.1 81.6 78.8 86.3 72.5 90.6 L 73.6 95.4 L 70.0 97.8 L 68.9 92.8 M 58.3 29.8 C 39.1 41.3 27.1 68.3 31.3 90.0 C 35.6 111.8 54.5 120.1 73.6 108.6 C 92.7 97.2 104.8 70.2 100.6 48.4 C 96.3 26.7 77.4 18.4 58.3 29.8 " fill="#FFE679"></path><path d="M 32.8 95.7 C 39.6 89.1 47.4 83.6 55.3 78.3 C 54.3 81.1 53.9 84.2 54.6 87.4 C 56.0 95.0 62.1 96.2 68.9 92.8 L 70.0 97.8 L 73.6 95.4 L 72.5 90.6 C 78.8 86.3 82.1 81.6 82.3 81.3 L 79.5 71.7 L 75.5 74.4 C 75.6 74.5 76.0 76.6 76.0 77.3 C 76.1 77.5 76.2 78.8 76.2 80.0 C 76.0 80.4 74.2 83.0 70.0 85.5 C 67.4 87.1 64.7 87.3 64.1 84.1 C 63.0 78.5 70.1 72.7 74.2 65.1 C 79.7 60.8 84.8 56.1 89.1 50.6 C 92.2 46.7 94.8 42.2 96.6 37.5 C 98.4 40.7 99.7 44.3 100.6 48.4 C 104.8 70.2 92.7 97.2 73.6 108.6 C 56.2 119.1 39.0 113.2 32.8 95.7 " fill="#FFD93A"></path><path d="M 67.0 55.4 C 65.9 54.7 64.3 54.9 62.5 56.0 C 59.9 57.6 58.6 59.0 57.7 60.9 C 57.7 61.2 57.7 61.5 57.7 61.6 L 58.4 65.1 L 54.3 67.8 L 53.3 66.5 L 57.3 63.8 L 56.6 60.3 C 56.6 60.2 56.6 59.9 56.6 59.5 C 57.5 57.7 58.9 56.2 61.4 54.7 C 64.0 53.1 66.2 53.3 67.0 55.4 " fill="#C76C10"></path><path d="M 63.1 47.5 C 62.9 47.6 62.6 47.7 62.4 47.9 L 61.0 42.1 L 62.1 43.4 Z M 63.1 47.5 " fill="#C76C10"></path><path d="M 69.2 94.5 C 64.1 96.9 59.5 96.5 57.0 92.6 C 59.8 95.3 64.1 95.2 68.9 92.8 Z M 69.2 94.5 " fill="#C76C10"></path><path d="M 58.3 29.8 C 72.5 21.3 86.7 23.7 94.8 34.6 C 86.6 24.9 73.0 23.0 59.3 31.2 C 40.2 42.7 28.1 69.6 32.4 91.4 C 33.4 96.9 35.5 101.5 38.2 105.2 C 34.9 101.3 32.5 96.2 31.3 90.0 C 27.1 68.3 39.1 41.3 58.3 29.8 " fill="#C76C10"></path><path d="M 80.5 73.0 L 83.4 82.7 C 83.2 82.9 79.9 87.6 73.6 91.9 L 74.7 96.7 L 71.1 99.1 L 70.6 97.3 L 73.6 95.4 L 72.5 90.6 C 78.8 86.3 82.1 81.6 82.3 81.3 L 80.0 73.4 Z M 80.5 73.0 " fill="#C76C10"></path><path d="M 75.3 48.6 C 76.4 49.6 77.2 51.2 77.6 53.3 C 80.5 68.3 63.5 77.0 65.1 85.4 C 65.2 85.8 65.3 86.0 65.4 86.3 C 64.7 85.9 64.3 85.2 64.1 84.1 C 62.4 75.6 79.4 66.9 76.5 51.9 C 76.3 50.6 75.8 49.5 75.3 48.6 " fill="#C76C10"></path><path d="M 61.0 42.1 L 57.5 44.4 L 58.8 50.2 C 56.0 52.3 53.1 54.9 50.6 57.2 L 53.3 66.5 L 57.3 63.8 L 56.6 60.3 C 56.6 60.2 56.6 59.9 56.6 59.5 C 57.5 57.7 58.9 56.2 61.4 54.7 C 64.3 53.0 66.7 53.4 67.2 56.1 C 68.7 63.8 51.8 73.1 54.6 87.4 C 56.0 95.0 62.1 96.2 68.9 92.8 L 70.0 97.8 L 73.6 95.4 L 72.5 90.6 C 78.8 86.3 82.1 81.6 82.3 81.3 L 79.5 71.7 L 75.5 74.4 C 75.6 74.5 76.0 76.6 76.0 77.3 C 76.1 77.5 76.2 78.8 76.2 80.0 C 76.0 80.4 74.2 83.0 70.0 85.5 C 67.4 87.1 64.7 87.3 64.1 84.1 C 62.4 75.6 79.4 66.9 76.5 51.9 C 75.1 44.7 69.3 43.9 62.4 47.9 Z M 61.0 42.1 " fill="#FFF3A9"></path><path d="M 57.3 75.0 C 63.3 71.0 69.3 67.0 74.9 62.6 C 73.4 66.1 71.0 69.3 68.8 72.3 C 65.6 76.6 62.9 80.3 63.6 84.2 C 64.0 86.2 65.2 87.2 67.1 87.1 C 68.0 87.0 69.1 86.6 70.3 86.0 C 74.2 83.6 76.2 81.0 76.6 80.2 L 76.7 80.1 L 76.7 80.0 C 76.7 79.4 76.7 77.7 76.5 77.2 C 76.4 76.6 76.2 75.3 76.1 74.6 L 79.2 72.5 L 81.8 81.2 C 81.1 82.2 77.8 86.4 72.2 90.2 L 72.0 90.4 L 73.1 95.1 L 70.3 97.0 L 69.2 92.2 L 68.6 92.4 C 66.6 93.4 64.8 94.0 63.0 94.1 C 58.7 94.5 56.0 92.1 55.0 87.4 C 54.1 82.8 55.3 78.7 57.3 75.0 C 57.3 75.0 57.3 75.0 57.3 75.0 " fill="#FFE061"></path><path d="M 73.6 108.6 C 54.5 120.1 35.6 111.8 31.3 90.0 C 27.1 68.3 39.1 41.3 58.3 29.8 C 77.4 18.4 96.3 26.7 100.6 48.4 C 104.8 70.2 92.7 97.2 73.6 108.6 M 57.1 24.1 C 35.2 37.3 21.4 68.1 26.3 93.1 C 31.1 118.0 52.8 127.5 74.7 114.4 C 96.6 101.2 110.5 70.3 105.6 45.4 C 100.7 20.5 79.0 11.0 57.1 24.1 " fill="#FFF1B4"></path><path d="M 73.1 24.3 C 87.0 23.2 98.0 32.6 101.0 48.4 C 105.3 70.3 93.1 97.5 73.9 109.0 C 68.8 112.1 63.7 113.8 58.7 114.2 C 44.9 115.3 33.9 105.8 30.8 90.1 C 26.6 68.2 38.8 41.0 58.0 29.4 C 63.0 26.4 68.1 24.7 73.1 24.3 M 57.6 119.7 C 63.2 119.3 68.9 117.3 74.5 114.0 C 96.2 100.9 109.9 70.2 105.1 45.5 C 101.7 28.1 89.6 17.6 74.3 18.8 C 68.7 19.2 63.0 21.1 57.4 24.5 C 35.7 37.6 21.9 68.3 26.8 93.0 C 30.2 110.4 42.3 120.9 57.6 119.7 " fill="#FFF1B4"></path><path d="M 27.2 95.1 C 28.5 93.7 29.7 92.4 31.1 91.1 C 34.4 106.2 45.2 115.3 58.7 114.2 C 63.7 113.8 68.8 112.1 73.9 109.0 C 93.1 97.5 105.3 70.3 101.0 48.4 C 99.9 42.4 97.6 37.3 94.4 33.4 C 95.2 31.4 95.9 29.4 96.4 27.3 C 100.6 31.8 103.7 38.0 105.1 45.5 C 109.9 70.2 96.2 100.9 74.5 114.0 C 68.9 117.3 63.2 119.3 57.6 119.7 C 42.9 120.9 31.2 111.3 27.2 95.1 " fill="#FCDE53"></path></g></g></g></g></g></svg>