<?xml version="1.0" encoding="UTF-8"?><svg xmlns="http://www.w3.org/2000/svg" xmlns:xlink="http://www.w3.org/1999/xlink" clip-rule="evenodd" stroke-miterlimit="4.00" viewBox="0 0 191 191"><desc>SVG generated by Keynote</desc><defs></defs><g transform="matrix(1.00, 0.00, -0.00, -1.00, 0.0, 191.0)"><g><clipPath id="clip-365"><path d="M 189.7 92.2 L 92.8 189.2 L 1.6 98.0 L 98.6 1.1 Z M 189.7 92.2 "></path></clipPath><g clip-path="url(#clip-365)"><g><clipPath id="clip-366"><path d="M 98.6 1.1 L 1.6 98.0 L 92.8 189.2 L 189.7 92.2 Z M 98.6 1.1 "></path></clipPath><g clip-path="url(#clip-366)"><path d="M 114.9 79.2 L 121.9 86.0 C 121.9 86.0 122.0 86.1 122.0 86.2 C 122.0 86.2 122.0 86.2 122.0 86.2 C 122.1 86.3 122.1 86.4 122.2 86.5 C 122.2 86.5 122.2 86.5 122.2 86.6 C 122.2 86.6 122.3 86.7 122.3 86.8 C 122.3 86.8 122.3 86.9 122.3 86.9 C 122.4 87.0 122.4 87.0 122.4 87.1 C 122.4 87.2 122.5 87.2 122.5 87.3 C 122.5 87.4 122.5 87.5 122.6 87.5 C 122.6 87.6 122.6 87.7 122.6 87.7 C 122.7 87.8 122.7 87.9 122.7 88.0 C 122.7 88.1 122.8 88.2 122.8 88.2 C 122.8 88.4 122.8 88.5 122.9 88.6 C 122.9 88.7 122.9 88.7 122.9 88.8 C 123.0 89.2 123.1 89.7 123.2 90.2 C 123.2 90.2 123.2 90.3 123.2 90.4 C 123.2 90.6 123.2 90.7 123.2 90.9 C 123.3 91.0 123.3 91.1 123.3 91.2 C 123.3 91.4 123.3 91.6 123.3 91.8 C 123.3 91.9 123.3 92.0 123.3 92.1 C 123.3 92.3 123.3 92.5 123.3 92.7 C 123.4 92.8 123.4 92.9 123.4 93.1 C 123.4 93.3 123.4 93.5 123.4 93.7 C 123.4 93.8 123.4 94.0 123.3 94.1 C 123.3 94.2 123.3 94.2 123.3 94.3 C 123.5 93.7 123.6 93.0 123.7 92.4 L 129.8 91.9 L 124.2 86.5 C 124.3 83.2 124.1 80.3 123.8 77.9 Z M 64.1 99.8 L 69.5 105.1 C 69.5 106.9 69.7 108.8 69.8 110.7 L 77.2 109.7 L 77.2 108.7 L 71.6 103.2 C 70.7 102.0 70.1 100.7 69.9 98.8 C 69.9 98.9 69.9 99.1 69.8 99.2 C 69.8 99.2 69.8 99.3 69.8 99.3 Z M 118.3 104.4 C 118.3 104.4 118.3 104.4 118.3 104.4 C 118.2 104.4 118.2 104.4 118.2 104.4 C 117.9 104.5 117.7 104.6 117.4 104.6 C 117.4 104.7 117.3 104.7 117.3 104.7 C 117.2 104.7 117.2 104.7 117.1 104.7 C 116.8 104.8 116.5 104.8 116.1 104.8 C 115.8 104.8 115.6 104.8 115.3 104.8 L 115.3 104.8 C 115.3 104.8 115.3 104.8 115.3 104.8 C 115.1 104.8 114.8 104.8 114.6 104.8 C 114.5 104.7 114.5 104.7 114.4 104.7 C 114.2 104.7 114.1 104.6 113.9 104.6 C 113.8 104.6 113.8 104.5 113.7 104.5 C 113.5 104.5 113.4 104.4 113.3 104.4 C 113.2 104.3 113.1 104.3 113.0 104.3 C 112.9 104.2 112.8 104.2 112.7 104.1 C 112.7 104.1 112.7 104.1 112.6 104.1 C 112.6 104.1 112.6 104.0 112.5 104.0 C 112.3 103.9 112.1 103.8 112.0 103.6 C 111.9 103.6 111.8 103.5 111.8 103.5 C 111.6 103.3 111.3 103.1 111.1 102.9 L 111.1 102.9 L 103.7 95.7 C 100.5 92.5 98.9 86.1 95.8 80.7 C 95.3 80.5 94.8 80.3 94.3 80.1 C 94.3 80.1 94.3 80.1 94.3 80.1 C 93.9 80.0 93.4 79.8 93.0 79.7 C 92.9 79.7 92.8 79.7 92.7 79.7 C 92.3 79.6 91.8 79.5 91.3 79.4 C 91.2 79.4 91.1 79.4 91.0 79.4 C 90.5 79.3 90.0 79.3 89.5 79.3 C 89.5 79.3 89.5 79.3 89.4 79.3 C 88.8 79.2 88.2 79.2 87.5 79.3 C 87.0 79.3 86.4 79.4 85.8 79.4 C 85.6 79.5 85.5 79.5 85.3 79.5 C 84.9 79.6 84.5 79.7 84.2 79.8 C 84.0 79.8 83.8 79.9 83.7 79.9 C 83.3 80.0 82.9 80.1 82.5 80.3 C 82.4 80.3 82.3 80.3 82.1 80.4 C 81.7 80.6 81.2 80.8 80.8 81.0 C 80.7 81.1 80.6 81.1 80.5 81.2 C 80.1 81.4 79.8 81.6 79.4 81.8 C 79.3 81.8 79.2 81.9 79.1 82.0 C 78.7 82.3 78.3 82.5 77.9 82.9 C 77.8 82.9 77.7 83.0 77.6 83.1 C 77.3 83.4 77.0 83.6 76.7 83.9 C 76.6 84.0 76.4 84.2 76.3 84.3 C 76.1 84.6 75.8 84.8 75.6 85.0 C 75.4 85.3 75.2 85.5 75.0 85.8 C 74.8 86.0 74.7 86.2 74.5 86.4 C 74.3 86.7 74.1 87.0 74.0 87.3 C 73.8 87.4 73.7 87.6 73.6 87.8 C 73.7 87.7 73.8 87.7 73.9 87.6 C 74.0 87.6 74.0 87.5 74.1 87.5 C 74.1 87.5 74.1 87.5 74.2 87.5 C 74.4 87.3 74.6 87.2 74.8 87.1 C 74.8 87.1 74.9 87.1 74.9 87.1 C 74.9 87.1 74.9 87.1 74.9 87.1 C 75.2 87.0 75.5 86.9 75.8 86.8 C 75.8 86.8 75.8 86.8 75.9 86.8 C 75.9 86.8 75.9 86.8 76.0 86.8 C 76.3 86.7 76.6 86.7 77.0 86.7 C 77.2 86.7 77.4 86.7 77.6 86.7 C 77.6 86.7 77.6 86.7 77.6 86.7 C 77.7 86.7 77.8 86.7 77.8 86.7 C 78.0 86.7 78.1 86.7 78.2 86.7 C 78.3 86.8 78.4 86.8 78.5 86.8 C 78.6 86.8 78.7 86.8 78.8 86.9 C 78.9 86.9 79.0 86.9 79.0 87.0 C 79.1 87.0 79.2 87.0 79.3 87.1 C 79.4 87.1 79.5 87.1 79.6 87.2 C 79.7 87.2 79.8 87.3 79.9 87.3 C 79.9 87.3 79.9 87.3 79.9 87.3 C 79.9 87.4 80.0 87.4 80.0 87.4 C 80.2 87.5 80.3 87.6 80.5 87.7 C 80.5 87.8 80.6 87.8 80.7 87.8 C 80.8 88.0 81.0 88.2 81.2 88.3 L 81.2 88.3 L 81.2 88.3 L 88.7 95.6 C 88.9 95.8 89.1 96.1 89.3 96.4 C 89.4 96.5 89.5 96.6 89.5 96.6 C 89.7 96.8 89.8 97.0 90.0 97.3 C 90.1 97.4 90.1 97.5 90.2 97.6 C 90.3 97.8 90.5 98.0 90.6 98.2 C 90.7 98.4 90.7 98.5 90.8 98.6 C 90.8 98.7 90.9 98.7 90.9 98.8 C 91.0 99.0 91.1 99.2 91.2 99.4 C 91.3 99.5 91.3 99.6 91.3 99.7 C 91.5 100.0 91.7 100.4 91.9 100.8 C 91.9 100.9 92.0 101.0 92.0 101.1 C 92.1 101.4 92.3 101.7 92.4 102.0 C 92.5 102.2 92.6 102.3 92.6 102.5 C 92.7 102.8 92.9 103.1 93.0 103.4 C 93.1 103.7 93.3 104.1 93.5 104.5 C 93.5 104.6 93.6 104.8 93.6 105.0 C 93.8 105.4 94.0 105.8 94.2 106.3 C 94.2 106.4 94.3 106.5 94.3 106.6 C 94.5 106.9 94.6 107.2 94.8 107.6 C 94.9 107.7 94.9 107.9 95.0 108.0 C 95.1 108.3 95.3 108.6 95.4 108.9 C 95.5 109.0 95.6 109.2 95.6 109.3 C 95.8 109.7 96.0 110.1 96.2 110.4 C 96.2 110.5 96.3 110.5 96.3 110.6 C 96.4 110.8 96.5 110.9 96.6 111.1 C 96.8 111.2 97.1 111.3 97.3 111.4 C 97.4 111.4 97.5 111.4 97.5 111.5 C 97.9 111.6 98.4 111.8 98.8 111.9 C 98.9 111.9 99.0 111.9 99.0 111.9 C 100.0 112.2 101.0 112.3 102.2 112.4 C 102.3 112.4 102.3 112.4 102.4 112.4 C 103.0 112.4 103.6 112.4 104.2 112.4 C 104.9 112.4 105.5 112.3 106.1 112.2 C 106.3 112.2 106.5 112.1 106.6 112.1 C 107.0 112.0 107.4 112.0 107.8 111.9 C 108.0 111.8 108.2 111.8 108.4 111.7 C 108.8 111.6 109.2 111.5 109.5 111.4 C 109.7 111.3 109.9 111.3 110.1 111.2 C 110.5 111.0 111.0 110.8 111.4 110.6 C 111.5 110.6 111.5 110.6 111.5 110.6 C 112.0 110.3 112.5 110.1 113.0 109.8 C 113.1 109.7 113.2 109.6 113.4 109.5 C 113.7 109.3 114.0 109.1 114.4 108.8 C 114.5 108.8 114.6 108.7 114.7 108.6 C 115.0 108.3 115.3 108.1 115.6 107.9 C 115.7 107.7 115.9 107.6 116.1 107.4 C 116.4 107.2 116.7 106.8 117.0 106.5 C 117.1 106.4 117.2 106.3 117.3 106.2 C 117.5 106.0 117.7 105.7 117.9 105.5 C 118.1 105.2 118.3 105.0 118.5 104.8 C 118.7 104.5 118.9 104.3 119.1 104.0 C 119.1 104.0 119.1 104.0 119.1 104.0 L 119.1 104.0 C 118.8 104.1 118.6 104.2 118.3 104.4 M 138.6 93.1 L 138.6 93.1 L 138.3 99.1 L 131.2 99.7 C 131.1 100.3 130.9 101.0 130.8 101.7 C 130.7 101.9 130.6 102.1 130.6 102.3 C 130.5 102.7 130.4 103.2 130.2 103.6 C 130.2 103.8 130.1 104.1 130.0 104.3 C 129.9 104.7 129.7 105.1 129.6 105.5 C 129.5 105.7 129.4 106.0 129.3 106.2 C 129.1 106.6 129.0 106.9 128.8 107.3 C 128.7 107.5 128.6 107.8 128.5 108.0 C 128.3 108.3 128.1 108.7 128.0 109.0 C 127.8 109.2 127.7 109.5 127.5 109.7 C 127.4 110.0 127.2 110.3 127.0 110.6 C 126.8 110.8 126.7 111.0 126.5 111.3 C 126.3 111.5 126.1 111.8 125.9 112.1 C 125.8 112.3 125.6 112.5 125.4 112.7 C 125.2 113.0 125.0 113.2 124.8 113.5 C 124.8 113.5 124.8 113.5 124.7 113.5 C 124.6 113.6 124.5 113.7 124.4 113.8 C 124.1 114.1 123.8 114.4 123.5 114.7 C 123.4 114.9 123.2 115.0 123.0 115.1 C 122.8 115.3 122.6 115.5 122.4 115.7 C 122.3 115.8 122.2 115.8 122.2 115.9 C 122.0 115.9 121.9 116.0 121.8 116.1 C 121.5 116.4 121.1 116.6 120.8 116.8 C 120.7 116.9 120.5 117.0 120.4 117.1 C 120.3 117.1 120.2 117.2 120.2 117.2 C 119.8 117.4 119.4 117.6 119.0 117.8 C 118.9 117.9 118.9 117.9 118.9 117.9 C 118.5 118.1 118.2 118.2 117.8 118.3 C 117.7 118.4 117.6 118.4 117.5 118.5 C 117.3 118.5 117.1 118.6 117.0 118.7 C 116.6 118.8 116.2 118.9 115.9 119.0 C 115.7 119.0 115.5 119.1 115.3 119.1 C 115.2 119.2 115.1 119.2 115.0 119.2 C 114.7 119.3 114.4 119.3 114.1 119.4 C 113.9 119.4 113.7 119.5 113.5 119.5 C 112.9 119.6 112.3 119.6 111.7 119.7 C 111.1 119.7 110.5 119.7 110.0 119.7 C 109.9 119.7 109.9 119.7 109.8 119.7 C 109.8 119.7 109.7 119.7 109.6 119.7 C 108.5 119.6 107.4 119.4 106.5 119.2 C 106.4 119.2 106.3 119.2 106.3 119.2 C 105.8 119.0 105.4 118.9 105.0 118.7 C 104.9 118.7 104.8 118.7 104.7 118.7 C 104.3 118.5 103.9 118.3 103.5 118.1 C 103.5 118.1 103.4 118.1 103.3 118.0 C 103.2 118.0 103.1 117.9 103.0 117.8 C 102.7 117.7 102.5 117.5 102.2 117.4 C 102.2 117.4 102.2 117.4 102.2 117.4 C 101.8 117.1 101.5 116.9 101.2 116.6 C 101.1 116.5 101.0 116.5 100.9 116.4 C 100.6 116.1 100.3 115.9 100.0 115.6 L 100.0 115.6 L 100.0 115.6 L 96.0 111.7 L 92.5 108.3 L 92.5 108.3 L 92.5 108.3 C 92.2 108.0 91.9 107.6 91.6 107.3 C 91.5 107.1 91.4 107.0 91.3 106.9 C 91.1 106.7 90.9 106.4 90.7 106.1 C 90.6 106.0 90.5 105.9 90.4 105.7 C 90.2 105.5 90.0 105.2 89.8 104.9 C 89.7 104.8 89.7 104.7 89.6 104.6 C 89.3 104.2 89.1 103.7 88.9 103.3 C 88.8 103.3 88.8 103.2 88.8 103.1 C 88.6 102.8 88.4 102.4 88.2 102.1 C 88.1 101.9 88.0 101.8 88.0 101.6 C 87.8 101.3 87.7 101.0 87.5 100.7 C 87.5 100.6 87.4 100.4 87.3 100.3 C 87.2 100.0 87.0 99.6 86.9 99.3 C 86.9 99.2 86.8 99.1 86.8 99.0 C 86.6 98.5 86.4 98.1 86.2 97.7 C 86.1 97.5 86.1 97.3 86.0 97.2 C 85.8 96.8 85.7 96.5 85.6 96.1 C 85.4 95.8 85.3 95.5 85.2 95.2 C 85.1 95.1 85.0 94.9 85.0 94.8 C 84.9 94.5 84.7 94.2 84.6 93.9 C 84.5 93.9 84.5 93.9 84.4 93.9 C 84.1 94.0 83.7 94.0 83.4 94.1 C 83.4 94.1 83.3 94.1 83.2 94.1 C 82.9 94.2 82.6 94.3 82.3 94.4 C 82.3 94.4 82.3 94.4 82.3 94.4 C 82.0 94.5 81.8 94.6 81.6 94.7 C 81.5 94.8 81.5 94.8 81.4 94.9 C 81.2 95.0 81.0 95.1 80.8 95.2 C 80.8 95.3 80.7 95.3 80.7 95.4 C 80.4 95.6 80.2 95.8 79.9 96.1 C 79.9 96.1 79.8 96.2 79.7 96.3 C 79.7 96.4 79.6 96.5 79.5 96.6 C 79.4 96.7 79.3 96.8 79.3 96.9 C 79.2 97.0 79.1 97.1 79.0 97.2 C 79.0 97.3 78.9 97.4 78.9 97.5 C 78.8 97.6 78.7 97.7 78.7 97.9 C 78.6 98.0 78.5 98.1 78.5 98.2 C 78.4 98.3 78.4 98.5 78.3 98.6 C 78.3 98.7 78.2 98.8 78.2 98.9 C 78.1 99.1 78.1 99.2 78.0 99.4 C 78.0 99.5 77.9 99.6 77.9 99.7 C 77.8 99.9 77.8 100.0 77.8 100.2 C 77.7 100.3 77.7 100.4 77.7 100.5 C 77.6 100.7 77.6 100.9 77.6 101.1 C 77.5 101.2 77.5 101.3 77.5 101.4 C 77.5 101.7 77.4 102.0 77.4 102.3 C 77.4 102.5 77.3 102.8 77.3 103.1 L 77.5 103.1 L 84.9 110.3 L 84.6 117.0 L 70.7 118.8 L 63.3 111.5 C 63.0 109.7 62.8 107.7 62.6 105.7 L 61.2 105.9 L 53.7 98.6 L 54.0 92.8 L 62.4 92.0 C 62.5 91.3 62.6 90.6 62.7 89.9 C 62.7 89.7 62.8 89.5 62.9 89.2 C 62.9 88.8 63.0 88.3 63.1 87.9 C 63.2 87.6 63.3 87.4 63.4 87.1 C 63.5 86.7 63.6 86.3 63.7 85.9 C 63.8 85.7 63.9 85.4 64.0 85.2 C 64.1 84.8 64.2 84.4 64.4 84.1 C 64.5 83.8 64.6 83.6 64.7 83.3 C 64.9 83.0 65.0 82.7 65.2 82.3 C 65.3 82.1 65.4 81.8 65.6 81.6 C 65.7 81.3 65.9 81.0 66.1 80.7 C 66.2 80.5 66.4 80.2 66.5 80.0 C 66.7 79.7 66.9 79.4 67.1 79.2 C 67.2 78.9 67.4 78.7 67.6 78.5 C 67.8 78.3 68.0 78.0 68.2 77.8 C 68.3 77.7 68.3 77.6 68.4 77.5 C 68.6 77.3 68.7 77.2 68.8 77.0 C 69.0 76.9 69.1 76.8 69.3 76.6 C 69.5 76.4 69.8 76.1 70.1 75.9 C 70.2 75.8 70.3 75.7 70.5 75.6 C 70.5 75.6 70.5 75.5 70.5 75.5 C 70.9 75.2 71.3 75.0 71.7 74.7 C 71.8 74.6 71.9 74.6 72.0 74.5 C 72.1 74.4 72.3 74.3 72.5 74.2 C 72.7 74.1 72.9 74.0 73.0 73.9 C 73.1 73.8 73.2 73.8 73.3 73.7 C 73.7 73.5 74.1 73.3 74.5 73.2 C 74.6 73.2 74.6 73.1 74.7 73.1 C 74.8 73.1 75.0 73.0 75.1 73.0 C 75.5 72.8 75.8 72.7 76.2 72.6 C 76.4 72.6 76.6 72.5 76.7 72.5 C 76.8 72.5 77.0 72.4 77.1 72.4 C 77.3 72.3 77.6 72.3 77.9 72.3 C 78.0 72.2 78.2 72.2 78.4 72.2 C 78.9 72.1 79.5 72.0 80.1 72.0 C 80.7 72.0 81.3 72.0 81.9 72.0 C 81.9 72.0 82.0 72.0 82.0 72.0 C 82.0 72.0 82.1 72.0 82.1 72.0 C 82.6 72.0 83.1 72.0 83.6 72.1 C 83.7 72.1 83.8 72.1 83.9 72.1 C 84.4 72.2 84.8 72.3 85.3 72.4 C 85.4 72.4 85.5 72.4 85.5 72.4 C 86.0 72.6 86.5 72.7 86.9 72.8 C 86.9 72.8 86.9 72.8 86.9 72.8 L 86.9 72.8 C 87.4 73.0 87.9 73.2 88.4 73.4 C 88.4 73.4 88.5 73.5 88.5 73.5 C 88.8 73.6 89.1 73.8 89.3 73.9 C 89.5 74.0 89.6 74.1 89.8 74.2 C 89.9 74.2 89.9 74.3 90.0 74.3 C 90.4 74.6 90.8 74.8 91.1 75.1 C 91.2 75.2 91.3 75.2 91.3 75.3 C 91.7 75.6 92.1 75.9 92.4 76.2 L 99.8 83.5 C 103.8 87.3 105.6 93.0 107.7 97.5 C 107.8 97.5 107.8 97.6 107.9 97.6 C 107.9 97.6 107.9 97.6 107.9 97.6 C 108.1 97.6 108.4 97.6 108.6 97.6 C 109.0 97.5 109.4 97.5 109.7 97.4 C 109.8 97.4 109.9 97.4 110.0 97.4 C 110.2 97.3 110.5 97.2 110.7 97.1 C 110.8 97.1 110.8 97.1 110.9 97.1 C 111.1 97.0 111.4 96.9 111.6 96.7 C 111.7 96.7 111.7 96.6 111.8 96.6 C 112.0 96.5 112.1 96.4 112.3 96.2 C 112.4 96.2 112.4 96.1 112.5 96.1 C 112.8 95.9 113.0 95.6 113.3 95.4 C 113.3 95.4 113.3 95.4 113.3 95.4 C 113.4 95.2 113.6 95.0 113.7 94.8 C 113.8 94.7 113.8 94.6 113.9 94.6 C 114.0 94.4 114.1 94.3 114.2 94.1 C 114.2 94.0 114.3 93.9 114.3 93.9 C 114.4 93.7 114.5 93.6 114.6 93.4 C 114.6 93.3 114.7 93.2 114.7 93.1 C 114.8 93.0 114.8 92.8 114.9 92.7 C 115.0 92.6 115.0 92.5 115.0 92.4 C 115.1 92.2 115.1 92.0 115.2 91.9 C 115.2 91.8 115.3 91.7 115.3 91.6 C 115.3 91.4 115.4 91.2 115.4 91.1 C 115.5 91.0 115.5 90.8 115.5 90.7 C 115.5 90.6 115.6 90.4 115.6 90.2 C 115.6 90.1 115.6 90.0 115.7 89.9 C 115.7 89.6 115.7 89.3 115.8 89.0 C 115.8 88.6 115.8 88.3 115.9 87.9 C 115.9 87.8 115.9 87.7 115.9 87.5 C 115.9 87.3 115.9 87.0 115.9 86.8 C 115.9 86.7 115.9 86.5 115.9 86.4 C 115.9 86.2 115.9 86.0 115.9 85.8 C 115.9 85.7 115.9 85.7 115.9 85.6 C 115.8 85.6 115.8 85.6 115.7 85.6 C 115.6 85.6 115.5 85.6 115.5 85.6 C 115.3 85.6 115.2 85.6 115.1 85.7 C 115.1 85.7 115.0 85.7 115.0 85.7 C 114.8 85.7 114.8 85.7 114.7 85.7 C 114.6 85.7 114.6 85.7 114.6 85.7 C 114.5 85.7 114.4 85.7 114.4 85.7 L 107.0 78.4 L 107.1 72.0 L 121.6 69.9 L 129.0 77.2 C 129.1 77.4 130.6 80.5 131.3 86.1 Z M 138.6 93.1 " fill="#855F13"></path><path d="M 137.3 52.6 C 137.2 52.6 137.2 52.5 137.1 52.5 C 137.0 52.4 136.9 52.3 136.7 52.2 C 136.1 51.7 135.4 51.2 134.6 50.7 C 134.5 50.6 134.3 50.5 134.2 50.4 C 133.6 50.0 132.9 49.6 132.3 49.2 C 132.1 49.2 132.0 49.1 131.9 49.0 C 131.2 48.6 130.4 48.2 129.7 47.8 C 129.5 47.7 129.3 47.7 129.1 47.6 C 128.4 47.2 127.7 46.9 127.0 46.6 C 126.9 46.6 126.8 46.5 126.7 46.5 C 125.9 46.2 125.1 45.9 124.3 45.6 C 124.1 45.5 123.9 45.4 123.7 45.4 C 122.9 45.1 122.1 44.8 121.3 44.6 C 121.2 44.6 121.2 44.6 121.1 44.6 C 120.3 44.3 119.4 44.1 118.5 43.9 C 118.3 43.9 118.1 43.9 117.9 43.8 C 117.0 43.6 116.1 43.5 115.2 43.3 C 115.2 43.3 115.1 43.3 115.1 43.3 C 114.2 43.2 113.3 43.1 112.4 43.0 C 112.2 43.0 112.0 43.0 111.8 43.0 C 110.8 42.9 109.9 42.8 108.9 42.8 C 108.5 42.8 108.0 42.8 107.6 42.8 C 107.4 42.8 107.1 42.8 106.9 42.8 C 106.2 42.8 105.5 42.8 104.8 42.8 C 103.9 42.9 103.0 43.0 102.1 43.0 C 101.8 43.1 101.5 43.1 101.2 43.1 C 100.6 43.2 100.0 43.3 99.4 43.4 C 99.1 43.4 98.8 43.5 98.4 43.5 C 97.9 43.6 97.3 43.7 96.8 43.8 C 96.4 43.9 96.1 43.9 95.7 44.0 C 95.2 44.1 94.7 44.3 94.1 44.4 C 93.8 44.5 93.4 44.5 93.1 44.6 C 92.5 44.8 92.0 44.9 91.5 45.1 C 91.1 45.2 90.8 45.3 90.5 45.4 C 89.9 45.5 89.3 45.7 88.7 45.9 C 88.4 46.0 88.2 46.1 87.9 46.2 C 87.1 46.5 86.2 46.8 85.4 47.2 C 85.3 47.2 85.3 47.2 85.2 47.2 C 84.5 47.5 83.7 47.9 83.0 48.2 C 82.7 48.3 82.5 48.4 82.2 48.6 C 81.7 48.8 81.1 49.1 80.6 49.3 C 80.3 49.5 80.0 49.6 79.7 49.8 C 79.2 50.0 78.7 50.3 78.2 50.6 C 77.9 50.7 77.6 50.9 77.4 51.0 C 76.8 51.4 76.3 51.7 75.7 52.0 C 75.5 52.2 75.3 52.3 75.1 52.4 C 74.3 52.9 73.6 53.4 72.9 53.9 C 72.7 54.0 72.6 54.1 72.5 54.1 C 71.9 54.6 71.3 55.0 70.7 55.4 C 70.4 55.6 70.2 55.8 70.0 56.0 C 69.5 56.3 69.1 56.7 68.6 57.0 C 68.3 57.3 67.9 57.6 67.5 57.9 C 67.2 58.2 66.8 58.5 66.4 58.8 C 66.1 59.1 65.7 59.5 65.4 59.8 C 65.0 60.1 64.7 60.4 64.3 60.8 C 64.0 61.1 63.7 61.4 63.3 61.7 C 63.0 62.1 62.6 62.4 62.3 62.8 C 62.0 63.1 61.7 63.4 61.3 63.8 C 61.0 64.1 60.7 64.5 60.3 64.9 C 60.1 65.2 59.8 65.5 59.6 65.7 C 59.2 66.1 58.9 66.6 58.5 67.0 C 58.3 67.3 58.0 67.6 57.8 67.9 C 57.5 68.3 57.1 68.7 56.8 69.1 C 56.6 69.4 56.4 69.7 56.1 70.0 C 55.8 70.5 55.5 71.0 55.2 71.4 C 55.0 71.7 54.7 72.0 54.5 72.3 C 54.2 72.8 53.9 73.3 53.5 73.8 C 53.4 74.1 53.2 74.3 53.1 74.6 C 52.6 75.4 52.1 76.1 51.7 76.9 C 51.6 77.0 51.6 77.1 51.6 77.1 C 51.2 77.9 50.8 78.6 50.4 79.3 C 50.2 79.6 50.1 79.9 50.0 80.2 C 49.7 80.7 49.4 81.3 49.2 81.8 C 49.0 82.1 48.9 82.5 48.8 82.8 C 48.5 83.3 48.3 83.8 48.1 84.3 C 48.0 84.7 47.8 85.0 47.7 85.4 C 47.5 85.9 47.3 86.4 47.1 86.9 C 47.0 87.3 46.9 87.6 46.8 88.0 C 46.6 88.5 46.4 89.0 46.3 89.5 C 46.1 89.9 46.0 90.3 45.9 90.6 C 45.8 91.1 45.6 91.7 45.5 92.2 C 45.4 92.6 45.3 92.9 45.2 93.3 C 45.1 93.8 45.0 94.4 44.9 94.9 C 44.8 95.3 44.7 95.6 44.6 96.0 C 44.5 96.6 44.4 97.2 44.3 97.8 C 44.3 98.1 44.2 98.4 44.2 98.7 C 44.1 99.6 43.9 100.5 43.8 101.5 C 43.8 102.4 43.7 103.3 43.7 104.2 C 43.6 104.4 43.6 104.7 43.6 104.9 C 43.6 105.6 43.6 106.3 43.6 107.0 C 43.6 107.2 43.6 107.4 43.6 107.6 C 43.6 108.5 43.6 109.3 43.7 110.2 C 43.7 110.4 43.7 110.5 43.7 110.7 C 43.8 111.4 43.8 112.1 43.9 112.8 C 43.9 113.0 44.0 113.3 44.0 113.5 C 44.1 114.3 44.2 115.0 44.3 115.7 C 44.3 115.8 44.4 115.9 44.4 116.0 C 44.5 116.8 44.7 117.6 44.9 118.4 C 44.9 118.7 45.0 118.9 45.0 119.1 C 45.2 119.7 45.3 120.3 45.5 120.9 C 45.6 121.1 45.6 121.4 45.7 121.6 C 45.9 122.3 46.1 123.1 46.4 123.9 C 46.5 124.0 46.5 124.1 46.5 124.2 C 46.8 124.9 47.0 125.5 47.3 126.1 C 47.4 126.3 47.5 126.6 47.5 126.8 C 47.8 127.4 48.1 128.0 48.4 128.6 C 48.4 128.7 48.5 128.8 48.5 129.0 C 48.9 129.7 49.2 130.4 49.6 131.0 C 49.7 131.2 49.8 131.4 49.9 131.6 C 50.2 132.0 50.4 132.5 50.7 132.9 C 51.0 133.4 51.3 133.8 51.6 134.3 C 51.8 134.6 52.0 134.9 52.3 135.2 C 52.6 135.7 52.9 136.1 53.3 136.6 C 53.5 136.9 53.7 137.2 53.9 137.4 C 54.0 137.5 54.0 137.6 54.1 137.7 C 54.1 137.7 54.2 137.7 54.2 137.8 C 54.5 138.0 54.7 138.1 55.0 138.3 C 55.4 138.7 55.9 139.0 56.4 139.3 C 56.7 139.5 56.9 139.7 57.2 139.9 C 57.8 140.2 58.3 140.6 58.9 140.9 C 59.1 141.0 59.3 141.2 59.5 141.3 C 60.3 141.7 61.1 142.1 61.9 142.5 C 62.0 142.6 62.2 142.7 62.3 142.7 C 63.0 143.1 63.7 143.4 64.3 143.7 C 64.6 143.8 64.9 143.9 65.2 144.0 C 65.8 144.2 66.3 144.4 66.9 144.6 C 67.2 144.8 67.6 144.9 67.9 145.0 C 68.5 145.2 69.0 145.3 69.6 145.5 C 69.9 145.6 70.3 145.7 70.6 145.8 C 71.2 146.0 71.9 146.1 72.6 146.3 C 72.8 146.3 73.1 146.4 73.3 146.4 C 74.2 146.6 75.2 146.8 76.1 146.9 C 76.3 147.0 76.5 147.0 76.7 147.0 C 77.5 147.1 78.2 147.2 79.0 147.3 C 79.3 147.3 79.7 147.3 80.0 147.4 C 80.7 147.4 81.3 147.4 82.0 147.5 C 82.4 147.5 82.9 147.5 83.4 147.5 C 83.7 147.5 83.9 147.5 84.1 147.5 C 84.9 147.5 85.8 147.5 86.6 147.4 C 87.5 147.4 88.4 147.3 89.3 147.2 C 89.6 147.2 89.9 147.2 90.1 147.1 C 90.7 147.1 91.3 147.0 91.9 146.9 C 92.3 146.9 92.6 146.8 93.0 146.8 C 93.5 146.7 94.1 146.6 94.6 146.5 C 95.0 146.4 95.3 146.3 95.6 146.3 C 96.2 146.2 96.7 146.0 97.2 145.9 C 97.6 145.8 98.0 145.7 98.3 145.7 C 98.8 145.5 99.4 145.4 99.9 145.2 C 100.2 145.1 100.6 145.0 100.9 144.9 C 101.5 144.7 102.1 144.5 102.7 144.3 C 102.9 144.3 103.2 144.2 103.5 144.1 C 104.3 143.8 105.2 143.5 106.0 143.1 C 106.1 143.1 106.1 143.1 106.2 143.1 C 106.9 142.7 107.7 142.4 108.4 142.1 C 108.7 142.0 108.9 141.9 109.2 141.7 C 109.7 141.5 110.3 141.2 110.8 141.0 C 111.1 140.8 111.4 140.7 111.7 140.5 C 112.2 140.3 112.7 140.0 113.2 139.7 C 113.5 139.5 113.7 139.4 114.0 139.2 C 114.5 138.9 115.1 138.6 115.6 138.3 C 115.9 138.1 116.1 138.0 116.3 137.9 C 117.0 137.4 117.8 136.9 118.5 136.4 C 118.7 136.3 118.8 136.2 118.9 136.1 C 119.5 135.7 120.1 135.3 120.7 134.9 C 120.9 134.7 121.2 134.5 121.4 134.3 C 121.9 134.0 122.3 133.6 122.8 133.3 C 123.1 133.0 123.5 132.7 123.8 132.4 C 124.2 132.1 124.6 131.8 124.9 131.4 C 125.3 131.1 125.6 130.8 126.0 130.5 C 126.3 130.2 126.7 129.9 127.0 129.5 C 127.4 129.2 127.7 128.9 128.0 128.6 C 128.4 128.2 128.7 127.9 129.1 127.5 C 129.4 127.2 129.7 126.9 130.0 126.5 C 130.4 126.2 130.7 125.8 131.0 125.4 C 131.3 125.1 131.6 124.8 131.8 124.5 C 132.2 124.1 132.5 123.7 132.8 123.3 C 133.1 123.0 133.3 122.7 133.6 122.4 C 133.9 122.0 134.2 121.6 134.6 121.1 C 134.8 120.8 135.0 120.5 135.2 120.2 C 135.6 119.8 135.9 119.3 136.2 118.9 C 136.4 118.6 136.6 118.3 136.8 118.0 C 137.2 117.5 137.5 117.0 137.8 116.4 C 138.0 116.2 138.2 116.0 138.3 115.7 C 138.8 114.9 139.3 114.1 139.7 113.4 C 139.7 113.3 139.8 113.2 139.8 113.1 C 140.2 112.4 140.6 111.7 141.0 110.9 C 141.1 110.7 141.3 110.4 141.4 110.1 C 141.7 109.6 141.9 109.0 142.2 108.5 C 142.3 108.1 142.5 107.8 142.6 107.5 C 142.8 107.0 143.1 106.5 143.3 106.0 C 143.4 105.6 143.5 105.2 143.7 104.9 C 143.9 104.4 144.1 103.9 144.2 103.4 C 144.4 103.0 144.5 102.7 144.6 102.3 C 144.8 101.8 145.0 101.3 145.1 100.8 C 145.2 100.4 145.3 100.0 145.4 99.6 C 145.6 99.1 145.7 98.6 145.9 98.1 C 146.0 97.7 146.1 97.4 146.2 97.0 C 146.3 96.4 146.4 95.9 146.5 95.4 C 146.6 95.0 146.7 94.6 146.7 94.3 C 146.9 93.7 146.9 93.1 147.0 92.5 C 147.1 92.2 147.2 91.9 147.2 91.6 C 147.3 90.7 147.4 89.7 147.5 88.8 C 148.9 74.7 144.9 62.1 137.3 52.6 M 58.7 153.6 C 58.1 153.2 57.6 152.8 57.0 152.4 C 56.7 152.2 56.4 152.0 56.2 151.8 C 55.6 151.3 55.1 150.9 54.5 150.4 C 54.3 150.2 54.0 150.0 53.8 149.8 C 53.0 149.2 52.3 148.5 51.5 147.8 L 44.1 140.5 C 44.8 141.2 45.6 141.9 46.3 142.5 C 46.6 142.8 46.8 143.0 47.1 143.2 C 47.6 143.6 48.2 144.1 48.7 144.5 C 49.0 144.7 49.3 144.9 49.6 145.2 C 50.1 145.5 50.7 145.9 51.3 146.3 C 51.6 146.5 51.9 146.7 52.2 146.9 C 52.8 147.3 53.4 147.7 54.1 148.1 C 54.3 148.2 54.6 148.4 54.8 148.5 C 55.7 149.0 56.6 149.5 57.5 150.0 C 57.7 150.0 57.9 150.1 58.0 150.2 C 58.8 150.6 59.6 150.9 60.3 151.2 C 60.7 151.4 61.0 151.5 61.3 151.6 C 62.0 151.9 62.6 152.1 63.3 152.4 C 63.6 152.5 64.0 152.6 64.4 152.8 C 65.0 153.0 65.7 153.2 66.4 153.4 C 66.7 153.5 67.1 153.6 67.5 153.7 C 68.2 153.9 69.0 154.1 69.8 154.2 C 70.1 154.3 70.3 154.4 70.6 154.4 C 71.7 154.7 72.7 154.8 73.8 155.0 C 74.0 155.0 74.3 155.1 74.5 155.1 C 75.4 155.2 76.2 155.3 77.1 155.4 C 77.5 155.4 77.9 155.5 78.3 155.5 C 79.0 155.5 79.8 155.6 80.5 155.6 C 81.1 155.6 81.6 155.6 82.2 155.6 C 82.4 155.6 82.7 155.6 83.0 155.6 C 83.9 155.6 84.9 155.6 85.8 155.6 C 86.8 155.5 87.9 155.5 88.9 155.4 C 89.2 155.3 89.5 155.3 89.9 155.2 C 90.6 155.2 91.3 155.1 91.9 155.0 C 92.3 154.9 92.7 154.9 93.1 154.8 C 93.2 154.8 93.4 154.8 93.5 154.7 C 92.9 154.8 92.2 154.8 91.6 154.8 C 91.3 154.8 91.1 154.8 90.9 154.8 C 90.6 154.8 90.2 154.8 89.9 154.8 C 89.8 154.8 89.6 154.7 89.4 154.7 C 88.7 154.7 88.1 154.7 87.5 154.6 C 87.1 154.6 86.8 154.6 86.4 154.6 C 85.7 154.5 84.9 154.4 84.2 154.3 C 84.0 154.3 83.8 154.2 83.6 154.2 C 82.6 154.1 81.7 153.9 80.8 153.7 C 80.5 153.7 80.3 153.6 80.0 153.5 C 79.4 153.4 78.7 153.2 78.0 153.1 C 77.7 153.0 77.4 152.9 77.1 152.8 C 76.5 152.6 75.9 152.4 75.3 152.3 C 75.0 152.1 74.7 152.0 74.4 151.9 C 73.8 151.7 73.2 151.5 72.7 151.3 C 72.4 151.2 72.1 151.1 71.8 150.9 C 71.1 150.6 70.4 150.3 69.8 150.0 C 69.6 150.0 69.5 149.9 69.3 149.8 C 68.5 149.4 67.7 149.0 67.0 148.6 C 66.9 148.5 66.9 148.5 66.8 148.5 C 66.6 148.4 66.5 148.3 66.3 148.2 C 65.8 147.9 65.2 147.5 64.7 147.2 C 64.4 147.0 64.1 146.8 63.9 146.6 C 63.4 146.3 62.9 146.0 62.4 145.6 C 62.2 145.4 61.9 145.2 61.6 145.0 C 61.2 144.7 60.7 144.3 60.2 143.9 C 60.0 143.7 59.8 143.5 59.6 143.3 C 58.9 142.8 58.2 142.2 57.6 141.5 L 50.8 134.8 L 50.2 134.3 L 50.2 134.3 C 49.5 133.6 48.9 133.0 48.3 132.3 C 48.1 132.1 47.9 131.8 47.7 131.6 C 47.3 131.1 46.9 130.7 46.5 130.2 C 46.2 129.9 46.0 129.6 45.8 129.3 C 45.5 128.9 45.1 128.4 44.8 128.0 C 44.6 127.6 44.4 127.3 44.2 127.0 C 43.9 126.5 43.6 126.1 43.3 125.6 C 43.2 125.5 43.1 125.3 43.0 125.2 C 43.0 125.2 43.0 125.2 43.0 125.2 C 43.0 125.2 43.0 125.2 43.0 125.2 C 42.8 124.9 42.6 124.6 42.5 124.3 C 42.4 124.1 42.3 123.9 42.2 123.8 C 41.8 123.1 41.4 122.4 41.1 121.7 C 41.0 121.6 41.0 121.4 40.9 121.3 C 40.6 120.7 40.4 120.1 40.1 119.5 C 40.0 119.3 39.9 119.1 39.8 118.8 C 39.6 118.2 39.3 117.6 39.1 116.9 C 39.1 116.8 39.0 116.7 39.0 116.6 C 38.7 115.8 38.5 115.1 38.2 114.3 C 38.2 114.1 38.1 113.9 38.1 113.7 C 37.9 113.1 37.7 112.4 37.6 111.8 C 37.5 111.6 37.5 111.4 37.4 111.2 C 37.2 110.4 37.1 109.6 36.9 108.7 C 36.9 108.7 36.9 108.6 36.9 108.5 C 36.8 107.7 36.7 107.0 36.6 106.2 C 36.5 106.0 36.5 105.8 36.5 105.5 C 36.4 104.8 36.3 104.1 36.3 103.4 C 36.3 103.3 36.3 103.1 36.2 102.9 C 36.2 102.1 36.2 101.2 36.2 100.3 C 36.2 100.1 36.2 99.9 36.2 99.7 C 36.2 99.0 36.2 98.3 36.2 97.6 C 36.2 97.4 36.2 97.1 36.2 96.9 C 36.3 96.0 36.3 95.1 36.4 94.2 C 36.5 93.3 36.6 92.3 36.7 91.4 C 36.8 91.1 36.8 90.8 36.9 90.5 C 37.0 89.9 37.1 89.3 37.2 88.7 C 37.3 88.4 37.3 88.0 37.4 87.7 C 37.5 87.1 37.7 86.6 37.8 86.0 C 37.9 85.6 38.0 85.3 38.1 84.9 C 38.2 84.4 38.3 83.9 38.5 83.4 C 38.6 83.0 38.7 82.6 38.8 82.2 C 39.0 81.7 39.1 81.2 39.3 80.7 C 39.4 80.4 39.6 80.0 39.7 79.6 C 39.9 79.1 40.1 78.6 40.3 78.1 C 40.4 77.8 40.5 77.4 40.7 77.1 C 40.9 76.5 41.1 76.0 41.3 75.5 C 41.5 75.2 41.6 74.9 41.8 74.5 C 42.0 74.0 42.3 73.4 42.5 72.9 C 42.7 72.6 42.8 72.3 42.9 72.1 C 43.3 71.3 43.7 70.6 44.1 69.8 C 44.2 69.8 44.2 69.7 44.2 69.7 C 44.7 68.9 45.1 68.1 45.6 67.3 C 45.8 67.1 45.9 66.8 46.1 66.6 C 46.4 66.0 46.8 65.5 47.1 65.0 C 47.3 64.7 47.5 64.4 47.7 64.1 C 48.0 63.7 48.4 63.2 48.7 62.8 C 48.9 62.5 49.1 62.2 49.4 61.9 C 49.7 61.4 50.0 61.0 50.4 60.6 C 50.6 60.3 50.8 60.0 51.1 59.7 C 51.4 59.3 51.8 58.9 52.1 58.5 C 52.4 58.2 52.6 57.9 52.9 57.6 C 53.0 57.4 53.2 57.3 53.3 57.1 C 53.5 56.9 53.7 56.7 53.9 56.5 C 54.2 56.1 54.5 55.8 54.9 55.5 C 55.2 55.1 55.5 54.8 55.9 54.4 C 56.2 54.1 56.6 53.8 56.9 53.5 C 57.2 53.1 57.6 52.8 58.0 52.5 C 58.3 52.2 58.6 51.9 59.0 51.6 C 59.4 51.3 59.7 50.9 60.1 50.6 C 60.5 50.3 60.8 50.0 61.2 49.7 C 61.3 49.6 61.4 49.5 61.6 49.4 C 61.9 49.2 62.2 48.9 62.5 48.7 C 62.8 48.5 63.0 48.3 63.2 48.1 C 63.8 47.7 64.4 47.3 65.0 46.9 C 65.2 46.8 65.3 46.7 65.4 46.6 C 66.1 46.1 66.9 45.6 67.6 45.1 C 67.9 45.0 68.1 44.9 68.3 44.7 C 68.7 44.5 69.1 44.2 69.6 44.0 C 69.7 43.9 69.8 43.8 69.9 43.8 C 70.2 43.6 70.5 43.5 70.7 43.3 C 71.2 43.0 71.8 42.8 72.3 42.5 C 72.6 42.3 72.8 42.2 73.1 42.1 C 73.7 41.8 74.2 41.5 74.8 41.3 C 75.0 41.2 75.3 41.0 75.5 40.9 C 76.3 40.6 77.0 40.3 77.8 39.9 C 77.8 39.9 77.9 39.9 77.9 39.9 C 77.9 39.9 78.0 39.9 78.0 39.9 C 78.8 39.5 79.6 39.2 80.5 38.9 C 80.7 38.8 81.0 38.8 81.3 38.7 C 81.8 38.5 82.4 38.3 83.0 38.1 C 83.4 38.0 83.7 37.9 84.0 37.8 C 84.6 37.6 85.1 37.5 85.6 37.4 C 86.0 37.3 86.3 37.2 86.7 37.1 C 87.0 37.0 87.3 37.0 87.6 36.9 C 87.8 36.8 88.1 36.8 88.3 36.7 C 88.6 36.7 89.0 36.6 89.3 36.5 C 89.9 36.4 90.4 36.3 91.0 36.2 C 91.3 36.2 91.7 36.1 92.0 36.1 C 92.6 36.0 93.2 35.9 93.8 35.9 C 94.1 35.8 94.4 35.8 94.7 35.8 C 95.6 35.7 96.5 35.6 97.4 35.6 C 98.1 35.5 98.8 35.5 99.5 35.5 C 99.7 35.5 99.9 35.5 100.2 35.5 C 100.6 35.5 101.0 35.5 101.4 35.5 C 101.5 35.5 101.5 35.5 101.5 35.5 C 102.5 35.6 103.4 35.6 104.3 35.7 C 104.5 35.7 104.8 35.7 105.0 35.7 C 105.9 35.8 106.8 35.9 107.7 36.0 C 107.7 36.1 107.7 36.1 107.7 36.1 C 108.7 36.2 109.5 36.4 110.4 36.5 C 110.6 36.6 110.9 36.6 111.1 36.7 C 112.0 36.9 112.8 37.1 113.7 37.3 C 113.7 37.3 113.8 37.3 113.8 37.3 C 114.6 37.6 115.4 37.8 116.2 38.1 C 116.4 38.2 116.6 38.2 116.8 38.3 C 117.6 38.6 118.5 38.9 119.3 39.2 C 119.4 39.2 119.4 39.3 119.5 39.3 C 120.3 39.6 121.0 40.0 121.7 40.3 C 121.9 40.4 122.0 40.5 122.2 40.6 C 123.0 40.9 123.7 41.3 124.5 41.7 C 124.5 41.8 124.5 41.8 124.6 41.8 C 124.6 41.8 124.7 41.9 124.8 42.0 C 125.5 42.3 126.1 42.7 126.7 43.1 C 126.9 43.2 127.0 43.3 127.2 43.4 C 127.3 43.5 127.4 43.6 127.5 43.6 C 128.1 44.0 128.7 44.5 129.3 44.9 C 129.4 45.0 129.6 45.1 129.7 45.2 C 130.2 45.6 130.8 46.1 131.3 46.6 C 131.5 46.7 131.7 46.9 131.9 47.0 C 132.5 47.6 133.2 48.1 133.8 48.7 L 141.2 56.0 L 141.2 56.0 L 141.2 56.0 C 150.2 64.8 155.5 77.4 155.2 91.7 C 155.2 91.7 155.2 91.6 155.2 91.6 C 155.4 90.5 155.5 89.5 155.6 88.4 C 156.5 79.2 155.4 70.5 152.7 62.7 C 149.9 54.9 145.5 48.1 139.9 42.5 L 139.9 42.5 L 139.9 42.5 L 147.3 49.8 C 158.6 60.9 164.8 77.2 163.1 95.7 C 162.9 96.8 162.8 97.8 162.7 98.9 C 162.6 99.2 162.6 99.5 162.5 99.9 C 162.4 100.6 162.3 101.3 162.1 102.0 C 162.1 102.4 162.0 102.8 161.9 103.2 C 161.8 103.8 161.6 104.4 161.5 105.1 C 161.4 105.5 161.3 105.9 161.2 106.3 C 161.0 106.9 160.8 107.5 160.7 108.1 C 160.5 108.5 160.4 109.0 160.3 109.4 C 160.1 110.0 159.9 110.5 159.7 111.1 C 159.6 111.5 159.4 112.0 159.3 112.4 C 159.1 113.0 158.9 113.5 158.7 114.1 C 158.5 114.5 158.3 114.9 158.2 115.3 C 157.9 115.9 157.7 116.5 157.4 117.1 C 157.3 117.5 157.1 117.8 156.9 118.2 C 156.6 118.8 156.3 119.5 156.0 120.1 C 155.9 120.4 155.7 120.7 155.6 121.0 C 155.1 121.9 154.7 122.7 154.2 123.5 C 154.2 123.6 154.1 123.7 154.1 123.8 C 153.6 124.7 153.0 125.6 152.5 126.5 C 152.3 126.8 152.1 127.1 152.0 127.3 C 151.6 127.9 151.2 128.5 150.8 129.1 C 150.6 129.5 150.3 129.8 150.1 130.1 C 149.7 130.7 149.4 131.2 149.0 131.7 C 148.7 132.1 148.5 132.4 148.2 132.7 C 147.8 133.2 147.5 133.7 147.1 134.2 C 146.8 134.5 146.5 134.9 146.2 135.2 C 145.8 135.7 145.5 136.2 145.1 136.6 C 144.8 137.0 144.5 137.3 144.2 137.6 C 144.0 137.8 143.8 138.0 143.7 138.2 C 143.5 138.4 143.2 138.7 143.0 138.9 C 142.6 139.3 142.3 139.7 141.9 140.0 C 141.5 140.4 141.1 140.8 140.7 141.2 C 140.4 141.6 140.0 142.0 139.6 142.3 C 139.2 142.7 138.8 143.1 138.4 143.5 C 138.0 143.8 137.6 144.2 137.2 144.5 C 136.8 144.9 136.3 145.3 135.9 145.6 C 135.5 146.0 135.1 146.3 134.7 146.6 C 134.5 146.7 134.4 146.9 134.2 147.0 C 133.9 147.3 133.5 147.5 133.2 147.8 C 132.9 148.0 132.6 148.2 132.3 148.5 C 131.6 149.0 131.0 149.4 130.3 149.9 C 130.1 150.0 130.0 150.1 129.8 150.2 C 129.0 150.8 128.1 151.4 127.3 151.9 C 127.0 152.1 126.8 152.2 126.5 152.3 C 126.0 152.6 125.6 152.9 125.1 153.2 C 124.9 153.3 124.8 153.4 124.6 153.5 C 124.3 153.6 124.0 153.8 123.7 154.0 C 123.1 154.3 122.6 154.6 122.0 154.9 C 121.6 155.1 121.3 155.3 121.0 155.4 C 120.4 155.7 119.8 156.0 119.1 156.3 C 118.8 156.5 118.5 156.6 118.2 156.7 C 117.4 157.1 116.6 157.5 115.7 157.8 C 115.6 157.9 115.6 157.9 115.5 157.9 C 115.5 157.9 115.5 157.9 115.5 157.9 C 114.5 158.3 113.6 158.7 112.6 159.0 C 112.3 159.1 112.0 159.2 111.7 159.3 C 111.0 159.5 110.3 159.8 109.7 160.0 C 109.3 160.1 108.9 160.2 108.5 160.3 C 107.9 160.5 107.3 160.6 106.7 160.8 C 106.3 160.9 105.9 161.0 105.5 161.1 C 105.1 161.2 104.8 161.3 104.4 161.3 C 104.2 161.4 103.9 161.5 103.6 161.5 C 103.2 161.6 102.8 161.7 102.4 161.7 C 101.8 161.9 101.2 162.0 100.5 162.1 C 100.2 162.1 99.8 162.2 99.4 162.3 C 98.7 162.4 98.0 162.4 97.3 162.5 C 97.0 162.6 96.7 162.6 96.3 162.6 C 95.3 162.7 94.3 162.8 93.2 162.9 C 92.3 162.9 91.4 162.9 90.4 162.9 C 90.2 162.9 89.9 162.9 89.6 162.9 C 89.3 162.9 88.9 162.9 88.6 162.9 C 88.4 162.9 88.2 162.9 87.9 162.9 C 87.2 162.8 86.5 162.8 85.7 162.8 C 85.3 162.7 84.9 162.7 84.5 162.7 C 83.7 162.6 82.8 162.5 82.0 162.4 C 81.7 162.3 81.5 162.3 81.3 162.3 C 80.2 162.1 79.1 161.9 78.0 161.7 C 77.8 161.7 77.5 161.6 77.2 161.5 C 76.4 161.3 75.7 161.2 74.9 161.0 C 74.5 160.9 74.2 160.8 73.8 160.6 C 73.1 160.5 72.5 160.3 71.8 160.0 C 71.5 159.9 71.1 159.8 70.7 159.7 C 70.1 159.4 69.4 159.2 68.8 158.9 C 68.4 158.8 68.1 158.7 67.8 158.5 C 67.0 158.2 66.2 157.8 65.5 157.5 C 65.3 157.4 65.1 157.3 65.0 157.2 C 64.0 156.8 63.1 156.3 62.2 155.8 C 62.2 155.8 62.1 155.8 62.1 155.7 C 61.9 155.6 61.7 155.5 61.5 155.4 C 60.9 155.0 60.2 154.6 59.6 154.2 C 59.3 154.0 59.0 153.8 58.7 153.6 " fill="#F38907"></path><path d="M 58.5 150.4 C 59.1 150.7 59.7 151.0 60.3 151.2 C 60.7 151.4 61.0 151.5 61.3 151.6 C 62.0 151.9 62.6 152.1 63.3 152.4 C 63.6 152.5 64.0 152.6 64.4 152.8 C 65.0 153.0 65.7 153.2 66.4 153.4 C 66.7 153.5 67.1 153.6 67.5 153.7 C 68.2 153.9 69.0 154.1 69.8 154.2 C 70.1 154.3 70.3 154.4 70.6 154.4 C 71.7 154.7 72.7 154.8 73.8 155.0 C 74.0 155.0 74.3 155.1 74.5 155.1 C 75.4 155.2 76.2 155.3 77.1 155.4 C 77.5 155.4 77.9 155.5 78.3 155.5 C 79.0 155.5 79.8 155.6 80.5 155.6 C 81.1 155.6 81.6 155.6 82.2 155.6 C 82.4 155.6 82.7 155.6 83.0 155.6 C 83.9 155.6 84.9 155.6 85.8 155.6 C 86.8 155.5 87.9 155.5 88.9 155.4 C 89.2 155.3 89.5 155.3 89.9 155.2 C 90.6 155.2 91.3 155.1 91.9 155.0 C 92.3 154.9 92.7 154.9 93.1 154.8 C 93.2 154.8 93.4 154.8 93.5 154.7 C 92.9 154.8 92.2 154.8 91.6 154.8 C 91.3 154.8 91.1 154.8 90.9 154.8 C 90.6 154.8 90.2 154.8 89.9 154.8 C 89.8 154.8 89.6 154.7 89.4 154.7 C 88.7 154.7 88.1 154.7 87.5 154.6 C 87.2 154.6 87.0 154.6 86.8 154.6 C 87.1 154.6 87.4 154.5 87.7 154.5 C 88.0 154.5 88.3 154.4 88.7 154.4 C 89.4 154.3 90.0 154.2 90.7 154.1 C 91.1 154.1 91.5 154.0 91.9 154.0 C 92.0 153.9 92.2 153.9 92.3 153.9 C 91.6 153.9 91.0 153.9 90.4 153.9 C 90.1 153.9 89.9 153.9 89.6 153.9 C 89.3 153.9 89.0 153.9 88.7 153.9 C 88.5 153.9 88.4 153.9 88.2 153.9 C 87.5 153.9 86.9 153.8 86.2 153.8 C 85.9 153.8 85.6 153.7 85.2 153.7 C 84.5 153.6 83.7 153.6 83.0 153.5 C 82.8 153.4 82.5 153.4 82.3 153.4 C 81.4 153.2 80.5 153.1 79.5 152.9 C 79.3 152.8 79.1 152.8 78.8 152.7 C 78.1 152.6 77.5 152.4 76.8 152.2 C 76.5 152.1 76.2 152.0 75.8 151.9 C 75.3 151.8 74.7 151.6 74.1 151.4 C 73.8 151.3 73.5 151.2 73.1 151.1 C 72.6 150.9 72.0 150.7 71.4 150.4 C 71.2 150.3 70.9 150.2 70.6 150.1 C 69.9 149.8 69.2 149.5 68.6 149.2 C 68.4 149.1 68.3 149.0 68.1 149.0 C 67.3 148.6 66.5 148.2 65.7 147.7 C 65.7 147.7 65.6 147.7 65.6 147.6 C 65.4 147.6 65.3 147.4 65.1 147.3 C 64.5 147.0 64.0 146.7 63.4 146.3 C 63.3 146.2 63.2 146.1 63.0 146.0 C 62.8 145.9 62.6 145.8 62.4 145.6 C 62.2 145.4 61.9 145.2 61.6 145.0 C 61.2 144.7 60.7 144.3 60.2 143.9 C 60.0 143.7 59.8 143.5 59.6 143.3 C 58.9 142.8 58.2 142.2 57.6 141.5 L 50.8 134.8 L 50.2 134.3 L 50.2 134.3 C 49.5 133.6 48.9 133.0 48.3 132.3 C 48.1 132.1 47.9 131.8 47.7 131.6 C 47.3 131.1 46.9 130.7 46.5 130.2 C 46.2 129.9 46.0 129.6 45.8 129.3 C 45.5 128.9 45.1 128.4 44.8 128.0 C 44.6 127.6 44.4 127.3 44.2 127.0 C 43.9 126.5 43.6 126.1 43.3 125.6 C 43.2 125.5 43.1 125.3 43.0 125.2 C 42.8 124.9 42.6 124.6 42.5 124.3 C 42.4 124.1 42.3 123.9 42.2 123.8 C 41.8 123.1 41.4 122.4 41.1 121.7 C 41.0 121.6 41.0 121.4 40.9 121.3 C 40.6 120.7 40.4 120.1 40.1 119.5 C 40.0 119.3 39.9 119.1 39.8 118.8 C 39.6 118.2 39.3 117.6 39.1 116.9 C 39.1 116.8 39.0 116.7 39.0 116.6 C 38.7 115.8 38.5 115.1 38.2 114.3 C 38.2 114.1 38.1 113.9 38.1 113.7 C 38.3 109.9 40.3 106.3 42.4 103.1 C 42.4 103.0 42.4 103.0 42.5 102.9 C 42.5 103.0 42.5 103.2 42.4 103.3 C 42.4 103.6 42.4 103.8 42.4 104.1 C 42.4 104.8 42.4 105.5 42.4 106.1 C 42.4 106.4 42.4 106.6 42.4 106.8 C 42.4 107.6 42.4 108.5 42.5 109.4 C 42.5 109.5 42.5 109.7 42.5 109.9 C 42.6 110.6 42.6 111.3 42.7 111.9 C 42.7 112.2 42.8 112.4 42.8 112.7 C 42.9 113.4 43.0 114.2 43.1 114.9 C 43.1 115.0 43.1 115.1 43.2 115.2 C 43.3 116.0 43.5 116.8 43.6 117.6 C 43.7 117.8 43.8 118.0 43.8 118.3 C 44.0 118.9 44.1 119.5 44.3 120.1 C 44.3 120.3 44.4 120.5 44.5 120.7 C 44.7 121.5 44.9 122.3 45.2 123.0 C 45.2 123.1 45.3 123.2 45.3 123.4 C 45.6 124.0 45.8 124.7 46.1 125.3 C 46.2 125.5 46.2 125.7 46.3 125.9 C 46.6 126.5 46.9 127.1 47.1 127.7 C 47.2 127.9 47.3 128.0 47.3 128.1 C 47.7 128.8 48.0 129.5 48.4 130.2 C 48.5 130.4 48.6 130.5 48.7 130.7 C 49.0 131.2 49.2 131.6 49.5 132.1 C 49.8 132.5 50.1 133.0 50.4 133.4 C 50.6 133.8 50.8 134.1 51.0 134.4 C 51.4 134.9 51.7 135.3 52.0 135.7 C 52.3 136.0 52.5 136.3 52.7 136.6 C 52.8 136.7 52.8 136.8 52.9 136.8 C 52.9 136.9 53.0 136.9 53.0 136.9 C 53.2 137.1 53.5 137.3 53.8 137.5 C 54.2 137.8 54.7 138.2 55.2 138.5 C 55.3 138.6 55.5 138.7 55.6 138.8 C 55.9 139.0 56.1 139.2 56.4 139.3 C 56.7 139.5 56.9 139.7 57.2 139.9 C 57.8 140.2 58.3 140.6 58.9 140.9 C 59.1 141.0 59.3 141.2 59.5 141.3 C 60.3 141.7 61.1 142.1 61.9 142.5 C 62.0 142.6 62.2 142.7 62.3 142.7 C 63.0 143.1 63.7 143.4 64.3 143.7 C 64.6 143.8 64.9 143.9 65.2 144.0 C 65.8 144.2 66.3 144.4 66.9 144.6 C 67.2 144.8 67.6 144.9 67.9 145.0 C 68.5 145.2 69.0 145.3 69.6 145.5 C 69.9 145.6 70.3 145.7 70.6 145.8 C 71.2 146.0 71.9 146.1 72.6 146.3 C 72.8 146.3 73.1 146.4 73.3 146.4 C 74.2 146.6 75.2 146.8 76.1 146.9 C 76.3 147.0 76.5 147.0 76.7 147.0 C 77.5 147.1 78.2 147.2 79.0 147.3 C 79.3 147.3 79.7 147.3 80.0 147.4 C 80.7 147.4 81.3 147.4 82.0 147.5 C 82.4 147.5 82.9 147.5 83.4 147.5 C 83.7 147.5 83.9 147.5 84.1 147.5 C 84.9 147.5 85.8 147.5 86.6 147.4 C 87.5 147.4 88.4 147.3 89.3 147.2 C 89.6 147.2 89.9 147.2 90.1 147.1 C 90.7 147.1 91.3 147.0 91.9 146.9 C 92.3 146.9 92.6 146.8 93.0 146.8 C 93.5 146.7 94.1 146.6 94.6 146.5 C 95.0 146.4 95.3 146.3 95.6 146.3 C 96.2 146.2 96.7 146.0 97.2 145.9 C 97.6 145.8 98.0 145.7 98.3 145.7 C 98.8 145.5 99.4 145.4 99.9 145.2 C 100.2 145.1 100.6 145.0 100.9 144.9 C 101.5 144.7 102.1 144.5 102.7 144.3 C 102.9 144.3 103.2 144.2 103.5 144.1 C 104.3 143.8 105.2 143.5 106.0 143.1 C 106.1 143.1 106.1 143.1 106.2 143.1 C 106.9 142.7 107.7 142.4 108.4 142.1 C 108.7 142.0 108.9 141.9 109.2 141.7 C 109.7 141.5 110.3 141.2 110.8 141.0 C 111.1 140.8 111.4 140.7 111.7 140.5 C 112.2 140.3 112.7 140.0 113.2 139.7 C 113.5 139.5 113.7 139.4 114.0 139.2 C 114.5 138.9 115.1 138.6 115.6 138.3 C 115.9 138.1 116.1 138.0 116.3 137.9 C 117.0 137.4 117.8 136.9 118.5 136.4 C 118.7 136.3 118.8 136.2 118.9 136.1 C 119.5 135.7 120.1 135.3 120.7 134.9 C 120.9 134.7 121.2 134.5 121.4 134.3 C 121.9 134.0 122.3 133.6 122.8 133.3 C 123.1 133.0 123.5 132.7 123.8 132.4 C 124.2 132.1 124.6 131.8 124.9 131.4 C 125.3 131.1 125.6 130.8 126.0 130.5 C 126.3 130.2 126.7 129.9 127.0 129.5 C 127.4 129.2 127.7 128.9 128.0 128.6 C 128.4 128.2 128.7 127.9 129.1 127.5 C 129.4 127.2 129.7 126.9 130.0 126.5 C 130.4 126.2 130.7 125.8 131.0 125.4 C 131.3 125.1 131.6 124.8 131.8 124.5 C 132.2 124.1 132.5 123.7 132.8 123.3 C 133.1 123.0 133.3 122.7 133.6 122.4 C 133.9 122.0 134.2 121.6 134.6 121.1 C 134.8 120.8 135.0 120.5 135.2 120.2 C 135.6 119.8 135.9 119.3 136.2 118.9 C 136.4 118.6 136.6 118.3 136.8 118.0 C 137.2 117.5 137.5 117.0 137.8 116.4 C 138.0 116.2 138.2 116.0 138.3 115.7 C 138.8 114.9 139.3 114.1 139.7 113.3 C 139.7 113.3 139.8 113.2 139.8 113.1 C 140.2 112.4 140.6 111.7 141.0 110.9 C 141.1 110.7 141.3 110.4 141.4 110.1 C 141.7 109.6 141.9 109.0 142.2 108.5 C 142.3 108.1 142.5 107.8 142.6 107.5 C 142.8 107.0 143.1 106.5 143.3 106.0 C 143.4 105.6 143.5 105.2 143.7 104.9 C 143.9 104.4 144.1 103.9 144.2 103.4 C 144.4 103.0 144.5 102.7 144.6 102.3 C 144.8 101.8 145.0 101.3 145.1 100.8 C 145.2 100.4 145.3 100.0 145.4 99.6 C 145.6 99.1 145.7 98.6 145.9 98.1 C 146.0 97.7 146.1 97.4 146.2 97.0 C 146.3 96.4 146.4 95.9 146.5 95.4 C 146.6 95.0 146.7 94.6 146.7 94.3 C 146.9 93.7 146.9 93.1 147.0 92.5 C 147.1 92.2 147.1 91.9 147.2 91.6 C 147.3 90.7 147.4 89.7 147.5 88.8 C 148.9 74.7 144.9 62.1 137.3 52.6 C 137.2 52.6 137.2 52.5 137.1 52.5 C 137.0 52.4 136.9 52.3 136.7 52.2 C 136.1 51.7 135.4 51.2 134.6 50.7 C 134.6 50.7 134.5 50.6 134.4 50.6 C 134.1 50.3 133.8 50.1 133.4 49.9 C 133.3 49.8 133.1 49.7 133.0 49.6 C 133.0 49.6 133.0 49.6 133.0 49.6 L 134.2 49.6 L 140.0 55.2 C 149.0 64.0 154.3 76.5 154.0 90.9 C 154.0 90.8 154.0 90.8 154.0 90.7 C 154.2 89.7 154.3 88.6 154.4 87.6 C 154.5 86.1 154.6 84.5 154.7 83.0 C 155.1 85.8 155.3 88.8 155.2 91.7 C 155.2 91.7 155.2 91.6 155.2 91.6 C 155.4 90.5 155.5 89.5 155.6 88.4 C 156.5 79.2 155.4 70.5 152.7 62.7 C 152.3 61.6 151.9 60.6 151.5 59.6 C 153.1 60.8 154.8 62.0 156.4 63.2 C 160.9 72.4 163.0 83.2 161.8 94.9 C 161.7 95.9 161.6 97.0 161.5 98.0 C 161.4 98.4 161.3 98.7 161.3 99.0 C 161.2 99.7 161.1 100.4 160.9 101.1 C 160.9 101.5 160.8 101.9 160.7 102.3 C 160.5 103.0 160.4 103.6 160.3 104.2 C 160.2 104.6 160.1 105.1 159.9 105.5 C 159.8 106.1 159.6 106.7 159.5 107.3 C 159.3 107.7 159.2 108.1 159.1 108.5 C 158.9 109.1 158.7 109.7 158.5 110.3 C 158.4 110.7 158.2 111.1 158.1 111.5 C 157.9 112.1 157.7 112.7 157.4 113.3 C 157.3 113.7 157.1 114.1 157.0 114.5 C 156.7 115.1 156.5 115.7 156.2 116.2 C 156.1 116.6 155.9 117.0 155.7 117.4 C 155.4 118.0 155.1 118.6 154.8 119.2 C 154.7 119.6 154.5 119.9 154.4 120.2 C 153.9 121.0 153.5 121.9 153.0 122.7 C 153.0 122.8 152.9 122.9 152.9 123.0 C 152.4 123.9 151.8 124.8 151.3 125.7 C 151.1 125.9 150.9 126.2 150.8 126.5 C 150.4 127.1 150.0 127.7 149.6 128.3 C 149.4 128.6 149.1 129.0 148.9 129.3 C 148.5 129.8 148.2 130.3 147.8 130.9 C 147.5 131.2 147.3 131.6 147.0 131.9 C 146.6 132.4 146.2 132.9 145.9 133.4 C 145.6 133.7 145.3 134.0 145.0 134.4 C 144.6 134.9 144.2 135.3 143.8 135.8 C 143.6 136.1 143.3 136.5 143.0 136.8 C 142.8 137.0 142.6 137.2 142.5 137.3 C 142.2 137.6 142.0 137.8 141.8 138.1 C 141.4 138.4 141.1 138.8 140.7 139.2 C 140.3 139.6 139.9 140.0 139.5 140.4 C 139.1 140.8 138.8 141.1 138.4 141.5 C 138.0 141.9 137.6 142.3 137.2 142.6 C 136.8 143.0 136.4 143.3 136.0 143.7 C 135.6 144.1 135.1 144.4 134.7 144.8 C 134.3 145.1 133.9 145.4 133.5 145.8 C 133.3 145.9 133.2 146.0 133.0 146.1 C 132.7 146.4 132.3 146.7 131.9 147.0 C 131.7 147.2 131.4 147.4 131.1 147.6 C 130.4 148.1 129.8 148.6 129.1 149.1 C 128.9 149.2 128.8 149.3 128.6 149.4 C 127.8 150.0 126.9 150.5 126.1 151.1 C 125.8 151.2 125.6 151.4 125.3 151.5 C 124.8 151.8 124.3 152.1 123.9 152.4 C 123.7 152.5 123.6 152.5 123.4 152.6 C 123.1 152.8 122.8 153.0 122.5 153.1 C 121.9 153.5 121.3 153.8 120.7 154.1 C 120.4 154.3 120.1 154.4 119.8 154.6 C 119.2 154.9 118.5 155.2 117.9 155.5 C 117.6 155.6 117.3 155.8 117.0 155.9 C 116.2 156.3 115.3 156.6 114.5 157.0 C 114.4 157.0 114.3 157.0 114.3 157.1 C 114.3 157.1 114.2 157.1 114.2 157.1 C 113.3 157.5 112.3 157.8 111.4 158.2 C 111.1 158.3 110.8 158.4 110.5 158.5 C 109.8 158.7 109.1 158.9 108.4 159.1 C 108.1 159.2 107.7 159.3 107.3 159.5 C 106.7 159.6 106.1 159.8 105.5 160.0 C 105.1 160.1 104.6 160.2 104.2 160.3 C 103.9 160.3 103.6 160.4 103.2 160.5 C 103.0 160.6 102.7 160.6 102.4 160.7 C 102.0 160.8 101.6 160.8 101.2 160.9 C 100.6 161.0 100.0 161.1 99.3 161.2 C 98.9 161.3 98.6 161.4 98.2 161.4 C 97.5 161.5 96.8 161.6 96.1 161.7 C 95.8 161.7 95.4 161.8 95.1 161.8 C 94.1 161.9 93.1 162.0 92.0 162.0 C 91.1 162.1 90.2 162.1 89.2 162.1 C 88.9 162.1 88.7 162.1 88.4 162.1 C 88.0 162.1 87.7 162.1 87.4 162.1 C 87.1 162.1 86.9 162.0 86.7 162.0 C 86.0 162.0 85.2 162.0 84.5 161.9 C 84.1 161.9 83.7 161.9 83.3 161.8 C 82.5 161.7 81.6 161.6 80.8 161.5 C 80.5 161.5 80.3 161.5 80.0 161.4 C 79.0 161.3 77.9 161.1 76.8 160.9 C 76.6 160.8 76.3 160.7 76.0 160.7 C 75.2 160.5 74.5 160.3 73.7 160.1 C 73.3 160.0 73.0 159.9 72.6 159.8 C 71.9 159.6 71.3 159.4 70.6 159.2 C 70.2 159.1 69.9 158.9 69.5 158.8 C 68.8 158.6 68.2 158.3 67.6 158.1 C 67.2 157.9 66.9 157.8 66.6 157.7 C 65.8 157.4 65.0 157.0 64.3 156.6 C 64.1 156.6 63.9 156.5 63.7 156.4 C 63.4 156.3 63.2 156.1 62.9 155.9 C 61.4 154.1 59.9 152.3 58.5 150.4 " fill="#DC7601"></path><path d="M 82.2 155.6 C 82.4 155.6 82.7 155.6 83.0 155.6 C 83.9 155.6 84.9 155.6 85.8 155.6 C 86.8 155.5 87.9 155.5 88.9 155.4 C 89.2 155.3 89.5 155.3 89.9 155.2 C 90.6 155.2 91.3 155.1 91.9 155.0 C 92.3 154.9 92.7 154.9 93.1 154.8 C 93.2 154.8 93.4 154.8 93.5 154.7 C 92.9 154.8 92.2 154.8 91.6 154.8 C 91.3 154.8 91.1 154.8 90.9 154.8 C 90.6 154.8 90.2 154.8 89.9 154.8 C 89.8 154.8 89.6 154.7 89.4 154.7 C 88.7 154.7 88.1 154.7 87.5 154.6 C 87.2 154.6 87.0 154.6 86.8 154.6 C 87.1 154.6 87.4 154.5 87.7 154.5 C 88.0 154.5 88.3 154.4 88.7 154.4 C 89.4 154.3 90.0 154.2 90.7 154.1 C 91.1 154.1 91.5 154.0 91.9 154.0 C 92.0 153.9 92.2 153.9 92.3 153.9 C 91.6 153.9 91.0 153.9 90.4 153.9 C 90.1 153.9 89.9 153.9 89.6 153.9 C 89.3 153.9 89.0 153.9 88.7 153.9 C 88.5 153.9 88.4 153.9 88.2 153.9 C 87.5 153.9 86.9 153.8 86.2 153.8 C 85.9 153.8 85.6 153.7 85.2 153.7 C 84.5 153.6 83.7 153.6 83.0 153.5 C 82.8 153.4 82.5 153.4 82.3 153.4 C 81.4 153.2 80.5 153.1 79.5 152.9 C 79.3 152.8 79.1 152.8 78.8 152.7 C 78.1 152.6 77.5 152.4 76.8 152.2 C 76.5 152.1 76.2 152.0 75.8 151.9 C 75.3 151.8 74.7 151.6 74.1 151.4 C 74.0 151.4 73.9 151.3 73.7 151.3 C 69.4 148.9 65.2 146.6 61.0 144.2 C 61.8 143.9 62.7 143.6 63.5 143.3 C 63.8 143.4 64.1 143.5 64.3 143.7 C 64.6 143.8 64.9 143.9 65.2 144.0 C 65.8 144.2 66.3 144.4 66.9 144.6 C 67.2 144.8 67.6 144.9 67.9 145.0 C 68.5 145.2 69.0 145.3 69.6 145.5 C 69.9 145.6 70.3 145.7 70.6 145.8 C 71.2 146.0 71.9 146.1 72.6 146.3 C 72.8 146.3 73.1 146.4 73.3 146.4 C 74.2 146.6 75.2 146.8 76.1 146.9 C 76.3 147.0 76.5 147.0 76.7 147.0 C 77.5 147.1 78.2 147.2 79.0 147.3 C 79.3 147.3 79.7 147.3 80.0 147.4 C 80.7 147.4 81.3 147.4 82.0 147.5 C 82.4 147.5 82.9 147.5 83.4 147.5 C 83.7 147.5 83.9 147.5 84.1 147.5 C 84.9 147.5 85.8 147.5 86.6 147.4 C 87.5 147.4 88.4 147.3 89.3 147.2 C 89.6 147.2 89.9 147.2 90.1 147.1 C 90.7 147.1 91.3 147.0 91.9 146.9 C 92.3 146.9 92.6 146.8 93.0 146.8 C 93.5 146.7 94.1 146.6 94.6 146.5 C 95.0 146.4 95.3 146.3 95.6 146.3 C 96.2 146.2 96.7 146.0 97.2 145.9 C 97.6 145.8 98.0 145.7 98.3 145.7 C 98.8 145.5 99.4 145.4 99.9 145.2 C 100.2 145.1 100.6 145.0 100.9 144.9 C 101.5 144.7 102.1 144.5 102.7 144.3 C 102.9 144.3 103.2 144.2 103.5 144.1 C 104.3 143.8 105.2 143.5 106.0 143.1 C 106.1 143.1 106.1 143.1 106.2 143.1 C 106.9 142.7 107.7 142.4 108.4 142.1 C 108.7 142.0 108.9 141.9 109.2 141.7 C 109.7 141.5 110.3 141.2 110.8 141.0 C 111.1 140.8 111.4 140.7 111.7 140.5 C 112.2 140.3 112.7 140.0 113.2 139.7 C 113.5 139.5 113.7 139.4 114.0 139.2 C 114.5 138.9 115.1 138.6 115.6 138.3 C 115.9 138.1 116.1 138.0 116.3 137.9 C 117.0 137.4 117.8 136.9 118.5 136.4 C 118.7 136.3 118.8 136.2 118.9 136.1 C 119.5 135.7 120.1 135.3 120.7 134.9 C 120.9 134.7 121.2 134.5 121.4 134.3 C 121.9 134.0 122.3 133.6 122.8 133.3 C 123.1 133.0 123.5 132.7 123.8 132.4 C 124.2 132.1 124.6 131.8 124.9 131.4 C 125.3 131.1 125.6 130.8 126.0 130.5 C 126.3 130.2 126.7 129.9 127.0 129.5 C 127.4 129.2 127.7 128.9 128.0 128.6 C 128.4 128.2 128.7 127.9 129.1 127.5 C 129.4 127.2 129.7 126.9 130.0 126.5 C 130.4 126.2 130.7 125.8 131.0 125.4 C 131.3 125.1 131.6 124.8 131.8 124.5 C 132.2 124.1 132.5 123.7 132.8 123.3 C 133.1 123.0 133.3 122.7 133.6 122.4 C 133.9 122.0 134.2 121.6 134.6 121.1 C 134.8 120.8 135.0 120.5 135.2 120.2 C 135.6 119.8 135.9 119.3 136.2 118.9 C 136.4 118.6 136.6 118.3 136.8 118.0 C 137.2 117.5 137.5 117.0 137.8 116.4 C 138.0 116.2 138.2 116.0 138.3 115.7 C 138.8 114.9 139.3 114.1 139.7 113.4 C 139.7 113.3 139.8 113.2 139.8 113.1 C 140.2 112.4 140.6 111.7 141.0 110.9 C 141.1 110.7 141.3 110.4 141.4 110.1 C 141.7 109.6 141.9 109.0 142.2 108.5 C 142.3 108.1 142.5 107.8 142.6 107.5 C 142.8 107.0 143.1 106.5 143.3 106.0 C 143.4 105.6 143.5 105.2 143.7 104.9 C 143.9 104.4 144.1 103.9 144.2 103.4 C 144.4 103.0 144.5 102.7 144.6 102.3 C 144.8 101.8 145.0 101.3 145.1 100.8 C 145.2 100.4 145.3 100.0 145.4 99.7 C 145.6 99.1 145.7 98.6 145.9 98.1 C 146.0 97.7 146.1 97.4 146.2 97.0 C 146.3 96.4 146.4 95.9 146.5 95.4 C 146.6 95.0 146.7 94.6 146.7 94.3 C 146.9 93.7 146.9 93.1 147.0 92.5 C 147.1 92.2 147.2 91.9 147.2 91.6 C 147.3 90.7 147.4 89.7 147.5 88.8 C 147.8 85.9 147.8 83.1 147.7 80.4 C 149.7 81.5 151.7 82.6 153.7 83.8 C 153.9 86.1 154.0 88.5 154.0 90.9 C 154.0 90.8 154.0 90.8 154.0 90.7 C 154.2 89.7 154.3 88.6 154.4 87.6 C 154.5 86.5 154.6 85.5 154.6 84.4 C 154.7 84.5 154.8 84.5 154.8 84.6 C 155.1 86.9 155.2 89.3 155.2 91.7 C 155.2 91.7 155.2 91.6 155.2 91.6 C 155.4 90.5 155.5 89.5 155.6 88.4 C 155.7 87.3 155.8 86.3 155.8 85.2 C 158.0 86.6 160.1 88.0 162.1 89.5 C 162.1 91.3 162.0 93.1 161.8 94.9 C 161.7 95.9 161.6 97.0 161.5 98.0 C 161.4 98.4 161.3 98.7 161.3 99.0 C 161.2 99.7 161.1 100.4 160.9 101.1 C 160.9 101.5 160.8 101.9 160.7 102.3 C 160.5 103.0 160.4 103.6 160.3 104.2 C 160.2 104.6 160.1 105.1 159.9 105.5 C 159.8 106.1 159.6 106.7 159.5 107.3 C 159.3 107.7 159.2 108.1 159.1 108.5 C 158.9 109.1 158.7 109.7 158.5 110.3 C 158.4 110.7 158.2 111.1 158.1 111.5 C 157.9 112.1 157.7 112.7 157.4 113.3 C 157.3 113.7 157.1 114.1 157.0 114.5 C 156.7 115.1 156.5 115.7 156.2 116.2 C 156.1 116.6 155.9 117.0 155.7 117.4 C 155.4 118.0 155.1 118.6 154.8 119.2 C 154.7 119.6 154.5 119.9 154.4 120.2 C 153.9 121.0 153.5 121.9 153.0 122.7 C 153.0 122.8 152.9 122.9 152.9 123.0 C 152.4 123.9 151.8 124.8 151.3 125.7 C 151.1 125.9 150.9 126.2 150.8 126.5 C 150.4 127.1 150.0 127.7 149.6 128.3 C 149.4 128.6 149.1 129.0 148.9 129.3 C 148.5 129.8 148.2 130.3 147.8 130.9 C 147.5 131.2 147.3 131.6 147.0 131.9 C 146.6 132.4 146.2 132.9 145.9 133.4 C 145.6 133.7 145.3 134.0 145.0 134.4 C 144.6 134.9 144.2 135.3 143.8 135.8 C 143.6 136.1 143.3 136.5 143.0 136.8 C 142.8 137.0 142.6 137.2 142.5 137.3 C 142.2 137.6 142.0 137.8 141.8 138.1 C 141.4 138.4 141.1 138.8 140.7 139.2 C 140.3 139.6 139.9 140.0 139.5 140.4 C 139.1 140.8 138.8 141.1 138.4 141.5 C 138.0 141.9 137.6 142.3 137.2 142.6 C 136.8 143.0 136.4 143.3 136.0 143.7 C 135.6 144.1 135.1 144.4 134.7 144.8 C 134.3 145.1 133.9 145.4 133.5 145.8 C 133.3 145.9 133.2 146.0 133.0 146.1 C 132.7 146.4 132.3 146.7 131.9 147.0 C 131.7 147.2 131.4 147.4 131.1 147.6 C 130.4 148.1 129.8 148.6 129.1 149.1 C 128.9 149.2 128.8 149.3 128.6 149.4 C 127.8 150.0 126.9 150.5 126.1 151.1 C 125.8 151.2 125.6 151.4 125.3 151.5 C 124.8 151.8 124.4 152.1 123.9 152.4 C 123.7 152.5 123.6 152.5 123.4 152.6 C 123.1 152.8 122.8 153.0 122.5 153.1 C 121.9 153.5 121.3 153.8 120.7 154.1 C 120.4 154.3 120.1 154.4 119.8 154.6 C 119.2 154.9 118.5 155.2 117.9 155.5 C 117.6 155.6 117.3 155.8 117.0 155.9 C 116.2 156.3 115.3 156.6 114.5 157.0 C 114.4 157.0 114.3 157.1 114.3 157.1 C 114.3 157.1 114.3 157.1 114.2 157.1 C 113.3 157.5 112.3 157.8 111.4 158.2 C 111.1 158.3 110.8 158.4 110.5 158.5 C 109.8 158.7 109.1 158.9 108.4 159.1 C 108.1 159.2 107.7 159.3 107.3 159.5 C 106.7 159.6 106.1 159.8 105.5 160.0 C 105.1 160.1 104.6 160.2 104.2 160.3 C 103.9 160.3 103.6 160.4 103.2 160.5 C 103.0 160.6 102.7 160.6 102.4 160.7 C 102.0 160.8 101.6 160.8 101.2 160.9 C 100.6 161.0 100.0 161.1 99.3 161.2 C 98.9 161.3 98.6 161.4 98.2 161.4 C 97.5 161.5 96.8 161.6 96.1 161.7 C 95.8 161.7 95.4 161.8 95.1 161.8 C 95.0 161.8 94.8 161.8 94.7 161.8 C 90.4 159.9 86.1 157.8 81.9 155.6 C 82.0 155.6 82.1 155.6 82.2 155.6 " fill="#D66800"></path><path d="M 54.0 92.8 L 53.7 98.6 L 62.1 97.8 C 62.1 102.4 62.7 107.3 63.3 111.5 L 77.2 109.7 L 77.5 103.1 L 72.6 103.3 C 72.4 103.3 72.0 103.2 71.6 103.2 C 70.1 101.4 69.5 99.1 69.9 95.0 C 70.4 90.3 73.1 86.9 77.0 86.7 C 87.8 86.1 84.0 113.4 104.2 112.4 C 114.9 111.9 121.8 103.2 123.7 92.4 L 130.8 91.8 L 131.1 85.9 L 124.2 86.5 C 124.6 76.2 121.7 70.2 121.6 69.9 L 107.1 72.0 L 107.0 78.4 C 107.1 78.4 110.0 78.3 110.9 78.3 C 111.3 78.2 112.9 78.4 114.4 78.7 C 114.8 79.1 116.4 82.3 115.8 89.0 C 115.4 93.3 113.1 97.3 108.6 97.6 C 96.7 98.1 101.2 71.0 80.1 72.0 C 70.0 72.5 63.7 81.0 62.4 92.0 Z M 54.0 92.8 " fill="#FFF3A9"></path><path d="M 123.7 92.4 C 121.8 103.2 114.9 111.9 104.2 112.4 C 84.0 113.4 87.8 86.1 77.0 86.7 C 73.1 86.9 70.4 90.3 69.9 95.0 C 69.5 99.1 70.1 101.4 71.6 103.2 C 72.0 103.2 72.4 103.3 72.6 103.3 L 77.5 103.1 L 77.2 109.7 L 63.3 111.5 C 62.7 107.3 62.1 102.4 62.1 97.8 L 53.7 98.6 L 54.0 92.8 L 62.4 92.0 C 63.7 81.0 70.0 72.5 80.1 72.0 C 101.2 71.0 96.7 98.1 108.6 97.6 C 113.1 97.3 115.4 93.3 115.8 89.0 C 116.4 82.3 114.8 79.1 114.4 78.7 C 112.9 78.4 111.3 78.2 110.9 78.3 C 110.0 78.3 107.1 78.4 107.0 78.4 L 107.1 72.0 L 121.6 69.9 C 121.7 70.2 124.6 76.2 124.2 86.5 L 131.1 85.9 L 130.8 91.8 L 123.7 92.4 M 36.4 94.2 C 33.4 125.1 55.9 148.9 86.6 147.4 C 117.3 146.0 144.6 119.7 147.5 88.8 C 150.5 57.9 128.0 34.1 97.4 35.6 C 66.7 37.1 39.4 63.3 36.4 94.2 " fill="#FFE679"></path><path d="M 147.5 88.8 C 144.6 119.7 117.3 146.0 86.6 147.4 C 55.9 148.9 33.4 125.1 36.4 94.2 C 39.4 63.3 66.7 37.1 97.4 35.6 C 128.0 34.1 150.5 57.9 147.5 88.8 M 28.3 94.6 C 24.9 130.0 50.7 157.3 85.8 155.6 C 121.0 153.9 152.2 123.8 155.6 88.4 C 159.0 53.0 133.3 25.7 98.1 27.4 C 63.0 29.1 31.7 59.2 28.3 94.6 " fill="#FFF1B4"></path><path d="M 86.6 147.4 C 84.8 147.5 83.0 147.5 81.2 147.4 C 85.0 133.2 87.8 118.7 89.3 104.1 C 92.2 108.9 96.4 112.8 104.2 112.4 C 114.9 111.9 121.8 103.2 123.7 92.4 L 130.8 91.8 L 131.1 85.9 L 124.2 86.5 C 124.6 76.2 121.7 70.2 121.6 69.9 L 107.1 72.0 L 107.0 78.4 C 107.1 78.4 110.0 78.3 110.9 78.3 C 111.3 78.2 112.9 78.4 114.4 78.7 C 114.8 79.1 116.4 82.3 115.8 89.0 C 115.4 93.3 113.1 97.3 108.6 97.6 C 99.1 98.0 100.0 80.9 90.1 74.4 C 89.5 62.0 87.6 49.6 84.2 37.7 C 88.5 36.5 92.9 35.8 97.4 35.6 C 128.0 34.1 150.5 57.9 147.5 88.8 C 144.6 119.7 117.3 146.0 86.6 147.4 " fill="#FFD93A"></path><path d="M 69.9 96.5 C 69.9 97.0 69.9 97.5 69.8 98.0 C 69.8 97.1 69.8 96.1 69.9 95.0 C 70.4 90.3 73.1 86.9 77.0 86.7 C 87.8 86.1 84.0 113.4 104.2 112.4 C 114.9 111.9 121.8 103.2 123.7 92.4 L 130.8 91.8 L 131.1 87.4 L 131.1 87.4 L 130.8 93.3 L 123.7 93.9 C 121.8 104.7 114.9 113.4 104.2 113.9 C 84.0 114.9 87.8 87.7 77.0 88.2 C 73.1 88.4 70.4 91.9 69.9 96.5 " fill="#C76C10"></path><path d="M 53.8 98.6 L 62.1 97.8 C 62.1 102.4 62.7 107.3 63.3 111.5 L 77.2 109.7 L 77.4 104.6 L 77.5 104.6 L 77.2 111.2 L 63.3 113.1 C 62.7 108.9 62.1 104.0 62.1 99.4 L 53.7 100.1 Z M 53.8 98.6 " fill="#C76C10"></path><path d="M 124.2 85.4 C 124.3 85.8 124.3 86.1 124.3 86.5 L 124.2 86.5 C 124.2 86.1 124.2 85.8 124.2 85.4 " fill="#C76C10"></path><path d="M 97.4 37.1 C 66.7 38.6 39.4 64.8 36.4 95.7 C 36.3 97.3 36.2 98.9 36.2 100.5 C 36.1 98.4 36.2 96.3 36.4 94.2 C 39.4 63.3 66.7 37.1 97.4 35.6 C 126.4 34.2 148.1 55.5 147.8 84.0 C 147.3 56.3 125.9 35.7 97.4 37.1 " fill="#C76C10"></path><path d="M 110.9 79.8 C 110.0 79.8 107.1 79.9 107.0 79.9 L 107.0 78.4 C 107.3 78.4 110.1 78.3 110.9 78.3 C 111.3 78.2 112.9 78.4 114.4 78.7 C 114.7 79.1 116.1 81.6 115.9 86.9 C 115.8 82.7 114.7 80.6 114.4 80.2 C 112.9 79.9 111.3 79.7 110.9 79.8 " fill="#C76C10"></path><path d="M 88.1 148.4 C 103.2 147.3 117.7 140.5 129.2 129.0 L 129.2 129.0 C 140.3 117.9 147.2 103.6 148.6 88.9 C 150.1 73.6 145.5 59.4 135.7 49.1 C 126.0 39.0 112.4 33.8 97.3 34.5 C 95.8 34.6 94.4 34.7 93.0 34.9 C 91.4 33.1 89.8 31.4 88.1 29.8 C 91.4 29.1 94.8 28.7 98.2 28.5 C 114.7 27.7 129.7 33.4 140.3 44.6 C 151.1 55.9 156.2 71.4 154.5 88.3 C 153.0 104.6 145.3 120.4 132.9 132.8 C 119.8 145.9 103.0 153.6 85.8 154.5 C 86.5 152.5 87.3 150.4 88.1 148.4 " fill="#FCDE53"></path><path d="M 84.2 73.3 C 92.3 74.6 95.2 81.3 98.0 87.8 C 100.5 93.5 102.8 98.9 108.7 98.6 C 110.7 98.6 112.4 97.8 113.8 96.4 C 115.5 94.7 116.6 92.1 116.9 89.2 C 117.6 81.3 115.3 78.1 115.3 78.0 L 115.1 77.7 L 114.6 77.6 C 113.6 77.4 111.8 77.1 110.9 77.2 C 110.3 77.2 109.1 77.2 108.1 77.3 L 108.2 72.9 L 120.9 71.1 C 121.7 73.0 123.4 78.3 123.1 86.4 L 123.1 87.7 L 130.0 87.1 L 129.8 90.8 L 122.8 91.4 L 122.7 92.2 C 121.7 97.9 119.3 102.7 115.9 106.1 C 112.7 109.3 108.7 111.1 104.2 111.3 C 95.8 111.7 91.8 106.9 89.1 101.3 C 88.7 98.2 88.4 95.2 87.9 92.1 C 87.1 85.8 85.9 79.4 84.2 73.3 " fill="#FFE061"></path></g></g></g></g></g></svg>