<?xml version="1.0" encoding="UTF-8"?><svg xmlns="http://www.w3.org/2000/svg" xmlns:xlink="http://www.w3.org/1999/xlink" clip-rule="evenodd" stroke-miterlimit="4.00" viewBox="0 0 192 191"><desc>SVG generated by Keynote</desc><defs></defs><g transform="matrix(1.00, 0.00, -0.00, -1.00, 0.0, 191.0)"><g><clipPath id="clip-379"><path d="M 190.1 92.9 L 93.1 189.9 L 2.0 98.7 L 98.9 1.8 Z M 190.1 92.9 "></path></clipPath><g clip-path="url(#clip-379)"><g><clipPath id="clip-380"><path d="M 98.9 1.8 L 2.0 98.7 L 93.1 189.9 L 190.1 92.9 Z M 98.9 1.8 "></path></clipPath><g clip-path="url(#clip-380)"><path d="M 115.3 79.9 L 122.2 86.6 C 122.2 86.7 122.3 86.8 122.3 86.9 C 122.3 86.9 122.4 86.9 122.4 86.9 C 122.4 87.0 122.4 87.1 122.5 87.2 C 122.5 87.2 122.5 87.2 122.5 87.2 C 122.6 87.3 122.6 87.4 122.6 87.4 C 122.6 87.5 122.6 87.5 122.7 87.6 C 122.7 87.6 122.7 87.7 122.8 87.8 C 122.8 87.9 122.8 87.9 122.8 88.0 C 122.8 88.0 122.9 88.1 122.9 88.2 C 122.9 88.3 122.9 88.3 123.0 88.4 C 123.0 88.5 123.0 88.6 123.0 88.7 C 123.1 88.8 123.1 88.8 123.1 88.9 C 123.1 89.0 123.2 89.2 123.2 89.3 C 123.2 89.4 123.2 89.4 123.2 89.5 C 123.3 89.9 123.4 90.3 123.5 90.8 C 123.5 90.9 123.5 91.0 123.5 91.1 C 123.5 91.2 123.5 91.4 123.6 91.6 C 123.6 91.7 123.6 91.8 123.6 91.9 C 123.6 92.1 123.6 92.3 123.6 92.4 C 123.6 92.6 123.6 92.7 123.7 92.8 C 123.7 93.0 123.7 93.2 123.7 93.4 C 123.7 93.5 123.7 93.6 123.7 93.7 C 123.7 93.9 123.7 94.2 123.7 94.4 C 123.7 94.5 123.7 94.6 123.7 94.8 C 123.7 94.8 123.7 94.9 123.7 95.0 C 123.8 94.3 124.0 93.7 124.1 93.1 L 130.1 92.5 L 124.6 87.1 C 124.7 83.8 124.4 81.0 124.1 78.6 Z M 64.4 100.5 L 69.9 105.8 C 69.9 107.6 70.0 109.5 70.1 111.4 L 77.5 110.4 L 77.6 109.4 L 71.9 103.8 C 71.0 102.7 70.4 101.4 70.2 99.5 C 70.2 99.6 70.2 99.8 70.2 99.9 C 70.2 99.9 70.2 99.9 70.2 99.9 Z M 118.6 105.0 C 118.6 105.0 118.6 105.0 118.6 105.0 C 118.6 105.1 118.5 105.1 118.5 105.1 C 118.2 105.2 118.0 105.3 117.7 105.3 C 117.7 105.3 117.6 105.3 117.6 105.4 C 117.6 105.4 117.5 105.4 117.5 105.4 C 117.1 105.4 116.8 105.5 116.4 105.5 C 116.1 105.5 115.9 105.5 115.7 105.5 L 115.7 105.5 C 115.6 105.5 115.6 105.5 115.6 105.5 C 115.4 105.5 115.2 105.5 114.9 105.4 C 114.8 105.4 114.8 105.4 114.7 105.4 C 114.5 105.4 114.4 105.3 114.2 105.3 C 114.2 105.3 114.1 105.2 114.0 105.2 C 113.9 105.2 113.7 105.1 113.6 105.1 C 113.5 105.0 113.4 105.0 113.3 104.9 C 113.2 104.9 113.1 104.8 113.0 104.8 C 113.0 104.8 113.0 104.8 113.0 104.7 C 112.9 104.7 112.9 104.7 112.9 104.7 C 112.7 104.6 112.5 104.4 112.3 104.3 C 112.2 104.3 112.2 104.2 112.1 104.2 C 111.9 104.0 111.7 103.8 111.5 103.6 L 111.5 103.6 L 104.0 96.3 C 100.8 93.2 99.3 86.7 96.1 81.4 C 95.6 81.1 95.2 80.9 94.7 80.8 C 94.7 80.8 94.7 80.8 94.6 80.8 C 94.2 80.6 93.8 80.5 93.3 80.4 C 93.2 80.4 93.1 80.4 93.0 80.3 C 92.6 80.2 92.1 80.2 91.6 80.1 C 91.5 80.1 91.4 80.1 91.4 80.1 C 90.9 80.0 90.4 80.0 89.9 79.9 C 89.8 79.9 89.8 79.9 89.7 79.9 C 89.1 79.9 88.5 79.9 87.9 79.9 C 87.3 80.0 86.7 80.0 86.1 80.1 C 86.0 80.1 85.8 80.2 85.6 80.2 C 85.2 80.3 84.9 80.4 84.5 80.4 C 84.3 80.5 84.2 80.5 84.0 80.6 C 83.6 80.7 83.2 80.8 82.9 80.9 C 82.7 81.0 82.6 81.0 82.5 81.1 C 82.0 81.3 81.5 81.5 81.1 81.7 C 81.0 81.7 80.9 81.8 80.8 81.8 C 80.4 82.0 80.1 82.2 79.7 82.5 C 79.6 82.5 79.5 82.6 79.4 82.7 C 79.0 82.9 78.6 83.2 78.2 83.5 C 78.1 83.6 78.0 83.7 77.9 83.8 C 77.6 84.1 77.3 84.3 77.0 84.6 C 76.9 84.7 76.7 84.9 76.6 85.0 C 76.4 85.2 76.2 85.5 76.0 85.7 C 75.7 86.0 75.5 86.2 75.3 86.5 C 75.2 86.7 75.0 86.9 74.8 87.1 C 74.6 87.4 74.5 87.7 74.3 87.9 C 74.2 88.1 74.0 88.3 73.9 88.5 C 74.0 88.4 74.2 88.3 74.3 88.3 C 74.3 88.2 74.3 88.2 74.4 88.2 C 74.4 88.2 74.5 88.2 74.5 88.1 C 74.7 88.0 74.9 87.9 75.1 87.8 C 75.2 87.8 75.2 87.8 75.2 87.8 C 75.2 87.8 75.2 87.8 75.2 87.8 C 75.5 87.7 75.8 87.6 76.1 87.5 C 76.1 87.5 76.2 87.5 76.2 87.5 C 76.2 87.5 76.3 87.5 76.3 87.5 C 76.6 87.4 77.0 87.4 77.3 87.3 C 77.5 87.3 77.7 87.3 77.9 87.3 C 77.9 87.3 77.9 87.3 78.0 87.3 C 78.0 87.4 78.1 87.4 78.2 87.4 C 78.3 87.4 78.4 87.4 78.5 87.4 C 78.6 87.4 78.7 87.5 78.8 87.5 C 78.9 87.5 79.0 87.5 79.1 87.5 C 79.2 87.6 79.3 87.6 79.4 87.6 C 79.5 87.7 79.6 87.7 79.7 87.7 C 79.8 87.8 79.8 87.8 79.9 87.9 C 80.0 87.9 80.1 87.9 80.2 88.0 C 80.2 88.0 80.2 88.0 80.2 88.0 C 80.3 88.0 80.3 88.1 80.3 88.1 C 80.5 88.2 80.7 88.3 80.8 88.4 C 80.9 88.4 80.9 88.5 81.0 88.5 C 81.2 88.7 81.4 88.8 81.5 89.0 L 81.5 89.0 L 81.5 89.0 L 89.0 96.3 C 89.2 96.5 89.4 96.8 89.7 97.0 C 89.7 97.1 89.8 97.2 89.9 97.3 C 90.0 97.5 90.2 97.7 90.3 97.9 C 90.4 98.0 90.4 98.2 90.5 98.3 C 90.7 98.5 90.8 98.7 90.9 98.9 C 91.0 99.0 91.1 99.2 91.1 99.3 C 91.2 99.4 91.2 99.4 91.2 99.5 C 91.3 99.7 91.4 99.9 91.5 100.1 C 91.6 100.2 91.6 100.3 91.7 100.4 C 91.9 100.7 92.0 101.1 92.2 101.5 C 92.2 101.6 92.3 101.7 92.3 101.8 C 92.5 102.1 92.6 102.4 92.7 102.7 C 92.8 102.9 92.9 103.0 92.9 103.2 C 93.1 103.5 93.2 103.8 93.3 104.1 C 93.5 104.4 93.6 104.8 93.8 105.2 C 93.8 105.3 93.9 105.5 94.0 105.6 C 94.2 106.1 94.3 106.5 94.5 106.9 C 94.6 107.0 94.6 107.1 94.7 107.3 C 94.8 107.6 95.0 107.9 95.1 108.2 C 95.2 108.4 95.2 108.5 95.3 108.7 C 95.5 109.0 95.6 109.3 95.7 109.6 C 95.8 109.7 95.9 109.9 96.0 110.0 C 96.1 110.4 96.3 110.7 96.5 111.1 C 96.6 111.2 96.6 111.2 96.6 111.3 C 96.7 111.4 96.8 111.6 96.9 111.7 C 97.1 111.9 97.4 112.0 97.6 112.1 C 97.7 112.1 97.8 112.1 97.8 112.1 C 98.3 112.3 98.7 112.4 99.2 112.6 C 99.2 112.6 99.3 112.6 99.4 112.6 C 100.3 112.8 101.4 113.0 102.5 113.1 C 102.6 113.1 102.6 113.1 102.7 113.1 C 103.3 113.1 103.9 113.1 104.6 113.1 C 105.2 113.0 105.8 113.0 106.4 112.9 C 106.6 112.9 106.8 112.8 107.0 112.8 C 107.4 112.7 107.8 112.6 108.2 112.6 C 108.4 112.5 108.5 112.5 108.7 112.4 C 109.1 112.3 109.5 112.2 109.8 112.1 C 110.0 112.0 110.2 111.9 110.4 111.9 C 110.9 111.7 111.3 111.5 111.7 111.3 C 111.8 111.3 111.8 111.3 111.9 111.2 C 112.4 111.0 112.8 110.7 113.3 110.5 C 113.4 110.4 113.5 110.3 113.7 110.2 C 114.0 110.0 114.4 109.8 114.7 109.5 C 114.8 109.4 114.9 109.3 115.1 109.3 C 115.3 109.0 115.6 108.8 115.9 108.5 C 116.1 108.4 116.2 108.3 116.4 108.1 C 116.7 107.8 117.0 107.5 117.3 107.2 C 117.4 107.1 117.5 107.0 117.6 106.9 C 117.8 106.6 118.0 106.4 118.3 106.1 C 118.4 105.9 118.6 105.7 118.8 105.5 C 119.0 105.2 119.2 104.9 119.4 104.7 C 119.4 104.7 119.4 104.7 119.4 104.7 L 119.4 104.7 C 119.1 104.8 118.9 104.9 118.6 105.0 M 138.9 93.8 L 138.9 93.8 L 138.6 99.7 L 131.5 100.3 C 131.4 101.0 131.2 101.7 131.1 102.3 C 131.0 102.6 131.0 102.8 130.9 103.0 C 130.8 103.4 130.7 103.8 130.6 104.3 C 130.5 104.5 130.4 104.8 130.3 105.0 C 130.2 105.4 130.1 105.8 129.9 106.1 C 129.8 106.4 129.7 106.6 129.6 106.9 C 129.4 107.2 129.3 107.6 129.2 107.9 C 129.0 108.2 128.9 108.4 128.8 108.7 C 128.6 109.0 128.5 109.3 128.3 109.6 C 128.2 109.9 128.0 110.1 127.9 110.4 C 127.7 110.7 127.5 111.0 127.3 111.3 C 127.2 111.5 127.0 111.7 126.8 112.0 C 126.6 112.2 126.4 112.5 126.2 112.8 C 126.1 113.0 125.9 113.2 125.7 113.4 C 125.5 113.7 125.3 113.9 125.1 114.1 C 125.1 114.1 125.1 114.2 125.1 114.2 C 125.0 114.3 124.9 114.4 124.7 114.5 C 124.5 114.8 124.2 115.1 123.8 115.4 C 123.7 115.5 123.5 115.7 123.4 115.8 C 123.1 116.0 122.9 116.2 122.7 116.4 C 122.6 116.4 122.6 116.5 122.5 116.5 C 122.4 116.6 122.2 116.7 122.1 116.8 C 121.8 117.0 121.5 117.3 121.1 117.5 C 121.0 117.6 120.9 117.7 120.7 117.7 C 120.6 117.8 120.6 117.8 120.5 117.9 C 120.1 118.1 119.7 118.3 119.3 118.5 C 119.3 118.5 119.2 118.5 119.2 118.6 C 118.8 118.7 118.5 118.9 118.1 119.0 C 118.0 119.1 117.9 119.1 117.8 119.1 C 117.6 119.2 117.5 119.3 117.3 119.3 C 116.9 119.5 116.5 119.6 116.2 119.7 C 116.0 119.7 115.8 119.8 115.6 119.8 C 115.5 119.9 115.4 119.9 115.3 119.9 C 115.0 120.0 114.7 120.0 114.4 120.1 C 114.2 120.1 114.0 120.1 113.8 120.2 C 113.2 120.3 112.6 120.3 112.0 120.3 C 111.4 120.4 110.9 120.4 110.3 120.4 C 110.3 120.4 110.2 120.4 110.2 120.4 C 110.1 120.3 110.0 120.3 109.9 120.3 C 108.8 120.3 107.8 120.1 106.8 119.9 C 106.7 119.9 106.7 119.9 106.6 119.8 C 106.2 119.7 105.7 119.6 105.3 119.4 C 105.2 119.4 105.1 119.4 105.1 119.3 C 104.7 119.2 104.3 119.0 103.9 118.8 C 103.8 118.8 103.7 118.7 103.7 118.7 C 103.6 118.6 103.4 118.6 103.3 118.5 C 103.1 118.4 102.8 118.2 102.6 118.1 C 102.5 118.1 102.5 118.0 102.5 118.0 C 102.1 117.8 101.8 117.5 101.5 117.3 C 101.4 117.2 101.3 117.1 101.2 117.1 C 100.9 116.8 100.6 116.5 100.3 116.2 L 100.3 116.2 L 100.3 116.2 L 96.4 112.4 L 92.9 109.0 L 92.9 109.0 L 92.9 109.0 C 92.5 108.6 92.2 108.3 91.9 107.9 C 91.8 107.8 91.7 107.7 91.6 107.6 C 91.4 107.3 91.2 107.1 91.0 106.8 C 90.9 106.7 90.8 106.6 90.7 106.4 C 90.5 106.1 90.3 105.9 90.1 105.6 C 90.1 105.5 90.0 105.3 89.9 105.2 C 89.7 104.8 89.4 104.4 89.2 104.0 C 89.2 103.9 89.1 103.9 89.1 103.8 C 88.9 103.5 88.7 103.1 88.5 102.7 C 88.4 102.6 88.4 102.4 88.3 102.3 C 88.2 102.0 88.0 101.7 87.9 101.4 C 87.8 101.3 87.7 101.1 87.7 101.0 C 87.5 100.6 87.4 100.3 87.2 100.0 C 87.2 99.9 87.1 99.8 87.1 99.7 C 86.9 99.2 86.7 98.8 86.5 98.4 C 86.5 98.2 86.4 98.0 86.3 97.8 C 86.2 97.5 86.0 97.1 85.9 96.8 C 85.8 96.5 85.6 96.2 85.5 95.9 C 85.4 95.7 85.4 95.6 85.3 95.4 C 85.2 95.2 85.1 94.9 84.9 94.6 C 84.9 94.6 84.8 94.6 84.7 94.6 C 84.4 94.6 84.1 94.7 83.8 94.7 C 83.7 94.8 83.6 94.8 83.5 94.8 C 83.2 94.9 82.9 95.0 82.7 95.1 C 82.6 95.1 82.6 95.1 82.6 95.1 C 82.4 95.2 82.1 95.3 81.9 95.4 C 81.8 95.5 81.8 95.5 81.7 95.5 C 81.5 95.7 81.3 95.8 81.2 95.9 C 81.1 96.0 81.1 96.0 81.0 96.0 C 80.7 96.3 80.5 96.5 80.3 96.7 C 80.2 96.8 80.1 96.9 80.1 97.0 C 80.0 97.1 79.9 97.2 79.8 97.3 C 79.7 97.4 79.7 97.4 79.6 97.5 C 79.5 97.6 79.4 97.8 79.4 97.9 C 79.3 98.0 79.2 98.1 79.2 98.2 C 79.1 98.3 79.0 98.4 79.0 98.6 C 78.9 98.7 78.9 98.8 78.8 98.9 C 78.7 99.0 78.7 99.1 78.6 99.3 C 78.6 99.4 78.5 99.5 78.5 99.6 C 78.4 99.7 78.4 99.9 78.3 100.0 C 78.3 100.2 78.3 100.3 78.2 100.4 C 78.2 100.5 78.1 100.7 78.1 100.9 C 78.1 101.0 78.0 101.1 78.0 101.2 C 77.9 101.4 77.9 101.6 77.9 101.8 C 77.9 101.9 77.8 102.0 77.8 102.1 C 77.8 102.3 77.7 102.6 77.7 102.9 C 77.7 103.2 77.7 103.5 77.7 103.7 L 77.8 103.7 L 85.2 111.0 L 85.0 117.7 L 71.1 119.5 L 63.6 112.2 C 63.4 110.4 63.1 108.4 62.9 106.4 L 61.5 106.5 L 54.1 99.3 L 54.4 93.4 L 62.7 92.7 C 62.8 92.0 62.9 91.3 63.0 90.6 C 63.1 90.3 63.1 90.1 63.2 89.9 C 63.3 89.5 63.4 89.0 63.5 88.6 C 63.5 88.3 63.6 88.0 63.7 87.8 C 63.8 87.4 63.9 87.0 64.0 86.6 C 64.1 86.4 64.2 86.1 64.3 85.8 C 64.4 85.5 64.6 85.1 64.7 84.8 C 64.8 84.5 64.9 84.3 65.0 84.0 C 65.2 83.7 65.3 83.3 65.5 83.0 C 65.6 82.8 65.7 82.5 65.9 82.3 C 66.0 82.0 66.2 81.7 66.4 81.4 C 66.5 81.1 66.7 80.9 66.8 80.7 C 67.0 80.4 67.2 80.1 67.4 79.8 C 67.6 79.6 67.7 79.4 67.9 79.2 C 68.1 78.9 68.3 78.7 68.5 78.4 C 68.6 78.3 68.7 78.2 68.7 78.2 C 68.9 78.0 69.0 77.9 69.2 77.7 C 69.3 77.6 69.4 77.4 69.6 77.3 C 69.9 77.0 70.1 76.8 70.4 76.5 C 70.6 76.4 70.7 76.3 70.8 76.3 C 70.8 76.2 70.8 76.2 70.9 76.2 C 71.2 75.9 71.6 75.6 72.0 75.4 C 72.1 75.3 72.2 75.2 72.3 75.2 C 72.5 75.1 72.6 75.0 72.8 74.9 C 73.0 74.8 73.2 74.7 73.4 74.6 C 73.5 74.5 73.6 74.5 73.7 74.4 C 74.0 74.2 74.4 74.0 74.9 73.9 C 74.9 73.8 75.0 73.8 75.0 73.8 C 75.2 73.7 75.3 73.7 75.4 73.7 C 75.8 73.5 76.2 73.4 76.5 73.3 C 76.7 73.3 76.9 73.2 77.0 73.2 C 77.2 73.1 77.3 73.1 77.4 73.1 C 77.7 73.0 77.9 73.0 78.2 72.9 C 78.4 72.9 78.5 72.9 78.7 72.8 C 79.3 72.8 79.8 72.7 80.4 72.7 C 81.1 72.6 81.7 72.6 82.2 72.7 C 82.3 72.7 82.3 72.7 82.3 72.7 C 82.3 72.7 82.4 72.7 82.4 72.7 C 82.9 72.7 83.4 72.7 83.9 72.8 C 84.0 72.8 84.1 72.8 84.2 72.8 C 84.7 72.9 85.1 73.0 85.6 73.1 C 85.7 73.1 85.8 73.1 85.9 73.1 C 86.3 73.2 86.8 73.4 87.2 73.5 C 87.2 73.5 87.2 73.5 87.2 73.5 L 87.2 73.5 C 87.7 73.7 88.2 73.9 88.7 74.1 C 88.8 74.1 88.8 74.1 88.8 74.2 C 89.1 74.3 89.4 74.4 89.7 74.6 C 89.8 74.7 90.0 74.8 90.1 74.9 C 90.2 74.9 90.3 74.9 90.3 75.0 C 90.7 75.2 91.1 75.5 91.5 75.8 C 91.5 75.8 91.6 75.9 91.7 76.0 C 92.0 76.3 92.4 76.6 92.7 76.9 L 100.2 84.2 C 104.1 88.0 105.9 93.7 108.1 98.2 C 108.1 98.2 108.1 98.2 108.2 98.2 C 108.2 98.2 108.2 98.2 108.2 98.2 C 108.5 98.2 108.7 98.3 109.0 98.2 C 109.3 98.2 109.7 98.2 110.0 98.1 C 110.1 98.1 110.2 98.1 110.3 98.0 C 110.6 98.0 110.8 97.9 111.1 97.8 C 111.1 97.8 111.1 97.8 111.2 97.8 C 111.5 97.6 111.7 97.5 111.9 97.4 C 112.0 97.4 112.1 97.3 112.1 97.3 C 112.3 97.2 112.5 97.1 112.6 96.9 C 112.7 96.9 112.8 96.8 112.8 96.8 C 113.1 96.6 113.3 96.3 113.6 96.1 C 113.6 96.1 113.6 96.1 113.6 96.0 C 113.8 95.9 113.9 95.7 114.1 95.5 C 114.1 95.4 114.2 95.3 114.2 95.2 C 114.3 95.1 114.4 95.0 114.5 94.8 C 114.6 94.7 114.6 94.6 114.7 94.5 C 114.7 94.4 114.8 94.3 114.9 94.1 C 114.9 94.0 115.0 93.9 115.0 93.8 C 115.1 93.7 115.2 93.5 115.2 93.4 C 115.3 93.2 115.3 93.1 115.4 93.0 C 115.4 92.9 115.5 92.7 115.5 92.6 C 115.5 92.5 115.6 92.3 115.6 92.2 C 115.7 92.1 115.7 91.9 115.7 91.7 C 115.8 91.6 115.8 91.5 115.8 91.4 C 115.9 91.2 115.9 91.0 115.9 90.9 C 116.0 90.8 116.0 90.7 116.0 90.6 C 116.0 90.3 116.1 90.0 116.1 89.7 C 116.1 89.3 116.2 88.9 116.2 88.6 C 116.2 88.4 116.2 88.3 116.2 88.2 C 116.2 88.0 116.2 87.7 116.2 87.5 C 116.2 87.4 116.2 87.2 116.2 87.1 C 116.2 86.9 116.2 86.7 116.2 86.5 C 116.2 86.4 116.2 86.4 116.2 86.3 C 116.2 86.3 116.1 86.3 116.0 86.3 C 115.9 86.3 115.9 86.3 115.8 86.3 C 115.7 86.3 115.5 86.3 115.4 86.3 C 115.4 86.3 115.3 86.3 115.3 86.3 C 115.2 86.3 115.1 86.3 115.0 86.3 C 115.0 86.4 114.9 86.4 114.9 86.4 C 114.8 86.4 114.8 86.4 114.7 86.4 L 107.3 79.1 L 107.5 72.6 L 121.9 70.6 L 129.3 77.8 C 129.5 78.1 130.9 81.2 131.6 86.7 Z M 138.9 93.8 " fill="#855F13"></path><path d="M 137.6 53.3 C 137.6 53.3 137.5 53.2 137.4 53.2 C 137.3 53.1 137.2 53.0 137.1 52.9 C 136.4 52.4 135.7 51.9 135.0 51.4 C 134.8 51.3 134.7 51.2 134.5 51.1 C 133.9 50.7 133.2 50.3 132.6 49.9 C 132.5 49.8 132.3 49.8 132.2 49.7 C 131.5 49.3 130.7 48.9 130.0 48.5 C 129.8 48.4 129.6 48.3 129.4 48.3 C 128.7 47.9 128.0 47.6 127.3 47.3 C 127.2 47.2 127.1 47.2 127.0 47.2 C 126.2 46.8 125.4 46.5 124.6 46.2 C 124.4 46.2 124.2 46.1 124.0 46.0 C 123.2 45.8 122.4 45.5 121.6 45.3 C 121.5 45.3 121.5 45.3 121.4 45.3 C 120.6 45.0 119.7 44.8 118.8 44.6 C 118.6 44.6 118.4 44.5 118.2 44.5 C 117.3 44.3 116.4 44.1 115.5 44.0 C 115.5 44.0 115.5 44.0 115.4 44.0 C 114.5 43.9 113.6 43.8 112.7 43.7 C 112.5 43.7 112.3 43.7 112.1 43.6 C 111.1 43.6 110.2 43.5 109.3 43.5 C 108.8 43.5 108.4 43.5 107.9 43.5 C 107.7 43.5 107.5 43.5 107.2 43.5 C 106.5 43.5 105.8 43.5 105.1 43.5 C 104.2 43.6 103.3 43.6 102.4 43.7 C 102.1 43.7 101.9 43.8 101.6 43.8 C 101.0 43.9 100.4 44.0 99.8 44.0 C 99.4 44.1 99.1 44.1 98.7 44.2 C 98.2 44.3 97.6 44.4 97.1 44.5 C 96.7 44.6 96.4 44.6 96.1 44.7 C 95.5 44.8 95.0 44.9 94.5 45.1 C 94.1 45.1 93.7 45.2 93.4 45.3 C 92.9 45.5 92.3 45.6 91.8 45.8 C 91.5 45.9 91.1 45.9 90.8 46.0 C 90.2 46.2 89.6 46.4 89.0 46.6 C 88.8 46.7 88.5 46.8 88.2 46.9 C 87.4 47.2 86.5 47.5 85.7 47.8 C 85.7 47.9 85.6 47.9 85.5 47.9 C 84.8 48.2 84.0 48.5 83.3 48.9 C 83.0 49.0 82.8 49.1 82.5 49.2 C 82.0 49.5 81.4 49.7 80.9 50.0 C 80.6 50.2 80.3 50.3 80.0 50.4 C 79.5 50.7 79.0 51.0 78.5 51.3 C 78.2 51.4 78.0 51.6 77.7 51.7 C 77.2 52.0 76.6 52.4 76.1 52.7 C 75.8 52.8 75.6 53.0 75.4 53.1 C 74.7 53.6 73.9 54.0 73.2 54.5 C 73.0 54.6 72.9 54.7 72.8 54.8 C 72.2 55.2 71.6 55.7 71.0 56.1 C 70.8 56.3 70.5 56.5 70.3 56.7 C 69.8 57.0 69.4 57.3 68.9 57.7 C 68.6 58.0 68.2 58.3 67.9 58.6 C 67.5 58.9 67.1 59.2 66.8 59.5 C 66.4 59.8 66.1 60.1 65.7 60.4 C 65.4 60.8 65.0 61.1 64.7 61.4 C 64.3 61.8 64.0 62.1 63.7 62.4 C 63.3 62.7 63.0 63.1 62.6 63.4 C 62.3 63.8 62.0 64.1 61.7 64.4 C 61.3 64.8 61.0 65.2 60.6 65.6 C 60.4 65.8 60.1 66.1 59.9 66.4 C 59.5 66.8 59.2 67.2 58.9 67.6 C 58.6 67.9 58.4 68.2 58.1 68.5 C 57.8 69.0 57.5 69.4 57.1 69.8 C 56.9 70.1 56.7 70.4 56.5 70.7 C 56.1 71.2 55.8 71.6 55.5 72.1 C 55.3 72.4 55.1 72.7 54.9 73.0 C 54.5 73.5 54.2 74.0 53.9 74.5 C 53.7 74.8 53.5 75.0 53.4 75.3 C 52.9 76.0 52.4 76.8 52.0 77.6 C 52.0 77.7 51.9 77.7 51.9 77.8 C 51.5 78.5 51.1 79.3 50.7 80.0 C 50.6 80.3 50.4 80.6 50.3 80.9 C 50.0 81.4 49.8 81.9 49.5 82.5 C 49.4 82.8 49.2 83.2 49.1 83.5 C 48.9 84.0 48.6 84.5 48.4 85.0 C 48.3 85.4 48.2 85.7 48.0 86.1 C 47.8 86.6 47.6 87.1 47.5 87.6 C 47.3 87.9 47.2 88.3 47.1 88.7 C 46.9 89.2 46.7 89.7 46.6 90.2 C 46.5 90.6 46.4 90.9 46.3 91.3 C 46.1 91.8 46.0 92.3 45.8 92.9 C 45.7 93.2 45.6 93.6 45.5 94.0 C 45.4 94.5 45.3 95.1 45.2 95.6 C 45.1 96.0 45.0 96.3 45.0 96.7 C 44.8 97.3 44.8 97.9 44.7 98.5 C 44.6 98.8 44.5 99.1 44.5 99.4 C 44.4 100.3 44.3 101.2 44.2 102.1 C 44.1 103.0 44.0 103.9 44.0 104.8 C 44.0 105.1 44.0 105.3 44.0 105.6 C 43.9 106.3 43.9 107.0 43.9 107.7 C 43.9 107.9 43.9 108.1 43.9 108.3 C 43.9 109.2 44.0 110.0 44.0 110.9 C 44.0 111.0 44.0 111.2 44.1 111.4 C 44.1 112.1 44.2 112.8 44.2 113.5 C 44.3 113.7 44.3 114.0 44.3 114.2 C 44.4 114.9 44.5 115.7 44.6 116.4 C 44.7 116.5 44.7 116.6 44.7 116.7 C 44.8 117.5 45.0 118.3 45.2 119.1 C 45.2 119.3 45.3 119.6 45.3 119.8 C 45.5 120.4 45.6 121.0 45.8 121.6 C 45.9 121.8 45.9 122.0 46.0 122.2 C 46.2 123.0 46.5 123.8 46.7 124.5 C 46.8 124.7 46.8 124.8 46.9 124.9 C 47.1 125.5 47.3 126.2 47.6 126.8 C 47.7 127.0 47.8 127.2 47.9 127.4 C 48.1 128.0 48.4 128.6 48.7 129.2 C 48.7 129.4 48.8 129.5 48.9 129.6 C 49.2 130.3 49.6 131.0 49.9 131.7 C 50.0 131.9 50.1 132.1 50.2 132.2 C 50.5 132.7 50.8 133.1 51.0 133.6 C 51.3 134.0 51.6 134.5 51.9 135.0 C 52.1 135.3 52.4 135.6 52.6 135.9 C 52.9 136.4 53.2 136.8 53.6 137.3 C 53.8 137.6 54.0 137.8 54.2 138.1 C 54.3 138.2 54.4 138.3 54.4 138.4 C 54.5 138.4 54.5 138.4 54.5 138.4 C 54.8 138.6 55.0 138.8 55.3 139.0 C 55.8 139.4 56.3 139.7 56.7 140.0 C 57.0 140.2 57.3 140.4 57.5 140.6 C 58.1 140.9 58.6 141.3 59.2 141.6 C 59.4 141.7 59.6 141.8 59.8 142.0 C 60.6 142.4 61.4 142.8 62.2 143.2 C 62.4 143.3 62.5 143.4 62.7 143.4 C 63.3 143.7 64.0 144.0 64.7 144.3 C 65.0 144.5 65.2 144.6 65.5 144.7 C 66.1 144.9 66.7 145.1 67.2 145.3 C 67.6 145.4 67.9 145.6 68.2 145.7 C 68.8 145.8 69.4 146.0 69.9 146.2 C 70.3 146.3 70.6 146.4 70.9 146.5 C 71.6 146.6 72.2 146.8 72.9 147.0 C 73.2 147.0 73.4 147.1 73.6 147.1 C 74.6 147.3 75.5 147.5 76.4 147.6 C 76.6 147.6 76.9 147.7 77.1 147.7 C 77.8 147.8 78.6 147.9 79.3 148.0 C 79.7 148.0 80.0 148.0 80.3 148.0 C 81.0 148.1 81.6 148.1 82.3 148.1 C 82.8 148.2 83.2 148.2 83.7 148.2 C 84.0 148.2 84.2 148.2 84.5 148.2 C 85.3 148.2 86.1 148.2 86.9 148.1 C 87.8 148.1 88.7 148.0 89.6 147.9 C 89.9 147.9 90.2 147.9 90.5 147.8 C 91.1 147.8 91.7 147.7 92.3 147.6 C 92.6 147.5 92.9 147.5 93.3 147.4 C 93.8 147.4 94.4 147.3 94.9 147.2 C 95.3 147.1 95.6 147.0 96.0 146.9 C 96.5 146.8 97.0 146.7 97.6 146.6 C 97.9 146.5 98.3 146.4 98.6 146.3 C 99.2 146.2 99.7 146.0 100.2 145.9 C 100.6 145.8 100.9 145.7 101.2 145.6 C 101.8 145.4 102.4 145.2 103.0 145.0 C 103.3 144.9 103.5 144.9 103.8 144.8 C 104.6 144.5 105.5 144.1 106.3 143.8 C 106.4 143.8 106.4 143.8 106.5 143.7 C 107.3 143.4 108.0 143.1 108.7 142.8 C 109.0 142.7 109.2 142.5 109.5 142.4 C 110.0 142.2 110.6 141.9 111.1 141.6 C 111.4 141.5 111.7 141.3 112.0 141.2 C 112.5 140.9 113.0 140.7 113.5 140.4 C 113.8 140.2 114.1 140.1 114.3 139.9 C 114.9 139.6 115.4 139.3 116.0 138.9 C 116.2 138.8 116.4 138.7 116.6 138.6 C 117.4 138.1 118.1 137.6 118.8 137.1 C 119.0 137.0 119.1 136.9 119.2 136.8 C 119.8 136.4 120.4 136.0 121.0 135.5 C 121.3 135.4 121.5 135.2 121.7 135.0 C 122.2 134.6 122.6 134.3 123.1 133.9 C 123.4 133.7 123.8 133.4 124.2 133.1 C 124.5 132.8 124.9 132.4 125.3 132.1 C 125.6 131.8 126.0 131.5 126.3 131.2 C 126.7 130.9 127.0 130.5 127.4 130.2 C 127.7 129.9 128.0 129.6 128.4 129.2 C 128.7 128.9 129.1 128.6 129.4 128.2 C 129.7 127.9 130.0 127.5 130.3 127.2 C 130.7 126.8 131.0 126.5 131.4 126.1 C 131.6 125.8 131.9 125.5 132.1 125.2 C 132.5 124.8 132.8 124.4 133.2 124.0 C 133.4 123.7 133.7 123.4 133.9 123.1 C 134.2 122.7 134.6 122.3 134.9 121.8 C 135.1 121.5 135.3 121.2 135.6 120.9 C 135.9 120.5 136.2 120.0 136.5 119.6 C 136.7 119.3 137.0 119.0 137.2 118.7 C 137.5 118.2 137.8 117.6 138.2 117.1 C 138.3 116.9 138.5 116.6 138.6 116.4 C 139.1 115.6 139.6 114.8 140.0 114.0 C 140.1 113.9 140.1 113.9 140.2 113.8 C 140.6 113.1 140.9 112.3 141.3 111.6 C 141.5 111.3 141.6 111.1 141.7 110.8 C 142.0 110.2 142.3 109.7 142.5 109.1 C 142.7 108.8 142.8 108.5 142.9 108.2 C 143.2 107.6 143.4 107.1 143.6 106.6 C 143.7 106.3 143.9 105.9 144.0 105.6 C 144.2 105.1 144.4 104.6 144.6 104.1 C 144.7 103.7 144.8 103.3 144.9 103.0 C 145.1 102.5 145.3 102.0 145.4 101.4 C 145.6 101.1 145.7 100.7 145.8 100.3 C 145.9 99.8 146.1 99.3 146.2 98.8 C 146.3 98.4 146.4 98.0 146.5 97.7 C 146.6 97.1 146.7 96.6 146.8 96.0 C 146.9 95.7 147.0 95.3 147.1 95.0 C 147.2 94.4 147.3 93.8 147.4 93.2 C 147.4 92.8 147.5 92.5 147.5 92.2 C 147.6 91.3 147.8 90.4 147.8 89.5 C 149.2 75.4 145.3 62.7 137.6 53.3 M 59.0 154.3 C 58.5 153.9 57.9 153.5 57.4 153.1 C 57.1 152.9 56.8 152.7 56.5 152.4 C 55.9 152.0 55.4 151.6 54.8 151.1 C 54.6 150.9 54.3 150.7 54.1 150.5 C 53.3 149.8 52.6 149.2 51.9 148.4 L 44.4 141.2 C 45.1 141.9 45.9 142.6 46.7 143.2 C 46.9 143.4 47.2 143.6 47.4 143.8 C 47.9 144.3 48.5 144.7 49.0 145.2 C 49.3 145.4 49.6 145.6 49.9 145.8 C 50.5 146.2 51.0 146.6 51.6 147.0 C 51.9 147.2 52.2 147.4 52.5 147.6 C 53.1 148.0 53.8 148.4 54.4 148.8 C 54.6 148.9 54.9 149.1 55.1 149.2 C 56.0 149.7 56.9 150.2 57.8 150.6 C 58.0 150.7 58.2 150.8 58.4 150.9 C 59.1 151.2 59.9 151.6 60.7 151.9 C 61.0 152.1 61.3 152.2 61.7 152.3 C 62.3 152.6 62.9 152.8 63.6 153.1 C 64.0 153.2 64.3 153.3 64.7 153.4 C 65.4 153.7 66.0 153.9 66.7 154.1 C 67.1 154.2 67.4 154.3 67.8 154.4 C 68.6 154.6 69.3 154.7 70.1 154.9 C 70.4 155.0 70.6 155.1 70.9 155.1 C 72.0 155.3 73.1 155.5 74.1 155.7 C 74.4 155.7 74.6 155.7 74.9 155.8 C 75.7 155.9 76.6 156.0 77.4 156.1 C 77.8 156.1 78.2 156.1 78.6 156.2 C 79.3 156.2 80.1 156.3 80.8 156.3 C 81.4 156.3 81.9 156.3 82.5 156.3 C 82.8 156.3 83.0 156.3 83.3 156.3 C 84.3 156.3 85.2 156.3 86.1 156.3 C 87.2 156.2 88.2 156.1 89.2 156.0 C 89.5 156.0 89.9 156.0 90.2 155.9 C 90.9 155.8 91.6 155.8 92.3 155.7 C 92.7 155.6 93.0 155.5 93.4 155.5 C 93.6 155.5 93.7 155.4 93.8 155.4 C 93.2 155.4 92.5 155.5 91.9 155.5 C 91.7 155.5 91.4 155.5 91.2 155.4 C 90.9 155.4 90.6 155.5 90.3 155.4 C 90.1 155.4 89.9 155.4 89.7 155.4 C 89.1 155.4 88.4 155.4 87.8 155.3 C 87.4 155.3 87.1 155.3 86.8 155.2 C 86.0 155.2 85.2 155.1 84.5 155.0 C 84.3 154.9 84.1 154.9 83.9 154.9 C 82.9 154.7 82.0 154.6 81.1 154.4 C 80.8 154.3 80.6 154.3 80.4 154.2 C 79.7 154.1 79.0 153.9 78.3 153.7 C 78.0 153.7 77.7 153.6 77.4 153.5 C 76.8 153.3 76.2 153.1 75.7 152.9 C 75.3 152.8 75.0 152.7 74.7 152.6 C 74.1 152.4 73.5 152.2 73.0 152.0 C 72.7 151.8 72.4 151.7 72.1 151.6 C 71.4 151.3 70.8 151.0 70.1 150.7 C 69.9 150.6 69.8 150.6 69.6 150.5 C 68.8 150.1 68.0 149.7 67.3 149.2 C 67.2 149.2 67.2 149.2 67.1 149.2 C 67.0 149.1 66.8 149.0 66.6 148.9 C 66.1 148.5 65.5 148.2 65.0 147.8 C 64.7 147.7 64.4 147.5 64.2 147.3 C 63.7 147.0 63.2 146.6 62.7 146.3 C 62.5 146.1 62.2 145.9 62.0 145.7 C 61.5 145.3 61.0 144.9 60.5 144.6 C 60.3 144.4 60.1 144.2 59.9 144.0 C 59.2 143.4 58.6 142.8 57.9 142.2 L 51.1 135.5 L 50.5 134.9 L 50.5 134.9 C 49.8 134.3 49.2 133.6 48.6 133.0 C 48.4 132.7 48.2 132.5 48.0 132.3 C 47.6 131.8 47.2 131.3 46.8 130.9 C 46.6 130.6 46.4 130.3 46.1 130.0 C 45.8 129.5 45.5 129.1 45.1 128.6 C 44.9 128.3 44.7 128.0 44.5 127.7 C 44.2 127.2 43.9 126.8 43.6 126.3 C 43.5 126.1 43.4 126.0 43.3 125.8 C 43.3 125.9 43.3 125.9 43.4 125.9 C 43.3 125.9 43.3 125.9 43.3 125.8 C 43.1 125.5 43.0 125.3 42.8 125.0 C 42.7 124.8 42.6 124.6 42.5 124.4 C 42.1 123.8 41.8 123.1 41.4 122.4 C 41.4 122.2 41.3 122.1 41.2 122.0 C 41.0 121.4 40.7 120.8 40.4 120.2 C 40.3 120.0 40.2 119.7 40.2 119.5 C 39.9 118.9 39.7 118.3 39.4 117.6 C 39.4 117.5 39.3 117.4 39.3 117.3 C 39.0 116.5 38.8 115.7 38.6 115.0 C 38.5 114.8 38.4 114.6 38.4 114.3 C 38.2 113.7 38.0 113.1 37.9 112.5 C 37.8 112.3 37.8 112.1 37.7 111.8 C 37.6 111.0 37.4 110.2 37.3 109.4 C 37.2 109.3 37.2 109.2 37.2 109.1 C 37.1 108.4 37.0 107.7 36.9 106.9 C 36.9 106.7 36.8 106.4 36.8 106.2 C 36.7 105.5 36.7 104.8 36.6 104.1 C 36.6 103.9 36.6 103.8 36.6 103.6 C 36.5 102.7 36.5 101.9 36.5 101.0 C 36.5 100.8 36.5 100.6 36.5 100.4 C 36.5 99.7 36.5 99.0 36.5 98.3 C 36.5 98.1 36.5 97.8 36.5 97.6 C 36.6 96.7 36.6 95.8 36.7 94.9 C 36.8 93.9 36.9 93.0 37.1 92.1 C 37.1 91.8 37.2 91.5 37.2 91.2 C 37.3 90.6 37.4 90.0 37.5 89.4 C 37.6 89.0 37.7 88.7 37.7 88.3 C 37.9 87.8 38.0 87.2 38.1 86.7 C 38.2 86.3 38.3 86.0 38.4 85.6 C 38.5 85.1 38.7 84.6 38.8 84.0 C 38.9 83.7 39.0 83.3 39.1 82.9 C 39.3 82.4 39.5 81.9 39.6 81.4 C 39.8 81.0 39.9 80.7 40.0 80.3 C 40.2 79.8 40.4 79.3 40.6 78.8 C 40.7 78.4 40.8 78.1 41.0 77.7 C 41.2 77.2 41.4 76.7 41.6 76.2 C 41.8 75.9 41.9 75.5 42.1 75.2 C 42.3 74.7 42.6 74.1 42.9 73.6 C 43.0 73.3 43.1 73.0 43.3 72.8 C 43.6 72.0 44.0 71.3 44.4 70.5 C 44.5 70.5 44.5 70.4 44.5 70.3 C 45.0 69.5 45.5 68.8 45.9 68.0 C 46.1 67.7 46.3 67.5 46.4 67.2 C 46.7 66.7 47.1 66.2 47.4 65.7 C 47.6 65.4 47.8 65.1 48.0 64.8 C 48.4 64.4 48.7 63.9 49.0 63.4 C 49.2 63.1 49.5 62.8 49.7 62.5 C 50.0 62.1 50.3 61.7 50.7 61.3 C 50.9 61.0 51.2 60.7 51.4 60.4 C 51.8 60.0 52.1 59.5 52.4 59.1 C 52.7 58.9 53.0 58.6 53.2 58.3 C 53.4 58.1 53.5 57.9 53.6 57.8 C 53.8 57.6 54.0 57.4 54.2 57.2 C 54.5 56.8 54.9 56.5 55.2 56.2 C 55.5 55.8 55.9 55.5 56.2 55.1 C 56.5 54.8 56.9 54.5 57.2 54.2 C 57.6 53.8 57.9 53.5 58.3 53.2 C 58.6 52.9 59.0 52.6 59.3 52.2 C 59.7 51.9 60.1 51.6 60.4 51.3 C 60.8 51.0 61.1 50.7 61.5 50.4 C 61.6 50.3 61.8 50.2 61.9 50.1 C 62.2 49.9 62.5 49.6 62.8 49.4 C 63.1 49.2 63.3 49.0 63.6 48.8 C 64.2 48.4 64.8 48.0 65.4 47.5 C 65.5 47.5 65.6 47.4 65.7 47.3 C 66.5 46.8 67.2 46.3 68.0 45.8 C 68.2 45.7 68.4 45.6 68.6 45.4 C 69.0 45.2 69.5 44.9 69.9 44.7 C 70.0 44.6 70.1 44.5 70.3 44.4 C 70.5 44.3 70.8 44.1 71.1 44.0 C 71.6 43.7 72.1 43.4 72.6 43.2 C 72.9 43.0 73.2 42.9 73.5 42.7 C 74.0 42.5 74.5 42.2 75.1 42.0 C 75.3 41.8 75.6 41.7 75.8 41.6 C 76.6 41.3 77.3 40.9 78.1 40.6 C 78.2 40.6 78.2 40.6 78.3 40.6 C 78.3 40.6 78.3 40.6 78.3 40.5 C 79.1 40.2 79.9 39.9 80.8 39.6 C 81.0 39.5 81.3 39.4 81.6 39.3 C 82.2 39.1 82.8 38.9 83.3 38.8 C 83.7 38.7 84.0 38.6 84.3 38.5 C 84.9 38.3 85.4 38.2 86.0 38.0 C 86.3 37.9 86.7 37.9 87.0 37.8 C 87.3 37.7 87.6 37.6 87.9 37.6 C 88.1 37.5 88.4 37.5 88.6 37.4 C 89.0 37.3 89.3 37.3 89.7 37.2 C 90.2 37.1 90.8 37.0 91.3 36.9 C 91.6 36.9 92.0 36.8 92.3 36.8 C 92.9 36.7 93.5 36.6 94.1 36.5 C 94.4 36.5 94.7 36.5 95.0 36.4 C 95.9 36.4 96.8 36.3 97.7 36.2 C 98.4 36.2 99.1 36.2 99.8 36.2 C 100.0 36.2 100.2 36.2 100.5 36.2 C 100.9 36.2 101.3 36.2 101.8 36.2 C 101.8 36.2 101.8 36.2 101.8 36.2 C 102.8 36.2 103.7 36.3 104.6 36.4 C 104.9 36.4 105.1 36.4 105.3 36.4 C 106.2 36.5 107.1 36.6 108.0 36.7 C 108.0 36.7 108.0 36.7 108.1 36.7 C 109.0 36.9 109.9 37.0 110.8 37.2 C 111.0 37.3 111.2 37.3 111.4 37.3 C 112.3 37.5 113.1 37.7 114.0 38.0 C 114.0 38.0 114.1 38.0 114.2 38.0 C 115.0 38.3 115.8 38.5 116.6 38.8 C 116.8 38.8 117.0 38.9 117.2 39.0 C 118.0 39.3 118.8 39.6 119.6 39.9 C 119.7 39.9 119.8 40.0 119.9 40.0 C 120.6 40.3 121.3 40.6 122.0 41.0 C 122.2 41.1 122.4 41.1 122.5 41.2 C 123.3 41.6 124.0 42.0 124.8 42.4 C 124.8 42.4 124.8 42.5 124.9 42.5 C 125.0 42.5 125.0 42.6 125.1 42.6 C 125.8 43.0 126.4 43.4 127.1 43.8 C 127.2 43.9 127.4 44.0 127.5 44.1 C 127.6 44.2 127.7 44.2 127.8 44.3 C 128.4 44.7 129.0 45.1 129.6 45.6 C 129.8 45.7 129.9 45.8 130.0 45.9 C 130.6 46.3 131.1 46.8 131.7 47.2 C 131.8 47.4 132.0 47.5 132.2 47.7 C 132.8 48.2 133.5 48.8 134.1 49.4 L 141.5 56.7 L 141.5 56.7 L 141.5 56.7 C 150.5 65.5 155.8 78.1 155.5 92.4 C 155.5 92.4 155.5 92.3 155.6 92.3 C 155.7 91.2 155.8 90.2 155.9 89.1 C 156.8 79.8 155.7 71.1 153.0 63.4 C 150.2 55.6 145.8 48.7 140.2 43.2 L 140.2 43.2 L 140.2 43.2 L 147.6 50.5 C 159.0 61.6 165.2 77.9 163.4 96.4 C 163.3 97.4 163.1 98.5 163.0 99.5 C 162.9 99.9 162.9 100.2 162.8 100.6 C 162.7 101.3 162.6 102.0 162.5 102.6 C 162.4 103.1 162.3 103.5 162.2 103.9 C 162.1 104.5 161.9 105.1 161.8 105.7 C 161.7 106.2 161.6 106.6 161.5 107.0 C 161.3 107.6 161.2 108.2 161.0 108.8 C 160.9 109.2 160.7 109.6 160.6 110.1 C 160.4 110.6 160.2 111.2 160.1 111.8 C 159.9 112.2 159.8 112.6 159.6 113.1 C 159.4 113.6 159.2 114.2 159.0 114.8 C 158.8 115.2 158.7 115.6 158.5 116.0 C 158.3 116.6 158.0 117.2 157.8 117.8 C 157.6 118.1 157.4 118.5 157.3 118.9 C 157.0 119.5 156.7 120.1 156.4 120.8 C 156.2 121.1 156.1 121.4 155.9 121.7 C 155.5 122.6 155.0 123.4 154.6 124.2 C 154.5 124.3 154.5 124.4 154.4 124.5 C 153.9 125.4 153.4 126.3 152.8 127.2 C 152.7 127.5 152.5 127.7 152.3 128.0 C 151.9 128.6 151.5 129.2 151.1 129.8 C 150.9 130.1 150.7 130.5 150.4 130.8 C 150.1 131.3 149.7 131.9 149.3 132.4 C 149.1 132.7 148.8 133.1 148.5 133.4 C 148.2 133.9 147.8 134.4 147.4 134.9 C 147.1 135.2 146.8 135.6 146.6 135.9 C 146.2 136.4 145.8 136.8 145.4 137.3 C 145.1 137.6 144.8 138.0 144.5 138.3 C 144.3 138.5 144.2 138.7 144.0 138.9 C 143.8 139.1 143.6 139.3 143.3 139.6 C 143.0 140.0 142.6 140.3 142.2 140.7 C 141.8 141.1 141.5 141.5 141.1 141.9 C 140.7 142.3 140.3 142.7 139.9 143.0 C 139.5 143.4 139.1 143.8 138.7 144.2 C 138.3 144.5 137.9 144.9 137.5 145.2 C 137.1 145.6 136.7 145.9 136.2 146.3 C 135.8 146.6 135.4 147.0 135.0 147.3 C 134.9 147.4 134.7 147.5 134.6 147.7 C 134.2 147.9 133.8 148.2 133.5 148.5 C 133.2 148.7 132.9 148.9 132.6 149.1 C 132.0 149.6 131.3 150.1 130.6 150.6 C 130.5 150.7 130.3 150.8 130.1 150.9 C 129.3 151.5 128.5 152.0 127.6 152.6 C 127.4 152.7 127.1 152.9 126.9 153.0 C 126.4 153.3 125.9 153.6 125.4 153.9 C 125.2 154.0 125.1 154.1 125.0 154.1 C 124.7 154.3 124.4 154.5 124.1 154.7 C 123.5 155.0 122.9 155.3 122.3 155.6 C 122.0 155.8 121.6 155.9 121.3 156.1 C 120.7 156.4 120.1 156.7 119.5 157.0 C 119.2 157.1 118.9 157.3 118.6 157.4 C 117.7 157.8 116.9 158.2 116.0 158.5 C 115.9 158.5 115.9 158.6 115.8 158.6 C 115.8 158.6 115.8 158.6 115.8 158.6 C 114.8 159.0 113.9 159.3 112.9 159.7 C 112.6 159.8 112.3 159.9 112.0 160.0 C 111.3 160.2 110.7 160.4 110.0 160.6 C 109.6 160.8 109.2 160.9 108.8 161.0 C 108.2 161.2 107.6 161.3 107.0 161.5 C 106.6 161.6 106.2 161.7 105.8 161.8 C 105.4 161.9 105.1 162.0 104.8 162.0 C 104.5 162.1 104.2 162.1 103.9 162.2 C 103.6 162.3 103.2 162.4 102.8 162.4 C 102.1 162.5 101.5 162.7 100.9 162.8 C 100.5 162.8 100.1 162.9 99.7 162.9 C 99.0 163.0 98.3 163.1 97.6 163.2 C 97.3 163.2 97.0 163.3 96.6 163.3 C 95.6 163.4 94.6 163.5 93.6 163.5 C 92.6 163.6 91.7 163.6 90.8 163.6 C 90.5 163.6 90.2 163.6 89.9 163.6 C 89.6 163.6 89.2 163.6 88.9 163.6 C 88.7 163.6 88.5 163.6 88.3 163.6 C 87.5 163.5 86.8 163.5 86.0 163.4 C 85.6 163.4 85.3 163.4 84.9 163.3 C 84.0 163.3 83.1 163.2 82.3 163.0 C 82.1 163.0 81.8 163.0 81.6 163.0 C 80.5 162.8 79.4 162.6 78.4 162.4 C 78.1 162.3 77.8 162.3 77.5 162.2 C 76.8 162.0 76.0 161.8 75.2 161.6 C 74.9 161.5 74.5 161.4 74.1 161.3 C 73.5 161.1 72.8 160.9 72.2 160.7 C 71.8 160.6 71.4 160.5 71.0 160.3 C 70.4 160.1 69.7 159.9 69.1 159.6 C 68.8 159.5 68.4 159.3 68.1 159.2 C 67.3 158.9 66.6 158.5 65.8 158.2 C 65.6 158.1 65.4 158.0 65.3 157.9 C 64.4 157.5 63.4 157.0 62.6 156.5 C 62.5 156.5 62.5 156.4 62.4 156.4 C 62.2 156.3 62.0 156.2 61.8 156.1 C 61.2 155.7 60.6 155.3 59.9 154.9 C 59.6 154.7 59.3 154.5 59.0 154.3 " fill="#F38907"></path><path d="M 58.8 151.1 C 59.4 151.4 60.0 151.7 60.7 151.9 C 61.0 152.1 61.3 152.2 61.7 152.3 C 62.3 152.6 62.9 152.8 63.6 153.1 C 64.0 153.2 64.3 153.3 64.7 153.4 C 65.4 153.7 66.0 153.9 66.7 154.0 C 67.1 154.2 67.4 154.3 67.8 154.4 C 68.6 154.6 69.3 154.7 70.1 154.9 C 70.4 155.0 70.6 155.1 70.9 155.1 C 72.0 155.3 73.0 155.5 74.1 155.7 C 74.4 155.7 74.6 155.7 74.9 155.8 C 75.7 155.9 76.6 156.0 77.4 156.1 C 77.8 156.1 78.2 156.1 78.6 156.2 C 79.3 156.2 80.1 156.3 80.8 156.3 C 81.4 156.3 81.9 156.3 82.5 156.3 C 82.8 156.3 83.0 156.3 83.3 156.3 C 84.3 156.3 85.2 156.3 86.1 156.3 C 87.2 156.2 88.2 156.1 89.2 156.0 C 89.5 156.0 89.9 156.0 90.2 155.9 C 90.9 155.8 91.6 155.8 92.3 155.7 C 92.7 155.6 93.0 155.5 93.4 155.5 C 93.6 155.5 93.7 155.4 93.8 155.4 C 93.2 155.4 92.5 155.5 91.9 155.5 C 91.7 155.5 91.4 155.5 91.2 155.4 C 90.9 155.4 90.6 155.5 90.3 155.4 C 90.1 155.4 89.9 155.4 89.7 155.4 C 89.1 155.4 88.4 155.4 87.8 155.3 C 87.5 155.3 87.3 155.3 87.1 155.3 C 87.4 155.2 87.7 155.2 88.0 155.2 C 88.3 155.2 88.7 155.1 89.0 155.1 C 89.7 155.0 90.4 154.9 91.1 154.8 C 91.4 154.8 91.8 154.7 92.2 154.6 C 92.3 154.6 92.5 154.6 92.6 154.6 C 92.0 154.6 91.3 154.6 90.7 154.6 C 90.4 154.6 90.2 154.6 90.0 154.6 C 89.7 154.6 89.4 154.6 89.1 154.6 C 88.9 154.6 88.7 154.6 88.5 154.6 C 87.9 154.5 87.2 154.5 86.6 154.5 C 86.2 154.4 85.9 154.4 85.5 154.4 C 84.8 154.3 84.0 154.2 83.3 154.1 C 83.1 154.1 82.9 154.1 82.7 154.0 C 81.7 153.9 80.8 153.7 79.9 153.6 C 79.6 153.5 79.4 153.4 79.1 153.4 C 78.5 153.2 77.8 153.1 77.1 152.9 C 76.8 152.8 76.5 152.7 76.2 152.6 C 75.6 152.5 75.0 152.3 74.4 152.1 C 74.1 152.0 73.8 151.9 73.5 151.8 C 72.9 151.6 72.3 151.3 71.8 151.1 C 71.5 151.0 71.2 150.9 70.9 150.8 C 70.2 150.5 69.5 150.2 68.9 149.9 C 68.7 149.8 68.6 149.7 68.4 149.7 C 67.6 149.3 66.8 148.8 66.1 148.4 C 66.0 148.4 66.0 148.3 65.9 148.3 C 65.8 148.2 65.6 148.1 65.4 148.0 C 64.9 147.7 64.3 147.3 63.8 147.0 C 63.6 146.9 63.5 146.8 63.4 146.7 C 63.2 146.6 62.9 146.4 62.7 146.3 C 62.5 146.1 62.2 145.9 62.0 145.7 C 61.5 145.3 61.0 144.9 60.5 144.6 C 60.3 144.4 60.1 144.2 59.9 144.0 C 59.2 143.4 58.6 142.8 57.9 142.2 L 51.1 135.5 L 50.5 134.9 L 50.5 134.9 C 49.8 134.3 49.2 133.6 48.6 133.0 C 48.4 132.7 48.2 132.5 48.0 132.3 C 47.6 131.8 47.2 131.3 46.8 130.8 C 46.6 130.6 46.4 130.3 46.1 130.0 C 45.8 129.5 45.5 129.1 45.1 128.6 C 44.9 128.3 44.7 128.0 44.5 127.7 C 44.2 127.2 43.9 126.8 43.6 126.3 C 43.5 126.1 43.4 126.0 43.3 125.8 C 43.1 125.5 43.0 125.3 42.8 125.0 C 42.7 124.8 42.6 124.6 42.5 124.4 C 42.1 123.8 41.8 123.1 41.4 122.4 C 41.4 122.2 41.3 122.1 41.2 122.0 C 41.0 121.4 40.7 120.8 40.4 120.2 C 40.3 120.0 40.2 119.7 40.2 119.5 C 39.9 118.9 39.7 118.3 39.4 117.6 C 39.4 117.5 39.3 117.4 39.3 117.3 C 39.0 116.5 38.8 115.7 38.6 115.0 C 38.5 114.8 38.4 114.6 38.4 114.4 C 38.6 110.6 40.6 107.0 42.7 103.7 C 42.7 103.7 42.8 103.6 42.8 103.6 C 42.8 103.7 42.8 103.9 42.8 104.0 C 42.8 104.2 42.8 104.5 42.7 104.7 C 42.7 105.4 42.7 106.1 42.7 106.8 C 42.7 107.0 42.7 107.2 42.7 107.5 C 42.7 108.3 42.7 109.2 42.8 110.0 C 42.8 110.2 42.8 110.4 42.8 110.6 C 42.9 111.3 43.0 111.9 43.0 112.6 C 43.1 112.9 43.1 113.1 43.1 113.4 C 43.2 114.1 43.3 114.8 43.4 115.6 C 43.4 115.7 43.5 115.8 43.5 115.9 C 43.6 116.7 43.8 117.5 44.0 118.3 C 44.0 118.5 44.1 118.7 44.1 118.9 C 44.3 119.6 44.4 120.2 44.6 120.8 C 44.7 121.0 44.7 121.2 44.8 121.4 C 45.0 122.2 45.3 122.9 45.5 123.7 C 45.6 123.8 45.6 123.9 45.6 124.0 C 45.9 124.7 46.1 125.3 46.4 126.0 C 46.5 126.2 46.6 126.4 46.7 126.6 C 46.9 127.2 47.2 127.8 47.5 128.4 C 47.5 128.5 47.6 128.7 47.7 128.8 C 48.0 129.5 48.4 130.2 48.7 130.9 C 48.8 131.1 48.9 131.2 49.0 131.4 C 49.3 131.8 49.6 132.3 49.8 132.7 C 50.1 133.2 50.4 133.7 50.7 134.1 C 50.9 134.4 51.1 134.8 51.4 135.1 C 51.7 135.5 52.0 136.0 52.4 136.4 C 52.6 136.7 52.8 137.0 53.0 137.3 C 53.1 137.4 53.2 137.4 53.2 137.5 C 53.3 137.5 53.3 137.6 53.3 137.6 C 53.6 137.8 53.8 138.0 54.1 138.2 C 54.6 138.5 55.0 138.9 55.5 139.2 C 55.7 139.3 55.8 139.4 55.9 139.4 C 56.2 139.6 56.5 139.8 56.7 140.0 C 57.0 140.2 57.3 140.4 57.5 140.6 C 58.1 140.9 58.6 141.3 59.2 141.6 C 59.4 141.7 59.6 141.8 59.8 142.0 C 60.6 142.4 61.4 142.8 62.2 143.2 C 62.4 143.3 62.5 143.4 62.7 143.4 C 63.3 143.7 64.0 144.0 64.7 144.3 C 65.0 144.5 65.2 144.6 65.5 144.7 C 66.1 144.9 66.7 145.1 67.2 145.3 C 67.6 145.4 67.9 145.6 68.2 145.7 C 68.8 145.8 69.4 146.0 69.9 146.2 C 70.3 146.3 70.6 146.4 70.9 146.5 C 71.6 146.6 72.2 146.8 72.9 147.0 C 73.2 147.0 73.4 147.1 73.6 147.1 C 74.6 147.3 75.5 147.5 76.4 147.6 C 76.6 147.6 76.9 147.7 77.1 147.7 C 77.8 147.8 78.6 147.9 79.3 148.0 C 79.7 148.0 80.0 148.0 80.3 148.0 C 81.0 148.1 81.6 148.1 82.3 148.1 C 82.8 148.2 83.2 148.2 83.7 148.2 C 84.0 148.2 84.2 148.2 84.5 148.2 C 85.3 148.2 86.1 148.2 86.9 148.1 C 87.8 148.1 88.7 148.0 89.6 147.9 C 89.9 147.9 90.2 147.9 90.5 147.8 C 91.1 147.8 91.7 147.7 92.3 147.6 C 92.6 147.6 92.9 147.5 93.3 147.4 C 93.8 147.4 94.4 147.3 94.9 147.2 C 95.3 147.1 95.6 147.0 96.0 146.9 C 96.5 146.8 97.0 146.7 97.6 146.6 C 97.9 146.5 98.3 146.4 98.6 146.3 C 99.2 146.2 99.7 146.0 100.2 145.9 C 100.6 145.8 100.9 145.7 101.2 145.6 C 101.8 145.4 102.4 145.2 103.0 145.0 C 103.3 144.9 103.5 144.9 103.8 144.8 C 104.6 144.5 105.5 144.1 106.3 143.8 C 106.4 143.8 106.4 143.8 106.5 143.7 C 107.3 143.4 108.0 143.1 108.7 142.8 C 109.0 142.7 109.2 142.5 109.5 142.4 C 110.1 142.2 110.6 141.9 111.1 141.6 C 111.4 141.5 111.7 141.3 112.0 141.2 C 112.5 140.9 113.0 140.7 113.5 140.4 C 113.8 140.2 114.1 140.1 114.3 139.9 C 114.9 139.6 115.4 139.3 116.0 138.9 C 116.2 138.8 116.4 138.7 116.6 138.6 C 117.4 138.1 118.1 137.6 118.8 137.1 C 119.0 137.0 119.1 136.9 119.2 136.8 C 119.8 136.4 120.4 136.0 121.0 135.5 C 121.3 135.4 121.5 135.2 121.7 135.0 C 122.2 134.6 122.6 134.3 123.1 133.9 C 123.4 133.7 123.8 133.4 124.2 133.1 C 124.5 132.8 124.9 132.4 125.3 132.1 C 125.6 131.8 126.0 131.5 126.3 131.2 C 126.7 130.9 127.0 130.5 127.4 130.2 C 127.7 129.9 128.0 129.6 128.4 129.2 C 128.7 128.9 129.1 128.6 129.4 128.2 C 129.7 127.9 130.0 127.5 130.3 127.2 C 130.7 126.8 131.0 126.5 131.4 126.1 C 131.6 125.8 131.9 125.5 132.1 125.2 C 132.5 124.8 132.8 124.4 133.2 124.0 C 133.4 123.7 133.7 123.4 133.9 123.1 C 134.2 122.7 134.6 122.3 134.9 121.8 C 135.1 121.5 135.3 121.2 135.6 120.9 C 135.9 120.5 136.2 120.0 136.5 119.6 C 136.7 119.3 137.0 119.0 137.2 118.7 C 137.5 118.2 137.8 117.6 138.2 117.1 C 138.3 116.9 138.5 116.6 138.6 116.4 C 139.1 115.6 139.6 114.8 140.0 114.0 C 140.1 113.9 140.1 113.9 140.2 113.8 C 140.6 113.1 140.9 112.3 141.3 111.6 C 141.5 111.3 141.6 111.1 141.7 110.8 C 142.0 110.2 142.3 109.7 142.5 109.1 C 142.7 108.8 142.8 108.5 142.9 108.2 C 143.2 107.6 143.4 107.1 143.6 106.6 C 143.7 106.3 143.9 105.9 144.0 105.6 C 144.2 105.1 144.4 104.6 144.6 104.1 C 144.7 103.7 144.8 103.3 144.9 103.0 C 145.1 102.5 145.3 102.0 145.4 101.4 C 145.6 101.1 145.7 100.7 145.8 100.3 C 145.9 99.8 146.1 99.3 146.2 98.8 C 146.3 98.4 146.4 98.0 146.5 97.7 C 146.6 97.1 146.7 96.6 146.8 96.0 C 146.9 95.7 147.0 95.3 147.1 95.0 C 147.2 94.4 147.3 93.8 147.4 93.2 C 147.4 92.8 147.5 92.5 147.5 92.2 C 147.6 91.3 147.8 90.4 147.8 89.5 C 149.2 75.4 145.3 62.7 137.6 53.3 C 137.6 53.3 137.5 53.2 137.4 53.2 C 137.3 53.1 137.2 53.0 137.1 52.9 C 136.4 52.4 135.7 51.9 135.0 51.4 C 134.9 51.3 134.8 51.3 134.7 51.2 C 134.4 51.0 134.1 50.8 133.8 50.5 C 133.6 50.4 133.4 50.3 133.3 50.3 C 133.3 50.2 133.3 50.2 133.3 50.2 L 134.6 50.2 L 140.3 55.9 C 149.3 64.7 154.6 77.2 154.3 91.6 C 154.3 91.5 154.3 91.5 154.3 91.4 C 154.5 90.4 154.6 89.3 154.7 88.3 C 154.9 86.7 154.9 85.2 155.0 83.7 C 155.4 86.5 155.6 89.4 155.5 92.4 C 155.5 92.4 155.5 92.3 155.6 92.3 C 155.7 91.2 155.8 90.2 155.9 89.1 C 156.8 79.8 155.7 71.1 153.0 63.4 C 152.6 62.3 152.2 61.3 151.8 60.3 C 153.4 61.5 155.1 62.7 156.7 63.9 C 161.2 73.1 163.3 83.9 162.2 95.5 C 162.1 96.6 161.9 97.6 161.8 98.7 C 161.7 99.0 161.7 99.4 161.6 99.7 C 161.5 100.4 161.4 101.1 161.3 101.8 C 161.2 102.2 161.1 102.6 161.0 103.0 C 160.9 103.6 160.7 104.3 160.6 104.9 C 160.5 105.3 160.4 105.7 160.3 106.2 C 160.1 106.8 160.0 107.4 159.8 107.9 C 159.7 108.4 159.5 108.8 159.4 109.2 C 159.2 109.8 159.0 110.4 158.8 111.0 C 158.7 111.4 158.6 111.8 158.4 112.2 C 158.2 112.8 158.0 113.4 157.8 113.9 C 157.6 114.4 157.4 114.8 157.3 115.2 C 157.0 115.8 156.8 116.3 156.5 116.9 C 156.4 117.3 156.2 117.7 156.0 118.0 C 155.8 118.7 155.4 119.3 155.1 119.9 C 155.0 120.2 154.8 120.6 154.7 120.9 C 154.3 121.7 153.8 122.6 153.3 123.4 C 153.3 123.5 153.3 123.6 153.2 123.6 C 152.7 124.5 152.2 125.4 151.6 126.3 C 151.4 126.6 151.3 126.9 151.1 127.2 C 150.7 127.8 150.3 128.4 149.9 129.0 C 149.7 129.3 149.4 129.6 149.2 130.0 C 148.8 130.5 148.5 131.0 148.1 131.5 C 147.8 131.9 147.6 132.2 147.3 132.6 C 146.9 133.1 146.6 133.6 146.2 134.0 C 145.9 134.4 145.6 134.7 145.3 135.1 C 145.0 135.5 144.6 136.0 144.2 136.5 C 143.9 136.8 143.6 137.1 143.3 137.5 C 143.1 137.6 143.0 137.8 142.8 138.0 C 142.6 138.3 142.3 138.5 142.1 138.7 C 141.8 139.1 141.4 139.5 141.0 139.9 C 140.6 140.3 140.2 140.7 139.8 141.1 C 139.5 141.4 139.1 141.8 138.7 142.2 C 138.3 142.6 137.9 142.9 137.5 143.3 C 137.1 143.7 136.7 144.0 136.3 144.4 C 135.9 144.7 135.4 145.1 135.0 145.5 C 134.6 145.8 134.2 146.1 133.8 146.5 C 133.6 146.6 133.5 146.7 133.3 146.8 C 133.0 147.1 132.6 147.4 132.3 147.7 C 132.0 147.9 131.7 148.1 131.4 148.3 C 130.8 148.8 130.1 149.3 129.4 149.7 C 129.2 149.8 129.1 150.0 128.9 150.1 C 128.1 150.6 127.2 151.2 126.4 151.7 C 126.1 151.9 125.9 152.0 125.7 152.2 C 125.2 152.5 124.7 152.8 124.2 153.1 C 124.0 153.1 123.9 153.2 123.8 153.3 C 123.5 153.5 123.1 153.6 122.8 153.8 C 122.3 154.1 121.7 154.5 121.1 154.8 C 120.7 154.9 120.4 155.1 120.1 155.3 C 119.5 155.6 118.9 155.9 118.2 156.2 C 117.9 156.3 117.7 156.4 117.4 156.6 C 116.5 157.0 115.7 157.3 114.8 157.7 C 114.7 157.7 114.7 157.7 114.6 157.8 C 114.6 157.8 114.6 157.8 114.6 157.8 C 113.6 158.1 112.7 158.5 111.7 158.8 C 111.4 159.0 111.1 159.0 110.8 159.1 C 110.1 159.4 109.4 159.6 108.8 159.8 C 108.4 159.9 108.0 160.0 107.6 160.1 C 107.0 160.3 106.4 160.5 105.8 160.6 C 105.4 160.7 105.0 160.8 104.6 160.9 C 104.2 161.0 103.9 161.1 103.6 161.2 C 103.3 161.2 103.0 161.3 102.7 161.3 C 102.3 161.4 101.9 161.5 101.5 161.6 C 100.9 161.7 100.3 161.8 99.7 161.9 C 99.3 162.0 98.9 162.0 98.5 162.1 C 97.8 162.2 97.1 162.3 96.4 162.4 C 96.1 162.4 95.8 162.4 95.4 162.5 C 94.4 162.6 93.4 162.6 92.4 162.7 C 91.4 162.7 90.5 162.8 89.6 162.8 C 89.3 162.8 89.0 162.8 88.7 162.8 C 88.4 162.8 88.0 162.8 87.7 162.7 C 87.5 162.7 87.3 162.7 87.1 162.7 C 86.3 162.7 85.6 162.6 84.8 162.6 C 84.4 162.6 84.0 162.5 83.7 162.5 C 82.8 162.4 81.9 162.3 81.1 162.2 C 80.8 162.2 80.6 162.1 80.4 162.1 C 79.3 162.0 78.2 161.8 77.2 161.5 C 76.9 161.5 76.6 161.4 76.3 161.4 C 75.6 161.2 74.8 161.0 74.0 160.8 C 73.7 160.7 73.3 160.6 72.9 160.5 C 72.3 160.3 71.6 160.1 70.9 159.9 C 70.6 159.7 70.2 159.6 69.8 159.5 C 69.2 159.3 68.5 159.0 67.9 158.8 C 67.5 158.6 67.2 158.5 66.9 158.4 C 66.1 158.0 65.3 157.7 64.6 157.3 C 64.4 157.2 64.2 157.2 64.1 157.1 C 63.8 156.9 63.5 156.8 63.2 156.6 C 61.7 154.8 60.3 153.0 58.8 151.1 " fill="#DC7601"></path><path d="M 82.5 156.3 C 82.8 156.3 83.0 156.3 83.3 156.3 C 84.3 156.3 85.2 156.3 86.1 156.3 C 87.2 156.2 88.2 156.1 89.2 156.0 C 89.5 156.0 89.9 156.0 90.2 155.9 C 90.9 155.8 91.6 155.8 92.3 155.7 C 92.7 155.6 93.0 155.5 93.4 155.5 C 93.6 155.5 93.7 155.4 93.8 155.4 C 93.2 155.4 92.5 155.5 91.9 155.5 C 91.7 155.5 91.4 155.5 91.2 155.4 C 90.9 155.4 90.6 155.5 90.3 155.4 C 90.1 155.4 89.9 155.4 89.7 155.4 C 89.1 155.4 88.4 155.4 87.8 155.3 C 87.6 155.3 87.3 155.3 87.1 155.3 C 87.4 155.2 87.7 155.2 88.0 155.2 C 88.3 155.2 88.7 155.1 89.0 155.1 C 89.7 155.0 90.4 154.9 91.1 154.8 C 91.4 154.8 91.8 154.7 92.2 154.6 C 92.3 154.6 92.5 154.6 92.6 154.6 C 92.0 154.6 91.3 154.6 90.7 154.6 C 90.4 154.6 90.2 154.6 90.0 154.6 C 89.7 154.6 89.4 154.6 89.1 154.6 C 88.9 154.6 88.7 154.6 88.5 154.6 C 87.9 154.5 87.2 154.5 86.6 154.5 C 86.2 154.4 85.9 154.4 85.5 154.4 C 84.8 154.3 84.0 154.2 83.3 154.1 C 83.1 154.1 82.9 154.1 82.7 154.0 C 81.7 153.9 80.8 153.7 79.9 153.6 C 79.6 153.5 79.4 153.4 79.1 153.4 C 78.5 153.2 77.8 153.1 77.1 152.9 C 76.8 152.8 76.5 152.7 76.2 152.6 C 75.6 152.5 75.0 152.3 74.4 152.1 C 74.3 152.0 74.2 152.0 74.0 152.0 C 69.8 149.6 65.5 147.2 61.3 144.8 C 62.1 144.6 63.0 144.3 63.8 144.0 C 64.1 144.1 64.4 144.2 64.7 144.3 C 65.0 144.5 65.2 144.6 65.5 144.7 C 66.1 144.9 66.7 145.1 67.2 145.3 C 67.6 145.4 67.9 145.6 68.2 145.7 C 68.8 145.8 69.4 146.0 69.9 146.2 C 70.3 146.3 70.6 146.4 70.9 146.5 C 71.6 146.6 72.2 146.8 72.9 147.0 C 73.2 147.0 73.4 147.1 73.6 147.1 C 74.6 147.3 75.5 147.5 76.4 147.6 C 76.6 147.6 76.9 147.7 77.1 147.7 C 77.8 147.8 78.6 147.9 79.3 148.0 C 79.7 148.0 80.0 148.0 80.3 148.0 C 81.0 148.1 81.6 148.1 82.3 148.1 C 82.8 148.2 83.2 148.2 83.7 148.2 C 84.0 148.2 84.2 148.2 84.5 148.2 C 85.3 148.2 86.1 148.2 86.9 148.1 C 87.8 148.1 88.7 148.0 89.6 147.9 C 89.9 147.9 90.2 147.9 90.5 147.8 C 91.1 147.8 91.7 147.7 92.3 147.6 C 92.6 147.6 92.9 147.5 93.3 147.4 C 93.8 147.4 94.4 147.3 94.9 147.2 C 95.3 147.1 95.6 147.0 96.0 146.9 C 96.5 146.8 97.0 146.7 97.6 146.6 C 97.9 146.5 98.3 146.4 98.6 146.3 C 99.2 146.2 99.7 146.0 100.2 145.9 C 100.6 145.8 100.9 145.7 101.2 145.6 C 101.8 145.4 102.4 145.2 103.0 145.0 C 103.3 144.9 103.5 144.9 103.8 144.8 C 104.6 144.5 105.5 144.1 106.3 143.8 C 106.4 143.8 106.4 143.8 106.5 143.7 C 107.3 143.4 108.0 143.1 108.7 142.8 C 109.0 142.7 109.2 142.5 109.5 142.4 C 110.1 142.2 110.6 141.9 111.1 141.6 C 111.4 141.5 111.7 141.3 112.0 141.2 C 112.5 140.9 113.0 140.7 113.5 140.4 C 113.8 140.2 114.1 140.1 114.3 139.9 C 114.9 139.6 115.4 139.3 116.0 138.9 C 116.2 138.8 116.4 138.7 116.6 138.6 C 117.4 138.1 118.1 137.6 118.8 137.1 C 119.0 137.0 119.1 136.9 119.2 136.8 C 119.8 136.4 120.4 136.0 121.0 135.5 C 121.3 135.4 121.5 135.2 121.7 135.0 C 122.2 134.6 122.6 134.3 123.1 133.9 C 123.4 133.7 123.8 133.4 124.2 133.1 C 124.5 132.8 124.9 132.4 125.3 132.1 C 125.6 131.8 126.0 131.5 126.3 131.2 C 126.7 130.9 127.0 130.5 127.4 130.2 C 127.7 129.9 128.0 129.6 128.4 129.2 C 128.7 128.9 129.1 128.6 129.4 128.2 C 129.7 127.9 130.0 127.5 130.3 127.2 C 130.7 126.8 131.0 126.5 131.4 126.1 C 131.6 125.8 131.9 125.5 132.1 125.2 C 132.5 124.8 132.8 124.4 133.2 124.0 C 133.4 123.7 133.7 123.4 133.9 123.1 C 134.2 122.7 134.6 122.3 134.9 121.8 C 135.1 121.5 135.3 121.2 135.6 120.9 C 135.9 120.5 136.2 120.0 136.5 119.6 C 136.7 119.3 137.0 119.0 137.2 118.7 C 137.5 118.2 137.8 117.6 138.2 117.1 C 138.3 116.9 138.5 116.6 138.6 116.4 C 139.1 115.6 139.6 114.8 140.0 114.0 C 140.1 113.9 140.1 113.9 140.2 113.8 C 140.6 113.1 140.9 112.3 141.3 111.6 C 141.5 111.3 141.6 111.1 141.7 110.8 C 142.0 110.2 142.3 109.7 142.5 109.1 C 142.7 108.8 142.8 108.5 142.9 108.2 C 143.2 107.6 143.4 107.1 143.6 106.6 C 143.7 106.3 143.9 105.9 144.0 105.6 C 144.2 105.1 144.4 104.6 144.6 104.1 C 144.7 103.7 144.8 103.3 144.9 103.0 C 145.1 102.5 145.3 102.0 145.4 101.4 C 145.6 101.1 145.7 100.7 145.8 100.3 C 145.9 99.8 146.1 99.3 146.2 98.8 C 146.3 98.4 146.4 98.0 146.5 97.7 C 146.6 97.1 146.7 96.6 146.8 96.0 C 146.9 95.7 147.0 95.3 147.1 95.0 C 147.2 94.4 147.3 93.8 147.4 93.2 C 147.4 92.8 147.5 92.5 147.5 92.2 C 147.6 91.3 147.8 90.4 147.9 89.5 C 148.1 86.6 148.2 83.8 148.0 81.0 C 150.0 82.1 152.0 83.3 154.0 84.5 C 154.2 86.8 154.4 89.2 154.3 91.6 C 154.3 91.5 154.3 91.5 154.3 91.4 C 154.5 90.4 154.6 89.3 154.7 88.3 C 154.8 87.2 154.9 86.1 154.9 85.1 C 155.0 85.1 155.1 85.2 155.2 85.2 C 155.4 87.6 155.6 90.0 155.5 92.4 C 155.5 92.4 155.5 92.3 155.6 92.3 C 155.7 91.2 155.8 90.2 155.9 89.1 C 156.0 88.0 156.1 87.0 156.2 85.9 C 158.3 87.3 160.4 88.7 162.4 90.2 C 162.4 92.0 162.3 93.7 162.2 95.5 C 162.1 96.6 161.9 97.6 161.8 98.7 C 161.7 99.0 161.7 99.4 161.6 99.7 C 161.5 100.4 161.4 101.1 161.3 101.8 C 161.2 102.2 161.1 102.6 161.0 103.0 C 160.9 103.6 160.7 104.3 160.6 104.9 C 160.5 105.3 160.4 105.7 160.3 106.2 C 160.1 106.8 160.0 107.4 159.8 107.9 C 159.7 108.4 159.5 108.8 159.4 109.2 C 159.2 109.8 159.0 110.4 158.8 111.0 C 158.7 111.4 158.6 111.8 158.4 112.2 C 158.2 112.8 158.0 113.4 157.8 113.9 C 157.6 114.4 157.4 114.8 157.3 115.2 C 157.0 115.8 156.8 116.3 156.5 116.9 C 156.4 117.3 156.2 117.7 156.0 118.0 C 155.8 118.7 155.4 119.3 155.1 119.9 C 155.0 120.2 154.8 120.6 154.7 120.9 C 154.3 121.7 153.8 122.6 153.3 123.4 C 153.3 123.5 153.3 123.6 153.2 123.6 C 152.7 124.5 152.2 125.4 151.6 126.3 C 151.4 126.6 151.3 126.9 151.1 127.2 C 150.7 127.8 150.3 128.4 149.9 129.0 C 149.7 129.3 149.4 129.6 149.2 130.0 C 148.8 130.5 148.5 131.0 148.1 131.5 C 147.8 131.9 147.6 132.2 147.3 132.6 C 146.9 133.1 146.6 133.6 146.2 134.0 C 145.9 134.4 145.6 134.7 145.3 135.1 C 145.0 135.5 144.6 136.0 144.2 136.5 C 143.9 136.8 143.6 137.1 143.3 137.5 C 143.1 137.6 143.0 137.8 142.8 138.0 C 142.6 138.3 142.3 138.5 142.1 138.7 C 141.8 139.1 141.4 139.5 141.0 139.9 C 140.6 140.3 140.2 140.7 139.8 141.1 C 139.5 141.4 139.1 141.8 138.7 142.2 C 138.3 142.6 137.9 142.9 137.5 143.3 C 137.1 143.7 136.7 144.0 136.3 144.4 C 135.9 144.7 135.4 145.1 135.0 145.4 C 134.6 145.8 134.2 146.1 133.8 146.5 C 133.6 146.6 133.5 146.7 133.3 146.8 C 133.0 147.1 132.6 147.4 132.3 147.6 C 132.0 147.9 131.7 148.1 131.4 148.3 C 130.8 148.8 130.1 149.3 129.4 149.7 C 129.2 149.9 129.1 150.0 128.9 150.1 C 128.1 150.6 127.2 151.2 126.4 151.7 C 126.1 151.9 125.9 152.0 125.7 152.2 C 125.2 152.5 124.7 152.8 124.2 153.1 C 124.0 153.2 123.9 153.2 123.8 153.3 C 123.5 153.5 123.1 153.6 122.8 153.8 C 122.3 154.1 121.7 154.5 121.1 154.8 C 120.7 154.9 120.4 155.1 120.1 155.3 C 119.5 155.6 118.9 155.9 118.2 156.2 C 117.9 156.3 117.7 156.4 117.4 156.6 C 116.5 157.0 115.7 157.3 114.8 157.7 C 114.7 157.7 114.7 157.7 114.6 157.8 C 114.6 157.8 114.6 157.8 114.6 157.8 C 113.6 158.1 112.7 158.5 111.7 158.8 C 111.4 158.9 111.1 159.0 110.8 159.1 C 110.1 159.4 109.4 159.6 108.8 159.8 C 108.4 159.9 108.0 160.0 107.6 160.1 C 107.0 160.3 106.4 160.5 105.8 160.6 C 105.4 160.7 105.0 160.8 104.6 160.9 C 104.2 161.0 103.9 161.1 103.6 161.2 C 103.3 161.2 103.0 161.3 102.7 161.3 C 102.3 161.4 101.9 161.5 101.5 161.6 C 100.9 161.7 100.3 161.8 99.7 161.9 C 99.3 162.0 98.9 162.0 98.5 162.1 C 97.8 162.2 97.1 162.3 96.4 162.4 C 96.1 162.4 95.8 162.4 95.4 162.5 C 95.3 162.5 95.1 162.5 95.0 162.5 C 90.7 160.6 86.4 158.5 82.2 156.3 C 82.3 156.3 82.4 156.3 82.5 156.3 " fill="#D66800"></path><path d="M 54.4 93.4 L 54.1 99.3 L 62.4 98.5 C 62.4 103.1 63.0 108.0 63.6 112.2 L 77.5 110.4 L 77.8 103.7 L 72.9 104.0 C 72.7 104.0 72.4 103.9 71.9 103.8 C 70.5 102.1 69.9 99.8 70.3 95.7 C 70.7 91.0 73.4 87.5 77.3 87.3 C 88.1 86.8 84.4 114.0 104.6 113.1 C 115.3 112.6 122.1 103.9 124.1 93.1 L 131.2 92.5 L 131.5 86.5 L 124.6 87.1 C 124.9 76.9 122.1 70.9 121.9 70.6 L 107.5 72.6 L 107.3 79.1 C 107.4 79.1 110.4 78.9 111.3 79.0 C 111.6 78.9 113.2 79.1 114.8 79.4 C 115.1 79.8 116.7 83.0 116.1 89.7 C 115.7 94.0 113.4 98.0 109.0 98.2 C 97.0 98.8 101.5 71.7 80.4 72.7 C 70.3 73.2 64.1 81.6 62.7 92.7 Z M 54.4 93.4 " fill="#FFF3A9"></path><path d="M 124.1 93.1 C 122.1 103.9 115.3 112.6 104.6 113.1 C 84.4 114.0 88.1 86.8 77.3 87.3 C 73.4 87.5 70.7 91.0 70.3 95.7 C 69.9 99.8 70.5 102.1 71.9 103.8 C 72.4 103.9 72.7 104.0 72.9 104.0 L 77.8 103.7 L 77.5 110.4 L 63.6 112.2 C 63.0 108.0 62.4 103.1 62.4 98.5 L 54.1 99.3 L 54.4 93.4 L 62.7 92.7 C 64.1 81.6 70.3 73.2 80.4 72.7 C 101.5 71.7 97.0 98.8 109.0 98.2 C 113.4 98.0 115.7 94.0 116.1 89.7 C 116.7 83.0 115.1 79.8 114.8 79.4 C 113.2 79.1 111.6 78.9 111.3 79.0 C 110.4 78.9 107.5 79.1 107.3 79.1 L 107.5 72.6 L 121.9 70.6 C 122.1 70.9 124.9 76.9 124.6 87.1 L 131.5 86.5 L 131.2 92.5 L 124.1 93.1 M 36.7 94.9 C 33.8 125.8 56.2 149.6 86.9 148.1 C 117.6 146.6 144.9 120.4 147.8 89.5 C 150.8 58.6 128.4 34.8 97.7 36.2 C 67.0 37.7 39.7 64.0 36.7 94.9 " fill="#FFE679"></path><path d="M 147.8 89.5 C 144.9 120.4 117.6 146.6 86.9 148.1 C 56.2 149.6 33.8 125.8 36.7 94.9 C 39.7 64.0 67.0 37.7 97.7 36.2 C 128.4 34.8 150.8 58.6 147.8 89.5 M 28.7 95.3 C 25.3 130.6 51.0 158.0 86.1 156.3 C 121.3 154.6 152.5 124.5 155.9 89.1 C 159.3 53.7 133.6 26.4 98.5 28.1 C 63.3 29.8 32.1 59.9 28.7 95.3 " fill="#FFF1B4"></path><path d="M 86.9 148.1 C 85.1 148.2 83.3 148.2 81.5 148.1 C 85.3 133.9 88.2 119.4 89.6 104.8 C 92.5 109.6 96.7 113.4 104.6 113.1 C 115.2 112.6 122.1 103.9 124.1 93.1 L 131.2 92.5 L 131.5 86.5 L 124.6 87.1 C 124.9 76.9 122.1 70.9 121.9 70.6 L 107.5 72.6 L 107.3 79.1 C 107.5 79.1 110.4 78.9 111.3 79.0 C 111.6 78.9 113.2 79.1 114.8 79.4 C 115.1 79.8 116.7 83.0 116.1 89.7 C 115.7 94.0 113.4 98.0 109.0 98.2 C 99.4 98.7 100.4 81.6 90.5 75.1 C 89.8 62.7 88.0 50.3 84.6 38.4 C 88.8 37.2 93.2 36.5 97.7 36.2 C 128.4 34.8 150.8 58.6 147.8 89.5 C 144.9 120.4 117.6 146.6 86.9 148.1 " fill="#FFD93A"></path><path d="M 70.3 97.2 C 70.2 97.7 70.2 98.2 70.2 98.6 C 70.1 97.8 70.2 96.8 70.3 95.7 C 70.7 91.0 73.4 87.5 77.3 87.3 C 88.1 86.8 84.4 114.0 104.6 113.1 C 115.3 112.6 122.1 103.9 124.1 93.1 L 131.2 92.5 L 131.4 88.1 L 131.5 88.1 L 131.2 94.0 L 124.1 94.6 C 122.1 105.4 115.2 114.1 104.6 114.6 C 84.4 115.6 88.1 88.4 77.3 88.9 C 73.4 89.1 70.7 92.5 70.3 97.2 " fill="#C76C10"></path><path d="M 54.1 99.3 L 62.4 98.5 C 62.4 103.1 63.0 108.0 63.6 112.2 L 77.5 110.4 L 77.7 105.3 L 77.8 105.3 L 77.5 111.9 L 63.6 113.8 C 63.0 109.5 62.4 104.7 62.4 100.0 L 54.1 100.8 Z M 54.1 99.3 " fill="#C76C10"></path><path d="M 124.6 86.1 C 124.6 86.5 124.6 86.8 124.6 87.1 L 124.6 87.1 C 124.6 86.8 124.6 86.5 124.6 86.1 " fill="#C76C10"></path><path d="M 97.7 37.8 C 67.0 39.3 39.7 65.5 36.7 96.4 C 36.6 98.0 36.5 99.6 36.5 101.2 C 36.5 99.1 36.5 97.0 36.7 94.9 C 39.7 64.0 67.0 37.7 97.7 36.2 C 126.7 34.8 148.4 56.2 148.1 84.7 C 147.6 57.0 126.2 36.4 97.7 37.8 " fill="#C76C10"></path><path d="M 111.3 80.5 C 110.4 80.5 107.5 80.6 107.3 80.6 L 107.3 79.1 C 107.6 79.1 110.4 78.9 111.3 79.0 C 111.6 78.9 113.2 79.1 114.8 79.4 C 115.0 79.7 116.4 82.3 116.2 87.5 C 116.1 83.3 115.0 81.2 114.8 80.9 C 113.2 80.6 111.6 80.4 111.3 80.5 " fill="#C76C10"></path><path d="M 88.4 149.1 C 103.5 148.0 118.0 141.1 129.5 129.7 L 129.5 129.7 C 140.6 118.5 147.5 104.3 148.9 89.6 C 150.4 74.2 145.8 60.1 136.0 49.8 C 126.3 39.6 112.7 34.4 97.6 35.2 C 96.2 35.2 94.7 35.4 93.3 35.6 C 91.8 33.8 90.2 32.1 88.4 30.5 C 91.8 29.8 95.1 29.4 98.5 29.2 C 115.1 28.4 130.0 34.1 140.7 45.2 C 151.4 56.5 156.5 72.1 154.9 89.0 C 153.3 105.3 145.6 121.1 133.3 133.5 C 120.1 146.6 103.4 154.3 86.1 155.2 C 86.8 153.1 87.6 151.1 88.4 149.1 " fill="#FCDE53"></path><path d="M 84.5 74.0 C 92.6 75.2 95.5 82.0 98.3 88.5 C 100.8 94.2 103.1 99.6 109.0 99.3 C 111.0 99.2 112.7 98.5 114.1 97.1 C 115.8 95.4 116.9 92.8 117.2 89.8 C 117.9 81.9 115.7 78.7 115.6 78.7 L 115.4 78.4 L 115.0 78.3 C 113.9 78.1 112.1 77.8 111.2 77.9 C 110.6 77.9 109.5 77.9 108.4 77.9 L 108.5 73.6 L 121.2 71.8 C 122.0 73.7 123.7 79.0 123.5 87.1 L 123.4 88.3 L 130.3 87.7 L 130.1 91.5 L 123.1 92.1 L 123.0 92.9 C 122.0 98.6 119.6 103.4 116.2 106.8 C 113.0 110.0 109.1 111.8 104.5 112.0 C 96.1 112.4 92.2 107.6 89.4 102.0 C 89.0 98.9 88.7 95.8 88.3 92.7 C 87.4 86.4 86.3 80.1 84.5 74.0 " fill="#FFE061"></path></g></g></g></g></g></svg>