<?xml version="1.0" encoding="UTF-8"?><svg xmlns="http://www.w3.org/2000/svg" xmlns:xlink="http://www.w3.org/1999/xlink" clip-rule="evenodd" stroke-miterlimit="4.00" viewBox="0 0 114 114"><desc>SVG generated by Keynote</desc><defs></defs><g transform="matrix(1.00, 0.00, -0.00, -1.00, 0.0, 114.0)"><g><clipPath id="clip-369"><path d="M 112.6 53.3 L 53.4 112.5 L 1.4 60.5 L 60.6 1.3 Z M 112.6 53.3 "></path></clipPath><g clip-path="url(#clip-369)"><g><clipPath id="clip-370"><path d="M 60.6 1.3 L 1.4 60.5 L 53.4 112.5 L 112.6 53.3 Z M 60.6 1.3 "></path></clipPath><g clip-path="url(#clip-370)"><path d="M 62.7 85.6 C 63.1 85.3 63.5 85.0 63.8 84.6 C 64.0 84.5 64.1 84.4 64.2 84.3 C 64.5 84.1 64.7 83.8 65.0 83.6 C 65.1 83.5 65.3 83.3 65.4 83.2 C 65.6 83.0 65.9 82.7 66.1 82.5 C 66.2 82.4 66.4 82.2 66.5 82.1 C 66.8 81.8 67.0 81.6 67.2 81.3 C 67.4 81.2 67.5 81.1 67.6 80.9 C 67.9 80.5 68.3 80.1 68.6 79.7 C 68.6 79.7 68.6 79.7 68.7 79.6 C 69.0 79.2 69.3 78.9 69.6 78.5 C 69.7 78.4 69.8 78.2 69.9 78.1 C 69.9 78.0 69.9 78.0 69.9 78.0 L 67.4 80.1 L 61.7 78.4 C 60.5 78.6 59.4 78.6 58.4 78.3 L 49.7 75.6 C 49.7 75.6 49.7 75.6 49.7 75.6 L 49.7 75.6 L 49.7 75.6 C 49.7 75.6 49.6 75.6 49.5 75.5 C 49.5 75.5 49.4 75.5 49.4 75.5 C 49.4 75.5 49.3 75.5 49.3 75.5 C 49.2 75.4 49.1 75.4 48.9 75.3 C 48.6 75.1 48.3 74.9 48.0 74.7 C 47.8 74.5 47.5 74.3 47.3 74.1 C 47.3 74.0 47.2 73.9 47.2 73.9 C 47.1 73.8 47.1 73.8 47.1 73.8 C 47.0 73.8 47.0 73.7 47.0 73.7 C 46.8 73.4 46.6 73.1 46.4 72.7 C 46.3 72.5 46.2 72.3 46.1 72.1 C 45.9 71.8 45.7 71.4 45.6 71.0 C 45.5 70.8 45.5 70.6 45.4 70.4 C 45.4 70.4 45.4 70.3 45.4 70.3 C 45.4 70.1 45.3 70.0 45.3 69.9 C 45.3 69.8 45.3 69.8 45.3 69.7 C 45.2 69.6 45.2 69.5 45.2 69.4 C 45.2 69.3 45.2 69.2 45.1 69.2 C 45.1 69.1 45.1 69.0 45.1 68.9 C 45.1 68.8 45.1 68.8 45.1 68.8 C 45.1 68.8 45.1 68.7 45.1 68.7 C 45.0 68.5 45.0 68.2 45.0 67.9 L 45.0 67.9 C 44.9 67.6 44.9 67.3 44.9 67.1 C 44.9 67.1 44.9 67.0 44.9 67.0 C 44.9 66.7 44.9 66.5 44.9 66.2 C 44.9 66.2 44.9 66.1 44.9 66.1 C 45.0 65.9 45.0 65.6 45.0 65.4 C 45.0 65.3 45.0 65.3 45.0 65.2 C 45.0 65.0 45.1 64.7 45.1 64.5 C 45.1 64.4 45.1 64.4 45.1 64.4 C 45.2 64.1 45.2 63.9 45.3 63.6 C 45.3 63.6 45.3 63.6 45.3 63.6 C 45.3 63.4 45.4 63.3 45.4 63.2 C 45.4 63.2 45.4 63.2 45.4 63.2 C 45.4 63.2 45.4 63.2 45.4 63.2 C 45.4 63.1 45.4 63.0 45.5 62.9 C 45.5 62.8 45.5 62.7 45.5 62.6 C 45.6 62.5 45.6 62.3 45.7 62.1 C 45.7 62.0 45.7 62.0 45.8 61.9 C 45.8 61.7 45.9 61.5 46.0 61.2 C 46.0 61.2 46.0 61.2 46.0 61.1 C 46.1 60.9 46.2 60.6 46.3 60.4 C 46.3 60.3 46.4 60.2 46.4 60.2 C 46.5 60.0 46.5 59.8 46.6 59.6 C 46.6 59.6 46.7 59.5 46.7 59.4 C 46.8 59.2 46.9 59.1 46.9 58.9 C 47.0 58.8 47.0 58.7 47.1 58.6 C 47.1 58.5 47.2 58.3 47.3 58.2 C 47.3 58.1 47.4 58.0 47.4 57.9 C 47.5 57.7 47.6 57.6 47.7 57.4 C 47.7 57.3 47.7 57.3 47.8 57.2 C 47.9 57.0 48.0 56.8 48.1 56.5 C 48.1 56.5 48.2 56.5 48.2 56.5 L 42.4 54.7 L 39.4 47.7 C 41.2 45.6 43.2 43.3 45.2 41.4 L 43.5 37.0 L 46.1 34.8 L 52.4 36.8 C 52.6 36.8 52.7 36.7 52.8 36.7 C 52.8 36.7 52.8 36.7 52.9 36.7 C 53.1 36.6 53.4 36.6 53.7 36.6 C 53.7 36.6 53.8 36.6 53.8 36.6 C 53.9 36.6 54.0 36.6 54.1 36.6 C 54.2 36.6 54.2 36.6 54.2 36.6 C 54.3 36.6 54.4 36.6 54.6 36.6 C 54.6 36.6 54.6 36.6 54.7 36.6 C 54.8 36.6 54.9 36.7 55.1 36.7 C 55.1 36.7 55.1 36.7 55.1 36.7 C 55.2 36.7 55.3 36.7 55.4 36.8 C 55.5 36.8 55.5 36.8 55.5 36.8 L 55.5 36.8 L 61.9 38.7 L 64.2 39.5 L 64.2 39.5 C 65.8 40.0 67.1 41.3 67.9 43.6 C 67.9 43.8 68.0 44.0 68.1 44.2 C 68.1 44.3 68.1 44.3 68.1 44.4 C 68.1 44.5 68.2 44.6 68.2 44.8 C 68.2 44.8 68.2 44.9 68.3 45.0 C 68.3 45.1 68.3 45.2 68.3 45.3 C 68.3 45.4 68.4 45.5 68.4 45.5 C 68.4 45.6 68.4 45.8 68.4 45.9 C 68.4 45.9 68.4 45.9 68.4 46.0 C 68.5 46.0 68.5 46.0 68.5 46.0 C 68.5 46.3 68.5 46.6 68.6 46.8 C 68.6 46.9 68.6 46.9 68.6 47.0 C 68.6 47.2 68.6 47.5 68.6 47.8 C 68.6 47.8 68.6 47.8 68.6 47.8 C 68.6 48.1 68.6 48.3 68.6 48.6 C 68.6 48.6 68.6 48.7 68.6 48.7 C 68.6 49.0 68.6 49.2 68.5 49.5 C 68.5 49.5 68.5 49.6 68.5 49.6 C 68.5 49.9 68.5 50.1 68.4 50.4 C 68.4 50.4 68.4 50.4 68.4 50.5 C 68.4 50.7 68.3 51.0 68.3 51.2 C 68.3 51.3 68.3 51.3 68.2 51.3 C 68.2 51.6 68.1 51.8 68.1 52.1 C 68.1 52.1 68.1 52.1 68.1 52.1 C 68.0 52.4 67.9 52.6 67.8 52.8 C 67.8 52.9 67.8 52.9 67.8 53.0 C 67.7 53.2 67.7 53.4 67.6 53.7 C 67.6 53.7 67.5 53.8 67.5 53.8 C 67.4 54.0 67.4 54.3 67.3 54.5 C 67.3 54.5 67.2 54.6 67.2 54.6 C 67.1 54.8 67.0 55.1 66.9 55.3 C 66.9 55.3 66.9 55.3 66.9 55.3 C 66.8 55.6 66.7 55.8 66.6 56.0 C 66.6 56.1 66.6 56.1 66.6 56.1 C 66.5 56.3 66.4 56.6 66.2 56.8 C 66.2 56.8 66.2 56.9 66.2 56.9 C 66.2 56.9 66.2 56.9 66.2 56.9 L 72.2 58.8 L 75.4 66.0 C 75.4 66.0 75.4 66.1 75.4 66.1 C 75.3 66.1 75.3 66.1 75.3 66.2 C 75.3 66.2 75.3 66.2 75.3 66.3 C 75.2 66.3 75.2 66.3 75.2 66.4 C 75.2 66.4 75.2 66.5 75.1 66.5 C 75.1 66.5 75.1 66.6 75.1 66.6 C 75.0 66.7 75.0 66.7 74.9 66.8 C 74.9 66.9 74.9 66.9 74.8 67.0 C 74.8 67.0 74.8 67.1 74.7 67.2 C 74.7 67.3 74.6 67.3 74.6 67.4 C 74.5 67.5 74.5 67.5 74.4 67.6 C 74.4 67.7 74.3 67.8 74.3 67.8 C 74.2 67.9 74.2 68.0 74.1 68.1 C 74.1 68.2 74.0 68.3 73.9 68.4 C 73.9 68.4 73.8 68.5 73.7 68.6 C 73.7 68.7 73.6 68.8 73.5 68.9 C 73.5 69.0 73.4 69.1 73.3 69.2 C 73.2 69.3 73.2 69.4 73.1 69.5 C 73.0 69.6 72.9 69.7 72.8 69.8 C 72.8 69.9 72.7 70.0 72.6 70.1 C 72.5 70.3 72.4 70.4 72.3 70.5 C 72.2 70.6 72.1 70.7 72.0 70.8 C 71.9 70.9 71.8 71.1 71.7 71.2 C 71.6 71.3 71.5 71.4 71.4 71.5 C 71.3 71.6 71.2 71.7 71.1 71.9 C 71.0 72.0 70.9 72.1 70.8 72.2 C 70.7 72.3 70.5 72.5 70.4 72.6 C 70.3 72.7 70.2 72.8 70.1 72.9 C 70.0 73.1 69.8 73.2 69.7 73.3 C 69.6 73.4 69.5 73.5 69.3 73.7 C 69.3 73.7 69.2 73.8 69.2 73.8 C 69.0 74.0 68.8 74.1 68.7 74.3 L 68.7 74.3 L 70.0 77.9 C 70.2 77.6 70.3 77.4 70.5 77.2 C 70.6 77.0 70.7 76.9 70.8 76.7 C 71.0 76.4 71.2 76.1 71.4 75.8 C 71.5 75.7 71.6 75.5 71.7 75.4 C 71.9 75.0 72.1 74.7 72.3 74.4 C 72.4 74.3 72.5 74.1 72.6 74.0 C 72.8 73.5 73.1 73.1 73.3 72.6 C 73.4 72.5 73.4 72.4 73.5 72.4 C 73.7 72.0 73.9 71.6 74.1 71.1 C 74.2 71.0 74.3 70.8 74.3 70.7 C 74.5 70.3 74.6 70.0 74.8 69.7 C 74.9 69.5 75.0 69.3 75.0 69.1 C 75.2 68.8 75.3 68.5 75.5 68.1 C 75.5 68.0 75.6 67.8 75.7 67.6 C 75.8 67.2 76.0 66.9 76.1 66.5 C 76.2 66.4 76.2 66.2 76.3 66.1 C 76.5 65.6 76.7 65.1 76.8 64.5 C 76.9 64.4 76.9 64.3 76.9 64.3 C 77.1 63.8 77.2 63.4 77.3 63.0 C 77.4 62.8 77.4 62.6 77.5 62.5 C 77.6 62.1 77.7 61.8 77.8 61.4 C 77.8 61.2 77.9 61.0 77.9 60.8 C 78.0 60.5 78.1 60.1 78.2 59.8 C 78.2 59.6 78.3 59.4 78.3 59.2 C 78.4 58.8 78.5 58.4 78.6 58.0 C 78.6 57.9 78.6 57.8 78.7 57.6 C 78.8 57.1 78.9 56.6 78.9 56.0 C 79.0 55.9 79.0 55.8 79.0 55.7 C 79.1 55.2 79.1 54.8 79.2 54.4 C 79.2 54.2 79.2 54.0 79.2 53.8 C 79.3 53.5 79.3 53.1 79.4 52.8 C 79.4 52.6 79.4 52.4 79.4 52.2 C 79.4 51.8 79.5 51.5 79.5 51.1 C 79.5 50.9 79.5 50.8 79.5 50.6 C 79.5 50.2 79.5 49.8 79.5 49.3 C 79.6 49.2 79.6 49.1 79.6 49.0 C 79.6 48.4 79.6 47.9 79.6 47.4 C 79.5 47.3 79.5 47.1 79.5 47.0 C 79.5 46.6 79.5 46.2 79.5 45.8 C 79.5 45.6 79.5 45.4 79.4 45.2 C 79.4 44.9 79.4 44.6 79.4 44.2 C 79.3 44.0 79.3 43.8 79.3 43.6 C 79.3 43.3 79.2 42.9 79.2 42.6 C 79.2 42.4 79.1 42.2 79.1 42.1 C 79.1 41.8 79.0 41.4 79.0 41.1 C 78.9 40.9 78.9 40.7 78.8 40.4 C 78.8 40.1 78.7 39.8 78.6 39.5 C 78.6 39.3 78.5 39.1 78.5 38.9 C 78.4 38.5 78.3 38.2 78.2 37.8 C 78.2 37.7 78.1 37.5 78.1 37.3 C 77.9 36.8 77.8 36.3 77.6 35.8 C 76.8 33.2 75.7 30.9 74.4 29.0 C 73.9 28.2 73.3 27.4 72.7 26.7 C 71.9 25.7 70.9 24.8 70.0 23.9 C 69.2 23.3 68.4 22.8 67.6 22.3 C 67.6 22.3 67.6 22.3 67.6 22.3 C 67.5 22.3 67.4 22.3 67.3 22.3 C 67.1 22.3 66.9 22.3 66.7 22.3 C 66.7 22.3 66.6 22.3 66.6 22.3 C 66.3 22.3 66.1 22.3 65.8 22.3 C 65.8 22.3 65.7 22.3 65.7 22.3 C 65.5 22.3 65.2 22.3 65.0 22.3 C 65.0 22.3 64.9 22.3 64.8 22.4 C 64.6 22.4 64.4 22.4 64.1 22.4 C 64.1 22.4 64.0 22.4 64.0 22.4 C 63.7 22.5 63.5 22.5 63.2 22.6 C 63.1 22.6 63.1 22.6 63.0 22.6 C 62.8 22.6 62.6 22.7 62.4 22.7 C 62.3 22.8 62.2 22.8 62.1 22.8 C 61.9 22.8 61.6 22.9 61.3 23.0 C 61.3 23.0 61.3 23.0 61.3 23.0 C 61.0 23.1 60.8 23.1 60.5 23.2 C 60.4 23.2 60.3 23.3 60.3 23.3 C 60.1 23.4 59.9 23.4 59.6 23.5 C 59.6 23.5 59.5 23.6 59.4 23.6 C 59.2 23.7 58.9 23.8 58.6 23.9 C 58.6 23.9 58.5 23.9 58.5 23.9 C 58.3 24.0 58.0 24.1 57.8 24.2 C 57.7 24.3 57.6 24.3 57.5 24.4 C 57.3 24.5 57.1 24.6 56.9 24.7 C 56.8 24.7 56.8 24.7 56.7 24.7 C 56.4 24.9 56.2 25.0 55.9 25.2 C 55.8 25.2 55.8 25.2 55.7 25.3 C 55.5 25.4 55.3 25.5 55.1 25.6 C 55.0 25.7 54.9 25.7 54.8 25.8 C 54.6 25.9 54.4 26.1 54.1 26.2 C 54.1 26.2 54.1 26.3 54.0 26.3 C 53.7 26.5 53.5 26.6 53.2 26.8 C 53.1 26.9 53.1 26.9 53.0 27.0 C 52.8 27.1 52.6 27.3 52.4 27.4 C 52.3 27.5 52.2 27.5 52.1 27.6 C 51.9 27.8 51.6 28.0 51.3 28.2 C 51.0 28.5 50.6 28.8 50.3 29.0 C 50.2 29.1 50.1 29.2 50.0 29.3 C 49.7 29.5 49.5 29.7 49.3 29.9 C 49.2 30.1 49.0 30.2 48.9 30.3 C 48.7 30.5 48.5 30.7 48.3 30.9 C 48.2 31.0 48.1 31.2 47.9 31.3 C 47.7 31.5 47.6 31.7 47.4 31.8 C 47.2 32.0 47.1 32.1 47.0 32.3 C 46.8 32.5 46.6 32.7 46.5 32.9 C 46.3 33.0 46.2 33.2 46.1 33.3 C 45.9 33.5 45.7 33.7 45.6 33.9 C 45.4 34.1 45.3 34.2 45.2 34.4 C 45.0 34.6 44.9 34.8 44.7 35.0 C 44.6 35.2 44.4 35.3 44.3 35.5 C 44.2 35.7 44.0 35.9 43.9 36.1 C 43.8 36.3 43.6 36.5 43.5 36.6 C 43.4 36.8 43.2 37.0 43.1 37.2 C 43.0 37.4 42.8 37.6 42.7 37.8 C 42.6 38.0 42.4 38.2 42.3 38.4 C 42.2 38.6 42.1 38.8 42.0 39.0 C 41.8 39.2 41.7 39.4 41.6 39.6 C 41.5 39.8 41.4 40.0 41.2 40.2 C 41.1 40.4 41.0 40.6 40.9 40.8 C 40.8 41.0 40.7 41.2 40.6 41.4 C 40.4 41.6 40.3 41.9 40.2 42.1 C 40.1 42.3 40.0 42.5 39.9 42.7 C 39.8 42.9 39.7 43.1 39.6 43.4 C 39.5 43.6 39.4 43.8 39.3 44.0 C 39.2 44.2 39.1 44.4 39.0 44.7 C 38.9 44.9 38.8 45.1 38.7 45.3 C 38.5 45.6 38.4 46.0 38.2 46.4 C 38.2 46.5 38.2 46.6 38.1 46.6 C 38.0 47.0 37.9 47.3 37.7 47.7 C 37.7 47.8 37.6 47.9 37.6 48.0 C 37.5 48.4 37.4 48.7 37.3 49.0 C 37.2 49.1 37.2 49.2 37.2 49.3 C 37.0 49.7 36.9 50.1 36.8 50.5 C 36.7 50.6 36.7 50.7 36.7 50.8 C 36.6 51.2 36.5 51.5 36.4 51.8 C 36.3 51.9 36.3 52.1 36.3 52.2 C 36.2 52.6 36.1 52.9 36.0 53.3 C 36.0 53.4 36.0 53.4 35.9 53.5 C 35.8 53.9 35.7 54.3 35.6 54.7 C 35.6 54.9 35.6 55.0 35.6 55.1 C 35.5 55.4 35.4 55.7 35.4 56.1 C 35.3 56.2 35.3 56.3 35.3 56.4 C 35.2 56.8 35.1 57.3 35.1 57.7 C 35.1 57.8 35.1 57.8 35.1 57.8 C 35.0 58.2 34.9 58.6 34.9 59.0 C 34.9 59.1 34.8 59.3 34.8 59.4 C 34.8 59.7 34.7 60.1 34.7 60.4 C 34.7 60.5 34.7 60.6 34.7 60.7 C 34.6 61.1 34.6 61.5 34.6 62.0 C 34.6 62.1 34.6 62.2 34.6 62.3 C 34.5 62.6 34.5 62.9 34.5 63.3 C 34.5 63.4 34.5 63.5 34.5 63.7 C 34.5 64.0 34.5 64.4 34.4 64.8 C 34.4 64.8 34.4 64.9 34.4 65.0 C 34.4 65.4 34.4 65.8 34.4 66.2 C 34.5 66.3 34.5 66.5 34.5 66.6 C 34.5 66.9 34.5 67.2 34.5 67.5 C 34.5 67.7 34.5 67.8 34.5 67.9 C 34.5 68.3 34.6 68.7 34.6 69.2 C 34.6 69.2 34.6 69.2 34.6 69.2 C 34.6 69.6 34.7 70.0 34.7 70.4 C 34.7 70.5 34.8 70.7 34.8 70.8 C 34.8 71.1 34.8 71.4 34.9 71.7 C 34.9 71.8 34.9 71.9 34.9 72.0 C 35.0 72.5 35.1 73.0 35.2 73.4 C 35.2 73.5 35.2 73.6 35.2 73.7 C 35.3 74.1 35.4 74.5 35.5 74.9 C 35.5 75.0 35.5 75.0 35.5 75.1 C 35.6 75.5 35.8 76.0 35.9 76.4 C 35.9 76.5 35.9 76.6 36.0 76.7 C 36.1 77.2 36.2 77.6 36.4 78.0 C 37.6 81.6 39.2 84.6 41.2 87.0 C 41.2 87.0 41.2 87.1 41.3 87.1 C 41.7 87.6 42.2 88.1 42.7 88.6 C 42.8 88.7 42.9 88.9 43.1 89.0 C 43.2 89.1 43.3 89.2 43.4 89.3 C 43.6 89.5 43.8 89.7 44.0 89.9 C 44.2 90.0 44.4 90.1 44.5 90.3 C 44.7 90.4 44.9 90.5 45.1 90.7 C 45.3 90.8 45.5 90.9 45.7 91.1 C 45.8 91.2 46.0 91.3 46.1 91.4 C 46.2 91.4 46.3 91.5 46.4 91.5 C 51.6 91.8 57.3 89.9 62.7 85.6 M 60.6 71.0 L 54.1 69.0 C 54.0 69.0 53.8 68.9 53.6 68.8 C 53.6 68.8 53.6 68.9 53.6 68.9 C 53.6 69.2 53.6 69.4 53.6 69.7 C 53.6 69.7 53.6 69.7 53.6 69.7 C 53.6 70.0 53.7 70.3 53.7 70.5 C 53.7 70.6 53.7 70.6 53.7 70.6 C 53.7 70.9 53.7 71.1 53.8 71.4 C 53.8 71.4 53.8 71.5 53.8 71.5 C 53.8 71.6 53.8 71.7 53.8 71.8 C 53.9 71.9 53.9 72.0 53.9 72.1 C 53.9 72.2 53.9 72.3 54.0 72.4 C 54.0 72.4 54.0 72.5 54.0 72.6 C 54.0 72.7 54.1 72.8 54.1 72.9 C 54.1 73.0 54.1 73.1 54.1 73.1 C 54.2 73.3 54.2 73.5 54.3 73.6 C 54.4 74.1 54.6 74.5 54.8 74.8 C 54.8 74.9 54.9 75.0 54.9 75.1 C 55.7 74.7 56.5 74.3 57.3 73.7 L 61.2 74.9 L 60.0 71.6 C 60.2 71.4 60.4 71.2 60.6 71.0 M 56.4 41.9 L 56.4 41.9 L 56.4 41.9 L 52.6 40.7 L 53.9 44.1 C 53.8 44.2 53.7 44.3 53.5 44.4 L 59.6 46.3 C 59.6 46.3 59.7 46.3 59.7 46.3 C 59.7 46.3 59.8 46.3 59.8 46.4 C 59.9 46.4 59.9 46.4 59.9 46.4 C 59.9 46.3 59.9 46.1 59.9 46.0 C 59.9 46.0 59.9 46.0 59.9 45.9 C 59.9 45.7 59.9 45.4 59.9 45.1 C 59.9 45.1 59.9 45.1 59.9 45.1 C 59.9 44.8 59.9 44.6 59.9 44.3 C 59.9 44.2 59.9 44.2 59.8 44.2 C 59.8 43.9 59.8 43.6 59.8 43.4 C 59.7 43.3 59.7 43.3 59.7 43.2 C 59.7 43.1 59.7 43.0 59.7 42.9 C 59.7 42.8 59.6 42.7 59.6 42.6 C 59.6 42.5 59.6 42.4 59.5 42.3 C 59.5 42.2 59.5 42.2 59.5 42.1 C 59.5 42.0 59.4 41.8 59.4 41.7 C 59.4 41.6 59.4 41.6 59.3 41.5 C 59.3 41.3 59.2 41.1 59.2 41.0 C 59.1 40.7 59.0 40.5 58.9 40.3 C 58.8 40.4 58.7 40.4 58.5 40.5 C 58.5 40.5 58.5 40.5 58.4 40.6 C 58.1 40.7 57.8 40.9 57.5 41.1 C 57.5 41.1 57.4 41.2 57.4 41.2 C 57.1 41.4 56.8 41.6 56.4 41.9 M 36.3 87.9 C 36.0 87.7 35.6 87.5 35.3 87.2 C 35.2 87.1 35.1 86.9 34.9 86.8 C 34.7 86.7 34.6 86.5 34.4 86.3 C 34.3 86.3 34.2 86.2 34.1 86.1 C 31.4 83.4 29.2 79.8 27.7 75.4 C 27.5 74.9 27.4 74.5 27.3 74.0 C 27.2 73.9 27.2 73.8 27.2 73.7 C 27.1 73.3 26.9 72.9 26.8 72.4 C 26.8 72.4 26.8 72.3 26.8 72.3 C 26.7 71.8 26.6 71.4 26.5 71.0 C 26.5 70.9 26.5 70.8 26.5 70.7 C 26.4 70.3 26.3 69.8 26.2 69.4 C 26.2 69.3 26.2 69.3 26.2 69.3 C 26.2 69.2 26.2 69.1 26.2 69.1 C 26.1 68.8 26.1 68.4 26.1 68.1 C 26.0 68.0 26.0 67.9 26.0 67.7 C 26.0 67.4 25.9 67.0 25.9 66.6 C 25.9 66.5 25.9 66.5 25.9 66.5 C 25.9 66.1 25.8 65.7 25.8 65.2 C 25.8 65.1 25.8 65.0 25.8 64.9 C 25.8 64.6 25.8 64.2 25.8 63.9 C 25.7 63.8 25.7 63.7 25.7 63.6 C 25.7 63.1 25.7 62.7 25.7 62.3 C 25.7 62.2 25.7 62.2 25.7 62.1 C 25.7 61.7 25.8 61.4 25.8 61.0 C 25.8 60.9 25.8 60.7 25.8 60.6 C 25.8 60.3 25.8 59.9 25.8 59.6 C 25.9 59.5 25.9 59.4 25.9 59.3 C 25.9 58.9 25.9 58.4 26.0 58.0 C 26.0 57.9 26.0 57.8 26.0 57.7 C 26.0 57.4 26.1 57.0 26.1 56.7 C 26.1 56.6 26.2 56.5 26.2 56.3 C 26.2 55.9 26.3 55.6 26.3 55.2 C 26.4 55.1 26.4 55.1 26.4 55.0 C 26.4 54.6 26.5 54.2 26.6 53.7 C 26.6 53.6 26.6 53.5 26.7 53.4 C 26.7 53.1 26.8 52.7 26.9 52.4 C 26.9 52.3 26.9 52.2 26.9 52.1 C 27.0 51.6 27.1 51.2 27.2 50.8 C 27.2 50.7 27.3 50.7 27.3 50.6 C 27.4 50.3 27.5 49.9 27.6 49.5 C 27.6 49.4 27.6 49.3 27.7 49.1 C 27.8 48.8 27.9 48.5 28.0 48.2 C 28.0 48.1 28.0 48.0 28.1 47.9 C 28.2 47.4 28.3 47.0 28.5 46.6 C 28.5 46.5 28.5 46.4 28.5 46.3 C 28.7 46.0 28.8 45.7 28.9 45.4 C 28.9 45.2 29.0 45.1 29.0 45.0 C 29.2 44.6 29.3 44.3 29.4 43.9 C 29.5 43.9 29.5 43.8 29.5 43.8 C 29.6 43.4 29.8 43.1 29.9 42.7 C 30.0 42.7 30.0 42.6 30.0 42.6 C 30.1 42.4 30.2 42.2 30.3 42.0 C 30.4 41.8 30.5 41.5 30.6 41.3 C 30.7 41.1 30.8 40.9 30.9 40.7 C 31.0 40.5 31.1 40.2 31.2 40.0 C 31.3 39.8 31.4 39.6 31.5 39.4 C 31.6 39.2 31.7 39.0 31.9 38.7 C 32.0 38.6 32.1 38.4 32.2 38.2 C 32.3 38.0 32.4 37.7 32.5 37.5 C 32.7 37.3 32.8 37.1 32.9 36.9 C 33.0 36.7 33.1 36.5 33.3 36.3 C 33.4 36.1 33.5 35.9 33.6 35.7 C 33.7 35.5 33.9 35.3 34.0 35.1 C 34.1 34.9 34.2 34.8 34.4 34.6 C 34.5 34.4 34.7 34.2 34.8 34.0 C 34.9 33.8 35.0 33.6 35.2 33.4 C 35.3 33.2 35.5 33.0 35.6 32.8 C 35.7 32.7 35.9 32.5 36.0 32.3 C 36.2 32.1 36.3 31.9 36.5 31.7 C 36.6 31.6 36.7 31.4 36.9 31.2 C 37.0 31.0 37.2 30.8 37.3 30.7 C 37.5 30.5 37.6 30.3 37.7 30.2 C 37.9 30.0 38.1 29.8 38.3 29.6 C 38.4 29.5 38.5 29.3 38.7 29.2 C 38.8 29.0 39.0 28.8 39.2 28.6 C 39.3 28.5 39.5 28.3 39.6 28.2 C 39.8 28.0 40.0 27.8 40.2 27.6 C 40.3 27.5 40.4 27.4 40.6 27.3 C 40.6 27.3 40.6 27.3 40.6 27.3 C 40.8 27.1 41.0 26.9 41.3 26.7 C 41.4 26.6 41.5 26.5 41.6 26.4 C 41.9 26.1 42.3 25.8 42.6 25.5 C 42.9 25.3 43.2 25.1 43.4 24.9 C 43.5 24.8 43.6 24.8 43.7 24.7 C 43.9 24.6 44.1 24.4 44.3 24.3 C 44.4 24.2 44.4 24.2 44.5 24.1 C 44.8 24.0 45.0 23.8 45.3 23.6 C 45.4 23.6 45.4 23.6 45.4 23.5 C 45.7 23.4 45.9 23.2 46.1 23.1 C 46.2 23.1 46.3 23.0 46.4 23.0 C 46.6 22.8 46.8 22.7 47.0 22.6 C 47.1 22.6 47.1 22.5 47.2 22.5 C 47.5 22.4 47.7 22.2 48.0 22.1 C 48.1 22.0 48.1 22.0 48.2 22.0 C 48.4 21.9 48.6 21.8 48.8 21.7 C 48.9 21.6 49.0 21.6 49.1 21.6 C 49.3 21.5 49.6 21.4 49.8 21.3 C 49.8 21.3 49.9 21.2 49.9 21.2 C 50.2 21.1 50.4 21.0 50.7 20.9 C 50.8 20.9 50.9 20.9 50.9 20.8 C 51.1 20.8 51.4 20.7 51.6 20.6 C 51.6 20.6 51.7 20.6 51.8 20.6 C 52.1 20.5 52.3 20.4 52.6 20.3 C 52.6 20.3 52.6 20.3 52.6 20.3 C 52.9 20.2 53.2 20.2 53.4 20.1 C 53.5 20.1 53.6 20.1 53.7 20.1 C 53.9 20.0 54.1 20.0 54.3 19.9 C 54.3 19.9 54.4 19.9 54.5 19.9 C 54.8 19.9 55.0 19.8 55.3 19.8 C 55.3 19.8 55.4 19.8 55.4 19.8 C 55.6 19.7 55.9 19.7 56.1 19.7 C 56.2 19.7 56.3 19.7 56.3 19.7 C 56.5 19.6 56.8 19.6 57.0 19.6 C 57.0 19.6 57.1 19.6 57.1 19.6 C 57.1 19.6 57.1 19.6 57.1 19.6 C 57.4 19.6 57.6 19.6 57.9 19.6 C 57.9 19.6 58.0 19.6 58.0 19.6 C 58.2 19.6 58.4 19.6 58.6 19.6 C 58.7 19.6 58.8 19.6 58.9 19.6 C 59.0 19.6 59.2 19.6 59.4 19.6 C 59.5 19.6 59.5 19.7 59.6 19.7 C 59.8 19.7 60.0 19.7 60.2 19.7 C 60.3 19.7 60.3 19.7 60.4 19.7 C 60.6 19.8 60.8 19.8 61.1 19.8 C 61.1 19.8 61.2 19.9 61.3 19.9 C 61.4 19.9 61.6 19.9 61.8 20.0 C 61.9 20.0 62.0 20.0 62.0 20.0 C 62.2 20.1 62.4 20.1 62.5 20.1 C 62.6 20.2 62.7 20.2 62.8 20.2 C 63.0 20.3 63.2 20.3 63.4 20.4 L 63.4 20.4 L 63.4 20.4 L 68.2 21.9 L 72.2 23.1 L 72.2 23.1 L 72.2 23.1 L 72.2 23.1 L 72.2 23.1 C 74.4 23.7 76.4 24.9 78.3 26.3 C 75.0 20.7 70.3 16.9 65.0 15.3 L 73.7 18.0 C 80.9 20.1 86.8 26.2 90.0 35.6 C 90.1 36.1 90.3 36.6 90.5 37.2 C 90.5 37.2 90.5 37.3 90.5 37.3 C 90.6 37.8 90.8 38.3 90.9 38.9 C 90.9 38.9 90.9 39.0 91.0 39.1 C 91.1 39.6 91.2 40.1 91.3 40.6 C 91.3 40.7 91.3 40.8 91.3 40.8 C 91.4 41.4 91.5 41.9 91.6 42.4 C 91.6 42.4 91.6 42.5 91.6 42.5 C 91.6 42.6 91.6 42.6 91.6 42.7 C 91.7 43.1 91.8 43.6 91.8 44.1 C 91.8 44.1 91.9 44.2 91.9 44.3 C 91.9 44.7 92.0 45.2 92.0 45.6 C 92.0 45.7 92.0 45.7 92.0 45.8 C 92.0 46.2 92.1 46.7 92.1 47.2 C 92.1 47.3 92.1 47.4 92.1 47.5 C 92.1 48.0 92.2 48.4 92.2 48.9 C 92.2 49.0 92.2 49.0 92.2 49.1 C 92.2 49.6 92.2 50.0 92.2 50.5 C 92.2 50.5 92.2 50.6 92.2 50.7 C 92.2 51.1 92.2 51.6 92.1 52.1 C 92.1 52.2 92.1 52.3 92.1 52.4 C 92.1 52.9 92.1 53.3 92.0 53.8 C 92.0 53.9 92.0 54.0 92.0 54.0 C 92.0 54.5 92.0 54.9 91.9 55.4 C 91.9 55.5 91.9 55.5 91.9 55.6 C 91.8 56.1 91.8 56.6 91.7 57.0 C 91.7 57.1 91.7 57.2 91.7 57.3 C 91.6 57.8 91.6 58.3 91.5 58.8 C 91.5 58.8 91.5 58.9 91.4 59.0 C 91.4 59.4 91.3 59.9 91.2 60.3 C 91.2 60.4 91.2 60.5 91.2 60.5 C 91.1 61.0 91.0 61.5 90.9 62.0 C 90.9 62.1 90.8 62.2 90.8 62.3 C 90.7 62.8 90.6 63.2 90.5 63.7 L 90.4 63.9 C 90.3 64.3 90.2 64.8 90.1 65.2 C 90.1 65.3 90.0 65.4 90.0 65.4 C 89.9 65.9 89.7 66.4 89.6 66.8 C 89.6 66.9 89.5 67.0 89.5 67.1 C 89.4 67.6 89.2 68.1 89.1 68.5 C 89.0 68.6 89.0 68.6 89.0 68.7 C 88.9 69.1 88.7 69.6 88.5 70.0 C 88.5 70.1 88.5 70.2 88.5 70.2 C 88.3 70.7 88.1 71.1 87.9 71.6 C 87.9 71.7 87.9 71.8 87.8 71.9 C 87.6 72.3 87.4 72.8 87.2 73.2 C 87.2 73.3 87.2 73.3 87.2 73.4 C 87.0 73.8 86.8 74.2 86.6 74.6 C 86.6 74.7 86.5 74.8 86.5 74.9 C 86.3 75.3 86.1 75.7 85.9 76.2 C 85.8 76.3 85.8 76.4 85.7 76.4 C 85.5 76.9 85.3 77.3 85.1 77.7 C 85.0 77.8 85.0 77.8 85.0 77.8 C 84.8 78.3 84.5 78.7 84.3 79.1 C 84.3 79.1 84.2 79.2 84.2 79.3 C 83.9 79.7 83.7 80.1 83.4 80.5 C 83.4 80.6 83.3 80.7 83.3 80.8 C 83.0 81.2 82.8 81.6 82.5 82.0 C 82.5 82.0 82.5 82.0 82.4 82.1 C 82.2 82.5 81.9 82.8 81.7 83.2 C 81.6 83.3 81.6 83.4 81.5 83.4 C 81.2 83.8 81.0 84.2 80.7 84.6 C 80.6 84.6 80.6 84.7 80.5 84.8 C 80.2 85.2 79.9 85.6 79.6 85.9 C 79.6 85.9 79.6 86.0 79.6 86.0 C 79.3 86.3 79.0 86.7 78.7 87.1 C 78.6 87.1 78.5 87.2 78.5 87.2 C 78.2 87.6 77.9 87.9 77.6 88.3 C 77.5 88.3 77.4 88.4 77.4 88.5 C 77.0 88.8 76.7 89.2 76.4 89.5 C 76.4 89.5 76.3 89.5 76.3 89.5 C 76.0 89.9 75.7 90.2 75.3 90.5 C 75.3 90.5 75.3 90.6 75.2 90.6 C 75.2 90.6 75.2 90.7 75.1 90.7 C 74.8 91.0 74.5 91.3 74.1 91.6 C 74.1 91.6 74.0 91.7 73.9 91.8 C 73.6 92.1 73.2 92.4 72.8 92.7 C 71.1 94.0 69.3 95.2 67.5 96.2 C 67.0 96.4 66.5 96.7 66.0 96.9 C 64.0 97.9 61.9 98.6 59.9 99.0 C 58.9 99.2 57.9 99.3 56.9 99.4 C 56.4 99.4 55.9 99.5 55.4 99.5 C 54.4 99.5 53.5 99.4 52.5 99.3 C 52.3 99.3 52.0 99.2 51.8 99.2 C 50.8 99.0 49.9 98.8 49.0 98.5 L 40.3 95.9 C 45.6 97.5 51.6 97.0 57.5 94.2 C 57.5 94.2 57.5 94.2 57.5 94.2 C 56.8 94.2 56.2 94.2 55.5 94.2 C 55.1 94.2 54.7 94.2 54.2 94.1 C 53.8 94.1 53.4 94.1 53.0 94.0 C 52.8 94.0 52.6 93.9 52.4 93.9 C 51.8 93.8 51.1 93.6 50.6 93.4 L 46.7 92.2 L 41.8 90.7 C 41.6 90.7 41.4 90.6 41.1 90.5 C 41.0 90.4 40.8 90.4 40.7 90.3 C 40.4 90.2 40.0 90.1 39.7 89.9 C 39.7 89.9 39.6 89.9 39.6 89.9 C 39.3 89.8 39.1 89.7 38.9 89.6 C 38.8 89.5 38.6 89.4 38.5 89.3 C 38.3 89.3 38.2 89.2 38.1 89.1 C 37.9 89.0 37.6 88.8 37.4 88.7 C 37.3 88.6 37.2 88.6 37.1 88.5 C 36.9 88.3 36.6 88.2 36.3 88.0 C 36.3 88.0 36.3 87.9 36.3 87.9 " fill="#F38907"></path><path d="M 72.2 23.1 L 72.2 23.1 L 72.2 23.1 Z M 72.2 23.1 " fill="#DC7601"></path><path d="M 59.5 42.3 C 59.5 42.2 59.5 42.2 59.5 42.1 C 59.5 42.0 59.4 41.8 59.4 41.7 C 59.4 41.6 59.4 41.6 59.3 41.5 C 59.3 41.3 59.2 41.1 59.2 41.0 C 59.1 40.7 59.0 40.5 58.9 40.3 C 58.8 40.4 58.7 40.4 58.5 40.5 C 58.5 40.5 58.5 40.5 58.4 40.6 C 58.1 40.7 57.8 40.9 57.5 41.1 C 57.5 41.1 57.4 41.2 57.4 41.2 C 57.1 41.4 56.8 41.6 56.4 41.9 L 56.4 41.9 L 52.6 40.7 L 53.9 44.1 C 53.8 44.2 53.7 44.3 53.5 44.4 L 59.6 46.3 C 59.6 46.3 59.7 46.3 59.7 46.3 C 59.7 46.3 59.8 46.3 59.8 46.4 C 59.9 46.4 59.9 46.4 59.9 46.4 C 59.9 46.3 59.9 46.1 59.9 46.0 C 59.9 46.0 59.9 46.0 59.9 45.9 C 59.9 45.7 59.9 45.4 59.9 45.1 C 59.9 45.1 59.9 45.1 59.9 45.1 C 59.9 44.8 59.9 44.6 59.9 44.3 C 59.9 44.2 59.8 44.2 59.8 44.2 C 59.8 43.9 59.8 43.6 59.8 43.4 C 59.7 43.3 59.7 43.3 59.7 43.2 C 59.7 43.1 59.7 43.0 59.7 42.9 C 59.7 42.8 59.6 42.7 59.6 42.6 C 59.6 42.5 59.6 42.4 59.5 42.3 M 53.6 68.8 C 53.6 68.8 53.6 68.9 53.6 68.9 C 53.6 69.2 53.6 69.4 53.6 69.7 C 53.6 69.7 53.6 69.7 53.6 69.7 C 53.6 70.0 53.7 70.3 53.7 70.5 C 53.7 70.6 53.7 70.6 53.7 70.6 C 53.7 70.9 53.7 71.1 53.8 71.4 C 53.8 71.4 53.8 71.5 53.8 71.5 C 53.8 71.6 53.8 71.7 53.8 71.8 C 53.9 71.9 53.9 72.0 53.9 72.1 C 53.9 72.2 53.9 72.3 54.0 72.4 C 54.0 72.4 54.0 72.5 54.0 72.6 C 54.0 72.7 54.1 72.8 54.1 72.9 C 54.1 73.0 54.1 73.0 54.1 73.1 C 54.2 73.3 54.2 73.5 54.3 73.6 C 54.4 74.1 54.6 74.5 54.8 74.8 C 54.8 74.9 54.9 75.0 54.9 75.1 C 55.7 74.7 56.5 74.3 57.3 73.7 L 61.2 74.9 L 60.0 71.6 C 60.2 71.4 60.4 71.2 60.6 71.0 L 54.1 69.0 C 54.0 69.0 53.8 68.9 53.6 68.8 M 57.0 94.4 C 57.2 94.3 57.3 94.2 57.5 94.2 C 57.5 94.2 57.5 94.2 57.5 94.2 C 56.8 94.2 56.2 94.2 55.5 94.2 C 55.1 94.2 54.7 94.2 54.2 94.1 C 53.8 94.1 53.4 94.1 53.0 94.0 C 52.8 94.0 52.6 93.9 52.4 93.9 C 51.8 93.8 51.1 93.6 50.6 93.4 L 46.7 92.2 L 41.8 90.7 C 41.6 90.7 41.4 90.6 41.1 90.5 C 41.0 90.4 40.8 90.4 40.7 90.3 C 40.4 90.2 40.0 90.1 39.7 89.9 C 39.7 89.9 39.6 89.9 39.6 89.9 C 39.3 89.8 39.1 89.7 38.9 89.6 C 38.8 89.5 38.6 89.4 38.5 89.3 C 38.3 89.3 38.2 89.2 38.1 89.1 C 37.9 89.0 37.6 88.8 37.4 88.7 C 37.3 88.6 37.2 88.6 37.1 88.5 C 36.9 88.3 36.6 88.2 36.3 88.0 C 36.3 88.0 36.3 87.9 36.3 87.9 C 36.0 87.7 35.6 87.5 35.3 87.2 C 35.2 87.1 35.1 86.9 34.9 86.8 C 34.7 86.7 34.6 86.5 34.4 86.3 C 34.3 86.3 34.2 86.2 34.1 86.1 C 31.4 83.4 29.2 79.8 27.7 75.4 C 27.7 75.3 27.7 75.3 27.7 75.3 L 34.5 64.0 C 34.5 64.2 34.5 64.5 34.4 64.8 C 34.4 64.8 34.4 64.9 34.4 65.0 C 34.4 65.4 34.4 65.8 34.4 66.2 C 34.5 66.3 34.5 66.5 34.5 66.6 C 34.5 66.9 34.5 67.2 34.5 67.5 C 34.5 67.7 34.5 67.8 34.5 67.9 C 34.5 68.3 34.6 68.7 34.6 69.2 C 34.6 69.2 34.6 69.2 34.6 69.2 C 34.6 69.6 34.7 70.0 34.7 70.4 C 34.7 70.5 34.8 70.7 34.8 70.8 C 34.8 71.1 34.8 71.4 34.9 71.7 C 34.9 71.8 34.9 71.9 34.9 72.0 C 35.0 72.5 35.1 73.0 35.2 73.4 C 35.2 73.5 35.2 73.6 35.2 73.7 C 35.3 74.1 35.4 74.5 35.5 74.9 C 35.5 75.0 35.5 75.0 35.5 75.1 C 35.6 75.5 35.8 76.0 35.9 76.4 C 35.9 76.5 35.9 76.6 36.0 76.7 C 36.1 77.2 36.2 77.6 36.4 78.0 C 37.6 81.6 39.2 84.6 41.2 87.0 C 41.2 87.0 41.2 87.0 41.3 87.1 C 41.7 87.6 42.2 88.1 42.7 88.6 C 42.8 88.7 42.9 88.9 43.1 89.0 C 43.2 89.1 43.3 89.2 43.4 89.3 C 43.6 89.5 43.8 89.7 44.0 89.9 C 44.2 90.0 44.4 90.1 44.5 90.3 C 44.7 90.4 44.9 90.5 45.1 90.7 C 45.3 90.8 45.5 90.9 45.7 91.1 C 45.8 91.2 46.0 91.3 46.1 91.4 C 46.2 91.4 46.3 91.5 46.4 91.5 C 51.6 91.8 57.3 89.9 62.7 85.6 C 63.1 85.3 63.5 85.0 63.8 84.6 C 64.0 84.5 64.1 84.4 64.2 84.3 C 64.5 84.1 64.7 83.8 65.0 83.6 C 65.1 83.5 65.3 83.3 65.4 83.2 C 65.6 83.0 65.9 82.7 66.1 82.5 C 66.2 82.4 66.4 82.2 66.5 82.1 C 66.8 81.8 67.0 81.6 67.2 81.3 C 67.4 81.2 67.5 81.1 67.6 80.9 C 67.9 80.5 68.3 80.1 68.6 79.7 C 68.6 79.7 68.6 79.7 68.7 79.6 C 69.0 79.2 69.3 78.9 69.6 78.5 C 69.7 78.4 69.8 78.2 69.9 78.1 C 69.9 78.0 69.9 78.0 69.9 78.0 L 67.4 80.1 L 61.7 78.4 C 60.5 78.6 59.4 78.6 58.4 78.3 L 49.7 75.6 C 49.7 75.6 49.7 75.6 49.7 75.6 L 49.7 75.6 L 49.7 75.6 C 49.7 75.6 49.6 75.6 49.5 75.5 C 49.5 75.5 49.4 75.5 49.4 75.5 C 49.4 75.5 49.3 75.5 49.3 75.5 C 49.2 75.4 49.1 75.4 48.9 75.3 C 48.6 75.1 48.3 74.9 48.0 74.7 C 47.8 74.5 47.5 74.3 47.3 74.1 C 47.3 74.0 47.2 73.9 47.2 73.9 C 47.1 73.8 47.1 73.8 47.1 73.8 C 47.1 73.8 47.0 73.7 47.0 73.7 C 46.8 73.4 46.6 73.1 46.4 72.7 C 46.3 72.5 46.2 72.3 46.1 72.1 C 45.9 71.8 45.7 71.4 45.6 71.0 C 45.5 70.8 45.5 70.6 45.4 70.4 C 45.4 70.4 45.4 70.3 45.4 70.3 C 45.4 70.1 45.3 70.0 45.3 69.9 C 45.3 69.8 45.3 69.8 45.3 69.7 C 45.2 69.6 45.2 69.5 45.2 69.4 C 45.2 69.3 45.2 69.2 45.1 69.2 C 45.1 69.1 45.1 69.0 45.1 68.9 C 45.1 68.8 45.1 68.8 45.1 68.8 C 45.1 68.8 45.1 68.7 45.1 68.7 C 45.0 68.5 45.0 68.2 45.0 67.9 L 45.0 67.9 C 44.9 67.6 44.9 67.3 44.9 67.1 C 44.9 67.1 44.9 67.0 44.9 67.0 C 44.9 66.7 44.9 66.5 44.9 66.2 C 44.9 66.2 44.9 66.1 44.9 66.1 C 45.0 65.8 45.0 65.6 45.0 65.4 C 45.0 65.3 45.0 65.3 45.0 65.2 C 45.0 65.0 45.1 64.7 45.1 64.5 C 45.1 64.4 45.1 64.4 45.1 64.4 C 45.2 64.1 45.2 63.9 45.3 63.6 C 45.3 63.6 45.3 63.6 45.3 63.6 C 45.3 63.4 45.4 63.3 45.4 63.2 C 45.4 63.2 45.4 63.2 45.4 63.2 C 45.4 63.2 45.4 63.2 45.4 63.2 C 45.4 63.1 45.4 63.0 45.5 62.9 C 45.5 62.8 45.5 62.7 45.5 62.6 C 45.6 62.5 45.6 62.3 45.7 62.1 C 45.7 62.0 45.7 62.0 45.8 61.9 C 45.8 61.7 45.9 61.5 46.0 61.2 C 46.0 61.2 46.0 61.2 46.0 61.1 C 46.1 60.9 46.2 60.6 46.3 60.4 C 46.3 60.3 46.4 60.2 46.4 60.2 C 46.5 60.0 46.5 59.8 46.6 59.6 C 46.6 59.6 46.7 59.5 46.7 59.4 C 46.8 59.2 46.9 59.1 46.9 58.9 C 47.0 58.8 47.0 58.7 47.1 58.6 C 47.1 58.5 47.2 58.3 47.3 58.2 C 47.3 58.1 47.4 58.0 47.4 57.9 C 47.5 57.7 47.6 57.6 47.7 57.4 C 47.7 57.3 47.7 57.3 47.8 57.2 C 47.9 57.0 48.0 56.8 48.1 56.5 C 48.1 56.5 48.2 56.5 48.2 56.5 L 42.4 54.7 L 41.4 52.4 L 51.1 36.4 L 52.4 36.8 C 52.6 36.8 52.7 36.7 52.8 36.7 C 52.8 36.7 52.8 36.7 52.9 36.7 C 53.1 36.6 53.4 36.6 53.7 36.6 C 53.7 36.6 53.8 36.6 53.8 36.6 C 53.9 36.6 54.0 36.6 54.1 36.6 C 54.2 36.6 54.2 36.6 54.2 36.6 C 54.3 36.6 54.4 36.6 54.6 36.6 C 54.6 36.6 54.6 36.6 54.7 36.6 C 54.8 36.6 54.9 36.7 55.1 36.7 C 55.1 36.7 55.1 36.7 55.1 36.7 C 55.2 36.7 55.3 36.7 55.4 36.8 C 55.5 36.8 55.5 36.8 55.5 36.8 L 55.5 36.8 L 61.9 38.7 L 64.2 39.5 L 64.2 39.5 C 65.8 40.0 67.1 41.3 67.9 43.6 C 67.9 43.8 68.0 44.0 68.1 44.2 C 68.1 44.3 68.1 44.3 68.1 44.4 C 68.1 44.5 68.2 44.6 68.2 44.8 C 68.2 44.8 68.2 44.9 68.3 45.0 C 68.3 45.1 68.3 45.2 68.3 45.3 C 68.3 45.4 68.4 45.5 68.4 45.5 C 68.4 45.6 68.4 45.8 68.4 45.9 C 68.4 45.9 68.4 45.9 68.4 46.0 C 68.5 46.0 68.5 46.0 68.5 46.0 C 68.5 46.3 68.5 46.6 68.6 46.8 C 68.6 46.9 68.6 46.9 68.6 47.0 C 68.6 47.2 68.6 47.5 68.6 47.8 C 68.6 47.8 68.6 47.8 68.6 47.8 C 68.6 48.1 68.6 48.3 68.6 48.6 C 68.6 48.6 68.6 48.7 68.6 48.7 C 68.6 49.0 68.6 49.2 68.5 49.5 C 68.5 49.5 68.5 49.6 68.5 49.6 C 68.5 49.9 68.5 50.1 68.4 50.4 C 68.4 50.4 68.4 50.4 68.4 50.5 C 68.4 50.7 68.3 51.0 68.3 51.2 C 68.3 51.3 68.3 51.3 68.2 51.3 C 68.2 51.6 68.1 51.8 68.1 52.1 C 68.1 52.1 68.1 52.1 68.1 52.1 C 68.0 52.4 67.9 52.6 67.8 52.8 C 67.8 52.9 67.8 52.9 67.8 53.0 C 67.7 53.2 67.7 53.4 67.6 53.7 C 67.6 53.7 67.5 53.8 67.5 53.8 C 67.4 54.0 67.4 54.3 67.3 54.5 C 67.3 54.5 67.2 54.6 67.2 54.6 C 67.1 54.8 67.0 55.1 66.9 55.3 C 66.9 55.3 66.9 55.3 66.9 55.3 C 66.8 55.6 66.7 55.8 66.6 56.0 C 66.6 56.1 66.6 56.1 66.6 56.1 C 66.5 56.3 66.4 56.6 66.2 56.8 C 66.2 56.8 66.2 56.9 66.2 56.9 C 66.2 56.9 66.2 56.9 66.2 56.9 L 72.2 58.8 L 75.4 66.0 C 75.4 66.0 75.4 66.1 75.4 66.1 C 75.3 66.1 75.3 66.1 75.3 66.2 C 75.3 66.2 75.3 66.2 75.3 66.3 C 75.2 66.3 75.2 66.3 75.2 66.4 C 75.2 66.4 75.2 66.5 75.1 66.5 C 75.1 66.5 75.1 66.6 75.1 66.6 C 75.0 66.7 75.0 66.7 74.9 66.8 C 74.9 66.9 74.9 66.9 74.8 67.0 C 74.8 67.0 74.8 67.1 74.7 67.2 C 74.7 67.3 74.6 67.3 74.6 67.4 C 74.5 67.5 74.5 67.5 74.4 67.6 C 74.4 67.7 74.3 67.8 74.3 67.8 C 74.2 67.9 74.2 68.0 74.1 68.1 C 74.1 68.2 74.0 68.3 73.9 68.4 C 73.9 68.4 73.8 68.5 73.7 68.6 C 73.7 68.7 73.6 68.8 73.5 68.9 C 73.5 69.0 73.4 69.1 73.3 69.2 C 73.2 69.3 73.2 69.4 73.1 69.5 C 73.0 69.6 72.9 69.7 72.8 69.8 C 72.8 69.9 72.7 70.0 72.6 70.1 C 72.5 70.3 72.4 70.4 72.3 70.5 C 72.2 70.6 72.1 70.7 72.0 70.8 C 71.9 70.9 71.8 71.0 71.7 71.2 C 71.6 71.3 71.5 71.4 71.4 71.5 C 71.3 71.6 71.2 71.7 71.1 71.9 C 71.0 72.0 70.9 72.1 70.8 72.2 C 70.7 72.3 70.5 72.5 70.4 72.6 C 70.3 72.7 70.2 72.8 70.1 72.9 C 70.0 73.1 69.8 73.2 69.7 73.3 C 69.6 73.4 69.5 73.5 69.3 73.7 C 69.3 73.7 69.2 73.8 69.2 73.8 C 69.0 74.0 68.8 74.1 68.7 74.3 L 68.7 74.3 L 70.0 77.9 C 70.2 77.6 70.3 77.4 70.5 77.2 C 70.6 77.0 70.7 76.9 70.8 76.7 C 71.0 76.4 71.2 76.1 71.4 75.8 C 71.5 75.7 71.6 75.5 71.7 75.4 C 71.9 75.0 72.1 74.7 72.3 74.4 C 72.4 74.3 72.5 74.1 72.6 74.0 C 72.8 73.5 73.1 73.1 73.3 72.6 C 73.4 72.5 73.4 72.4 73.5 72.4 C 73.7 72.0 73.9 71.6 74.1 71.1 C 74.2 71.0 74.3 70.8 74.3 70.7 C 74.5 70.3 74.6 70.0 74.8 69.7 C 74.9 69.5 75.0 69.3 75.0 69.1 C 75.2 68.8 75.3 68.5 75.5 68.1 C 75.5 68.0 75.6 67.8 75.7 67.6 C 75.8 67.2 76.0 66.9 76.1 66.5 C 76.2 66.4 76.2 66.2 76.3 66.1 C 76.5 65.6 76.7 65.1 76.8 64.5 C 76.9 64.4 76.9 64.3 76.9 64.2 C 77.1 63.8 77.2 63.4 77.3 63.0 C 77.4 62.8 77.4 62.6 77.5 62.5 C 77.6 62.1 77.7 61.8 77.8 61.4 C 77.8 61.2 77.9 61.0 77.9 60.8 C 78.0 60.5 78.1 60.1 78.2 59.8 C 78.2 59.6 78.3 59.4 78.3 59.2 C 78.4 58.8 78.5 58.4 78.6 58.0 C 78.6 57.9 78.6 57.8 78.7 57.6 C 78.8 57.1 78.9 56.6 78.9 56.0 C 79.0 55.9 79.0 55.8 79.0 55.7 C 79.1 55.2 79.1 54.8 79.2 54.4 C 79.2 54.2 79.2 54.0 79.2 53.8 C 79.3 53.5 79.3 53.1 79.4 52.8 C 79.4 52.6 79.4 52.4 79.4 52.2 C 79.4 51.8 79.5 51.5 79.5 51.1 C 79.5 50.9 79.5 50.8 79.5 50.6 C 79.5 50.2 79.5 49.8 79.5 49.3 C 79.6 49.2 79.6 49.1 79.6 49.0 C 79.6 48.4 79.6 47.9 79.6 47.4 C 79.5 47.3 79.5 47.1 79.5 47.0 C 79.5 46.6 79.5 46.2 79.5 45.8 C 79.5 45.6 79.5 45.4 79.4 45.2 C 79.4 44.9 79.4 44.6 79.4 44.2 C 79.3 44.0 79.3 43.8 79.3 43.6 C 79.3 43.3 79.2 42.9 79.2 42.6 C 79.2 42.4 79.1 42.2 79.1 42.1 C 79.1 41.8 79.0 41.4 79.0 41.1 C 78.9 40.9 78.9 40.7 78.8 40.4 C 78.8 40.1 78.7 39.8 78.6 39.5 C 78.6 39.3 78.5 39.1 78.5 38.9 C 78.4 38.5 78.3 38.2 78.2 37.8 C 78.2 37.7 78.1 37.5 78.1 37.3 C 77.9 36.8 77.8 36.3 77.6 35.8 C 76.8 33.2 75.7 30.9 74.4 29.0 C 73.9 28.2 73.3 27.4 72.7 26.7 C 71.9 25.7 70.9 24.8 70.0 23.9 C 69.2 23.3 68.4 22.8 67.6 22.3 C 67.6 22.3 67.6 22.3 67.6 22.3 C 67.5 22.3 67.4 22.3 67.3 22.3 C 67.1 22.3 66.9 22.3 66.8 22.3 C 66.7 22.3 66.6 22.3 66.6 22.3 C 66.3 22.3 66.1 22.3 65.8 22.3 C 65.8 22.3 65.7 22.3 65.7 22.3 C 65.5 22.3 65.2 22.3 65.0 22.3 C 65.0 22.3 64.9 22.3 64.8 22.4 C 64.6 22.4 64.4 22.4 64.1 22.4 C 64.1 22.4 64.0 22.4 64.0 22.4 C 63.7 22.5 63.5 22.5 63.2 22.6 C 63.1 22.6 63.1 22.6 63.0 22.6 C 62.8 22.7 62.6 22.7 62.4 22.7 C 62.3 22.8 62.2 22.8 62.1 22.8 C 61.9 22.8 61.6 22.9 61.3 23.0 C 61.3 23.0 61.3 23.0 61.3 23.0 C 61.0 23.1 60.8 23.1 60.5 23.2 C 60.4 23.2 60.3 23.3 60.3 23.3 C 60.1 23.4 59.9 23.4 59.6 23.5 C 59.6 23.5 59.5 23.6 59.4 23.6 C 59.2 23.7 58.9 23.8 58.6 23.9 C 58.6 23.9 58.6 23.9 58.6 23.9 L 61.0 19.8 C 61.0 19.8 61.1 19.8 61.1 19.8 C 61.1 19.8 61.2 19.9 61.3 19.9 C 61.4 19.9 61.6 19.9 61.8 20.0 C 61.9 20.0 62.0 20.0 62.0 20.0 C 62.2 20.1 62.4 20.1 62.5 20.1 C 62.6 20.2 62.7 20.2 62.8 20.2 C 63.0 20.3 63.2 20.3 63.4 20.4 L 63.4 20.4 L 63.4 20.4 L 68.2 21.9 L 72.2 23.1 L 72.2 23.1 C 73.0 23.3 73.8 23.6 74.6 24.0 C 74.9 24.2 75.3 24.4 75.7 24.6 C 76.6 25.1 77.5 25.7 78.3 26.3 C 78.2 26.2 78.1 26.0 78.0 25.8 C 81.6 27.9 85.2 30.1 88.7 32.4 C 89.2 33.4 89.6 34.5 90.0 35.6 C 90.1 36.1 90.3 36.6 90.5 37.2 C 90.5 37.2 90.5 37.3 90.5 37.3 C 90.6 37.8 90.8 38.3 90.9 38.9 C 90.9 38.9 90.9 39.0 91.0 39.1 C 91.1 39.6 91.2 40.1 91.3 40.6 C 91.3 40.7 91.3 40.8 91.3 40.8 C 91.4 41.4 91.5 41.9 91.6 42.4 C 91.6 42.4 91.6 42.5 91.6 42.5 C 91.6 42.6 91.6 42.6 91.6 42.7 C 91.7 43.1 91.8 43.6 91.8 44.0 C 91.8 44.1 91.9 44.2 91.9 44.3 C 91.9 44.7 92.0 45.2 92.0 45.6 C 92.0 45.7 92.0 45.7 92.0 45.8 C 92.0 46.2 92.1 46.7 92.1 47.2 C 92.1 47.3 92.1 47.4 92.1 47.5 C 92.1 48.0 92.2 48.4 92.2 48.9 C 92.2 49.0 92.2 49.0 92.2 49.1 C 92.2 49.6 92.2 50.0 92.2 50.5 C 92.2 50.5 92.2 50.6 92.2 50.7 C 92.2 51.1 92.2 51.6 92.1 52.1 C 92.1 52.2 92.1 52.3 92.1 52.4 C 92.1 52.9 92.1 53.3 92.0 53.8 C 92.0 53.9 92.0 54.0 92.0 54.0 C 92.0 54.5 92.0 54.9 91.9 55.4 C 91.9 55.5 91.9 55.5 91.9 55.6 C 91.8 56.1 91.8 56.6 91.7 57.0 C 91.7 57.1 91.7 57.2 91.7 57.3 C 91.6 57.8 91.6 58.3 91.5 58.8 C 91.5 58.8 91.5 58.9 91.4 59.0 C 91.4 59.4 91.3 59.9 91.2 60.3 C 91.2 60.4 91.2 60.5 91.2 60.5 C 91.1 61.0 91.0 61.5 90.9 62.0 C 90.9 62.1 90.8 62.2 90.8 62.3 C 90.7 62.8 90.6 63.2 90.5 63.7 L 90.4 63.9 C 90.3 64.3 90.2 64.8 90.1 65.2 C 90.1 65.3 90.0 65.4 90.0 65.4 C 89.9 65.9 89.7 66.4 89.6 66.8 C 89.6 66.9 89.5 67.0 89.5 67.1 C 89.4 67.6 89.2 68.1 89.1 68.5 C 89.0 68.6 89.0 68.6 89.0 68.7 C 88.9 69.1 88.7 69.6 88.5 70.0 C 88.5 70.1 88.5 70.2 88.5 70.2 C 88.3 70.7 88.1 71.1 87.9 71.6 C 87.9 71.7 87.9 71.8 87.8 71.9 C 87.6 72.3 87.4 72.8 87.2 73.2 C 87.2 73.3 87.2 73.3 87.2 73.4 C 87.0 73.8 86.8 74.2 86.6 74.6 C 86.6 74.7 86.5 74.8 86.5 74.9 C 86.3 75.3 86.1 75.7 85.9 76.2 C 85.8 76.3 85.8 76.3 85.7 76.4 C 85.5 76.9 85.3 77.3 85.1 77.7 C 85.0 77.8 85.0 77.8 85.0 77.8 C 84.8 78.3 84.5 78.7 84.3 79.1 C 84.3 79.1 84.2 79.2 84.2 79.3 C 83.9 79.7 83.7 80.1 83.4 80.5 C 83.4 80.6 83.3 80.7 83.3 80.8 C 83.0 81.2 82.8 81.6 82.5 82.0 C 82.5 82.0 82.5 82.0 82.5 82.1 C 82.2 82.5 81.9 82.8 81.7 83.2 C 81.6 83.3 81.6 83.4 81.5 83.4 C 81.2 83.8 81.0 84.2 80.7 84.6 C 80.6 84.6 80.6 84.7 80.5 84.8 C 80.2 85.2 79.9 85.6 79.6 85.9 C 79.6 85.9 79.6 86.0 79.6 86.0 C 79.3 86.3 79.0 86.7 78.7 87.1 C 78.6 87.1 78.5 87.2 78.5 87.2 C 78.2 87.6 77.9 87.9 77.6 88.3 C 77.5 88.3 77.4 88.4 77.4 88.5 C 77.0 88.8 76.7 89.2 76.4 89.5 C 76.4 89.5 76.3 89.5 76.3 89.5 C 76.0 89.9 75.7 90.2 75.3 90.5 C 75.3 90.5 75.3 90.6 75.2 90.6 C 75.2 90.6 75.2 90.7 75.1 90.7 C 74.8 91.0 74.5 91.3 74.1 91.6 C 74.1 91.6 74.0 91.7 73.9 91.8 C 73.6 92.1 73.2 92.4 72.8 92.7 C 72.5 92.9 72.2 93.1 71.9 93.4 C 67.7 93.9 63.4 94.2 59.2 94.3 C 58.5 94.4 57.8 94.4 57.0 94.4 " fill="#DC7601"></path><path d="M 59.5 42.3 C 59.5 42.2 59.5 42.2 59.5 42.1 C 59.5 42.0 59.4 41.8 59.4 41.7 C 59.4 41.6 59.4 41.6 59.3 41.5 C 59.3 41.3 59.2 41.1 59.2 41.0 C 59.1 40.7 59.0 40.5 58.9 40.3 C 58.8 40.4 58.7 40.4 58.5 40.5 C 58.5 40.5 58.5 40.5 58.4 40.6 C 58.1 40.7 57.8 40.9 57.5 41.1 C 57.5 41.1 57.4 41.2 57.4 41.2 C 57.1 41.4 56.8 41.6 56.4 41.9 L 56.4 41.9 L 52.6 40.7 L 53.9 44.1 C 53.8 44.2 53.7 44.3 53.5 44.4 L 59.6 46.3 C 59.6 46.3 59.7 46.3 59.7 46.3 C 59.7 46.3 59.8 46.3 59.8 46.4 C 59.9 46.4 59.9 46.4 59.9 46.4 C 59.9 46.3 59.9 46.1 59.9 46.0 C 59.9 46.0 59.9 46.0 59.9 45.9 C 59.9 45.7 59.9 45.4 59.9 45.1 C 59.9 45.1 59.9 45.1 59.9 45.1 C 59.9 44.8 59.9 44.6 59.9 44.3 C 59.9 44.2 59.8 44.2 59.8 44.2 C 59.8 43.9 59.8 43.6 59.8 43.4 C 59.7 43.3 59.7 43.3 59.7 43.2 C 59.7 43.1 59.7 43.0 59.7 42.9 C 59.7 42.8 59.6 42.7 59.6 42.6 C 59.6 42.5 59.6 42.4 59.5 42.3 M 53.6 68.8 C 53.6 68.8 53.6 68.9 53.6 68.9 C 53.6 69.2 53.6 69.4 53.6 69.7 C 53.6 69.7 53.6 69.7 53.6 69.7 C 53.6 70.0 53.7 70.3 53.7 70.5 C 53.7 70.6 53.7 70.6 53.7 70.6 C 53.7 70.9 53.7 71.1 53.8 71.4 C 53.8 71.4 53.8 71.5 53.8 71.5 C 53.8 71.6 53.8 71.7 53.8 71.8 C 53.9 71.9 53.9 72.0 53.9 72.1 C 53.9 72.2 53.9 72.3 54.0 72.4 C 54.0 72.4 54.0 72.5 54.0 72.6 C 54.0 72.7 54.1 72.8 54.1 72.9 C 54.1 73.0 54.1 73.0 54.1 73.1 C 54.2 73.3 54.2 73.5 54.3 73.6 C 54.4 74.1 54.6 74.5 54.8 74.8 C 54.8 74.9 54.9 75.0 54.9 75.1 C 55.7 74.7 56.5 74.3 57.3 73.7 L 61.2 74.9 L 60.0 71.6 C 60.2 71.4 60.4 71.2 60.6 71.0 L 54.1 69.0 C 54.0 69.0 53.8 68.9 53.6 68.8 M 27.3 74.0 C 27.2 73.9 27.2 73.8 27.2 73.7 C 27.1 73.3 26.9 72.9 26.8 72.4 C 26.8 72.4 26.8 72.3 26.8 72.3 C 26.7 71.8 26.6 71.4 26.5 71.0 C 26.5 70.9 26.5 70.8 26.5 70.7 C 26.4 70.3 26.3 69.8 26.2 69.4 C 26.2 69.3 26.2 69.3 26.2 69.3 C 26.2 69.2 26.2 69.1 26.2 69.1 C 26.1 68.8 26.1 68.4 26.1 68.1 C 26.0 68.0 26.0 67.9 26.0 67.7 C 26.0 67.4 25.9 67.0 25.9 66.6 C 25.9 66.5 25.9 66.5 25.9 66.5 C 25.9 66.1 25.8 65.7 25.8 65.2 C 25.8 65.1 25.8 65.0 25.8 64.9 C 25.8 64.6 25.8 64.2 25.8 63.9 C 25.7 63.8 25.7 63.7 25.7 63.6 C 25.7 63.1 25.7 62.7 25.7 62.3 C 25.7 62.2 25.7 62.2 25.7 62.1 C 25.7 61.7 25.8 61.4 25.8 61.0 C 25.8 60.9 25.8 60.7 25.8 60.6 C 25.8 60.3 25.8 59.9 25.8 59.6 C 25.9 59.5 25.9 59.4 25.9 59.3 C 25.9 58.9 25.9 58.4 26.0 58.0 C 26.0 57.9 26.0 57.8 26.0 57.7 C 26.0 57.4 26.1 57.0 26.1 56.7 C 26.1 56.6 26.2 56.5 26.2 56.3 C 26.2 55.9 26.3 55.6 26.3 55.2 C 26.4 55.1 26.4 55.1 26.4 55.0 C 26.4 54.6 26.5 54.2 26.6 53.7 C 26.6 53.6 26.6 53.5 26.7 53.4 C 26.7 53.1 26.8 52.7 26.9 52.4 C 26.9 52.3 26.9 52.2 26.9 52.1 C 27.0 51.6 27.1 51.2 27.2 50.8 C 27.2 50.7 27.3 50.7 27.3 50.6 C 27.4 50.3 27.5 49.9 27.6 49.5 C 27.6 49.4 27.6 49.3 27.7 49.1 C 27.8 48.8 27.9 48.5 28.0 48.2 C 28.0 48.1 28.0 48.0 28.1 47.9 C 28.2 47.4 28.3 47.0 28.5 46.6 C 28.5 46.5 28.5 46.4 28.5 46.3 C 28.7 46.0 28.8 45.7 28.9 45.4 C 28.9 45.2 29.0 45.1 29.0 45.0 C 29.2 44.6 29.3 44.3 29.4 43.9 C 29.5 43.9 29.5 43.8 29.5 43.8 C 29.6 43.4 29.8 43.1 29.9 42.7 C 30.0 42.7 30.0 42.6 30.0 42.6 C 30.1 42.4 30.2 42.2 30.3 42.0 C 30.4 41.8 30.5 41.5 30.6 41.3 C 30.7 41.1 30.8 40.9 30.9 40.7 C 31.0 40.5 31.1 40.2 31.2 40.0 C 31.3 39.8 31.4 39.6 31.5 39.4 C 31.6 39.2 31.7 39.0 31.9 38.7 C 32.0 38.6 32.1 38.4 32.2 38.2 C 32.3 38.0 32.4 37.7 32.5 37.5 C 32.7 37.3 32.8 37.1 32.9 36.9 C 33.0 36.7 33.1 36.5 33.3 36.3 C 33.4 36.1 33.5 35.9 33.6 35.7 C 33.7 35.5 33.9 35.3 34.0 35.1 C 34.1 34.9 34.3 34.8 34.4 34.6 C 34.5 34.4 34.7 34.2 34.8 34.0 C 34.9 33.8 35.0 33.7 35.1 33.6 C 38.1 34.3 41.1 35.0 44.1 35.8 C 44.0 35.9 44.0 36.0 43.9 36.1 C 43.8 36.3 43.6 36.5 43.5 36.6 C 43.4 36.8 43.2 37.0 43.1 37.2 C 43.0 37.4 42.8 37.6 42.7 37.8 C 42.6 38.0 42.4 38.2 42.3 38.4 C 42.2 38.6 42.1 38.8 42.0 39.0 C 41.8 39.2 41.7 39.4 41.6 39.6 C 41.5 39.8 41.4 40.0 41.2 40.2 C 41.1 40.4 41.0 40.6 40.9 40.8 C 40.8 41.0 40.7 41.2 40.6 41.4 C 40.4 41.6 40.3 41.9 40.2 42.1 C 40.1 42.3 40.0 42.5 39.9 42.7 C 39.8 42.9 39.7 43.1 39.6 43.4 C 39.5 43.6 39.4 43.8 39.3 44.0 C 39.2 44.2 39.1 44.4 39.0 44.7 C 38.9 44.9 38.8 45.1 38.7 45.3 C 38.5 45.6 38.4 46.0 38.2 46.4 C 38.2 46.5 38.2 46.6 38.1 46.6 C 38.0 47.0 37.9 47.3 37.7 47.7 C 37.7 47.8 37.6 47.9 37.6 48.0 C 37.5 48.4 37.4 48.7 37.3 49.0 C 37.2 49.1 37.2 49.2 37.2 49.3 C 37.0 49.7 36.9 50.1 36.8 50.5 C 36.7 50.6 36.7 50.7 36.7 50.8 C 36.6 51.2 36.5 51.5 36.4 51.8 C 36.3 51.9 36.3 52.1 36.3 52.2 C 36.2 52.6 36.1 52.9 36.0 53.3 C 36.0 53.4 36.0 53.4 35.9 53.5 C 35.8 53.9 35.7 54.3 35.6 54.7 C 35.6 54.8 35.6 55.0 35.6 55.1 C 35.5 55.4 35.4 55.7 35.4 56.1 C 35.3 56.2 35.3 56.3 35.3 56.4 C 35.2 56.8 35.1 57.3 35.1 57.7 C 35.1 57.8 35.1 57.8 35.0 57.8 C 35.0 58.2 34.9 58.6 34.9 59.0 C 34.9 59.1 34.8 59.3 34.8 59.4 C 34.8 59.7 34.7 60.1 34.7 60.4 C 34.7 60.5 34.7 60.6 34.7 60.7 C 34.6 61.1 34.6 61.5 34.6 62.0 C 34.6 62.1 34.6 62.2 34.6 62.3 C 34.5 62.6 34.5 62.9 34.5 63.3 C 34.5 63.4 34.5 63.5 34.5 63.7 C 34.5 64.0 34.5 64.4 34.4 64.8 C 34.4 64.8 34.4 64.9 34.4 65.0 C 34.4 65.4 34.4 65.8 34.4 66.2 C 34.5 66.3 34.5 66.5 34.5 66.6 C 34.5 66.9 34.5 67.2 34.5 67.5 C 34.5 67.7 34.5 67.8 34.5 67.9 C 34.5 68.3 34.6 68.7 34.6 69.2 C 34.6 69.2 34.6 69.2 34.6 69.2 C 34.6 69.6 34.7 70.0 34.7 70.4 C 34.7 70.5 34.8 70.7 34.8 70.8 C 34.8 71.1 34.8 71.4 34.9 71.7 C 34.9 71.8 34.9 71.9 34.9 72.0 C 35.0 72.5 35.1 73.0 35.2 73.4 C 35.2 73.5 35.2 73.6 35.2 73.7 C 35.3 74.1 35.4 74.5 35.5 74.9 C 35.5 75.0 35.5 75.0 35.5 75.1 C 35.6 75.5 35.8 76.0 35.9 76.4 C 35.9 76.5 35.9 76.6 36.0 76.7 C 36.1 77.2 36.2 77.6 36.4 78.0 C 37.6 81.6 39.2 84.6 41.2 87.0 C 41.2 87.0 41.2 87.0 41.3 87.1 C 41.7 87.6 42.2 88.1 42.7 88.6 C 42.8 88.7 42.9 88.9 43.1 89.0 C 43.2 89.1 43.3 89.2 43.4 89.3 C 43.6 89.5 43.8 89.7 44.0 89.9 C 44.2 90.0 44.4 90.1 44.5 90.3 C 44.7 90.4 44.9 90.5 45.1 90.7 C 45.3 90.8 45.5 90.9 45.7 91.1 C 45.8 91.2 46.0 91.3 46.1 91.4 C 46.2 91.4 46.3 91.5 46.4 91.5 C 51.6 91.8 57.3 89.9 62.7 85.6 C 63.1 85.3 63.5 85.0 63.8 84.6 C 64.0 84.5 64.1 84.4 64.2 84.3 C 64.5 84.1 64.7 83.8 65.0 83.6 C 65.1 83.5 65.3 83.3 65.4 83.2 C 65.6 83.0 65.9 82.7 66.1 82.5 C 66.2 82.4 66.4 82.2 66.5 82.1 C 66.8 81.8 67.0 81.6 67.2 81.3 C 67.4 81.2 67.5 81.1 67.6 80.9 C 67.9 80.5 68.3 80.1 68.6 79.7 C 68.6 79.7 68.6 79.7 68.7 79.6 C 69.0 79.2 69.3 78.9 69.6 78.5 C 69.7 78.4 69.8 78.2 69.9 78.1 C 69.9 78.0 69.9 78.0 69.9 78.0 L 67.4 80.1 L 61.7 78.4 C 60.5 78.6 59.4 78.6 58.4 78.3 L 49.7 75.6 C 49.7 75.6 49.7 75.6 49.7 75.6 L 49.7 75.6 L 49.7 75.6 C 49.7 75.6 49.6 75.6 49.5 75.5 C 49.5 75.5 49.4 75.5 49.4 75.5 C 49.4 75.5 49.3 75.5 49.3 75.5 C 49.2 75.4 49.1 75.4 48.9 75.3 C 48.6 75.1 48.3 74.9 48.0 74.7 C 47.8 74.5 47.5 74.3 47.3 74.1 C 47.3 74.0 47.2 73.9 47.2 73.9 C 47.1 73.8 47.1 73.8 47.1 73.8 C 47.1 73.8 47.0 73.7 47.0 73.7 C 46.8 73.4 46.6 73.1 46.4 72.7 C 46.3 72.5 46.2 72.3 46.1 72.1 C 45.9 71.8 45.7 71.4 45.6 71.0 C 45.5 70.8 45.5 70.6 45.4 70.4 C 45.4 70.4 45.4 70.3 45.4 70.3 C 45.4 70.1 45.3 70.0 45.3 69.9 C 45.3 69.8 45.3 69.8 45.3 69.7 C 45.2 69.6 45.2 69.5 45.2 69.4 C 45.2 69.3 45.2 69.2 45.1 69.2 C 45.1 69.1 45.1 69.0 45.1 68.9 C 45.1 68.8 45.1 68.8 45.1 68.8 C 45.1 68.8 45.1 68.7 45.1 68.7 C 45.0 68.5 45.0 68.2 45.0 67.9 L 45.0 67.9 C 44.9 67.6 44.9 67.3 44.9 67.1 C 44.9 67.1 44.9 67.0 44.9 67.0 C 44.9 66.7 44.9 66.5 44.9 66.2 C 44.9 66.2 44.9 66.1 44.9 66.1 C 45.0 65.8 45.0 65.6 45.0 65.4 C 45.0 65.3 45.0 65.3 45.0 65.2 C 45.0 65.0 45.1 64.7 45.1 64.5 C 45.1 64.4 45.1 64.4 45.1 64.4 C 45.2 64.1 45.2 63.9 45.3 63.6 C 45.3 63.6 45.3 63.6 45.3 63.6 C 45.3 63.4 45.4 63.3 45.4 63.2 C 45.4 63.2 45.4 63.2 45.4 63.2 C 45.4 63.2 45.4 63.2 45.4 63.2 C 45.4 63.1 45.4 63.0 45.5 62.9 C 45.5 62.8 45.5 62.7 45.5 62.6 C 45.6 62.5 45.6 62.3 45.7 62.1 C 45.7 62.0 45.7 62.0 45.8 61.9 C 45.8 61.7 45.9 61.5 46.0 61.2 C 46.0 61.2 46.0 61.2 46.0 61.1 C 46.1 60.9 46.2 60.6 46.3 60.4 C 46.3 60.3 46.4 60.2 46.4 60.2 C 46.5 60.0 46.5 59.8 46.6 59.6 C 46.6 59.6 46.7 59.5 46.7 59.4 C 46.8 59.2 46.9 59.1 46.9 58.9 C 47.0 58.8 47.0 58.7 47.1 58.6 C 47.1 58.5 47.2 58.3 47.3 58.2 C 47.3 58.1 47.4 58.0 47.4 57.9 C 47.5 57.7 47.6 57.6 47.7 57.4 C 47.7 57.3 47.7 57.3 47.8 57.2 C 47.9 57.0 48.0 56.8 48.1 56.5 C 48.1 56.5 48.2 56.5 48.2 56.5 L 42.4 54.7 L 39.4 47.7 C 41.2 45.6 43.2 43.3 45.2 41.4 L 43.5 37.0 L 44.8 35.9 C 52.4 37.9 59.9 40.0 67.4 42.4 C 67.6 42.8 67.7 43.2 67.9 43.6 C 67.9 43.8 68.0 44.0 68.1 44.2 C 68.1 44.3 68.1 44.3 68.1 44.4 C 68.1 44.5 68.2 44.6 68.2 44.8 C 68.2 44.8 68.2 44.9 68.3 45.0 C 68.3 45.1 68.3 45.2 68.3 45.3 C 68.3 45.4 68.4 45.5 68.4 45.5 C 68.4 45.6 68.4 45.8 68.4 45.9 C 68.4 45.9 68.4 45.9 68.4 46.0 C 68.5 46.0 68.5 46.0 68.5 46.0 C 68.5 46.3 68.5 46.6 68.6 46.8 C 68.6 46.9 68.6 46.9 68.6 47.0 C 68.6 47.2 68.6 47.5 68.6 47.8 C 68.6 47.8 68.6 47.8 68.6 47.8 C 68.6 48.1 68.6 48.3 68.6 48.6 C 68.6 48.6 68.6 48.7 68.6 48.7 C 68.6 49.0 68.6 49.2 68.5 49.5 C 68.5 49.5 68.5 49.6 68.5 49.6 C 68.5 49.9 68.5 50.1 68.4 50.4 C 68.4 50.4 68.4 50.4 68.4 50.5 C 68.4 50.7 68.3 51.0 68.3 51.2 C 68.3 51.3 68.3 51.3 68.2 51.3 C 68.2 51.6 68.1 51.8 68.1 52.1 C 68.1 52.1 68.1 52.1 68.1 52.1 C 68.0 52.4 67.9 52.6 67.8 52.8 C 67.8 52.9 67.8 52.9 67.8 53.0 C 67.7 53.2 67.7 53.4 67.6 53.7 C 67.6 53.7 67.5 53.8 67.5 53.8 C 67.4 54.0 67.4 54.3 67.3 54.5 C 67.3 54.5 67.2 54.6 67.2 54.6 C 67.1 54.8 67.0 55.1 66.9 55.3 C 66.9 55.3 66.9 55.3 66.9 55.3 C 66.8 55.6 66.7 55.8 66.6 56.0 C 66.6 56.1 66.6 56.1 66.6 56.1 C 66.5 56.3 66.4 56.6 66.2 56.8 C 66.2 56.8 66.2 56.9 66.2 56.9 C 66.2 56.9 66.2 56.9 66.2 56.9 L 72.2 58.8 L 75.4 66.0 C 75.4 66.0 75.4 66.1 75.4 66.1 C 75.3 66.1 75.3 66.1 75.3 66.2 C 75.3 66.2 75.3 66.2 75.3 66.3 C 75.2 66.3 75.2 66.3 75.2 66.4 C 75.2 66.4 75.2 66.5 75.1 66.5 C 75.1 66.5 75.1 66.6 75.1 66.6 C 75.0 66.7 75.0 66.7 74.9 66.8 C 74.9 66.9 74.9 66.9 74.8 67.0 C 74.8 67.0 74.8 67.1 74.7 67.2 C 74.7 67.3 74.6 67.3 74.6 67.4 C 74.5 67.5 74.5 67.5 74.4 67.6 C 74.4 67.7 74.3 67.8 74.3 67.8 C 74.2 67.9 74.2 68.0 74.1 68.1 C 74.1 68.2 74.0 68.3 73.9 68.4 C 73.9 68.4 73.8 68.5 73.7 68.6 C 73.7 68.7 73.6 68.8 73.5 68.9 C 73.5 69.0 73.4 69.1 73.3 69.2 C 73.2 69.3 73.2 69.4 73.1 69.5 C 73.0 69.6 72.9 69.7 72.8 69.8 C 72.8 69.9 72.7 70.0 72.6 70.1 C 72.5 70.3 72.4 70.4 72.3 70.5 C 72.2 70.6 72.1 70.7 72.0 70.8 C 71.9 70.9 71.8 71.0 71.7 71.2 C 71.6 71.3 71.5 71.4 71.4 71.5 C 71.3 71.6 71.2 71.7 71.1 71.9 C 71.0 72.0 70.9 72.1 70.8 72.2 C 70.7 72.3 70.5 72.5 70.4 72.6 C 70.3 72.7 70.2 72.8 70.1 72.9 C 70.0 73.1 69.8 73.2 69.7 73.3 C 69.6 73.4 69.5 73.5 69.3 73.7 C 69.3 73.7 69.2 73.8 69.2 73.8 C 69.0 74.0 68.8 74.1 68.7 74.3 L 68.7 74.3 L 70.0 77.9 C 70.2 77.6 70.3 77.4 70.5 77.2 C 70.6 77.0 70.7 76.9 70.8 76.7 C 71.0 76.4 71.2 76.1 71.4 75.8 C 71.5 75.7 71.6 75.5 71.7 75.4 C 71.9 75.0 72.1 74.7 72.3 74.4 C 72.4 74.3 72.5 74.1 72.6 74.0 C 72.8 73.5 73.1 73.1 73.3 72.6 C 73.4 72.5 73.4 72.4 73.5 72.4 C 73.7 72.0 73.9 71.6 74.1 71.1 C 74.2 71.0 74.3 70.8 74.3 70.7 C 74.5 70.3 74.6 70.0 74.8 69.7 C 74.9 69.5 75.0 69.3 75.0 69.1 C 75.2 68.8 75.3 68.5 75.5 68.1 C 75.5 68.0 75.6 67.8 75.7 67.6 C 75.8 67.2 76.0 66.9 76.1 66.5 C 76.2 66.4 76.2 66.2 76.3 66.1 C 76.5 65.6 76.7 65.1 76.8 64.5 C 76.9 64.4 76.9 64.3 76.9 64.2 C 77.1 63.8 77.2 63.4 77.3 63.0 C 77.4 62.8 77.4 62.6 77.5 62.5 C 77.6 62.1 77.7 61.8 77.8 61.4 C 77.8 61.2 77.9 61.0 77.9 60.8 C 78.0 60.5 78.1 60.1 78.2 59.8 C 78.2 59.6 78.3 59.4 78.3 59.2 C 78.4 58.8 78.5 58.4 78.6 58.0 C 78.6 57.9 78.6 57.8 78.7 57.6 C 78.8 57.1 78.9 56.6 78.9 56.0 C 79.0 55.9 79.0 55.8 79.0 55.7 C 79.1 55.2 79.1 54.8 79.2 54.4 C 79.2 54.2 79.2 54.0 79.2 53.8 C 79.3 53.5 79.3 53.1 79.4 52.8 C 79.4 52.6 79.4 52.4 79.4 52.2 C 79.4 51.8 79.5 51.5 79.5 51.1 C 79.5 50.9 79.5 50.8 79.5 50.6 C 79.5 50.2 79.5 49.8 79.5 49.3 C 79.6 49.2 79.6 49.1 79.6 49.0 C 79.6 48.4 79.6 47.9 79.6 47.4 C 79.5 47.3 79.5 47.1 79.5 47.0 C 79.5 46.8 79.5 46.6 79.5 46.4 C 83.8 47.9 88.0 49.5 92.2 51.1 C 92.2 51.4 92.2 51.8 92.1 52.1 C 92.1 52.2 92.1 52.3 92.1 52.4 C 92.1 52.9 92.1 53.3 92.0 53.8 C 92.0 53.9 92.0 54.0 92.0 54.0 C 92.0 54.5 92.0 54.9 91.9 55.4 C 91.9 55.5 91.9 55.5 91.9 55.6 C 91.8 56.1 91.8 56.6 91.7 57.0 C 91.7 57.1 91.7 57.2 91.7 57.3 C 91.6 57.8 91.6 58.3 91.5 58.8 C 91.5 58.8 91.5 58.9 91.4 59.0 C 91.4 59.4 91.3 59.9 91.2 60.3 C 91.2 60.4 91.2 60.5 91.2 60.5 C 91.1 61.0 91.0 61.5 90.9 62.0 C 90.9 62.1 90.8 62.2 90.8 62.3 C 90.7 62.8 90.6 63.2 90.5 63.7 L 90.4 63.9 C 90.3 64.3 90.2 64.8 90.1 65.2 C 90.1 65.3 90.0 65.4 90.0 65.4 C 89.9 65.9 89.7 66.4 89.6 66.8 C 89.6 66.9 89.5 67.0 89.5 67.1 C 89.4 67.6 89.2 68.1 89.1 68.5 C 89.0 68.6 89.0 68.6 89.0 68.7 C 88.9 69.1 88.7 69.6 88.5 70.0 C 88.5 70.1 88.5 70.2 88.5 70.2 C 88.3 70.7 88.1 71.1 87.9 71.6 C 87.9 71.7 87.9 71.8 87.8 71.9 C 87.6 72.3 87.4 72.8 87.2 73.2 C 87.2 73.3 87.2 73.3 87.2 73.4 C 87.0 73.8 86.8 74.2 86.6 74.6 C 86.6 74.7 86.5 74.8 86.5 74.9 C 86.3 75.3 86.1 75.7 85.9 76.2 C 85.8 76.3 85.8 76.3 85.7 76.4 C 85.5 76.9 85.3 77.3 85.1 77.7 C 85.0 77.8 85.0 77.8 85.0 77.8 C 84.8 78.3 84.5 78.7 84.3 79.1 C 84.3 79.1 84.2 79.2 84.2 79.3 C 83.9 79.7 83.7 80.1 83.4 80.5 C 83.4 80.6 83.3 80.7 83.3 80.8 C 83.0 81.2 82.8 81.6 82.5 82.0 C 82.5 82.0 82.5 82.0 82.5 82.1 C 82.2 82.5 81.9 82.8 81.7 83.2 C 81.6 83.3 81.6 83.4 81.5 83.4 C 81.2 83.8 81.0 84.2 80.7 84.6 C 80.6 84.6 80.6 84.7 80.5 84.8 C 80.2 85.2 79.9 85.6 79.6 85.9 C 79.6 85.9 79.6 86.0 79.6 86.0 C 79.3 86.3 79.0 86.7 78.7 87.1 C 78.6 87.1 78.5 87.2 78.5 87.2 C 78.2 87.6 77.9 87.9 77.6 88.3 C 77.5 88.3 77.4 88.4 77.4 88.5 C 77.0 88.8 76.7 89.2 76.4 89.5 C 76.4 89.5 76.3 89.5 76.3 89.5 C 76.0 89.9 75.7 90.2 75.3 90.5 C 75.3 90.5 75.3 90.6 75.2 90.6 C 75.2 90.6 75.2 90.7 75.1 90.7 C 74.8 91.0 74.5 91.3 74.1 91.6 C 74.1 91.6 74.0 91.7 73.9 91.8 C 73.6 92.1 73.2 92.4 72.8 92.7 C 71.1 94.0 69.3 95.2 67.5 96.2 C 67.0 96.4 66.5 96.7 66.0 96.9 C 64.0 97.9 61.9 98.6 59.9 99.0 C 58.9 99.2 57.9 99.3 56.9 99.4 C 56.4 99.4 55.9 99.5 55.4 99.5 C 54.4 99.5 53.5 99.4 52.5 99.3 C 52.3 99.3 52.0 99.2 51.8 99.2 C 50.8 99.0 49.9 98.8 49.0 98.5 L 40.3 95.9 C 45.6 97.5 51.6 97.0 57.5 94.2 C 57.5 94.2 57.5 94.2 57.5 94.2 C 56.8 94.2 56.2 94.2 55.5 94.2 C 55.1 94.2 54.7 94.2 54.2 94.1 C 53.8 94.1 53.4 94.1 53.0 94.0 C 52.8 94.0 52.6 93.9 52.4 93.9 C 51.8 93.8 51.1 93.6 50.6 93.4 L 46.7 92.2 L 41.8 90.7 C 41.6 90.7 41.4 90.6 41.1 90.5 C 41.0 90.4 40.8 90.4 40.7 90.3 C 40.4 90.2 40.0 90.1 39.7 89.9 C 39.7 89.9 39.6 89.9 39.6 89.9 C 39.3 89.8 39.1 89.7 38.9 89.6 C 38.8 89.5 38.6 89.4 38.5 89.3 C 38.3 89.3 38.2 89.2 38.1 89.1 C 37.9 89.0 37.6 88.8 37.4 88.7 C 37.3 88.6 37.2 88.6 37.1 88.5 C 36.9 88.3 36.6 88.2 36.3 88.0 C 36.3 88.0 36.3 87.9 36.3 87.9 C 36.0 87.7 35.6 87.5 35.3 87.2 C 35.2 87.1 35.1 86.9 34.9 86.8 C 34.7 86.7 34.6 86.5 34.4 86.3 C 34.3 86.3 34.2 86.2 34.1 86.1 C 31.4 83.4 29.2 79.8 27.7 75.4 C 27.5 74.9 27.4 74.5 27.3 74.0 " fill="#D66800"></path><path d="M 57.3 73.7 C 52.4 77.1 47.5 76.7 45.6 71.0 C 42.0 60.0 54.3 51.0 52.3 45.2 C 51.6 43.1 49.7 43.0 47.6 44.6 C 45.8 46.1 44.9 47.4 44.4 48.9 C 44.4 49.2 44.4 49.4 44.5 49.5 L 45.4 52.2 L 42.4 54.7 L 39.4 47.7 C 41.2 45.6 43.2 43.3 45.2 41.4 L 43.5 37.0 L 46.1 34.8 L 47.7 39.2 C 52.7 35.4 57.3 35.5 59.2 41.0 C 63.0 52.4 50.5 60.9 52.7 67.4 C 53.5 69.8 55.6 69.4 57.5 67.9 C 60.5 65.5 61.6 63.3 61.8 62.9 C 61.6 62.0 61.5 61.0 61.4 60.8 C 61.2 60.3 60.7 58.7 60.7 58.6 L 63.5 56.1 L 66.7 63.4 C 66.6 63.6 64.5 67.6 60.0 71.6 L 61.3 75.2 L 58.7 77.5 L 57.3 73.7 M 42.6 25.5 C 28.8 36.5 22.1 58.8 27.7 75.4 C 33.2 92.0 48.9 96.5 62.7 85.6 C 76.5 74.7 83.2 52.4 77.6 35.8 C 72.1 19.2 56.4 14.6 42.6 25.5 " fill="#FFE679"></path><path d="M 29.4 79.6 C 34.0 73.8 39.6 68.7 45.3 63.8 C 44.8 66.1 44.8 68.5 45.6 71.0 C 47.5 76.7 52.4 77.1 57.3 73.7 L 58.7 77.5 L 61.3 75.2 L 60.0 71.6 C 64.5 67.6 66.6 63.6 66.7 63.4 L 63.5 56.1 L 60.7 58.6 C 60.7 58.7 61.2 60.3 61.4 60.8 C 61.5 61.0 61.6 62.0 61.8 62.9 C 61.6 63.3 60.5 65.5 57.5 67.9 C 55.6 69.4 53.5 69.8 52.7 67.4 C 51.3 63.1 56.3 57.9 58.7 51.5 C 62.5 47.6 66.1 43.4 68.9 38.7 C 70.9 35.3 72.5 31.5 73.5 27.6 C 75.2 29.9 76.6 32.6 77.6 35.8 C 83.2 52.4 76.5 74.7 62.7 85.6 C 50.1 95.5 36.1 92.7 29.4 79.6 " fill="#FFD93A"></path><path d="M 52.1 44.6 C 51.2 44.2 49.9 44.5 48.6 45.6 C 46.8 47.0 45.9 48.3 45.3 49.9 C 45.4 50.1 45.4 50.4 45.4 50.5 L 46.3 53.1 L 43.4 55.7 L 42.4 54.7 L 45.4 52.2 L 44.5 49.5 C 44.4 49.4 44.4 49.2 44.4 48.9 C 44.9 47.4 45.8 46.1 47.6 44.6 C 49.5 43.2 51.3 43.1 52.1 44.6 " fill="#C76C10"></path><path d="M 48.2 38.8 C 48.0 39.0 47.9 39.1 47.7 39.2 L 46.1 34.8 L 47.0 35.8 Z M 48.2 38.8 " fill="#C76C10"></path><path d="M 57.8 75.0 C 54.0 77.4 50.4 77.5 48.1 74.8 C 50.5 76.6 53.9 76.1 57.3 73.7 Z M 57.8 75.0 " fill="#C76C10"></path><path d="M 42.6 25.5 C 52.9 17.3 64.3 17.9 71.7 25.6 C 64.3 18.8 53.5 18.6 43.6 26.5 C 29.8 37.4 23.1 59.7 28.6 76.3 C 30.0 80.5 32.1 83.9 34.6 86.5 C 31.6 83.8 29.2 80.1 27.7 75.4 C 22.1 58.8 28.8 36.5 42.6 25.5 " fill="#C76C10"></path><path d="M 64.5 57.0 L 67.7 64.3 C 67.5 64.5 65.4 68.6 60.9 72.5 L 62.3 76.2 L 59.7 78.4 L 59.2 77.1 L 61.3 75.2 L 60.0 71.6 C 64.5 67.6 66.6 63.6 66.7 63.4 L 64.1 57.4 Z M 64.5 57.0 " fill="#C76C10"></path><path d="M 57.9 38.5 C 58.8 39.2 59.6 40.3 60.1 41.9 C 63.9 53.3 51.5 61.9 53.7 68.3 C 53.7 68.6 53.8 68.8 53.9 68.9 C 53.4 68.7 53.0 68.2 52.7 67.4 C 50.5 60.9 63.0 52.4 59.2 41.0 C 58.8 39.9 58.4 39.1 57.9 38.5 " fill="#C76C10"></path><path d="M 46.1 34.8 L 43.5 37.0 L 45.2 41.4 C 43.2 43.3 41.2 45.6 39.4 47.7 L 42.4 54.7 L 45.4 52.2 L 44.5 49.5 C 44.4 49.4 44.4 49.2 44.4 48.9 C 44.9 47.4 45.8 46.1 47.6 44.6 C 49.7 43.0 51.6 43.1 52.3 45.2 C 54.3 51.0 42.0 60.0 45.6 71.0 C 47.5 76.7 52.4 77.1 57.3 73.7 L 58.7 77.5 L 61.3 75.2 L 60.0 71.6 C 64.5 67.6 66.6 63.6 66.7 63.4 L 63.5 56.1 L 60.7 58.6 C 60.7 58.7 61.2 60.3 61.4 60.8 C 61.5 61.0 61.6 62.0 61.8 62.9 C 61.6 63.3 60.5 65.5 57.5 67.9 C 55.6 69.4 53.5 69.8 52.7 67.4 C 50.5 60.9 63.0 52.4 59.2 41.0 C 57.3 35.5 52.7 35.4 47.7 39.2 Z M 46.1 34.8 " fill="#FFF3A9"></path><path d="M 46.5 60.9 C 50.8 57.2 55.0 53.5 59.0 49.4 C 58.2 52.4 56.6 55.1 55.2 57.7 C 53.2 61.4 51.4 64.6 52.3 67.5 C 52.9 69.0 53.9 69.7 55.4 69.4 C 56.1 69.3 56.9 68.8 57.7 68.2 C 60.6 66.0 61.9 63.7 62.1 63.1 L 62.1 63.0 L 62.1 62.9 C 62.1 62.5 61.9 61.1 61.7 60.7 C 61.6 60.3 61.3 59.3 61.1 58.8 L 63.4 56.7 L 66.3 63.3 C 65.8 64.2 63.7 67.8 59.7 71.3 L 59.5 71.5 L 60.9 75.1 L 58.9 76.8 L 57.5 73.2 L 57.1 73.4 C 55.7 74.4 54.2 75.0 52.9 75.3 C 49.6 76.0 47.2 74.5 46.0 70.8 C 44.8 67.3 45.3 64.0 46.5 61.0 Z M 46.5 60.9 " fill="#FFE061"></path><path d="M 62.7 85.6 C 48.9 96.5 33.2 92.0 27.7 75.4 C 22.1 58.8 28.8 36.5 42.6 25.5 C 56.4 14.6 72.1 19.2 77.6 35.8 C 83.2 52.4 76.5 74.7 62.7 85.6 M 41.2 21.2 C 25.4 33.7 17.7 59.2 24.0 78.2 C 30.4 97.2 48.3 102.5 64.1 90.0 C 79.9 77.5 87.6 51.9 81.3 32.9 C 74.9 13.9 57.0 8.6 41.2 21.2 " fill="#FFF1B4"></path><path d="M 53.7 19.7 C 64.5 17.4 74.0 23.7 78.0 35.7 C 83.5 52.4 76.8 74.9 62.9 85.9 C 59.3 88.8 55.5 90.7 51.6 91.5 C 40.8 93.7 31.3 87.5 27.3 75.5 C 21.8 58.8 28.5 36.2 42.4 25.2 C 46.0 22.4 49.8 20.5 53.7 19.7 M 51.3 95.9 C 55.6 95.0 59.8 92.9 63.9 89.7 C 79.5 77.3 87.2 51.9 80.9 33.0 C 76.5 19.7 65.9 12.7 54.0 15.2 C 49.7 16.1 45.5 18.2 41.4 21.4 C 25.8 33.9 18.1 59.3 24.4 78.1 C 28.8 91.4 39.4 98.4 51.3 95.9 " fill="#FFF1B4"></path><path d="M 25.0 79.7 C 25.8 78.5 26.7 77.4 27.6 76.2 C 31.7 87.7 41.1 93.7 51.6 91.5 C 55.5 90.7 59.3 88.8 62.9 85.9 C 76.8 74.9 83.5 52.4 78.0 35.7 C 76.5 31.1 74.2 27.4 71.3 24.7 C 71.7 23.0 72.0 21.3 72.2 19.6 C 76.0 22.8 79.0 27.3 80.9 33.0 C 87.2 51.9 79.5 77.3 63.9 89.7 C 59.8 92.9 55.6 95.0 51.3 95.9 C 39.9 98.3 29.7 92.0 25.0 79.7 " fill="#FCDE53"></path></g></g></g></g></g></svg>