<?xml version="1.0" encoding="UTF-8"?><svg xmlns="http://www.w3.org/2000/svg" xmlns:xlink="http://www.w3.org/1999/xlink" clip-rule="evenodd" stroke-miterlimit="4.00" viewBox="0 0 36 43"><desc>SVG generated by Keynote</desc><defs></defs><g transform="matrix(1.00, 0.00, -0.00, -1.00, 0.0, 43.0)"><g><clipPath id="clip-410"><path d="M 1.7 1.9 L 34.7 1.9 L 34.7 41.8 L 1.7 41.8 Z M 1.7 1.9 "></path></clipPath><g clip-path="url(#clip-410)"><path d="M 19.5 18.5 C 19.5 18.5 19.5 18.5 19.5 18.5 C 19.5 18.5 19.5 18.5 19.5 18.5 C 19.4 18.6 19.3 18.7 19.1 18.8 C 18.9 18.9 18.7 19.1 18.6 19.2 C 18.5 19.2 18.5 19.2 18.5 19.2 C 18.4 19.3 18.2 19.5 18.1 19.6 C 18.1 19.6 18.0 19.6 18.0 19.6 C 17.9 19.7 17.9 19.8 17.8 19.8 C 17.8 19.9 17.8 19.9 17.7 19.9 C 17.7 20.0 17.6 20.1 17.5 20.1 C 17.5 20.1 17.5 20.1 17.5 20.2 C 17.5 20.2 17.5 20.2 17.4 20.3 C 17.4 20.3 17.4 20.4 17.3 20.4 C 17.3 20.4 17.3 20.5 17.3 20.5 C 17.2 20.5 17.2 20.6 17.2 20.7 C 17.2 20.7 17.1 20.7 17.1 20.8 C 17.1 20.8 17.1 20.9 17.0 21.0 C 17.0 21.0 17.0 21.0 17.0 21.1 C 16.9 21.1 16.9 21.2 16.9 21.3 C 16.9 21.3 16.9 21.4 16.8 21.5 C 16.8 21.5 16.8 21.6 16.8 21.6 C 16.7 21.8 16.7 21.9 16.7 22.1 C 16.7 22.2 16.7 22.3 16.7 22.3 C 16.7 22.4 16.7 22.4 16.7 22.5 C 16.6 22.5 16.6 22.5 16.6 22.5 C 16.6 22.6 16.6 22.7 16.6 22.8 C 16.6 22.9 16.6 22.9 16.6 23.0 C 16.6 23.1 16.6 23.1 16.6 23.2 C 16.7 23.3 16.7 23.3 16.7 23.4 C 16.7 23.5 16.7 23.6 16.7 23.7 C 16.7 23.7 16.7 23.8 16.7 23.8 C 16.7 24.0 16.8 24.2 16.8 24.5 C 16.8 24.6 16.9 24.8 16.9 24.9 C 16.9 25.0 16.9 25.0 16.9 25.0 C 16.9 25.0 16.9 25.1 17.0 25.1 C 17.1 24.9 17.3 24.8 17.5 24.7 C 17.8 24.5 18.0 24.4 18.2 24.2 C 18.2 24.2 18.3 24.2 18.3 24.1 C 18.4 24.0 18.5 23.9 18.7 23.8 C 18.7 23.8 18.7 23.8 18.7 23.8 C 18.8 23.7 18.9 23.6 19.0 23.5 C 19.0 23.5 19.0 23.5 19.0 23.5 C 19.1 23.4 19.1 23.4 19.2 23.3 C 19.2 23.2 19.3 23.2 19.3 23.2 C 19.3 23.1 19.4 23.1 19.4 23.0 C 19.4 23.0 19.5 22.9 19.5 22.9 C 19.5 22.8 19.5 22.8 19.6 22.8 C 19.6 22.7 19.6 22.6 19.7 22.5 C 19.7 22.5 19.7 22.5 19.7 22.5 C 19.8 22.4 19.8 22.3 19.8 22.2 C 19.9 22.1 19.9 22.0 19.9 21.8 C 19.9 21.8 19.9 21.8 19.9 21.8 C 20.0 21.7 20.0 21.5 20.0 21.4 C 20.0 21.3 20.1 21.2 20.1 21.2 C 20.1 21.1 20.1 21.1 20.1 21.0 C 20.1 20.9 20.1 20.8 20.1 20.7 C 20.1 20.7 20.1 20.7 20.1 20.6 C 20.1 20.5 20.1 20.3 20.1 20.2 C 20.1 20.2 20.1 20.1 20.1 20.1 C 20.1 20.0 20.0 19.9 20.0 19.7 C 20.0 19.5 20.0 19.3 19.9 19.1 C 19.9 19.0 19.9 18.8 19.8 18.7 C 19.8 18.6 19.8 18.6 19.8 18.5 C 19.8 18.5 19.8 18.4 19.7 18.4 C 19.7 18.4 19.7 18.4 19.7 18.4 C 19.7 18.4 19.7 18.4 19.6 18.4 C 19.6 18.4 19.6 18.5 19.5 18.5 M 20.5 29.2 C 20.5 29.3 20.5 29.3 20.6 29.3 C 20.7 29.4 20.9 29.4 21.1 29.5 C 21.2 29.5 21.2 29.5 21.3 29.5 C 21.3 29.5 21.3 29.5 21.3 29.5 L 21.0 28.4 L 19.9 28.9 C 19.9 29.0 19.9 29.0 20.0 29.0 C 20.1 29.1 20.3 29.2 20.5 29.2 M 14.6 12.8 L 14.5 12.8 L 15.1 14.9 L 16.6 14.1 C 16.6 14.1 16.5 14.1 16.5 14.1 C 16.4 14.0 16.2 13.9 16.0 13.8 C 16.0 13.8 15.9 13.8 15.9 13.8 C 15.8 13.7 15.6 13.7 15.5 13.6 C 15.4 13.6 15.4 13.6 15.3 13.6 C 15.1 13.5 14.9 13.5 14.7 13.4 Z M 10.1 14.1 C 10.1 14.1 10.1 14.1 10.1 14.1 C 10.2 14.1 10.2 14.1 10.2 14.0 L 10.2 14.0 C 10.3 14.0 10.4 14.0 10.5 13.9 C 10.5 13.9 10.5 13.9 10.5 13.9 C 10.5 13.9 10.6 13.8 10.6 13.8 L 13.3 12.6 L 13.0 11.2 L 17.3 9.2 L 18.5 9.3 L 19.0 11.4 C 19.2 11.4 19.4 11.5 19.6 11.6 C 19.6 11.6 19.7 11.6 19.7 11.6 C 19.9 11.7 20.0 11.7 20.2 11.8 C 20.2 11.8 20.2 11.8 20.3 11.8 C 20.4 11.9 20.6 12.0 20.8 12.1 C 20.8 12.1 20.9 12.2 20.9 12.2 C 21.0 12.3 21.2 12.4 21.3 12.5 C 21.3 12.5 21.4 12.5 21.4 12.5 C 21.4 12.5 21.4 12.5 21.5 12.6 C 21.5 12.6 21.6 12.7 21.7 12.8 C 21.7 12.8 21.8 12.8 21.8 12.9 C 21.8 12.9 21.8 12.9 21.9 12.9 C 21.9 12.9 21.9 13.0 22.0 13.0 C 22.0 13.0 22.1 13.1 22.1 13.1 C 22.1 13.2 22.2 13.2 22.2 13.2 C 22.2 13.3 22.3 13.3 22.3 13.3 C 22.3 13.3 22.3 13.4 22.4 13.4 C 22.4 13.5 22.5 13.5 22.6 13.6 C 22.6 13.6 22.6 13.6 22.6 13.6 C 22.6 13.7 22.6 13.7 22.6 13.7 C 22.6 13.7 22.7 13.8 22.7 13.9 C 22.8 13.9 22.8 14.0 22.9 14.0 C 22.9 14.1 22.9 14.1 22.9 14.1 C 22.9 14.1 22.9 14.1 22.9 14.1 C 23.0 14.1 23.0 14.2 23.1 14.3 C 23.1 14.4 23.1 14.4 23.2 14.5 C 23.2 14.5 23.2 14.5 23.2 14.5 C 23.2 14.5 23.2 14.5 23.2 14.5 C 23.2 14.6 23.3 14.7 23.3 14.7 C 23.4 14.8 23.4 14.9 23.4 15.0 L 23.4 15.0 C 23.4 15.0 23.4 15.0 23.4 15.0 C 23.5 15.0 23.5 15.1 23.6 15.2 C 23.6 15.3 23.6 15.4 23.7 15.4 C 23.7 15.5 23.7 15.5 23.7 15.5 C 23.7 15.5 23.7 15.5 23.7 15.5 C 23.7 15.6 23.8 15.7 23.8 15.8 C 23.8 15.8 23.8 15.9 23.9 15.9 C 23.9 16.0 23.9 16.0 23.9 16.0 C 23.9 16.0 23.9 16.1 23.9 16.1 C 24.0 16.2 24.0 16.4 24.0 16.5 L 24.0 16.5 C 24.1 16.6 24.1 16.6 24.1 16.7 C 24.1 16.8 24.1 16.9 24.2 17.0 C 24.2 17.0 24.2 17.1 24.2 17.1 C 24.2 17.3 24.3 17.5 24.3 17.7 C 24.3 17.7 24.3 17.8 24.3 17.8 C 24.3 17.9 24.3 18.0 24.3 18.1 C 24.3 18.1 24.3 18.1 24.3 18.2 C 24.3 18.3 24.3 18.5 24.3 18.6 C 24.3 18.7 24.3 18.7 24.3 18.7 C 24.3 18.8 24.3 18.9 24.3 19.0 C 24.3 19.1 24.3 19.1 24.3 19.2 C 24.3 19.2 24.3 19.3 24.3 19.3 C 24.3 19.3 24.3 19.4 24.3 19.4 C 24.3 19.5 24.2 19.7 24.2 19.8 C 24.2 19.8 24.2 19.8 24.2 19.8 L 24.2 19.8 C 24.2 20.0 24.1 20.1 24.1 20.2 C 24.1 20.2 24.1 20.2 24.1 20.2 C 24.0 20.3 24.0 20.4 24.0 20.5 C 24.0 20.5 24.0 20.5 24.0 20.5 C 24.0 20.5 23.9 20.5 23.9 20.5 C 23.9 20.6 23.9 20.7 23.8 20.8 C 23.8 20.8 23.8 20.8 23.8 20.8 C 23.8 20.8 23.8 20.8 23.8 20.9 C 23.7 20.9 23.7 21.0 23.7 21.0 C 23.7 21.0 23.7 21.0 23.6 21.0 C 23.6 21.1 23.6 21.1 23.5 21.2 C 23.5 21.2 23.5 21.2 23.5 21.3 C 23.5 21.3 23.5 21.3 23.5 21.3 C 23.4 21.4 23.3 21.4 23.3 21.5 C 23.3 21.5 23.2 21.5 23.2 21.5 C 23.2 21.5 23.2 21.5 23.2 21.5 C 23.2 21.6 23.1 21.7 23.0 21.8 C 23.0 21.8 23.0 21.8 22.9 21.8 C 22.9 21.8 22.9 21.8 22.9 21.8 C 22.8 21.9 22.7 22.0 22.5 22.1 C 22.5 22.1 22.5 22.1 22.5 22.2 C 22.5 22.2 22.5 22.2 22.5 22.2 C 22.3 22.3 22.0 22.5 21.8 22.7 C 21.5 22.8 21.3 23.0 21.1 23.1 C 21.1 23.1 21.1 23.1 21.1 23.2 C 21.0 23.2 20.9 23.3 20.8 23.4 C 20.8 23.4 20.7 23.4 20.7 23.4 C 20.7 23.5 20.6 23.5 20.6 23.6 C 20.6 23.6 20.5 23.6 20.5 23.7 C 20.5 23.7 20.5 23.7 20.4 23.7 C 20.4 23.8 20.4 23.8 20.3 23.9 C 20.3 23.9 20.3 23.9 20.3 23.9 C 20.3 24.0 20.2 24.0 20.2 24.1 C 20.2 24.1 20.2 24.1 20.2 24.1 C 20.2 24.2 20.1 24.2 20.1 24.3 C 20.1 24.3 20.1 24.3 20.1 24.3 C 20.1 24.4 20.1 24.4 20.1 24.5 C 20.1 24.5 20.1 24.6 20.0 24.6 C 20.0 24.7 20.0 24.7 20.0 24.7 C 20.0 24.8 20.0 24.9 20.0 25.1 C 20.0 25.1 20.1 25.2 20.1 25.3 C 20.1 25.5 20.1 25.6 20.2 25.7 C 20.2 25.7 20.2 25.8 20.2 25.8 C 20.2 25.9 20.3 26.0 20.4 26.1 L 20.4 26.1 C 20.4 26.3 20.5 26.4 20.6 26.5 L 20.6 26.5 C 20.6 26.5 20.6 26.5 20.6 26.5 L 23.5 25.1 L 24.9 25.2 L 26.0 29.3 L 23.4 30.6 L 23.7 32.2 L 19.5 34.2 L 18.2 34.1 L 17.7 31.7 C 17.4 31.6 17.2 31.6 17.0 31.5 C 17.0 31.5 16.9 31.5 16.9 31.5 C 16.7 31.4 16.5 31.4 16.3 31.3 C 16.3 31.3 16.2 31.3 16.2 31.2 C 16.0 31.2 15.9 31.1 15.7 31.0 C 15.7 31.0 15.6 31.0 15.6 30.9 C 15.4 30.8 15.2 30.7 15.1 30.6 C 15.0 30.6 15.0 30.6 15.0 30.6 C 15.0 30.5 14.9 30.5 14.9 30.5 C 14.8 30.4 14.8 30.4 14.7 30.3 C 14.7 30.3 14.7 30.3 14.6 30.3 C 14.6 30.2 14.5 30.2 14.5 30.1 C 14.5 30.1 14.4 30.1 14.4 30.0 C 14.4 30.0 14.4 30.0 14.4 30.0 C 14.3 29.9 14.2 29.9 14.2 29.8 C 14.2 29.8 14.1 29.8 14.1 29.7 C 14.1 29.7 14.1 29.7 14.1 29.7 C 14.0 29.7 14.0 29.6 14.0 29.6 C 13.9 29.5 13.9 29.5 13.8 29.4 C 13.8 29.4 13.8 29.4 13.8 29.4 C 13.8 29.3 13.8 29.3 13.8 29.3 C 13.7 29.3 13.7 29.2 13.7 29.2 C 13.6 29.1 13.6 29.1 13.6 29.0 C 13.6 29.0 13.5 29.0 13.5 29.0 C 13.5 28.9 13.5 28.9 13.5 28.9 C 13.5 28.9 13.5 28.9 13.4 28.8 C 13.4 28.8 13.4 28.7 13.3 28.6 C 13.3 28.6 13.3 28.6 13.3 28.5 C 13.3 28.5 13.3 28.5 13.3 28.5 C 13.2 28.5 13.2 28.4 13.2 28.4 C 13.2 28.3 13.1 28.3 13.1 28.2 C 13.1 28.2 13.1 28.1 13.1 28.1 C 13.0 28.1 13.0 28.0 13.0 28.0 C 13.0 28.0 13.0 28.0 13.0 28.0 C 13.0 27.9 12.9 27.8 12.9 27.7 C 12.9 27.7 12.9 27.6 12.9 27.6 C 12.9 27.6 12.8 27.5 12.8 27.5 C 12.8 27.5 12.8 27.4 12.8 27.4 C 12.8 27.3 12.7 27.2 12.7 27.1 C 12.7 27.1 12.7 27.0 12.7 27.0 C 12.7 27.0 12.7 27.0 12.7 26.9 C 12.6 26.8 12.6 26.7 12.6 26.6 C 12.6 26.6 12.6 26.5 12.6 26.5 C 12.5 26.3 12.5 26.0 12.5 25.8 C 12.4 25.8 12.4 25.8 12.4 25.8 C 12.4 25.7 12.4 25.7 12.4 25.7 C 12.4 25.6 12.4 25.5 12.4 25.4 C 12.4 25.4 12.4 25.3 12.4 25.2 C 12.4 25.1 12.4 25.1 12.4 25.0 C 12.4 24.9 12.4 24.9 12.4 24.8 C 12.4 24.8 12.4 24.7 12.4 24.7 C 12.4 24.6 12.4 24.6 12.4 24.5 C 12.4 24.5 12.4 24.5 12.4 24.5 C 12.4 24.5 12.4 24.5 12.4 24.4 L 12.4 24.4 L 12.4 24.4 C 12.4 24.4 12.4 24.4 12.4 24.4 C 12.4 24.3 12.4 24.2 12.4 24.1 C 12.4 24.1 12.4 24.1 12.4 24.1 C 12.5 23.9 12.5 23.8 12.5 23.6 C 12.5 23.6 12.5 23.6 12.5 23.6 C 12.5 23.5 12.6 23.5 12.6 23.5 C 12.6 23.4 12.6 23.3 12.6 23.3 C 12.6 23.3 12.6 23.2 12.6 23.2 C 12.7 23.2 12.7 23.1 12.7 23.1 C 12.7 23.1 12.7 23.0 12.8 23.0 C 12.8 23.0 12.8 22.9 12.8 22.9 C 12.8 22.9 12.8 22.8 12.9 22.8 C 12.9 22.7 12.9 22.7 12.9 22.7 C 12.9 22.7 12.9 22.7 12.9 22.7 C 13.0 22.6 13.0 22.5 13.0 22.5 C 13.1 22.5 13.1 22.4 13.1 22.4 C 13.1 22.4 13.1 22.4 13.1 22.4 C 13.1 22.4 13.1 22.3 13.2 22.3 C 13.2 22.2 13.2 22.2 13.3 22.2 C 13.3 22.2 13.3 22.2 13.3 22.2 C 13.3 22.2 13.3 22.1 13.3 22.1 C 13.3 22.1 13.4 22.0 13.5 21.9 C 13.5 21.9 13.5 21.9 13.5 21.9 C 13.5 21.9 13.5 21.9 13.5 21.9 C 13.6 21.8 13.7 21.7 13.8 21.6 C 13.8 21.6 13.8 21.6 13.8 21.6 C 13.8 21.6 13.8 21.6 13.8 21.6 C 14.0 21.5 14.1 21.4 14.2 21.2 C 14.3 21.2 14.3 21.2 14.3 21.2 C 14.3 21.2 14.3 21.2 14.3 21.2 C 14.5 21.1 14.7 20.9 14.9 20.8 C 15.1 20.7 15.2 20.5 15.4 20.4 L 15.5 20.3 C 15.6 20.3 15.7 20.2 15.7 20.2 C 15.8 20.1 15.8 20.1 15.9 20.0 C 15.9 20.0 15.9 20.0 15.9 20.0 C 16.0 19.9 16.1 19.8 16.1 19.8 L 16.2 19.7 C 16.2 19.7 16.3 19.6 16.3 19.5 C 16.4 19.5 16.4 19.5 16.4 19.4 C 16.4 19.3 16.5 19.2 16.5 19.1 C 16.5 19.1 16.5 19.1 16.5 19.1 C 16.6 19.0 16.6 18.9 16.6 18.8 C 16.6 18.8 16.6 18.8 16.6 18.7 C 16.6 18.7 16.6 18.6 16.6 18.6 C 16.6 18.5 16.6 18.4 16.6 18.3 C 16.6 18.1 16.6 18.0 16.6 17.9 C 16.5 17.7 16.5 17.6 16.4 17.4 C 16.4 17.4 16.4 17.4 16.4 17.4 C 16.4 17.3 16.3 17.1 16.3 17.0 C 16.3 17.0 16.3 17.0 16.3 17.0 C 16.2 16.9 16.2 16.9 16.1 16.8 L 12.6 18.5 L 11.2 18.4 L 10.1 14.1 C 10.1 14.1 10.1 14.1 10.1 14.1 C 10.1 14.1 10.1 14.1 10.1 14.1 " fill="#855F13"></path><path d="M 10.9 6.4 C 10.9 6.4 10.9 6.4 10.9 6.4 C 10.8 6.5 10.6 6.6 10.5 6.7 C 10.5 6.8 10.4 6.9 10.3 7.0 C 10.3 7.0 10.2 7.1 10.1 7.2 C 10.1 7.3 10.0 7.4 9.9 7.5 C 9.9 7.6 9.8 7.7 9.7 7.8 C 9.7 7.9 9.6 8.0 9.5 8.1 C 9.5 8.2 9.4 8.3 9.4 8.4 C 9.3 8.5 9.2 8.7 9.1 8.8 C 9.1 8.9 9.1 9.0 9.0 9.1 C 8.9 9.3 8.8 9.6 8.7 9.8 C 8.7 9.9 8.7 9.9 8.7 9.9 C 8.6 10.2 8.5 10.5 8.4 10.9 C 8.3 11.0 8.3 11.1 8.3 11.2 C 8.3 11.3 8.2 11.5 8.2 11.6 C 8.2 11.8 8.1 11.9 8.1 12.0 C 8.1 12.2 8.0 12.3 8.0 12.5 C 8.0 12.6 8.0 12.7 8.0 12.8 C 7.9 13.2 7.9 13.5 7.9 13.9 C 7.9 14.0 7.8 14.0 7.8 14.1 C 7.8 14.4 7.8 14.7 7.8 15.0 C 7.8 15.1 7.8 15.2 7.8 15.3 C 7.8 15.7 7.8 16.0 7.8 16.4 C 7.8 16.4 7.8 16.5 7.9 16.5 C 7.9 16.9 7.9 17.3 8.0 17.7 C 8.0 17.9 8.0 18.1 8.0 18.3 C 8.1 18.4 8.1 18.5 8.1 18.6 C 8.1 18.9 8.2 19.2 8.2 19.5 C 8.3 19.7 8.3 19.9 8.4 20.1 C 8.5 20.4 8.5 20.8 8.6 21.1 C 8.7 21.2 8.7 21.3 8.7 21.5 C 8.8 21.8 8.9 22.1 9.0 22.4 C 9.0 22.4 9.1 22.5 9.1 22.6 C 9.2 22.9 9.3 23.3 9.4 23.6 C 9.4 23.6 9.5 23.6 9.5 23.6 C 9.5 23.7 9.5 23.7 9.5 23.7 C 9.6 24.0 9.7 24.3 9.9 24.6 C 9.9 24.7 9.9 24.8 9.9 24.8 C 10.0 25.1 10.2 25.3 10.3 25.6 C 10.3 25.7 10.4 25.8 10.4 25.9 C 10.5 26.1 10.6 26.3 10.7 26.5 C 10.8 26.6 10.9 26.7 10.9 26.8 C 11.0 27.0 11.1 27.2 11.2 27.4 C 11.3 27.5 11.3 27.6 11.4 27.7 C 11.5 27.9 11.6 28.1 11.7 28.3 C 11.8 28.4 11.9 28.5 11.9 28.6 C 12.1 28.8 12.2 28.9 12.3 29.1 C 12.3 29.2 12.4 29.3 12.5 29.5 C 12.6 29.6 12.7 29.8 12.8 29.9 C 12.9 30.0 13.0 30.2 13.1 30.3 C 13.2 30.4 13.3 30.6 13.4 30.7 C 13.5 30.8 13.6 31.0 13.7 31.1 C 13.8 31.2 13.9 31.3 14.0 31.5 C 14.2 31.6 14.3 31.7 14.4 31.9 C 14.5 32.0 14.6 32.1 14.7 32.2 C 14.9 32.4 15.0 32.5 15.2 32.7 C 15.3 32.8 15.4 32.9 15.4 33.0 C 15.7 33.2 15.9 33.4 16.2 33.7 C 16.2 33.7 16.3 33.7 16.3 33.8 C 16.6 34.1 17.0 34.4 17.4 34.6 C 17.5 34.8 17.7 34.9 17.9 35.0 C 18.0 35.1 18.1 35.1 18.1 35.2 C 18.4 35.4 18.7 35.5 19.0 35.7 C 19.0 35.7 19.0 35.7 19.0 35.7 C 19.3 35.9 19.5 36.0 19.8 36.2 C 19.9 36.2 20.0 36.3 20.1 36.3 C 20.3 36.4 20.5 36.5 20.7 36.6 C 20.8 36.6 20.9 36.7 21.0 36.7 C 21.2 36.8 21.4 36.8 21.6 36.9 C 21.7 36.9 21.8 37.0 21.9 37.0 C 22.1 37.1 22.3 37.1 22.5 37.2 C 22.6 37.2 22.7 37.2 22.8 37.2 C 23.1 37.3 23.4 37.3 23.6 37.4 C 24.3 37.4 25.0 37.4 25.6 37.4 C 25.6 37.3 25.6 37.3 25.7 37.2 C 25.9 37.1 26.0 36.9 26.2 36.7 C 26.2 36.7 26.2 36.7 26.2 36.7 C 26.4 36.5 26.5 36.2 26.7 36.0 C 26.7 35.9 26.8 35.9 26.8 35.8 C 26.9 35.6 27.0 35.5 27.1 35.3 C 27.2 35.2 27.2 35.1 27.3 35.0 C 27.4 34.8 27.4 34.7 27.5 34.5 C 27.6 34.4 27.6 34.2 27.7 34.1 C 27.7 33.9 27.8 33.8 27.8 33.7 C 27.9 33.4 28.0 33.2 28.1 33.0 C 28.1 32.8 28.1 32.7 28.2 32.6 C 28.2 32.4 28.2 32.3 28.3 32.2 C 28.3 32.0 28.4 31.8 28.4 31.6 C 28.4 31.5 28.4 31.3 28.5 31.2 C 28.5 31.0 28.5 30.9 28.5 30.7 C 28.6 30.5 28.6 30.3 28.6 30.0 C 28.6 29.9 28.6 29.7 28.6 29.5 C 28.6 29.3 28.6 29.1 28.7 28.8 C 28.7 28.7 28.7 28.5 28.7 28.3 C 28.7 28.1 28.6 27.8 28.6 27.6 C 28.6 27.4 28.6 27.2 28.6 27.0 C 28.6 26.8 28.6 26.5 28.5 26.3 C 28.5 26.1 28.5 25.9 28.5 25.7 C 28.4 25.6 28.4 25.5 28.4 25.4 C 28.4 25.0 28.3 24.6 28.2 24.2 C 28.2 24.1 28.1 23.9 28.1 23.7 C 28.0 23.3 27.9 22.9 27.8 22.4 C 27.8 22.4 27.7 22.3 27.7 22.2 C 27.6 21.9 27.6 21.6 27.5 21.3 C 27.4 21.2 27.4 21.1 27.4 21.0 C 27.3 20.7 27.1 20.4 27.0 20.1 C 27.0 20.1 27.0 20.1 27.0 20.1 C 26.9 19.8 26.8 19.5 26.7 19.2 C 26.6 19.1 26.6 19.0 26.5 18.9 C 26.4 18.7 26.4 18.5 26.3 18.3 C 26.2 18.2 26.2 18.1 26.1 18.0 C 26.0 17.8 26.0 17.6 25.9 17.5 C 25.8 17.4 25.8 17.3 25.7 17.1 C 25.6 17.0 25.5 16.8 25.4 16.7 C 25.4 16.6 25.3 16.5 25.3 16.3 C 25.2 16.2 25.1 16.0 25.0 15.9 C 24.9 15.8 24.9 15.7 24.8 15.6 C 24.7 15.4 24.6 15.2 24.5 15.0 C 24.4 15.0 24.4 14.9 24.3 14.8 C 24.2 14.6 24.0 14.3 23.8 14.1 C 23.8 14.0 23.8 14.0 23.8 14.0 C 23.6 13.8 23.5 13.5 23.3 13.3 C 23.2 13.3 23.2 13.2 23.1 13.1 C 23.0 12.9 22.9 12.8 22.7 12.6 C 22.7 12.5 22.6 12.4 22.5 12.4 C 22.4 12.2 22.2 12.0 22.0 11.8 C 22.0 11.8 21.9 11.7 21.9 11.6 C 21.7 11.4 21.4 11.1 21.2 10.9 C 21.1 10.9 21.1 10.8 21.0 10.8 C 20.8 10.5 20.5 10.3 20.2 10.0 C 20.2 10.0 20.2 10.0 20.2 10.0 C 19.8 9.6 19.4 9.3 19.0 9.0 C 19.0 9.0 19.0 9.0 19.0 9.0 C 18.7 8.8 18.5 8.7 18.3 8.5 C 18.2 8.5 18.2 8.4 18.1 8.4 C 17.9 8.3 17.8 8.2 17.6 8.1 C 17.5 8.0 17.4 8.0 17.4 7.9 C 17.2 7.8 17.0 7.8 16.9 7.7 C 16.8 7.6 16.7 7.6 16.7 7.5 C 16.4 7.4 16.2 7.3 15.9 7.2 C 15.9 7.2 15.9 7.2 15.9 7.2 C 15.7 7.1 15.5 7.0 15.2 6.9 C 15.2 6.9 15.1 6.9 15.0 6.9 C 14.8 6.8 14.7 6.7 14.5 6.7 C 14.4 6.7 14.3 6.7 14.3 6.6 C 14.1 6.6 13.9 6.5 13.8 6.5 C 13.7 6.5 13.6 6.5 13.5 6.5 C 13.3 6.4 13.1 6.4 12.8 6.4 C 12.2 6.3 11.5 6.3 10.9 6.4 M 32.9 35.3 C 32.8 35.4 32.7 35.5 32.6 35.6 C 32.6 35.7 32.5 35.8 32.5 35.9 C 32.5 36.0 32.4 36.0 32.4 36.0 C 32.3 36.2 32.1 36.5 31.9 36.7 C 31.9 36.7 31.9 36.7 31.9 36.7 C 31.9 36.7 31.9 36.7 31.9 36.7 C 31.8 36.9 31.6 37.0 31.4 37.2 C 31.4 37.3 31.4 37.3 31.3 37.3 C 31.3 37.4 31.2 37.4 31.2 37.5 C 31.1 37.6 31.0 37.7 30.9 37.7 C 30.8 37.8 30.8 37.9 30.7 37.9 C 30.6 38.0 30.5 38.0 30.5 38.1 C 30.4 38.1 30.4 38.1 30.4 38.2 C 30.2 38.3 30.0 38.4 29.8 38.6 C 29.8 38.6 29.8 38.6 29.8 38.6 C 29.8 38.6 29.7 38.6 29.7 38.6 C 29.5 38.7 29.4 38.8 29.2 38.9 C 29.1 39.0 29.0 39.0 28.9 39.0 L 24.7 41.1 C 24.9 40.9 25.2 40.8 25.4 40.6 C 25.5 40.6 25.5 40.6 25.5 40.6 C 25.8 40.4 26.0 40.3 26.2 40.1 C 26.3 40.0 26.4 40.0 26.4 39.9 C 26.6 39.8 26.7 39.7 26.9 39.5 C 27.0 39.4 27.0 39.4 27.1 39.3 C 27.3 39.1 27.5 38.9 27.7 38.7 C 27.7 38.7 27.7 38.7 27.7 38.7 C 27.9 38.4 28.0 38.2 28.2 37.9 C 28.3 37.8 28.3 37.7 28.4 37.7 C 28.5 37.5 28.6 37.3 28.7 37.1 C 28.8 37.0 28.8 36.9 28.9 36.7 C 29.0 36.6 29.1 36.4 29.2 36.2 C 29.2 36.1 29.3 35.9 29.3 35.8 C 29.3 35.8 29.2 35.9 29.2 35.9 C 29.2 35.9 29.1 36.0 29.1 36.0 C 28.9 36.1 28.8 36.2 28.6 36.3 C 28.6 36.3 28.6 36.3 28.6 36.3 C 28.6 36.3 28.5 36.4 28.5 36.4 C 28.4 36.5 28.2 36.5 28.1 36.6 C 28.0 36.7 27.9 36.7 27.8 36.7 L 23.6 38.7 C 23.6 38.7 23.6 38.7 23.6 38.7 C 23.3 38.9 23.0 39.0 22.6 39.1 C 21.7 39.4 20.6 39.5 19.4 39.4 C 19.1 39.3 18.8 39.3 18.5 39.2 C 18.4 39.2 18.3 39.2 18.2 39.2 C 18.0 39.1 17.8 39.1 17.6 39.0 C 17.5 39.0 17.4 38.9 17.3 38.9 C 17.1 38.8 16.9 38.8 16.8 38.7 C 16.7 38.7 16.5 38.6 16.4 38.6 C 16.2 38.5 16.0 38.4 15.8 38.3 C 15.8 38.3 15.7 38.2 15.6 38.2 C 15.3 38.0 15.0 37.9 14.7 37.7 C 14.7 37.7 14.7 37.7 14.7 37.7 C 14.4 37.5 14.2 37.4 13.9 37.2 C 13.8 37.1 13.7 37.1 13.6 37.0 C 13.5 36.9 13.4 36.8 13.2 36.7 C 13.2 36.7 13.2 36.7 13.1 36.6 C 12.8 36.4 12.4 36.1 12.1 35.8 C 12.1 35.8 12.0 35.8 12.0 35.8 C 12.0 35.8 12.0 35.8 12.0 35.8 C 12.0 35.7 12.0 35.7 11.9 35.7 C 11.7 35.4 11.4 35.2 11.2 35.0 C 11.2 34.9 11.1 34.9 11.1 34.9 C 11.0 34.8 11.0 34.8 10.9 34.7 C 10.8 34.5 10.6 34.4 10.5 34.2 C 10.4 34.2 10.3 34.1 10.3 34.0 C 10.2 34.0 10.2 33.9 10.2 33.9 C 10.0 33.7 9.9 33.6 9.8 33.5 C 9.7 33.4 9.7 33.3 9.6 33.2 C 9.6 33.2 9.5 33.1 9.5 33.1 C 9.4 33.0 9.3 32.8 9.2 32.7 C 9.1 32.6 9.0 32.5 9.0 32.5 C 8.9 32.4 8.9 32.3 8.8 32.3 C 8.8 32.2 8.7 32.0 8.6 31.9 C 8.5 31.8 8.4 31.8 8.4 31.7 C 8.3 31.6 8.3 31.5 8.3 31.5 C 8.2 31.3 8.1 31.2 8.0 31.1 C 8.0 31.0 7.9 31.0 7.9 30.9 C 7.8 30.8 7.7 30.7 7.7 30.6 C 7.6 30.5 7.5 30.4 7.5 30.3 C 7.4 30.2 7.4 30.1 7.4 30.1 C 7.3 30.0 7.2 29.9 7.2 29.8 C 7.1 29.6 7.0 29.5 7.0 29.4 C 6.9 29.4 6.9 29.3 6.9 29.3 C 6.8 29.1 6.7 29.0 6.7 28.9 C 6.6 28.7 6.5 28.6 6.5 28.5 C 6.5 28.5 6.4 28.5 6.4 28.4 C 6.3 28.3 6.3 28.1 6.2 27.9 C 6.1 27.8 6.1 27.7 6.0 27.6 C 6.0 27.6 6.0 27.6 6.0 27.5 C 5.9 27.3 5.8 27.1 5.7 26.8 C 5.6 26.8 5.6 26.7 5.6 26.6 C 5.6 26.6 5.6 26.6 5.6 26.6 C 5.5 26.3 5.3 26.0 5.2 25.7 C 5.2 25.7 5.2 25.7 5.2 25.7 C 5.2 25.6 5.2 25.6 5.2 25.6 C 5.1 25.3 4.9 25.0 4.8 24.6 C 4.8 24.6 4.8 24.6 4.8 24.6 C 4.8 24.5 4.8 24.4 4.8 24.4 C 4.7 24.1 4.6 23.8 4.5 23.5 C 4.5 23.4 4.4 23.4 4.4 23.4 C 4.4 23.3 4.4 23.2 4.4 23.1 C 4.3 22.8 4.2 22.4 4.1 22.1 C 4.1 22.0 4.1 22.0 4.1 21.9 C 4.0 21.8 4.0 21.6 4.0 21.5 C 3.9 21.2 3.9 20.9 3.8 20.6 C 3.8 20.5 3.8 20.4 3.8 20.3 C 3.8 20.1 3.7 20.0 3.7 19.8 C 3.7 19.8 3.7 19.7 3.7 19.7 C 3.7 19.3 3.6 18.9 3.6 18.5 C 3.6 18.5 3.6 18.4 3.6 18.4 C 3.6 18.0 3.6 17.7 3.6 17.3 C 3.6 17.2 3.6 17.1 3.6 17.0 C 3.6 16.7 3.6 16.4 3.6 16.1 C 3.6 16.0 3.6 16.0 3.6 15.9 C 3.6 15.5 3.7 15.2 3.7 14.8 C 3.7 14.8 3.7 14.8 3.7 14.8 C 3.7 14.7 3.7 14.6 3.8 14.5 C 3.8 14.3 3.8 14.2 3.8 14.0 C 3.9 13.9 3.9 13.8 3.9 13.6 C 4.0 13.5 4.0 13.3 4.0 13.2 C 4.0 13.1 4.1 13.1 4.1 13.0 C 4.1 13.0 4.1 12.9 4.1 12.9 C 4.2 12.5 4.3 12.2 4.4 11.9 C 4.4 11.9 4.4 11.9 4.4 11.9 C 4.4 11.9 4.4 11.9 4.4 11.9 C 4.5 11.6 4.7 11.3 4.8 11.1 C 4.8 11.1 4.8 11.0 4.8 11.0 C 4.8 10.9 4.9 10.9 4.9 10.8 C 5.0 10.7 5.0 10.5 5.1 10.4 C 5.1 10.3 5.2 10.3 5.2 10.3 C 5.2 10.2 5.2 10.2 5.3 10.1 C 5.3 10.0 5.4 9.9 5.5 9.8 C 5.5 9.7 5.6 9.7 5.6 9.6 C 5.6 9.6 5.6 9.6 5.7 9.5 C 5.7 9.4 5.8 9.3 5.9 9.2 C 5.9 9.2 6.0 9.1 6.0 9.1 C 6.0 9.0 6.1 9.0 6.1 9.0 C 6.1 8.9 6.1 8.9 6.2 8.9 C 6.2 8.8 6.2 8.8 6.3 8.8 C 6.3 8.7 6.4 8.6 6.4 8.6 C 6.5 8.5 6.6 8.5 6.6 8.4 C 6.7 8.3 6.7 8.3 6.8 8.2 C 6.8 8.2 6.9 8.2 6.9 8.1 C 7.0 8.0 7.1 8.0 7.2 7.9 C 7.3 7.8 7.3 7.8 7.3 7.8 C 7.3 7.8 7.4 7.8 7.4 7.7 C 7.5 7.6 7.7 7.5 7.9 7.4 C 7.9 7.4 7.9 7.4 7.9 7.4 C 8.0 7.3 8.0 7.3 8.1 7.3 C 8.2 7.2 8.3 7.2 8.4 7.1 C 8.5 7.1 8.5 7.0 8.6 7.0 L 8.6 7.0 L 12.9 5.0 C 13.4 4.7 14.0 4.6 14.6 4.4 C 14.5 4.4 14.4 4.4 14.3 4.3 C 14.2 4.3 14.1 4.3 14.0 4.3 C 13.8 4.2 13.6 4.2 13.4 4.1 C 13.3 4.1 13.2 4.1 13.2 4.1 C 12.9 4.0 12.6 4.0 12.3 3.9 C 10.6 3.7 8.9 4.0 7.5 4.7 L 11.8 2.7 C 13.2 2.0 14.8 1.7 16.6 1.9 C 16.9 2.0 17.1 2.0 17.4 2.1 C 17.5 2.1 17.6 2.1 17.7 2.1 C 17.9 2.2 18.1 2.2 18.3 2.3 C 18.3 2.3 18.4 2.3 18.5 2.3 C 18.7 2.4 18.9 2.5 19.1 2.5 C 19.2 2.6 19.3 2.6 19.4 2.6 C 19.6 2.7 19.9 2.8 20.2 2.9 C 20.2 2.9 20.2 2.9 20.2 2.9 C 20.5 3.0 20.7 3.2 21.0 3.3 C 21.1 3.4 21.2 3.4 21.2 3.4 C 21.4 3.5 21.6 3.6 21.8 3.8 C 21.9 3.8 22.0 3.9 22.1 3.9 C 22.3 4.0 22.4 4.1 22.6 4.3 C 22.7 4.3 22.8 4.4 22.9 4.4 C 23.1 4.6 23.4 4.8 23.6 4.9 C 23.6 5.0 23.6 5.0 23.7 5.0 C 23.7 5.0 23.7 5.0 23.7 5.0 C 23.9 5.1 24.1 5.3 24.3 5.5 C 24.4 5.6 24.5 5.6 24.5 5.7 C 24.7 5.8 24.9 5.9 25.0 6.1 C 25.0 6.1 25.0 6.1 25.0 6.1 C 25.1 6.1 25.1 6.1 25.1 6.1 C 25.4 6.4 25.7 6.7 26.0 7.0 C 26.0 7.0 26.1 7.1 26.1 7.1 C 26.1 7.1 26.2 7.1 26.2 7.2 C 26.5 7.4 26.7 7.7 27.0 8.0 C 27.0 8.0 27.0 8.0 27.0 8.0 C 27.1 8.1 27.1 8.1 27.2 8.2 C 27.3 8.4 27.5 8.6 27.7 8.8 C 27.7 8.9 27.8 8.9 27.8 9.0 C 27.9 9.0 27.9 9.1 27.9 9.1 C 28.1 9.3 28.2 9.5 28.4 9.7 C 28.4 9.8 28.5 9.8 28.5 9.9 C 28.6 9.9 28.6 9.9 28.6 10.0 C 28.8 10.2 28.9 10.4 29.1 10.6 C 29.1 10.7 29.2 10.7 29.2 10.8 C 29.2 10.8 29.2 10.8 29.2 10.8 C 29.4 11.1 29.6 11.3 29.8 11.6 C 29.8 11.6 29.8 11.7 29.8 11.7 C 29.9 11.7 29.9 11.8 30.0 11.9 C 30.1 12.1 30.2 12.3 30.3 12.5 C 30.4 12.5 30.4 12.6 30.4 12.6 C 30.4 12.7 30.5 12.8 30.5 12.8 C 30.6 13.0 30.8 13.2 30.9 13.4 C 30.9 13.4 30.9 13.5 30.9 13.5 C 31.0 13.6 31.0 13.7 31.1 13.8 C 31.2 13.9 31.3 14.1 31.4 14.3 C 31.4 14.4 31.4 14.4 31.4 14.5 C 31.5 14.6 31.5 14.6 31.5 14.7 C 31.6 14.9 31.7 15.1 31.8 15.3 C 31.9 15.3 31.9 15.4 31.9 15.5 C 32.0 15.5 32.0 15.6 32.0 15.6 C 32.1 15.9 32.2 16.1 32.3 16.3 C 32.3 16.4 32.4 16.5 32.4 16.5 C 32.4 16.6 32.4 16.6 32.4 16.6 C 32.6 17.0 32.7 17.3 32.9 17.7 L 32.9 17.7 C 32.9 17.7 32.9 17.7 32.9 17.7 C 33.0 18.0 33.1 18.4 33.3 18.8 C 33.3 18.8 33.3 18.9 33.3 18.9 C 33.3 19.0 33.3 19.0 33.4 19.1 C 33.5 19.4 33.6 19.8 33.7 20.1 C 33.7 20.2 33.7 20.2 33.7 20.3 C 33.7 20.3 33.7 20.3 33.7 20.4 C 33.9 20.9 34.0 21.3 34.1 21.8 C 34.1 21.9 34.1 21.9 34.1 22.0 C 34.2 22.1 34.2 22.3 34.2 22.4 C 34.3 22.9 34.4 23.3 34.5 23.8 C 34.5 23.9 34.5 24.0 34.5 24.1 C 34.5 24.2 34.5 24.2 34.5 24.3 C 34.6 24.5 34.6 24.6 34.6 24.8 C 34.6 25.1 34.7 25.4 34.7 25.6 C 34.7 25.8 34.7 26.1 34.7 26.3 C 34.7 26.5 34.7 26.8 34.7 27.1 C 34.7 27.3 34.7 27.5 34.7 27.7 C 34.7 28.0 34.7 28.2 34.7 28.5 C 34.7 28.7 34.7 28.9 34.7 29.1 C 34.6 29.3 34.6 29.6 34.6 29.8 C 34.6 29.9 34.6 30.0 34.6 30.2 C 34.5 30.2 34.5 30.3 34.5 30.4 C 34.5 30.6 34.5 30.7 34.4 30.9 C 34.4 31.1 34.3 31.3 34.3 31.6 C 34.3 31.7 34.2 31.8 34.2 32.0 C 34.2 32.0 34.2 32.1 34.1 32.2 C 34.1 32.3 34.1 32.3 34.1 32.4 C 34.0 32.7 33.9 33.0 33.8 33.2 C 33.8 33.3 33.8 33.4 33.7 33.4 C 33.7 33.5 33.7 33.6 33.6 33.7 C 33.6 33.9 33.5 34.0 33.4 34.2 C 33.4 34.3 33.3 34.4 33.3 34.4 C 33.3 34.5 33.2 34.6 33.2 34.7 C 33.1 34.9 33.0 35.0 33.0 35.1 C 32.9 35.2 32.9 35.2 32.9 35.3 " fill="#F9CE1D"></path><path d="M 29.9 36.1 C 29.9 36.1 29.9 36.0 29.9 36.0 L 28.9 35.3 L 28.7 35.5 C 28.6 35.6 28.4 35.7 28.3 35.8 L 28.2 35.9 C 28.1 35.9 27.9 36.0 27.8 36.1 C 27.7 36.1 27.7 36.2 27.6 36.2 L 27.2 36.4 C 27.2 36.4 27.2 36.4 27.2 36.4 C 27.2 36.3 27.3 36.1 27.3 36.1 C 27.4 35.9 27.5 35.8 27.6 35.6 C 27.7 35.5 27.8 35.4 27.8 35.2 C 27.9 35.1 28.0 34.9 28.1 34.8 C 28.1 34.6 28.2 34.5 28.3 34.3 C 28.3 34.2 28.4 34.0 28.4 33.9 C 28.5 33.6 28.6 33.4 28.6 33.2 L 28.7 33.1 C 28.7 32.9 28.7 32.8 28.8 32.7 C 28.8 32.6 28.8 32.5 28.8 32.4 L 28.9 32.3 C 28.9 32.1 28.9 31.9 29.0 31.7 C 29.0 31.6 29.0 31.4 29.1 31.3 C 29.1 31.1 29.1 30.9 29.1 30.8 C 29.2 30.5 29.2 30.3 29.2 30.1 C 29.2 29.9 29.2 29.7 29.2 29.5 C 29.2 29.3 29.3 29.1 29.3 28.8 C 29.3 28.7 29.3 28.5 29.3 28.3 C 29.3 28.1 29.2 27.8 29.2 27.6 C 29.2 27.4 29.2 27.2 29.2 27.0 C 29.2 26.7 29.2 26.5 29.1 26.2 L 29.1 26.0 C 29.1 25.9 29.1 25.7 29.1 25.6 L 29.0 25.3 C 29.0 24.9 28.9 24.5 28.8 24.1 C 28.8 24.0 28.7 23.8 28.7 23.7 L 28.7 23.6 C 28.6 23.1 28.5 22.7 28.4 22.3 L 28.3 22.1 C 28.2 21.7 28.1 21.4 28.0 21.1 L 27.9 20.9 C 27.8 20.5 27.7 20.2 27.6 19.9 L 27.6 19.8 L 27.6 19.8 C 27.5 19.5 27.3 19.2 27.2 18.9 L 27.1 18.6 C 27.0 18.4 26.9 18.2 26.8 18.1 L 26.7 17.7 C 26.6 17.5 26.5 17.4 26.4 17.2 L 26.2 16.9 C 26.2 16.7 26.1 16.5 26.0 16.4 L 25.8 16.0 C 25.7 15.9 25.6 15.7 25.5 15.6 L 25.3 15.3 C 25.2 15.1 25.1 14.9 25.0 14.7 L 24.8 14.5 C 24.7 14.2 24.5 14.0 24.3 13.7 L 24.2 13.6 C 24.1 13.4 23.9 13.2 23.8 13.0 L 23.6 12.7 C 23.5 12.6 23.3 12.4 23.2 12.2 L 23.0 12.0 C 22.8 11.8 22.7 11.6 22.5 11.4 L 22.3 11.2 C 22.1 11.0 21.9 10.7 21.6 10.5 L 21.5 10.3 C 21.2 10.1 20.9 9.8 20.6 9.6 L 20.6 9.5 C 20.2 9.2 19.8 8.8 19.3 8.5 C 19.1 8.3 18.9 8.2 18.6 8.0 L 18.1 7.7 L 17.9 7.6 L 17.7 7.4 C 17.5 7.3 17.3 7.2 17.2 7.1 L 16.9 7.0 C 16.7 6.9 16.4 6.8 16.2 6.7 C 15.9 6.5 15.7 6.5 15.4 6.4 L 15.2 6.3 C 15.0 6.2 14.9 6.2 14.7 6.1 C 14.6 6.1 14.5 6.1 14.4 6.0 C 14.2 6.0 14.1 6.0 13.9 5.9 L 13.7 5.9 C 13.4 5.8 13.1 5.8 12.9 5.7 C 12.8 5.7 12.8 5.7 12.7 5.7 L 13.1 5.5 C 13.6 5.3 14.1 5.1 14.7 5.0 L 14.8 3.9 C 14.8 3.9 14.5 3.8 14.5 3.8 C 14.4 3.8 14.4 3.7 14.4 3.7 C 15.4 3.4 16.4 3.0 17.4 2.7 L 17.5 2.7 C 17.7 2.8 17.9 2.8 18.1 2.8 C 18.2 2.9 18.3 2.9 18.4 2.9 C 18.6 3.0 18.7 3.0 18.9 3.1 L 19.2 3.2 C 19.4 3.3 19.7 3.4 19.9 3.5 C 20.2 3.6 20.5 3.7 20.7 3.9 L 21.0 4.0 C 21.1 4.1 21.3 4.2 21.5 4.3 L 21.8 4.4 L 22.0 4.6 C 22.1 4.6 22.5 4.9 22.5 4.9 C 22.8 5.1 23.0 5.3 23.3 5.5 C 23.5 5.6 23.7 5.8 24.0 6.0 L 24.2 6.2 C 24.3 6.3 24.5 6.4 24.6 6.5 L 24.7 6.6 C 25.0 6.9 25.3 7.1 25.6 7.4 L 25.8 7.6 C 26.0 7.9 26.3 8.1 26.5 8.4 L 26.6 8.5 L 26.7 8.6 C 26.9 8.8 27.1 9.0 27.2 9.2 L 27.4 9.4 L 27.5 9.5 C 27.6 9.7 27.8 9.9 27.9 10.1 L 28.1 10.3 C 28.3 10.5 28.5 10.8 28.6 11.0 L 28.7 11.1 C 28.9 11.4 29.1 11.7 29.3 12.0 L 29.4 12.2 C 29.6 12.4 29.7 12.6 29.8 12.8 L 29.9 12.9 L 30.0 13.2 C 30.1 13.3 30.2 13.5 30.3 13.7 L 30.4 13.8 L 30.5 14.1 C 30.6 14.2 30.7 14.4 30.8 14.6 L 30.9 14.8 L 31.0 15.0 C 31.1 15.1 31.2 15.3 31.3 15.5 L 31.4 15.7 L 31.5 15.9 C 31.6 16.1 31.6 16.3 31.7 16.5 L 31.9 16.8 L 31.9 16.9 C 32.0 17.2 32.2 17.5 32.3 17.8 L 32.3 17.9 L 32.3 17.9 C 32.4 18.3 32.6 18.6 32.7 19.0 L 32.7 19.1 L 32.8 19.3 C 32.9 19.6 33.0 19.9 33.1 20.3 L 33.1 20.4 L 33.2 20.5 C 33.3 21.0 33.4 21.5 33.5 22.0 L 33.5 22.1 C 33.6 22.3 33.6 22.4 33.6 22.6 C 33.7 23.0 33.8 23.4 33.9 23.8 L 33.9 24.4 C 34.0 24.5 34.0 24.6 34.0 24.6 L 34.0 24.9 C 34.0 25.1 34.0 25.4 34.1 25.7 C 34.1 25.9 34.1 26.1 34.1 26.3 C 34.1 26.6 34.1 26.8 34.1 27.1 C 34.1 27.3 34.1 27.5 34.1 27.7 C 34.1 27.9 34.1 28.2 34.1 28.4 C 34.1 28.6 34.1 28.8 34.1 29.0 C 34.0 29.3 34.0 29.5 34.0 29.7 L 34.0 29.9 C 34.0 30.0 34.0 30.0 34.0 30.1 C 34.0 30.1 33.9 30.6 33.8 30.7 C 33.8 31.0 33.7 31.2 33.7 31.4 L 33.6 32.0 C 33.5 32.0 33.5 32.1 33.5 32.1 C 33.5 32.2 33.5 32.2 33.5 32.3 C 33.4 32.5 33.3 32.8 33.2 33.0 C 33.2 33.1 33.2 33.2 33.2 33.2 C 33.2 33.3 33.1 33.5 33.1 33.5 C 33.0 33.6 32.9 33.8 32.9 34.0 C 32.9 34.0 32.8 34.2 32.8 34.2 C 32.7 34.2 32.6 34.5 32.6 34.5 C 32.6 34.6 32.5 34.7 32.4 34.8 C 31.6 35.2 30.7 35.7 29.9 36.1 " fill="#F6DF3C"></path><path d="M 30.8 14.6 L 30.9 14.8 L 31.0 15.0 C 31.1 15.1 31.2 15.3 31.3 15.5 L 31.4 15.7 L 31.5 15.9 C 31.6 16.1 31.6 16.3 31.7 16.5 L 31.9 16.8 L 31.9 16.9 C 32.0 17.2 32.2 17.5 32.3 17.8 L 32.3 17.9 L 32.3 17.9 C 32.4 18.3 32.6 18.6 32.7 19.0 L 32.7 19.1 L 32.8 19.3 C 32.9 19.6 33.0 19.9 33.1 20.3 L 33.1 20.4 L 33.2 20.5 C 33.3 21.0 33.4 21.5 33.5 22.0 L 33.5 22.1 C 33.6 22.3 33.6 22.4 33.6 22.6 C 33.7 23.0 33.8 23.4 33.9 23.8 L 33.9 24.4 C 34.0 24.5 34.0 24.6 34.0 24.6 L 34.0 24.9 C 34.0 25.1 34.0 25.4 34.1 25.7 C 34.1 25.9 34.1 26.1 34.1 26.3 C 34.1 26.6 34.1 26.8 34.1 27.1 C 34.1 27.3 34.1 27.5 34.1 27.7 C 34.1 27.9 34.1 28.2 34.1 28.4 C 34.1 28.6 34.1 28.8 34.1 29.0 C 34.0 29.3 34.0 29.5 34.0 29.7 L 34.0 29.9 C 34.0 30.0 34.0 30.0 34.0 30.1 C 34.0 30.1 33.9 30.3 33.9 30.6 C 32.2 31.3 30.5 31.9 28.8 32.6 C 28.8 32.5 28.8 32.5 28.8 32.4 L 28.9 32.3 C 28.9 32.1 28.9 31.9 29.0 31.7 C 29.0 31.6 29.0 31.4 29.1 31.3 C 29.1 31.1 29.1 30.9 29.1 30.8 C 29.2 30.5 29.2 30.3 29.2 30.1 C 29.2 29.9 29.2 29.7 29.2 29.5 C 29.2 29.3 29.3 29.1 29.3 28.8 C 29.3 28.7 29.3 28.5 29.3 28.3 C 29.3 28.1 29.2 27.8 29.2 27.6 C 29.2 27.4 29.2 27.2 29.2 27.0 C 29.2 26.7 29.2 26.5 29.1 26.2 L 29.1 26.0 C 29.1 25.9 29.1 25.7 29.1 25.6 L 29.0 25.3 C 29.0 24.9 28.9 24.5 28.8 24.1 C 28.8 24.0 28.8 23.8 28.7 23.7 L 28.7 23.6 C 28.6 23.1 28.5 22.7 28.4 22.3 L 28.3 22.1 C 28.2 21.7 28.1 21.4 28.0 21.1 L 27.9 20.9 C 27.8 20.5 27.7 20.2 27.6 19.9 L 27.6 19.8 L 27.6 19.8 C 27.5 19.5 27.3 19.2 27.2 18.9 L 27.1 18.6 C 27.0 18.4 26.9 18.2 26.8 18.1 L 26.7 17.7 C 26.6 17.5 26.5 17.4 26.4 17.2 L 26.2 16.9 C 26.2 16.7 26.1 16.5 26.0 16.4 L 25.8 16.0 C 25.7 15.9 25.6 15.7 25.5 15.6 L 25.3 15.3 C 25.2 15.1 25.1 14.9 25.0 14.7 L 24.8 14.5 C 24.7 14.2 24.5 14.0 24.3 13.7 L 24.2 13.6 C 24.1 13.4 23.9 13.2 23.8 13.0 L 23.6 12.7 C 23.5 12.6 23.3 12.4 23.2 12.2 L 23.0 12.0 C 22.8 11.8 22.7 11.6 22.5 11.4 L 22.3 11.2 C 22.2 11.1 22.1 10.9 21.9 10.8 C 23.7 10.2 25.5 9.7 27.3 9.3 L 27.4 9.4 L 27.5 9.5 C 27.6 9.7 27.8 9.9 27.9 10.1 L 28.1 10.3 C 28.3 10.5 28.5 10.8 28.6 11.0 L 28.7 11.1 C 28.9 11.4 29.1 11.7 29.3 12.0 L 29.4 12.2 C 29.6 12.4 29.7 12.6 29.8 12.8 L 29.9 12.9 L 30.0 13.2 C 30.1 13.3 30.2 13.5 30.3 13.7 L 30.4 13.8 L 30.5 14.1 C 30.6 14.2 30.7 14.4 30.8 14.6 " fill="#F8E160"></path><path d="M 18.2 34.1 L 19.5 34.2 L 18.9 31.7 C 19.9 31.7 20.9 31.5 21.8 31.3 L 20.7 27.2 L 19.3 27.1 L 19.6 28.6 C 19.6 28.6 19.6 28.7 19.6 28.9 C 19.3 29.3 18.8 29.5 17.9 29.4 C 16.9 29.3 16.0 28.5 15.8 27.3 C 15.2 24.1 21.1 25.1 19.9 19.1 C 19.3 16.0 17.1 13.9 14.7 13.4 L 14.3 11.3 L 13.0 11.2 L 13.5 13.3 C 11.3 13.2 10.1 14.1 10.1 14.1 L 11.2 18.4 L 12.6 18.5 C 12.6 18.4 12.4 17.5 12.4 17.3 C 12.3 17.2 12.3 16.7 12.3 16.2 C 12.4 16.1 13.0 15.6 14.4 15.8 C 15.3 15.9 16.3 16.6 16.6 17.9 C 17.3 21.4 11.3 20.2 12.6 26.5 C 13.2 29.5 15.3 31.3 17.7 31.7 Z M 18.2 34.1 " fill="#E9A900"></path><path d="M 14.7 13.4 C 17.1 13.9 19.3 16.0 19.9 19.1 C 21.1 25.1 15.2 24.1 15.8 27.3 C 16.0 28.5 16.9 29.3 17.9 29.4 C 18.8 29.5 19.3 29.3 19.6 28.9 C 19.6 28.7 19.6 28.6 19.6 28.6 L 19.3 27.1 L 20.7 27.2 L 21.8 31.3 C 20.9 31.5 19.9 31.7 18.9 31.7 L 19.5 34.2 L 18.2 34.1 L 17.7 31.7 C 15.3 31.3 13.2 29.5 12.6 26.5 C 11.3 20.2 17.3 21.4 16.6 17.9 C 16.3 16.6 15.4 15.9 14.4 15.8 C 13.0 15.6 12.4 16.1 12.3 16.2 C 12.3 16.7 12.3 17.2 12.4 17.3 C 12.4 17.5 12.6 18.4 12.6 18.5 L 11.2 18.4 L 10.1 14.1 C 10.1 14.1 11.3 13.2 13.5 13.3 L 13.0 11.2 L 14.3 11.3 L 14.7 13.4 M 19.4 39.4 C 26.1 40.1 30.0 33.4 28.2 24.2 C 26.4 15.1 19.5 7.1 12.8 6.4 C 6.1 5.6 2.2 12.4 4.0 21.5 C 5.8 30.6 12.7 38.6 19.4 39.4 " fill="#D27813"></path><path d="M 10.5 15.8 L 11.2 18.4 L 12.6 18.5 C 12.6 18.4 12.4 17.5 12.4 17.3 C 12.3 17.2 12.3 16.7 12.3 16.2 C 12.4 16.1 13.0 15.6 14.4 15.8 C 15.4 15.9 16.3 16.6 16.6 17.9 C 17.3 21.4 11.3 20.2 12.6 26.5 C 13.2 29.5 15.3 31.3 17.7 31.7 L 17.9 32.9 C 16.6 34.3 15.3 35.8 13.9 37.2 C 9.3 34.1 5.3 28.1 4.0 21.5 C 4.0 21.4 3.9 21.2 3.9 21.1 C 6.1 19.3 8.3 17.6 10.5 15.8 " fill="#C46812"></path><path d="M 28.0 23.1 C 25.7 25.1 23.4 27.2 21.3 29.4 L 20.7 27.2 L 19.3 27.1 L 19.6 28.6 C 19.6 28.6 19.6 28.7 19.6 28.9 C 19.3 29.3 18.8 29.5 17.9 29.4 C 16.9 29.3 16.0 28.5 15.8 27.3 C 15.2 24.1 21.1 25.1 19.9 19.1 C 19.3 16.0 17.1 13.9 14.7 13.4 L 14.6 12.6 C 16.1 11.5 17.6 10.3 19.2 9.1 C 23.1 12.2 26.5 17.3 28.0 23.1 " fill="#C46812"></path><path d="M 18.9 31.8 L 18.9 31.7 C 19.0 31.7 19.0 31.7 19.1 31.7 C 19.0 31.8 19.0 31.8 18.9 31.8 " fill="#C46812"></path><path d="M 22.6 31.1 C 22.3 31.2 22.0 31.2 21.8 31.3 L 20.7 27.2 L 20.1 27.2 L 20.1 26.9 L 21.5 27.0 Z M 22.6 31.1 " fill="#BE5D00"></path><path d="M 18.8 29.2 C 18.9 29.2 19.1 29.2 19.2 29.2 C 18.9 29.4 18.5 29.5 17.9 29.4 C 16.9 29.3 16.0 28.5 15.8 27.3 C 15.2 24.1 21.1 25.1 19.9 19.1 C 19.3 16.0 17.1 13.9 14.7 13.4 L 14.3 11.3 L 13.9 11.3 L 13.8 11.0 L 15.1 11.1 L 15.6 13.2 C 18.0 13.8 20.1 15.8 20.8 18.9 C 22.0 24.9 16.0 23.9 16.7 27.2 C 16.9 28.3 17.8 29.1 18.8 29.2 " fill="#BE5D00"></path><path d="M 13.4 13.1 L 13.5 13.3 C 13.0 13.3 12.5 13.3 12.1 13.4 C 12.5 13.3 12.9 13.2 13.4 13.1 " fill="#BE5D00"></path><path d="M 4.8 21.3 C 6.6 30.4 13.5 38.4 20.2 39.2 C 21.0 39.3 21.8 39.3 22.5 39.1 C 21.6 39.4 20.5 39.5 19.4 39.4 C 12.7 38.6 5.8 30.6 4.0 21.5 C 2.4 13.5 5.3 7.3 10.5 6.4 C 5.8 7.8 3.3 13.7 4.8 21.3 " fill="#BE5D00"></path><path d="M 12.4 17.3 C 12.3 17.2 12.3 16.7 12.3 16.2 C 12.4 16.2 12.7 15.8 13.5 15.8 C 13.3 15.9 13.2 16.0 13.1 16.0 C 13.1 16.5 13.2 17.0 13.2 17.1 C 13.3 17.3 13.4 18.2 13.4 18.3 L 12.6 18.2 C 12.5 18.0 12.4 17.5 12.4 17.3 " fill="#BE5D00"></path><path d="M 18.9 31.7 C 19.2 31.7 19.5 31.7 19.8 31.7 L 20.3 34.0 L 19.4 34.0 Z M 18.9 31.7 " fill="#BE5D00"></path><path d="M 12.8 6.4 C 19.5 7.1 26.4 15.1 28.2 24.2 C 30.0 33.4 26.1 40.1 19.4 39.4 C 12.7 38.6 5.8 30.6 4.0 21.5 C 2.2 12.4 6.1 5.6 12.8 6.4 M 19.9 41.8 C 27.5 42.7 32.1 34.9 30.0 24.4 C 27.9 14.0 20.0 4.8 12.3 3.9 C 4.7 3.1 0.1 10.8 2.2 21.3 C 4.3 31.7 12.2 40.9 19.9 41.8 " fill="#E8A205"></path><path d="M 17.9 29.4 C 17.2 29.9 16.4 30.5 15.7 31.0 C 14.2 30.2 13.0 28.6 12.6 26.5 C 11.3 20.4 16.9 21.4 16.6 18.2 L 18.8 16.3 C 19.3 17.1 19.7 18.1 19.9 19.1 C 21.1 25.1 15.2 24.1 15.8 27.3 C 16.0 28.5 16.9 29.3 17.9 29.4 " fill="#E29506"></path><path d="M 19.5 28.2 L 19.3 27.1 L 20.7 27.2 L 20.7 27.4 C 20.3 27.6 19.9 27.9 19.5 28.2 " fill="#E4A200"></path><path d="M 15.8 15.6 C 15.6 15.7 15.4 15.9 15.2 16.0 C 15.0 15.9 14.7 15.8 14.4 15.8 C 13.0 15.6 12.4 16.1 12.3 16.2 C 12.3 16.7 12.3 17.2 12.4 17.3 C 12.4 17.4 12.5 17.8 12.5 18.1 C 12.4 18.2 12.3 18.3 12.1 18.4 L 11.2 18.4 L 10.6 16.2 C 12.0 15.1 13.3 14.0 14.6 12.9 L 14.7 13.4 C 15.7 13.6 16.5 14.0 17.3 14.7 C 16.8 15.0 16.3 15.3 15.8 15.6 " fill="#E4A200"></path><path d="M 29.1 26.2 C 29.1 25.5 29.0 24.8 28.8 24.1 C 27.5 17.3 23.3 10.9 18.2 7.7 C 17.6 7.4 17.1 7.1 16.5 6.8 C 16.7 6.6 17.0 6.4 17.2 6.2 C 17.4 6.4 17.6 6.5 17.8 6.6 C 23.4 10.1 27.9 17.1 29.4 24.6 C 29.5 24.9 29.5 25.3 29.6 25.7 C 29.4 25.8 29.3 26.0 29.1 26.2 " fill="#D28700"></path><path d="M 3.4 21.6 C 4.7 28.4 8.9 34.8 14.0 38.0 C 15.6 39.0 17.1 39.6 18.6 39.9 C 18.4 40.2 18.1 40.5 17.9 40.8 C 16.8 40.4 15.6 39.9 14.4 39.1 C 8.9 35.6 4.3 28.6 2.8 21.2 C 2.7 20.6 2.6 20.1 2.6 19.6 C 2.7 19.4 2.9 19.3 3.0 19.1 C 3.1 19.9 3.2 20.8 3.4 21.6 " fill="#D28700"></path></g></g></g></svg>