<?xml version="1.0" encoding="UTF-8"?><svg xmlns="http://www.w3.org/2000/svg" xmlns:xlink="http://www.w3.org/1999/xlink" clip-rule="evenodd" stroke-miterlimit="4.00" viewBox="0 0 222 221"><desc>SVG generated by Keynote</desc><defs></defs><g transform="matrix(1.00, 0.00, -0.00, -1.00, 0.0, 221.0)"><g><clipPath id="clip-363"><path d="M 220.5 114.5 L 115.1 219.9 L 1.7 106.5 L 107.1 1.1 Z M 220.5 114.5 "></path></clipPath><g clip-path="url(#clip-363)"><g><clipPath id="clip-364"><path d="M 107.1 1.1 L 1.7 106.5 L 115.1 219.9 L 220.5 114.5 Z M 107.1 1.1 "></path></clipPath><g clip-path="url(#clip-364)"><path d="M 140.6 121.0 C 140.6 121.1 140.6 121.3 140.6 121.5 L 140.5 121.7 L 140.5 122.2 C 140.4 122.4 140.4 122.6 140.4 122.8 C 140.4 122.8 140.4 122.9 140.4 122.9 L 140.2 124.5 C 140.1 124.7 140.1 125.0 140.0 125.2 C 140.0 125.3 140.0 125.4 140.0 125.6 L 139.7 127.9 C 139.7 128.0 139.6 128.1 139.6 128.1 L 141.9 129.9 L 142.8 123.0 C 142.9 123.0 143.1 122.9 143.2 122.8 Z M 119.7 107.8 C 120.3 106.6 121.1 105.4 121.9 104.2 C 121.9 104.1 121.9 104.1 122.0 104.0 C 121.9 104.0 121.9 103.9 121.8 103.8 C 121.7 103.6 121.6 103.5 121.5 103.4 C 121.4 103.2 121.2 103.0 121.1 102.9 C 121.0 102.7 120.8 102.5 120.7 102.3 C 120.5 102.1 120.4 102.0 120.3 101.8 C 120.0 101.5 119.7 101.2 119.4 100.9 C 119.3 100.8 119.2 100.7 119.2 100.7 C 118.8 100.3 118.4 100.0 118.0 99.6 C 117.6 99.2 117.1 98.9 116.7 98.6 C 116.5 98.4 116.3 98.3 116.1 98.2 C 115.8 97.9 115.4 97.6 115.0 97.4 C 114.8 97.3 114.7 97.2 114.5 97.1 C 114.0 96.8 113.4 96.5 112.8 96.2 C 112.7 96.1 112.6 96.1 112.5 96.0 C 112.0 95.8 111.6 95.6 111.1 95.5 C 110.9 95.4 110.6 95.3 110.4 95.2 C 110.0 95.1 109.6 94.9 109.2 94.8 C 109.0 94.8 108.9 94.7 108.7 94.7 C 108.2 94.5 107.6 94.4 107.0 94.3 C 106.9 94.2 106.9 94.2 106.8 94.2 C 106.6 94.2 106.5 94.2 106.3 94.1 L 104.0 110.2 L 104.0 110.2 L 104.0 110.2 C 104.0 110.2 104.0 110.2 104.0 110.2 C 104.0 110.2 104.0 110.3 104.0 110.4 C 103.9 110.6 103.9 110.9 103.8 111.1 C 103.8 111.2 103.7 111.4 103.7 111.6 C 103.4 112.4 103.0 113.2 102.6 114.0 C 101.9 115.3 101.0 116.7 100.1 118.1 C 100.0 118.2 99.9 118.4 99.8 118.5 C 100.0 118.8 100.1 119.0 100.3 119.3 C 100.3 119.3 100.3 119.3 100.3 119.3 C 100.5 119.6 100.8 119.9 101.0 120.2 C 101.1 120.3 101.2 120.3 101.3 120.4 C 101.5 120.7 101.8 121.0 102.1 121.3 C 102.2 121.4 102.3 121.5 102.3 121.5 C 102.6 121.8 103.0 122.1 103.3 122.4 C 103.8 122.8 104.2 123.2 104.7 123.5 C 104.9 123.7 105.1 123.9 105.3 124.0 C 105.7 124.3 106.1 124.5 106.4 124.7 C 106.6 124.9 106.9 125.0 107.1 125.2 C 107.5 125.4 107.9 125.6 108.3 125.8 C 108.5 125.9 108.7 126.0 108.9 126.1 C 109.5 126.4 110.2 126.7 110.8 127.0 L 110.8 127.0 C 111.5 127.2 112.1 127.5 112.8 127.7 C 112.9 127.7 113.0 127.7 113.1 127.8 C 113.7 127.9 114.2 128.1 114.8 128.2 C 114.9 128.2 115.0 128.3 115.1 128.3 C 115.3 128.3 115.6 128.4 115.8 128.4 L 115.9 127.5 C 116.0 126.9 116.1 126.3 116.2 125.7 L 116.7 121.8 C 116.8 121.2 116.9 120.5 117.0 119.9 L 117.3 117.9 C 117.4 116.9 117.6 115.9 117.7 114.9 L 117.9 113.5 C 118.0 113.0 118.0 112.5 118.1 112.0 L 118.1 112.0 L 118.1 112.0 L 118.1 112.0 C 118.3 110.7 118.9 109.3 119.7 107.8 M 84.4 100.0 L 84.9 96.8 L 81.1 93.7 L 80.6 97.6 L 84.1 100.2 Z M 161.5 141.0 C 161.8 140.9 162.1 140.7 162.4 140.5 C 162.7 140.4 163.0 140.2 163.3 140.0 C 163.6 139.9 163.8 139.7 164.1 139.5 C 164.4 139.3 164.7 139.2 164.9 139.0 C 165.2 138.8 165.5 138.6 165.8 138.5 C 166.0 138.3 166.3 138.1 166.5 137.9 C 166.8 137.8 167.1 137.6 167.4 137.4 C 167.6 137.2 167.9 137.0 168.1 136.8 C 168.4 136.6 168.6 136.4 168.9 136.3 C 169.1 136.1 169.3 135.9 169.6 135.7 C 169.8 135.5 170.1 135.3 170.3 135.1 C 170.5 134.9 170.8 134.7 171.0 134.6 C 171.2 134.3 171.5 134.1 171.7 133.9 C 171.9 133.7 172.1 133.5 172.3 133.4 C 172.6 133.1 172.8 132.9 173.0 132.7 C 173.2 132.5 173.4 132.3 173.6 132.1 C 173.8 131.9 174.0 131.7 174.3 131.5 C 174.4 131.3 174.6 131.1 174.8 130.9 C 175.0 130.7 175.2 130.4 175.4 130.2 C 175.6 130.0 175.8 129.8 175.9 129.6 C 176.2 129.4 176.3 129.1 176.5 128.9 C 176.7 128.7 176.9 128.5 177.0 128.3 C 177.2 128.1 177.4 127.8 177.6 127.6 C 177.7 127.4 177.9 127.2 178.0 127.0 C 178.2 126.7 178.4 126.4 178.6 126.2 C 178.7 126.0 178.8 125.8 178.9 125.6 C 179.2 125.3 179.3 125.0 179.5 124.7 C 179.6 124.6 179.7 124.4 179.8 124.3 C 180.1 123.8 180.4 123.3 180.6 122.9 C 181.0 122.1 181.4 121.3 181.8 120.5 C 181.7 120.2 181.7 119.8 181.6 119.5 C 181.5 119.1 181.5 118.7 181.4 118.2 C 181.3 117.9 181.2 117.5 181.1 117.1 C 181.0 116.7 180.9 116.3 180.8 115.8 C 180.7 115.5 180.6 115.1 180.4 114.7 C 180.3 114.3 180.2 113.9 180.0 113.4 C 179.9 113.1 179.7 112.7 179.6 112.3 C 179.4 111.9 179.3 111.5 179.1 111.0 C 178.9 110.6 178.7 110.2 178.6 109.8 C 178.4 109.4 178.2 109.0 178.0 108.6 C 177.8 108.2 177.5 107.8 177.3 107.3 C 177.1 106.9 176.9 106.6 176.7 106.2 C 176.4 105.7 176.1 105.2 175.7 104.7 C 175.5 104.4 175.3 104.0 175.1 103.7 C 174.6 102.9 174.0 102.0 173.3 101.2 C 172.8 100.5 172.2 99.8 171.7 99.1 C 171.5 99.0 171.4 98.8 171.3 98.6 C 170.8 98.0 170.2 97.4 169.7 96.8 C 169.6 96.7 169.5 96.6 169.4 96.5 C 168.8 95.9 168.1 95.2 167.5 94.6 C 166.6 93.8 165.8 93.0 164.8 92.2 C 164.1 91.5 163.3 90.8 162.5 90.2 C 162.2 89.9 161.8 89.7 161.5 89.4 C 161.0 89.0 160.5 88.7 160.0 88.3 C 159.6 88.0 159.2 87.7 158.8 87.5 C 158.3 87.1 157.9 86.8 157.3 86.4 C 156.9 86.2 156.5 85.9 156.1 85.7 C 155.6 85.3 155.1 85.0 154.6 84.7 C 154.2 84.4 153.8 84.2 153.4 83.9 C 152.9 83.6 152.3 83.3 151.8 83.1 C 151.4 82.8 151.0 82.6 150.5 82.3 C 150.0 82.1 149.5 81.8 148.9 81.5 C 148.5 81.3 148.0 81.1 147.6 80.8 C 147.1 80.6 146.5 80.3 146.0 80.1 C 145.5 79.8 145.1 79.6 144.6 79.4 C 144.1 79.2 143.5 78.9 143.0 78.7 C 142.5 78.5 142.0 78.3 141.5 78.1 C 141.0 77.9 140.5 77.7 140.0 77.5 C 139.4 77.2 138.7 77.0 138.1 76.8 C 137.6 76.6 137.1 76.4 136.6 76.3 C 136.0 76.0 135.4 75.8 134.7 75.6 C 134.2 75.4 133.6 75.3 133.1 75.1 C 132.7 75.0 132.3 74.9 132.0 74.8 C 131.3 74.6 130.6 74.4 129.9 74.2 C 129.6 74.1 129.2 74.0 128.9 73.9 C 128.5 73.8 128.1 73.7 127.7 73.6 C 126.6 73.3 125.5 73.1 124.4 72.8 C 124.0 72.7 123.6 72.7 123.2 72.6 C 122.1 72.4 121.1 72.2 120.1 72.0 C 119.8 71.9 119.5 71.9 119.2 71.8 C 118.0 71.6 116.7 71.4 115.4 71.3 C 115.1 71.2 114.7 71.2 114.3 71.1 C 113.5 71.0 112.7 70.9 111.8 70.9 C 111.3 70.8 110.8 70.8 110.3 70.7 C 109.6 70.7 108.9 70.6 108.2 70.6 C 107.7 70.5 107.1 70.5 106.6 70.5 C 106.0 70.5 105.3 70.4 104.7 70.4 C 104.1 70.4 103.6 70.4 103.0 70.4 C 102.4 70.4 101.8 70.4 101.2 70.4 C 100.7 70.4 100.1 70.4 99.5 70.4 C 98.9 70.4 98.4 70.4 97.8 70.4 C 97.2 70.5 96.6 70.5 96.1 70.5 C 95.5 70.6 94.9 70.6 94.4 70.6 C 93.8 70.7 93.2 70.7 92.7 70.8 C 92.1 70.8 91.5 70.9 90.9 70.9 C 90.4 71.0 89.8 71.1 89.3 71.1 C 88.7 71.2 88.1 71.3 87.5 71.4 C 87.0 71.4 86.5 71.5 85.9 71.6 C 85.3 71.7 84.7 71.8 84.1 71.9 C 83.6 72.0 83.1 72.1 82.6 72.2 C 81.9 72.3 81.2 72.5 80.5 72.6 C 80.1 72.7 79.6 72.8 79.1 73.0 C 78.4 73.1 77.6 73.3 76.9 73.5 C 76.5 73.6 76.0 73.8 75.6 73.9 C 74.6 74.2 73.6 74.5 72.6 74.8 C 72.4 74.9 72.1 75.0 71.9 75.0 C 71.8 75.1 71.6 75.1 71.5 75.2 C 70.7 75.5 69.9 75.7 69.2 76.0 C 68.9 76.1 68.6 76.2 68.4 76.3 C 67.7 76.6 67.1 76.9 66.4 77.2 C 66.1 77.3 65.8 77.4 65.6 77.5 C 64.7 77.9 63.8 78.3 62.9 78.8 C 62.5 79.0 62.0 79.2 61.6 79.5 C 61.3 79.6 61.0 79.8 60.7 79.9 C 60.4 80.1 60.1 80.3 59.8 80.4 C 59.5 80.6 59.3 80.8 59.0 80.9 C 58.7 81.1 58.4 81.3 58.1 81.5 C 57.8 81.6 57.6 81.8 57.3 82.0 C 57.0 82.1 56.7 82.3 56.5 82.5 C 56.2 82.7 56.0 82.8 55.7 83.0 C 55.4 83.2 55.2 83.4 54.9 83.6 C 54.6 83.8 54.4 83.9 54.2 84.1 C 53.9 84.3 53.6 84.5 53.4 84.7 C 53.1 84.9 52.9 85.1 52.7 85.2 C 52.4 85.5 52.2 85.7 51.9 85.9 C 51.7 86.0 51.5 86.2 51.3 86.4 C 51.0 86.6 50.8 86.8 50.6 87.0 C 50.3 87.2 50.1 87.4 49.9 87.6 C 49.7 87.8 49.5 88.0 49.2 88.3 C 49.0 88.4 48.8 88.6 48.7 88.8 C 48.4 89.1 48.2 89.3 48.0 89.5 C 47.8 89.7 47.6 89.9 47.4 90.1 C 47.2 90.3 47.0 90.5 46.8 90.8 C 46.6 91.0 46.5 91.2 46.3 91.4 C 46.1 91.6 45.9 91.8 45.7 92.1 C 45.6 92.3 45.4 92.5 45.2 92.7 C 45.0 92.9 44.9 93.2 44.7 93.4 C 44.5 93.6 44.4 93.8 44.2 94.0 C 44.0 94.2 43.9 94.5 43.7 94.8 C 43.6 95.0 43.4 95.1 43.3 95.3 C 43.1 95.6 42.9 95.9 42.7 96.2 C 42.6 96.4 42.5 96.5 42.4 96.7 C 42.2 97.2 41.9 97.6 41.6 98.1 C 41.2 98.9 40.8 99.7 40.5 100.5 C 40.5 100.8 40.6 101.1 40.6 101.5 C 40.7 101.9 40.8 102.3 40.9 102.7 C 40.9 103.1 41.0 103.5 41.1 103.9 C 41.2 104.3 41.3 104.7 41.5 105.1 C 41.6 105.5 41.7 105.9 41.8 106.3 C 41.9 106.7 42.1 107.1 42.2 107.5 C 42.3 107.9 42.5 108.3 42.7 108.7 C 42.8 109.1 43.0 109.5 43.1 109.9 C 43.3 110.3 43.5 110.7 43.7 111.2 C 43.9 111.5 44.1 111.9 44.3 112.3 C 44.5 112.8 44.7 113.2 45.0 113.7 C 45.2 114.0 45.4 114.4 45.6 114.8 C 45.9 115.3 46.2 115.8 46.5 116.3 C 46.7 116.6 46.9 116.9 47.1 117.2 C 47.7 118.1 48.3 119.0 48.9 119.8 C 49.5 120.5 50.0 121.2 50.6 121.9 C 50.7 122.0 50.8 122.2 51.0 122.3 C 51.5 122.9 52.0 123.5 52.6 124.1 C 52.7 124.2 52.8 124.3 52.9 124.4 C 53.5 125.1 54.1 125.7 54.8 126.4 C 55.6 127.2 56.5 128.0 57.4 128.8 C 58.2 129.5 58.9 130.1 59.7 130.8 C 60.1 131.0 60.4 131.3 60.8 131.5 C 61.3 131.9 61.8 132.3 62.3 132.7 C 62.6 133.0 63.0 133.2 63.4 133.5 C 63.9 133.8 64.4 134.2 64.9 134.5 C 65.3 134.8 65.7 135.0 66.1 135.3 C 66.6 135.6 67.1 136.0 67.6 136.3 C 68.0 136.5 68.5 136.8 68.9 137.0 C 69.4 137.3 69.9 137.6 70.4 137.9 C 70.8 138.2 71.3 138.4 71.7 138.6 C 72.2 138.9 72.8 139.2 73.3 139.5 C 73.7 139.7 74.2 139.9 74.7 140.1 C 75.2 140.4 75.7 140.7 76.3 140.9 C 76.7 141.1 77.2 141.3 77.6 141.5 C 78.2 141.8 78.7 142.0 79.3 142.3 C 79.8 142.5 80.2 142.7 80.7 142.9 C 81.2 143.1 81.8 143.3 82.3 143.5 C 82.9 143.7 83.5 143.9 84.1 144.2 C 84.6 144.4 85.1 144.5 85.6 144.7 C 86.2 144.9 86.9 145.1 87.5 145.3 C 88.1 145.5 88.6 145.7 89.2 145.9 C 89.5 146.0 89.9 146.1 90.3 146.2 C 91.0 146.4 91.6 146.6 92.3 146.8 C 92.7 146.9 93.0 147.0 93.4 147.1 C 93.8 147.2 94.2 147.3 94.6 147.4 C 95.7 147.6 96.8 147.9 97.9 148.1 C 98.3 148.2 98.7 148.3 99.1 148.4 C 100.1 148.6 101.1 148.8 102.2 149.0 C 102.5 149.0 102.7 149.1 103.0 149.1 C 104.3 149.3 105.5 149.5 106.8 149.7 C 107.2 149.7 107.5 149.8 107.9 149.8 C 108.7 149.9 109.6 150.0 110.4 150.1 C 110.9 150.2 111.4 150.2 111.9 150.2 C 112.6 150.3 113.3 150.3 114.0 150.4 C 114.6 150.4 115.1 150.4 115.6 150.5 C 116.3 150.5 116.9 150.5 117.5 150.5 C 118.1 150.6 118.7 150.6 119.3 150.6 C 119.8 150.6 120.4 150.6 121.0 150.6 C 121.6 150.6 122.2 150.6 122.7 150.6 C 123.3 150.6 123.9 150.5 124.5 150.5 C 125.0 150.5 125.6 150.5 126.2 150.4 C 126.8 150.4 127.3 150.4 127.9 150.3 C 128.5 150.3 129.0 150.3 129.6 150.2 C 130.2 150.2 130.7 150.1 131.3 150.0 C 131.9 150.0 132.4 149.9 133.0 149.8 C 133.5 149.8 134.1 149.7 134.7 149.6 C 135.3 149.5 135.8 149.5 136.3 149.4 C 136.9 149.3 137.6 149.2 138.2 149.1 C 138.7 149.0 139.2 148.9 139.7 148.8 L 134.4 144.5 C 133.7 144.8 132.9 145.1 132.2 145.4 C 132.1 145.4 132.1 145.4 132.1 145.4 C 131.7 145.6 131.2 145.7 130.8 145.8 C 130.6 145.9 130.3 146.0 130.0 146.1 C 130.0 146.1 130.0 146.1 130.0 146.1 C 129.4 146.2 128.7 146.4 128.1 146.5 C 128.1 146.6 128.0 146.6 128.0 146.6 C 127.8 146.6 127.7 146.6 127.6 146.7 C 127.2 146.7 126.8 146.8 126.5 146.9 C 126.3 146.9 126.1 147.0 125.9 147.0 C 125.8 147.0 125.6 147.0 125.4 147.1 C 125.3 147.1 125.1 147.1 125.0 147.1 C 124.5 147.2 124.0 147.3 123.6 147.3 C 123.5 147.3 123.5 147.3 123.5 147.3 C 123.4 147.3 123.3 147.3 123.3 147.4 C 122.9 147.4 122.6 147.4 122.3 147.4 C 121.9 147.5 121.6 147.5 121.3 147.5 C 121.2 147.5 121.2 147.5 121.1 147.5 C 121.1 147.5 121.0 147.5 121.0 147.5 C 120.6 147.5 120.2 147.5 119.8 147.6 C 119.6 147.6 119.3 147.5 119.1 147.5 C 119.0 147.5 118.9 147.5 118.8 147.5 C 118.8 147.5 118.7 147.5 118.6 147.5 C 118.3 147.5 117.9 147.5 117.5 147.5 C 117.3 147.5 117.1 147.5 116.9 147.4 C 116.8 147.4 116.7 147.4 116.6 147.4 C 116.5 147.4 116.4 147.4 116.4 147.4 C 116.0 147.4 115.6 147.3 115.2 147.3 C 115.0 147.3 114.9 147.2 114.7 147.2 C 114.6 147.2 114.5 147.2 114.4 147.2 C 114.3 147.1 114.2 147.1 114.0 147.1 C 113.6 147.0 113.2 147.0 112.8 146.9 C 112.7 146.9 112.6 146.8 112.5 146.8 C 112.4 146.8 112.3 146.7 112.1 146.7 C 111.9 146.7 111.7 146.6 111.5 146.6 C 111.2 146.5 110.8 146.4 110.5 146.3 C 110.4 146.2 110.3 146.2 110.2 146.2 C 110.1 146.2 110.1 146.2 110.0 146.2 C 109.4 146.0 108.8 145.7 108.2 145.5 C 108.2 145.5 108.2 145.5 108.2 145.5 L 108.2 145.5 C 107.5 145.2 106.9 145.0 106.3 144.7 C 106.1 144.6 105.9 144.4 105.7 144.3 C 105.3 144.1 104.9 143.9 104.5 143.7 C 104.2 143.5 104.0 143.4 103.8 143.2 C 103.4 143.0 103.1 142.8 102.7 142.5 C 102.5 142.4 102.3 142.2 102.0 142.0 C 101.8 141.9 101.7 141.8 101.5 141.6 C 101.2 141.4 101.0 141.2 100.7 141.0 C 100.3 140.7 100.0 140.3 99.7 140.0 C 99.7 140.0 99.6 140.0 99.6 140.0 C 99.6 139.9 99.5 139.9 99.5 139.8 C 99.2 139.5 98.9 139.2 98.6 138.9 C 98.6 138.9 98.5 138.8 98.5 138.8 C 98.5 138.7 98.4 138.7 98.4 138.7 C 98.2 138.4 97.9 138.1 97.7 137.8 L 97.7 137.8 C 97.5 137.5 97.3 137.2 97.1 137.0 C 97.1 136.9 97.1 136.9 97.1 136.9 C 97.0 136.8 96.9 136.7 96.9 136.6 C 96.8 136.5 96.7 136.3 96.6 136.2 C 96.6 136.2 96.6 136.1 96.6 136.1 C 96.5 136.0 96.4 135.9 96.4 135.7 C 96.3 135.6 96.3 135.5 96.2 135.4 C 96.2 135.4 96.2 135.4 96.2 135.4 C 96.1 135.2 96.0 135.0 96.0 134.9 C 95.9 134.8 95.9 134.7 95.9 134.7 C 95.9 134.7 95.9 134.7 95.9 134.7 C 95.8 134.4 95.7 134.2 95.6 134.0 C 95.6 134.0 95.6 134.0 95.6 134.0 C 95.6 133.9 95.6 133.8 95.5 133.8 C 95.5 133.6 95.4 133.4 95.4 133.3 C 95.4 133.3 95.4 133.2 95.4 133.2 C 95.4 133.1 95.3 133.0 95.3 132.9 C 95.3 132.8 95.2 132.7 95.2 132.6 C 95.2 132.5 95.2 132.5 95.2 132.5 C 95.2 132.4 95.2 132.3 95.2 132.1 C 95.1 132.0 95.1 131.9 95.1 131.8 C 95.1 131.8 95.1 131.8 95.1 131.8 C 95.1 131.6 95.1 131.5 95.1 131.3 C 95.1 131.2 95.0 131.1 95.0 131.1 C 95.0 131.0 95.0 131.0 95.0 131.0 C 95.0 130.8 95.0 130.6 95.0 130.3 C 95.0 130.3 95.0 130.3 95.0 130.2 C 95.0 130.2 95.0 130.2 95.0 130.2 C 95.0 129.9 95.0 129.7 95.1 129.4 C 95.1 129.4 95.1 129.4 95.1 129.3 C 95.1 129.1 95.1 128.9 95.1 128.8 L 95.1 128.8 L 95.1 128.8 L 97.8 110.2 C 97.8 110.0 97.9 109.7 97.9 109.4 C 98.3 107.6 99.0 105.8 99.9 104.1 C 99.9 104.1 99.9 104.1 99.8 104.1 C 99.7 104.0 99.6 104.0 99.5 103.9 C 99.4 103.9 99.3 103.9 99.2 103.8 C 99.1 103.8 98.9 103.7 98.7 103.7 C 98.7 103.7 98.6 103.6 98.6 103.6 C 98.3 103.6 98.1 103.5 97.8 103.5 C 97.8 103.5 97.8 103.5 97.7 103.4 C 97.5 103.4 97.2 103.4 97.0 103.3 C 97.0 103.3 96.9 103.3 96.9 103.3 C 96.7 103.3 96.4 103.3 96.1 103.3 C 96.1 103.3 96.1 103.3 96.1 103.3 C 95.8 103.3 95.5 103.3 95.3 103.3 C 95.2 103.3 95.2 103.3 95.2 103.3 C 94.9 103.3 94.7 103.3 94.4 103.3 C 94.4 103.3 94.3 103.3 94.3 103.3 C 94.0 103.4 93.8 103.4 93.5 103.4 L 93.4 103.5 C 93.1 103.5 92.9 103.5 92.6 103.6 C 92.6 103.6 92.6 103.6 92.5 103.6 C 92.3 103.7 92.0 103.7 91.7 103.8 C 91.6 103.9 91.5 103.9 91.4 103.9 C 91.3 104.0 91.1 104.0 90.9 104.1 C 90.7 104.1 90.6 104.2 90.4 104.3 C 90.3 104.3 90.1 104.4 90.0 104.4 C 89.7 104.5 89.5 104.7 89.2 104.8 L 87.7 115.2 L 81.5 118.7 L 68.7 109.2 L 68.7 109.2 L 71.3 90.7 C 72.0 90.0 72.8 89.4 73.6 88.7 L 75.4 76.0 L 80.9 72.9 L 88.3 78.9 C 88.9 78.6 89.6 78.3 90.2 78.0 C 90.3 78.0 90.3 78.0 90.3 78.0 C 91.1 77.7 91.8 77.4 92.6 77.2 C 92.6 77.2 92.6 77.1 92.6 77.1 C 93.3 76.9 93.9 76.7 94.6 76.5 C 94.6 76.5 94.6 76.5 94.6 76.5 C 94.7 76.5 94.8 76.5 94.9 76.5 C 95.3 76.3 95.8 76.2 96.3 76.1 C 96.4 76.1 96.5 76.0 96.6 76.0 C 96.8 76.0 97.0 76.0 97.1 75.9 C 97.3 75.9 97.6 75.8 97.8 75.8 C 98.1 75.7 98.5 75.7 98.8 75.6 C 98.9 75.6 99.0 75.6 99.1 75.6 C 99.1 75.6 99.1 75.6 99.1 75.6 C 99.6 75.5 100.0 75.4 100.4 75.4 C 100.6 75.4 100.8 75.4 101.0 75.3 C 101.1 75.3 101.2 75.3 101.3 75.3 C 101.4 75.3 101.5 75.3 101.6 75.3 C 101.9 75.3 102.3 75.2 102.7 75.2 C 102.8 75.2 103.0 75.2 103.1 75.2 C 103.2 75.2 103.3 75.2 103.4 75.2 C 103.5 75.2 103.6 75.2 103.7 75.2 C 104.1 75.2 104.4 75.2 104.7 75.2 C 104.9 75.2 105.1 75.2 105.3 75.2 C 105.4 75.2 105.4 75.2 105.5 75.2 C 105.6 75.2 105.7 75.2 105.7 75.2 C 106.1 75.3 106.4 75.3 106.7 75.3 C 106.9 75.3 107.2 75.4 107.4 75.4 C 107.5 75.4 107.5 75.4 107.6 75.4 C 107.6 75.4 107.7 75.4 107.7 75.4 C 108.1 75.5 108.4 75.5 108.7 75.6 C 109.0 75.6 109.2 75.7 109.4 75.7 C 109.5 75.7 109.6 75.7 109.6 75.7 C 109.7 75.8 109.7 75.8 109.8 75.8 C 110.2 75.9 110.6 75.9 111.0 76.0 C 111.1 76.1 111.2 76.1 111.4 76.2 C 111.5 76.2 111.6 76.2 111.8 76.3 C 111.9 76.3 112.1 76.4 112.2 76.4 C 112.5 76.5 112.8 76.6 113.0 76.7 C 113.2 76.8 113.5 76.9 113.7 76.9 C 113.8 77.0 113.9 77.0 114.0 77.0 C 114.3 77.2 114.7 77.4 115.1 77.5 C 115.2 77.6 115.3 77.6 115.5 77.7 C 116.0 78.0 116.6 78.3 117.1 78.6 C 117.3 78.7 117.4 78.8 117.6 78.9 C 118.0 79.1 118.4 79.4 118.8 79.6 C 119.0 79.8 119.1 79.9 119.3 80.1 C 119.5 80.2 119.7 80.3 119.9 80.5 C 120.2 80.7 120.4 80.9 120.6 81.1 C 121.0 81.5 121.4 81.8 121.8 82.2 C 121.8 82.2 121.8 82.2 121.8 82.2 C 121.9 82.3 121.9 82.3 122.0 82.4 C 122.3 82.7 122.6 83.0 122.9 83.3 C 122.9 83.4 123.0 83.4 123.0 83.5 C 123.1 83.6 123.2 83.7 123.3 83.8 C 123.4 84.0 123.6 84.2 123.7 84.3 C 123.8 84.4 123.8 84.5 123.9 84.5 C 124.0 84.6 124.0 84.7 124.1 84.9 C 124.2 85.0 124.3 85.1 124.4 85.3 C 124.5 85.3 124.5 85.4 124.5 85.4 C 124.6 85.6 124.7 85.7 124.8 85.9 C 124.9 86.0 124.9 86.1 125.0 86.2 C 125.0 86.2 125.0 86.2 125.1 86.3 C 125.2 86.5 125.3 86.8 125.5 87.0 C 125.5 87.1 125.5 87.1 125.5 87.1 C 125.5 87.1 125.5 87.1 125.5 87.1 C 125.6 87.4 125.7 87.6 125.8 87.8 C 125.8 87.8 125.8 87.9 125.9 87.9 C 125.9 88.0 125.9 88.1 126.0 88.2 C 126.0 88.3 126.0 88.4 126.1 88.5 C 126.1 88.6 126.1 88.7 126.2 88.8 C 126.2 88.9 126.2 88.9 126.2 89.0 C 126.2 89.0 126.2 89.0 126.2 89.1 C 126.3 89.1 126.3 89.2 126.3 89.2 C 126.4 89.5 126.4 89.7 126.5 90.0 C 126.5 90.0 126.5 90.1 126.5 90.1 C 126.5 90.2 126.5 90.3 126.5 90.3 C 126.5 90.5 126.6 90.6 126.6 90.7 C 126.6 90.9 126.6 91.1 126.6 91.4 C 126.6 91.4 126.7 91.4 126.7 91.5 C 126.7 91.5 126.7 91.5 126.7 91.5 C 126.7 91.8 126.7 92.1 126.7 92.3 C 126.7 92.4 126.7 92.5 126.7 92.5 C 126.7 92.6 126.6 92.7 126.6 92.9 C 126.6 93.0 126.6 93.1 126.6 93.3 C 126.6 93.4 126.6 93.6 126.6 93.8 C 126.6 93.8 126.6 93.8 126.6 93.8 L 125.8 99.1 L 123.9 112.3 C 123.6 114.5 122.8 116.5 121.8 118.5 C 122.1 118.6 122.4 118.8 122.8 119.0 C 122.9 119.0 123.1 119.1 123.2 119.1 C 123.3 119.2 123.4 119.2 123.5 119.2 C 123.7 119.3 123.9 119.4 124.2 119.4 C 124.2 119.4 124.2 119.4 124.3 119.4 C 124.5 119.5 124.8 119.6 125.0 119.6 C 125.1 119.6 125.1 119.6 125.1 119.6 C 125.4 119.6 125.6 119.7 125.9 119.7 C 125.9 119.7 126.0 119.7 126.0 119.7 C 126.2 119.7 126.5 119.7 126.8 119.7 C 126.8 119.7 126.8 119.7 126.9 119.7 C 127.1 119.7 127.4 119.7 127.6 119.7 C 127.7 119.7 127.7 119.7 127.8 119.7 C 128.0 119.7 128.3 119.7 128.5 119.6 C 128.6 119.6 128.6 119.6 128.7 119.6 C 128.9 119.6 129.2 119.5 129.5 119.5 C 129.5 119.5 129.5 119.5 129.6 119.5 C 129.8 119.4 130.0 119.4 130.2 119.3 C 130.3 119.3 130.4 119.3 130.5 119.2 C 130.7 119.2 130.8 119.2 131.0 119.1 C 131.1 119.1 131.3 119.0 131.4 119.0 C 131.5 118.9 131.6 118.9 131.8 118.9 C 132.0 118.8 132.2 118.7 132.4 118.6 C 132.5 118.6 132.6 118.5 132.7 118.5 C 133.0 118.4 133.4 118.2 133.7 118.0 C 133.9 117.9 134.1 117.8 134.3 117.8 C 134.4 117.7 134.5 117.6 134.6 117.6 L 135.2 113.2 L 136.3 105.3 L 142.3 101.8 L 155.7 111.6 L 155.7 111.6 L 153.1 130.1 C 153.0 130.3 151.5 132.9 147.7 136.2 L 146.3 146.5 L 143.9 147.8 C 144.4 147.7 144.9 147.6 145.3 147.4 C 145.8 147.3 146.2 147.2 146.6 147.1 C 147.6 146.8 148.7 146.5 149.6 146.2 C 149.9 146.1 150.1 146.0 150.3 145.9 C 150.5 145.9 150.6 145.8 150.8 145.8 C 151.5 145.5 152.3 145.2 153.1 144.9 C 153.3 144.8 153.6 144.7 153.9 144.6 C 154.5 144.4 155.2 144.1 155.8 143.8 C 156.1 143.7 156.4 143.6 156.7 143.4 C 157.6 143.0 158.5 142.6 159.3 142.2 C 159.8 142.0 160.2 141.7 160.6 141.5 C 160.9 141.3 161.2 141.2 161.5 141.0 M 43.9 148.7 C 43.8 148.6 43.7 148.5 43.5 148.3 C 42.9 147.7 42.2 147.0 41.6 146.3 C 41.4 146.2 41.3 146.1 41.2 145.9 C 40.8 145.5 40.3 145.0 39.9 144.5 C 39.7 144.3 39.6 144.1 39.4 143.9 C 39.3 143.7 39.1 143.6 38.9 143.4 C 38.3 142.6 37.7 141.8 37.1 141.0 C 37.1 141.0 37.1 141.0 37.1 141.0 C 36.3 140.1 35.6 139.1 35.0 138.1 C 34.9 138.0 34.9 138.0 34.8 137.9 C 34.6 137.6 34.5 137.3 34.3 137.0 C 33.9 136.4 33.6 135.8 33.2 135.2 C 33.2 135.1 33.1 135.0 33.0 134.9 C 32.8 134.6 32.7 134.3 32.5 134.0 C 32.2 133.5 32.0 133.0 31.7 132.5 C 31.6 132.3 31.6 132.2 31.5 132.0 C 31.3 131.7 31.2 131.4 31.1 131.1 C 30.9 130.6 30.6 130.2 30.4 129.7 C 30.4 129.6 30.3 129.4 30.2 129.3 C 30.1 128.9 30.0 128.6 29.9 128.3 C 29.7 127.9 29.5 127.4 29.4 127.0 C 29.3 126.8 29.3 126.7 29.2 126.5 C 29.1 126.2 29.0 125.9 28.9 125.5 C 28.8 125.1 28.6 124.6 28.5 124.2 C 28.5 124.1 28.4 123.9 28.4 123.8 C 28.3 123.5 28.2 123.1 28.1 122.8 C 28.0 122.3 27.9 121.9 27.8 121.5 C 27.8 121.3 27.8 121.2 27.7 121.1 C 27.7 120.7 27.6 120.4 27.6 120.0 C 27.5 119.6 27.4 119.1 27.4 118.7 C 27.3 118.6 27.3 118.5 27.3 118.3 C 27.2 118.0 27.2 117.7 27.2 117.3 C 27.1 116.8 27.1 116.4 27.1 115.9 C 27.1 115.8 27.0 115.7 27.0 115.6 C 27.0 115.2 27.0 114.9 27.0 114.6 C 27.0 114.1 27.0 113.6 27.0 113.1 C 27.0 113.0 27.0 112.8 27.0 112.7 C 27.0 112.4 27.0 112.1 27.0 111.8 C 27.0 111.3 27.1 110.8 27.1 110.3 C 27.1 110.1 27.1 109.9 27.1 109.8 C 27.2 109.2 27.3 108.6 27.3 108.1 L 30.0 89.5 C 29.9 90.3 29.8 91.0 29.7 91.7 C 29.7 92.3 29.7 92.8 29.7 93.3 C 29.6 93.8 29.6 94.2 29.6 94.6 C 29.6 95.1 29.6 95.6 29.6 96.1 C 29.7 96.5 29.7 97.0 29.7 97.4 C 29.7 97.9 29.8 98.3 29.8 98.8 C 29.9 99.3 29.9 99.7 30.0 100.2 C 30.0 100.6 30.1 101.1 30.2 101.5 C 30.3 102.0 30.4 102.5 30.5 102.9 C 30.5 103.4 30.7 103.8 30.8 104.3 C 30.9 104.7 31.0 105.2 31.1 105.7 C 31.2 106.1 31.4 106.6 31.5 107.0 C 31.7 107.5 31.8 108.0 32.0 108.4 C 32.1 108.9 32.3 109.3 32.5 109.8 C 32.7 110.3 32.9 110.7 33.1 111.2 C 33.3 111.7 33.5 112.1 33.7 112.6 C 33.9 113.0 34.1 113.5 34.3 113.9 C 34.6 114.5 34.9 115.0 35.1 115.5 C 35.4 115.9 35.6 116.3 35.8 116.7 C 36.2 117.3 36.6 117.9 36.9 118.5 C 37.2 118.8 37.4 119.2 37.6 119.6 C 37.7 119.8 37.9 120.0 38.1 120.2 C 38.0 120.1 38.0 120.1 38.0 120.0 C 37.9 119.6 37.9 119.2 37.8 118.8 C 37.8 118.7 37.8 118.6 37.8 118.5 C 37.7 118.2 37.7 117.9 37.7 117.6 C 37.7 117.2 37.6 116.8 37.6 116.4 C 37.6 116.3 37.6 116.2 37.6 116.1 C 37.5 115.8 37.5 115.5 37.5 115.2 C 37.5 114.8 37.5 114.4 37.5 113.9 C 37.5 113.8 37.5 113.7 37.5 113.6 C 37.5 113.4 37.5 113.1 37.5 112.9 C 37.6 112.4 37.6 111.9 37.6 111.5 C 37.6 111.3 37.6 111.2 37.6 111.1 C 37.7 110.5 37.8 110.0 37.8 109.5 L 37.8 109.5 L 37.8 109.5 L 37.8 109.5 L 37.8 109.5 L 37.8 109.5 L 40.4 91.0 C 40.5 90.5 40.6 90.0 40.7 89.5 C 40.8 89.1 40.9 88.6 41.0 88.1 C 41.1 87.7 41.2 87.4 41.3 87.0 C 41.5 86.4 41.6 85.8 41.8 85.2 C 42.0 84.7 42.2 84.2 42.4 83.7 C 42.6 83.2 42.7 82.8 42.9 82.3 C 43.3 81.4 43.8 80.5 44.3 79.6 C 44.5 79.1 44.8 78.6 45.1 78.2 C 45.2 78.0 45.3 77.9 45.4 77.7 C 45.5 77.4 45.7 77.1 45.9 76.8 C 46.0 76.6 46.2 76.5 46.3 76.3 C 46.5 76.0 46.7 75.7 46.9 75.5 C 47.0 75.3 47.1 75.1 47.3 74.9 C 47.5 74.6 47.7 74.4 47.9 74.1 C 48.0 73.9 48.2 73.8 48.3 73.6 C 48.5 73.3 48.7 73.1 48.9 72.8 C 49.1 72.6 49.3 72.5 49.4 72.3 C 49.7 72.0 49.9 71.8 50.1 71.6 C 50.2 71.4 50.4 71.2 50.6 71.0 C 50.8 70.8 51.1 70.5 51.3 70.3 C 51.5 70.1 51.7 69.9 51.9 69.7 C 52.1 69.5 52.3 69.3 52.5 69.1 C 52.8 68.9 53.0 68.7 53.2 68.5 C 53.4 68.3 53.6 68.1 53.9 67.9 C 54.1 67.7 54.3 67.5 54.6 67.3 C 54.8 67.1 55.0 66.9 55.3 66.7 C 55.5 66.6 55.8 66.4 56.0 66.2 C 56.3 66.0 56.5 65.8 56.8 65.6 C 57.0 65.4 57.3 65.3 57.5 65.1 C 57.8 64.9 58.1 64.7 58.3 64.5 C 58.6 64.3 58.8 64.2 59.1 64.0 C 59.4 63.8 59.7 63.6 59.9 63.4 C 60.2 63.3 60.5 63.1 60.7 62.9 C 61.0 62.8 61.3 62.6 61.6 62.4 C 61.9 62.2 62.2 62.1 62.4 61.9 C 62.8 61.8 63.1 61.6 63.4 61.4 C 63.7 61.3 63.9 61.1 64.2 60.9 C 64.4 60.8 64.6 60.7 64.8 60.6 C 65.0 60.5 65.3 60.4 65.5 60.3 C 66.4 59.8 67.3 59.4 68.2 59.0 C 68.5 58.9 68.8 58.8 69.0 58.7 C 69.4 58.5 69.8 58.3 70.2 58.1 C 70.5 58.0 70.7 57.9 71.0 57.8 C 71.3 57.7 71.5 57.6 71.8 57.5 C 72.6 57.2 73.3 56.9 74.1 56.7 C 74.3 56.6 74.4 56.6 74.6 56.5 C 74.6 56.5 74.6 56.5 74.7 56.5 C 74.9 56.4 75.0 56.4 75.2 56.3 C 76.2 56.0 77.2 55.7 78.2 55.4 C 78.4 55.3 78.5 55.3 78.7 55.2 C 79.0 55.1 79.3 55.1 79.5 55.0 C 80.3 54.8 81.0 54.6 81.8 54.4 C 82.0 54.4 82.2 54.3 82.5 54.3 C 82.7 54.2 82.9 54.2 83.2 54.1 C 83.8 54.0 84.5 53.8 85.2 53.7 C 85.5 53.6 85.8 53.5 86.1 53.5 C 86.3 53.5 86.5 53.4 86.7 53.4 C 87.3 53.3 87.9 53.2 88.6 53.1 C 88.9 53.0 89.3 53.0 89.6 52.9 C 89.8 52.9 90.0 52.9 90.1 52.8 C 90.7 52.8 91.3 52.7 91.9 52.6 C 92.3 52.6 92.7 52.5 93.1 52.5 C 93.2 52.4 93.4 52.4 93.5 52.4 C 94.1 52.4 94.7 52.3 95.3 52.2 C 95.7 52.2 96.1 52.2 96.5 52.1 C 96.7 52.1 96.8 52.1 97.0 52.1 C 97.5 52.1 98.1 52.0 98.7 52.0 C 99.1 52.0 99.5 52.0 99.9 51.9 C 100.1 51.9 100.2 51.9 100.4 51.9 C 101.0 51.9 101.6 51.9 102.1 51.9 C 102.6 51.9 103.0 51.9 103.4 51.9 C 103.5 51.9 103.7 51.9 103.9 51.9 C 104.4 51.9 105.0 51.9 105.6 51.9 C 106.0 51.9 106.5 51.9 106.9 51.9 C 107.0 51.9 107.2 51.9 107.3 51.9 C 108.0 51.9 108.6 52.0 109.2 52.0 C 109.6 52.0 110.1 52.0 110.5 52.0 C 110.6 52.0 110.7 52.1 110.9 52.1 C 111.5 52.1 112.2 52.2 112.9 52.2 C 113.3 52.3 113.7 52.3 114.2 52.3 C 114.2 52.3 114.3 52.3 114.4 52.3 C 115.3 52.4 116.1 52.5 117.0 52.6 C 117.3 52.7 117.6 52.7 117.9 52.7 C 118.0 52.7 118.0 52.8 118.1 52.8 C 119.3 52.9 120.6 53.1 121.8 53.3 C 121.9 53.3 121.9 53.3 122.0 53.3 C 122.2 53.4 122.5 53.4 122.7 53.5 C 123.7 53.7 124.8 53.8 125.8 54.1 C 126.0 54.1 126.1 54.1 126.3 54.2 C 126.5 54.2 126.8 54.3 127.0 54.3 C 128.1 54.6 129.2 54.8 130.3 55.1 C 130.5 55.1 130.8 55.2 131.0 55.3 C 131.2 55.3 131.3 55.3 131.5 55.4 C 131.8 55.5 132.2 55.6 132.5 55.7 C 133.2 55.8 133.9 56.0 134.6 56.2 C 135.0 56.4 135.3 56.5 135.7 56.6 C 135.9 56.7 136.2 56.7 136.4 56.8 C 136.7 56.9 137.1 57.0 137.4 57.1 C 138.0 57.3 138.6 57.5 139.2 57.7 C 139.7 57.9 140.2 58.1 140.8 58.3 C 141.4 58.5 142.0 58.7 142.6 59.0 C 142.8 59.1 143.1 59.2 143.4 59.3 C 143.6 59.4 143.9 59.5 144.2 59.6 C 144.6 59.8 145.1 60.0 145.6 60.2 C 146.1 60.4 146.7 60.7 147.2 60.9 C 147.7 61.1 148.1 61.3 148.6 61.5 C 149.1 61.8 149.7 62.1 150.2 62.3 C 150.7 62.5 151.1 62.8 151.6 63.0 C 152.1 63.3 152.6 63.5 153.1 63.8 C 153.6 64.1 154.0 64.3 154.4 64.5 C 155.0 64.8 155.5 65.1 156.0 65.4 C 156.4 65.7 156.8 65.9 157.3 66.2 C 157.8 66.5 158.3 66.8 158.8 67.2 C 159.2 67.4 159.6 67.7 160.0 67.9 C 160.5 68.3 161.0 68.6 161.5 69.0 C 161.8 69.2 162.2 69.5 162.6 69.8 C 163.1 70.1 163.6 70.5 164.1 70.9 C 164.4 71.2 164.8 71.4 165.1 71.7 C 165.2 71.7 165.2 71.8 165.3 71.8 C 166.0 72.4 166.7 73.0 167.5 73.7 C 168.4 74.5 169.2 75.3 170.1 76.1 C 170.2 76.1 170.2 76.2 170.3 76.3 C 170.9 76.8 171.5 77.4 172.0 78.0 C 172.1 78.1 172.2 78.2 172.3 78.3 C 172.7 78.8 173.1 79.2 173.5 79.6 C 173.6 79.8 173.8 80.0 173.9 80.1 C 174.0 80.3 174.2 80.4 174.3 80.6 C 174.9 81.3 175.4 82.0 175.9 82.6 C 175.9 82.6 175.9 82.6 175.9 82.6 C 176.6 83.5 177.2 84.4 177.8 85.2 C 177.8 85.3 177.8 85.3 177.9 85.4 C 178.1 85.6 178.2 85.9 178.4 86.2 C 178.7 86.7 179.0 87.2 179.3 87.7 C 179.4 87.8 179.4 87.9 179.5 88.0 C 179.6 88.3 179.8 88.5 179.9 88.8 C 180.2 89.2 180.4 89.7 180.6 90.1 C 180.7 90.2 180.7 90.4 180.8 90.5 C 180.9 90.8 181.0 91.0 181.2 91.3 C 181.4 91.7 181.6 92.1 181.7 92.5 C 181.8 92.7 181.9 92.8 181.9 92.9 C 182.0 93.2 182.1 93.5 182.2 93.8 C 182.4 94.1 182.5 94.5 182.7 94.9 C 182.7 95.1 182.8 95.2 182.8 95.3 C 182.9 95.6 183.0 95.9 183.1 96.2 C 183.2 96.6 183.3 96.9 183.4 97.3 C 183.5 97.4 183.5 97.6 183.5 97.7 C 183.6 98.0 183.7 98.3 183.7 98.6 C 183.8 99.0 183.9 99.3 184.0 99.7 C 184.0 99.8 184.1 100.0 184.1 100.1 C 184.1 100.4 184.2 100.7 184.2 101.0 C 184.3 101.4 184.4 101.8 184.4 102.1 C 184.4 102.2 184.5 102.4 184.5 102.5 C 184.5 102.8 184.5 103.1 184.6 103.3 C 184.6 103.8 184.6 104.2 184.7 104.6 C 184.7 104.7 184.7 104.8 184.7 104.9 C 184.7 105.2 184.7 105.4 184.7 105.7 C 184.7 106.2 184.7 106.6 184.7 107.0 C 184.7 107.1 184.7 107.3 184.7 107.4 C 184.7 107.6 184.7 107.9 184.7 108.1 C 184.7 108.6 184.7 109.0 184.6 109.5 C 184.6 109.6 184.6 109.8 184.6 109.9 C 184.6 110.4 184.5 110.9 184.4 111.4 C 184.4 111.4 184.4 111.4 184.4 111.4 L 181.8 129.9 L 181.8 129.9 L 181.8 129.9 C 181.3 133.5 180.2 136.9 178.6 140.2 C 178.6 140.1 178.7 140.1 178.7 140.0 C 179.0 139.8 179.3 139.6 179.5 139.4 C 179.8 139.2 180.0 138.9 180.3 138.7 C 180.6 138.5 180.8 138.2 181.0 138.0 C 181.3 137.8 181.6 137.5 181.8 137.3 C 182.0 137.1 182.3 136.8 182.5 136.6 C 182.8 136.4 183.0 136.1 183.2 135.9 C 183.5 135.6 183.7 135.4 183.9 135.2 C 184.1 134.9 184.4 134.7 184.6 134.4 C 184.8 134.2 185.0 134.0 185.2 133.7 C 185.4 133.5 185.6 133.2 185.9 132.9 C 186.0 132.7 186.2 132.5 186.4 132.2 C 186.6 132.0 186.8 131.7 187.1 131.4 C 187.2 131.2 187.4 131.0 187.6 130.7 C 187.8 130.4 188.0 130.1 188.2 129.8 C 188.3 129.6 188.5 129.4 188.6 129.2 C 188.9 128.8 189.1 128.5 189.3 128.1 C 189.4 128.0 189.5 127.8 189.6 127.6 C 189.9 127.1 190.2 126.6 190.5 126.0 C 192.8 121.8 194.3 117.4 194.9 112.9 L 192.3 131.4 C 191.6 136.0 190.2 140.4 187.9 144.5 C 187.6 145.1 187.3 145.6 187.0 146.1 C 186.9 146.3 186.8 146.5 186.7 146.7 C 186.4 147.0 186.2 147.4 186.0 147.7 C 185.9 147.9 185.7 148.1 185.6 148.3 C 185.4 148.6 185.2 148.9 184.9 149.2 C 184.8 149.5 184.6 149.7 184.4 149.9 C 184.2 150.2 184.0 150.5 183.8 150.8 C 183.6 151.0 183.4 151.2 183.2 151.4 C 183.0 151.7 182.8 152.0 182.6 152.3 C 182.4 152.5 182.2 152.7 182.0 152.9 C 181.7 153.2 181.5 153.4 181.3 153.7 C 181.1 153.9 180.8 154.2 180.6 154.4 C 180.4 154.6 180.1 154.9 179.9 155.1 C 179.7 155.4 179.4 155.6 179.2 155.8 C 178.9 156.0 178.7 156.3 178.4 156.5 C 178.2 156.8 177.9 157.0 177.7 157.2 C 177.4 157.4 177.2 157.7 176.9 157.9 C 176.6 158.1 176.4 158.3 176.1 158.5 C 175.8 158.8 175.6 159.0 175.3 159.2 C 175.0 159.4 174.7 159.7 174.5 159.9 C 174.2 160.1 173.9 160.3 173.6 160.5 C 173.3 160.7 173.0 160.9 172.7 161.1 C 172.4 161.4 172.1 161.6 171.8 161.8 C 171.5 162.0 171.2 162.2 170.9 162.4 C 170.6 162.6 170.3 162.8 170.0 163.0 C 169.7 163.2 169.3 163.4 169.0 163.6 C 168.7 163.8 168.4 164.0 168.0 164.2 C 167.7 164.4 167.4 164.6 167.1 164.7 C 166.7 164.9 166.4 165.1 166.0 165.3 C 165.7 165.5 165.4 165.7 165.0 165.9 C 164.8 166.0 164.6 166.1 164.4 166.2 C 164.1 166.4 163.8 166.5 163.5 166.7 C 162.5 167.2 161.5 167.6 160.5 168.1 C 160.2 168.2 159.8 168.4 159.5 168.5 C 159.1 168.7 158.6 168.9 158.1 169.1 C 157.9 169.2 157.6 169.3 157.3 169.4 C 157.0 169.6 156.7 169.7 156.4 169.8 C 155.5 170.1 154.6 170.5 153.7 170.8 C 153.6 170.8 153.4 170.9 153.2 171.0 C 153.1 171.0 153.1 171.0 153.0 171.0 C 152.1 171.3 151.1 171.7 150.1 172.0 C 149.8 172.0 149.6 172.1 149.3 172.2 C 149.0 172.3 148.8 172.4 148.5 172.4 C 148.1 172.5 147.8 172.6 147.5 172.7 C 146.7 172.9 145.8 173.1 144.9 173.3 C 144.7 173.4 144.4 173.5 144.1 173.5 C 143.9 173.6 143.6 173.7 143.3 173.7 C 142.6 173.9 141.8 174.0 141.0 174.2 C 140.6 174.3 140.3 174.4 140.0 174.4 C 139.7 174.5 139.5 174.5 139.3 174.5 C 138.6 174.7 137.9 174.8 137.1 174.9 C 136.7 175.0 136.3 175.0 135.9 175.1 C 135.7 175.1 135.6 175.1 135.4 175.2 C 134.7 175.3 134.0 175.3 133.3 175.4 C 132.9 175.5 132.4 175.6 132.0 175.6 C 131.8 175.6 131.6 175.6 131.4 175.7 C 130.8 175.7 130.1 175.8 129.4 175.8 C 129.0 175.9 128.5 175.9 128.0 176.0 C 127.9 176.0 127.7 176.0 127.5 176.0 C 126.9 176.0 126.2 176.1 125.6 176.1 C 125.1 176.1 124.6 176.2 124.1 176.2 C 123.9 176.2 123.8 176.2 123.6 176.2 C 122.9 176.2 122.3 176.2 121.6 176.3 C 121.1 176.3 120.6 176.3 120.2 176.3 C 120.0 176.3 119.8 176.3 119.6 176.3 C 119.0 176.3 118.3 176.3 117.6 176.3 C 117.1 176.3 116.7 176.3 116.2 176.3 C 116.0 176.3 115.8 176.2 115.7 176.2 C 114.9 176.2 114.2 176.2 113.5 176.1 C 113.0 176.1 112.5 176.1 112.1 176.1 C 111.9 176.1 111.8 176.1 111.6 176.1 C 110.8 176.0 110.0 175.9 109.2 175.9 C 108.8 175.8 108.3 175.8 107.8 175.8 C 107.7 175.8 107.6 175.7 107.5 175.7 C 106.6 175.6 105.6 175.5 104.6 175.4 C 104.2 175.4 103.9 175.3 103.5 175.3 C 103.5 175.3 103.4 175.3 103.4 175.3 C 101.9 175.1 100.5 174.9 99.0 174.6 C 99.0 174.6 98.9 174.6 98.9 174.6 C 98.6 174.5 98.3 174.5 98.1 174.4 C 96.9 174.2 95.7 174.0 94.5 173.8 C 94.3 173.7 94.1 173.7 93.9 173.7 C 93.6 173.6 93.4 173.5 93.1 173.5 C 91.8 173.2 90.6 172.9 89.3 172.6 C 89.1 172.5 88.8 172.5 88.5 172.4 C 88.3 172.4 88.2 172.3 88.0 172.3 C 87.6 172.2 87.2 172.0 86.8 171.9 C 86.0 171.7 85.2 171.5 84.4 171.3 C 84.0 171.1 83.6 171.0 83.2 170.9 C 82.9 170.8 82.6 170.7 82.3 170.6 C 82.0 170.5 81.6 170.4 81.2 170.3 C 80.5 170.0 79.8 169.8 79.1 169.6 C 78.5 169.4 77.9 169.1 77.4 168.9 C 76.7 168.7 76.0 168.4 75.3 168.1 C 75.0 168.0 74.7 167.9 74.4 167.8 C 74.1 167.7 73.8 167.6 73.5 167.4 C 72.9 167.2 72.4 167.0 71.8 166.8 C 71.2 166.5 70.6 166.2 70.0 165.9 C 69.4 165.7 68.9 165.4 68.4 165.2 C 67.8 164.9 67.1 164.6 66.5 164.3 C 66.0 164.1 65.5 163.8 65.0 163.5 C 64.4 163.2 63.8 162.9 63.2 162.6 C 62.7 162.3 62.2 162.0 61.7 161.8 C 61.1 161.4 60.5 161.1 59.9 160.7 C 59.4 160.4 58.9 160.2 58.5 159.9 C 57.9 159.5 57.3 159.1 56.7 158.8 C 56.3 158.5 55.8 158.2 55.4 157.9 C 54.8 157.5 54.2 157.1 53.6 156.7 C 53.2 156.4 52.8 156.1 52.3 155.8 C 51.8 155.3 51.2 154.9 50.6 154.5 C 50.2 154.2 49.8 153.9 49.5 153.6 C 49.4 153.5 49.3 153.5 49.3 153.4 C 48.4 152.7 47.6 152.0 46.8 151.3 C 45.9 150.6 45.1 149.8 44.3 149.1 C 44.2 148.9 44.0 148.8 43.9 148.7 " fill="#F9CE1D"></path><path d="M 74.1 111.9 L 69.8 108.7 L 70.8 102.1 C 76.8 102.7 82.8 103.2 88.8 103.8 C 88.8 103.8 88.7 103.8 88.7 103.8 L 88.2 104.1 L 86.7 114.5 L 81.6 117.4 L 75.5 112.9 C 75.5 112.6 75.4 112.4 75.2 112.2 C 74.9 111.9 74.5 111.8 74.1 111.9 " fill="#F9CE1D"></path><path d="M 47.4 119.5 C 47.6 119.8 47.8 120.2 48.1 120.5 C 48.6 121.2 49.2 121.9 49.7 122.5 L 50.2 123.0 C 50.7 123.7 51.2 124.3 51.8 124.9 L 52.1 125.2 C 52.7 125.8 53.4 126.5 54.0 127.2 C 54.9 128.0 55.8 128.8 56.7 129.6 C 57.5 130.3 58.3 131.0 59.1 131.6 C 59.3 131.8 59.5 132.0 59.8 132.1 L 60.3 132.5 C 60.7 132.9 61.2 133.2 61.6 133.6 C 61.9 133.8 62.2 133.9 62.4 134.1 L 63.0 134.5 C 63.4 134.8 63.9 135.1 64.3 135.4 C 64.6 135.6 64.9 135.8 65.2 136.0 L 65.7 136.3 C 66.1 136.6 66.6 136.9 67.0 137.2 C 67.4 137.4 67.7 137.6 68.1 137.8 L 68.3 138.0 C 68.8 138.3 69.4 138.6 69.9 138.9 C 70.3 139.1 70.7 139.3 71.2 139.6 C 71.7 139.9 72.3 140.2 72.8 140.4 C 73.3 140.7 73.7 140.9 74.2 141.1 C 74.7 141.4 75.3 141.6 75.8 141.9 C 76.3 142.1 76.7 142.3 77.2 142.5 C 77.8 142.8 78.3 143.0 78.9 143.3 C 79.3 143.5 79.8 143.7 80.3 143.9 C 80.8 144.1 81.4 144.3 81.9 144.5 C 82.5 144.7 83.1 145.0 83.7 145.2 C 84.2 145.4 84.8 145.6 85.3 145.7 C 85.9 146.0 86.5 146.2 87.2 146.4 L 87.5 146.5 C 87.9 146.6 88.4 146.8 88.8 146.9 C 89.2 147.0 89.6 147.1 90.0 147.2 C 90.7 147.5 91.3 147.6 92.1 147.8 L 93.1 148.1 C 93.4 148.2 94.3 148.4 94.3 148.4 C 95.4 148.7 96.5 149.0 97.6 149.2 C 97.6 149.2 98.5 149.4 98.9 149.5 C 99.9 149.7 100.9 149.9 102.0 150.1 L 102.9 150.2 C 104.1 150.4 105.4 150.6 106.7 150.8 C 106.9 150.8 107.1 150.8 107.3 150.8 L 107.8 150.9 C 108.6 151.0 109.5 151.1 110.3 151.2 C 110.7 151.2 111.0 151.2 111.4 151.3 L 112.1 151.3 C 112.7 151.4 113.3 151.4 113.9 151.5 C 114.3 151.5 114.7 151.5 115.1 151.5 L 115.8 151.6 C 116.4 151.6 116.9 151.6 117.5 151.6 C 118.0 151.6 118.5 151.7 119.0 151.7 L 119.4 151.7 C 119.9 151.7 120.5 151.7 121.0 151.7 C 121.6 151.7 122.1 151.7 122.7 151.7 L 122.9 151.7 C 123.5 151.6 124.0 151.6 124.5 151.6 C 125.0 151.6 125.4 151.6 125.9 151.5 L 126.5 151.5 C 127.0 151.5 127.5 151.5 128.0 151.4 C 128.4 151.4 128.9 151.4 129.3 151.3 L 129.9 151.3 C 130.4 151.2 130.9 151.2 131.4 151.1 C 131.9 151.1 132.4 151.0 132.9 151.0 L 133.2 150.9 C 133.7 150.8 134.3 150.8 134.9 150.7 C 135.3 150.6 135.7 150.6 136.1 150.5 L 136.5 150.4 C 137.1 150.3 137.7 150.2 138.4 150.1 C 138.9 150.0 139.4 149.9 139.9 149.8 L 142.1 149.4 L 134.6 143.3 L 134.0 143.5 C 133.3 143.8 132.6 144.1 131.8 144.4 L 131.7 144.4 C 131.4 144.5 131.2 144.6 130.9 144.7 C 130.9 144.7 129.9 145.0 129.7 145.0 C 129.1 145.2 128.5 145.3 127.9 145.5 L 127.2 145.6 C 126.9 145.7 126.6 145.8 126.3 145.8 L 124.8 146.1 C 124.4 146.1 123.9 146.2 123.4 146.3 L 123.1 146.3 C 122.8 146.3 122.5 146.3 122.2 146.4 C 121.9 146.4 121.5 146.4 121.1 146.4 L 121.0 146.4 C 120.6 146.5 120.2 146.5 119.8 146.5 C 119.6 146.5 118.7 146.5 118.7 146.5 C 118.3 146.4 117.9 146.4 117.6 146.4 L 116.5 146.3 C 116.1 146.3 115.7 146.2 115.4 146.2 L 114.2 146.0 C 113.8 146.0 113.4 145.9 113.1 145.8 C 113.1 145.8 111.9 145.6 111.8 145.5 C 111.5 145.5 111.2 145.4 110.9 145.3 L 110.4 145.1 C 109.8 144.9 109.2 144.7 108.6 144.5 L 108.6 144.5 L 108.6 144.5 C 108.0 144.2 107.4 144.0 106.8 143.7 C 106.7 143.6 106.2 143.4 106.2 143.4 C 105.8 143.2 105.4 143.0 105.0 142.7 C 104.9 142.6 104.7 142.5 104.6 142.4 L 104.4 142.3 C 104.0 142.1 103.7 141.9 103.3 141.6 C 103.1 141.5 102.9 141.3 102.7 141.2 L 102.4 141.0 C 102.3 140.9 102.2 140.8 102.2 140.8 C 101.9 140.6 101.7 140.4 101.4 140.1 C 101.1 139.8 100.8 139.6 100.5 139.3 L 100.3 139.1 L 100.2 139.0 C 100.0 138.8 99.7 138.5 99.4 138.2 L 99.3 138.1 L 99.2 138.0 C 99.0 137.7 98.8 137.5 98.6 137.2 L 98.5 137.1 C 98.4 136.9 98.2 136.6 98.0 136.3 L 97.5 135.6 L 97.2 134.9 C 97.1 134.8 97.0 134.6 97.0 134.4 L 96.9 134.3 C 96.9 134.3 96.7 133.8 96.7 133.7 L 96.5 133.3 C 96.5 133.2 96.5 133.1 96.4 132.9 L 96.3 132.3 L 96.2 131.6 C 96.2 131.5 96.1 130.9 96.1 130.9 C 96.1 130.7 96.1 130.5 96.1 130.4 L 96.1 130.2 C 96.1 130.0 96.1 129.7 96.2 129.4 C 96.2 129.3 96.2 129.1 96.2 128.9 L 98.8 110.4 C 98.9 110.2 98.9 110.1 98.9 109.9 L 99.0 109.6 C 99.3 108.1 99.9 106.6 100.8 104.9 C 108.4 105.5 116.0 106.2 123.6 106.9 L 122.9 112.2 C 122.6 113.9 122.0 115.8 120.8 117.9 L 120.3 118.9 L 121.2 119.4 C 121.6 119.6 121.9 119.8 122.4 120.0 C 122.5 120.0 122.7 120.1 122.9 120.2 L 123.1 120.2 C 123.4 120.3 123.6 120.4 124.0 120.5 C 124.3 120.6 124.6 120.6 124.9 120.7 C 125.2 120.7 125.5 120.8 125.9 120.8 C 126.2 120.8 126.5 120.8 126.9 120.8 C 127.1 120.8 127.4 120.8 127.7 120.8 L 127.8 120.8 C 128.1 120.8 128.4 120.7 128.7 120.7 L 128.8 120.7 C 129.1 120.7 129.4 120.6 129.7 120.6 L 129.8 120.5 C 130.0 120.5 130.3 120.4 130.5 120.4 L 130.8 120.3 C 131.0 120.2 131.1 120.2 131.4 120.1 L 131.7 120.0 C 131.9 120.0 132.0 119.9 132.1 119.9 C 132.4 119.8 132.6 119.7 132.8 119.6 L 133.1 119.5 C 133.5 119.3 133.8 119.2 134.2 119.0 L 134.8 118.7 L 135.6 118.3 L 137.0 108.1 C 141.6 108.6 146.2 109.0 150.8 109.4 L 154.6 112.1 L 152.1 129.8 C 151.7 130.3 150.8 131.8 148.8 133.7 C 148.2 134.3 147.6 134.9 147.0 135.4 L 146.7 135.7 L 145.3 145.8 L 143.4 146.9 L 144.2 148.9 L 144.3 148.8 C 144.7 148.7 145.2 148.6 145.6 148.5 L 145.7 148.5 C 146.1 148.4 146.5 148.2 146.9 148.1 C 148.0 147.8 149.0 147.5 150.0 147.2 C 150.0 147.2 150.5 147.0 150.7 147.0 L 151.1 146.8 C 151.9 146.5 152.7 146.2 153.5 145.9 L 154.3 145.6 C 154.9 145.4 155.6 145.1 156.3 144.8 L 157.1 144.4 C 158.0 144.0 158.9 143.6 159.8 143.2 C 160.2 143.0 160.6 142.8 161.0 142.6 C 161.0 142.6 161.7 142.1 162.0 142.0 C 162.3 141.8 162.7 141.6 163.0 141.5 C 163.3 141.3 163.5 141.1 163.8 141.0 C 164.1 140.8 164.4 140.6 164.7 140.4 C 165.0 140.3 165.3 140.1 165.5 139.9 C 165.8 139.7 166.1 139.6 166.4 139.4 C 166.4 139.4 167.0 139.0 167.2 138.8 C 167.4 138.7 167.7 138.5 167.9 138.3 C 167.9 138.3 168.5 137.9 168.7 137.7 C 169.0 137.5 169.3 137.3 169.5 137.1 L 170.3 136.6 C 170.5 136.4 170.7 136.2 170.9 136.0 C 170.9 136.0 171.5 135.5 171.7 135.4 C 171.9 135.2 172.1 135.0 172.4 134.7 C 172.4 134.7 172.9 134.3 173.1 134.2 C 173.3 134.0 173.4 133.8 173.6 133.6 L 173.9 133.3 C 174.1 133.2 174.2 133.1 174.4 132.9 C 174.6 132.7 174.8 132.5 174.9 132.3 L 175.2 132.1 C 175.3 131.9 175.5 131.8 175.6 131.6 C 175.8 131.4 176.0 131.2 176.1 131.0 L 176.4 130.7 C 176.5 130.6 176.7 130.5 176.8 130.3 C 176.9 130.1 177.1 129.9 177.2 129.8 C 177.2 129.8 177.8 129.1 177.9 129.0 C 178.0 128.8 178.2 128.6 178.3 128.4 C 178.3 128.4 178.8 127.7 178.9 127.6 C 179.0 127.4 179.2 127.2 179.3 127.0 L 179.9 126.2 C 180.0 126.0 180.2 125.7 180.4 125.4 L 180.7 124.8 C 181.0 124.4 181.3 123.9 181.6 123.4 C 181.6 123.3 181.6 123.3 181.7 123.2 L 180.7 129.9 C 180.2 133.2 179.2 136.5 177.6 139.7 L 178.4 140.2 C 176.4 146.9 174.3 153.5 172.3 160.1 L 172.2 160.2 L 172.1 160.3 C 171.8 160.5 171.5 160.7 171.2 160.9 C 170.9 161.1 170.6 161.3 170.3 161.5 C 170.0 161.7 169.7 161.9 169.4 162.1 C 169.1 162.3 168.9 162.4 168.6 162.6 L 168.5 162.7 C 168.1 162.9 167.8 163.1 167.5 163.3 C 167.2 163.4 166.9 163.6 166.5 163.8 C 166.2 164.0 165.9 164.2 165.5 164.4 C 165.2 164.6 164.9 164.7 164.5 164.9 L 163.9 165.3 L 163.0 165.7 C 162.1 166.2 161.1 166.6 160.1 167.1 C 159.8 167.2 158.6 167.7 158.6 167.7 C 158.3 167.8 158.0 168.0 157.7 168.1 C 157.7 168.1 156.3 168.7 156.0 168.8 C 155.1 169.1 154.3 169.4 153.4 169.7 L 152.7 170.0 C 151.7 170.3 150.7 170.6 149.8 170.9 L 148.2 171.4 C 148.0 171.4 147.8 171.5 147.7 171.5 L 147.2 171.6 C 146.4 171.9 145.5 172.1 144.7 172.3 C 144.7 172.3 144.0 172.5 143.9 172.5 C 143.7 172.5 143.1 172.6 143.1 172.6 C 142.3 172.8 141.5 173.0 140.8 173.1 L 140.3 173.2 C 140.1 173.3 139.9 173.3 139.8 173.4 L 139.1 173.5 C 138.4 173.6 137.7 173.7 137.0 173.8 L 136.4 173.9 C 136.2 173.9 136.0 174.0 135.8 174.0 L 135.2 174.1 C 134.6 174.2 134.0 174.3 133.4 174.3 L 132.6 174.4 C 132.4 174.5 132.1 174.5 131.9 174.5 L 131.3 174.6 C 130.7 174.6 130.1 174.7 129.5 174.7 L 128.8 174.8 C 128.5 174.8 128.2 174.9 128.0 174.9 L 127.4 174.9 C 126.9 175.0 126.3 175.0 125.8 175.0 L 124.9 175.1 C 124.6 175.1 124.4 175.1 124.1 175.1 L 123.6 175.1 C 123.0 175.1 122.5 175.2 121.9 175.2 L 121.0 175.2 C 120.7 175.2 120.4 175.2 120.2 175.2 L 119.6 175.2 C 119.1 175.2 118.5 175.2 118.0 175.2 L 117.0 175.2 C 116.8 175.2 116.5 175.2 116.2 175.2 L 115.7 175.1 C 115.1 175.1 114.5 175.1 113.9 175.1 L 112.9 175.0 C 112.6 175.0 112.4 175.0 112.1 175.0 L 111.7 175.0 C 111.0 174.9 110.2 174.9 109.5 174.8 L 108.7 174.7 C 108.5 174.7 108.2 174.7 107.9 174.7 L 107.6 174.6 C 106.7 174.6 105.7 174.4 104.7 174.3 L 104.2 174.3 C 104.0 174.2 103.8 174.2 103.6 174.2 L 103.5 174.2 C 102.1 174.0 100.7 173.8 99.2 173.5 L 99.0 173.5 C 98.9 173.5 98.4 173.4 98.3 173.4 C 97.1 173.2 95.9 172.9 94.7 172.7 L 94.1 172.6 C 94.0 172.6 93.5 172.4 93.3 172.4 C 92.1 172.1 90.8 171.8 89.6 171.5 C 89.5 171.5 88.9 171.4 88.8 171.4 L 87.1 170.9 C 86.3 170.7 85.5 170.4 84.7 170.2 C 84.3 170.1 82.6 169.6 82.6 169.6 C 82.4 169.5 81.6 169.2 81.6 169.2 C 80.9 169.0 80.2 168.8 79.5 168.5 C 78.9 168.3 78.3 168.1 77.7 167.9 C 77.0 167.7 76.4 167.4 75.7 167.1 C 75.7 167.1 74.9 166.9 74.8 166.8 C 74.6 166.7 74.4 166.7 74.3 166.6 L 73.9 166.4 C 73.3 166.2 72.8 166.0 72.3 165.8 C 71.6 165.5 71.0 165.2 70.4 164.9 C 69.9 164.7 69.4 164.5 68.8 164.2 C 68.2 163.9 67.6 163.6 67.0 163.3 C 66.5 163.1 66.0 162.8 65.5 162.6 C 64.9 162.3 64.3 161.9 63.7 161.6 C 63.2 161.3 62.7 161.1 62.2 160.8 C 61.6 160.5 61.0 160.1 60.5 159.8 L 60.3 159.7 C 59.8 159.4 59.4 159.2 59.0 158.9 C 58.5 158.6 57.9 158.2 57.3 157.9 L 56.9 157.6 C 56.6 157.4 56.3 157.2 56.0 157.0 C 55.4 156.6 54.9 156.2 54.3 155.8 L 53.9 155.5 C 53.6 155.3 53.3 155.1 53.0 154.9 C 52.5 154.5 52.0 154.2 51.5 153.8 L 50.9 153.3 C 50.6 153.1 50.4 152.9 50.1 152.7 L 50.0 152.6 C 49.1 151.9 48.3 151.2 47.5 150.5 C 46.7 149.8 45.9 149.1 45.0 148.3 L 44.3 147.6 C 44.1 147.4 44.0 147.2 43.8 147.1 C 44.1 144.0 44.4 140.9 44.9 137.9 C 45.7 131.7 46.5 125.6 47.4 119.5 " fill="#F6DF3C"></path><path d="M 82.6 169.6 C 82.4 169.5 81.6 169.2 81.6 169.2 C 80.9 169.0 80.2 168.8 79.5 168.5 C 78.9 168.3 78.3 168.1 77.7 167.9 C 77.0 167.7 76.4 167.4 75.7 167.1 C 75.7 167.1 74.9 166.9 74.8 166.8 C 74.6 166.7 74.4 166.7 74.3 166.6 L 73.9 166.4 C 73.3 166.2 72.8 166.0 72.3 165.8 C 71.6 165.5 71.0 165.2 70.4 164.9 C 69.9 164.7 69.4 164.5 68.8 164.2 C 68.2 163.9 67.6 163.6 67.0 163.3 C 66.5 163.1 66.0 162.8 65.5 162.6 C 64.9 162.3 64.3 161.9 63.7 161.6 C 63.2 161.3 62.7 161.1 62.2 160.8 C 61.6 160.5 61.0 160.1 60.5 159.8 L 60.3 159.7 C 59.8 159.4 59.4 159.2 59.0 158.9 C 58.5 158.6 57.9 158.2 57.3 157.9 L 56.9 157.6 C 56.9 157.6 56.8 157.6 56.8 157.5 C 58.5 149.8 60.5 142.1 62.9 134.5 L 63.0 134.5 C 63.4 134.8 63.9 135.1 64.3 135.4 C 64.6 135.6 64.9 135.8 65.2 136.0 L 65.7 136.3 C 66.1 136.6 66.6 136.9 67.0 137.2 C 67.4 137.4 67.7 137.6 68.1 137.8 L 68.3 138.0 C 68.8 138.3 69.4 138.6 69.9 138.9 C 70.3 139.1 70.7 139.3 71.2 139.6 C 71.7 139.9 72.3 140.2 72.8 140.4 C 73.3 140.7 73.7 140.9 74.2 141.1 C 74.7 141.4 75.3 141.6 75.8 141.9 C 76.3 142.1 76.7 142.3 77.2 142.5 C 77.8 142.8 78.3 143.0 78.9 143.3 C 79.3 143.5 79.8 143.7 80.3 143.9 C 80.8 144.1 81.4 144.3 81.9 144.5 C 82.5 144.7 83.1 145.0 83.7 145.2 C 84.2 145.4 84.8 145.6 85.3 145.7 C 85.9 146.0 86.5 146.2 87.2 146.4 L 87.5 146.5 C 87.9 146.6 88.4 146.8 88.8 146.9 C 89.2 147.0 89.6 147.1 90.0 147.2 C 90.7 147.5 91.3 147.6 92.0 147.8 L 93.1 148.1 C 93.4 148.2 94.3 148.4 94.3 148.4 C 95.4 148.7 96.5 149.0 97.6 149.2 C 97.6 149.2 98.5 149.4 98.9 149.5 C 99.9 149.7 100.9 149.9 102.0 150.1 L 102.9 150.2 C 104.1 150.4 105.4 150.6 106.7 150.8 C 106.9 150.8 107.1 150.8 107.3 150.9 L 107.8 150.9 C 108.6 151.0 109.5 151.1 110.3 151.2 C 110.7 151.2 111.0 151.2 111.4 151.3 L 112.1 151.3 C 112.7 151.4 113.3 151.4 113.9 151.5 C 114.3 151.5 114.7 151.5 115.1 151.5 L 115.8 151.6 C 116.4 151.6 116.9 151.6 117.5 151.6 C 118.0 151.6 118.5 151.7 119.0 151.7 L 119.4 151.7 C 119.9 151.7 120.5 151.7 121.0 151.7 C 121.6 151.7 122.1 151.7 122.7 151.7 L 122.9 151.7 C 123.5 151.6 124.0 151.6 124.5 151.6 C 125.0 151.6 125.4 151.6 125.9 151.5 L 126.5 151.5 C 127.0 151.5 127.5 151.5 128.0 151.4 C 128.4 151.4 128.9 151.4 129.3 151.3 L 129.9 151.3 C 130.4 151.2 130.9 151.2 131.4 151.1 C 131.9 151.1 132.4 151.0 132.9 151.0 L 133.2 150.9 C 133.7 150.8 134.3 150.8 134.9 150.7 C 135.3 150.6 135.7 150.6 136.1 150.5 L 136.5 150.4 C 137.1 150.3 137.7 150.2 138.4 150.1 C 138.9 150.0 139.4 149.9 139.9 149.8 L 142.1 149.4 L 134.6 143.3 L 134.0 143.5 C 133.3 143.8 132.6 144.1 131.8 144.4 L 131.7 144.4 C 131.4 144.5 131.2 144.6 130.9 144.7 C 130.9 144.7 129.9 145.0 129.7 145.0 C 129.1 145.2 128.5 145.3 127.9 145.5 L 127.2 145.6 C 126.9 145.7 126.6 145.8 126.3 145.8 L 124.8 146.1 C 124.4 146.1 123.9 146.2 123.4 146.3 L 123.1 146.3 C 122.8 146.3 122.5 146.3 122.2 146.4 C 121.9 146.4 121.5 146.4 121.1 146.4 L 121.0 146.4 C 120.6 146.5 120.2 146.5 119.8 146.5 C 119.6 146.5 118.7 146.5 118.7 146.5 C 118.3 146.4 117.9 146.4 117.6 146.4 L 116.5 146.3 C 116.1 146.3 115.7 146.2 115.4 146.2 L 114.2 146.0 C 113.8 146.0 113.4 145.9 113.1 145.8 C 113.1 145.8 111.9 145.6 111.8 145.5 C 111.5 145.4 111.2 145.4 110.9 145.3 L 110.4 145.1 C 109.8 144.9 109.2 144.7 108.6 144.5 L 108.6 144.5 L 108.6 144.5 C 108.0 144.2 107.4 144.0 106.8 143.7 C 106.7 143.6 106.2 143.4 106.2 143.4 C 105.8 143.2 105.4 143.0 105.0 142.7 C 104.9 142.6 104.7 142.5 104.6 142.4 L 104.4 142.3 C 104.0 142.1 103.7 141.9 103.3 141.6 C 103.1 141.5 102.9 141.3 102.7 141.2 L 102.4 141.0 C 102.3 140.9 102.2 140.8 102.2 140.8 C 101.9 140.6 101.7 140.4 101.4 140.1 C 101.1 139.8 100.8 139.6 100.5 139.3 L 100.3 139.1 L 100.2 139.0 C 100.0 138.8 99.7 138.5 99.4 138.2 L 99.3 138.1 L 99.2 138.0 C 99.0 137.7 98.8 137.5 98.6 137.2 L 98.5 137.1 C 98.4 136.9 98.2 136.6 98.0 136.3 L 97.5 135.6 L 97.2 134.9 C 97.1 134.8 97.0 134.6 97.0 134.4 L 96.9 134.3 C 96.9 134.3 96.7 133.8 96.7 133.7 L 96.5 133.3 C 96.5 133.2 96.5 133.1 96.4 132.9 L 96.3 132.3 L 96.2 131.6 C 96.2 131.5 96.1 130.9 96.1 130.9 C 96.1 130.8 96.1 130.7 96.1 130.6 C 113.9 133.3 132.1 133.6 149.9 131.3 L 151.3 130.9 C 150.7 131.6 149.9 132.6 148.8 133.7 C 148.2 134.3 147.6 134.9 147.0 135.4 L 146.7 135.7 L 145.3 145.8 L 143.4 146.9 L 144.2 148.9 L 144.3 148.8 C 144.7 148.7 145.2 148.6 145.6 148.5 L 145.7 148.5 C 146.1 148.4 146.5 148.2 146.9 148.1 C 148.0 147.8 149.0 147.5 150.0 147.2 C 150.0 147.2 150.5 147.0 150.7 147.0 L 151.1 146.8 C 151.9 146.5 152.7 146.2 153.5 145.9 L 154.3 145.6 C 154.9 145.4 155.6 145.1 156.3 144.8 L 157.1 144.4 C 157.3 144.3 157.5 144.3 157.6 144.2 C 155.4 153.1 152.9 162.0 150.1 170.8 C 150.0 170.8 149.9 170.9 149.8 170.9 L 148.2 171.4 C 148.0 171.4 147.8 171.5 147.7 171.5 L 147.2 171.6 C 146.4 171.9 145.5 172.1 144.7 172.3 C 144.7 172.3 144.0 172.5 143.9 172.5 C 143.8 172.5 143.1 172.6 143.1 172.6 C 142.3 172.8 141.6 173.0 140.8 173.1 L 140.3 173.2 C 140.1 173.3 139.9 173.3 139.8 173.4 L 139.1 173.5 C 138.4 173.6 137.7 173.7 137.0 173.8 L 136.4 173.9 C 136.2 173.9 136.0 174.0 135.8 174.0 L 135.2 174.1 C 134.6 174.2 134.0 174.3 133.4 174.3 L 132.6 174.4 C 132.4 174.5 132.1 174.5 131.9 174.5 L 131.3 174.6 C 130.7 174.6 130.1 174.7 129.5 174.7 L 128.8 174.8 C 128.5 174.8 128.2 174.9 128.0 174.9 L 127.4 174.9 C 126.9 175.0 126.3 175.0 125.8 175.0 L 124.9 175.1 C 124.6 175.1 124.4 175.1 124.1 175.1 L 123.6 175.1 C 123.0 175.1 122.5 175.2 121.9 175.2 L 121.0 175.2 C 120.7 175.2 120.4 175.2 120.2 175.2 L 119.6 175.2 C 119.1 175.2 118.5 175.2 118.0 175.2 L 117.0 175.2 C 116.8 175.2 116.5 175.2 116.2 175.2 L 115.7 175.1 C 115.1 175.1 114.5 175.1 113.9 175.1 L 112.9 175.0 C 112.6 175.0 112.4 175.0 112.1 175.0 L 111.7 175.0 C 111.0 174.9 110.2 174.9 109.5 174.8 L 108.7 174.7 C 108.5 174.7 108.2 174.7 107.9 174.7 L 107.6 174.6 C 106.7 174.6 105.7 174.4 104.7 174.3 L 104.2 174.3 C 104.0 174.2 103.8 174.2 103.6 174.2 L 103.5 174.2 C 102.1 174.0 100.7 173.8 99.2 173.5 L 99.0 173.5 C 98.9 173.5 98.4 173.4 98.3 173.4 C 97.1 173.2 95.9 172.9 94.7 172.7 L 94.1 172.6 C 94.0 172.6 93.5 172.4 93.3 172.4 C 92.1 172.1 90.8 171.8 89.6 171.5 C 89.5 171.5 88.9 171.4 88.8 171.4 L 87.1 170.9 C 86.3 170.7 85.5 170.4 84.7 170.2 C 84.3 170.1 82.6 169.6 82.6 169.6 " fill="#F8E160"></path><path d="M 75.4 76.0 L 82.8 82.0 C 78.6 84.6 74.7 87.8 71.3 90.7 L 84.1 100.2 L 90.3 96.7 L 86.2 93.1 C 86.1 92.9 85.8 92.6 85.5 92.3 C 85.6 91.8 85.8 91.3 86.1 90.8 C 86.9 89.3 88.6 87.9 91.7 86.4 C 96.2 84.1 101.5 84.1 104.8 87.0 C 107.6 89.4 107.0 92.3 105.2 95.5 C 104.5 96.8 103.6 98.1 102.7 99.5 C 101.8 101.0 100.9 102.4 100.1 103.9 C 97.0 109.5 95.6 115.7 103.3 122.4 C 112.3 130.3 125.7 130.7 137.1 126.0 L 143.3 131.1 L 148.9 128.0 L 142.8 123.0 C 152.4 117.5 155.6 111.9 155.7 111.6 L 142.3 101.8 L 136.3 105.3 C 136.5 105.4 138.9 107.5 139.6 108.3 C 140.0 108.5 141.1 109.8 142.0 111.1 C 142.0 111.2 142.0 111.4 141.9 111.6 C 141.3 112.6 139.3 115.2 133.7 118.0 C 129.5 120.1 124.0 120.7 120.3 117.4 C 117.0 114.5 117.8 111.3 119.7 107.8 C 120.3 106.6 121.1 105.4 121.9 104.2 C 122.7 102.9 123.5 101.6 124.2 100.3 C 127.3 94.6 128.8 88.2 120.6 81.1 C 112.1 73.6 99.4 73.7 88.3 78.9 L 80.9 72.9 Z M 75.4 76.0 " fill="#E9A900"></path><path d="M 106.2 107.6 C 105.8 104.6 105.3 101.6 104.6 98.6 C 105.2 97.7 105.7 96.9 106.2 96.0 C 107.8 93.1 109.1 89.3 105.5 86.2 C 104.0 84.9 102.0 84.0 99.9 83.8 C 98.9 81.5 97.9 79.3 96.7 77.1 C 105.6 75.1 114.0 76.8 119.9 81.9 C 127.7 88.7 126.1 94.5 123.2 99.8 C 122.5 101.1 121.7 102.4 120.9 103.7 C 120.1 104.9 119.4 106.1 118.7 107.3 C 117.0 110.5 115.5 114.7 119.6 118.2 C 123.9 122.0 130.0 121.1 134.2 119.0 C 137.1 117.6 139.4 116.0 141.0 114.3 C 142.0 113.4 142.5 112.6 142.8 112.1 C 142.9 111.9 143.0 111.7 143.1 111.4 L 143.2 110.9 L 142.9 110.5 C 142.7 110.2 141.2 108.1 140.3 107.4 C 139.9 107.0 138.9 106.1 138.2 105.5 L 142.2 103.1 L 154.3 111.9 C 153.8 112.6 152.9 113.8 151.4 115.2 C 148.9 117.7 145.9 120.0 142.3 122.1 L 140.9 122.9 L 147.0 127.8 L 143.4 129.8 L 137.2 124.8 L 136.7 125.0 C 125.9 129.4 114.8 128.8 106.8 123.7 C 107.0 118.4 106.9 113.0 106.2 107.6 " fill="#E29506"></path><path d="M 159.3 142.2 C 128.9 157.4 83.3 151.4 57.4 128.8 C 40.0 113.6 36.0 94.9 44.3 79.6 C 48.4 72.0 55.5 65.3 65.5 60.3 C 95.9 45.0 141.6 51.0 167.5 73.7 C 184.8 88.8 188.9 107.6 180.6 122.9 C 176.5 130.4 169.4 137.2 159.3 142.2 M 49.4 132.8 C 79.1 158.7 131.3 165.6 166.2 148.1 C 177.7 142.4 185.8 134.7 190.5 126.0 C 200.0 108.5 195.4 87.0 175.5 69.7 C 145.8 43.7 93.5 36.9 58.7 54.3 C 47.2 60.1 39.0 67.8 34.3 76.4 C 24.8 94.0 29.5 115.5 49.4 132.8 " fill="#E8A205"></path><path d="M 122.9 151.6 C 136.1 151.3 148.9 148.6 159.8 143.2 C 165.5 140.3 170.5 136.8 174.4 132.9 L 174.4 132.8 C 177.3 129.9 179.7 126.8 181.6 123.4 C 190.4 107.1 185.3 87.8 168.2 72.8 C 146.7 54.1 111.8 46.7 83.0 53.0 C 82.9 52.9 82.8 52.8 82.7 52.6 C 81.7 51.2 80.7 49.7 79.7 48.2 C 111.9 41.2 150.8 49.6 174.8 70.5 C 193.5 86.8 199.1 107.9 189.6 125.5 C 187.6 129.2 185.0 132.6 181.8 135.8 C 177.4 140.2 172.0 144.0 165.7 147.2 C 153.2 153.4 138.3 156.5 123.1 156.7 C 123.1 155.0 123.0 153.3 122.9 151.6 " fill="#D28700"></path><path d="M 137.3 126.3 C 126.0 130.9 112.6 130.6 103.6 122.7 C 95.9 116.0 97.3 109.7 100.3 104.2 C 101.1 102.7 102.1 101.2 103.0 99.8 C 103.9 98.4 104.8 97.0 105.5 95.7 C 107.2 92.5 107.8 89.7 105.1 87.3 C 101.8 84.4 96.5 84.3 91.9 86.6 C 88.8 88.1 87.1 89.5 86.3 91.0 C 86.1 91.5 85.9 92.0 85.8 92.5 C 86.1 92.9 86.3 93.2 86.5 93.3 L 90.6 96.9 L 84.3 100.5 L 71.5 90.9 C 74.9 88.1 78.8 84.8 83.0 82.2 L 75.7 76.2 L 81.2 73.2 L 88.6 79.1 C 99.6 73.9 112.3 73.9 120.9 81.3 C 129.1 88.5 127.5 94.9 124.4 100.5 C 123.7 101.9 122.9 103.2 122.1 104.4 C 121.3 105.7 120.6 106.9 119.9 108.0 C 118.0 111.6 117.3 114.8 120.5 117.7 C 124.3 120.9 129.7 120.4 133.9 118.3 C 139.5 115.5 141.5 112.8 142.1 111.8 C 142.2 111.6 142.3 111.5 142.3 111.4 C 141.3 110.1 140.2 108.7 139.8 108.5 C 139.2 107.8 136.7 105.6 136.6 105.5 L 142.5 102.0 L 156.0 111.9 C 155.8 112.2 152.7 117.7 143.1 123.3 L 149.1 128.2 L 143.5 131.3 L 137.3 126.3 M 57.6 129.0 C 83.5 151.7 129.2 157.6 159.6 142.4 C 169.6 137.4 176.7 130.7 180.8 123.1 C 189.2 107.8 185.1 89.0 167.7 73.9 C 141.8 51.3 96.2 45.3 65.8 60.5 C 55.7 65.5 48.6 72.3 44.5 79.8 C 36.2 95.1 40.3 113.9 57.6 129.0 " fill="#D27813"></path><path d="M 106.1 94.5 C 104.6 91.6 102.9 88.7 101.2 85.9 C 101.0 85.7 100.9 85.4 100.7 85.2 C 102.4 85.5 103.8 86.2 105.1 87.3 C 107.5 89.3 107.3 91.8 106.1 94.5 " fill="#C46812"></path><path d="M 118.7 129.1 C 124.8 129.7 131.3 128.7 137.3 126.3 L 143.5 131.3 L 149.1 128.2 L 143.1 123.3 C 152.7 117.7 155.8 112.2 156.0 111.9 L 142.6 102.0 L 136.6 105.5 C 136.7 105.6 139.2 107.8 139.8 108.5 C 140.2 108.7 141.3 110.1 142.3 111.4 C 142.3 111.5 142.2 111.6 142.1 111.8 C 141.5 112.8 139.5 115.5 133.9 118.3 C 129.7 120.4 124.3 120.9 120.5 117.7 C 117.3 114.8 118.0 111.6 119.9 108.0 C 120.6 106.9 121.3 105.7 122.1 104.4 C 122.9 103.2 123.7 101.9 124.4 100.5 C 127.5 94.9 129.1 88.5 120.9 81.3 C 113.9 75.3 104.3 74.1 94.9 76.7 C 89.4 69.3 83.1 62.5 76.2 56.3 C 105.9 46.8 144.6 53.7 167.7 73.9 C 185.1 89.0 189.2 107.8 180.8 123.1 C 176.7 130.7 169.6 137.4 159.6 142.4 C 148.4 148.0 135.2 150.7 121.7 150.8 C 121.2 143.5 120.2 136.2 118.7 129.1 " fill="#C46812"></path><path d="M 124.4 103.6 C 123.7 104.9 122.9 106.2 122.1 107.5 C 121.3 108.7 120.6 109.9 119.9 111.1 C 119.3 112.3 118.8 113.5 118.5 114.6 C 117.9 112.6 118.7 110.4 119.9 108.0 C 120.6 106.9 121.3 105.7 122.1 104.4 C 122.9 103.2 123.7 101.9 124.4 100.5 C 125.6 98.5 126.5 96.3 126.8 94.0 C 127.3 97.4 126.1 100.6 124.4 103.6 " fill="#BE5D00"></path><path d="M 145.2 125.0 L 143.1 123.3 C 149.3 119.7 152.8 116.1 154.6 113.9 L 156.0 114.9 C 155.8 115.2 153.1 120.0 145.2 125.0 " fill="#BE5D00"></path><path d="M 138.6 107.4 C 139.1 107.8 139.6 108.2 139.8 108.5 C 140.2 108.7 141.3 110.1 142.3 111.4 C 142.3 111.5 142.2 111.6 142.1 111.8 C 141.9 112.1 141.7 112.5 141.2 113.0 C 140.6 112.3 140.1 111.7 139.8 111.6 C 139.2 110.9 136.7 108.7 136.6 108.6 Z M 138.6 107.4 " fill="#BE5D00"></path><path d="M 91.9 86.6 C 96.5 84.3 101.8 84.4 105.1 87.3 C 106.9 88.9 107.2 90.7 106.7 92.7 C 106.5 91.9 105.9 91.1 105.1 90.3 C 101.8 87.5 96.5 87.4 91.9 89.7 C 89.2 91.0 87.6 92.2 86.7 93.5 L 86.5 93.3 C 86.3 93.2 86.1 92.9 85.8 92.5 C 85.9 92.0 86.1 91.5 86.3 91.0 C 87.1 89.5 88.8 88.1 91.9 86.6 " fill="#BE5D00"></path><path d="M 167.7 77.0 C 141.8 54.4 96.2 48.4 65.8 63.6 C 55.7 68.6 48.6 75.3 44.5 82.9 C 42.0 87.5 40.6 92.4 40.4 97.4 C 40.1 91.3 41.5 85.4 44.5 79.8 C 48.6 72.3 55.7 65.5 65.8 60.5 C 96.2 45.3 141.8 51.3 167.7 73.9 C 179.8 84.5 185.5 96.9 184.9 108.6 C 184.5 97.8 178.8 86.6 167.7 77.0 " fill="#BE5D00"></path><path d="M 83.0 82.2 C 82.3 82.6 81.7 83.1 81.0 83.6 L 75.7 79.3 L 77.9 78.1 Z M 83.0 82.2 " fill="#BE5D00"></path><path d="M 137.3 129.3 C 126.0 134.0 112.6 133.6 103.6 125.8 C 98.7 121.5 97.5 117.5 98.0 113.6 C 98.4 116.5 100.0 119.6 103.6 122.7 C 112.6 130.6 126.0 130.9 137.3 126.3 L 143.5 131.3 L 146.9 129.5 L 149.1 131.3 L 143.5 134.4 Z M 137.3 129.3 " fill="#BE5D00"></path><path d="M 73.5 92.4 L 84.3 100.5 L 88.4 98.1 L 90.6 100.0 L 84.3 103.5 L 71.5 94.0 C 72.2 93.5 72.8 92.9 73.5 92.4 " fill="#BE5D00"></path></g></g></g></g></g></svg>