<?xml version="1.0" encoding="UTF-8"?><svg xmlns="http://www.w3.org/2000/svg" xmlns:xlink="http://www.w3.org/1999/xlink" clip-rule="evenodd" stroke-miterlimit="4.00" viewBox="0 0 188 188"><desc>SVG generated by Keynote</desc><defs></defs><g transform="matrix(1.00, 0.00, -0.00, -1.00, 0.0, 188.0)"><g><clipPath id="clip-367"><path d="M 186.5 96.8 L 96.6 186.6 L 1.1 91.1 L 90.9 1.3 Z M 186.5 96.8 "></path></clipPath><g clip-path="url(#clip-367)"><g><clipPath id="clip-368"><path d="M 90.9 1.3 L 1.1 91.1 L 96.6 186.6 L 186.5 96.8 Z M 90.9 1.3 "></path></clipPath><g clip-path="url(#clip-368)"><path d="M 101.6 104.1 C 101.6 104.0 101.6 104.0 101.6 104.0 C 101.6 104.0 101.6 104.0 101.6 104.1 C 101.5 103.5 101.5 102.9 101.5 102.3 C 101.4 101.5 101.4 100.7 101.3 99.8 C 101.3 99.7 101.2 99.6 101.2 99.5 C 101.2 98.9 101.1 98.3 101.0 97.7 C 101.0 97.6 100.9 97.5 100.9 97.4 C 100.9 97.0 100.8 96.7 100.7 96.3 C 100.7 96.2 100.6 96.1 100.6 96.0 C 100.5 95.7 100.4 95.3 100.3 95.0 C 100.3 95.0 100.3 94.9 100.3 94.9 C 100.2 94.7 100.1 94.6 100.1 94.5 C 100.0 94.3 99.9 94.1 99.8 93.9 C 99.8 93.8 99.8 93.7 99.7 93.6 C 99.6 93.4 99.5 93.1 99.3 92.9 C 99.3 92.8 99.2 92.7 99.2 92.6 C 99.0 92.4 98.9 92.1 98.8 91.9 C 98.7 91.8 98.5 91.6 98.4 91.5 C 98.3 91.3 98.2 91.1 98.0 91.0 C 97.9 90.8 97.7 90.6 97.6 90.4 C 97.4 90.3 97.3 90.1 97.2 90.0 C 96.8 89.6 96.4 89.2 96.0 88.9 C 95.7 88.7 95.5 88.5 95.2 88.3 C 95.1 88.2 95.0 88.1 94.9 88.0 C 94.8 88.0 94.8 88.0 94.7 87.9 C 94.5 87.8 94.2 87.6 93.9 87.4 C 93.7 87.3 93.5 87.2 93.3 87.0 C 93.1 86.9 92.8 86.8 92.6 86.6 C 92.4 86.5 92.2 86.4 92.0 86.3 C 91.7 86.2 91.4 86.1 91.2 85.9 C 91.0 85.8 90.8 85.8 90.6 85.7 C 89.9 85.4 89.2 85.1 88.5 84.8 C 87.9 84.6 87.4 84.5 86.9 84.3 C 86.8 84.3 86.6 84.2 86.5 84.2 C 86.5 84.2 86.4 84.2 86.4 84.2 C 86.5 85.0 86.5 85.8 86.5 86.6 C 86.6 87.6 86.6 88.6 86.7 89.7 C 86.8 89.7 86.8 89.8 86.8 89.9 C 86.8 90.4 86.9 91.0 87.0 91.6 C 87.0 91.7 87.0 91.8 87.1 91.9 C 87.1 92.3 87.2 92.8 87.3 93.2 C 87.4 93.2 87.4 93.2 87.4 93.2 C 87.5 93.6 87.6 93.9 87.7 94.3 C 87.8 94.4 87.8 94.6 87.9 94.8 C 88.0 94.9 88.0 95.1 88.1 95.3 C 88.2 95.5 88.3 95.7 88.4 95.9 C 88.5 96.0 88.5 96.2 88.6 96.3 C 88.7 96.6 88.9 96.9 89.1 97.1 C 89.1 97.2 89.1 97.2 89.1 97.2 C 89.4 97.6 89.6 97.9 89.8 98.2 C 90.1 98.5 90.4 98.8 90.7 99.2 C 90.7 99.2 90.7 99.2 90.7 99.2 C 91.1 99.6 91.5 99.9 91.9 100.3 C 92.1 100.4 92.3 100.6 92.5 100.7 C 92.6 100.8 92.8 100.9 92.9 101.0 C 93.2 101.2 93.5 101.4 93.8 101.6 C 93.9 101.7 94.0 101.8 94.1 101.8 C 94.5 102.1 95.0 102.3 95.4 102.6 C 95.6 102.6 95.7 102.7 95.8 102.8 C 96.2 102.9 96.5 103.1 96.9 103.3 C 97.6 103.6 98.2 103.8 98.9 104.1 C 99.5 104.3 100.0 104.4 100.5 104.6 C 100.7 104.7 100.9 104.7 101.1 104.8 C 101.3 104.8 101.5 104.9 101.7 104.9 C 101.7 104.9 101.7 104.9 101.6 104.9 C 101.6 104.8 101.6 104.7 101.6 104.6 C 101.6 104.4 101.6 104.2 101.6 104.1 M 67.3 87.2 C 67.2 87.2 67.1 87.3 67.0 87.4 C 66.4 87.8 65.8 88.3 65.3 88.8 C 65.2 88.9 65.0 89.0 64.9 89.1 C 64.9 89.1 64.9 89.1 64.9 89.2 L 68.9 90.3 L 69.3 85.9 C 69.2 85.9 69.1 86.0 69.0 86.1 C 68.4 86.4 67.8 86.8 67.3 87.2 M 128.1 99.6 L 128.1 99.3 L 120.9 97.2 L 120.2 103.0 C 120.3 103.0 120.3 103.0 120.4 103.0 C 121.0 102.6 121.6 102.3 122.2 101.9 C 122.3 101.8 122.4 101.7 122.5 101.6 C 123.0 101.3 123.4 101.0 123.9 100.6 C 124.0 100.5 124.2 100.4 124.3 100.3 C 124.9 99.8 125.4 99.3 125.8 98.8 Z M 132.2 83.5 C 132.2 83.5 132.2 83.5 132.2 83.6 C 132.2 83.7 132.2 83.8 132.2 84.0 C 132.2 84.0 132.2 84.0 132.2 84.0 C 132.2 84.3 132.2 84.6 132.2 85.0 C 132.2 85.0 132.2 85.0 132.2 85.1 C 132.2 85.3 132.2 85.5 132.1 85.7 L 131.1 96.0 L 135.6 97.5 L 133.9 114.1 L 131.4 117.9 L 124.1 115.4 C 123.6 115.9 123.1 116.4 122.6 116.9 C 122.5 117.0 122.3 117.1 122.2 117.2 C 121.7 117.6 121.3 117.9 120.8 118.2 C 120.7 118.3 120.6 118.4 120.5 118.5 C 119.9 118.9 119.3 119.2 118.7 119.6 C 118.5 119.7 118.4 119.7 118.2 119.8 C 117.7 120.1 117.2 120.3 116.7 120.5 C 116.6 120.6 116.5 120.6 116.3 120.7 C 116.3 120.7 116.2 120.7 116.1 120.8 C 115.8 120.9 115.4 121.0 115.1 121.1 C 114.9 121.2 114.7 121.3 114.5 121.3 C 114.5 121.4 114.4 121.4 114.3 121.4 C 114.2 121.4 114.0 121.5 113.8 121.5 C 113.6 121.6 113.4 121.7 113.1 121.7 C 113.0 121.8 112.8 121.8 112.7 121.8 C 112.5 121.9 112.4 121.9 112.3 121.9 C 112.1 121.9 112.0 122.0 111.9 122.0 C 111.5 122.1 111.2 122.1 110.8 122.2 C 110.8 122.2 110.8 122.2 110.7 122.2 C 110.7 122.2 110.6 122.2 110.6 122.2 C 110.3 122.3 110.1 122.3 109.8 122.3 C 109.5 122.4 109.2 122.4 108.9 122.4 C 108.9 122.4 108.9 122.4 108.9 122.4 C 108.9 122.4 108.9 122.4 108.8 122.4 C 108.5 122.4 108.2 122.4 107.9 122.5 C 107.6 122.5 107.3 122.5 107.1 122.5 C 107.1 122.5 107.0 122.5 107.0 122.5 C 107.0 122.5 107.0 122.5 107.0 122.5 C 106.7 122.5 106.4 122.5 106.1 122.5 C 105.7 122.4 105.4 122.4 105.1 122.4 C 105.1 122.4 105.1 122.4 105.1 122.4 C 105.1 122.4 105.1 122.4 105.1 122.4 C 104.8 122.4 104.5 122.4 104.2 122.3 C 103.9 122.3 103.6 122.3 103.2 122.2 C 103.2 122.2 103.2 122.2 103.2 122.2 C 103.2 122.2 103.1 122.2 103.1 122.2 C 102.8 122.1 102.4 122.1 102.1 122.0 C 101.9 122.0 101.6 121.9 101.4 121.9 C 101.3 121.9 101.2 121.8 101.1 121.8 C 101.0 121.8 100.9 121.8 100.8 121.8 C 100.4 121.7 99.9 121.5 99.4 121.4 C 99.4 121.4 99.4 121.4 99.3 121.4 C 99.1 121.3 99.0 121.3 98.8 121.2 C 98.4 121.1 98.1 121.0 97.7 120.9 C 97.5 120.8 97.4 120.8 97.2 120.7 C 96.5 120.4 95.8 120.2 95.2 119.9 C 95.1 119.9 95.1 119.8 95.0 119.8 C 94.7 119.7 94.4 119.5 94.1 119.4 C 94.0 119.3 93.8 119.2 93.7 119.2 C 93.3 118.9 92.8 118.7 92.4 118.4 C 92.3 118.4 92.2 118.3 92.1 118.2 C 91.8 118.0 91.5 117.8 91.2 117.6 C 91.0 117.5 90.9 117.4 90.8 117.3 C 90.6 117.2 90.5 117.1 90.3 117.0 C 90.3 116.9 90.2 116.9 90.2 116.9 C 89.8 116.5 89.4 116.2 89.0 115.8 C 89.0 115.8 89.0 115.8 89.0 115.8 C 89.0 115.8 89.0 115.8 89.0 115.8 C 88.7 115.4 88.4 115.1 88.1 114.8 C 88.1 114.8 88.1 114.8 88.1 114.8 C 87.9 114.5 87.6 114.1 87.4 113.8 C 87.4 113.8 87.4 113.8 87.4 113.8 C 87.4 113.8 87.4 113.8 87.4 113.7 C 87.2 113.5 87.0 113.2 86.9 112.9 C 86.9 112.9 86.9 112.9 86.9 112.9 C 86.8 112.8 86.7 112.6 86.7 112.5 C 86.6 112.3 86.5 112.2 86.4 112.0 C 86.4 112.0 86.4 111.9 86.4 111.9 C 86.3 111.7 86.2 111.5 86.2 111.4 C 86.1 111.2 86.0 111.1 86.0 111.0 C 86.0 110.9 86.0 110.9 86.0 110.9 C 85.9 110.5 85.7 110.2 85.6 109.8 C 85.6 109.8 85.6 109.8 85.6 109.8 C 85.6 109.8 85.6 109.8 85.6 109.8 C 85.5 109.3 85.4 108.9 85.3 108.5 C 85.3 108.5 85.3 108.4 85.3 108.4 C 85.3 108.3 85.3 108.3 85.3 108.2 C 85.2 107.6 85.1 107.0 85.0 106.5 C 85.0 106.4 85.0 106.4 85.0 106.4 C 85.0 106.4 85.0 106.3 85.0 106.3 C 84.9 105.2 84.9 104.2 84.8 103.2 C 84.8 102.2 84.7 101.3 84.7 100.4 C 84.6 100.3 84.6 100.2 84.6 100.1 C 84.6 99.7 84.5 99.3 84.5 98.8 C 84.4 98.8 84.4 98.7 84.4 98.6 C 84.4 98.4 84.3 98.2 84.3 98.0 C 84.2 97.8 84.2 97.6 84.1 97.4 C 84.1 97.4 84.1 97.3 84.0 97.2 C 84.0 97.0 83.9 96.8 83.8 96.5 C 83.7 96.5 83.7 96.5 83.7 96.4 C 83.6 96.2 83.5 96.1 83.4 95.9 C 83.4 95.8 83.4 95.8 83.3 95.8 C 83.2 95.6 83.1 95.4 82.9 95.2 C 82.9 95.1 82.8 95.1 82.8 95.1 C 82.7 94.9 82.6 94.8 82.5 94.7 C 82.3 94.6 82.2 94.5 82.1 94.4 C 82.0 94.3 81.9 94.2 81.8 94.1 C 81.5 93.9 81.1 93.7 80.8 93.5 C 80.5 93.4 80.2 93.2 79.8 93.1 C 79.4 93.0 78.9 92.8 78.4 92.7 C 78.4 92.7 78.4 92.7 78.3 92.7 C 77.9 92.6 77.4 92.6 76.9 92.5 C 76.9 92.5 76.9 92.5 76.9 92.5 C 76.4 92.5 76.0 92.5 75.5 92.6 L 75.5 92.6 C 75.4 92.6 75.4 92.6 75.3 92.6 L 74.2 104.0 L 71.4 108.2 L 56.9 103.9 L 58.0 93.5 L 52.3 91.6 L 54.0 75.0 L 56.5 71.4 L 65.1 74.2 C 65.6 73.6 66.1 73.1 66.6 72.5 C 66.8 72.4 66.9 72.3 67.0 72.2 C 67.5 71.7 68.1 71.2 68.7 70.8 C 68.8 70.7 68.9 70.6 69.0 70.6 C 69.5 70.2 70.1 69.8 70.7 69.5 C 70.8 69.4 70.9 69.3 71.1 69.2 C 71.7 68.9 72.4 68.6 73.1 68.3 C 73.2 68.2 73.2 68.2 73.3 68.2 C 73.4 68.1 73.6 68.1 73.8 68.0 C 74.0 67.9 74.3 67.8 74.6 67.7 C 74.7 67.7 74.8 67.6 74.9 67.6 C 75.1 67.5 75.3 67.5 75.6 67.4 C 75.7 67.4 75.8 67.3 76.0 67.3 C 76.0 67.3 76.0 67.3 76.1 67.3 C 76.4 67.2 76.8 67.1 77.2 67.0 C 77.2 67.0 77.3 67.0 77.4 67.0 C 77.5 67.0 77.6 67.0 77.6 66.9 C 77.8 66.9 77.9 66.9 78.1 66.9 C 78.4 66.8 78.7 66.8 79.0 66.8 C 79.0 66.7 79.1 66.7 79.1 66.7 C 79.2 66.7 79.3 66.7 79.3 66.7 C 79.5 66.7 79.7 66.7 79.8 66.7 C 80.1 66.7 80.4 66.6 80.6 66.6 C 80.7 66.6 80.8 66.6 80.9 66.6 C 80.9 66.6 81.0 66.6 81.0 66.6 C 81.2 66.6 81.3 66.6 81.5 66.6 C 81.7 66.6 82.0 66.6 82.3 66.6 C 82.4 66.6 82.5 66.6 82.6 66.7 C 82.7 66.7 82.8 66.7 82.8 66.7 C 82.9 66.7 83.0 66.7 83.1 66.7 C 83.4 66.7 83.7 66.7 83.9 66.8 C 84.1 66.8 84.3 66.8 84.4 66.8 C 84.5 66.8 84.6 66.8 84.6 66.8 C 84.7 66.9 84.8 66.9 84.9 66.9 C 85.2 66.9 85.5 67.0 85.8 67.0 C 86.0 67.1 86.1 67.1 86.2 67.1 C 86.3 67.1 86.4 67.2 86.6 67.2 C 86.7 67.2 86.8 67.2 86.9 67.3 C 87.3 67.3 87.7 67.5 88.2 67.6 C 88.2 67.6 88.2 67.6 88.2 67.6 C 88.4 67.6 88.5 67.7 88.6 67.7 C 89.0 67.8 89.4 67.9 89.8 68.1 C 89.9 68.1 90.1 68.2 90.2 68.2 C 90.9 68.5 91.6 68.8 92.3 69.1 C 92.4 69.1 92.5 69.1 92.5 69.2 C 92.7 69.2 92.8 69.3 92.9 69.3 C 93.2 69.5 93.4 69.6 93.7 69.7 C 93.9 69.8 94.1 69.9 94.3 70.0 C 94.6 70.2 94.8 70.3 95.0 70.4 C 95.2 70.6 95.4 70.7 95.6 70.8 C 95.7 70.8 95.7 70.9 95.8 70.9 C 96.0 71.1 96.3 71.2 96.5 71.3 C 96.5 71.4 96.5 71.4 96.6 71.4 C 96.6 71.4 96.6 71.5 96.6 71.5 C 96.6 71.5 96.6 71.5 96.6 71.5 C 96.6 71.5 96.6 71.5 96.6 71.5 C 96.7 71.5 96.8 71.6 96.9 71.7 C 97.1 71.9 97.4 72.0 97.6 72.2 C 97.6 72.2 97.7 72.3 97.7 72.3 C 98.1 72.6 98.5 73.0 98.9 73.4 C 98.9 73.4 98.9 73.4 99.0 73.5 C 99.1 73.6 99.2 73.7 99.3 73.8 C 99.5 74.0 99.6 74.2 99.8 74.4 C 99.8 74.4 99.8 74.4 99.8 74.5 C 100.0 74.6 100.1 74.7 100.2 74.9 C 100.3 75.0 100.4 75.2 100.5 75.3 C 100.5 75.4 100.5 75.4 100.5 75.4 C 100.7 75.6 100.8 75.8 100.9 76.0 C 100.9 76.1 101.0 76.2 101.1 76.3 C 101.1 76.3 101.1 76.3 101.1 76.3 C 101.2 76.6 101.3 76.8 101.4 77.0 C 101.5 77.1 101.5 77.2 101.6 77.3 C 101.6 77.3 101.6 77.3 101.6 77.3 C 101.7 77.5 101.7 77.7 101.8 77.9 C 101.9 78.0 101.9 78.1 102.0 78.3 C 102.0 78.3 102.0 78.3 102.0 78.3 C 102.0 78.3 102.0 78.4 102.0 78.4 C 102.1 78.7 102.2 79.1 102.3 79.4 C 102.3 79.5 102.4 79.5 102.4 79.5 C 102.4 79.6 102.4 79.7 102.4 79.7 C 102.5 80.1 102.6 80.4 102.6 80.8 C 102.7 80.8 102.7 80.9 102.7 81.0 C 102.7 81.0 102.7 81.1 102.7 81.1 C 102.8 81.7 102.9 82.3 103.0 82.9 C 103.0 83.0 103.0 83.0 103.0 83.1 C 103.0 83.1 103.0 83.1 103.0 83.2 C 103.1 84.1 103.1 84.9 103.2 85.7 C 103.2 86.5 103.3 87.2 103.3 88.0 C 103.4 88.1 103.4 88.3 103.4 88.5 C 103.4 88.8 103.5 89.1 103.5 89.4 C 103.6 89.6 103.6 89.9 103.6 90.1 C 103.7 90.2 103.7 90.3 103.7 90.4 C 103.8 90.8 103.9 91.1 104.0 91.4 C 104.0 91.4 104.0 91.5 104.0 91.5 C 104.2 91.9 104.3 92.3 104.5 92.6 C 104.5 92.6 104.5 92.7 104.5 92.7 C 104.7 93.0 104.9 93.4 105.2 93.7 L 105.2 93.7 C 105.4 94.0 105.7 94.3 106.0 94.5 C 106.1 94.6 106.2 94.7 106.3 94.8 C 106.4 94.9 106.6 95.0 106.8 95.1 C 107.0 95.3 107.3 95.5 107.7 95.7 C 108.0 95.8 108.4 96.0 108.9 96.2 C 109.4 96.4 110.0 96.6 110.5 96.7 C 110.5 96.7 110.5 96.7 110.6 96.7 C 111.1 96.8 111.6 96.8 112.1 96.8 C 112.1 96.8 112.1 96.8 112.1 96.8 C 112.4 96.8 112.7 96.8 113.0 96.8 L 114.5 83.1 L 117.1 79.0 L 132.2 83.4 C 132.2 83.4 132.2 83.4 132.2 83.4 C 132.2 83.4 132.2 83.5 132.2 83.5 " fill="#855F13"></path><path d="M 154.3 100.2 L 154.2 100.0 C 154.1 99.4 153.9 98.9 153.8 98.3 C 153.7 98.0 153.6 97.7 153.5 97.4 C 153.3 97.0 153.2 96.6 153.1 96.3 C 152.9 95.9 152.8 95.5 152.6 95.1 C 152.4 94.7 152.3 94.4 152.1 94.0 C 151.9 93.6 151.7 93.2 151.5 92.8 C 151.3 92.4 151.1 92.1 150.9 91.8 C 150.6 91.3 150.3 90.8 150.0 90.3 C 149.8 90.0 149.7 89.7 149.5 89.4 C 148.9 88.6 148.4 87.8 147.7 87.1 C 147.7 87.0 147.7 87.0 147.7 86.9 C 146.9 86.0 146.1 85.1 145.2 84.2 C 145.0 83.9 144.7 83.6 144.5 83.4 C 144.1 83.0 143.7 82.6 143.3 82.2 C 143.0 81.9 142.6 81.6 142.3 81.3 C 141.9 80.9 141.4 80.5 140.9 80.1 C 140.6 79.9 140.3 79.6 140.0 79.3 C 139.1 78.6 138.1 77.8 137.0 77.1 C 136.8 76.9 136.6 76.8 136.5 76.7 C 135.6 76.1 134.6 75.5 133.7 74.9 C 133.4 74.7 133.0 74.5 132.7 74.3 C 131.7 73.7 130.6 73.1 129.5 72.5 C 129.4 72.4 129.2 72.3 129.1 72.3 C 127.9 71.6 126.6 71.0 125.3 70.4 C 124.7 70.1 124.0 69.9 123.4 69.6 C 123.1 69.5 122.8 69.3 122.5 69.2 C 121.4 68.8 120.4 68.4 119.3 68.0 C 118.6 67.8 117.9 67.5 117.2 67.3 C 116.0 66.9 114.8 66.5 113.6 66.2 C 113.2 66.1 112.8 65.9 112.5 65.8 C 111.4 65.5 110.3 65.3 109.2 65.0 C 108.9 64.9 108.6 64.9 108.4 64.8 C 107.1 64.5 105.8 64.2 104.5 64.0 C 104.5 64.0 104.5 64.0 104.5 64.0 C 104.4 64.0 104.2 64.0 104.1 63.9 C 103.0 63.7 101.9 63.6 100.7 63.4 C 100.5 63.4 100.3 63.3 100.1 63.3 C 99.1 63.2 98.1 63.0 97.1 62.9 C 96.7 62.9 96.3 62.9 95.9 62.8 C 95.1 62.8 94.3 62.7 93.4 62.6 C 93.0 62.6 92.5 62.6 92.1 62.6 C 91.3 62.5 90.6 62.5 89.9 62.5 C 89.4 62.5 88.9 62.4 88.4 62.4 C 87.7 62.4 87.0 62.4 86.3 62.4 C 85.8 62.4 85.3 62.4 84.8 62.5 C 84.1 62.5 83.4 62.5 82.8 62.5 C 82.2 62.5 81.7 62.6 81.2 62.6 C 80.6 62.6 79.9 62.7 79.3 62.7 C 78.7 62.8 78.2 62.8 77.6 62.9 C 77.0 63.0 76.4 63.0 75.8 63.1 C 75.2 63.2 74.6 63.2 74.0 63.3 C 73.5 63.4 72.9 63.5 72.4 63.6 C 71.7 63.7 71.0 63.8 70.4 63.9 C 69.9 64.0 69.4 64.1 68.8 64.2 C 68.1 64.4 67.3 64.6 66.5 64.8 C 66.1 64.9 65.6 65.0 65.2 65.1 C 64.0 65.4 62.8 65.7 61.7 66.1 C 61.5 66.1 61.4 66.2 61.2 66.2 C 59.6 66.7 58.1 67.3 56.6 67.9 C 55.9 68.1 55.2 68.4 54.6 68.7 C 54.2 68.9 53.8 69.0 53.5 69.2 C 52.4 69.7 51.4 70.2 50.4 70.7 C 50.4 70.7 50.4 70.7 50.3 70.8 C 49.3 71.3 48.3 71.9 47.4 72.5 C 47.1 72.7 46.8 72.9 46.5 73.1 C 45.8 73.5 45.2 73.9 44.6 74.4 C 44.3 74.6 43.9 74.9 43.6 75.1 C 43.1 75.6 42.5 76.0 42.0 76.5 C 41.7 76.7 41.4 77.0 41.1 77.3 C 40.5 77.8 40.0 78.3 39.5 78.8 C 39.3 79.0 39.0 79.3 38.8 79.5 C 38.1 80.3 37.4 81.1 36.8 81.9 C 35.3 83.8 34.2 85.7 33.3 87.7 C 33.3 87.9 33.4 88.1 33.4 88.3 C 33.6 89.2 33.9 90.1 34.2 90.9 C 34.2 90.9 34.2 91.0 34.2 91.0 C 34.5 91.9 34.9 92.7 35.3 93.6 C 35.4 93.9 35.6 94.2 35.8 94.5 C 36.0 95.1 36.3 95.6 36.7 96.2 C 36.9 96.6 37.1 97.0 37.4 97.3 C 37.7 97.8 38.0 98.3 38.3 98.8 C 38.7 99.3 39.0 99.7 39.3 100.2 C 39.7 100.6 40.0 101.0 40.3 101.5 C 40.9 102.1 41.4 102.7 42.0 103.3 C 42.3 103.7 42.7 104.1 43.0 104.5 C 43.3 104.8 43.7 105.1 44.0 105.4 C 44.5 105.9 45.0 106.4 45.6 106.9 C 45.9 107.2 46.3 107.5 46.6 107.8 C 47.1 108.2 47.6 108.6 48.1 109.0 C 48.7 109.5 49.3 109.9 49.9 110.4 C 50.4 110.7 51.0 111.1 51.5 111.4 C 52.1 111.9 52.8 112.3 53.5 112.7 C 54.0 113.1 54.6 113.4 55.1 113.7 C 55.8 114.2 56.5 114.6 57.3 115.0 C 57.9 115.3 58.4 115.6 59.0 115.9 C 59.8 116.3 60.6 116.7 61.4 117.0 C 62.1 117.4 62.8 117.7 63.5 118.0 C 63.8 118.1 64.1 118.2 64.3 118.4 C 65.6 118.9 66.9 119.4 68.2 119.9 C 68.8 120.1 69.4 120.3 70.0 120.5 C 71.5 121.0 73.0 121.5 74.5 121.9 C 74.7 122.0 75.0 122.0 75.2 122.1 C 76.3 122.4 77.4 122.7 78.5 122.9 C 78.8 123.0 79.1 123.1 79.5 123.1 C 80.7 123.4 81.9 123.7 83.0 123.9 C 83.1 123.9 83.1 123.9 83.1 123.9 C 84.2 124.1 85.3 124.3 86.5 124.4 C 86.9 124.5 87.2 124.5 87.6 124.6 C 88.3 124.7 89.1 124.8 89.8 124.9 C 90.2 124.9 90.6 124.9 91.1 125.0 C 91.7 125.1 92.4 125.1 93.0 125.2 C 93.5 125.2 93.9 125.2 94.4 125.3 C 95.0 125.3 95.6 125.3 96.3 125.4 C 96.7 125.4 97.2 125.4 97.6 125.4 C 98.2 125.4 98.9 125.4 99.6 125.4 C 100.0 125.5 100.4 125.5 100.8 125.5 C 101.5 125.5 102.3 125.4 103.0 125.4 C 103.3 125.4 103.6 125.4 103.9 125.4 C 105.0 125.4 106.1 125.3 107.1 125.2 C 107.3 125.2 107.5 125.2 107.6 125.2 C 108.5 125.1 109.4 125.0 110.3 124.9 C 110.7 124.9 111.0 124.9 111.3 124.8 C 112.1 124.7 112.9 124.6 113.6 124.5 C 114.0 124.5 114.4 124.4 114.7 124.4 C 115.6 124.2 116.4 124.1 117.3 123.9 C 117.5 123.9 117.8 123.8 118.1 123.8 C 119.3 123.5 120.4 123.3 121.6 123.0 C 121.8 122.9 122.0 122.9 122.3 122.8 C 123.5 122.5 124.8 122.1 126.0 121.8 C 126.1 121.7 126.2 121.7 126.3 121.7 C 128.0 121.1 129.8 120.5 131.4 119.8 C 131.5 119.8 131.5 119.8 131.5 119.8 C 132.4 119.4 133.3 119.0 134.1 118.6 C 134.4 118.5 134.7 118.4 135.0 118.2 C 135.6 118.0 136.2 117.7 136.8 117.3 C 137.1 117.2 137.3 117.0 137.6 116.9 C 138.2 116.5 138.8 116.2 139.4 115.9 C 139.6 115.7 139.9 115.6 140.1 115.4 C 140.9 114.9 141.7 114.4 142.4 113.9 C 142.4 113.9 142.5 113.9 142.5 113.8 C 143.2 113.3 143.9 112.8 144.6 112.2 C 144.8 112.1 145.0 111.9 145.2 111.7 C 145.7 111.3 146.2 110.9 146.6 110.5 C 146.8 110.3 147.1 110.1 147.3 109.8 C 147.7 109.4 148.2 109.0 148.6 108.5 C 148.8 108.3 148.9 108.2 149.1 108.0 C 149.7 107.3 150.3 106.7 150.8 106.0 C 152.2 104.1 153.4 102.1 154.3 100.2 M 26.1 113.7 C 25.9 113.2 25.7 112.8 25.5 112.4 C 25.3 112.0 25.1 111.7 25.0 111.4 C 24.9 111.2 24.8 111.1 24.8 111.0 C 24.4 110.1 24.0 109.2 23.7 108.4 C 23.7 108.4 23.7 108.4 23.7 108.4 C 23.7 108.3 23.7 108.3 23.7 108.3 C 23.4 107.5 23.1 106.6 22.9 105.8 C 22.9 105.7 22.8 105.5 22.8 105.3 C 22.7 105.0 22.7 104.7 22.6 104.5 C 22.5 104.1 22.4 103.7 22.3 103.3 C 22.3 102.9 22.2 102.6 22.2 102.2 C 22.1 101.9 22.1 101.6 22.0 101.3 C 22.0 101.2 22.0 101.0 22.0 100.9 C 21.9 100.0 21.8 99.2 21.8 98.4 C 21.8 98.4 21.8 98.3 21.8 98.3 C 21.8 98.2 21.8 98.1 21.8 98.0 C 21.8 97.3 21.8 96.6 21.9 95.9 C 21.9 95.6 21.9 95.2 22.0 94.9 L 23.7 78.3 C 23.6 79.3 23.5 80.3 23.5 81.4 C 23.5 81.5 23.5 81.6 23.5 81.7 C 23.6 82.7 23.6 83.7 23.8 84.7 C 23.8 85.0 23.8 85.3 23.9 85.6 C 24.0 86.3 24.1 87.1 24.3 87.9 C 24.4 88.1 24.4 88.4 24.5 88.7 C 24.8 89.7 25.1 90.7 25.4 91.7 C 25.4 91.7 25.4 91.7 25.4 91.8 C 25.8 92.8 26.2 93.8 26.7 94.8 C 26.8 95.1 27.0 95.4 27.2 95.8 C 27.5 96.4 27.9 97.1 28.3 97.7 C 28.5 98.2 28.8 98.6 29.0 99.0 C 29.4 99.6 29.8 100.2 30.2 100.7 C 30.5 101.2 30.8 101.6 31.1 102.0 C 31.1 101.8 31.1 101.6 31.0 101.4 C 31.0 101.3 31.0 101.2 31.0 101.0 C 30.9 100.3 30.9 99.6 30.8 98.9 C 30.8 98.9 30.8 98.8 30.8 98.8 C 30.8 98.7 30.8 98.6 30.8 98.5 C 30.8 97.9 30.9 97.3 30.9 96.7 C 30.9 96.4 30.9 96.1 31.0 95.8 L 31.0 95.8 L 32.7 79.2 C 32.7 79.2 32.7 79.2 32.7 79.2 C 32.7 79.2 32.7 79.2 32.7 79.2 C 32.8 78.0 33.0 76.8 33.3 75.6 C 34.2 72.1 35.9 68.6 38.5 65.3 C 39.1 64.5 39.8 63.7 40.5 62.9 C 40.7 62.7 41.0 62.4 41.2 62.2 C 41.7 61.7 42.3 61.2 42.8 60.7 C 43.1 60.4 43.4 60.1 43.7 59.9 C 44.2 59.4 44.8 59.0 45.3 58.5 C 45.7 58.3 46.0 58.0 46.3 57.8 C 46.9 57.3 47.6 56.9 48.2 56.5 C 48.5 56.3 48.8 56.1 49.1 55.9 C 50.1 55.3 51.0 54.7 52.1 54.2 C 52.1 54.1 52.1 54.1 52.2 54.1 C 53.2 53.6 54.2 53.1 55.2 52.6 C 55.6 52.4 55.9 52.3 56.3 52.1 C 56.8 51.9 57.3 51.7 57.8 51.5 C 58.0 51.4 58.2 51.3 58.3 51.3 C 59.8 50.7 61.3 50.1 62.8 49.6 C 62.9 49.6 62.9 49.6 63.0 49.6 C 63.0 49.6 63.0 49.6 63.0 49.6 C 63.2 49.5 63.3 49.5 63.4 49.5 C 64.6 49.1 65.7 48.8 66.9 48.5 C 67.1 48.4 67.2 48.4 67.4 48.3 C 67.7 48.3 68.0 48.2 68.3 48.2 C 69.0 48.0 69.8 47.8 70.6 47.6 C 70.8 47.6 71.1 47.5 71.4 47.5 C 71.6 47.4 71.9 47.4 72.1 47.3 C 72.8 47.2 73.4 47.1 74.1 47.0 C 74.4 46.9 74.7 46.9 75.1 46.8 C 75.3 46.8 75.5 46.8 75.8 46.7 C 76.4 46.6 76.9 46.6 77.5 46.5 C 77.9 46.5 78.3 46.4 78.6 46.4 C 78.9 46.3 79.1 46.3 79.4 46.3 C 79.9 46.2 80.4 46.2 81.0 46.1 C 81.4 46.1 81.7 46.1 82.1 46.1 C 82.4 46.0 82.7 46.0 82.9 46.0 C 83.5 46.0 84.0 45.9 84.5 45.9 C 84.8 45.9 85.1 45.9 85.4 45.9 C 85.8 45.9 86.2 45.9 86.5 45.9 C 87.0 45.8 87.5 45.8 88.0 45.8 C 88.3 45.8 88.5 45.8 88.8 45.8 C 89.2 45.8 89.7 45.8 90.1 45.8 C 90.6 45.8 91.1 45.9 91.6 45.9 C 91.8 45.9 92.0 45.9 92.1 45.9 C 92.7 45.9 93.3 45.9 93.8 46.0 C 94.3 46.0 94.7 46.0 95.2 46.0 C 95.3 46.0 95.4 46.0 95.5 46.1 C 96.2 46.1 96.9 46.2 97.6 46.2 C 98.0 46.3 98.4 46.3 98.8 46.3 C 98.9 46.4 98.9 46.4 99.0 46.4 C 99.9 46.5 100.8 46.6 101.8 46.7 C 102.0 46.7 102.2 46.8 102.5 46.8 C 102.5 46.8 102.5 46.8 102.5 46.8 C 103.6 47.0 104.7 47.1 105.8 47.3 C 106.0 47.4 106.1 47.4 106.2 47.4 L 106.2 47.4 C 106.2 47.4 106.2 47.4 106.2 47.4 C 107.5 47.6 108.8 47.9 110.1 48.2 C 110.1 48.2 110.2 48.2 110.2 48.2 C 110.4 48.3 110.7 48.3 110.9 48.4 C 112.0 48.7 113.1 48.9 114.2 49.2 C 114.3 49.3 114.4 49.3 114.6 49.3 C 114.8 49.4 115.1 49.5 115.3 49.6 C 116.5 49.9 117.7 50.3 118.9 50.7 C 119.2 50.8 119.4 50.8 119.7 50.9 C 120.1 51.1 120.6 51.2 121.1 51.4 C 122.1 51.8 123.2 52.2 124.2 52.6 C 124.5 52.7 124.8 52.9 125.1 53.0 C 125.6 53.2 126.1 53.4 126.6 53.6 C 126.7 53.7 126.8 53.8 127.0 53.8 C 128.3 54.4 129.6 55.0 130.8 55.7 C 131.0 55.7 131.1 55.8 131.3 55.9 C 132.3 56.5 133.4 57.1 134.4 57.7 C 134.8 57.9 135.1 58.1 135.4 58.3 C 136.4 58.9 137.3 59.5 138.2 60.1 C 138.4 60.2 138.6 60.3 138.7 60.5 C 139.8 61.2 140.8 62.0 141.7 62.7 C 141.8 62.8 141.9 62.9 142.0 62.9 C 142.2 63.1 142.4 63.3 142.7 63.5 C 143.1 63.9 143.6 64.3 144.0 64.7 C 144.4 65.0 144.7 65.3 145.0 65.6 C 145.4 66.0 145.8 66.4 146.2 66.8 C 146.3 66.9 146.5 67.1 146.7 67.2 C 146.8 67.3 146.8 67.5 147.0 67.6 C 147.8 68.5 148.6 69.4 149.4 70.3 C 149.4 70.4 149.4 70.4 149.4 70.4 C 149.4 70.4 149.4 70.4 149.5 70.5 C 150.1 71.2 150.7 72.0 151.2 72.8 C 151.3 72.9 151.3 73.0 151.4 73.1 C 151.5 73.3 151.6 73.5 151.7 73.7 C 152.1 74.2 152.4 74.7 152.7 75.2 C 152.7 75.3 152.8 75.5 152.9 75.6 C 153.0 75.8 153.1 76.0 153.2 76.2 C 153.4 76.6 153.6 77.0 153.8 77.4 C 153.9 77.6 154.0 77.8 154.1 78.0 C 154.2 78.2 154.2 78.3 154.3 78.5 C 154.5 78.9 154.6 79.3 154.8 79.7 C 154.9 79.9 155.0 80.1 155.0 80.3 C 155.1 80.4 155.1 80.6 155.2 80.8 C 155.2 80.9 155.3 81.1 155.4 81.2 C 155.4 81.4 155.4 81.6 155.5 81.7 C 155.6 82.0 155.7 82.3 155.7 82.5 C 155.8 82.8 155.9 83.1 156.0 83.4 C 156.0 83.7 156.1 84.0 156.1 84.2 C 156.2 84.4 156.2 84.5 156.3 84.7 C 156.3 85.2 156.4 85.7 156.5 86.2 C 156.5 86.4 156.5 86.5 156.5 86.7 C 156.6 86.8 156.6 86.8 156.6 86.8 C 156.6 87.6 156.7 88.3 156.7 89.0 C 156.7 89.1 156.7 89.1 156.7 89.2 C 156.7 89.4 156.7 89.6 156.7 89.9 C 156.7 90.3 156.7 90.7 156.6 91.2 C 156.6 91.5 156.6 91.8 156.6 92.1 L 156.6 92.1 L 156.6 92.1 L 154.9 108.7 C 154.6 110.7 154.1 112.8 153.4 114.8 C 153.6 114.6 153.9 114.3 154.2 114.1 C 154.4 113.9 154.7 113.6 155.0 113.4 C 155.5 112.9 155.9 112.4 156.4 111.9 C 156.6 111.6 156.8 111.4 157.1 111.2 C 157.7 110.5 158.4 109.7 159.0 108.9 C 162.9 103.9 165.0 98.5 165.6 93.0 L 163.9 109.6 C 163.3 115.1 161.1 120.5 157.2 125.5 C 156.6 126.3 156.0 127.1 155.3 127.8 C 155.1 128.0 154.9 128.2 154.7 128.5 C 154.2 129.0 153.7 129.5 153.2 130.0 C 153.0 130.2 152.7 130.5 152.5 130.7 C 151.9 131.2 151.4 131.6 150.9 132.1 C 150.6 132.3 150.4 132.5 150.1 132.7 C 149.3 133.3 148.5 134.0 147.7 134.6 C 147.7 134.6 147.7 134.6 147.7 134.6 C 146.8 135.2 145.9 135.8 145.0 136.4 C 144.7 136.5 144.4 136.7 144.1 136.9 C 143.5 137.3 142.8 137.6 142.2 138.0 C 141.8 138.2 141.5 138.4 141.2 138.6 C 140.5 138.9 139.8 139.3 139.1 139.6 C 138.8 139.7 138.5 139.9 138.2 140.0 C 137.2 140.5 136.2 140.9 135.2 141.3 C 135.2 141.4 135.1 141.4 135.1 141.4 C 135.1 141.4 135.1 141.4 135.1 141.4 C 134.1 141.8 133.2 142.2 132.2 142.5 C 131.9 142.6 131.6 142.7 131.3 142.8 C 130.6 143.0 129.9 143.3 129.2 143.5 C 129.2 143.5 129.1 143.5 129.1 143.5 C 129.0 143.6 128.9 143.6 128.9 143.6 C 127.5 144.1 126.0 144.5 124.6 144.8 C 124.4 144.9 124.3 144.9 124.1 145.0 C 124.0 145.0 123.9 145.0 123.8 145.0 C 122.5 145.4 121.1 145.7 119.8 145.9 C 119.7 145.9 119.6 146.0 119.6 146.0 C 119.3 146.0 119.1 146.0 118.9 146.1 C 117.9 146.3 116.9 146.4 115.9 146.6 C 115.7 146.6 115.5 146.7 115.3 146.7 C 115.1 146.7 114.9 146.8 114.7 146.8 C 113.8 146.9 112.9 147.0 112.0 147.1 C 111.8 147.2 111.5 147.2 111.2 147.2 C 111.1 147.2 111.0 147.3 110.9 147.3 C 109.9 147.4 108.9 147.5 107.9 147.5 C 107.7 147.6 107.5 147.6 107.3 147.6 C 107.3 147.6 107.2 147.6 107.2 147.6 C 106.0 147.7 104.8 147.7 103.6 147.8 C 103.5 147.8 103.5 147.8 103.4 147.8 C 103.1 147.8 102.8 147.8 102.5 147.8 C 101.7 147.8 100.8 147.8 100.0 147.8 C 99.8 147.8 99.7 147.9 99.6 147.9 C 99.2 147.9 98.9 147.8 98.5 147.8 C 97.8 147.8 97.1 147.8 96.3 147.8 C 96.1 147.8 95.9 147.8 95.8 147.8 C 95.4 147.8 95.1 147.7 94.8 147.7 C 94.1 147.7 93.4 147.7 92.6 147.6 C 92.4 147.6 92.1 147.6 91.9 147.6 C 91.6 147.6 91.4 147.5 91.1 147.5 C 90.3 147.5 89.6 147.4 88.8 147.3 C 88.5 147.3 88.2 147.3 87.9 147.2 C 87.8 147.2 87.6 147.2 87.4 147.2 C 86.5 147.1 85.7 147.0 84.9 146.9 C 84.6 146.8 84.2 146.8 83.9 146.7 C 83.8 146.7 83.7 146.7 83.6 146.7 C 82.3 146.5 81.0 146.3 79.7 146.0 L 79.7 146.0 C 79.7 146.0 79.7 146.0 79.6 146.0 C 78.3 145.8 76.9 145.5 75.6 145.2 C 75.4 145.2 75.3 145.1 75.1 145.1 C 74.9 145.0 74.7 145.0 74.4 144.9 C 73.2 144.6 72.0 144.3 70.7 144.0 C 70.5 143.9 70.3 143.9 70.1 143.8 C 70.0 143.8 69.9 143.8 69.8 143.8 C 68.1 143.3 66.4 142.7 64.7 142.2 C 64.6 142.1 64.4 142.1 64.2 142.0 C 63.7 141.8 63.2 141.6 62.6 141.4 C 61.1 140.9 59.7 140.3 58.2 139.7 C 57.9 139.6 57.6 139.4 57.2 139.3 C 56.9 139.2 56.6 139.0 56.3 138.9 C 55.8 138.7 55.4 138.4 54.9 138.2 C 53.9 137.8 53.0 137.3 52.1 136.9 C 51.5 136.6 50.8 136.2 50.1 135.8 C 49.3 135.4 48.5 134.9 47.6 134.4 C 47.0 134.1 46.4 133.7 45.8 133.3 C 45.0 132.8 44.2 132.3 43.5 131.8 C 42.9 131.4 42.3 131.0 41.7 130.6 C 41.0 130.0 40.3 129.5 39.6 129.0 C 39.3 128.7 39.0 128.5 38.7 128.2 C 38.4 128.0 38.2 127.8 37.9 127.6 C 37.5 127.3 37.1 126.9 36.7 126.6 C 36.1 126.0 35.5 125.4 34.9 124.8 C 34.5 124.5 34.2 124.2 33.8 123.8 C 33.7 123.7 33.5 123.5 33.3 123.3 C 33.1 123.1 32.9 122.8 32.6 122.5 C 32.0 121.8 31.3 121.1 30.7 120.4 C 30.6 120.1 30.4 119.9 30.2 119.7 C 30.0 119.5 29.8 119.2 29.6 118.9 C 29.2 118.4 28.8 117.9 28.4 117.3 C 28.3 117.1 28.1 116.8 27.9 116.6 C 27.7 116.3 27.5 116.0 27.3 115.6 C 27.1 115.2 26.8 114.8 26.5 114.3 C 26.4 114.1 26.3 113.9 26.1 113.7 " fill="#F9CE1D"></path><path d="M 29.2 103.1 C 29.3 103.2 29.3 103.3 29.4 103.3 L 33.2 101.7 L 33.1 100.8 C 33.0 100.2 33.0 99.5 33.0 98.7 L 33.0 98.5 C 33.0 98.0 33.0 97.4 33.0 96.9 C 33.1 96.6 33.1 96.3 33.1 96.0 L 33.3 94.3 C 33.3 94.4 33.3 94.5 33.4 94.5 C 33.5 94.7 33.8 95.5 33.8 95.5 C 34.1 96.1 34.5 96.7 34.8 97.3 C 35.0 97.7 35.3 98.1 35.5 98.5 C 35.9 99.0 36.2 99.5 36.6 100.0 C 36.9 100.5 37.3 101.0 37.6 101.5 C 38.0 101.9 38.3 102.4 38.7 102.8 C 39.2 103.5 39.8 104.1 40.4 104.8 L 40.6 105.0 C 40.9 105.4 41.2 105.7 41.5 106.0 C 41.8 106.2 42.0 106.5 42.3 106.7 L 42.5 106.9 C 43.0 107.5 43.6 108.0 44.1 108.5 C 44.5 108.8 44.9 109.1 45.2 109.4 C 45.7 109.8 46.3 110.3 46.8 110.7 C 47.4 111.2 48.0 111.6 48.7 112.1 C 49.2 112.5 49.7 112.9 50.3 113.2 C 50.9 113.7 51.6 114.1 52.3 114.6 C 52.9 114.9 53.4 115.3 54.0 115.6 C 54.7 116.0 55.5 116.5 56.3 116.9 C 56.9 117.2 57.4 117.5 58.1 117.8 C 58.9 118.2 59.7 118.6 60.5 119.0 L 61.1 119.3 C 61.6 119.5 62.1 119.7 62.6 120.0 L 63.5 120.3 C 64.8 120.9 66.1 121.4 67.5 121.9 C 68.0 122.1 68.5 122.3 69.1 122.4 L 69.3 122.5 C 70.8 123.0 72.4 123.5 73.9 124.0 L 74.7 124.2 C 75.8 124.5 76.9 124.7 78.2 125.0 L 79.0 125.2 C 80.2 125.5 81.3 125.7 82.5 126.0 L 82.7 126.0 L 82.9 126.0 C 84.0 126.2 85.1 126.4 86.2 126.6 L 87.3 126.7 C 88.1 126.8 88.8 126.9 89.5 127.0 L 90.9 127.1 C 91.5 127.2 92.2 127.3 92.9 127.3 L 94.2 127.4 C 94.9 127.4 95.5 127.5 96.2 127.5 L 97.5 127.6 C 98.2 127.6 98.9 127.6 99.5 127.6 L 100.8 127.6 C 101.5 127.6 102.3 127.6 103.1 127.6 L 104.0 127.6 C 105.1 127.5 106.2 127.5 107.3 127.4 L 107.8 127.3 C 108.7 127.3 109.6 127.2 110.5 127.1 L 111.6 127.0 C 112.4 126.9 113.1 126.8 113.9 126.7 L 115.1 126.5 C 115.9 126.4 116.8 126.2 117.7 126.0 L 118.5 125.9 C 119.7 125.6 120.9 125.4 122.1 125.1 L 122.8 124.9 C 124.1 124.6 125.4 124.2 126.6 123.8 L 126.9 123.7 C 128.8 123.2 130.6 122.5 132.3 121.8 C 133.3 121.4 134.2 121.0 135.0 120.6 L 136.9 119.7 L 137.8 119.2 L 138.7 118.7 C 139.3 118.4 139.9 118.1 140.5 117.7 L 141.2 117.2 C 142.1 116.7 142.9 116.2 143.7 115.6 C 144.5 115.1 145.2 114.5 145.9 113.9 L 146.6 113.4 C 147.1 112.9 147.6 112.5 148.1 112.1 C 148.3 111.8 148.5 111.6 148.8 111.4 C 149.2 110.9 149.7 110.5 150.1 110.0 L 150.7 109.4 C 151.3 108.7 151.9 108.0 152.5 107.3 C 152.6 107.1 152.8 106.9 152.9 106.8 L 152.7 108.4 C 152.5 110.2 152.1 112.1 151.3 114.1 L 154.8 116.4 C 154.8 116.4 155.4 115.9 155.6 115.7 C 155.7 115.6 155.8 115.5 155.9 115.5 C 155.2 119.2 154.4 122.9 153.5 126.6 L 153.1 127.0 C 152.7 127.5 152.2 128.0 151.7 128.4 C 151.5 128.7 151.2 128.9 151.0 129.1 C 150.5 129.6 150.0 130.0 149.5 130.5 L 148.8 131.0 C 148.0 131.6 147.3 132.2 146.4 132.8 C 145.6 133.4 144.7 134.0 143.9 134.5 L 143.0 135.0 C 142.4 135.4 141.8 135.8 141.1 136.1 L 140.2 136.7 L 139.2 137.1 C 138.9 137.3 137.3 138.1 137.3 138.1 C 136.3 138.5 135.4 139.0 134.2 139.4 C 133.3 139.8 132.4 140.1 131.5 140.5 L 130.4 140.8 C 129.8 141.1 129.2 141.3 128.5 141.5 L 128.2 141.6 C 126.9 142.0 125.5 142.4 124.1 142.7 L 123.3 142.9 C 122.0 143.3 120.7 143.5 119.4 143.8 L 119.1 143.9 L 118.5 144.0 C 117.5 144.2 116.6 144.3 115.6 144.5 L 115.0 144.6 L 114.4 144.7 C 113.5 144.8 112.7 144.9 111.8 145.0 L 110.7 145.1 C 109.7 145.2 108.7 145.3 107.7 145.4 L 107.1 145.4 C 105.9 145.5 104.7 145.6 103.4 145.6 L 102.4 145.7 C 101.6 145.7 100.8 145.7 100.0 145.7 L 99.6 145.7 L 98.6 145.7 C 97.8 145.7 97.1 145.7 96.4 145.6 L 96.1 145.6 L 94.9 145.6 C 94.2 145.6 93.5 145.5 92.8 145.5 L 92.0 145.4 L 91.3 145.4 C 90.5 145.3 89.8 145.2 89.1 145.2 L 88.2 145.1 L 87.6 145.0 C 86.8 144.9 86.0 144.8 85.2 144.7 L 84.2 144.6 L 83.9 144.5 C 82.6 144.4 81.4 144.2 80.2 143.9 L 80.0 143.9 L 79.8 143.9 C 78.6 143.6 77.3 143.4 76.0 143.1 L 75.6 143.0 L 74.9 142.8 C 73.7 142.6 72.5 142.2 71.3 141.9 L 70.9 141.8 L 70.4 141.7 C 68.7 141.2 67.1 140.7 65.4 140.1 L 64.9 140.0 C 64.4 139.8 63.9 139.6 63.4 139.4 C 61.9 138.9 60.5 138.3 59.0 137.7 L 57.2 136.9 C 56.9 136.8 56.7 136.7 56.4 136.6 L 55.8 136.3 C 54.9 135.8 54.0 135.4 53.1 135.0 C 52.5 134.6 51.8 134.3 51.2 133.9 C 50.3 133.5 49.5 133.0 48.7 132.6 C 48.1 132.2 47.5 131.8 46.9 131.5 C 46.1 131.0 45.4 130.5 44.7 130.0 C 44.1 129.6 43.5 129.2 43.0 128.8 C 42.3 128.3 41.6 127.8 41.0 127.3 L 40.5 126.9 C 40.3 126.8 40.2 126.7 40.0 126.6 C 40.0 126.6 38.5 125.3 38.2 125.0 C 37.5 124.4 36.9 123.9 36.4 123.3 L 34.9 121.8 C 34.8 121.7 34.7 121.6 34.6 121.5 C 34.4 121.3 34.3 121.2 34.2 121.0 C 33.6 120.4 33.0 119.7 32.4 119.0 C 32.3 118.9 31.9 118.4 31.9 118.4 C 31.8 118.3 31.3 117.6 31.3 117.6 C 30.9 117.1 30.6 116.6 30.2 116.1 C 30.2 116.1 29.8 115.5 29.7 115.4 C 29.6 115.2 29.1 114.5 29.1 114.5 C 28.9 114.1 28.7 113.7 28.5 113.4 C 28.6 109.9 28.9 106.5 29.2 103.1 " fill="#F6DF3C"></path><path d="M 92.8 145.5 L 92.0 145.4 L 91.3 145.4 C 90.5 145.3 89.8 145.2 89.1 145.2 L 88.2 145.1 L 87.6 145.0 C 86.8 144.9 86.0 144.8 85.2 144.7 L 84.2 144.6 L 83.9 144.5 C 82.6 144.4 81.4 144.2 80.2 143.9 L 80.0 143.9 L 79.8 143.9 C 78.6 143.6 77.3 143.4 76.0 143.1 L 75.6 143.0 L 74.9 142.8 C 73.7 142.6 72.5 142.2 71.3 141.9 L 70.9 141.8 L 70.4 141.7 C 68.7 141.2 67.1 140.7 65.4 140.1 L 64.9 140.0 C 64.4 139.8 63.9 139.6 63.4 139.4 C 61.9 138.9 60.5 138.3 59.0 137.7 L 57.2 136.9 C 56.9 136.8 56.7 136.7 56.4 136.6 L 55.8 136.3 C 54.9 135.8 54.0 135.4 53.1 135.0 C 52.5 134.6 51.8 134.3 51.2 133.9 C 50.3 133.5 49.5 133.0 48.7 132.6 C 48.1 132.2 47.5 131.8 46.9 131.5 C 46.1 131.0 45.4 130.5 44.7 130.0 C 44.1 129.6 43.5 129.2 43.0 128.8 C 42.3 128.3 41.6 127.8 41.0 127.3 L 40.5 126.9 C 40.3 126.8 40.2 126.7 40.0 126.6 C 40.0 126.6 39.3 125.9 38.7 125.4 C 39.6 119.1 40.7 112.7 41.9 106.4 C 42.0 106.5 42.2 106.6 42.3 106.7 L 42.5 106.9 C 43.0 107.5 43.6 108.0 44.1 108.5 C 44.5 108.8 44.9 109.1 45.2 109.4 C 45.7 109.8 46.3 110.3 46.8 110.7 C 47.4 111.2 48.0 111.6 48.7 112.1 C 49.2 112.5 49.7 112.9 50.3 113.2 C 50.9 113.7 51.6 114.1 52.3 114.6 C 52.9 114.9 53.4 115.3 54.0 115.6 C 54.7 116.0 55.5 116.5 56.3 116.9 C 56.9 117.2 57.4 117.5 58.1 117.8 C 58.9 118.2 59.7 118.6 60.5 119.0 L 61.1 119.3 C 61.6 119.5 62.1 119.7 62.6 120.0 L 63.5 120.3 C 64.8 120.9 66.1 121.4 67.5 121.9 C 68.0 122.1 68.5 122.3 69.1 122.5 L 69.3 122.5 C 70.8 123.0 72.4 123.5 73.9 124.0 L 74.7 124.2 C 75.8 124.5 76.9 124.7 78.2 125.0 L 79.0 125.2 C 80.2 125.5 81.3 125.7 82.5 126.0 L 82.7 126.0 L 82.9 126.0 C 84.0 126.2 85.1 126.4 86.2 126.6 L 87.3 126.7 C 88.1 126.8 88.8 126.9 89.5 127.0 L 90.9 127.1 C 91.5 127.2 92.2 127.3 92.9 127.3 L 94.2 127.4 C 94.9 127.4 95.5 127.5 96.2 127.5 L 97.5 127.6 C 98.2 127.6 98.9 127.6 99.5 127.6 L 100.8 127.6 C 101.5 127.6 102.3 127.6 103.1 127.6 L 104.0 127.6 C 105.1 127.5 106.2 127.5 107.3 127.4 L 107.8 127.3 C 108.7 127.3 109.6 127.2 110.5 127.1 L 111.6 127.0 C 112.4 126.9 113.1 126.8 113.9 126.7 L 115.1 126.5 C 115.9 126.4 116.8 126.2 117.7 126.0 L 118.5 125.9 C 119.2 125.7 119.9 125.6 120.6 125.4 C 119.0 131.8 117.3 138.2 115.3 144.5 L 115.0 144.6 L 114.4 144.7 C 113.5 144.8 112.7 144.9 111.8 145.0 L 110.7 145.1 C 109.7 145.2 108.7 145.3 107.7 145.4 L 107.1 145.4 C 105.9 145.5 104.7 145.6 103.4 145.6 L 102.4 145.7 C 101.6 145.7 100.8 145.7 100.0 145.7 L 99.6 145.7 L 98.6 145.7 C 97.8 145.7 97.1 145.7 96.4 145.6 L 96.1 145.6 L 94.9 145.6 C 94.2 145.6 93.5 145.5 92.8 145.5 " fill="#F8E160"></path><path d="M 56.5 71.4 L 54.0 75.0 L 62.6 77.9 C 60.9 80.9 59.6 84.3 58.6 87.3 L 73.1 91.6 L 75.9 87.4 L 70.9 85.6 C 70.8 85.5 70.4 85.3 70.0 85.1 C 69.2 83.4 69.5 81.7 71.5 79.2 C 73.7 76.3 77.6 75.1 81.6 76.5 C 92.5 80.5 78.5 96.7 98.9 104.1 C 109.7 108.0 119.8 105.1 125.8 98.8 L 133.1 101.3 L 135.6 97.5 L 128.5 95.2 C 132.8 88.6 132.2 83.6 132.2 83.4 L 117.1 79.0 L 114.5 83.1 C 114.6 83.1 117.6 84.2 118.4 84.6 C 118.9 84.7 120.4 85.4 121.8 86.2 C 121.9 86.6 122.4 89.4 119.2 93.5 C 117.2 96.1 113.4 97.8 108.9 96.2 C 96.8 91.8 111.5 76.0 90.2 68.2 C 80.0 64.5 70.6 67.6 65.1 74.2 Z M 56.5 71.4 " fill="#E9A900"></path><path d="M 125.8 98.8 C 119.8 105.1 109.7 108.0 98.9 104.1 C 78.5 96.7 92.5 80.5 81.6 76.5 C 77.6 75.1 73.7 76.3 71.5 79.2 C 69.5 81.7 69.2 83.4 70.0 85.1 C 70.4 85.3 70.8 85.5 70.9 85.6 L 75.9 87.4 L 73.1 91.6 L 58.6 87.3 C 59.6 84.3 60.9 80.9 62.6 77.9 L 54.0 75.0 L 56.5 71.4 L 65.1 74.2 C 70.6 67.6 80.0 64.5 90.2 68.2 C 111.5 76.0 96.8 91.8 108.9 96.2 C 113.4 97.8 117.2 96.1 119.2 93.5 C 122.4 89.4 121.9 86.6 121.8 86.2 C 120.4 85.4 118.9 84.7 118.4 84.6 C 117.6 84.2 114.6 83.1 114.5 83.1 L 117.1 79.0 L 132.2 83.4 C 132.2 83.6 132.8 88.6 128.5 95.2 L 135.6 97.5 L 133.1 101.3 L 125.8 98.8 M 38.5 65.3 C 23.9 84.2 37.2 108.6 68.2 119.9 C 99.2 131.1 136.2 124.9 150.8 106.0 C 165.4 87.1 152.1 62.6 121.1 51.4 C 90.0 40.2 53.1 46.4 38.5 65.3 " fill="#D27813"></path><path d="M 126.3 81.7 L 117.1 79.0 L 114.5 83.1 C 114.6 83.1 117.6 84.2 118.4 84.6 C 118.9 84.7 120.4 85.4 121.8 86.2 C 121.9 86.6 122.4 89.4 119.2 93.5 C 117.2 96.1 113.4 97.8 108.9 96.2 C 96.8 91.8 111.5 76.0 90.2 68.2 C 80.0 64.5 70.6 67.6 65.1 74.2 L 60.8 72.8 C 59.0 66.1 57.0 59.4 55.0 52.7 C 72.9 44.3 98.6 43.3 121.1 51.4 C 121.5 51.6 121.9 51.7 122.3 51.9 C 123.7 61.8 125.1 71.7 126.3 81.7 " fill="#C46812"></path><path d="M 72.3 121.2 C 70.3 110.5 67.9 99.9 65.2 89.2 L 73.1 91.6 L 75.9 87.4 L 70.9 85.6 C 70.8 85.5 70.4 85.3 70.0 85.1 C 69.2 83.4 69.5 81.7 71.5 79.2 C 73.7 76.3 77.6 75.1 81.6 76.5 C 92.5 80.5 78.5 96.7 98.9 104.1 C 109.7 108.0 119.8 105.1 125.8 98.8 L 128.5 99.7 C 129.3 106.5 130.0 113.3 130.7 120.1 C 114.2 126.6 92.3 127.4 72.3 121.2 " fill="#C46812"></path><path d="M 62.2 77.7 L 62.6 77.9 C 62.5 78.0 62.4 78.2 62.4 78.4 C 62.3 78.2 62.2 77.9 62.2 77.7 " fill="#C46812"></path><path d="M 57.7 90.2 C 58.0 89.2 58.3 88.3 58.7 87.3 L 73.1 91.6 L 74.2 90.0 L 74.9 90.3 L 72.2 94.5 Z M 57.7 90.2 " fill="#BE5D00"></path><path d="M 70.5 82.0 C 70.2 82.5 69.9 82.9 69.6 83.3 C 69.6 82.1 70.2 80.8 71.5 79.2 C 73.7 76.3 77.6 75.1 81.6 76.5 C 92.5 80.5 78.5 96.7 98.9 104.1 C 109.7 108.0 119.8 105.1 125.8 98.8 L 133.1 101.3 L 133.9 100.2 L 134.7 100.4 L 132.2 104.2 L 124.9 101.7 C 118.9 108.0 108.8 110.9 98.0 107.0 C 77.6 99.6 91.5 83.4 80.6 79.4 C 76.7 78.0 72.7 79.2 70.5 82.0 " fill="#BE5D00"></path><path d="M 129.1 95.4 L 128.5 95.2 C 129.5 93.7 130.2 92.3 130.7 91.0 C 130.4 92.3 129.9 93.7 129.1 95.4 " fill="#BE5D00"></path><path d="M 120.1 54.3 C 89.1 43.1 52.1 49.3 37.5 68.2 C 35.8 70.5 34.4 72.9 33.4 75.3 C 34.3 71.9 36.0 68.5 38.5 65.3 C 53.1 46.4 90.0 40.2 121.1 51.4 C 148.3 61.3 161.9 81.3 154.9 98.9 C 159.4 82.1 145.9 63.6 120.1 54.3 " fill="#BE5D00"></path><path d="M 118.4 84.6 C 118.9 84.7 120.4 85.4 121.8 86.2 C 121.9 86.5 122.2 88.2 120.8 90.9 C 121.0 89.9 120.9 89.3 120.8 89.1 C 119.4 88.3 117.9 87.6 117.5 87.5 C 116.6 87.1 113.7 86.0 113.5 86.0 L 115.2 83.3 C 116.1 83.7 117.8 84.3 118.4 84.6 " fill="#BE5D00"></path><path d="M 62.6 77.9 C 62.1 78.8 61.6 79.7 61.2 80.6 L 53.1 77.9 L 54.8 75.3 Z M 62.6 77.9 " fill="#BE5D00"></path><path d="M 150.8 106.0 C 136.2 124.9 99.2 131.1 68.2 119.9 C 37.2 108.6 23.9 84.2 38.5 65.3 C 53.1 46.4 90.0 40.2 121.1 51.4 C 152.1 62.6 165.4 87.1 150.8 106.0 M 30.3 62.3 C 13.6 84.0 28.8 112.0 64.4 124.8 C 99.9 137.7 142.2 130.6 159.0 108.9 C 175.7 87.3 160.4 59.3 124.9 46.4 C 89.4 33.6 47.0 40.7 30.3 62.3 " fill="#E8A205"></path><path d="M 71.5 79.1 C 71.3 75.9 71.0 72.7 70.7 69.4 C 76.1 66.4 82.9 65.6 90.2 68.2 C 110.9 75.7 97.7 90.9 107.9 95.8 C 108.4 99.1 109.0 102.5 109.5 105.8 C 106.1 105.9 102.6 105.4 98.9 104.1 C 78.5 96.7 92.5 80.5 81.6 76.5 C 77.7 75.1 73.7 76.3 71.5 79.1 " fill="#E29506"></path><path d="M 72.1 86.0 L 75.9 87.4 L 73.1 91.6 L 72.5 91.4 C 72.4 89.6 72.2 87.8 72.1 86.0 " fill="#E4A200"></path><path d="M 117.2 98.2 C 117.1 97.3 117.1 96.4 117.0 95.4 C 117.9 94.9 118.6 94.2 119.2 93.5 C 122.4 89.4 121.9 86.6 121.8 86.2 C 120.4 85.4 118.9 84.7 118.4 84.6 C 117.9 84.4 116.6 83.9 115.7 83.5 C 115.6 82.9 115.4 82.3 115.3 81.7 L 117.1 79.0 L 125.0 81.3 C 125.8 87.3 126.7 93.4 127.5 99.4 L 125.8 98.8 C 123.5 101.2 120.6 103.1 117.3 104.4 C 117.3 102.3 117.2 100.2 117.2 98.2 " fill="#E4A200"></path><path d="M 60.5 119.0 C 62.8 120.1 65.1 121.0 67.5 121.9 C 90.5 130.2 117.7 129.4 136.8 119.7 C 138.9 118.7 140.8 117.6 142.6 116.4 C 142.7 117.4 142.9 118.4 143.1 119.4 C 142.4 119.8 141.7 120.2 140.9 120.6 C 120.1 131.1 90.3 132.0 65.1 122.8 C 63.8 122.4 62.6 121.9 61.4 121.4 C 61.1 120.6 60.8 119.8 60.5 119.0 " fill="#D28700"></path><path d="M 121.8 49.4 C 98.8 41.0 71.5 41.9 52.4 51.6 C 46.8 54.4 42.1 57.9 38.5 62.0 C 38.0 60.8 37.5 59.5 37.0 58.3 C 40.2 55.5 44.0 52.9 48.4 50.7 C 69.2 40.2 98.9 39.3 124.2 48.5 C 126.0 49.1 127.7 49.8 129.5 50.6 C 129.6 51.3 129.8 52.1 130.0 52.9 C 127.4 51.6 124.7 50.4 121.8 49.4 " fill="#D28700"></path></g></g></g></g></g></svg>