<?xml version="1.0" encoding="UTF-8"?><svg xmlns="http://www.w3.org/2000/svg" xmlns:xlink="http://www.w3.org/1999/xlink" clip-rule="evenodd" stroke-miterlimit="4.00" viewBox="0 0 308 39"><desc>SVG generated by Keynote</desc><defs></defs><g transform="matrix(1.00, 0.00, -0.00, -1.00, 0.0, 39.0)"><text xml:space="preserve" font-family="Avenir-Medium" font-size="40.0" fill="#000000" transform="matrix(1.00, 0.00, -0.00, -1.00, -2.0, 5.0)">P</text><text xml:space="preserve" font-family="Avenir-Medium" font-size="40.0" fill="#000000" transform="matrix(1.00, 0.00, -0.00, -1.00, 21.7, 5.0)">a</text><text xml:space="preserve" font-family="Avenir-Medium" font-size="40.0" fill="#000000" transform="matrix(1.00, 0.00, -0.00, -1.00, 42.5, 5.0)">c</text><text xml:space="preserve" font-family="Avenir-Medium" font-size="40.0" fill="#000000" transform="matrix(1.00, 0.00, -0.00, -1.00, 61.8, 5.0)">k</text><text xml:space="preserve" font-family="Avenir-Medium" font-size="40.0" fill="#000000" transform="matrix(1.00, 0.00, -0.00, -1.00, 82.5, 5.0)"> </text><text xml:space="preserve" font-family="Avenir-Medium" font-size="40.0" fill="#000000" transform="matrix(1.00, 0.00, -0.00, -1.00, 93.6, 5.0)">o</text><text xml:space="preserve" font-family="Avenir-Medium" font-size="40.0" fill="#000000" transform="matrix(1.00, 0.00, -0.00, -1.00, 117.4, 5.0)">f</text><text xml:space="preserve" font-family="Avenir-Medium" font-size="40.0" fill="#000000" transform="matrix(1.00, 0.00, -0.00, -1.00, 130.7, 5.0)"> </text><text xml:space="preserve" font-family="Avenir-Medium" font-size="40.0" fill="#000000" transform="matrix(1.00, 0.00, -0.00, -1.00, 141.8, 5.0)">5</text><text xml:space="preserve" font-family="Avenir-Medium" font-size="40.0" fill="#000000" transform="matrix(1.00, 0.00, -0.00, -1.00, 164.1, 5.0)"> </text><text xml:space="preserve" font-family="Avenir-Medium" font-size="40.0" fill="#000000" transform="matrix(1.00, 0.00, -0.00, -1.00, 175.2, 5.0)">–</text><text xml:space="preserve" font-family="Avenir-Medium" font-size="40.0" fill="#000000" transform="matrix(1.00, 0.00, -0.00, -1.00, 195.2, 5.0)"> </text><text xml:space="preserve" font-family="Avenir-Medium" font-size="40.0" fill="#000000" transform="matrix(1.00, 0.00, -0.00, -1.00, 206.3, 5.0)">$</text><text xml:space="preserve" font-family="Avenir-Medium" font-size="40.0" fill="#000000" transform="matrix(1.00, 0.00, -0.00, -1.00, 228.6, 5.0)">0</text><text xml:space="preserve" font-family="Avenir-Medium" font-size="40.0" fill="#000000" transform="matrix(1.00, 0.00, -0.00, -1.00, 250.8, 5.0)">.</text><text xml:space="preserve" font-family="Avenir-Medium" font-size="40.0" fill="#000000" transform="matrix(1.00, 0.00, -0.00, -1.00, 261.9, 5.0)">9</text><text xml:space="preserve" font-family="Avenir-Medium" font-size="40.0" fill="#000000" transform="matrix(1.00, 0.00, -0.00, -1.00, 284.2, 5.0)">0</text></g></svg>