<?xml version="1.0" encoding="UTF-8"?><svg xmlns="http://www.w3.org/2000/svg" xmlns:xlink="http://www.w3.org/1999/xlink" clip-rule="evenodd" stroke-miterlimit="4.00" viewBox="0 0 348 45"><desc>SVG generated by Keynote</desc><defs></defs><g transform="matrix(1.00, 0.00, -0.00, -1.00, 0.0, 45.0)"><text xml:space="preserve" font-family="Avenir-Light" font-size="30.0" fill="#000000" transform="matrix(1.00, 0.00, -0.00, -1.00, 0.7, 14.9)">•</text><text xml:space="preserve" font-family="Avenir-Light" font-size="40.0" fill="#000000" transform="matrix(1.00, 0.00, -0.00, -1.00, 40.0, 12.0)">S</text><text xml:space="preserve" font-family="Avenir-Light" font-size="40.0" fill="#000000" transform="matrix(1.00, 0.00, -0.00, -1.00, 62.2, 12.0)">y</text><text xml:space="preserve" font-family="Avenir-Light" font-size="40.0" fill="#000000" transform="matrix(1.00, 0.00, -0.00, -1.00, 80.8, 12.0)">s</text><text xml:space="preserve" font-family="Avenir-Light" font-size="40.0" fill="#000000" transform="matrix(1.00, 0.00, -0.00, -1.00, 97.8, 12.0)">t</text><text xml:space="preserve" font-family="Avenir-Light" font-size="40.0" fill="#000000" transform="matrix(1.00, 0.00, -0.00, -1.00, 111.1, 12.0)">e</text><text xml:space="preserve" font-family="Avenir-Light" font-size="40.0" fill="#000000" transform="matrix(1.00, 0.00, -0.00, -1.00, 133.4, 12.0)">m</text><text xml:space="preserve" font-family="Avenir-Light" font-size="40.0" fill="#000000" transform="matrix(1.00, 0.00, -0.00, -1.00, 167.4, 12.0)"> </text><text xml:space="preserve" font-family="Avenir-Light" font-size="40.0" fill="#000000" transform="matrix(1.00, 0.00, -0.00, -1.00, 177.8, 12.0)">D</text><text xml:space="preserve" font-family="Avenir-Light" font-size="40.0" fill="#000000" transform="matrix(1.00, 0.00, -0.00, -1.00, 207.5, 12.0)">i</text><text xml:space="preserve" font-family="Avenir-Light" font-size="40.0" fill="#000000" transform="matrix(1.00, 0.00, -0.00, -1.00, 217.1, 12.0)">a</text><text xml:space="preserve" font-family="Avenir-Light" font-size="40.0" fill="#000000" transform="matrix(1.00, 0.00, -0.00, -1.00, 237.8, 12.0)">g</text><text xml:space="preserve" font-family="Avenir-Light" font-size="40.0" fill="#000000" transform="matrix(1.00, 0.00, -0.00, -1.00, 262.3, 12.0)">r</text><text xml:space="preserve" font-family="Avenir-Light" font-size="40.0" fill="#000000" transform="matrix(1.00, 0.00, -0.00, -1.00, 275.6, 12.0)">a</text><text xml:space="preserve" font-family="Avenir-Light" font-size="40.0" fill="#000000" transform="matrix(1.00, 0.00, -0.00, -1.00, 296.4, 12.0)">m</text><text xml:space="preserve" font-family="Avenir-Light" font-size="40.0" fill="#000000" transform="matrix(1.00, 0.00, -0.00, -1.00, 330.4, 12.0)">s</text></g></svg>