<?xml version="1.0" encoding="UTF-8"?><svg xmlns="http://www.w3.org/2000/svg" xmlns:xlink="http://www.w3.org/1999/xlink" clip-rule="evenodd" stroke-miterlimit="4.00" viewBox="0 0 262 186"><desc>SVG generated by Keynote</desc><defs></defs><g transform="matrix(1.00, 0.00, -0.00, -1.00, 0.0, 186.0)"><g><clipPath id="clip-4"><path d="M 2.0 1.0 L 260.0 1.0 L 260.0 184.0 L 2.0 184.0 Z M 2.0 1.0 "></path></clipPath><g clip-path="url(#clip-4)"><g><g><clipPath id="clip-5"><path d="M 2.0 1.0 L 260.0 1.0 L 260.0 184.0 L 2.0 184.0 Z M 2.0 1.0 "></path></clipPath><g clip-path="url(#clip-5)"><g opacity="0.40"><g><clipPath id="clip-6"><path d="M 119.4 1.0 L 260.0 1.0 L 260.0 184.0 L 119.4 184.0 Z M 119.4 1.0 "></path></clipPath><g clip-path="url(#clip-6)"><path d="M 193.1 138.7 C 193.1 143.4 192.2 147.4 190.4 150.6 C 188.6 153.8 185.9 155.4 182.3 155.4 C 178.5 155.4 175.6 153.7 173.4 150.3 C 171.3 146.8 170.3 142.8 170.3 138.2 C 170.3 130.0 173.0 122.4 178.6 115.5 C 182.4 118.0 185.7 121.1 188.7 125.0 C 191.6 128.9 193.1 133.4 193.1 138.7 M 165.1 77.4 C 162.8 76.0 160.5 73.5 158.2 69.8 C 155.9 66.1 154.8 61.5 154.8 55.9 C 154.8 49.0 156.3 43.6 159.4 39.5 C 162.6 35.5 166.7 33.5 172.0 33.5 C 176.2 33.5 179.6 34.8 182.1 37.3 C 184.5 39.9 186.3 42.5 187.5 45.1 Z M 216.2 4.7 L 206.2 19.2 C 202.9 14.1 198.1 9.8 191.8 6.3 C 185.5 2.8 177.8 1.0 168.8 1.0 C 153.5 1.0 141.5 5.5 132.6 14.5 C 123.8 23.6 119.4 36.5 119.4 53.5 C 119.4 65.3 122.1 75.2 127.5 83.1 C 132.9 91.1 139.8 97.3 148.1 101.7 C 144.2 107.0 141.1 112.6 138.9 118.6 C 136.7 124.6 135.6 131.1 135.6 138.2 C 135.6 145.2 136.8 151.6 139.2 157.3 C 141.5 162.9 144.8 167.7 149.0 171.7 C 153.2 175.6 158.1 178.7 163.7 180.8 C 169.4 182.9 175.5 184.0 182.1 184.0 C 188.3 184.0 194.0 183.1 199.3 181.2 C 204.5 179.3 209.1 176.5 212.9 172.8 C 216.8 169.1 219.8 164.6 221.9 159.2 C 224.0 153.9 225.1 147.8 225.1 140.9 C 225.1 135.3 224.2 130.3 222.5 125.8 C 220.8 121.2 218.4 117.1 215.5 113.3 C 212.6 109.5 209.2 106.1 205.3 103.1 C 201.4 100.1 197.5 97.2 193.4 94.6 L 207.9 74.4 L 219.9 100.3 L 257.0 100.3 L 229.0 47.8 L 260.0 4.7 Z M 216.2 4.7 " fill="#F4CC32"></path></g></g></g><path d="M 15.6 108.2 C 14.5 107.9 13.2 107.7 11.7 107.7 C 10.2 107.7 8.8 108.0 7.6 108.6 C 6.4 109.2 5.4 110.1 4.6 111.2 C 3.8 112.3 3.1 113.6 2.7 115.2 C 2.2 116.8 2.0 118.5 2.0 120.4 C 2.0 122.3 2.2 124.0 2.7 125.6 C 3.1 127.2 3.7 128.5 4.6 129.6 C 5.4 130.8 6.4 131.7 7.5 132.3 C 8.7 132.9 10.0 133.2 11.4 133.2 C 13.0 133.2 14.4 132.9 15.5 132.4 C 16.6 131.8 17.5 131.1 18.2 130.2 L 15.2 126.2 C 14.3 127.4 13.2 127.9 11.8 127.9 C 11.0 127.9 10.4 127.7 9.8 127.3 C 9.3 126.9 8.8 126.4 8.5 125.7 C 8.1 125.0 7.8 124.2 7.6 123.3 C 7.5 122.4 7.4 121.4 7.4 120.4 C 7.4 119.4 7.5 118.4 7.6 117.5 C 7.8 116.6 8.0 115.7 8.4 115.1 C 8.8 114.4 9.2 113.8 9.7 113.4 C 10.3 113.0 10.9 112.8 11.7 112.8 C 12.5 112.8 13.2 113.0 13.6 113.3 L 13.6 117.8 L 11.0 117.8 L 11.0 122.6 L 18.4 122.6 L 18.4 109.7 C 17.7 109.1 16.7 108.6 15.6 108.2 " fill="#F4CC32"></path><path d="M 32.0 124.9 C 32.0 125.5 31.9 126.0 31.8 126.4 C 31.6 126.8 31.4 127.1 31.1 127.4 C 30.8 127.6 30.5 127.7 30.2 127.8 C 29.8 127.9 29.5 127.9 29.2 127.9 L 27.5 127.9 L 27.5 121.8 L 29.1 121.8 C 29.9 121.8 30.6 122.0 31.1 122.5 C 31.7 123.0 32.0 123.8 32.0 124.9 M 32.3 108.2 L 29.1 117.9 L 27.5 117.9 L 27.5 108.2 L 22.2 108.2 L 22.2 132.6 L 30.0 132.6 C 32.3 132.6 34.1 131.9 35.5 130.7 C 36.7 129.5 37.4 127.7 37.4 125.2 C 37.4 124.3 37.3 123.5 37.1 122.8 C 36.9 122.1 36.6 121.5 36.3 121.0 C 36.0 120.5 35.6 120.1 35.2 119.8 C 34.8 119.4 34.4 119.2 34.0 119.1 L 38.1 108.2 Z M 32.3 108.2 " fill="#F4CC32"></path><path d="M 47.9 127.3 L 47.8 127.3 L 45.7 116.9 L 49.9 116.9 Z M 51.5 108.2 L 50.5 112.7 L 45.1 112.7 L 44.1 108.2 L 38.6 108.2 L 44.5 132.6 L 51.4 132.6 L 57.3 108.2 Z M 51.5 108.2 " fill="#F4CC32"></path><path d="M 69.2 124.8 C 69.2 125.9 69.0 126.7 68.4 127.2 C 67.9 127.7 67.3 127.9 66.5 127.9 L 64.8 127.9 L 64.8 121.6 L 66.5 121.6 C 67.3 121.6 67.9 121.8 68.4 122.4 C 69.0 123.0 69.2 123.8 69.2 124.8 M 74.4 124.9 C 74.4 123.6 74.2 122.4 73.8 121.4 C 73.3 120.4 72.8 119.6 72.1 119.0 C 71.4 118.3 70.7 117.9 69.8 117.6 C 68.9 117.2 68.0 117.1 67.1 117.1 L 64.8 117.1 L 64.8 108.2 L 59.4 108.2 L 59.4 132.6 L 66.9 132.6 C 67.8 132.6 68.7 132.4 69.6 132.2 C 70.4 131.9 71.2 131.5 72.0 130.9 C 72.7 130.3 73.3 129.6 73.7 128.6 C 74.2 127.6 74.4 126.4 74.4 124.9 " fill="#F4CC32"></path><path d="M 88.4 108.2 L 88.4 118.4 L 82.7 118.4 L 82.7 108.2 L 77.3 108.2 L 77.3 132.6 L 82.7 132.6 L 82.7 123.3 L 88.4 123.3 L 88.4 132.6 L 93.9 132.6 L 93.9 108.2 Z M 88.4 108.2 " fill="#F4CC32"></path><path d="M 98.2 108.2 L 103.7 108.2 L 103.7 132.6 L 98.2 132.6 Z M 98.2 108.2 " fill="#F4CC32"></path><path d="M 120.6 108.5 C 119.5 107.9 118.1 107.6 116.5 107.6 C 115.1 107.6 113.8 107.9 112.6 108.5 C 111.5 109.1 110.5 110.0 109.6 111.2 C 108.8 112.3 108.2 113.6 107.7 115.2 C 107.3 116.8 107.0 118.5 107.0 120.4 C 107.0 122.3 107.3 124.0 107.7 125.6 C 108.2 127.2 108.8 128.5 109.6 129.7 C 110.5 130.8 111.5 131.7 112.6 132.3 C 113.8 132.9 115.1 133.2 116.5 133.2 C 118.1 133.2 119.4 132.9 120.5 132.3 C 121.6 131.7 122.5 131.0 123.2 130.1 L 120.2 126.2 C 119.8 126.7 119.3 127.1 118.8 127.5 C 118.3 127.8 117.7 127.9 116.9 127.9 C 116.1 127.9 115.5 127.8 115.0 127.4 C 114.4 127.0 114.0 126.4 113.6 125.8 C 113.2 125.1 112.9 124.3 112.8 123.4 C 112.6 122.4 112.5 121.4 112.5 120.4 C 112.5 119.3 112.6 118.3 112.8 117.4 C 112.9 116.5 113.2 115.7 113.6 115.0 C 114.0 114.3 114.4 113.8 115.0 113.4 C 115.5 113.0 116.2 112.8 116.9 112.8 C 117.6 112.8 118.3 113.0 118.8 113.4 C 119.4 113.7 119.8 114.2 120.1 114.7 L 123.2 110.9 C 122.5 109.9 121.7 109.1 120.6 108.5 " fill="#F4CC32"></path><path d="M 6.1 66.7 L 11.7 66.7 L 11.7 91.0 L 6.1 91.0 Z M 6.1 66.7 " fill="#F4CC32"></path><path d="M 26.5 66.7 L 20.8 81.5 L 20.7 81.5 L 20.9 66.7 L 16.0 66.7 L 16.0 91.0 L 22.0 91.0 L 27.6 76.0 L 27.7 76.0 L 27.6 91.0 L 32.3 91.0 L 32.3 66.7 Z M 26.5 66.7 " fill="#F4CC32"></path><path d="M 44.3 86.3 L 44.3 66.7 L 38.9 66.7 L 38.9 86.3 L 34.5 86.3 L 34.5 91.0 L 48.8 91.0 L 48.8 86.3 Z M 44.3 86.3 " fill="#F4CC32"></path><path d="M 50.9 66.7 L 50.9 91.0 L 62.6 91.0 L 62.6 86.2 L 56.1 86.2 L 56.1 81.4 L 62.1 81.4 L 62.1 76.9 L 56.1 76.9 L 56.1 71.6 L 63.0 71.6 L 63.0 66.7 Z M 50.9 66.7 " fill="#F4CC32"></path><path d="M 76.1 83.4 C 76.1 84.0 76.0 84.5 75.8 84.9 C 75.6 85.3 75.4 85.6 75.1 85.8 C 74.9 86.1 74.6 86.2 74.2 86.3 C 73.9 86.4 73.6 86.4 73.3 86.4 L 71.5 86.4 L 71.5 80.3 L 73.2 80.3 C 73.9 80.3 74.6 80.5 75.2 81.0 C 75.8 81.5 76.1 82.3 76.1 83.4 M 76.4 66.7 L 73.2 76.4 L 71.5 76.4 L 71.5 66.7 L 66.3 66.7 L 66.3 91.0 L 74.0 91.0 C 76.4 91.0 78.2 90.4 79.5 89.2 C 80.8 88.0 81.5 86.1 81.5 83.7 C 81.5 82.8 81.4 82.0 81.2 81.3 C 80.9 80.6 80.7 80.0 80.3 79.5 C 80.0 79.0 79.6 78.6 79.2 78.2 C 78.8 77.9 78.4 77.7 78.0 77.5 L 82.2 66.7 Z M 76.4 66.7 " fill="#F4CC32"></path><path d="M 106.2 25.4 L 106.2 49.8 L 117.9 49.8 L 117.9 44.9 L 111.5 44.9 L 111.5 40.1 L 117.4 40.1 L 117.4 35.6 L 111.5 35.6 L 111.5 30.4 L 118.4 30.4 L 118.4 25.4 Z M 106.2 25.4 " fill="#F4CC32"></path><path d="M 131.4 42.1 C 131.4 42.7 131.3 43.3 131.1 43.6 C 131.0 44.0 130.7 44.3 130.5 44.6 C 130.2 44.8 129.9 45.0 129.6 45.0 C 129.2 45.1 128.9 45.2 128.6 45.2 L 126.9 45.2 L 126.9 39.0 L 128.5 39.0 C 129.3 39.0 129.9 39.2 130.5 39.7 C 131.1 40.2 131.4 41.0 131.4 42.1 M 131.7 25.4 L 128.5 35.1 L 126.9 35.1 L 126.9 25.4 L 121.6 25.4 L 121.6 49.8 L 129.4 49.8 C 131.7 49.8 133.5 49.1 134.8 47.9 C 136.1 46.7 136.8 44.9 136.8 42.4 C 136.8 41.5 136.7 40.7 136.5 40.0 C 136.3 39.3 136.0 38.7 135.7 38.2 C 135.3 37.7 135.0 37.3 134.6 37.0 C 134.1 36.7 133.7 36.4 133.4 36.3 L 137.5 25.4 Z M 131.7 25.4 " fill="#F4CC32"></path><path d="M 92.0 85.7 L 91.8 85.7 L 89.8 75.4 L 93.9 75.4 Z M 95.6 66.7 L 94.6 71.1 L 89.1 71.1 L 88.1 66.7 L 82.7 66.7 L 88.6 91.0 L 95.5 91.0 L 101.3 66.7 Z M 95.6 66.7 " fill="#F4CC32"></path><path d="M 115.8 67.0 C 114.7 66.4 113.3 66.0 111.7 66.0 C 110.3 66.0 109.0 66.4 107.8 67.0 C 106.7 67.6 105.7 68.5 104.9 69.6 C 104.0 70.8 103.4 72.1 102.9 73.7 C 102.5 75.3 102.2 77.0 102.2 78.9 C 102.2 80.8 102.5 82.5 102.9 84.1 C 103.4 85.7 104.0 87.0 104.9 88.1 C 105.7 89.3 106.7 90.1 107.8 90.7 C 109.0 91.4 110.3 91.7 111.7 91.7 C 113.3 91.7 114.7 91.4 115.7 90.8 C 116.8 90.2 117.7 89.5 118.4 88.6 L 115.4 84.6 C 115.0 85.2 114.5 85.6 114.0 85.9 C 113.5 86.3 112.9 86.4 112.1 86.4 C 111.4 86.4 110.7 86.2 110.2 85.8 C 109.6 85.4 109.2 84.9 108.8 84.2 C 108.4 83.6 108.2 82.8 108.0 81.8 C 107.8 80.9 107.7 79.9 107.7 78.9 C 107.7 77.8 107.8 76.8 108.0 75.9 C 108.2 75.0 108.4 74.2 108.8 73.5 C 109.2 72.8 109.7 72.3 110.2 71.9 C 110.8 71.5 111.4 71.3 112.1 71.3 C 112.9 71.3 113.5 71.5 114.0 71.8 C 114.6 72.2 115.0 72.6 115.3 73.2 L 118.4 69.3 C 117.7 68.4 116.9 67.6 115.8 67.0 " fill="#F4CC32"></path><path d="M 130.3 86.3 L 130.3 66.7 L 124.9 66.7 L 124.9 86.3 L 120.5 86.3 L 120.5 91.0 L 134.8 91.0 L 134.8 86.3 Z M 130.3 86.3 " fill="#F4CC32"></path><path d="M 136.9 66.7 L 142.4 66.7 L 142.4 91.0 L 136.9 91.0 Z M 136.9 66.7 " fill="#F4CC32"></path><path d="M 158.8 78.9 C 158.8 80.0 158.7 81.0 158.5 81.9 C 158.4 82.8 158.1 83.6 157.8 84.2 C 157.5 84.9 157.1 85.4 156.7 85.8 C 156.2 86.2 155.7 86.3 155.1 86.3 C 154.5 86.3 153.9 86.2 153.4 85.8 C 153.0 85.4 152.6 84.9 152.3 84.2 C 152.0 83.6 151.7 82.8 151.6 81.9 C 151.4 81.0 151.4 80.0 151.4 78.9 C 151.4 77.9 151.4 76.9 151.6 76.0 C 151.7 75.1 152.0 74.3 152.3 73.6 C 152.6 72.9 153.0 72.4 153.4 72.0 C 153.9 71.6 154.5 71.4 155.1 71.4 C 155.7 71.4 156.2 71.6 156.7 72.0 C 157.1 72.4 157.5 72.9 157.8 73.6 C 158.1 74.3 158.4 75.1 158.5 76.0 C 158.7 76.9 158.8 77.9 158.8 78.9 M 164.4 78.9 C 164.4 77.0 164.2 75.2 163.8 73.6 C 163.3 72.1 162.7 70.7 161.9 69.6 C 161.1 68.5 160.1 67.6 159.0 67.0 C 157.8 66.3 156.5 66.0 155.1 66.0 C 153.6 66.0 152.3 66.3 151.2 67.0 C 150.0 67.6 149.1 68.5 148.3 69.6 C 147.5 70.7 146.8 72.1 146.4 73.6 C 146.0 75.2 145.7 77.0 145.7 78.9 C 145.7 80.8 146.0 82.6 146.4 84.2 C 146.8 85.7 147.4 87.1 148.2 88.2 C 149.0 89.3 150.0 90.2 151.1 90.8 C 152.3 91.4 153.6 91.7 155.1 91.7 C 156.5 91.7 157.8 91.4 159.0 90.8 C 160.1 90.2 161.1 89.3 161.9 88.2 C 162.7 87.1 163.3 85.7 163.8 84.2 C 164.2 82.6 164.4 80.8 164.4 78.9 " fill="#F4CC32"></path><path d="M 178.2 66.7 L 172.6 81.5 L 172.5 81.5 L 172.6 66.7 L 167.7 66.7 L 167.7 91.0 L 173.8 91.0 L 179.4 76.0 L 179.5 76.0 L 179.4 91.0 L 184.1 91.0 L 184.1 66.7 Z M 178.2 66.7 " fill="#F4CC32"></path><path d="M 17.5 37.6 C 17.5 40.0 17.1 41.9 16.3 43.1 C 15.4 44.4 14.3 45.0 13.0 45.0 L 11.7 45.0 L 11.7 30.3 L 13.0 30.3 C 14.3 30.3 15.4 30.9 16.3 32.1 C 17.1 33.4 17.5 35.2 17.5 37.6 M 23.0 37.6 C 23.0 35.7 22.8 34.1 22.4 32.6 C 22.0 31.1 21.4 29.8 20.6 28.8 C 19.8 27.7 18.7 26.9 17.5 26.3 C 16.2 25.7 14.7 25.5 13.0 25.5 L 6.1 25.5 L 6.1 49.8 L 13.0 49.8 C 14.7 49.8 16.2 49.5 17.5 48.9 C 18.7 48.4 19.8 47.5 20.6 46.5 C 21.4 45.4 22.0 44.1 22.4 42.6 C 22.8 41.1 23.0 39.4 23.0 37.6 " fill="#F4CC32"></path><path d="M 26.4 25.5 L 26.4 49.8 L 38.1 49.8 L 38.1 44.9 L 31.6 44.9 L 31.6 40.2 L 37.6 40.2 L 37.6 35.6 L 31.6 35.6 L 31.6 30.4 L 38.5 30.4 L 38.5 25.5 Z M 26.4 25.5 " fill="#F4CC32"></path><path d="M 51.8 44.0 C 51.4 44.5 50.9 44.8 50.3 45.1 C 49.8 45.4 49.2 45.5 48.6 45.5 C 48.0 45.5 47.5 45.3 47.0 44.9 C 46.5 44.5 46.2 43.9 46.2 43.0 C 46.2 42.2 46.5 41.6 47.0 41.2 C 47.5 40.8 48.2 40.3 49.2 39.8 C 49.8 39.5 50.3 39.2 51.0 38.8 C 51.6 38.5 52.1 38.0 52.6 37.4 C 53.1 36.9 53.6 36.2 53.9 35.5 C 54.2 34.7 54.4 33.8 54.4 32.7 C 54.4 31.4 54.2 30.3 53.8 29.3 C 53.4 28.3 52.8 27.4 52.1 26.8 C 51.4 26.1 50.6 25.6 49.7 25.3 C 48.7 25.0 47.8 24.8 46.8 24.8 C 45.3 24.8 44.0 25.1 42.8 25.6 C 41.6 26.2 40.6 26.8 39.9 27.6 L 42.7 31.7 C 43.3 31.1 43.9 30.7 44.5 30.4 C 45.2 30.0 45.9 29.9 46.6 29.9 C 47.3 29.9 47.9 30.1 48.3 30.5 C 48.8 30.9 49.0 31.5 49.0 32.3 C 49.0 33.1 48.7 33.8 48.2 34.2 C 47.6 34.7 46.8 35.2 45.8 35.7 C 45.1 36.0 44.5 36.4 43.9 36.8 C 43.3 37.2 42.8 37.7 42.4 38.2 C 41.9 38.8 41.6 39.4 41.3 40.1 C 41.1 40.9 40.9 41.7 40.9 42.7 C 40.9 44.1 41.2 45.3 41.6 46.2 C 42.1 47.2 42.6 48.0 43.4 48.6 C 44.1 49.2 44.9 49.7 45.8 50.0 C 46.6 50.3 47.5 50.4 48.4 50.4 C 49.7 50.4 50.9 50.2 52.0 49.8 C 53.0 49.4 53.9 48.8 54.6 48.0 Z M 51.8 44.0 " fill="#F4CC32"></path><path d="M 57.6 25.5 L 63.1 25.5 L 63.1 49.8 L 57.6 49.8 Z M 57.6 25.5 " fill="#F4CC32"></path><path d="M 80.0 25.5 C 78.9 25.1 77.6 24.9 76.1 24.9 C 74.6 24.9 73.2 25.2 72.0 25.8 C 70.8 26.5 69.8 27.3 69.0 28.4 C 68.2 29.5 67.5 30.9 67.1 32.4 C 66.6 34.0 66.4 35.7 66.4 37.6 C 66.4 39.5 66.6 41.3 67.1 42.8 C 67.5 44.4 68.2 45.7 69.0 46.9 C 69.8 48.0 70.8 48.9 71.9 49.5 C 73.1 50.1 74.4 50.4 75.8 50.4 C 77.4 50.4 78.8 50.2 79.9 49.6 C 81.0 49.0 81.9 48.3 82.6 47.5 L 79.6 43.5 C 78.7 44.6 77.6 45.2 76.2 45.2 C 75.4 45.2 74.8 45.0 74.2 44.6 C 73.7 44.2 73.2 43.6 72.9 42.9 C 72.5 42.3 72.2 41.5 72.0 40.5 C 71.9 39.6 71.8 38.7 71.8 37.6 C 71.8 36.6 71.9 35.6 72.0 34.7 C 72.2 33.8 72.4 33.0 72.8 32.3 C 73.2 31.6 73.6 31.1 74.1 30.6 C 74.7 30.2 75.3 30.0 76.1 30.0 C 76.9 30.0 77.6 30.2 78.0 30.5 L 78.0 35.1 L 75.4 35.1 L 75.4 39.9 L 82.8 39.9 L 82.8 26.9 C 82.1 26.3 81.1 25.8 80.0 25.5 " fill="#F4CC32"></path><path d="M 97.1 25.5 L 91.5 40.3 L 91.4 40.3 L 91.5 25.5 L 86.6 25.5 L 86.6 49.8 L 92.6 49.8 L 98.2 34.8 L 98.3 34.8 L 98.2 49.8 L 103.0 49.8 L 103.0 25.5 Z M 97.1 25.5 " fill="#F4CC32"></path></g></g></g></g></g></g></svg>