<?xml version="1.0" encoding="UTF-8"?><svg xmlns="http://www.w3.org/2000/svg" xmlns:xlink="http://www.w3.org/1999/xlink" clip-rule="evenodd" stroke-miterlimit="4.00" viewBox="0 0 1472 44"><desc>SVG generated by Keynote</desc><defs></defs><g transform="matrix(1.00, 0.00, -0.00, -1.00, 0.0, 44.0)"><text xml:space="preserve" font-family="Avenir-Heavy" font-weight="bold" font-size="40.0" fill="#000000" transform="matrix(1.00, 0.00, -0.00, -1.00, 0.0, 12.0)">a</text><text xml:space="preserve" font-family="Avenir-Heavy" font-weight="bold" font-size="40.0" fill="#000000" transform="matrix(1.00, 0.00, -0.00, -1.00, 21.5, 12.0)">n</text><text xml:space="preserve" font-family="Avenir-Heavy" font-weight="bold" font-size="40.0" fill="#000000" transform="matrix(1.00, 0.00, -0.00, -1.00, 44.4, 12.0)">d</text><text xml:space="preserve" font-family="Avenir-Heavy" font-weight="bold" font-size="40.0" fill="#000000" transform="matrix(1.00, 0.00, -0.00, -1.00, 69.6, 12.0)"> </text><text xml:space="preserve" font-family="Avenir-Heavy" font-weight="bold" font-size="40.0" fill="#000000" transform="matrix(1.00, 0.00, -0.00, -1.00, 81.5, 12.0)">p</text><text xml:space="preserve" font-family="Avenir-Heavy" font-weight="bold" font-size="40.0" fill="#000000" transform="matrix(1.00, 0.00, -0.00, -1.00, 106.7, 12.0)">r</text><text xml:space="preserve" font-family="Avenir-Heavy" font-weight="bold" font-size="40.0" fill="#000000" transform="matrix(1.00, 0.00, -0.00, -1.00, 121.5, 12.0)">o</text><text xml:space="preserve" font-family="Avenir-Heavy" font-weight="bold" font-size="40.0" fill="#000000" transform="matrix(1.00, 0.00, -0.00, -1.00, 145.9, 12.0)">j</text><text xml:space="preserve" font-family="Avenir-Heavy" font-weight="bold" font-size="40.0" fill="#000000" transform="matrix(1.00, 0.00, -0.00, -1.00, 156.3, 12.0)">e</text><text xml:space="preserve" font-family="Avenir-Heavy" font-weight="bold" font-size="40.0" fill="#000000" transform="matrix(1.00, 0.00, -0.00, -1.00, 179.3, 12.0)">c</text><text xml:space="preserve" font-family="Avenir-Heavy" font-weight="bold" font-size="40.0" fill="#000000" transform="matrix(1.00, 0.00, -0.00, -1.00, 198.6, 12.0)">t</text><text xml:space="preserve" font-family="Avenir-Heavy" font-weight="bold" font-size="40.0" fill="#000000" transform="matrix(1.00, 0.00, -0.00, -1.00, 214.1, 12.0)">s</text><text xml:space="preserve" font-family="Avenir-Heavy" font-weight="bold" font-size="40.0" fill="#000000" transform="matrix(1.00, 0.00, -0.00, -1.00, 231.9, 12.0)"> </text><text xml:space="preserve" font-family="Avenir-Heavy" font-weight="bold" font-size="40.0" fill="#000000" transform="matrix(1.00, 0.00, -0.00, -1.00, 243.7, 12.0)">t</text><text xml:space="preserve" font-family="Avenir-Heavy" font-weight="bold" font-size="40.0" fill="#000000" transform="matrix(1.00, 0.00, -0.00, -1.00, 259.3, 12.0)">h</text><text xml:space="preserve" font-family="Avenir-Heavy" font-weight="bold" font-size="40.0" fill="#000000" transform="matrix(1.00, 0.00, -0.00, -1.00, 282.3, 12.0)">a</text><text xml:space="preserve" font-family="Avenir-Heavy" font-weight="bold" font-size="40.0" fill="#000000" transform="matrix(1.00, 0.00, -0.00, -1.00, 303.8, 12.0)">t</text><text xml:space="preserve" font-family="Avenir-Heavy" font-weight="bold" font-size="40.0" fill="#000000" transform="matrix(1.00, 0.00, -0.00, -1.00, 319.3, 12.0)"> </text><text xml:space="preserve" font-family="Avenir-Heavy" font-weight="bold" font-size="40.0" fill="#000000" transform="matrix(1.00, 0.00, -0.00, -1.00, 331.2, 12.0)">w</text><text xml:space="preserve" font-family="Avenir-Heavy" font-weight="bold" font-size="40.0" fill="#000000" transform="matrix(1.00, 0.00, -0.00, -1.00, 363.0, 12.0)">o</text><text xml:space="preserve" font-family="Avenir-Heavy" font-weight="bold" font-size="40.0" fill="#000000" transform="matrix(1.00, 0.00, -0.00, -1.00, 387.4, 12.0)">u</text><text xml:space="preserve" font-family="Avenir-Heavy" font-weight="bold" font-size="40.0" fill="#000000" transform="matrix(1.00, 0.00, -0.00, -1.00, 410.4, 12.0)">l</text><text xml:space="preserve" font-family="Avenir-Heavy" font-weight="bold" font-size="40.0" fill="#000000" transform="matrix(1.00, 0.00, -0.00, -1.00, 420.8, 12.0)">d</text><text xml:space="preserve" font-family="Avenir-Heavy" font-weight="bold" font-size="40.0" fill="#000000" transform="matrix(1.00, 0.00, -0.00, -1.00, 446.0, 12.0)"> </text><text xml:space="preserve" font-family="Avenir-Heavy" font-weight="bold" font-size="40.0" fill="#000000" transform="matrix(1.00, 0.00, -0.00, -1.00, 457.8, 12.0)">w</text><text xml:space="preserve" font-family="Avenir-Heavy" font-weight="bold" font-size="40.0" fill="#000000" transform="matrix(1.00, 0.00, -0.00, -1.00, 489.6, 12.0)">i</text><text xml:space="preserve" font-family="Avenir-Heavy" font-weight="bold" font-size="40.0" fill="#000000" transform="matrix(1.00, 0.00, -0.00, -1.00, 500.0, 12.0)">d</text><text xml:space="preserve" font-family="Avenir-Heavy" font-weight="bold" font-size="40.0" fill="#000000" transform="matrix(1.00, 0.00, -0.00, -1.00, 525.2, 12.0)">e</text><text xml:space="preserve" font-family="Avenir-Heavy" font-weight="bold" font-size="40.0" fill="#000000" transform="matrix(1.00, 0.00, -0.00, -1.00, 548.2, 12.0)">n</text><text xml:space="preserve" font-family="Avenir-Heavy" font-weight="bold" font-size="40.0" fill="#000000" transform="matrix(1.00, 0.00, -0.00, -1.00, 571.2, 12.0)"> </text><text xml:space="preserve" font-family="Avenir-Heavy" font-weight="bold" font-size="40.0" fill="#000000" transform="matrix(1.00, 0.00, -0.00, -1.00, 583.0, 12.0)">m</text><text xml:space="preserve" font-family="Avenir-Heavy" font-weight="bold" font-size="40.0" fill="#000000" transform="matrix(1.00, 0.00, -0.00, -1.00, 617.8, 12.0)">y</text><text xml:space="preserve" font-family="Avenir-Heavy" font-weight="bold" font-size="40.0" fill="#000000" transform="matrix(1.00, 0.00, -0.00, -1.00, 638.6, 12.0)"> </text><text xml:space="preserve" font-family="Avenir-Heavy" font-weight="bold" font-size="40.0" fill="#000000" transform="matrix(1.00, 0.00, -0.00, -1.00, 650.4, 12.0)">h</text><text xml:space="preserve" font-family="Avenir-Heavy" font-weight="bold" font-size="40.0" fill="#000000" transform="matrix(1.00, 0.00, -0.00, -1.00, 673.4, 12.0)">o</text><text xml:space="preserve" font-family="Avenir-Heavy" font-weight="bold" font-size="40.0" fill="#000000" transform="matrix(1.00, 0.00, -0.00, -1.00, 697.8, 12.0)">r</text><text xml:space="preserve" font-family="Avenir-Heavy" font-weight="bold" font-size="40.0" fill="#000000" transform="matrix(1.00, 0.00, -0.00, -1.00, 713.3, 12.0)">i</text><text xml:space="preserve" font-family="Avenir-Heavy" font-weight="bold" font-size="40.0" fill="#000000" transform="matrix(1.00, 0.00, -0.00, -1.00, 723.7, 12.0)">z</text><text xml:space="preserve" font-family="Avenir-Heavy" font-weight="bold" font-size="40.0" fill="#000000" transform="matrix(1.00, 0.00, -0.00, -1.00, 743.0, 12.0)">o</text><text xml:space="preserve" font-family="Avenir-Heavy" font-weight="bold" font-size="40.0" fill="#000000" transform="matrix(1.00, 0.00, -0.00, -1.00, 767.4, 12.0)">n</text><text xml:space="preserve" font-family="Avenir-Light" font-size="40.0" fill="#000000" transform="matrix(1.00, 0.00, -0.00, -1.00, 790.4, 12.0)">.</text><text xml:space="preserve" font-family="Avenir-Light" font-size="40.0" fill="#000000" transform="matrix(1.00, 0.00, -0.00, -1.00, 800.8, 12.0)"> </text><text xml:space="preserve" font-family="Avenir-Light" font-size="40.0" fill="#000000" transform="matrix(1.00, 0.00, -0.00, -1.00, 811.2, 12.0)">I</text><text xml:space="preserve" font-family="Avenir-Light" font-size="40.0" fill="#000000" transform="matrix(1.00, 0.00, -0.00, -1.00, 821.6, 12.0)"> </text><text xml:space="preserve" font-family="Avenir-Light" font-size="40.0" fill="#000000" transform="matrix(1.00, 0.00, -0.00, -1.00, 832.0, 12.0)">f</text><text xml:space="preserve" font-family="Avenir-Light" font-size="40.0" fill="#000000" transform="matrix(1.00, 0.00, -0.00, -1.00, 843.8, 12.0)">e</text><text xml:space="preserve" font-family="Avenir-Light" font-size="40.0" fill="#000000" transform="matrix(1.00, 0.00, -0.00, -1.00, 866.0, 12.0)">e</text><text xml:space="preserve" font-family="Avenir-Light" font-size="40.0" fill="#000000" transform="matrix(1.00, 0.00, -0.00, -1.00, 888.3, 12.0)">l</text><text xml:space="preserve" font-family="Avenir-Light" font-size="40.0" fill="#000000" transform="matrix(1.00, 0.00, -0.00, -1.00, 897.9, 12.0)"> </text><text xml:space="preserve" font-family="Avenir-Light" font-size="40.0" fill="#000000" transform="matrix(1.00, 0.00, -0.00, -1.00, 908.3, 12.0)">t</text><text xml:space="preserve" font-family="Avenir-Light" font-size="40.0" fill="#000000" transform="matrix(1.00, 0.00, -0.00, -1.00, 921.6, 12.0)">h</text><text xml:space="preserve" font-family="Avenir-Light" font-size="40.0" fill="#000000" transform="matrix(1.00, 0.00, -0.00, -1.00, 943.9, 12.0)">a</text><text xml:space="preserve" font-family="Avenir-Light" font-size="40.0" fill="#000000" transform="matrix(1.00, 0.00, -0.00, -1.00, 964.6, 12.0)">t</text><text xml:space="preserve" font-family="Avenir-Light" font-size="40.0" fill="#000000" transform="matrix(1.00, 0.00, -0.00, -1.00, 978.0, 12.0)"> </text><text xml:space="preserve" font-family="Avenir-Light" font-size="40.0" fill="#000000" transform="matrix(1.00, 0.00, -0.00, -1.00, 988.4, 12.0)">I</text><text xml:space="preserve" font-family="Avenir-Light" font-size="40.0" fill="#000000" transform="matrix(1.00, 0.00, -0.00, -1.00, 998.8, 12.0)">n</text><text xml:space="preserve" font-family="Avenir-Light" font-size="40.0" fill="#000000" transform="matrix(1.00, 0.00, -0.00, -1.00, 1021.0, 12.0)">t</text><text xml:space="preserve" font-family="Avenir-Light" font-size="40.0" fill="#000000" transform="matrix(1.00, 0.00, -0.00, -1.00, 1034.3, 12.0)">e</text><text xml:space="preserve" font-family="Avenir-Light" font-size="40.0" fill="#000000" transform="matrix(1.00, 0.00, -0.00, -1.00, 1056.6, 12.0)">r</text><text xml:space="preserve" font-family="Avenir-Light" font-size="40.0" fill="#000000" transform="matrix(1.00, 0.00, -0.00, -1.00, 1069.9, 12.0)">a</text><text xml:space="preserve" font-family="Avenir-Light" font-size="40.0" fill="#000000" transform="matrix(1.00, 0.00, -0.00, -1.00, 1090.6, 12.0)">c</text><text xml:space="preserve" font-family="Avenir-Light" font-size="40.0" fill="#000000" transform="matrix(1.00, 0.00, -0.00, -1.00, 1109.9, 12.0)">t</text><text xml:space="preserve" font-family="Avenir-Light" font-size="40.0" fill="#000000" transform="matrix(1.00, 0.00, -0.00, -1.00, 1123.2, 12.0)">i</text><text xml:space="preserve" font-family="Avenir-Light" font-size="40.0" fill="#000000" transform="matrix(1.00, 0.00, -0.00, -1.00, 1132.8, 12.0)">o</text><text xml:space="preserve" font-family="Avenir-Light" font-size="40.0" fill="#000000" transform="matrix(1.00, 0.00, -0.00, -1.00, 1156.6, 12.0)">n</text><text xml:space="preserve" font-family="Avenir-Light" font-size="40.0" fill="#000000" transform="matrix(1.00, 0.00, -0.00, -1.00, 1178.8, 12.0)"> </text><text xml:space="preserve" font-family="Avenir-Light" font-size="40.0" fill="#000000" transform="matrix(1.00, 0.00, -0.00, -1.00, 1189.2, 12.0)">d</text><text xml:space="preserve" font-family="Avenir-Light" font-size="40.0" fill="#000000" transform="matrix(1.00, 0.00, -0.00, -1.00, 1213.7, 12.0)">e</text><text xml:space="preserve" font-family="Avenir-Light" font-size="40.0" fill="#000000" transform="matrix(1.00, 0.00, -0.00, -1.00, 1235.9, 12.0)">s</text><text xml:space="preserve" font-family="Avenir-Light" font-size="40.0" fill="#000000" transform="matrix(1.00, 0.00, -0.00, -1.00, 1253.0, 12.0)">i</text><text xml:space="preserve" font-family="Avenir-Light" font-size="40.0" fill="#000000" transform="matrix(1.00, 0.00, -0.00, -1.00, 1262.6, 12.0)">g</text><text xml:space="preserve" font-family="Avenir-Light" font-size="40.0" fill="#000000" transform="matrix(1.00, 0.00, -0.00, -1.00, 1287.0, 12.0)">n</text><text xml:space="preserve" font-family="Avenir-Light" font-size="40.0" fill="#000000" transform="matrix(1.00, 0.00, -0.00, -1.00, 1309.2, 12.0)"> </text><text xml:space="preserve" font-family="Avenir-Light" font-size="40.0" fill="#000000" transform="matrix(1.00, 0.00, -0.00, -1.00, 1319.6, 12.0)">g</text><text xml:space="preserve" font-family="Avenir-Light" font-size="40.0" fill="#000000" transform="matrix(1.00, 0.00, -0.00, -1.00, 1344.1, 12.0)">a</text><text xml:space="preserve" font-family="Avenir-Light" font-size="40.0" fill="#000000" transform="matrix(1.00, 0.00, -0.00, -1.00, 1364.8, 12.0)">v</text><text xml:space="preserve" font-family="Avenir-Light" font-size="40.0" fill="#000000" transform="matrix(1.00, 0.00, -0.00, -1.00, 1383.4, 12.0)">e</text><text xml:space="preserve" font-family="Avenir-Light" font-size="40.0" fill="#000000" transform="matrix(1.00, 0.00, -0.00, -1.00, 1405.6, 12.0)"> </text><text xml:space="preserve" font-family="Avenir-Light" font-size="40.0" fill="#000000" transform="matrix(1.00, 0.00, -0.00, -1.00, 1416.0, 12.0)">m</text><text xml:space="preserve" font-family="Avenir-Light" font-size="40.0" fill="#000000" transform="matrix(1.00, 0.00, -0.00, -1.00, 1450.1, 12.0)">e</text></g></svg>