<?xml version="1.0" encoding="UTF-8"?><svg xmlns="http://www.w3.org/2000/svg" xmlns:xlink="http://www.w3.org/1999/xlink" clip-rule="evenodd" stroke-miterlimit="4.00" viewBox="0 0 390 45"><desc>SVG generated by Keynote</desc><defs></defs><g transform="matrix(1.00, 0.00, -0.00, -1.00, 0.0, 45.0)"><text xml:space="preserve" font-family="Avenir-Light" font-size="30.0" fill="#000000" transform="matrix(1.00, 0.00, -0.00, -1.00, 0.7, 14.9)">•</text><text xml:space="preserve" font-family="Avenir-Light" font-size="40.0" fill="#000000" transform="matrix(1.00, 0.00, -0.00, -1.00, 40.0, 12.0)">I</text><text xml:space="preserve" font-family="Avenir-Light" font-size="40.0" fill="#000000" transform="matrix(1.00, 0.00, -0.00, -1.00, 50.4, 12.0)"> </text><text xml:space="preserve" font-family="Avenir-Light" font-size="40.0" fill="#000000" transform="matrix(1.00, 0.00, -0.00, -1.00, 60.8, 12.0)">c</text><text xml:space="preserve" font-family="Avenir-Light" font-size="40.0" fill="#000000" transform="matrix(1.00, 0.00, -0.00, -1.00, 80.0, 12.0)">h</text><text xml:space="preserve" font-family="Avenir-Light" font-size="40.0" fill="#000000" transform="matrix(1.00, 0.00, -0.00, -1.00, 102.3, 12.0)">o</text><text xml:space="preserve" font-family="Avenir-Light" font-size="40.0" fill="#000000" transform="matrix(1.00, 0.00, -0.00, -1.00, 126.0, 12.0)">s</text><text xml:space="preserve" font-family="Avenir-Light" font-size="40.0" fill="#000000" transform="matrix(1.00, 0.00, -0.00, -1.00, 143.1, 12.0)">e</text><text xml:space="preserve" font-family="Avenir-Light" font-size="40.0" fill="#000000" transform="matrix(1.00, 0.00, -0.00, -1.00, 165.3, 12.0)"> </text><text xml:space="preserve" font-family="Avenir-Light" font-size="40.0" fill="#000000" transform="matrix(1.00, 0.00, -0.00, -1.00, 175.7, 12.0)">A</text><text xml:space="preserve" font-family="Avenir-Light" font-size="40.0" fill="#000000" transform="matrix(1.00, 0.00, -0.00, -1.00, 203.1, 12.0)">n</text><text xml:space="preserve" font-family="Avenir-Light" font-size="40.0" fill="#000000" transform="matrix(1.00, 0.00, -0.00, -1.00, 225.4, 12.0)">g</text><text xml:space="preserve" font-family="Avenir-Light" font-size="40.0" fill="#000000" transform="matrix(1.00, 0.00, -0.00, -1.00, 249.8, 12.0)">r</text><text xml:space="preserve" font-family="Avenir-Light" font-size="40.0" fill="#000000" transform="matrix(1.00, 0.00, -0.00, -1.00, 263.1, 12.0)">y</text><text xml:space="preserve" font-family="Avenir-Light" font-size="40.0" fill="#000000" transform="matrix(1.00, 0.00, -0.00, -1.00, 281.6, 12.0)"> </text><text xml:space="preserve" font-family="Avenir-Light" font-size="40.0" fill="#000000" transform="matrix(1.00, 0.00, -0.00, -1.00, 292.0, 12.0)">B</text><text xml:space="preserve" font-family="Avenir-Light" font-size="40.0" fill="#000000" transform="matrix(1.00, 0.00, -0.00, -1.00, 317.2, 12.0)">i</text><text xml:space="preserve" font-family="Avenir-Light" font-size="40.0" fill="#000000" transform="matrix(1.00, 0.00, -0.00, -1.00, 326.8, 12.0)">r</text><text xml:space="preserve" font-family="Avenir-Light" font-size="40.0" fill="#000000" transform="matrix(1.00, 0.00, -0.00, -1.00, 339.4, 12.0)">d</text><text xml:space="preserve" font-family="Avenir-Light" font-size="40.0" fill="#000000" transform="matrix(1.00, 0.00, -0.00, -1.00, 363.9, 12.0)">s</text><text xml:space="preserve" font-family="Avenir-Light" font-size="40.0" fill="#000000" transform="matrix(1.00, 0.00, -0.00, -1.00, 380.9, 12.0)">.</text></g></svg>