<?xml version="1.0" encoding="UTF-8"?><svg xmlns="http://www.w3.org/2000/svg" xmlns:xlink="http://www.w3.org/1999/xlink" clip-rule="evenodd" stroke-miterlimit="4.00" viewBox="0 0 646 45"><desc>SVG generated by Keynote</desc><defs></defs><g transform="matrix(1.00, 0.00, -0.00, -1.00, 0.0, 45.0)"><text xml:space="preserve" font-family="Avenir-Heavy" font-weight="bold" font-size="30.0" fill="#000000" transform="matrix(1.00, 0.00, -0.00, -1.00, 0.7, 14.9)">•</text><text xml:space="preserve" font-family="Avenir-Heavy" font-weight="bold" font-size="40.0" fill="#000000" transform="matrix(1.00, 0.00, -0.00, -1.00, 40.0, 12.0)">I</text><text xml:space="preserve" font-family="Avenir-Heavy" font-weight="bold" font-size="40.0" fill="#000000" transform="matrix(1.00, 0.00, -0.00, -1.00, 51.1, 12.0)">n</text><text xml:space="preserve" font-family="Avenir-Heavy" font-weight="bold" font-size="40.0" fill="#000000" transform="matrix(1.00, 0.00, -0.00, -1.00, 74.1, 12.0)">c</text><text xml:space="preserve" font-family="Avenir-Heavy" font-weight="bold" font-size="40.0" fill="#000000" transform="matrix(1.00, 0.00, -0.00, -1.00, 93.4, 12.0)">o</text><text xml:space="preserve" font-family="Avenir-Heavy" font-weight="bold" font-size="40.0" fill="#000000" transform="matrix(1.00, 0.00, -0.00, -1.00, 117.8, 12.0)">n</text><text xml:space="preserve" font-family="Avenir-Heavy" font-weight="bold" font-size="40.0" fill="#000000" transform="matrix(1.00, 0.00, -0.00, -1.00, 140.7, 12.0)">s</text><text xml:space="preserve" font-family="Avenir-Heavy" font-weight="bold" font-size="40.0" fill="#000000" transform="matrix(1.00, 0.00, -0.00, -1.00, 158.5, 12.0)">i</text><text xml:space="preserve" font-family="Avenir-Heavy" font-weight="bold" font-size="40.0" fill="#000000" transform="matrix(1.00, 0.00, -0.00, -1.00, 168.9, 12.0)">s</text><text xml:space="preserve" font-family="Avenir-Heavy" font-weight="bold" font-size="40.0" fill="#000000" transform="matrix(1.00, 0.00, -0.00, -1.00, 186.6, 12.0)">t</text><text xml:space="preserve" font-family="Avenir-Heavy" font-weight="bold" font-size="40.0" fill="#000000" transform="matrix(1.00, 0.00, -0.00, -1.00, 202.2, 12.0)">e</text><text xml:space="preserve" font-family="Avenir-Heavy" font-weight="bold" font-size="40.0" fill="#000000" transform="matrix(1.00, 0.00, -0.00, -1.00, 225.2, 12.0)">n</text><text xml:space="preserve" font-family="Avenir-Heavy" font-weight="bold" font-size="40.0" fill="#000000" transform="matrix(1.00, 0.00, -0.00, -1.00, 248.1, 12.0)">c</text><text xml:space="preserve" font-family="Avenir-Heavy" font-weight="bold" font-size="40.0" fill="#000000" transform="matrix(1.00, 0.00, -0.00, -1.00, 267.4, 12.0)">y</text><text xml:space="preserve" font-family="Avenir-Heavy" font-weight="bold" font-size="40.0" fill="#000000" transform="matrix(1.00, 0.00, -0.00, -1.00, 288.2, 12.0)"> </text><text xml:space="preserve" font-family="Avenir-Heavy" font-weight="bold" font-size="40.0" fill="#000000" transform="matrix(1.00, 0.00, -0.00, -1.00, 300.0, 12.0)">i</text><text xml:space="preserve" font-family="Avenir-Heavy" font-weight="bold" font-size="40.0" fill="#000000" transform="matrix(1.00, 0.00, -0.00, -1.00, 310.4, 12.0)">n</text><text xml:space="preserve" font-family="Avenir-Heavy" font-weight="bold" font-size="40.0" fill="#000000" transform="matrix(1.00, 0.00, -0.00, -1.00, 333.4, 12.0)"> </text><text xml:space="preserve" font-family="Avenir-Heavy" font-weight="bold" font-size="40.0" fill="#000000" transform="matrix(1.00, 0.00, -0.00, -1.00, 345.2, 12.0)">t</text><text xml:space="preserve" font-family="Avenir-Heavy" font-weight="bold" font-size="40.0" fill="#000000" transform="matrix(1.00, 0.00, -0.00, -1.00, 360.8, 12.0)">h</text><text xml:space="preserve" font-family="Avenir-Heavy" font-weight="bold" font-size="40.0" fill="#000000" transform="matrix(1.00, 0.00, -0.00, -1.00, 383.8, 12.0)">e</text><text xml:space="preserve" font-family="Avenir-Heavy" font-weight="bold" font-size="40.0" fill="#000000" transform="matrix(1.00, 0.00, -0.00, -1.00, 406.7, 12.0)"> </text><text xml:space="preserve" font-family="Avenir-Heavy" font-weight="bold" font-size="40.0" fill="#000000" transform="matrix(1.00, 0.00, -0.00, -1.00, 418.6, 12.0)">e</text><text xml:space="preserve" font-family="Avenir-Heavy" font-weight="bold" font-size="40.0" fill="#000000" transform="matrix(1.00, 0.00, -0.00, -1.00, 441.5, 12.0)">x</text><text xml:space="preserve" font-family="Avenir-Heavy" font-weight="bold" font-size="40.0" fill="#000000" transform="matrix(1.00, 0.00, -0.00, -1.00, 463.0, 12.0)">p</text><text xml:space="preserve" font-family="Avenir-Heavy" font-weight="bold" font-size="40.0" fill="#000000" transform="matrix(1.00, 0.00, -0.00, -1.00, 488.2, 12.0)">e</text><text xml:space="preserve" font-family="Avenir-Heavy" font-weight="bold" font-size="40.0" fill="#000000" transform="matrix(1.00, 0.00, -0.00, -1.00, 511.2, 12.0)">n</text><text xml:space="preserve" font-family="Avenir-Heavy" font-weight="bold" font-size="40.0" fill="#000000" transform="matrix(1.00, 0.00, -0.00, -1.00, 534.1, 12.0)">d</text><text xml:space="preserve" font-family="Avenir-Heavy" font-weight="bold" font-size="40.0" fill="#000000" transform="matrix(1.00, 0.00, -0.00, -1.00, 559.4, 12.0)">i</text><text xml:space="preserve" font-family="Avenir-Heavy" font-weight="bold" font-size="40.0" fill="#000000" transform="matrix(1.00, 0.00, -0.00, -1.00, 569.8, 12.0)">t</text><text xml:space="preserve" font-family="Avenir-Heavy" font-weight="bold" font-size="40.0" fill="#000000" transform="matrix(1.00, 0.00, -0.00, -1.00, 585.3, 12.0)">u</text><text xml:space="preserve" font-family="Avenir-Heavy" font-weight="bold" font-size="40.0" fill="#000000" transform="matrix(1.00, 0.00, -0.00, -1.00, 608.3, 12.0)">r</text><text xml:space="preserve" font-family="Avenir-Heavy" font-weight="bold" font-size="40.0" fill="#000000" transform="matrix(1.00, 0.00, -0.00, -1.00, 623.1, 12.0)">e</text></g></svg>